<?xml version="1.0" encoding="utf-8"?>
<!-- Generator: Adobe Illustrator 18.0.0, SVG Export Plug-In . SVG Version: 6.00 Build 0)  -->
<!DOCTYPE svg PUBLIC "-//W3C//DTD SVG 1.1//EN" "http://www.w3.org/Graphics/SVG/1.1/DTD/svg11.dtd">
<svg version="1.1" id="Layer_1" xmlns="http://www.w3.org/2000/svg" xmlns:xlink="http://www.w3.org/1999/xlink" x="0px" y="0px"
	 viewBox="0 0 62 31.4" enable-background="new 0 0 62 31.4" xml:space="preserve">
<g>
	<g>
		<path fill="none" d="M23.6,31.2C16.6,21.3,11.5,20,1.4,15.4C13.5,9.3,25.9,0,25.9,0 M62,15.2H5"/>
		<g>
			<g>
				<g>
					<path fill="#FFFFFF" d="M5,14.8C5,14.9,5,15,5.1,15l0.1-0.2L5,14.8z"/>
					<path fill="#FFFFFF" d="M5.6,15.2c0.1-0.1,0.2-0.3,0.1-0.5c-0.1,0.2-0.1,0.1-0.2,0.3c-0.1,0-0.1-0.1-0.1-0.1
						c0,0.1-0.1,0-0.2,0.1c0.1,0.2,0.2,0.2,0.4,0C5.6,15.1,5.6,15.2,5.6,15.2z"/>
					<path fill="#FFFFFF" d="M13.6,15.5L13.6,15.5C13.6,15.5,13.6,15.5,13.6,15.5z"/>
					<path fill="#FFFFFF" d="M18.7,15.6C18.6,15.6,18.6,15.6,18.7,15.6C18.6,15.7,18.7,15.6,18.7,15.6z"/>
					<path fill="#FFFFFF" d="M19.5,15.8C19.5,15.8,19.5,15.8,19.5,15.8C19.5,15.9,19.5,15.9,19.5,15.8z"/>
					<path fill="#FFFFFF" d="M13.6,15.5l0.1,0.1C13.8,15.5,13.7,15.5,13.6,15.5z"/>
					<path fill="#FFFFFF" d="M6.7,14.7C6.7,14.7,6.6,14.7,6.7,14.7C6.6,14.7,6.7,14.7,6.7,14.7C6.7,14.7,6.7,14.7,6.7,14.7z"/>
					<path fill="#FFFFFF" d="M11.4,15.7L11.4,15.7C11.4,15.7,11.4,15.7,11.4,15.7L11.4,15.7z"/>
					<path fill="#FFFFFF" d="M9.7,15.7c0,0,0.1-0.2,0.1-0.2c0,0.1,0,0.1-0.1,0.1C9.7,15.6,9.7,15.7,9.7,15.7z"/>
					<path fill="#FFFFFF" d="M7.1,15.4L7.1,15.4C7,15.4,7,15.4,7.1,15.4z"/>
					<path fill="#FFFFFF" d="M12.7,15.7C12.7,15.7,12.7,15.8,12.7,15.7C12.7,15.8,12.7,15.7,12.7,15.7z"/>
					<path fill="#FFFFFF" d="M60,14.4C60,14.4,60,14.4,60,14.4C60.1,14.4,60.1,14.4,60,14.4z"/>
					<path fill="#FFFFFF" d="M62,15.3L62,15.3c0,0,0,0.1,0,0.1L62,15.3z"/>
					<path fill="#FFFFFF" d="M21.1,16.1C21.1,16.1,21.1,16.1,21.1,16.1C21,16.1,21.1,16.1,21.1,16.1z"/>
					<path fill="#FFFFFF" d="M35.4,15.9c-0.2-0.2,0.3-0.2,0-0.4C35.5,15.6,35.2,15.8,35.4,15.9z"/>
					<path fill="#FFFFFF" d="M6.7,14.7C6.7,14.7,6.8,14.7,6.7,14.7C6.8,14.7,6.7,14.7,6.7,14.7z"/>
					<path fill="#FFFFFF" d="M35.5,15.6C35.5,15.6,35.5,15.6,35.5,15.6L35.5,15.6C35.4,15.6,35.5,15.6,35.5,15.6z"/>
					<path fill="#FFFFFF" d="M24.7,16C24.7,15.9,24.7,15.9,24.7,16C24.6,15.9,24.7,15.9,24.7,16z"/>
					<path fill="#FFFFFF" d="M22,15.7L22,15.7C22,15.7,22,15.7,22,15.7z"/>
					<path fill="#FFFFFF" d="M26.1,15.7C26.1,15.7,26.1,15.8,26.1,15.7C26.2,15.7,26.2,15.7,26.1,15.7
						C26.1,15.7,26.1,15.7,26.1,15.7z"/>
					<path fill="#FFFFFF" d="M27.5,15.7C27.5,15.7,27.5,15.7,27.5,15.7C27.5,15.7,27.5,15.7,27.5,15.7L27.5,15.7z"/>
					<path fill="#FFFFFF" d="M55.6,14.5c0,0,0.1,0.1,0.1,0.2C55.7,14.5,55.9,14.5,55.6,14.5z"/>
					<path fill="#FFFFFF" d="M6.7,14.8C6.7,14.7,6.7,14.7,6.7,14.8C6.7,14.7,6.7,14.7,6.7,14.8C6.7,14.8,6.7,14.8,6.7,14.8z"/>
					<path fill="#FFFFFF" d="M26.1,14.3l0.2,0C26.3,14.4,26.2,14.3,26.1,14.3z"/>
					<path fill="#FFFFFF" d="M45.2,14.5L45.2,14.5C45.3,14.5,45.2,14.5,45.2,14.5z"/>
					<path fill="#FFFFFF" d="M27.1,14.3c0,0.1,0.1,0.1,0.1,0.1c0,0,0,0,0,0L27.1,14.3z"/>
					<path fill="#FFFFFF" d="M55.7,14.6C55.7,14.6,55.7,14.6,55.7,14.6C55.7,14.6,55.7,14.6,55.7,14.6z"/>
					<path fill="#FFFFFF" d="M57.2,14.2c-0.2,0-0.1,0.2-0.1,0.4c-0.3,0.1-0.1-0.2-0.2-0.3c-0.2,0.1-0.3,0.3-0.4,0.3c0,0,0-0.1,0-0.1
						c-0.2,0.2-0.5,0-0.7,0.2c0,0,0,0,0-0.1c0,0.1,0,0.2,0,0.3c-0.1,0-0.2,0.1-0.2,0c0.1,0,0.1-0.1,0.1-0.1l-0.1,0.1
						c-0.1-0.2,0.1-0.1,0.1-0.2c-0.2,0.1-0.4,0.2-0.6,0.2c0-0.2,0.4-0.1,0.2-0.3l0.2,0.1c-0.2-0.3,0.1,0,0-0.3
						c-0.3-0.1-0.4,0.1-0.7,0c-0.1,0.1,0,0.2,0,0.3c-0.4,0.2-0.4-0.5-0.7-0.2c-0.1,0.1-0.1,0.4-0.4,0.3l0.1-0.2
						c-0.3,0-0.2,0.3-0.5,0.2c0.1-0.1,0.2-0.1,0.2-0.1c-0.2-0.2-0.1,0.1-0.3,0.1l0-0.2c-0.3,0-0.7,0.2-1,0.2c0-0.1,0.1-0.1,0-0.2
						c-0.5,0.1-1,0-1.4-0.2l-0.2,0.2c0,0-0.1-0.1,0-0.1c-0.2-0.1,0,0.1-0.1,0.2c-0.1,0-0.1-0.1-0.1-0.2c-0.3,0.2-0.9,0.3-1.2,0.1
						l0.1-0.1c-0.2-0.1-0.3,0.4-0.5,0.2l0,0c-0.5-0.1-1.1,0.1-1.5-0.2c-0.1,0.3-0.5-0.1-0.6,0.2c-0.3-0.2-0.2-0.2-0.6-0.4
						c-0.1,0-0.2,0.2-0.3,0.3l0-0.2l-0.2,0.2l-0.1-0.2l-0.1,0c0.1,0,0.1,0.1,0.1,0.1c-0.2,0.1-0.5-0.1-0.5-0.2l-0.5,0.2
						c0-0.1,0.1-0.1,0.2-0.2c-0.3,0.2,0-0.2-0.3,0c0,0,0,0.1,0,0.2c-0.1-0.1-0.4-0.1-0.6-0.1l0-0.1c-0.4,0-0.8,0.1-1.2,0.1
						c0.1,0.1,0.1,0.3,0,0.3l0-0.2c-0.1,0.1,0.1,0.1,0,0.2c-0.2,0-0.1-0.2,0-0.3l-0.2,0.1c0-0.1,0-0.1,0-0.2c-0.1,0.1-0.3-0.2-0.4,0
						l0-0.1c-0.4,0-0.6,0.1-0.9,0.1c0,0.2-0.1,0.1-0.2,0.3c-0.2-0.1-0.5-0.2-0.8-0.2c-0.2,0.1-0.1,0.1-0.2,0.3
						c0-0.2-0.3-0.1-0.2-0.3c-0.4,0-0.5,0-0.9,0.2c0,0.1,0.1,0.1,0.1,0.1c-0.1,0-0.2-0.1-0.2-0.1l0,0c-0.5,0.2-1.2-0.5-1.6-0.1l0,0
						l-0.4,0.2c-0.2,0,0.1-0.1,0-0.2c-0.4,0.3-0.7,0-1.1,0.1c-0.3-0.5-1,0-1.4-0.3l0,0.1c-0.1,0.1-0.1-0.1-0.2-0.1
						c0,0.1,0.1,0.1,0,0.2c-0.8,0.1-1.7-0.2-2.6-0.3c-0.3,0-0.2,0.6-0.6,0.3l0.1-0.2c-0.6,0.2-1.3,0-1.9,0.2c0,0,0-0.1,0.1-0.1
						c-0.1-0.1-0.5,0-0.5,0.1c-0.1,0,0-0.1-0.1-0.2c-0.1-0.1-0.3,0.2-0.4,0c0,0,0,0,0.1-0.1c-0.1,0.1-0.4,0-0.3,0.2
						c-0.2-0.1-0.4,0.1-0.6,0c-0.1,0.2-0.4-0.1-0.4,0.2c0-0.3-0.4-0.2-0.6-0.1c0-0.1-0.1-0.1-0.1-0.2c-0.2,0-0.3,0.1-0.3,0.2
						c-0.3-0.3-0.6,0.3-0.8-0.2c-0.5,0.2-1,0.3-1.4,0.3c0-0.3,0.5,0,0.5-0.3c-0.4,0.1-0.7,0.4-1.1,0.3c-0.1,0,0.1-0.1,0.1-0.2
						c-0.4,0.1-0.8,0-1.2,0.1c0,0,0-0.1,0.1-0.1c-0.1,0-0.2,0-0.2,0.1l0.1,0c0.1,0.2-0.3,0.4-0.3,0.5c0.1-0.4-0.4-0.1-0.2-0.6
						c0,0-0.1,0.1-0.1,0.2c-0.1,0-0.1-0.1,0-0.2c-0.3,0.1-0.2,0.2-0.4,0.2c0-0.1,0.1-0.1,0.1-0.2c-0.1,0.1-0.2,0.2-0.5,0.2
						c0,0,0-0.1,0-0.1c-0.4,0-0.6,0.3-1,0.2c0.1-0.3-0.1-0.1-0.2-0.3l-0.2,0.1l0.1,0.1c-0.2,0-0.3,0.2-0.5,0.1l0.1-0.1l-0.3,0
						l0.2,0.1c-0.2,0.1,0,0.3-0.2,0.2c0,0-0.2,0-0.3-0.1c0,0,0,0,0,0c-0.1,0.1-0.2,0.2-0.3,0.1c0-0.1,0-0.3,0-0.3
						c-0.1,0.2-0.4,0.1-0.5,0.3c0,0,0-0.2,0-0.2L17.3,15c-0.1-0.1-0.1-0.1-0.1-0.2c-0.3,0,0.1,0.3-0.2,0.2c0,0,0,0,0.1-0.1
						c-0.3-0.1-0.6,0.1-0.9,0c-0.1-0.2,0.2-0.1,0.1-0.3c-0.4,0-0.8,0.3-1.2,0.2l0.1,0c-0.1,0.3-0.3-0.2-0.5,0c0,0,0.1-0.2,0.1-0.1
						c-0.3-0.1-0.5,0.1-0.9,0.2l0.1-0.1c-0.2-0.1-0.4,0-0.6-0.1c-0.1,0.1-0.1,0.1-0.1,0.2c-0.5-0.5-1,0.3-1.5-0.1
						c0.1,0,0.1-0.1,0.1-0.1l-0.4,0.1c0,0.1,0.1,0.1,0.1,0.2c-0.1,0.1-0.2,0.2-0.3,0.2c0.2-0.1,0-0.2-0.1-0.3c0,0,0,0.1,0,0.1
						c-0.2-0.3,0,0.3-0.3,0.1l0-0.1c-0.1,0-0.2,0.1-0.3,0.1c0-0.2,0.1-0.1,0.1-0.2c-0.2,0-0.3,0.3-0.5,0.1c0.1,0,0.2,0,0.2-0.1
						c-0.2-0.2-0.2-0.1-0.3-0.2l0,0l-0.3-0.1l0.1,0.1c-0.2,0.4-0.4,0.1-0.7,0.4c0.3-0.3,0-0.2,0.1-0.3c-0.1-0.1-0.2-0.1-0.1-0.2
						c-0.1,0.2-0.2-0.1-0.4,0.1c0-0.1-0.1,0-0.1-0.2c-0.2,0,0,0.1,0,0.2c-0.3,0.2-0.6-0.3-1,0c-0.3,0.1-0.4,0.3-0.7,0.4
						C7,15.2,7.2,15,7.2,15C7,14.9,6.9,15,6.8,15c0-0.1,0-0.1,0-0.2c-0.1,0-0.1,0.2-0.2,0.1c0-0.1,0.1-0.2,0.1-0.2
						c-0.1,0.1-0.3,0.2-0.4,0.2c0-0.1,0.1-0.2,0.1-0.2c-0.2,0-0.4,0.1-0.5,0.3l0.1,0.1c-0.1,0,0-0.1,0-0.2c0.1-0.1,0.2,0.1,0.2,0.1
						l-0.1,0c0.1,0.4,0.4-0.1,0.6,0l-0.1,0.3l0.2-0.2c0,0.1,0.1,0.2,0,0.2c0.2,0.1,0.1-0.1,0.3,0.1c0,0,0,0,0,0l0.1-0.1
						c0,0.1,0,0.2-0.1,0.1c0.3,0.1,0.4-0.2,0.5,0l0,0c0.4-0.1,0-0.2,0.3-0.4l0.2,0.5l0-0.2c0,0,0.1,0,0.1,0.1c0.1-0.1,0-0.1,0.1-0.2
						c0.2,0.2,0.5-0.1,0.5,0.2c0.1-0.1-0.2-0.1,0-0.2c0.1,0.3,0.2-0.1,0.4,0.1c-0.1,0.2-0.2,0.1,0,0.2c0.1-0.3,0.3,0.1,0.5,0
						c0-0.2,0.3-0.1,0.5-0.2c0,0.1,0.4,0.1,0.7,0.2l0,0c0-0.2,0.3-0.2,0.4-0.2c0,0.1,0,0.2-0.1,0.3l0.2,0c0-0.1,0.1-0.1,0.2-0.1
						l0,0.2c0.2,0,0.4-0.2,0.7-0.1c0-0.2-0.2-0.4,0.1-0.5c0,0.1,0,0.2-0.1,0.3c0,0,0.1-0.1,0.1,0l-0.1,0.1c0.1,0.1,0.1-0.1,0.2-0.1
						c0,0.1,0.1,0.1,0.1,0.2c0,0-0.1-0.1-0.1,0c0.1,0,0.2,0.1,0.3,0.2c0-0.1,0-0.2,0.1-0.2c0.2,0,0.1,0.1,0.2,0.2
						c0.1-0.1,0.2,0,0.2-0.2c0.1,0,0.1,0.1,0.1,0.1c0.1-0.1,0.5,0,0.4-0.2l0,0c0,0,0,0,0,0c0,0,0,0,0,0h0c0.4-0.2,0.7,0.1,1.1,0
						l0,0.1c0.2-0.1,0.5,0,0.6-0.2c0.1,0,0.1,0.1,0.1,0.2c0.2,0,0.2-0.1,0.4,0c-0.2,0.1,0.1,0.1-0.2,0.1c0.2,0.1,0.3,0.2,0.5,0
						c-0.1,0.2,0.2,0.2,0.3,0.2l-0.1-0.1c0.1,0,0.2,0,0.3,0l-0.1,0.2c0.4,0.3,0.8-0.4,1.1,0c0.1-0.1-0.2-0.1-0.1-0.3
						c0.2,0,0.4,0.3,0.5,0.3c0.3,0.1,0.2-0.3,0.5-0.2c0-0.1-0.1-0.3,0.1-0.3c0.2,0,0.2,0.3,0.1,0.4c0,0-0.1,0-0.1,0
						c-0.1,0-0.1,0.1-0.1,0.1l0-0.1c0.1,0.1,0.4,0.1,0.3,0.2c0.1-0.1,0.1-0.1,0-0.2c0.3,0.1,0.4,0,0.6,0.1c0,0-0.1-0.1,0-0.1
						c0.4,0.1,0.2-0.1,0.4-0.2c0.1,0.1-0.1,0.3,0.2,0.2c0.2,0.1,0,0.2,0,0.3c0.2-0.1,0.4,0.1,0.6,0.1l-0.1,0.1c0.1,0,0.1,0,0.2,0
						L20.6,16c0.1,0,0.1,0,0.1,0.1c0.1-0.1-0.1-0.2,0.1-0.4c0.1,0.1,0.3-0.1,0.3,0.1c-0.3-0.1,0,0.2-0.2,0.2c0,0,0.1,0,0.2,0
						c0,0,0,0,0,0.1c0.3,0.2,0.1-0.2,0.4-0.2c0,0.1,0.1,0.2,0.1,0.2c-0.1,0-0.1-0.2,0.1-0.3c0.2,0.1,0.2-0.1,0.3-0.1l-0.1,0
						c0-0.1,0.1-0.1,0.3-0.1c0,0.1-0.1,0.1-0.1,0.1c0.1-0.2,0.3,0.2,0.5,0.1c0.1,0.1,0,0.2,0.1,0.3c0.2-0.1,0.3,0.2,0.5,0
						c-0.1-0.1-0.1-0.1,0.1-0.3l-0.4,0.1l0.3-0.2c-0.1,0-0.3,0.1-0.3,0.1c0.1-0.1,0.1-0.1,0.1-0.2c0.2,0.2,0.3-0.1,0.5,0l0,0.4
						c0.3,0.2,0.5-0.2,0.9-0.1l-0.1-0.1c0.1-0.1,0.2,0,0.4-0.1c0,0.1,0.1,0.2,0.1,0.2c0-0.1,0.3,0,0.3-0.2l0.2,0.2
						c0.3,0.1,0.3-0.3,0.6-0.3c-0.1,0.1,0,0.2-0.2,0.3c0.1,0,0.2,0,0.2-0.1c0.1,0.1,0.3-0.2,0.4,0c0-0.1,0.1-0.2,0.2-0.2
						c0,0,0,0.1,0,0.1c0-0.1,0.2-0.1,0.1-0.2c0.3,0.4,0.8,0,1.1,0.3c0.2,0,0.5-0.1,0.7-0.1c0,0,0,0.1,0,0c0.3,0.1,0.2-0.4,0.5-0.2
						c0.2,0.2-0.2,0.1-0.1,0.2c0,0.4,0.4-0.1,0.6,0.2l0,0c0.2,0.1,0.4-0.2,0.6-0.1c0,0,0,0,0,0.1c0.2-0.2,0.5-0.3,0.8-0.3
						c-0.1,0.2-0.1,0.1-0.1,0.2c0.1,0,0-0.3,0.2-0.3c0.1,0.1,0.2,0.2,0.3,0.3l-0.2,0c0.1,0.2,0.3,0,0.4,0l0,0.1
						c0.3,0,0.3-0.3,0.7-0.3l0-0.1c0.2-0.2,0.2,0.1,0.3,0l0.1,0.2c0.1-0.1,0.4-0.2,0.7-0.3c-0.1,0.2-0.4,0.3-0.5,0.4
						c0.1,0,0.4,0,0.5-0.1c0,0-0.1,0.1-0.2,0c0.1-0.2,0.3-0.3,0.6-0.3c0,0.5,0.6,0.1,0.8,0.5c0.4-0.2,0.9,0.1,1.4,0
						c-0.2-0.4,0.1,0,0.1-0.4c0.1,0,0.2,0,0.2,0l0.4,0.2c0.1,0.1-0.1,0.1-0.1,0.2c0.3,0,0.1,0.2,0.3,0.3c0-0.1,0.1-0.2,0.2-0.1
						L36,15.9c0.4-0.2,0.3,0.3,0.7,0.1l-0.1,0.1c0.2-0.1,0.7,0,0.9-0.3c0,0,0.1,0.1,0,0.2c0.4,0,1-0.3,1.3-0.1l0,0.1
						c0.1,0,0.1-0.2,0.2-0.1c0,0,0,0.1,0,0.1c0,0,0.2-0.2,0.3-0.1L39.2,16c0.4,0.1,0.7-0.3,1-0.3c0,0.3,0.3,0.4,0.5,0.4l0,0
						c0.5,0,0.9-0.2,1.3-0.3c0.3,0.3,1,0.1,1.4,0.3c-0.1,0,0-0.2,0.1-0.2c0.1,0.1,0.3-0.2,0.3,0.1l0,0c0.1,0.2,0.3,0.2,0.5,0.2
						l0-0.3c0.5,0.5,1.2-0.2,1.4,0.3c0.1-0.1,0.2-0.1,0.4-0.2l0,0.2c0.3,0,0.5,0.1,0.8,0l-0.1,0.1c0.2,0,0.3-0.5,0.5-0.5l0.1,0.3
						c0.4,0,0.7,0.2,1.1,0c0,0,0,0.1-0.1,0.1c0.2,0,0.7,0.2,0.6-0.2c0,0.2,0.4,0,0.6-0.1l0,0.2c0.2-0.2,0.2-0.3,0.4-0.3
						c0.1,0,0,0.1,0,0.1c0.2,0.1,0.1-0.2,0.4-0.1l-0.1,0.1c0.2,0,0.2,0,0.3-0.2c0.1-0.1,0.4,0,0.4,0.2c0-0.1,0.1-0.2,0.2-0.2
						c0,0.1,0,0.1,0,0.1c0.3,0.1,0.5-0.2,0.7,0c0,0.1,0,0.1,0,0.1c-0.3,0-0.5,0-0.4,0c0,0.2,0.2,0.2,0,0.4c0.2-0.1,0.4-0.4,0.6-0.3
						c0,0,0,0,0,0.1l0,0c0,0,0.1,0,0.1,0c0.1,0,0.1,0,0.2,0c0,0.1,0.2,0.1,0.3,0.1c0-0.2,0.1-0.1,0-0.3c0,0,0,0-0.1,0c0,0,0,0,0,0
						c0,0,0,0,0,0c-0.1,0-0.2,0-0.3,0c0.1-0.1,0.2-0.2,0.3-0.1c0.1-0.1,0.1-0.2,0.1-0.3c0.1,0.2,0.4,0.4,0.4,0.5
						c0.3-0.1,0.7-0.1,0.9-0.4c0.1,0,0.1,0.1,0.1,0.1c-0.1,0-0.1,0-0.1,0.1c0.2-0.1,0.5,0,0.6-0.3c0.2,0.1-0.1,0.2,0.2,0.2l0,0.1
						c0.6,0.4,1-0.6,1.7-0.1c0,0-0.1,0-0.1-0.1c0.8,0.2,1.6-0.2,2.3,0.1c0.2,0.1,0.2-0.1,0.4-0.2l0,0.2l0.2-0.2
						c0.3-0.2,0.6,0.5,1,0.2l-0.1-0.1c0.1,0,0.5-0.1,0.4,0.1c0,0,0-0.1,0.1-0.1l0,0.1l0.4-0.2c0.3,0.1,0,0.4,0.4,0.4
						c0.1,0,0.4-0.3,0.4-0.4c-0.1,0-0.2-0.1-0.2-0.2l0.1-0.1c0-0.3,0.1-0.6-0.2-0.8l-0.2,0.2l-0.1-0.1l0.2,0c-0.1-0.1-0.2,0-0.3,0.1
						c0-0.1-0.1-0.1-0.1-0.2l-0.2,0.3c0-0.1,0.1-0.2-0.1-0.3c-0.1,0.1,0.1,0.3-0.1,0.3c-0.1-0.1-0.1-0.2-0.2-0.1
						c0-0.1,0-0.1,0.1-0.2c-0.1,0.1-0.3,0-0.4,0.2c-0.1-0.2-0.4,0-0.4-0.2c0,0.1-0.2,0.2-0.3,0.2c0.2-0.3-0.4,0-0.4-0.4
						c-0.1,0.3-0.5,0.1-0.8,0.3c0,0,0-0.1,0.1-0.1c-0.1,0-0.2-0.1-0.3-0.2c0,0.2-0.2,0.3-0.4,0.4c-0.2-0.2,0.1-0.3,0.1-0.5
						c0,0.2-0.3,0.2-0.2,0.4c-0.1-0.1-0.1-0.1-0.2-0.3c0,0.3-0.1,0.1-0.2,0.2c-0.2-0.1-0.1-0.3-0.3-0.2C57,14.3,57.2,14.2,57.2,14.2
						z M52.1,14.8C52.1,14.8,52.1,14.8,52.1,14.8c0,0,0.1,0,0.1,0C52.2,14.7,52.1,14.8,52.1,14.8z M51.7,14.8c0.1,0,0.1,0,0.2,0
						c0,0.1,0,0.1,0,0.1C51.8,14.8,51.7,14.8,51.7,14.8z M52.6,16c-0.1,0-0.1,0-0.1,0C52.5,15.9,52.5,15.9,52.6,16
						C52.6,15.9,52.6,15.9,52.6,16C52.6,15.9,52.6,15.9,52.6,16z"/>
					<path fill="#FFFFFF" d="M52.7,15.7C52.7,15.7,52.7,15.7,52.7,15.7C52.7,15.7,52.7,15.7,52.7,15.7
						C52.7,15.7,52.7,15.7,52.7,15.7C52.7,15.7,52.7,15.7,52.7,15.7z"/>
					<path fill="#FFFFFF" d="M13.6,15.5L13.6,15.5C13.6,15.5,13.6,15.5,13.6,15.5C13.6,15.5,13.6,15.5,13.6,15.5z"/>
					<polygon fill="#FFFFFF" points="45.7,14.4 45.7,14.5 45.7,14.4 					"/>
					<path fill="#FFFFFF" d="M11.2,14.9C11.2,14.9,11.2,14.9,11.2,14.9C11.2,14.9,11.2,14.9,11.2,14.9z"/>
					<path fill="#FFFFFF" d="M10.2,14.8L10,14.8C10.1,14.8,10.1,14.8,10.2,14.8z"/>
					<path fill="#FFFFFF" d="M9.4,14.8C9.4,14.8,9.4,14.8,9.4,14.8C9.4,14.8,9.4,14.8,9.4,14.8L9.4,14.8z"/>
					<path fill="#FFFFFF" d="M21.9,14.6C22,14.6,22,14.6,21.9,14.6C22,14.5,22,14.5,21.9,14.6z"/>
					<path fill="#FFFFFF" d="M18.2,15c0,0,0.1-0.1,0.1-0.1C18.3,14.9,18.2,14.9,18.2,15z"/>
					<path fill="#FFFFFF" d="M26.1,14.3C26.1,14.3,26.1,14.3,26.1,14.3C26.1,14.3,26.1,14.3,26.1,14.3L26.1,14.3z"/>
					<path fill="#FFFFFF" d="M18.5,14.9c-0.1,0-0.1,0-0.2,0C18.4,14.9,18.4,14.9,18.5,14.9z"/>
					<path fill="#FFFFFF" d="M6,14.7L6,14.7C5.9,14.7,5.9,14.7,6,14.7L6,14.7z"/>
					<path fill="#FFFFFF" d="M5.9,14.7L5.9,14.7C5.9,14.7,5.9,14.7,5.9,14.7z"/>
					<path fill="#FFFFFF" d="M5.8,14.8L5.8,14.8C5.9,14.7,5.8,14.7,5.8,14.8z"/>
					<path fill="#FFFFFF" d="M7,14.8L7,14.8C7,14.7,7,14.7,7,14.8z"/>
					<path fill="#FFFFFF" d="M7.3,14.7c-0.1,0-0.2-0.1-0.3-0.1l0,0.1C7.1,14.6,7.3,14.8,7.3,14.7z"/>
					<path fill="#FFFFFF" d="M8.7,15.5l-0.3-0.1c0,0.1,0.1,0.2,0,0.2C8.7,15.8,8.3,15.5,8.7,15.5z"/>
					<path fill="#FFFFFF" d="M9.5,15.6c-0.1,0,0,0.1,0,0.1C9.6,15.7,9.6,15.7,9.5,15.6z"/>
					<path fill="#FFFFFF" d="M15.4,15.6l0,0.2C15.5,15.8,15.4,15.7,15.4,15.6z"/>
					<polygon fill="#FFFFFF" points="16.6,14.8 16.5,14.7 16.4,14.8 					"/>
					<polygon fill="#FFFFFF" points="17.3,15.9 17.2,16 17.4,15.9 					"/>
					<path fill="#FFFFFF" d="M27.3,15.9l0-0.2C27.2,15.7,27.1,15.9,27.3,15.9z"/>
					<path fill="#FFFFFF" d="M31.6,15.7c0,0.1,0.2,0.2,0.2,0.1C31.7,15.7,31.6,15.7,31.6,15.7z"/>
					<polygon fill="#FFFFFF" points="44.6,16 44.5,16.1 44.6,16 					"/>
				</g>
			</g>
		</g>
		<g>
			<g>
				<g>
					<path fill="#FFFFFF" d="M26.1,0.3c0-0.1-0.1-0.1-0.1-0.1l0.1,0.2L26.1,0.3z"/>
					<path fill="#FFFFFF" d="M25.5,0.4c0,0.1,0,0.3,0.2,0.5c0-0.2,0-0.2,0-0.4c0.1-0.1,0.2,0,0.2,0c0-0.1,0.1,0,0.1-0.2
						c-0.2-0.1-0.3,0-0.3,0.2C25.5,0.5,25.5,0.4,25.5,0.4z"/>
					<path fill="#FFFFFF" d="M18.7,4.7L18.7,4.7C18.8,4.7,18.7,4.7,18.7,4.7z"/>
					<path fill="#FFFFFF" d="M14.5,7.4C14.5,7.3,14.5,7.3,14.5,7.4C14.5,7.3,14.5,7.4,14.5,7.4z"/>
					<path fill="#FFFFFF" d="M13.7,7.6C13.7,7.6,13.7,7.6,13.7,7.6C13.7,7.6,13.7,7.6,13.7,7.6z"/>
					<path fill="#FFFFFF" d="M18.7,4.7l-0.1,0C18.6,4.8,18.7,4.7,18.7,4.7z"/>
					<path fill="#FFFFFF" d="M24.9,1.4C24.9,1.4,24.9,1.4,24.9,1.4L24.9,1.4L24.9,1.4z"/>
					<path fill="#FFFFFF" d="M20.4,3.3L20.4,3.3c0,0,0-0.1,0-0.1L20.4,3.3z"/>
					<path fill="#FFFFFF" d="M21.8,2.4c0,0,0.1,0.2,0.1,0.2C21.9,2.5,21.9,2.5,21.8,2.4C21.9,2.4,21.8,2.4,21.8,2.4z"/>
					<path fill="#FFFFFF" d="M24.2,1.1L24.2,1.1C24.2,1,24.2,1,24.2,1.1z"/>
					<path fill="#FFFFFF" d="M19.4,4C19.4,4,19.4,4,19.4,4C19.4,4,19.4,4,19.4,4z"/>
					<path fill="#FFFFFF" d="M23.1,29.1L23.1,29.1C23.1,29.1,23.1,29.1,23.1,29.1z"/>
					<polygon fill="#FFFFFF" points="23.5,31.2 23.5,31.2 23.4,31.2 					"/>
					<path fill="#FFFFFF" d="M12.3,8.3L12.3,8.3C12.3,8.2,12.3,8.2,12.3,8.3z"/>
					<path fill="#FFFFFF" d="M1.8,16.4c-0.1-0.2,0.6,0,0.4-0.2C2.2,16.2,1.6,16.2,1.8,16.4z"/>
					<path fill="#FFFFFF" d="M24.8,1.4C24.8,1.4,24.8,1.4,24.8,1.4C24.8,1.4,24.8,1.4,24.8,1.4z"/>
					<path fill="#FFFFFF" d="M2.2,16.2L2.2,16.2L2.2,16.2C2.2,16.1,2.2,16.1,2.2,16.2z"/>
					<path fill="#FFFFFF" d="M9.3,10.2C9.3,10.2,9.3,10.3,9.3,10.2C9.3,10.2,9.3,10.2,9.3,10.2z"/>
					<path fill="#FFFFFF" d="M11.7,9L11.7,9C11.6,9.1,11.6,9.1,11.7,9z"/>
					<path fill="#FFFFFF" d="M8.2,11.1C8.2,11.1,8.1,11.1,8.2,11.1C8.1,11.2,8.1,11.2,8.2,11.1C8.1,11.2,8.1,11.1,8.2,11.1z"/>
					<polygon fill="#FFFFFF" points="7,11.9 7,11.9 7,11.8 					"/>
					<path fill="#FFFFFF" d="M20.1,25.7c0,0.1,0,0.1-0.1,0.2C20.2,25.8,20.3,25.9,20.1,25.7z"/>
					<path fill="#FFFFFF" d="M24.8,1.3C24.8,1.4,24.8,1.4,24.8,1.3L24.8,1.3C24.8,1.4,24.8,1.3,24.8,1.3z"/>
					<path fill="#FFFFFF" d="M8.8,12.3l-0.2,0.1C8.7,12.4,8.8,12.4,8.8,12.3z"/>
					<path fill="#FFFFFF" d="M11.7,19.4L11.7,19.4C11.8,19.4,11.8,19.4,11.7,19.4z"/>
					<path fill="#FFFFFF" d="M8,12.8c-0.1,0-0.1,0-0.2,0c0,0,0,0,0,0.1L8,12.8z"/>
					<path fill="#FFFFFF" d="M20.1,25.9L20.1,25.9L20.1,25.9z"/>
					<path fill="#FFFFFF" d="M21.4,26.8c-0.1-0.2-0.2,0.1-0.4,0.1c-0.2-0.2,0-0.2,0.1-0.3c-0.2-0.1-0.4,0-0.5-0.1c0,0,0-0.1,0.1-0.1
						c-0.3,0-0.3-0.4-0.7-0.4c0,0,0,0,0-0.1c-0.1,0.1-0.1,0.2-0.2,0.2c-0.1-0.1-0.2,0-0.1-0.2c0,0,0.1,0,0.1,0l-0.1,0
						c0.1-0.2,0.2,0.1,0.3-0.1c-0.2-0.1-0.5-0.1-0.5-0.3c0.1-0.2,0.3,0.2,0.3-0.1l0.1,0.2c0.1-0.4,0.1,0.1,0.2-0.2
						c-0.2-0.3-0.3-0.2-0.5-0.5c-0.1,0-0.1,0.1-0.2,0.2c-0.5-0.2,0.1-0.6-0.3-0.7c-0.2,0-0.4,0.2-0.4-0.1l0.2-0.1
						c-0.2-0.2-0.4,0.1-0.5-0.2c0.1,0,0.2,0.1,0.2,0.1c0-0.3-0.2,0-0.3-0.1l0.1-0.2c-0.3-0.2-0.6-0.3-0.9-0.5c0.1,0,0.1,0,0.1-0.1
						c-0.4-0.2-0.7-0.7-1-1l-0.2,0c0,0,0-0.1,0-0.1c-0.1-0.2-0.1,0.1-0.2,0.1c-0.1,0,0-0.2,0-0.2c-0.3-0.1-0.9-0.3-1-0.6l0.1,0
						c-0.2-0.2-0.4,0.2-0.5-0.1l0.1,0c-0.4-0.4-1-0.6-1.2-1c-0.2,0.2-0.4-0.4-0.6-0.1c-0.2-0.3-0.1-0.3-0.4-0.6
						c-0.1-0.1-0.3,0.1-0.4,0.1l0.1-0.2l-0.3,0.1l0-0.2l-0.1,0c0,0,0.1,0.1,0,0.2c-0.2,0-0.4-0.4-0.3-0.4L11,19c0-0.1,0.1,0,0.2-0.1
						c-0.3,0.1,0-0.2-0.2-0.1c0,0.1-0.1,0.1-0.1,0.1c-0.1-0.2-0.3-0.3-0.5-0.3l0.1-0.1c-0.3-0.2-0.7-0.3-1.1-0.5
						c0.1,0.1,0,0.3-0.1,0.3l0-0.2c-0.1,0.1,0.1,0.1-0.1,0.2c-0.1-0.1,0-0.3,0.1-0.3L9,18C9,18,9.1,18,9.1,17.9
						C9,18,8.9,17.6,8.7,17.7l0-0.1c-0.4-0.2-0.6-0.2-0.9-0.3c-0.1,0.2-0.2,0.1-0.3,0.2c-0.2-0.2-0.4-0.4-0.7-0.5
						c-0.2,0-0.1,0.1-0.2,0.2c0.1-0.2-0.2-0.3,0-0.3c-0.3-0.1-0.4-0.2-0.9-0.2c0,0.1,0.1,0.1,0,0.2c-0.1,0-0.1-0.1-0.1-0.2l0,0
						c-0.6,0-0.9-0.9-1.4-0.7l0,0l-0.4,0c-0.2-0.1,0.2-0.1,0.1-0.2c-0.1,0-0.2,0-0.3,0c-0.1,0-0.1,0-0.1,0c0,0,0-0.1-0.2,0
						c0.2-0.2,0.2-0.1,0.1-0.2c-0.1,0-0.3,0,0.1-0.1l-0.3,0c-0.2,0,0.2,0,0.2,0c-0.2,0-0.2,0-0.4,0c0-0.1,0.3-0.2,0.5-0.2
						c0.1,0,0.2,0,0.3,0c0.1,0,0.1,0,0.4-0.1c0.3-0.1-0.1-0.6,0.4-0.5l0,0.2c0.4-0.5,1.2-0.6,1.6-1.1c0,0.1,0,0.1,0,0.1
						c0.2,0.1,0.4-0.2,0.4-0.3c0.1,0,0.1,0.1,0.2,0.1c0.2,0,0.2-0.3,0.3-0.2c0,0,0,0.1,0,0.1c0-0.1,0.4-0.2,0.2-0.3
						c0.2,0,0.4-0.3,0.6-0.3c0-0.2,0.4-0.1,0.3-0.4c0.1,0.2,0.5,0,0.5-0.2c0,0.1,0.2,0,0.2,0.1C9,12.2,9.1,12.1,9,12
						c0.4,0.1,0.4-0.6,0.8-0.3c0.4-0.4,0.7-0.7,1.1-1c0.1,0.2-0.4,0.3-0.2,0.5c0.3-0.3,0.4-0.7,0.8-0.8c0.1,0,0,0.1,0,0.2
						c0.3-0.3,0.7-0.4,1-0.7c0,0,0,0.1,0,0.1c0.1,0,0.2-0.1,0.1-0.2l0,0.1c-0.2-0.1,0.1-0.5,0-0.6c0.1,0.4,0.4-0.1,0.4,0.4
						c0,0,0-0.1,0-0.2c0.1,0,0.1,0,0.1,0.1c0.2-0.2,0-0.3,0.2-0.4c0,0.1,0,0.1,0,0.2c0-0.2,0.1-0.3,0.3-0.4c0,0,0.1,0.1,0,0.1
						c0.3-0.2,0.3-0.6,0.7-0.7c0,0.3,0.2,0,0.3,0.2l0.1-0.2l-0.1,0c0.2-0.1,0.2-0.3,0.4-0.3l-0.1,0.2L15.1,8l-0.2,0
						c0.1-0.2-0.2-0.2,0.1-0.3c0,0,0.2-0.1,0.3,0l0,0c0-0.1,0.1-0.2,0.2-0.3c0.1,0,0.1,0.2,0.2,0.3c0-0.2,0.3-0.3,0.3-0.5
						c0,0.1,0.1,0.2,0.1,0.2l0-0.2c0.1,0,0.1,0,0.2,0.1c0.2-0.1-0.2-0.2,0.1-0.3c0,0,0,0,0,0.1c0.3-0.1,0.4-0.4,0.7-0.5
						c0.2,0.1-0.2,0.2,0,0.3c0.3-0.3,0.5-0.7,0.9-0.9l-0.1,0c-0.1-0.3,0.3,0,0.4-0.3c0,0,0,0.2,0,0.1c0.3-0.1,0.4-0.4,0.7-0.7l0,0.1
						c0.2,0,0.4-0.2,0.5-0.3c0-0.1,0.1-0.1,0-0.2c0.7,0.1,0.7-0.8,1.3-0.7c0,0-0.1,0.1,0,0.1L20.9,4c-0.1-0.1-0.1,0-0.2-0.1
						c0-0.1,0-0.2,0.1-0.3c-0.1,0.2,0.1,0.2,0.2,0.2c0,0,0-0.1-0.1-0.1c0.3,0.1-0.1-0.3,0.2-0.3l0,0.1c0.1-0.1,0.1-0.2,0.2-0.3
						c0.1,0.1,0,0.1,0,0.2c0.1-0.1,0.1-0.4,0.3-0.4c0,0.1-0.1,0.1-0.1,0.2c0.2,0.1,0.2,0,0.3,0l0,0l0.3-0.1l-0.1,0
						c-0.1-0.5,0.3-0.3,0.3-0.7c-0.1,0.4,0.1,0.2,0.1,0.3c0.1,0,0.2,0,0.2,0.1c0-0.2,0.2,0,0.3-0.3c0,0,0.1-0.1,0.2,0.1
						c0.1-0.1-0.1-0.1-0.1-0.1c0.1-0.3,0.6-0.1,0.8-0.6c0.2-0.3,0.1-0.5,0.3-0.7c0.1,0,0.1,0.2,0.1,0.2c0.2,0,0.3-0.1,0.4-0.2
						c0,0.1,0.1,0.1,0.1,0.1c0.1-0.1-0.1-0.2,0.1-0.2c0,0.1,0.1,0.2,0,0.3C25,1.2,25,1,25.1,0.9c0.1,0.1,0,0.2,0,0.3
						c0.1-0.1,0.3-0.3,0.2-0.5l-0.1,0c0,0,0.1,0.1,0.1,0.1c0,0.2-0.2,0.1-0.2,0l0.1-0.1c-0.3-0.2-0.3,0.3-0.5,0.4l-0.1-0.3l-0.1,0.3
						c-0.1,0-0.2-0.1-0.1-0.2c-0.2,0-0.1,0.2-0.2,0.1c0,0,0,0,0,0l-0.1,0.1c0-0.1-0.1-0.1,0-0.2c-0.3,0-0.2,0.4-0.4,0.3l0,0
						c-0.2,0.3,0.1,0.2,0,0.5l-0.4-0.3l0.1,0.2c0,0-0.1,0-0.1,0c0,0.2,0.1,0.1,0.1,0.2c-0.2,0-0.4,0.4-0.6,0.1c0,0.2,0.2,0,0.1,0.2
						c-0.2-0.2-0.2,0.2-0.4,0.1c-0.1-0.2,0.1-0.2-0.1-0.2c0.1,0.3-0.3,0.1-0.4,0.3c0.1,0.2-0.2,0.3-0.3,0.4c0-0.1-0.4,0.2-0.7,0.2
						l0,0c0.1,0.2-0.1,0.3-0.2,0.4c-0.1-0.1-0.1-0.2,0-0.3l-0.1,0.1c0,0.1,0,0.1-0.1,0.2l-0.1-0.2c-0.2,0.1-0.2,0.4-0.5,0.5
						c0.1,0.1,0.4,0.2,0.3,0.5C20,4.3,19.9,4.1,20,4.1c0,0,0,0.1-0.1,0.1l0-0.2c-0.1,0,0,0.1-0.1,0.2c-0.1-0.1-0.1,0-0.2-0.1
						c0,0,0.1,0,0.1-0.1c-0.1,0-0.3,0.1-0.3,0c0,0.1,0.1,0.1,0,0.2c-0.2,0.1-0.1-0.1-0.3-0.1c0,0.1-0.2,0.1-0.1,0.3
						c-0.1,0-0.1,0-0.2-0.1c0,0.1-0.4,0.3-0.2,0.4l0,0l0,0l0,0l0,0c-0.2,0.3-0.7,0.3-0.9,0.6l0-0.1c-0.1,0.2-0.4,0.3-0.4,0.5
						c-0.1,0-0.2,0-0.2-0.1c-0.1,0.1-0.1,0.2-0.3,0.2c0.1-0.2-0.1,0,0.1-0.2c-0.2,0.1-0.3,0-0.4,0.3c0-0.2-0.2-0.1-0.3,0l0.2,0
						c-0.1,0.1-0.2,0.1-0.3,0.2L16.2,6c-0.5,0-0.4,0.8-0.9,0.6c0,0.2,0.2,0,0.3,0.2c-0.2,0.1-0.5-0.1-0.6,0c-0.3,0,0,0.4-0.3,0.5
						c0.1,0,0.2,0.2,0.1,0.4c-0.2,0.1-0.4-0.1-0.3-0.2c0,0,0.1,0,0.1,0c0-0.1,0.1-0.1,0-0.2l0,0.1c-0.1,0-0.3,0.1-0.4,0
						c-0.1,0.1,0,0.1,0.1,0.1c-0.3,0-0.3,0.2-0.6,0.3c0.1,0,0.1,0.1,0.1,0.1c-0.4,0.1-0.1,0.2-0.3,0.4c-0.2,0-0.1-0.3-0.3,0
						c-0.2,0-0.1-0.1-0.1-0.2C13.1,8,12.8,8,12.6,8l0.1-0.1C12.7,8,12.6,8,12.6,8l0.1,0.1c-0.1,0-0.1,0-0.2,0c0,0.1,0.2,0.2,0.1,0.4
						c-0.1,0-0.2,0.2-0.3,0.1c0.3-0.1-0.1-0.1,0.1-0.3c0,0-0.1,0.1-0.2,0.1c0,0,0,0,0-0.1c-0.3,0,0,0.3-0.3,0.4
						c0-0.1-0.2-0.1-0.2-0.1c0.1-0.1,0.1,0.1,0.1,0.3c-0.2,0-0.1,0.2-0.2,0.2l0.1,0c0,0.1-0.1,0.2-0.2,0.3c-0.1-0.1,0.1-0.1,0-0.1
						c0,0.2-0.4,0-0.5,0.2c-0.1,0-0.1-0.2-0.2-0.2c-0.1,0.2-0.3,0-0.4,0.2c0.1,0.1,0.1,0.1,0.1,0.3l0.3-0.3l-0.1,0.3
						c0.1-0.1,0.2-0.2,0.2-0.2c0,0.2-0.1,0.1,0.1,0.2c-0.3-0.1-0.2,0.3-0.5,0.3l-0.2-0.3c-0.3,0-0.3,0.4-0.7,0.5l0.1,0
						c0,0.1-0.2,0.1-0.3,0.2c-0.1-0.1-0.1-0.1-0.2-0.1c0.1,0.1-0.2,0.1-0.1,0.4L9,10.6c-0.3,0.1-0.1,0.5-0.4,0.6
						c0-0.2-0.1-0.2,0-0.3c-0.1,0-0.2,0.1-0.1,0.1c-0.1,0-0.1,0.3-0.3,0.2c0,0.1,0,0.2-0.1,0.2c0,0,0-0.1,0-0.1c0,0.1-0.1,0.2,0,0.2
						C7.6,11.4,7.4,12,7,11.9c-0.2,0.1-0.4,0.3-0.5,0.4c0,0,0-0.1,0-0.1c-0.3,0,0,0.4-0.3,0.4c-0.2-0.1,0.1-0.2,0-0.2
						c-0.2-0.3-0.3,0.2-0.6,0.1l0,0c-0.2,0-0.3,0.3-0.5,0.4c0,0,0,0,0-0.1c-0.1,0.3-0.3,0.5-0.5,0.6c0-0.2,0.1-0.1-0.1-0.2
						c-0.1,0.1,0.2,0.2,0,0.4c-0.1,0-0.3,0-0.4-0.2l0.2-0.1c-0.2-0.1-0.2,0.1-0.3,0.2l0-0.1c-0.3,0.2-0.1,0.4-0.5,0.5l0.1,0
						c-0.1,0.3-0.3,0-0.3,0.2L3,14.1c-0.1,0.1-0.3,0.4-0.4,0.5c-0.1-0.2,0.1-0.4,0.2-0.5c-0.2,0.1-0.5,0.3-0.5,0.4
						c0,0,0-0.1,0.1-0.1c0,0.2,0,0.3-0.3,0.5c-0.3-0.1-0.6,0-0.8,0.1c-0.3,0.1-0.5,0.2-1,0.3c-0.1,0.1-0.2,0.2-0.3,0.2
						c0.1,0.1,0.3,0.1,0.4,0.2c0.3,0.2,0.5,0.3,0.9,0.5c0.2-0.3,0.2,0.1,0.7-0.1c0.2,0.1,0.2,0.1,0.2,0.1c0,0,0.2,0.4,0.3,0.4
						c0,0.1-0.2,0-0.3,0.1c0.4,0.2,0,0.2,0.3,0.4c0-0.1,0.3-0.1,0.5,0.1c0,0-0.3-0.3-0.2-0.3c0.2,0,0.3,0.1,0.3,0.1
						c0,0,0.1,0.1,0.1,0.1c0,0.1,0.1,0.2,0.3,0.2l-0.2,0.1c0.2,0,0.6,0.3,0.9,0.1c0,0.1,0,0.2-0.1,0.2c0.4,0.2,1,0.1,1.3,0.4
						l-0.1,0.1c0.1,0,0.2-0.1,0.3,0c0,0-0.1,0.1,0,0.1c0.1,0,0.3-0.1,0.3,0l-0.1,0.1c0.3,0.3,0.7,0,1.1,0.1
						c-0.1,0.2,0.2,0.5,0.3,0.6l0,0c0.4,0.2,0.9,0.1,1.3,0.2c0.1,0.4,0.8,0.5,1.2,0.9c0-0.1,0.1-0.2,0.2-0.2c0.1,0.1,0.3,0,0.2,0.2
						l0,0c0,0.3,0.2,0.3,0.3,0.4l0.2-0.3c0.2,0.6,1.1,0.4,1.1,0.9c0.1,0,0.3,0,0.4,0l-0.1,0.1c0.2,0.2,0.4,0.3,0.7,0.4l-0.1,0.1
						c0.2,0.1,0.5-0.3,0.7-0.2l-0.1,0.3c0.3,0.2,0.5,0.6,0.9,0.6c0,0-0.1,0.1-0.1,0.1c0.1,0.1,0.4,0.5,0.6,0.2
						c-0.1,0.2,0.3,0.2,0.5,0.3l-0.1,0.1c0.3-0.1,0.3-0.1,0.5,0c0,0.1,0,0.1-0.1,0.1c0.1,0.2,0.2,0,0.3,0.2l-0.1,0
						c0.1,0.1,0.2,0.1,0.3,0c0.1,0,0.3,0.2,0.2,0.4c0.1-0.1,0.2-0.1,0.3,0c0,0.1-0.1,0.1-0.1,0.1c0.2,0.3,0.5,0.1,0.5,0.4
						c0,0,0,0.1,0,0.1c-0.2-0.2-0.3-0.3-0.3-0.3c-0.1,0.1,0,0.3-0.2,0.3c0.2,0,0.6,0,0.7,0.2c0,0,0,0,0,0.1l0,0c0,0,0.1,0.1,0.1,0.1
						c0,0.1,0,0.1,0.1,0.1c-0.1,0.1,0.1,0.2,0.2,0.3c0.1-0.1,0.2,0,0.2-0.2c0,0,0,0-0.1,0c0,0,0,0,0,0l0,0c-0.1,0-0.1-0.1-0.2-0.2
						c0.1,0,0.2,0,0.2,0.1c0.1,0,0.2-0.1,0.3-0.1c-0.1,0.3,0,0.6,0,0.7c0.3,0.1,0.6,0.4,0.9,0.3c0.1,0,0,0.1,0,0.2
						c-0.1,0-0.1-0.1-0.1,0c0.2,0.1,0.4,0.3,0.6,0.2c0.1,0.2-0.2,0.1,0,0.2l-0.1,0c0.1,0.7,1.1,0.3,1.2,1.1c0-0.1,0-0.1,0-0.1
						c0.3,0.7,1.2,1.1,1.4,1.9c0.1,0.2,0.2,0.1,0.4,0.2l-0.1,0.2l0.3,0c0.3,0.1,0,0.7,0.4,0.8l0.1-0.1c0.1,0.1,0.3,0.3,0.2,0.4
						c0,0,0.1,0,0.1,0l-0.1,0.1l0.3,0.2c0.1,0.3-0.3,0.2-0.1,0.5c0.1,0.1,0.5,0.2,0.5,0.1c0-0.1,0-0.2,0-0.2l0.1,0.1
						c0.2-0.1,0.6-0.2,0.5-0.6l-0.3-0.1l0.1-0.1l0.1,0.2c0-0.2-0.1-0.2-0.2-0.2c0-0.1,0.1-0.1,0.1-0.2l-0.4,0c0.1-0.1,0.2,0,0.2-0.2
						c-0.2,0-0.1,0.2-0.3,0.1c0-0.2,0.1-0.2,0-0.2c0-0.1,0.1-0.1,0.2,0c-0.1,0-0.2-0.2-0.4-0.2c0.1-0.2-0.3-0.3,0-0.4
						c-0.1,0-0.3,0-0.4-0.1c0.4,0-0.2-0.3,0.1-0.5c-0.3,0.1-0.4-0.3-0.7-0.4c0,0,0.1,0,0.1,0c-0.1-0.1,0-0.2,0-0.3
						c-0.2,0.1-0.4,0-0.6,0c0.1-0.3,0.3-0.1,0.4-0.3c-0.1,0.1-0.3-0.1-0.4,0c0-0.2,0-0.1,0.1-0.3c-0.2,0.2-0.1-0.1-0.3,0
						c0-0.2,0.2-0.2,0-0.3C21.2,26.7,21.4,26.8,21.4,26.8z M17.4,23.4L17.4,23.4C17.4,23.5,17.4,23.5,17.4,23.4
						C17.4,23.5,17.4,23.5,17.4,23.4z M17,23.2c0,0,0.1,0.1,0.1,0.1c0,0.1-0.1,0.1-0.1,0.1C17.1,23.3,17,23.2,17,23.2z M16.9,24.7
						C16.9,24.6,16.9,24.6,16.9,24.7C16.9,24.6,17,24.6,16.9,24.7L16.9,24.7C17,24.6,17,24.7,16.9,24.7z"/>
					<path fill="#FFFFFF" d="M17.2,24.6C17.2,24.6,17.2,24.6,17.2,24.6C17.2,24.6,17.2,24.5,17.2,24.6L17.2,24.6L17.2,24.6z"/>
					<path fill="#FFFFFF" d="M18.8,4.7L18.8,4.7C18.8,4.7,18.8,4.7,18.8,4.7C18.8,4.7,18.8,4.7,18.8,4.7z"/>
					<polygon fill="#FFFFFF" points="12.2,19.5 12.2,19.6 12.2,19.6 					"/>
					<path fill="#FFFFFF" d="M21.1,3.9C21.1,3.9,21.1,3.9,21.1,3.9C21.1,3.9,21.1,3.9,21.1,3.9z"/>
					<path fill="#FFFFFF" d="M21.9,3.3l0.2,0C22,3.3,22,3.3,21.9,3.3z"/>
					<path fill="#FFFFFF" d="M22.6,2.9C22.6,2.9,22.6,2.9,22.6,2.9L22.6,2.9L22.6,2.9z"/>
					<path fill="#FFFFFF" d="M12.3,10L12.3,10C12.3,10.1,12.3,10.1,12.3,10z"/>
					<path fill="#FFFFFF" d="M15.2,7.7c0,0,0,0.1-0.1,0.1C15.3,7.8,15.3,7.8,15.2,7.7z"/>
					<polygon fill="#FFFFFF" points="8.9,12.3 8.9,12.3 8.8,12.3 					"/>
					<path fill="#FFFFFF" d="M15,7.9c0.1,0,0.1,0,0.1-0.1C15.1,7.8,15.1,7.8,15,7.9z"/>
					<path fill="#FFFFFF" d="M25.4,1L25.4,1C25.5,1,25.5,1,25.4,1L25.4,1z"/>
					<path fill="#FFFFFF" d="M25.5,1L25.5,1C25.5,0.9,25.5,0.9,25.5,1z"/>
					<path fill="#FFFFFF" d="M25.5,0.8L25.5,0.8C25.5,0.9,25.6,0.9,25.5,0.8z"/>
					<path fill="#FFFFFF" d="M24.6,1.6L24.6,1.6C24.6,1.6,24.6,1.6,24.6,1.6z"/>
					<path fill="#FFFFFF" d="M24.3,1.8c0.1,0,0.2,0,0.3-0.1l0,0C24.6,1.7,24.3,1.6,24.3,1.8z"/>
					<path fill="#FFFFFF" d="M22.8,1.9L23,1.8c-0.1,0-0.2-0.1-0.1-0.1C22.6,1.7,23.1,1.7,22.8,1.9z"/>
					<path fill="#FFFFFF" d="M22.1,2.3C22.2,2.2,22,2.2,22,2.2C22,2.3,21.9,2.3,22.1,2.3z"/>
					<path fill="#FFFFFF" d="M17.2,5.6l-0.1-0.1C17,5.6,17.1,5.5,17.2,5.6z"/>
					<polygon fill="#FFFFFF" points="16.7,6.9 16.8,7 16.8,6.8 					"/>
					<polygon fill="#FFFFFF" points="15.5,6.4 15.5,6.3 15.4,6.5 					"/>
					<path fill="#FFFFFF" d="M7.1,11.6l0.1,0.2C7.3,11.7,7.2,11.5,7.1,11.6z"/>
					<path fill="#FFFFFF" d="M3.4,13.8c-0.1-0.1-0.3,0-0.3,0.1C3.2,13.9,3.4,13.9,3.4,13.8z"/>
					<polygon fill="#FFFFFF" points="10.5,20.4 10.4,20.4 10.5,20.4 					"/>
				</g>
			</g>
		</g>
	</g>
</g>
</svg>
