<?xml version="1.0" encoding="utf-8"?>
<!-- Generator: Adobe Illustrator 17.1.0, SVG Export Plug-In . SVG Version: 6.00 Build 0)  -->
<!DOCTYPE svg PUBLIC "-//W3C//DTD SVG 1.1//EN" "http://www.w3.org/Graphics/SVG/1.1/DTD/svg11.dtd">
<svg version="1.1" id="Layer_1" xmlns="http://www.w3.org/2000/svg" xmlns:xlink="http://www.w3.org/1999/xlink" x="0px" y="0px"
	 viewBox="0 0 32.6 67.2" enable-background="new 0 0 32.6 67.2" xml:space="preserve">
<g>
	<g>
		<path fill="none" d="M0.8,24.9c9.9-6.9,11.2-12.1,15.8-22.2C22.7,14.8,32,27.2,32,27.2 M0.8,65.5C15.2,55.8,20.7,37.4,17,5.3"/>
		<g>
			<g>
				<g>
					<path fill="#FFFFFF" d="M1.2,66.1C1.1,66,1,65.9,1.1,65.8l0.2,0.2L1.2,66.1z"/>
					<path fill="#FFFFFF" d="M1.4,65.2c0.2,0.1,0.5,0.2,0.6,0.5c-0.3-0.2-0.2-0.1-0.5-0.3c-0.1,0-0.1,0.2,0,0.3
						c-0.1,0-0.1,0.1-0.2,0c0-0.3,0.1-0.4,0.3-0.3C1.5,65.3,1.4,65.2,1.4,65.2z"/>
					<path fill="#FFFFFF" d="M7.8,58.6L7.8,58.6C7.8,58.6,7.8,58.6,7.8,58.6z"/>
					<path fill="#FFFFFF" d="M10.9,53.8C10.8,53.8,10.8,53.8,10.9,53.8C10.8,53.8,10.9,53.8,10.9,53.8z"/>
					<path fill="#FFFFFF" d="M11,52.8C11,52.8,11,52.8,11,52.8C11,52.8,11,52.8,11,52.8z"/>
					<path fill="#FFFFFF" d="M7.8,58.6l0-0.2C7.9,58.4,7.8,58.5,7.8,58.6z"/>
					<path fill="#FFFFFF" d="M2.9,65.1c0,0-0.1,0-0.1,0C2.8,65,2.8,65,2.9,65.1L2.9,65.1z"/>
					<path fill="#FFFFFF" d="M5.9,60.2L5.9,60.2c-0.1,0-0.1,0-0.2,0L5.9,60.2z"/>
					<path fill="#FFFFFF" d="M4.5,61.5c0,0,0.2,0.2,0.3,0.2c-0.1-0.1-0.2-0.1-0.2-0.1C4.6,61.7,4.6,61.6,4.5,61.5z"/>
					<path fill="#FFFFFF" d="M2.5,63.9L2.5,63.9C2.5,63.9,2.5,63.9,2.5,63.9z"/>
					<path fill="#FFFFFF" d="M6.8,59.2C6.8,59.2,6.8,59.1,6.8,59.2C6.8,59.1,6.8,59.2,6.8,59.2z"/>
					<path fill="#FFFFFF" d="M18.6,7.4C18.5,7.4,18.5,7.4,18.6,7.4C18.5,7.4,18.6,7.4,18.6,7.4z"/>
					<polygon fill="#FFFFFF" points="16.9,5.3 16.9,5.3 16.8,5.3 					"/>
					<path fill="#FFFFFF" d="M11.5,51.1L11.5,51.1C11.5,51.1,11.5,51.1,11.5,51.1z"/>
					<path fill="#FFFFFF" d="M16.2,35.7c0.2,0.2,0.4-0.3,0.6,0.1C16.6,35.7,16.3,35.9,16.2,35.7z"/>
					<path fill="#FFFFFF" d="M2.9,65C2.9,65,2.9,65,2.9,65C2.9,65,2.9,65,2.9,65z"/>
					<path fill="#FFFFFF" d="M16.8,35.7L16.8,35.7L16.8,35.7C16.8,35.7,16.8,35.7,16.8,35.7z"/>
					<path fill="#FFFFFF" d="M13.3,47.4C13.3,47.4,13.3,47.5,13.3,47.4C13.3,47.5,13.3,47.5,13.3,47.4z"/>
					<path fill="#FFFFFF" d="M12.5,50.4L12.5,50.4C12.5,50.3,12.5,50.4,12.5,50.4z"/>
					<path fill="#FFFFFF" d="M14.1,46.1c0,0,0-0.1,0-0.1C14.2,46,14.2,46,14.1,46.1C14.1,46,14.1,46,14.1,46.1z"/>
					<polygon fill="#FFFFFF" points="14.6,44.5 14.7,44.5 14.6,44.6 					"/>
					<path fill="#FFFFFF" d="M18.9,12.5c-0.1,0-0.2,0-0.3-0.1C18.8,12.5,18.9,12.2,18.9,12.5z"/>
					<path fill="#FFFFFF" d="M2.8,64.9C2.8,65,2.9,65,2.9,65C2.9,65,2.9,65,2.8,64.9C2.8,65,2.8,65,2.8,64.9z"/>
					<path fill="#FFFFFF" d="M16.3,46.7l0-0.3C16.3,46.5,16.3,46.6,16.3,46.7z"/>
					<path fill="#FFFFFF" d="M19.2,24.6L19.2,24.6C19.3,24.6,19.3,24.6,19.2,24.6z"/>
					<path fill="#FFFFFF" d="M16.6,45.7c-0.1-0.1-0.1-0.1-0.1-0.2c0,0,0,0,0.1,0L16.6,45.7z"/>
					<path fill="#FFFFFF" d="M18.6,12.4L18.6,12.4L18.6,12.4z"/>
					<path fill="#FFFFFF" d="M19.2,10.6c0,0.3-0.3,0.1-0.6,0.2c-0.1,0.3,0.3,0.1,0.5,0.2c-0.1,0.2-0.4,0.4-0.4,0.5
						c0.1,0,0.1,0,0.2,0c-0.3,0.2,0,0.6-0.3,0.9c0,0,0.1,0,0.1,0c-0.2,0-0.4,0-0.5,0c0,0.1-0.2,0.2,0,0.3c0-0.1,0.1-0.1,0.2-0.1
						l-0.1,0.1c0.4,0.1,0.1-0.2,0.4-0.2c-0.1,0.2-0.4,0.5-0.3,0.7c0.3,0,0.1-0.4,0.4-0.2l-0.1-0.3c0.5,0.2,0-0.2,0.5,0
						c0.1,0.4-0.1,0.4,0,0.8c-0.2,0.1-0.3,0-0.5,0.1c-0.3,0.5,0.9,0.4,0.5,0.8c-0.2,0.1-0.6,0.2-0.4,0.4l0.4-0.1
						c0.1,0.4-0.5,0.2-0.3,0.6c0.1-0.1,0.1-0.3,0.2-0.2c0.3,0.2-0.2,0.2-0.2,0.4l0.3,0c0,0.4-0.2,0.8-0.3,1.2c0.1,0,0.2-0.1,0.3,0
						c-0.2,0.5,0.1,1.1,0.3,1.6l-0.3,0.2c0,0,0.1,0.1,0.2,0c0.1,0.2-0.2,0-0.3,0.1c0,0.1,0.2,0.1,0.3,0.1c-0.2,0.4-0.5,1-0.2,1.4
						l0.1-0.1c0.1,0.3-0.6,0.3-0.3,0.6l0.1-0.1c0.1,0.6-0.1,1.3,0.3,1.8c-0.4,0.1,0.2,0.6-0.4,0.7c0.3,0.4,0.4,0.3,0.6,0.8
						c0,0.1-0.4,0.2-0.4,0.4l0.3,0L19,24.3l0.4,0.1l-0.1,0.2c0-0.1-0.1-0.1-0.2-0.1c-0.1,0.2,0.2,0.6,0.4,0.6l-0.3,0.6
						c0.1,0,0.2-0.1,0.2-0.2c-0.3,0.3,0.3,0.1,0,0.3c-0.1,0-0.2,0-0.2,0c0.2,0.1,0.2,0.5,0.1,0.7l0.2,0c0.1,0.4-0.1,0.9-0.2,1.4
						c-0.1-0.2-0.5-0.2-0.5,0l0.3,0.1c-0.2,0.1-0.1-0.2-0.4,0c0,0.2,0.4,0.1,0.5,0l-0.1,0.2c0.1,0,0.2,0,0.3,0
						c-0.2,0.1,0.3,0.4-0.1,0.5l0.1,0c0,0.5-0.1,0.7-0.2,1.1c-0.3,0-0.2,0.1-0.5,0.2c0.1,0.3,0.3,0.6,0.2,1
						c-0.2,0.2-0.2,0.1-0.4,0.1c0.3,0,0.2,0.4,0.4,0.2c-0.1,0.4-0.1,0.5-0.4,1c-0.1-0.1-0.1-0.1-0.2-0.1c-0.1,0.1,0.1,0.2,0.2,0.2
						l0,0c-0.4,0.5,0.6,1.4,0,1.8l0,0l-0.3,0.4c0,0.2,0.2-0.1,0.3,0.1c-0.5,0.5,0,0.8-0.4,1.2c0.7,0.4-0.2,1.2,0.2,1.7l-0.2-0.1
						c-0.2,0.1,0.1,0.2,0.1,0.2c-0.1,0-0.1-0.2-0.2-0.1c-0.4,0.9-0.1,2.1-0.1,3.1c0,0.4-0.9,0-0.6,0.6l0.4-0.1
						c-0.6,0.6-0.3,1.5-0.8,2.1c0.1,0,0.2,0,0.2-0.1c0.2,0.2-0.1,0.6-0.3,0.5c0,0.1,0.2,0.1,0.2,0.2c0.1,0.2-0.4,0.3-0.2,0.4
						c0,0,0.1,0,0.1,0c-0.1,0.1-0.1,0.5-0.4,0.3c0,0.3-0.3,0.5-0.2,0.7c-0.3,0,0,0.5-0.4,0.4c0.4,0.1,0.2,0.6-0.1,0.7
						c0.1,0,0.1,0.2,0.3,0.2c-0.1,0.2-0.2,0.3-0.4,0.2c0.4,0.5-0.6,0.6-0.1,1c-0.5,0.5-0.8,0.9-1.1,1.4c0.4,0.2,0.3-0.5,0.7-0.3
						c-0.4,0.4-0.8,0.5-0.9,1c0,0.1,0.2,0,0.3,0c-0.4,0.4-0.3,0.9-0.7,1.2c0,0,0.1,0,0.2,0c-0.1,0.1,0,0.2-0.2,0.1l0.1-0.1
						c-0.2-0.2-0.7,0.1-0.9,0c0.6,0.1-0.1,0.5,0.7,0.6c-0.1,0-0.2,0.1-0.3,0c0,0.1,0.1,0.2,0.2,0.1c-0.2,0.2-0.4,0-0.5,0.3
						c0.1,0,0.1,0,0.3,0c-0.2,0-0.5,0.1-0.5,0.3c0.1,0,0.1,0.1,0.1,0C13,53,12.4,53,12.4,53.5c0.4,0.1,0.1,0.2,0.4,0.4l-0.2,0.2
						l-0.1-0.2c-0.1,0.2-0.4,0.2-0.4,0.4l0.2-0.1L12,54.6l0-0.3c-0.3,0.1-0.4-0.3-0.5,0c0.1,0-0.1,0.2,0,0.4l0,0
						c-0.2,0-0.3,0.1-0.3,0.2c0.1,0.1,0.4,0.2,0.4,0.3c-0.3-0.1-0.3,0.4-0.7,0.3c0.1,0,0.3,0.1,0.3,0.1L11,55.7c0,0.1,0,0.2,0.2,0.2
						c-0.1,0.3-0.3-0.3-0.4,0.1c0,0,0.1,0,0.1,0c-0.1,0.4-0.5,0.5-0.6,0.8c0.3,0.3,0.2-0.2,0.4,0.1c-0.3,0.4-1,0.5-1.2,0.9l0-0.1
						c-0.5-0.3,0,0.4-0.3,0.5c0.1,0,0.3,0.1,0.2,0.1C9.4,58.6,9,58.7,8.6,59l0.1,0c0,0.2-0.2,0.4-0.3,0.6c-0.1,0-0.2,0.1-0.3-0.1
						c0.2,1-1.1,0.6-1,1.4c0,0,0.2,0,0.2,0l-0.4,0.3c-0.1-0.2-0.1-0.1-0.1-0.3c-0.1-0.1-0.3,0-0.4,0.1c0.2,0,0.3,0.3,0.3,0.4
						c0-0.1-0.1-0.1-0.2-0.1c0.1,0.5-0.4-0.3-0.4,0.1l0.1,0.1c-0.1,0-0.3,0-0.4,0.1c0.1,0.2,0.2,0,0.3,0.1c-0.1,0.1-0.6-0.1-0.6,0.2
						c0.1,0,0.2-0.1,0.3-0.1c0.1,0.3,0,0.3-0.1,0.4l0,0l-0.1,0.3l0-0.1c-0.7-0.4-0.4,0.2-1,0.1c0.5,0.1,0.2,0.2,0.4,0.4
						c0,0.1,0,0.3,0.1,0.3c-0.3-0.1-0.1,0.3-0.5,0.2c0.1,0.1-0.1,0.1,0.1,0.3c-0.2,0.1-0.1-0.2-0.2-0.2c-0.4-0.1-0.3,0.8-0.9,0.7
						c-0.4,0.1-0.7-0.1-1-0.1c0,0.2,0.3,0.2,0.3,0.2c-0.1,0.2-0.2,0.3-0.4,0.3c0.1,0,0.1,0.1,0.1,0.2c-0.1,0.1-0.3-0.2-0.4,0
						C2.5,64.9,2.6,65,2.7,65c-0.2,0-0.4,0-0.6,0c0.1,0.2,0.2,0.1,0.4,0.2c-0.2,0.1-0.5,0.2-0.7,0l0-0.2c-0.1,0,0.1,0.2,0.2,0.2
						c0.3,0.1,0.1-0.2,0.1-0.3l-0.1,0c-0.2-0.5,0.4-0.2,0.6-0.4l-0.3-0.3l0.4,0.1c0-0.1-0.1-0.3-0.3-0.3c0-0.3,0.2,0,0.2-0.2
						c0,0,0,0,0-0.1l0.2,0c-0.1,0-0.2-0.2-0.2-0.1c0.1-0.4,0.6,0,0.5-0.4l0,0c0.4-0.1,0.2,0.2,0.7,0.3L3.4,63l0.2,0.2
						c0,0,0.1-0.1,0-0.2c0.3,0.1,0.1,0.1,0.3,0.2c0-0.4,0.5-0.3,0.2-0.7c0.2,0.1,0,0.3,0.2,0.2c-0.3-0.4,0.3-0.1,0.2-0.4
						c-0.2-0.2-0.3,0.1-0.3-0.2c0.4,0.3,0.2-0.3,0.4-0.4C4.9,62,5,61.6,5.3,61.5c-0.1-0.1,0.2-0.5,0.3-0.8l0,0
						c0.3,0.2,0.4,0,0.6-0.1c-0.2-0.1-0.2-0.2-0.4-0.2l0.1-0.1c0.1,0.1,0.2,0.1,0.3,0L6,60.1C6.1,60,6.5,60,6.6,59.6
						c0.2,0.2,0.4,0.7,0.7,0.5c-0.1-0.1-0.3-0.3-0.4-0.2c0,0,0.2,0,0.1-0.1l-0.3-0.1c0-0.2,0.2,0.1,0.3,0c-0.1-0.1,0-0.2-0.2-0.2
						c0,0,0,0.1-0.1,0.1c0.1-0.1,0.1-0.3,0-0.4c0.1,0.1,0.2,0.2,0.3,0.1C7.3,59.2,7,59.1,7,58.9c0.1,0,0.1-0.2,0.4,0
						c0-0.1-0.1-0.2-0.1-0.2c0.2,0,0.4-0.4,0.5-0.1l0,0l0,0l0,0l0,0c0.5-0.1,0.4-0.8,0.7-1l-0.1-0.1c0.2-0.1,0.4-0.4,0.6-0.4
						c0-0.1,0-0.2-0.2-0.3c0.2-0.1,0.3-0.1,0.3-0.4c-0.3,0-0.1-0.1-0.2,0.1c0.1-0.2,0-0.4,0.3-0.4c-0.3-0.1-0.2-0.3,0-0.4l0.1,0.2
						c0.1-0.1,0.1-0.2,0.2-0.3l-0.3-0.1c-0.1-0.6,1-0.4,0.7-1c0.3,0,0,0.3,0.3,0.4c0.1-0.2-0.2-0.7-0.2-0.7c0-0.3,0.6,0,0.6-0.3
						c0.1,0.1,0.3,0.3,0.6,0.1c0.1-0.2-0.3-0.5-0.4-0.4c0,0,0,0.1,0,0.1c-0.1,0-0.2,0.1-0.2,0l0.1,0c0-0.2,0.1-0.4-0.1-0.4
						c0.2-0.1,0.2,0,0.2,0.2c0-0.3,0.2-0.4,0.2-0.7c0,0.1,0.1,0.2,0.2,0.1c0.1-0.5,0.3-0.1,0.5-0.3c-0.1-0.2-0.4-0.2-0.1-0.3
						c0-0.2-0.3-0.2-0.4-0.2c0.3-0.1,0.1-0.5,0.1-0.7l-0.1,0.1c0.1,0,0.1-0.1,0.1-0.2l0.2,0.2c0-0.1,0-0.2-0.1-0.2
						c0.2,0,0.3,0.2,0.6,0.2c-0.1-0.2,0.3-0.2,0-0.4c-0.1,0.4-0.3-0.2-0.4,0.1c0.1,0,0.1-0.1,0.1-0.2c0,0-0.1,0-0.1,0
						c-0.1-0.4,0.4,0,0.5-0.3c-0.2,0-0.3-0.2-0.2-0.2c-0.1,0.1,0.2,0.2,0.4,0.1c0-0.3,0.2-0.2,0.2-0.3v0.1c0.2,0,0.2-0.1,0.3-0.2
						c-0.1-0.1-0.1,0.1-0.2,0c0.3,0-0.2-0.5,0.1-0.6c-0.1-0.1-0.3-0.1-0.3-0.3c0.3-0.2-0.1-0.4,0.2-0.5c0.2,0.2,0.1,0.2,0.4,0.1
						l-0.3,0.4l0.4-0.1c0,0.1-0.2,0.2-0.2,0.3c0.2-0.1,0.2-0.1,0.3,0.1c-0.3-0.3,0.3-0.3,0.2-0.6l-0.5-0.2c-0.1-0.4,0.5-0.4,0.5-0.9
						l0,0.2c0.2,0,0.1-0.2,0.3-0.3c-0.2-0.1-0.2-0.2-0.3-0.3c0.1,0.1,0.1-0.3,0.5-0.2L13.7,47c0-0.4,0.6-0.2,0.7-0.5
						c-0.2,0-0.3-0.2-0.5,0c0-0.1,0-0.2,0.2-0.2c-0.1-0.1,0.3-0.2,0.2-0.4c0.1,0,0.3,0,0.3-0.1c0,0-0.1,0-0.1,0c0.1,0,0.2-0.1,0.4,0
						c-0.5-0.5,0.3-0.9-0.1-1.3c0.1-0.2,0.3-0.5,0.4-0.7c-0.1,0-0.1,0-0.1,0c-0.1-0.3,0.6,0,0.5-0.4c-0.3-0.3-0.2,0.1-0.3,0
						c-0.6-0.2,0.2-0.4-0.1-0.7l-0.1,0c-0.2-0.2,0.3-0.4,0.4-0.7c0,0-0.1,0-0.1,0c0.4-0.1,0.6-0.5,0.7-0.7c-0.3,0-0.2,0.1-0.4,0
						c0.1-0.1,0.4,0.1,0.5-0.1c-0.1-0.1-0.2-0.3-0.5-0.4l-0.1,0.2c-0.3-0.2,0.1-0.3,0.1-0.4l-0.2,0c0.1-0.3,0.5-0.3,0.6-0.6l0.1,0.1
						c0.4-0.1-0.2-0.2,0.1-0.4l-0.4-0.1c0.1-0.1,0.5-0.4,0.6-0.6c-0.3,0.1-0.5,0.3-0.7,0.5c0-0.1,0.1-0.5,0.3-0.5
						c0,0-0.2,0.1-0.1,0.2c0.3-0.1,0.5-0.3,0.6-0.6c-0.8-0.1-0.1-0.7-0.6-1c0.4-0.4,0-1,0.2-1.5c0.6,0.3,0-0.2,0.6,0
						c0.1-0.1,0.1-0.2,0-0.2l-0.3-0.5c-0.2-0.1-0.1,0.1-0.3,0.1c0-0.3-0.2-0.2-0.4-0.4c0.2,0.1,0.3-0.1,0.3-0.2l0.3,0.3
						c0.4-0.4-0.5-0.4-0.1-0.8L16,34.3c0.1-0.2,0.1-0.8,0.6-0.9c-0.1,0-0.2-0.1-0.3,0c0-0.5,0.6-1.1,0.4-1.5l-0.2,0
						c0.1-0.1,0.3-0.1,0.2-0.3c-0.1,0-0.2,0-0.2,0c0.1,0,0.3-0.2,0.2-0.4l-0.2,0.1c-0.2-0.5,0.5-0.7,0.6-1.1c-0.4,0-0.6-0.4-0.6-0.6
						l-0.1,0c0-0.6,0.4-0.9,0.6-1.5c-0.5-0.4-0.1-1.1-0.4-1.7c0.1,0.1,0.3,0,0.4-0.1c-0.1-0.1,0.3-0.3-0.1-0.3l0,0
						c-0.4-0.1-0.3-0.4-0.3-0.6l0.5,0c-0.8-0.5,0.3-1.4-0.4-1.7c0.1-0.1,0.1-0.3,0.3-0.4l-0.3,0c-0.1-0.3-0.1-0.5,0-1l-0.2,0.1
						c0-0.2,0.8-0.3,0.8-0.5L17,22.1c0-0.4-0.4-0.8,0-1.3c-0.1,0-0.2,0-0.2,0.1c0-0.2-0.3-0.8,0.3-0.7c-0.4,0,0-0.4,0.1-0.7l-0.3,0
						c0.4-0.2,0.4-0.2,0.5-0.5c0-0.1-0.2,0-0.2,0c-0.2-0.2,0.3-0.2,0.1-0.4l-0.2,0.1c0-0.2,0.1-0.2,0.3-0.3c0.1-0.1-0.1-0.4-0.3-0.4
						c0.2,0,0.4-0.2,0.3-0.3c-0.1,0-0.2,0-0.2,0.1c-0.2-0.4,0.3-0.6,0-0.8c-0.1,0-0.1,0-0.2,0c0,0.3,0,0.5,0.1,0.5
						c-0.3,0-0.3-0.2-0.7,0c0.2-0.2,0.6-0.5,0.5-0.8c0,0-0.1,0-0.1,0l0,0c0-0.1,0-0.1,0-0.1c0-0.1-0.1-0.1-0.1-0.2
						c-0.2,0-0.1-0.3-0.2-0.4c0.3,0,0.2-0.2,0.5,0c0,0,0,0,0,0.1c0,0,0,0,0,0.1l0,0c0,0.1,0,0.2,0,0.3c0.1-0.1,0.3-0.2,0.1-0.3
						c0.2-0.1,0.4-0.1,0.4-0.2c-0.4-0.1-0.6-0.4-0.9-0.5c0.1-0.4,0-0.8,0.6-1.1c0.1-0.1-0.2-0.1-0.2-0.1c0,0.1,0,0.1-0.1,0.2
						c0.1-0.2,0-0.6,0.4-0.7c-0.2-0.2-0.3,0.2-0.3-0.2l-0.1,0.1c-0.6-0.7,0.9-1.2,0.1-1.9c0,0,0.1,0.1,0.1,0.1
						c-0.4-0.9,0.1-1.8-0.5-2.7c-0.1-0.2,0.1-0.3,0.3-0.5l-0.3,0l0.3-0.3c0.2-0.4-0.8-0.6-0.4-1.1l0.2,0c-0.1-0.2,0.1-0.5-0.2-0.5
						c0,0,0.2-0.1,0.1-0.1l-0.2,0l0.2-0.4c-0.1-0.3-0.6,0.1-0.7-0.3c0-0.2,0.4-0.5,0.5-0.5c0,0.1,0.1,0.2,0.3,0.2l0.1-0.2
						c0.5-0.1,0.9-0.3,1.3,0.1L18,5.7l0.2,0.1l0-0.2c0.2,0.1,0,0.2-0.1,0.3c0.1,0,0.2,0,0.3,0.1L18,6.3c0.2,0,0.3-0.2,0.5,0
						c-0.2,0.1-0.4-0.1-0.5,0.1c0.2,0.1,0.4,0.1,0.2,0.2c0.1,0,0.2,0,0.2-0.1c-0.1,0.2,0,0.4-0.3,0.5c0.3,0.1,0,0.5,0.4,0.4
						c-0.1,0.1-0.3,0.3-0.3,0.4c0.5-0.3,0.1,0.5,0.6,0.3c-0.5,0.2-0.2,0.6-0.4,0.9c0,0,0.1-0.1,0.1-0.1c0.1,0.2,0.2,0.2,0.3,0.3
						c-0.4,0.1-0.5,0.3-0.7,0.5c0.4,0.2,0.4-0.2,0.8-0.1c-0.3,0-0.3,0.4-0.6,0.3c0.2,0.1,0.1,0.1,0.5,0.2c-0.5,0.1-0.1,0.2-0.4,0.3
						c0.3,0.2,0.5,0,0.3,0.3C19,10.9,19.2,10.6,19.2,10.6z M18.7,16.6L18.7,16.6c0-0.1,0-0.1,0-0.1C18.7,16.5,18.7,16.6,18.7,16.6z
						 M18.7,17.1c0-0.1,0-0.1,0-0.2c-0.1,0-0.2,0-0.2,0.1C18.6,16.9,18.6,17.1,18.7,17.1z M16.7,16.2c0,0.1,0,0.1,0.1,0.1
						c0,0,0-0.1,0-0.1l0,0C16.8,16.1,16.8,16.2,16.7,16.2z"/>
					<path fill="#FFFFFF" d="M17.1,16C17.1,16,17.1,16,17.1,16C17.1,16,17.1,16,17.1,16L17.1,16L17.1,16z"/>
					<path fill="#FFFFFF" d="M7.8,58.7L7.8,58.7C7.8,58.7,7.8,58.7,7.8,58.7C7.8,58.7,7.8,58.7,7.8,58.7z"/>
					<polygon fill="#FFFFFF" points="19.4,24 19.3,24 19.4,24 					"/>
					<path fill="#FFFFFF" d="M6.7,61.3C6.7,61.3,6.7,61.4,6.7,61.3C6.7,61.4,6.7,61.4,6.7,61.3z"/>
					<path fill="#FFFFFF" d="M5.9,62.2l-0.1,0.2C5.8,62.3,5.8,62.3,5.9,62.2z"/>
					<path fill="#FFFFFF" d="M5.3,62.9C5.2,62.9,5.2,62.9,5.3,62.9L5.3,62.9L5.3,62.9z"/>
					<path fill="#FFFFFF" d="M14.2,51.2C14.2,51.2,14.2,51.2,14.2,51.2C14.3,51.1,14.2,51.2,14.2,51.2z"/>
					<path fill="#FFFFFF" d="M11.5,54.8c0.1,0,0.1,0,0.2-0.1C11.7,54.8,11.7,54.9,11.5,54.8z"/>
					<polygon fill="#FFFFFF" points="16.3,46.7 16.3,46.7 16.3,46.7 					"/>
					<path fill="#FFFFFF" d="M11.8,54.5c0,0.1,0,0.1-0.1,0.2C11.7,54.7,11.7,54.6,11.8,54.5z"/>
					<path fill="#FFFFFF" d="M2.2,65.6L2.2,65.6C2.2,65.6,2.2,65.6,2.2,65.6L2.2,65.6z"/>
					<path fill="#FFFFFF" d="M2.2,65.6L2.2,65.6C2.1,65.6,2.1,65.6,2.2,65.6z"/>
					<path fill="#FFFFFF" d="M2,65.6l0.1,0C2.1,65.6,2,65.6,2,65.6z"/>
					<path fill="#FFFFFF" d="M3.1,64.7L3.1,64.7C3.2,64.8,3.2,64.8,3.1,64.7z"/>
					<path fill="#FFFFFF" d="M3.4,64.5c-0.1,0.1,0,0.3-0.2,0.3l-0.1-0.1C3.3,64.9,3.3,64.5,3.4,64.5z"/>
					<path fill="#FFFFFF" d="M3.8,62.6l-0.2,0.3c0-0.1-0.1-0.3-0.2-0.2C3.5,62.1,3.5,62.9,3.8,62.6z"/>
					<path fill="#FFFFFF" d="M4.4,61.8c-0.2,0.1-0.1-0.1-0.2-0.2C4.4,61.7,4.4,61.7,4.4,61.8z"/>
					<path fill="#FFFFFF" d="M8.9,56.8l-0.2-0.1C8.8,56.6,8.8,56.8,8.9,56.8z"/>
					<polygon fill="#FFFFFF" points="10.7,56.5 10.8,56.7 10.6,56.6 					"/>
					<polygon fill="#FFFFFF" points="9.6,54.9 9.6,54.9 9.8,54.8 					"/>
					<path fill="#FFFFFF" d="M14.3,44.7l0.3,0.1C14.5,44.9,14.2,44.8,14.3,44.7z"/>
					<path fill="#FFFFFF" d="M15.8,40c-0.1-0.1-0.2-0.2,0-0.3C15.8,39.9,15.9,40,15.8,40z"/>
					<polygon fill="#FFFFFF" points="16.8,25.3 16.7,25.4 16.8,25.2 					"/>
				</g>
			</g>
		</g>
		<g>
			<g>
				<g>
					<path fill="#FFFFFF" d="M1.2,25.4c-0.1-0.1-0.2-0.2-0.1-0.2l0.2,0.2L1.2,25.4z"/>
					<path fill="#FFFFFF" d="M1.3,24.6c0.2,0.1,0.4,0.2,0.6,0.5c-0.3-0.2-0.2-0.1-0.5-0.3c-0.1,0-0.1,0.2,0,0.3
						c-0.1-0.1-0.1,0.1-0.2,0c-0.1-0.3,0-0.4,0.3-0.3C1.4,24.7,1.4,24.6,1.3,24.6z"/>
					<path fill="#FFFFFF" d="M7,19L7,19C7,19,7,19,7,19z"/>
					<path fill="#FFFFFF" d="M9.9,15C9.9,15.1,9.8,15.1,9.9,15C9.8,15,9.9,15,9.9,15z"/>
					<path fill="#FFFFFF" d="M10,14.1C10,14.2,10,14.2,10,14.1C10,14.2,10,14.1,10,14.1z"/>
					<path fill="#FFFFFF" d="M7,19l0-0.2C7.1,18.9,7,18.9,7,19z"/>
					<path fill="#FFFFFF" d="M2.7,24.5c0,0-0.1,0-0.1,0C2.6,24.5,2.6,24.5,2.7,24.5L2.7,24.5z"/>
					<path fill="#FFFFFF" d="M5.3,20.3L5.3,20.3c-0.1,0-0.1,0-0.1,0L5.3,20.3z"/>
					<path fill="#FFFFFF" d="M4.1,21.4c0,0,0.2,0.2,0.3,0.3c-0.1-0.1-0.1-0.1-0.2-0.1C4.1,21.5,4.1,21.5,4.1,21.4z"/>
					<path fill="#FFFFFF" d="M2.3,23.4L2.3,23.4C2.3,23.4,2.3,23.4,2.3,23.4z"/>
					<path fill="#FFFFFF" d="M6.1,19.5C6.1,19.4,6.1,19.4,6.1,19.5C6.1,19.4,6.1,19.4,6.1,19.5z"/>
					<path fill="#FFFFFF" d="M29.8,26.4C29.8,26.4,29.8,26.4,29.8,26.4C29.8,26.4,29.8,26.4,29.8,26.4z"/>
					<polygon fill="#FFFFFF" points="32.1,27.2 32.1,27.1 32.2,27 					"/>
					<path fill="#FFFFFF" d="M10.5,12.7L10.5,12.7C10.4,12.7,10.4,12.7,10.5,12.7z"/>
					<path fill="#FFFFFF" d="M18.6,3.9c-0.3,0,0,0.6-0.4,0.6C18.3,4.4,18.3,3.8,18.6,3.9z"/>
					<path fill="#FFFFFF" d="M2.7,24.5C2.7,24.5,2.7,24.5,2.7,24.5C2.7,24.5,2.7,24.5,2.7,24.5z"/>
					<path fill="#FFFFFF" d="M18.2,4.5L18.2,4.5L18.2,4.5C18.2,4.5,18.2,4.5,18.2,4.5z"/>
					<path fill="#FFFFFF" d="M12.2,9.6C12.2,9.6,12.3,9.7,12.2,9.6C12.3,9.7,12.2,9.7,12.2,9.6z"/>
					<path fill="#FFFFFF" d="M11.4,12.1L11.4,12.1C11.4,12.1,11.4,12.1,11.4,12.1z"/>
					<path fill="#FFFFFF" d="M13.1,8.5C13.1,8.5,13.1,8.5,13.1,8.5C13.2,8.4,13.2,8.5,13.1,8.5C13.1,8.5,13.1,8.5,13.1,8.5z"/>
					<polygon fill="#FFFFFF" points="13.7,7.2 13.8,7.3 13.7,7.3 					"/>
					<path fill="#FFFFFF" d="M27.4,22.7c0.1,0,0.2-0.1,0.2-0.1C27.4,22.7,27.5,22.9,27.4,22.7z"/>
					<path fill="#FFFFFF" d="M2.6,24.4c0,0.1,0.1,0.1,0.1,0.1C2.7,24.5,2.7,24.5,2.6,24.4C2.6,24.5,2.6,24.4,2.6,24.4z"/>
					<path fill="#FFFFFF" d="M15.2,9.4l0.1-0.2C15.2,9.2,15.2,9.3,15.2,9.4z"/>
					<path fill="#FFFFFF" d="M21.7,14L21.7,14C21.7,14,21.7,14,21.7,14z"/>
					<path fill="#FFFFFF" d="M15.6,8.6c-0.1-0.1-0.1-0.1-0.1-0.2c0,0,0,0,0.1,0L15.6,8.6z"/>
					<path fill="#FFFFFF" d="M27.6,22.6L27.6,22.6L27.6,22.6z"/>
					<path fill="#FFFFFF" d="M27.9,24.3c-0.1-0.2,0.2-0.3,0.4-0.5c-0.1-0.3-0.3,0.1-0.5,0.1c0-0.2,0.2-0.5,0.1-0.6
						c-0.1,0-0.1,0-0.1,0.1c0.1-0.3-0.3-0.4-0.1-0.8c0,0-0.1,0-0.1,0c0.2-0.1,0.3-0.2,0.4-0.3c-0.1-0.1,0.1-0.3-0.1-0.2
						c0,0,0,0.1-0.1,0.2l0-0.1c-0.3,0.1,0,0.2-0.2,0.3c0-0.2,0.1-0.6-0.1-0.7c-0.3,0.2,0.1,0.4-0.3,0.4l0.2,0.1
						c-0.5,0.2,0.1,0.1-0.5,0.3c-0.3-0.2-0.1-0.4-0.3-0.6c0.1-0.2,0.2-0.1,0.4-0.3c0-0.6-0.9,0.2-0.7-0.3c0.1-0.2,0.5-0.5,0.2-0.5
						l-0.3,0.3c-0.2-0.2,0.4-0.5,0-0.6c-0.1,0.1,0,0.3,0,0.3c-0.4,0,0.1-0.2,0-0.4l-0.3,0.2c-0.1-0.3-0.1-0.7-0.3-1.1
						c-0.1,0.1-0.1,0.2-0.3,0.2c-0.1-0.5-0.6-0.8-1-1l0.2-0.3c0,0-0.2,0-0.2,0.1c-0.2-0.1,0.2-0.1,0.2-0.2c0-0.1-0.2,0-0.3,0.1
						c0-0.4,0-1-0.5-1.1l0,0.1c-0.2-0.1,0.4-0.6,0-0.6l0,0.1c-0.4-0.4-0.5-1-1.1-1.1c0.3-0.3-0.4-0.3,0-0.7c-0.4-0.1-0.5,0-0.8-0.2
						c-0.1-0.1,0.2-0.3,0.2-0.5l-0.3,0.2l0.2-0.3l-0.4,0.1l0-0.2c0,0,0.2,0,0.2,0c0-0.2-0.5-0.3-0.6-0.2l0-0.6
						c-0.1,0.1-0.1,0.2-0.1,0.3c0.1-0.4-0.3,0.1-0.2-0.2c0.1,0,0.1-0.1,0.2-0.1c-0.2,0-0.4-0.2-0.4-0.4l-0.2,0.1
						c-0.2-0.3-0.3-0.7-0.5-1.1c0.2,0.1,0.5-0.1,0.4-0.3l-0.3,0.1c0.1-0.2,0.2,0,0.3-0.2c-0.1-0.1-0.4,0.1-0.4,0.2l0-0.2
						c-0.1,0-0.1,0.1-0.2,0.2c0.1-0.2-0.4-0.1-0.2-0.4l-0.1,0c-0.2-0.4-0.2-0.6-0.4-0.9c0.2-0.1,0.1-0.2,0.3-0.4
						c-0.2-0.2-0.5-0.3-0.7-0.6c0-0.2,0.2-0.2,0.3-0.3c-0.2,0.1-0.4-0.2-0.4,0.1c-0.1-0.3-0.2-0.4-0.2-0.9c0.1,0,0.2,0,0.2-0.1
						c0-0.1-0.2-0.1-0.3,0l0,0c0.1-0.6-1.2-0.7-0.9-1.3l0,0l0-0.5c-0.1-0.1-0.1,0.2-0.3,0.1c0.1-0.7-0.2-0.3-0.1-0.6
						c-0.3,0.3-0.3,0.3-0.3,0.2c0-0.1,0-0.3-0.1,0.1l0-0.3c0-0.3,0,0.1,0,0.2c0-0.2,0-0.3,0.1-0.4c0-0.1,0-0.2-0.1-0.2
						c0,0-0.1,0-0.1,0.2c0,0.4,0,0.8,0,0.9c0,0.1-0.4-1.3-0.3-0.6c0,0,0,0.1,0.1,0.2c0,0.1,0.1,0.2,0.1,0.2c-0.1-0.2-0.2-0.1-0.2,0
						c0,0.1-0.1,0.2-0.3,0.2c0.1,0,0.2,0.1,0.2,0c0.1,0,0.1,0.2,0,0.2c-0.1,0.1-0.2,0.1-0.3,0.1c0,0.1,0.2,0.1,0.2,0.2
						c0.1,0.2-0.4,0.2-0.2,0.3c0,0,0.1,0,0.1,0c-0.1,0-0.1,0.4-0.4,0.2c0,0.3-0.3,0.4-0.2,0.6c-0.3,0,0,0.4-0.4,0.3
						c0.4,0.2,0.2,0.5-0.1,0.6c0.1,0,0.1,0.2,0.3,0.2c-0.1,0.2-0.2,0.3-0.4,0.1c0.4,0.5-0.7,0.4-0.1,0.8c-0.4,0.4-0.8,0.7-1.1,1.1
						c0.4,0.2,0.3-0.4,0.7-0.2c-0.4,0.3-0.8,0.4-0.9,0.8c0,0.1,0.2,0,0.3,0c-0.4,0.3-0.3,0.8-0.7,1c0,0,0.1,0,0.1,0
						c-0.1,0.1,0,0.2-0.2,0.1l0.1,0c-0.2-0.2-0.7,0-0.8-0.1c0.6,0.2-0.1,0.4,0.7,0.6c-0.1,0-0.2,0-0.3,0c0,0.1,0.1,0.1,0.2,0.2
						c-0.2,0.2-0.4,0-0.5,0.2c0.1,0,0.1,0,0.3,0.1c-0.2,0-0.5,0-0.5,0.3c0.1,0,0.1,0.1,0.1,0c-0.2,0.3-0.7,0.3-0.8,0.7
						c0.4,0.1,0.1,0.2,0.4,0.4c0,0-0.2,0.1-0.2,0.1l-0.1-0.2c-0.1,0.2-0.4,0.1-0.4,0.3l0.2,0l-0.3,0.2l0-0.2c-0.3,0-0.4-0.3-0.4,0
						c0.1,0-0.1,0.2,0,0.4l0,0c-0.2,0-0.3,0-0.3,0.2c0.1,0.1,0.4,0.2,0.4,0.3c-0.3-0.1-0.3,0.3-0.7,0.2c0.1,0,0.2,0.1,0.3,0.2
						L10,16.7c0,0.1,0,0.2,0.2,0.2c-0.1,0.2-0.3-0.3-0.3,0c0,0,0.1,0,0.1,0c-0.1,0.3-0.5,0.4-0.5,0.7c0.2,0.3,0.2-0.1,0.4,0.1
						c-0.3,0.3-0.9,0.4-1.1,0.7l0-0.1c-0.4-0.3,0,0.4-0.3,0.4c0.1,0,0.3,0.1,0.2,0.1c-0.1,0.3-0.5,0.3-0.9,0.5l0.1,0.1
						c0,0.2-0.2,0.4-0.3,0.5c-0.1-0.1-0.2,0-0.3-0.1c0.2,1-1,0.4-0.9,1.2c0,0,0.2,0,0.1,0l-0.4,0.2c-0.1-0.2-0.1-0.1-0.1-0.3
						c-0.1-0.1-0.3-0.1-0.4,0C6,21,6,21.2,6,21.4c0-0.1-0.1-0.1-0.2-0.2c0.1,0.4-0.3-0.3-0.4,0.1l0.1,0.1c-0.1,0-0.3,0-0.4,0.1
						c0.1,0.2,0.2,0,0.3,0.2C5.4,21.7,5,21.5,5,21.8c0.1,0,0.2-0.1,0.3,0c0.1,0.3,0,0.3,0,0.4l0,0l-0.1,0.3l0-0.1
						c-0.6-0.4-0.4,0.2-0.9,0c0.5,0.2,0.2,0.2,0.4,0.4c0,0.1,0,0.3,0.1,0.3c-0.3-0.1,0,0.3-0.4,0.1c0.1,0.1-0.1,0.1,0.1,0.3
						c-0.2,0-0.1-0.2-0.2-0.2C3.8,23,4,23.8,3.4,23.7c-0.4,0-0.6-0.2-1-0.1c0,0.2,0.3,0.2,0.3,0.2c0,0.2-0.2,0.3-0.3,0.3
						c0.1,0,0.1,0.1,0.1,0.2c-0.1,0.1-0.3-0.2-0.3,0c0.1,0.1,0.2,0.2,0.3,0.2c-0.2,0-0.4,0-0.6,0c0.1,0.2,0.2,0.2,0.3,0.2
						c-0.2,0-0.4,0.1-0.6,0l0-0.1c-0.1,0,0.1,0.2,0.2,0.2C2.2,24.8,2,24.5,2,24.4l-0.1,0c-0.3-0.5,0.4-0.2,0.5-0.3l-0.3-0.3L2.4,24
						c0-0.1-0.1-0.3-0.3-0.3c0-0.3,0.2,0,0.2-0.2c0,0,0,0,0-0.1l0.2,0c-0.1-0.1-0.2-0.2-0.2-0.1c0.1-0.3,0.5,0,0.4-0.3l0,0
						c0.4-0.1,0.2,0.2,0.7,0.3L3,22.6l0.2,0.2c0,0,0.1-0.1,0-0.2c0.2,0.1,0.1,0.1,0.3,0.2c0-0.3,0.5-0.2,0.2-0.6
						c0.2,0.1,0,0.2,0.2,0.3c-0.3-0.4,0.2-0.1,0.2-0.4c-0.2-0.2-0.2,0-0.3-0.3c0.4,0.3,0.2-0.3,0.3-0.3c0.2,0.3,0.3-0.1,0.6-0.2
						c-0.1-0.1,0.2-0.4,0.3-0.7l0,0c0.3,0.2,0.4,0,0.6,0c-0.2-0.2-0.2-0.2-0.4-0.2l0.1-0.1c0.1,0.1,0.2,0.1,0.3,0l-0.2-0.2
						c0.2-0.1,0.5,0,0.6-0.3c0.2,0.2,0.3,0.7,0.7,0.6c-0.1-0.1-0.2-0.3-0.3-0.3c0,0,0.1,0,0.1-0.1L6.2,20c0-0.2,0.2,0.1,0.2,0
						c-0.1-0.1,0-0.1-0.2-0.2c0,0,0,0.1-0.1,0.1c0.1-0.1,0.1-0.3,0-0.4c0.1,0.1,0.2,0.2,0.3,0.2c0.2-0.1-0.1-0.2-0.1-0.4
						c0.1,0.1,0.1-0.1,0.3,0.1c0,0-0.1-0.1-0.1-0.2c0.2,0,0.3-0.3,0.5,0l0,0c0,0,0,0,0,0l0,0l0,0c0.4-0.1,0.3-0.7,0.7-0.8l-0.1-0.1
						c0.2-0.1,0.3-0.3,0.6-0.3c0,0,0-0.2-0.2-0.3c0.2-0.1,0.3,0,0.3-0.3c-0.2,0-0.1-0.1-0.2,0c0.1-0.2,0-0.3,0.3-0.3
						c-0.2-0.1-0.2-0.3-0.1-0.4L8.5,17c0.1-0.1,0.1-0.2,0.2-0.2l-0.3-0.2c-0.1-0.6,1-0.2,0.6-0.8c0.3,0,0,0.3,0.3,0.4
						c0.1-0.2-0.2-0.6-0.2-0.7c0-0.3,0.5,0.1,0.6-0.2c0.1,0.1,0.3,0.3,0.5,0.2c0.1-0.2-0.3-0.5-0.4-0.4c0,0,0,0.1,0,0.1
						c-0.1,0-0.2,0.1-0.2-0.1l0.1,0c0-0.1,0.1-0.3-0.1-0.4c0.2-0.1,0.2,0.1,0.2,0.2c0-0.3,0.2-0.3,0.2-0.6c0,0.1,0.1,0.2,0.2,0.1
						c0.1-0.4,0.3,0,0.4-0.2c-0.1-0.2-0.4-0.2-0.1-0.3c0-0.2-0.3-0.2-0.4-0.2c0.3-0.1,0.1-0.4,0.1-0.6l-0.1,0.1
						c0.1,0,0.1-0.1,0.1-0.1l0.2,0.2c0-0.1,0-0.1-0.1-0.2c0.2,0,0.3,0.2,0.6,0.2c-0.1-0.1,0.3-0.2,0-0.4c-0.1,0.3-0.3-0.2-0.4,0
						c0.1,0,0.1-0.1,0.1-0.2c0,0-0.1,0-0.1,0c-0.1-0.4,0.4,0.1,0.5-0.2c-0.2-0.1-0.3-0.2-0.2-0.2c-0.1,0.1,0.2,0.2,0.4,0.2
						c0-0.2,0.2-0.1,0.2-0.2l0,0.1c0.2,0,0.2,0,0.3-0.1c-0.1-0.1-0.1,0.1-0.2,0c0.4,0-0.1-0.4,0.1-0.5c-0.1-0.1-0.3-0.2-0.3-0.3
						c0.3-0.1-0.1-0.3,0.2-0.5c0.2,0.2,0.1,0.2,0.4,0.1l-0.3,0.3l0.4-0.1c0,0.1-0.2,0.2-0.2,0.2c0.2,0,0.2,0,0.3,0.1
						c-0.2-0.3,0.3-0.2,0.2-0.5l-0.5-0.3c-0.1-0.4,0.5-0.3,0.5-0.7l0,0.2c0.2,0.1,0.1-0.2,0.3-0.3c-0.2-0.1-0.2-0.2-0.3-0.3
						c0.1,0.1,0.1-0.2,0.5-0.1l-0.2-0.3c0-0.3,0.7-0.1,0.7-0.4c-0.2,0-0.3-0.2-0.5-0.1c0-0.1,0-0.2,0.2-0.1
						c-0.1-0.1,0.4-0.1,0.2-0.3c0.1,0,0.3,0.1,0.3,0c0,0-0.1,0-0.1,0c0.1,0,0.2-0.1,0.4,0.1c-0.4-0.5,0.4-0.7,0-1.2
						c0.1-0.2,0.3-0.4,0.4-0.5c-0.1,0-0.1,0-0.1,0c-0.1-0.3,0.6,0.1,0.5-0.3c-0.2-0.3-0.2,0.1-0.3-0.1c-0.3-0.2-0.2-0.2-0.1-0.3
						c0.1-0.1,0.2-0.2,0.1-0.4l-0.1,0c-0.1-0.3,0.4-0.4,0.5-0.7c0,0-0.1,0-0.1-0.1c0.4,0,0.6-0.2,0.8-0.4c-0.2-0.2-0.1,0-0.3-0.4
						c0.1-0.1,0.2,0.5,0.4,0.3c0-0.2,0-0.6-0.2-0.9l-0.1,0.2c-0.1-0.6,0.2-0.3,0.2-0.5l-0.1-0.2c0.2-0.4,0.4,0.2,0.5-0.2l0,0.2
						c0.2,0.5,0-0.6,0.2-0.3l-0.1-0.8c0.1,0,0.3,0.2,0.4,0.2c-0.1-0.5-0.3-0.5-0.4-0.6c0.1-0.2,0.3-0.5,0.3-0.2c0,0-0.1-0.1-0.1,0
						c0.1,0.2,0.1,0.4,0.2,0.4c0,0,0.1,0,0.1,0c0,0,0.1,0.1,0.1,0.2c0-0.9,0.1-0.8,0.2-0.6C17,1.7,17.1,2,17.3,1.6
						c0.1,0.6,0.3,0.8,0.5,1c0.2,0.2,0.4,0.5,0.6,0.9c-0.5,0.4,0.1,0.2-0.3,0.8c0,0.2,0.1,0.2,0.1,0.2c0,0,0.5,0.1,0.5,0.2
						c0.2,0,0-0.3,0.1-0.3c0.2,0.4,0.3,0,0.6,0.2c-0.2,0.1-0.2,0.3,0,0.5c0,0-0.4-0.2-0.4-0.2c0,0.4,0.1,0.3,0.3,0.4
						c0.1,0,0.3,0,0.2,0.2l0.1-0.2c0,0.2,0.3,0.6,0,1c0.1,0,0.2,0,0.2-0.1c0.3,0.3,0,1.1,0.4,1.2l0.1-0.1c0,0.1-0.2,0.3,0,0.3
						c0.1,0,0.1-0.1,0.1-0.1c0,0.1-0.1,0.3,0,0.4l0.1-0.2c0.4,0.3,0,0.8,0.1,1.1c0.4-0.2,0.7,0,0.8,0.1l0.1,0
						c0.3,0.4,0.1,0.9,0.2,1.4c0.6,0,0.6,0.7,1.1,1c-0.1,0-0.3,0.2-0.3,0.3c0.1,0-0.1,0.4,0.2,0.2l0,0c0.4-0.1,0.4,0.1,0.5,0.2
						l-0.4,0.3c0.9,0,0.4,1.2,1.1,1c-0.1,0.2,0,0.3,0,0.4l0.2-0.2c0.2,0.2,0.3,0.3,0.5,0.7l0.1-0.2c0.1,0.2-0.5,0.7-0.5,0.8l0.4-0.2
						c0.2,0.3,0.7,0.4,0.6,0.9c0,0,0.1-0.1,0.1-0.2c0.1,0.1,0.6,0.4,0.1,0.7c0.3-0.2,0.2,0.3,0.2,0.6l0.2-0.2
						c-0.2,0.3-0.3,0.4-0.2,0.6c0.1,0,0.2-0.1,0.1-0.1c0.2,0.1-0.1,0.3,0.1,0.4l0.1-0.2c0.1,0.1,0,0.2-0.1,0.4
						c0,0.2,0.3,0.3,0.5,0.1c-0.1,0.1-0.2,0.3-0.1,0.4c0.1,0,0.1-0.1,0.1-0.1c0.3,0.2,0,0.6,0.3,0.6c0.1,0,0.1-0.1,0.2-0.1
						c-0.1-0.2-0.3-0.4-0.3-0.3c0.2-0.1,0.4,0,0.6-0.3c-0.1,0.2-0.3,0.7-0.1,0.8c0,0,0.1,0,0.1,0l0,0c0,0,0,0.1,0,0.1
						c0.1,0,0.1,0,0.2,0.1c0.2-0.1,0.2,0.1,0.3,0.2c-0.2,0.1-0.1,0.2-0.4,0.3c0,0,0,0,0-0.1c0,0,0,0,0-0.1l0,0
						c0-0.1-0.1-0.1-0.1-0.2c-0.1,0.1-0.1,0.3,0.1,0.3c-0.1,0.1-0.2,0.3-0.3,0.4c0.4-0.1,0.7,0,1-0.1c0,0.3,0.3,0.7,0,1.1
						c0,0.1,0.2,0,0.3,0c0-0.1,0-0.1,0-0.2c0,0.2,0.3,0.5,0,0.7c0.3,0.1,0.2-0.3,0.3,0l0.1-0.1c0.8,0.2-0.2,1.3,0.8,1.5
						c-0.1,0-0.1,0-0.2,0c0.7,0.4,0.6,1.5,1.5,1.8c0.2,0.1,0,0.3,0,0.5l0.3-0.1l-0.2,0.4c0,0.4,0.9,0,0.8,0.6l-0.2,0.1
						c0.1,0.1,0.2,0.4,0.3,0.3c0,0-0.1,0.2,0,0.1l0.1-0.1l0,0.4c0.3,0.2,0.5-0.4,0.7-0.1c0,0.2-0.1,0.6-0.2,0.6c0,0-0.2-0.1-0.3,0
						l0,0.2c-0.4,0.3-0.7,0.7-1.1,0.6l0.1-0.4l-0.2,0.1l0.1,0.2c-0.2,0-0.1-0.1-0.1-0.3c-0.1,0.1-0.2,0.1-0.3,0.1l0.2-0.4
						c-0.2,0.1-0.2,0.3-0.4,0.2c0.1-0.2,0.4-0.2,0.4-0.4c-0.2,0-0.4,0.2-0.3-0.1c-0.1,0.1-0.2,0.1-0.2,0.2c0-0.2-0.1-0.3,0-0.5
						c-0.3,0.1-0.2-0.4-0.5-0.1c0.1-0.1,0.2-0.4,0.1-0.5c-0.3,0.5-0.3-0.3-0.7,0.1c0.3-0.4-0.1-0.6-0.1-0.9c0,0-0.1,0.1,0,0.1
						c-0.1-0.1-0.3,0-0.4-0.1c0.3-0.2,0.3-0.5,0.4-0.7c-0.4,0.1-0.3,0.4-0.6,0.5c0.3-0.2,0.1-0.4,0.3-0.5c-0.3,0-0.2,0-0.5,0.1
						c0.4-0.3,0-0.2,0.2-0.4c-0.3,0-0.4,0.2-0.4,0C28,24,27.9,24.3,27.9,24.3z M25.7,19.5L25.7,19.5c0,0,0,0.1,0,0.1
						C25.8,19.6,25.8,19.6,25.7,19.5z M25.5,19.2c0,0,0.1,0.1,0.1,0.1c0.1,0,0.2-0.1,0.1-0.1C25.7,19.2,25.6,19.2,25.5,19.2z
						 M27.6,18.9c0-0.1-0.1-0.1-0.1,0C27.5,18.8,27.5,18.9,27.6,18.9L27.5,19C27.6,18.9,27.6,18.9,27.6,18.9z"/>
					<path fill="#FFFFFF" d="M27.4,19.2C27.4,19.2,27.4,19.2,27.4,19.2C27.4,19.2,27.3,19.2,27.4,19.2L27.4,19.2L27.4,19.2z"/>
					<path fill="#FFFFFF" d="M7,19.1L7,19.1C7,19.1,7,19.1,7,19.1C7,19.1,7,19.1,7,19.1z"/>
					<polygon fill="#FFFFFF" points="21.8,14.5 21.9,14.4 21.9,14.5 					"/>
					<path fill="#FFFFFF" d="M6,21.4C6,21.4,6,21.4,6,21.4C6,21.5,6,21.4,6,21.4z"/>
					<path fill="#FFFFFF" d="M5.3,22.1l0,0.2C5.3,22.2,5.3,22.2,5.3,22.1z"/>
					<path fill="#FFFFFF" d="M4.8,22.8C4.8,22.8,4.7,22.7,4.8,22.8L4.8,22.8L4.8,22.8z"/>
					<path fill="#FFFFFF" d="M13,13.1C13,13.1,13.1,13.1,13,13.1C13.1,13,13.1,13,13,13.1z"/>
					<path fill="#FFFFFF" d="M10.5,16c0.1,0,0.1,0,0.2,0C10.7,16,10.7,16.1,10.5,16z"/>
					<polygon fill="#FFFFFF" points="15.2,9.4 15.2,9.4 15.2,9.4 					"/>
					<path fill="#FFFFFF" d="M10.8,15.8c0,0.1,0,0.1-0.1,0.1C10.7,15.9,10.7,15.8,10.8,15.8z"/>
					<path fill="#FFFFFF" d="M2.1,25L2.1,25C2.1,25,2.1,25,2.1,25L2.1,25z"/>
					<path fill="#FFFFFF" d="M2.1,25L2.1,25C2,25,2.1,25,2.1,25z"/>
					<path fill="#FFFFFF" d="M1.9,25L2,25C2,25,2,25,1.9,25z"/>
					<path fill="#FFFFFF" d="M2.9,24.3L2.9,24.3C2.9,24.3,2.9,24.3,2.9,24.3z"/>
					<path fill="#FFFFFF" d="M3.2,24.1c0,0.1,0,0.3-0.1,0.3L3,24.3C3.1,24.4,3,24,3.2,24.1z"/>
					<path fill="#FFFFFF" d="M3.4,22.3l-0.2,0.2c0-0.1-0.1-0.3-0.2-0.2C3.1,21.9,3.2,22.5,3.4,22.3z"/>
					<path fill="#FFFFFF" d="M4,21.7c-0.1,0.1-0.1-0.1-0.1-0.2C3.9,21.5,4,21.5,4,21.7z"/>
					<path fill="#FFFFFF" d="M8,17.5l-0.2-0.2C7.9,17.3,7.9,17.5,8,17.5z"/>
					<polygon fill="#FFFFFF" points="9.8,17.5 9.9,17.7 9.6,17.6 					"/>
					<polygon fill="#FFFFFF" points="8.7,15.9 8.7,15.9 8.8,15.8 					"/>
					<path fill="#FFFFFF" d="M13.4,7.4l0.3,0.2C13.6,7.6,13.3,7.4,13.4,7.4z"/>
					<path fill="#FFFFFF" d="M15.8,2.6c0-0.3,0-0.7,0.1-0.5C15.9,2.3,15.9,2.6,15.8,2.6z"/>
					<polygon fill="#FFFFFF" points="23.4,12.2 23.4,12 23.4,12.2 					"/>
				</g>
			</g>
		</g>
	</g>
</g>
</svg>
