<?xml version="1.0" encoding="utf-8"?>
<!-- Generator: Adobe Illustrator 18.0.0, SVG Export Plug-In . SVG Version: 6.00 Build 0)  -->
<!DOCTYPE svg PUBLIC "-//W3C//DTD SVG 1.1//EN" "http://www.w3.org/Graphics/SVG/1.1/DTD/svg11.dtd">
<svg version="1.1" id="Layer_1" xmlns="http://www.w3.org/2000/svg" xmlns:xlink="http://www.w3.org/1999/xlink" x="0px" y="0px"
	 viewBox="0 0 31.4 62" enable-background="new 0 0 31.4 62" xml:space="preserve">
<g>
	<g>
		<path fill="none" d="M31.2,38.4C21.3,45.4,20,50.6,15.4,60.6C9.3,48.5,0,36.1,0,36.1 M15.2,0v57"/>
		<g>
			<g>
				<g>
					<path fill="#FFFFFF" d="M14.8,57c0.1,0,0.2,0,0.2-0.1l-0.2-0.1L14.8,57z"/>
					<path fill="#FFFFFF" d="M15.2,56.5c-0.1-0.1-0.3-0.2-0.5-0.1c0.2,0.1,0.1,0.1,0.3,0.2c0,0.1-0.1,0.1-0.1,0.1
						c0.1,0,0,0.1,0.1,0.2c0.2-0.1,0.2-0.2,0-0.4C15.1,56.4,15.2,56.4,15.2,56.5z"/>
					<path fill="#FFFFFF" d="M15.5,48.4L15.5,48.4C15.5,48.4,15.5,48.4,15.5,48.4z"/>
					<path fill="#FFFFFF" d="M15.6,43.4C15.6,43.4,15.6,43.4,15.6,43.4C15.7,43.4,15.6,43.4,15.6,43.4z"/>
					<path fill="#FFFFFF" d="M15.8,42.5C15.8,42.5,15.8,42.5,15.8,42.5C15.9,42.5,15.9,42.5,15.8,42.5z"/>
					<path fill="#FFFFFF" d="M15.5,48.4l0.1-0.1C15.5,48.2,15.5,48.3,15.5,48.4z"/>
					<path fill="#FFFFFF" d="M14.7,55.3C14.7,55.4,14.7,55.4,14.7,55.3C14.7,55.4,14.7,55.4,14.7,55.3
						C14.7,55.3,14.7,55.3,14.7,55.3z"/>
					<path fill="#FFFFFF" d="M15.7,50.6L15.7,50.6C15.7,50.6,15.7,50.6,15.7,50.6L15.7,50.6z"/>
					<path fill="#FFFFFF" d="M15.7,52.3c0,0-0.2-0.1-0.2-0.1c0.1,0,0.1,0,0.1,0.1C15.6,52.3,15.7,52.3,15.7,52.3z"/>
					<path fill="#FFFFFF" d="M15.4,55L15.4,55C15.4,55,15.4,55,15.4,55z"/>
					<path fill="#FFFFFF" d="M15.7,49.4C15.7,49.4,15.8,49.4,15.7,49.4C15.8,49.3,15.7,49.4,15.7,49.4z"/>
					<path fill="#FFFFFF" d="M14.4,2C14.4,2,14.4,2,14.4,2C14.4,2,14.4,2,14.4,2z"/>
					<path fill="#FFFFFF" d="M15.3,0L15.3,0c0,0,0.1,0,0.1,0L15.3,0z"/>
					<path fill="#FFFFFF" d="M16.1,40.9C16.1,40.9,16.1,40.9,16.1,40.9C16.1,41,16.1,41,16.1,40.9z"/>
					<path fill="#FFFFFF" d="M15.9,26.6c-0.2,0.2-0.2-0.3-0.4,0C15.6,26.5,15.8,26.8,15.9,26.6z"/>
					<path fill="#FFFFFF" d="M14.7,55.3C14.7,55.3,14.7,55.2,14.7,55.3C14.7,55.3,14.7,55.3,14.7,55.3z"/>
					<path fill="#FFFFFF" d="M15.6,26.6C15.6,26.6,15.6,26.6,15.6,26.6L15.6,26.6C15.6,26.6,15.6,26.6,15.6,26.6z"/>
					<path fill="#FFFFFF" d="M16,37.3C15.9,37.3,15.9,37.4,16,37.3C15.9,37.4,15.9,37.4,16,37.3z"/>
					<path fill="#FFFFFF" d="M15.7,40L15.7,40C15.7,40,15.7,40,15.7,40z"/>
					<path fill="#FFFFFF" d="M15.7,35.9C15.7,35.9,15.8,35.9,15.7,35.9C15.7,35.8,15.7,35.9,15.7,35.9
						C15.7,35.9,15.7,35.9,15.7,35.9z"/>
					<path fill="#FFFFFF" d="M15.7,34.5C15.7,34.5,15.7,34.5,15.7,34.5C15.7,34.5,15.7,34.5,15.7,34.5L15.7,34.5z"/>
					<path fill="#FFFFFF" d="M14.5,6.4c0,0,0.1-0.1,0.2-0.1C14.5,6.3,14.5,6.1,14.5,6.4z"/>
					<path fill="#FFFFFF" d="M14.8,55.3C14.7,55.3,14.7,55.3,14.8,55.3C14.7,55.3,14.7,55.3,14.8,55.3
						C14.8,55.3,14.8,55.3,14.8,55.3z"/>
					<path fill="#FFFFFF" d="M14.3,35.9l0-0.2C14.4,35.7,14.3,35.8,14.3,35.9z"/>
					<path fill="#FFFFFF" d="M14.5,16.8L14.5,16.8C14.5,16.8,14.5,16.8,14.5,16.8z"/>
					<path fill="#FFFFFF" d="M14.3,35c0.1,0,0.1-0.1,0.1-0.1c0,0,0,0,0,0L14.3,35z"/>
					<path fill="#FFFFFF" d="M14.6,6.3C14.6,6.3,14.6,6.3,14.6,6.3C14.6,6.3,14.6,6.3,14.6,6.3z"/>
					<path fill="#FFFFFF" d="M14.2,4.8c0,0.2,0.2,0.1,0.4,0.1c0.1,0.3-0.2,0.1-0.3,0.2c0.1,0.2,0.3,0.3,0.3,0.4c0,0-0.1,0-0.1,0
						c0.2,0.2,0,0.5,0.2,0.7c0,0,0,0-0.1,0c0.1,0,0.2,0,0.3,0c0,0.1,0.1,0.2,0,0.2c0-0.1-0.1-0.1-0.1-0.1l0.1,0.1
						c-0.2,0.1-0.1-0.1-0.2-0.1c0.1,0.2,0.2,0.4,0.2,0.6c-0.2,0-0.1-0.4-0.3-0.2l0.1-0.2c-0.3,0.2,0-0.1-0.3,0
						c-0.1,0.3,0.1,0.4,0,0.7c0.1,0.1,0.2,0,0.3,0c0.2,0.4-0.5,0.4-0.2,0.7c0.1,0.1,0.4,0.1,0.3,0.4l-0.2-0.1c0,0.3,0.3,0.2,0.2,0.5
						c-0.1-0.1-0.1-0.2-0.1-0.2c-0.2,0.2,0.1,0.1,0.1,0.3l-0.2,0c0,0.3,0.2,0.7,0.2,1c-0.1,0-0.1-0.1-0.2,0c0.1,0.5,0,1-0.2,1.4
						l0.2,0.2c0,0-0.1,0.1-0.1,0c-0.1,0.2,0.1,0,0.2,0.1c0,0.1-0.1,0.1-0.2,0.1c0.2,0.3,0.3,0.9,0.1,1.2l-0.1-0.1
						c-0.1,0.2,0.4,0.3,0.2,0.5l0,0c-0.1,0.5,0.1,1.1-0.2,1.5c0.3,0.1-0.1,0.5,0.2,0.6c-0.2,0.3-0.2,0.2-0.4,0.6
						c0,0.1,0.2,0.2,0.3,0.3l-0.2,0l0.2,0.2l-0.2,0.1l0,0.1c0-0.1,0.1-0.1,0.1-0.1c0.1,0.2-0.1,0.5-0.2,0.5l0.2,0.5
						c-0.1,0-0.1-0.1-0.2-0.2c0.2,0.3-0.2,0,0,0.3c0,0,0.1,0,0.2,0c-0.1,0.1-0.1,0.4-0.1,0.6l-0.1,0c0,0.4,0.1,0.8,0.1,1.2
						c0.1-0.1,0.3-0.1,0.3,0l-0.2,0c0.1,0.1,0.1-0.1,0.2,0c0,0.2-0.2,0.1-0.3,0l0.1,0.2c-0.1,0-0.1,0-0.2,0c0.1,0.1-0.2,0.3,0,0.4
						l-0.1,0c0,0.4,0.1,0.6,0.1,0.9c0.2,0,0.1,0.1,0.3,0.2c-0.1,0.2-0.2,0.5-0.2,0.8c0.1,0.2,0.1,0.1,0.3,0.2
						c-0.2,0-0.1,0.3-0.3,0.2c0,0.4,0,0.5,0.2,0.9c0.1,0,0.1-0.1,0.1-0.1c0,0.1-0.1,0.2-0.1,0.2l0,0c0.2,0.5-0.5,1.2-0.1,1.6l0,0
						l0.2,0.4c0,0.2-0.1-0.1-0.2,0c0.3,0.4,0,0.7,0.1,1.1c-0.5,0.3,0,1-0.3,1.4l0.1,0c0.1,0.1-0.1,0.1-0.1,0.2c0.1,0,0.1-0.1,0.2,0
						c0.1,0.8-0.2,1.7-0.3,2.6c0,0.3,0.6,0.2,0.3,0.6l-0.2-0.1c0.2,0.6,0,1.3,0.2,1.9c0,0-0.1,0-0.1-0.1c-0.1,0.1,0,0.5,0.1,0.5
						c0,0.1-0.1,0-0.2,0.1c-0.1,0.1,0.2,0.3,0,0.4c0,0,0,0-0.1-0.1c0.1,0.1,0,0.4,0.2,0.3c-0.1,0.2,0.1,0.4,0,0.6
						c0.2,0.1-0.1,0.4,0.2,0.4c-0.3,0-0.2,0.4-0.1,0.6c-0.1,0-0.1,0.1-0.2,0.1c0,0.2,0.1,0.3,0.2,0.3c-0.3,0.3,0.3,0.6-0.2,0.8
						c0.2,0.5,0.3,1,0.3,1.4c-0.3,0,0-0.5-0.3-0.5c0.1,0.4,0.4,0.7,0.3,1.1c0,0.1-0.1-0.1-0.2-0.1c0.1,0.4,0,0.8,0.1,1.2
						c0,0-0.1,0-0.1-0.1c0,0.1,0,0.2,0.1,0.2l0-0.1c0.2-0.1,0.4,0.3,0.5,0.3c-0.4-0.1-0.1,0.4-0.6,0.2c0,0,0.1,0.1,0.2,0.1
						c0,0.1-0.1,0.1-0.2,0c0.1,0.3,0.2,0.2,0.2,0.4c-0.1,0-0.1-0.1-0.2-0.1c0.1,0.1,0.2,0.2,0.2,0.5c0,0-0.1,0-0.1,0
						c0,0.4,0.3,0.6,0.2,1c-0.3-0.1-0.1,0.1-0.3,0.2l0.1,0.2l0.1-0.1c0,0.2,0.2,0.3,0.1,0.5l-0.1-0.1l0,0.3l0.1-0.2
						c0.1,0.2,0.3,0,0.2,0.2c0,0,0,0.2-0.1,0.3c0,0,0,0,0,0c0.1,0.1,0.2,0.2,0.1,0.3c-0.1,0-0.3,0-0.3,0c0.2,0.1,0.1,0.4,0.3,0.5
						c0,0-0.2,0-0.2,0l0.2,0.1c-0.1,0.1-0.1,0.1-0.2,0.1c0,0.3,0.3-0.1,0.2,0.2c0,0,0,0-0.1-0.1c-0.1,0.3,0.1,0.6,0,0.9
						c-0.2,0.1-0.1-0.2-0.3-0.1c0,0.4,0.3,0.8,0.2,1.2l0-0.1c0.3,0.1-0.2,0.3,0,0.5c0,0-0.2-0.1-0.1-0.1c-0.1,0.3,0.1,0.5,0.2,0.9
						l-0.1-0.1c-0.1,0.2,0,0.4-0.1,0.6c0.1,0.1,0.1,0.1,0.2,0.1c-0.5,0.5,0.3,1-0.1,1.5c0-0.1-0.1-0.1-0.1-0.1l0.1,0.4
						c0.1,0,0.1-0.1,0.2-0.1c0.1,0.1,0.2,0.2,0.2,0.3c-0.1-0.2-0.2,0-0.3,0.1c0,0,0.1,0,0.1,0c-0.3,0.2,0.3,0,0.1,0.3l-0.1,0
						c0,0.1,0.1,0.2,0.1,0.3c-0.2,0-0.1-0.1-0.2-0.1c0,0.2,0.3,0.3,0.1,0.5c0-0.1,0-0.2-0.1-0.2c-0.2,0.2-0.1,0.2-0.2,0.3l0,0
						l-0.1,0.3l0.1-0.1c0.4,0.2,0.1,0.4,0.4,0.7c-0.3-0.3-0.2,0-0.3-0.1c-0.1,0.1-0.1,0.2-0.2,0.1c0.2,0.1-0.1,0.2,0.1,0.4
						c-0.1,0,0,0.1-0.2,0.1c0,0.2,0.1,0,0.2,0c0.2,0.3-0.3,0.6,0,1c0.1,0.3,0.3,0.4,0.4,0.7C15.2,55,15,54.8,15,54.8
						c-0.1,0.2-0.1,0.3,0,0.4c-0.1,0-0.1,0-0.2,0c0,0.1,0.2,0.1,0.1,0.2c-0.1,0-0.2-0.1-0.2-0.1c0.1,0.1,0.2,0.3,0.2,0.4
						c-0.1,0-0.2-0.1-0.2-0.1c0,0.2,0.1,0.4,0.3,0.5l0.1-0.1c0,0.1-0.1,0-0.2,0c-0.1-0.1,0.1-0.2,0.1-0.2l0,0.1
						c0.4-0.1-0.1-0.4,0-0.6l0.3,0.1l-0.2-0.2c0.1,0,0.2-0.1,0.2,0c0.1-0.2-0.1-0.1,0.1-0.3c0,0,0,0,0,0l-0.1-0.1
						c0.1,0,0.2,0,0.1,0.1c0.1-0.3-0.2-0.4,0-0.5l0,0c-0.1-0.4-0.2,0-0.4-0.3l0.5-0.2l-0.2,0c0,0,0-0.1,0.1-0.1
						c-0.1-0.1-0.1,0-0.2-0.1c0.2-0.2-0.1-0.5,0.2-0.5c-0.1-0.1-0.1,0.2-0.2,0c0.3-0.1-0.1-0.2,0.1-0.4c0.2,0.1,0.1,0.2,0.2,0
						c-0.3-0.1,0.1-0.3,0-0.5c-0.2,0-0.1-0.3-0.2-0.5c0.1,0,0.1-0.4,0.2-0.7l0,0c-0.2,0-0.2-0.3-0.2-0.4c0.1,0,0.2,0,0.3,0.1l0-0.2
						c-0.1,0-0.1-0.1-0.1-0.2l0.2,0c0-0.2-0.2-0.4-0.1-0.7c-0.2,0-0.4,0.2-0.5-0.1c0.1,0,0.2,0,0.3,0.1c0,0-0.1-0.1,0-0.1l0.1,0.1
						c0.1-0.1-0.1-0.1-0.1-0.2c0.1,0,0.1-0.1,0.2-0.1c0,0-0.1,0.1,0,0.1c0-0.1,0.1-0.2,0.2-0.3c-0.1,0-0.2,0-0.2-0.1
						c0-0.2,0.1-0.1,0.2-0.2c-0.1-0.1,0-0.2-0.2-0.2c0-0.1,0.1-0.1,0.1-0.1c-0.1-0.1,0-0.5-0.2-0.4l0,0c0,0,0,0,0,0c0,0,0,0,0,0v0
						c-0.2-0.4,0.1-0.7,0-1.1l0.1,0c-0.1-0.2,0-0.5-0.2-0.6c0-0.1,0.1-0.1,0.2-0.1c0-0.2-0.1-0.2,0-0.4c0.1,0.2,0.1-0.1,0.1,0.2
						c0.1-0.2,0.2-0.3,0-0.5c0.2,0.1,0.2-0.2,0.2-0.3l-0.1,0.1c0-0.1,0-0.2,0-0.3l0.2,0.1c0.3-0.4-0.4-0.8,0-1.1
						c-0.1-0.1-0.1,0.2-0.3,0.1c0-0.2,0.3-0.4,0.3-0.5c0.1-0.3-0.3-0.2-0.2-0.5c-0.1,0-0.3,0.1-0.3-0.1c0-0.2,0.3-0.2,0.4-0.1
						c0,0,0,0.1,0,0.1c0,0.1,0.1,0.1,0.1,0.1l-0.1,0c0.1-0.1,0.1-0.4,0.2-0.3c-0.1-0.1-0.1-0.1-0.2,0c0.1-0.3,0-0.4,0.1-0.6
						c0,0-0.1,0.1-0.1,0c0.1-0.4-0.1-0.2-0.2-0.4c0.1-0.1,0.3,0.1,0.2-0.2c0.1-0.2,0.2,0,0.3,0c-0.1-0.2,0.1-0.4,0.1-0.6l0.1,0.1
						c0-0.1,0-0.1,0-0.2L16,41.4c0-0.1,0-0.1,0.1-0.1c-0.1-0.1-0.2,0.1-0.4-0.1c0.1-0.1-0.1-0.3,0.1-0.3c-0.1,0.3,0.2,0,0.2,0.2
						c0,0,0-0.1,0-0.2c0,0,0,0,0.1,0c0.2-0.3-0.2-0.1-0.2-0.4c0.1,0,0.2-0.1,0.2-0.1c0,0.1-0.2,0.1-0.3-0.1c0.1-0.2-0.1-0.2-0.1-0.3
						l0,0.1c-0.1,0-0.1-0.1-0.1-0.3c0.1,0,0.1,0.1,0.1,0.1c-0.2-0.1,0.2-0.3,0.1-0.5c0.1-0.1,0.2,0,0.3-0.1c-0.1-0.2,0.2-0.3,0-0.5
						c-0.1,0.1-0.1,0.1-0.3-0.1l0.1,0.4l-0.2-0.3c0,0.1,0.1,0.3,0.1,0.3c-0.1-0.1-0.1-0.1-0.2-0.1c0.2-0.2-0.1-0.3,0-0.5l0.4,0
						c0.2-0.3-0.2-0.5-0.1-0.9l-0.1,0.1c-0.1-0.1,0-0.2-0.1-0.4c0.1,0,0.2-0.1,0.2-0.1c-0.1,0,0-0.3-0.2-0.3l0.2-0.2
						c0.1-0.3-0.3-0.3-0.3-0.6c0.1,0.1,0.2,0,0.3,0.2c0-0.1,0-0.2-0.1-0.2c0.1-0.1-0.2-0.3,0-0.4c-0.1,0-0.2-0.1-0.2-0.2
						c0,0,0.1,0,0.1,0c-0.1,0-0.1-0.2-0.2-0.1c0.4-0.3,0-0.8,0.3-1.1c0-0.2-0.1-0.5-0.1-0.7c0,0,0.1,0,0,0c0.1-0.3-0.4-0.2-0.2-0.5
						c0.2-0.2,0.1,0.2,0.2,0.1c0.4,0-0.1-0.4,0.2-0.6l0,0c0.1-0.2-0.2-0.4-0.1-0.6c0,0,0,0,0.1,0c-0.2-0.2-0.3-0.5-0.3-0.8
						c0.2,0.1,0.1,0.1,0.2,0.1c0-0.1-0.3,0-0.3-0.2c0.1-0.1,0.2-0.2,0.3-0.3l0,0.2c0.2-0.1,0-0.3,0-0.4l0.1,0c0-0.3-0.3-0.3-0.3-0.7
						l-0.1,0c-0.2-0.2,0.1-0.2,0-0.3l0.2-0.1c-0.1-0.1-0.2-0.4-0.3-0.7c0.2,0.1,0.3,0.4,0.4,0.5c0-0.1,0-0.4-0.1-0.5
						c0,0,0.1,0.1,0,0.2c-0.2-0.1-0.3-0.3-0.3-0.6c0.5,0,0.1-0.6,0.5-0.8c-0.2-0.4,0.1-0.9,0-1.4c-0.4,0.2,0-0.1-0.4-0.1
						c0-0.1,0-0.2,0-0.2l0.2-0.4c0.1-0.1,0.1,0.1,0.2,0.1c0-0.3,0.2-0.1,0.3-0.3c-0.1,0-0.2-0.1-0.1-0.2L15.9,26
						c-0.2-0.4,0.3-0.3,0.1-0.7l0.1,0.1c-0.1-0.2,0-0.7-0.3-0.9c0,0,0.1-0.1,0.2,0c0-0.4-0.3-1-0.1-1.3l0.1,0c0-0.1-0.2-0.1-0.1-0.2
						c0,0,0.1,0,0.1,0c0,0-0.2-0.2-0.1-0.3l0.1,0.1c0.1-0.4-0.3-0.7-0.3-1c0.3,0,0.4-0.3,0.4-0.5l0,0c0-0.5-0.2-0.9-0.3-1.3
						c0.3-0.3,0.1-1,0.3-1.4c0,0.1-0.2,0-0.2-0.1c0.1-0.1-0.2-0.3,0.1-0.3l0,0c0.2-0.1,0.2-0.3,0.2-0.5l-0.3,0
						c0.5-0.5-0.2-1.2,0.3-1.4c-0.1-0.1-0.1-0.2-0.2-0.4l0.2,0c0-0.3,0.1-0.5,0-0.8l0.1,0.1c0-0.2-0.5-0.3-0.5-0.5l0.3-0.1
						c0-0.4,0.2-0.7,0-1.1c0,0,0.1,0,0.1,0.1c0-0.2,0.2-0.7-0.2-0.6c0.2,0,0-0.4-0.1-0.6l0.2,0c-0.2-0.2-0.3-0.2-0.3-0.4
						c0-0.1,0.1,0,0.1,0c0.1-0.2-0.2-0.1-0.1-0.4l0.1,0.1c0-0.2,0-0.2-0.2-0.3c-0.1-0.1,0-0.4,0.2-0.4c-0.1,0-0.2-0.1-0.2-0.2
						c0.1,0,0.1,0,0.1,0c0.1-0.3-0.2-0.5,0-0.7c0.1,0,0.1,0,0.1,0c0,0.3,0,0.5,0,0.4c0.2,0,0.2-0.2,0.4,0c-0.1-0.2-0.4-0.4-0.3-0.6
						c0,0,0,0,0.1,0l0,0c0,0,0-0.1,0-0.1c0-0.1,0-0.1,0-0.2c0.1,0,0.1-0.2,0.1-0.3c-0.2,0-0.1-0.1-0.3,0c0,0,0,0,0,0.1c0,0,0,0,0,0
						c0,0,0,0,0,0c0,0.1,0,0.2,0,0.3c-0.1-0.1-0.2-0.2-0.1-0.3c-0.1-0.1-0.2-0.1-0.3-0.1c0.2-0.1,0.4-0.4,0.5-0.4
						c-0.1-0.3-0.1-0.7-0.4-0.9c0-0.1,0.1-0.1,0.1-0.1c0,0.1,0,0.1,0.1,0.1c-0.1-0.2,0-0.5-0.3-0.6c0.1-0.2,0.2,0.1,0.2-0.2l0.1,0
						c0.4-0.6-0.6-1-0.1-1.7c0,0,0,0.1-0.1,0.1c0.2-0.8-0.2-1.6,0.1-2.3c0.1-0.2-0.1-0.2-0.2-0.4l0.2,0l-0.2-0.2
						c-0.2-0.3,0.5-0.6,0.2-1l-0.1,0.1c0-0.1-0.1-0.5,0.1-0.4c0,0-0.1,0-0.1-0.1l0.1,0l-0.2-0.4c0.1-0.3,0.4,0,0.4-0.4
						c0-0.1-0.3-0.4-0.4-0.4c0,0.1-0.1,0.2-0.2,0.2L15.3,0c-0.3,0-0.6-0.1-0.8,0.2l0.2,0.2l-0.1,0.1l0-0.2c-0.1,0.1,0,0.2,0.1,0.3
						c-0.1,0-0.1,0.1-0.2,0.1l0.3,0.2c-0.1,0-0.2-0.1-0.3,0.1c0.1,0.1,0.3-0.1,0.3,0.1c-0.1,0.1-0.2,0.1-0.1,0.2
						c-0.1,0-0.1,0-0.2-0.1c0.1,0.1,0,0.3,0.2,0.4c-0.2,0.1,0,0.4-0.2,0.4c0.1,0,0.2,0.2,0.2,0.3c-0.3-0.2,0,0.4-0.4,0.4
						c0.3,0.1,0.1,0.5,0.3,0.8c0,0-0.1,0-0.1-0.1c0,0.1-0.1,0.2-0.2,0.3c0.2,0,0.3,0.2,0.4,0.4c-0.2,0.2-0.3-0.1-0.5-0.1
						c0.2,0,0.2,0.3,0.4,0.2c-0.1,0.1-0.1,0.1-0.3,0.2c0.3,0,0.1,0.1,0.2,0.2c-0.1,0.2-0.3,0.1-0.2,0.3C14.3,5,14.2,4.8,14.2,4.8z
						 M14.8,9.9C14.8,9.9,14.8,9.9,14.8,9.9c0,0,0-0.1,0-0.1C14.7,9.8,14.8,9.9,14.8,9.9z M14.8,10.4c0-0.1,0-0.1,0-0.2
						c0.1,0,0.1,0,0.1,0C14.8,10.2,14.8,10.3,14.8,10.4z M16,9.4c0,0.1,0,0.1,0,0.1C15.9,9.5,15.9,9.5,16,9.4
						C15.9,9.4,15.9,9.4,16,9.4C15.9,9.4,15.9,9.4,16,9.4z"/>
					<path fill="#FFFFFF" d="M15.7,9.3C15.7,9.3,15.7,9.3,15.7,9.3C15.7,9.3,15.7,9.3,15.7,9.3C15.7,9.3,15.7,9.4,15.7,9.3
						C15.7,9.4,15.7,9.3,15.7,9.3z"/>
					<path fill="#FFFFFF" d="M15.5,48.4L15.5,48.4C15.5,48.4,15.5,48.4,15.5,48.4C15.5,48.4,15.5,48.4,15.5,48.4z"/>
					<polygon fill="#FFFFFF" points="14.4,16.3 14.5,16.3 14.4,16.3 					"/>
					<path fill="#FFFFFF" d="M14.9,50.8C14.9,50.8,14.9,50.8,14.9,50.8C14.9,50.8,14.9,50.8,14.9,50.8z"/>
					<path fill="#FFFFFF" d="M14.8,51.8L14.8,52C14.8,51.9,14.8,51.9,14.8,51.8z"/>
					<path fill="#FFFFFF" d="M14.8,52.6C14.8,52.6,14.8,52.6,14.8,52.6C14.8,52.6,14.8,52.6,14.8,52.6L14.8,52.6z"/>
					<path fill="#FFFFFF" d="M14.6,40.1C14.6,40.1,14.6,40.1,14.6,40.1C14.5,40,14.5,40,14.6,40.1z"/>
					<path fill="#FFFFFF" d="M15,43.8c0,0-0.1-0.1-0.1-0.1C14.9,43.8,14.9,43.8,15,43.8z"/>
					<path fill="#FFFFFF" d="M14.3,35.9C14.3,35.9,14.3,35.9,14.3,35.9C14.3,35.9,14.3,35.9,14.3,35.9L14.3,35.9z"/>
					<path fill="#FFFFFF" d="M14.9,43.5c0,0.1,0,0.1,0,0.2C14.9,43.6,14.9,43.6,14.9,43.5z"/>
					<path fill="#FFFFFF" d="M14.7,56L14.7,56C14.7,56.1,14.7,56.1,14.7,56L14.7,56z"/>
					<path fill="#FFFFFF" d="M14.7,56.1L14.7,56.1C14.7,56.1,14.7,56.1,14.7,56.1z"/>
					<path fill="#FFFFFF" d="M14.8,56.2L14.8,56.2C14.7,56.2,14.7,56.2,14.8,56.2z"/>
					<path fill="#FFFFFF" d="M14.8,55L14.8,55C14.7,55,14.7,55,14.8,55z"/>
					<path fill="#FFFFFF" d="M14.7,54.7c0,0.1-0.1,0.2-0.1,0.3l0.1,0C14.6,54.9,14.8,54.8,14.7,54.7z"/>
					<path fill="#FFFFFF" d="M15.5,53.4l-0.1,0.3c0.1,0,0.2-0.1,0.2,0C15.8,53.3,15.5,53.7,15.5,53.4z"/>
					<path fill="#FFFFFF" d="M15.6,52.5c0,0.1,0.1,0,0.1,0C15.7,52.4,15.7,52.4,15.6,52.5z"/>
					<path fill="#FFFFFF" d="M15.6,46.6l0.2,0C15.8,46.5,15.7,46.6,15.6,46.6z"/>
					<polygon fill="#FFFFFF" points="14.8,45.4 14.7,45.5 14.8,45.6 					"/>
					<polygon fill="#FFFFFF" points="15.9,44.8 16,44.8 15.9,44.6 					"/>
					<path fill="#FFFFFF" d="M15.9,34.7l-0.2,0C15.7,34.9,15.9,34.9,15.9,34.7z"/>
					<path fill="#FFFFFF" d="M15.7,30.4c0.1,0,0.2-0.2,0.1-0.2C15.7,30.3,15.7,30.4,15.7,30.4z"/>
					<polygon fill="#FFFFFF" points="16,17.5 16.1,17.6 16,17.4 					"/>
				</g>
			</g>
		</g>
		<g>
			<g>
				<g>
					<path fill="#FFFFFF" d="M0.3,35.9c-0.1,0-0.1,0.1-0.1,0.1l0.2-0.1L0.3,35.9z"/>
					<path fill="#FFFFFF" d="M0.4,36.5c0.1,0,0.3,0,0.5-0.2c-0.2,0-0.2,0-0.4,0c-0.1-0.1,0-0.2,0-0.2c-0.1,0,0-0.1-0.2-0.1
						c-0.1,0.2,0,0.3,0.2,0.3C0.5,36.5,0.4,36.5,0.4,36.5z"/>
					<path fill="#FFFFFF" d="M4.7,43.3L4.7,43.3C4.7,43.3,4.7,43.3,4.7,43.3z"/>
					<path fill="#FFFFFF" d="M7.4,47.5C7.3,47.5,7.3,47.5,7.4,47.5C7.3,47.5,7.4,47.5,7.4,47.5z"/>
					<path fill="#FFFFFF" d="M7.6,48.3C7.6,48.3,7.6,48.3,7.6,48.3C7.6,48.3,7.6,48.3,7.6,48.3z"/>
					<path fill="#FFFFFF" d="M4.7,43.3l0,0.1C4.8,43.4,4.7,43.4,4.7,43.3z"/>
					<path fill="#FFFFFF" d="M1.4,37.1C1.4,37.1,1.4,37.1,1.4,37.1L1.4,37.1L1.4,37.1z"/>
					<path fill="#FFFFFF" d="M3.3,41.6L3.3,41.6c0,0-0.1,0-0.1,0L3.3,41.6z"/>
					<path fill="#FFFFFF" d="M2.4,40.2c0,0,0.2-0.1,0.2-0.1C2.5,40.1,2.5,40.1,2.4,40.2C2.4,40.1,2.4,40.2,2.4,40.2z"/>
					<path fill="#FFFFFF" d="M1.1,37.9L1.1,37.9C1,37.8,1,37.9,1.1,37.9z"/>
					<path fill="#FFFFFF" d="M4,42.6C4,42.6,4,42.6,4,42.6C4,42.6,4,42.6,4,42.6z"/>
					<path fill="#FFFFFF" d="M29.1,38.9L29.1,38.9C29.1,39,29.1,38.9,29.1,38.9z"/>
					<polygon fill="#FFFFFF" points="31.2,38.5 31.2,38.5 31.2,38.6 					"/>
					<path fill="#FFFFFF" d="M8.3,49.8L8.3,49.8C8.2,49.7,8.2,49.7,8.3,49.8z"/>
					<path fill="#FFFFFF" d="M16.4,60.2c-0.2,0.1,0-0.6-0.2-0.4C16.2,59.8,16.2,60.4,16.4,60.2z"/>
					<path fill="#FFFFFF" d="M1.4,37.2C1.4,37.2,1.4,37.2,1.4,37.2C1.4,37.2,1.4,37.2,1.4,37.2z"/>
					<path fill="#FFFFFF" d="M16.2,59.8L16.2,59.8L16.2,59.8C16.1,59.8,16.1,59.8,16.2,59.8z"/>
					<path fill="#FFFFFF" d="M10.2,52.8C10.2,52.7,10.3,52.7,10.2,52.8C10.2,52.7,10.2,52.7,10.2,52.8z"/>
					<path fill="#FFFFFF" d="M9,50.4L9,50.4C9.1,50.4,9.1,50.4,9,50.4z"/>
					<path fill="#FFFFFF" d="M11.1,53.8C11.1,53.9,11.1,53.9,11.1,53.8C11.2,53.9,11.2,53.9,11.1,53.8
						C11.2,53.9,11.1,53.9,11.1,53.8z"/>
					<polygon fill="#FFFFFF" points="11.9,55.1 11.9,55 11.8,55 					"/>
					<path fill="#FFFFFF" d="M25.7,41.9c0.1,0,0.1,0,0.2,0.1C25.8,41.9,25.9,41.7,25.7,41.9z"/>
					<path fill="#FFFFFF" d="M1.3,37.2C1.4,37.2,1.4,37.2,1.3,37.2L1.3,37.2C1.4,37.2,1.3,37.2,1.3,37.2z"/>
					<path fill="#FFFFFF" d="M12.3,53.2l0.1,0.2C12.4,53.3,12.4,53.2,12.3,53.2z"/>
					<path fill="#FFFFFF" d="M19.4,50.3L19.4,50.3C19.4,50.2,19.4,50.3,19.4,50.3z"/>
					<path fill="#FFFFFF" d="M12.8,54c0,0.1,0,0.1,0,0.2c0,0,0,0,0.1,0L12.8,54z"/>
					<path fill="#FFFFFF" d="M25.9,41.9L25.9,41.9L25.9,41.9z"/>
					<path fill="#FFFFFF" d="M26.8,40.6c-0.2,0.1,0.1,0.2,0.1,0.4c-0.2,0.2-0.2,0-0.3-0.1c-0.1,0.2,0,0.4-0.1,0.5c0,0-0.1,0-0.1-0.1
						c0,0.3-0.4,0.3-0.4,0.7c0,0,0,0-0.1,0c0.1,0.1,0.2,0.1,0.2,0.2c-0.1,0.1,0,0.2-0.2,0.1c0,0,0-0.1,0-0.1l0,0.1
						c-0.2-0.1,0.1-0.2-0.1-0.3c-0.1,0.2-0.1,0.5-0.3,0.5c-0.2-0.1,0.2-0.3-0.1-0.3l0.2-0.1c-0.4-0.1,0.1-0.1-0.2-0.2
						c-0.3,0.2-0.2,0.3-0.5,0.5c0,0.1,0.1,0.1,0.2,0.2c-0.2,0.5-0.6-0.1-0.7,0.3c0,0.2,0.2,0.4-0.1,0.4l-0.1-0.2
						c-0.2,0.2,0.1,0.4-0.2,0.5c0-0.1,0.1-0.2,0.1-0.2c-0.3,0,0,0.2-0.1,0.3l-0.2-0.1c-0.2,0.3-0.3,0.6-0.5,0.9c0-0.1,0-0.1-0.1-0.1
						c-0.2,0.4-0.7,0.7-1,1l0,0.2c0,0-0.1,0-0.1,0c-0.2,0.1,0.1,0.1,0.1,0.2c0,0.1-0.2,0-0.2,0c-0.1,0.3-0.3,0.9-0.6,1l0-0.1
						c-0.2,0.2,0.2,0.4-0.1,0.5l0-0.1c-0.4,0.4-0.6,1-1,1.2c0.2,0.2-0.4,0.4-0.1,0.6c-0.3,0.2-0.3,0.1-0.6,0.4
						c-0.1,0.1,0.1,0.3,0.1,0.4l-0.2-0.1l0.1,0.3l-0.2,0l0,0.1c0,0,0.1-0.1,0.2,0c0,0.2-0.4,0.4-0.4,0.3L19,51.1
						c-0.1,0,0-0.1-0.1-0.2c0.1,0.3-0.2,0-0.1,0.2c0.1,0,0.1,0.1,0.1,0.1c-0.2,0.1-0.3,0.3-0.3,0.5l-0.1-0.1
						c-0.2,0.3-0.3,0.7-0.5,1.1c0.1-0.1,0.3,0,0.3,0.1l-0.2,0c0.1,0.1,0.1-0.1,0.2,0.1c-0.1,0.1-0.3,0-0.3-0.1l0,0.2
						c-0.1,0-0.1-0.1-0.1-0.1c0.1,0.1-0.3,0.2-0.2,0.4l-0.1,0c-0.2,0.4-0.2,0.6-0.3,0.9c0.2,0.1,0.1,0.2,0.2,0.3
						c-0.2,0.2-0.4,0.4-0.5,0.7c0,0.2,0.1,0.1,0.2,0.2c-0.2-0.1-0.3,0.2-0.3,0c-0.1,0.3-0.2,0.4-0.2,0.9c0.1,0,0.1-0.1,0.2,0
						c0,0.1-0.1,0.1-0.2,0.1l0,0c0,0.6-0.9,0.9-0.7,1.4l0,0l0,0.4c-0.1,0.2-0.1-0.2-0.2-0.1c0,0.1,0,0.2,0,0.3c0,0.1,0,0.1,0,0.1
						c0,0-0.1,0,0,0.2c-0.2-0.2-0.1-0.2-0.2-0.1c0,0.1,0,0.3-0.1-0.1l0,0.3c0,0.2,0-0.2,0-0.2c0,0.2,0,0.2,0,0.4
						c-0.1,0-0.2-0.3-0.2-0.5c0-0.1,0-0.2,0-0.3c0-0.1,0-0.1-0.1-0.4c-0.1-0.3-0.6,0.1-0.5-0.4l0.2,0c-0.5-0.4-0.6-1.2-1.1-1.6
						c0.1,0,0.1,0,0.1,0c0.1-0.2-0.2-0.4-0.3-0.4c0-0.1,0.1-0.1,0.1-0.2c0-0.2-0.3-0.2-0.2-0.3c0,0,0.1,0,0.1,0
						c-0.1,0-0.2-0.4-0.3-0.2c0-0.2-0.3-0.4-0.3-0.6c-0.2,0-0.1-0.4-0.4-0.3c0.2-0.1,0-0.5-0.2-0.5c0.1,0,0-0.2,0.1-0.2
						C12.2,53,12.1,52.9,12,53c0.1-0.4-0.6-0.4-0.3-0.8c-0.4-0.4-0.7-0.7-1-1.1c0.2-0.1,0.3,0.4,0.5,0.2c-0.3-0.3-0.7-0.4-0.8-0.8
						c0-0.1,0.1,0,0.2,0c-0.3-0.3-0.4-0.7-0.7-1c0,0,0.1,0,0.1,0c0-0.1-0.1-0.2-0.2-0.1l0.1,0c-0.1,0.2-0.5-0.1-0.6,0
						c0.4-0.1-0.1-0.4,0.4-0.4c0,0-0.1,0-0.2,0c0-0.1,0-0.1,0.1-0.1c-0.2-0.2-0.3,0-0.4-0.2c0.1,0,0.1,0,0.2,0
						c-0.2,0-0.3-0.1-0.4-0.3c0,0,0.1-0.1,0.1,0c-0.2-0.3-0.6-0.3-0.7-0.7c0.3,0,0-0.2,0.2-0.3l-0.2-0.1l0,0.1
						c-0.1-0.2-0.3-0.2-0.3-0.4l0.2,0.1L8,46.9l0,0.2c-0.2-0.1-0.2,0.2-0.3-0.1c0,0-0.1-0.2,0-0.3l0,0c-0.1,0-0.2-0.1-0.3-0.2
						c0-0.1,0.2-0.1,0.3-0.2c-0.2,0-0.3-0.3-0.5-0.3c0.1,0,0.2-0.1,0.2-0.1l-0.2,0c0-0.1,0-0.1,0.1-0.2c-0.1-0.2-0.2,0.2-0.3-0.1
						c0,0,0,0,0.1,0c-0.1-0.3-0.4-0.4-0.5-0.7c0.1-0.2,0.2,0.2,0.3,0c-0.3-0.3-0.7-0.5-0.9-0.9l0,0.1c-0.3,0.1,0-0.3-0.3-0.4
						c0,0,0.2,0,0.1,0c-0.1-0.3-0.4-0.4-0.7-0.7l0.1,0c0-0.2-0.2-0.4-0.3-0.5c-0.1,0-0.1-0.1-0.2,0c0.1-0.7-0.8-0.7-0.7-1.3
						c0,0,0.1,0.1,0.1,0L4,41.1c-0.1,0.1,0,0.1-0.1,0.2c-0.1,0-0.2,0-0.3-0.1c0.2,0.1,0.2-0.1,0.2-0.2c0,0-0.1,0-0.1,0.1
						c0.1-0.3-0.3,0.1-0.3-0.2l0.1,0c-0.1-0.1-0.2-0.1-0.3-0.2c0.1-0.1,0.1,0,0.2,0c-0.1-0.1-0.4-0.1-0.4-0.3c0.1,0,0.1,0.1,0.2,0.1
						c0.1-0.2,0-0.2,0-0.3l0,0l-0.1-0.3l0,0.1c-0.5,0.1-0.3-0.3-0.7-0.3c0.4,0.1,0.2-0.1,0.3-0.1c0-0.1,0-0.2,0.1-0.2
						c-0.2,0,0-0.2-0.3-0.3c0,0-0.1-0.1,0.1-0.2c-0.1-0.1-0.1,0.1-0.1,0.1c-0.3-0.1-0.1-0.6-0.6-0.8c-0.3-0.2-0.5-0.1-0.7-0.3
						c0-0.1,0.2-0.1,0.2-0.1c0-0.2-0.1-0.3-0.2-0.4c0.1,0,0.1-0.1,0.1-0.1c-0.1-0.1-0.2,0.1-0.2-0.1c0.1,0,0.2-0.1,0.3,0
						C1.2,37,1,37,0.9,36.9c0.1-0.1,0.2,0,0.3,0c-0.1-0.1-0.3-0.3-0.5-0.2l0,0.1c0,0,0.1-0.1,0.1-0.1c0.2,0,0.1,0.2,0,0.2l-0.1-0.1
						c-0.2,0.3,0.3,0.3,0.4,0.5l-0.3,0.1l0.3,0.1c0,0.1-0.1,0.2-0.2,0.1c0,0.2,0.2,0.1,0.1,0.2c0,0,0,0,0,0l0.1,0.1
						c-0.1,0-0.1,0.1-0.2,0c0,0.3,0.4,0.2,0.3,0.4l0,0c0.3,0.2,0.2-0.1,0.5,0l-0.3,0.4l0.2-0.1c0,0,0,0.1,0,0.1
						c0.2,0,0.1-0.1,0.2-0.1c0,0.2,0.4,0.4,0.1,0.6c0.2,0,0-0.2,0.2-0.1c-0.2,0.2,0.2,0.2,0.1,0.4c-0.2,0.1-0.2-0.1-0.2,0.1
						c0.3-0.1,0.1,0.3,0.3,0.4c0.2-0.1,0.3,0.2,0.4,0.3c-0.1,0,0.2,0.4,0.2,0.7l0,0c0.2-0.1,0.3,0.1,0.4,0.2c-0.1,0.1-0.2,0.1-0.3,0
						l0.1,0.1c0.1,0,0.1,0,0.2,0.1l-0.2,0.1c0.1,0.2,0.4,0.2,0.5,0.5c0.1-0.1,0.2-0.4,0.5-0.3C4.3,42,4.1,42.1,4.1,42
						c0,0,0.1,0,0.1,0.1l-0.2,0c0,0.1,0.1,0,0.2,0.1c-0.1,0.1,0,0.1-0.1,0.2c0,0,0-0.1-0.1-0.1c0,0.1,0.1,0.3,0,0.3
						c0.1,0,0.1-0.1,0.2,0c0.1,0.2-0.1,0.1-0.1,0.3c0.1,0,0.1,0.2,0.3,0.1c0,0.1,0,0.1-0.1,0.2c0.1,0,0.3,0.4,0.4,0.2l0,0l0,0l0,0
						l0,0c0.3,0.2,0.3,0.7,0.6,0.9l-0.1,0c0.2,0.1,0.3,0.4,0.5,0.4c0,0.1,0,0.2-0.1,0.2c0.1,0.1,0.2,0.1,0.2,0.3
						c-0.2-0.1,0,0.1-0.2-0.1c0.1,0.2,0,0.3,0.3,0.4c-0.2,0-0.1,0.2,0,0.3l0-0.2c0.1,0.1,0.1,0.2,0.2,0.3L6,45.8
						c0,0.5,0.8,0.4,0.6,0.9c0.2,0,0-0.2,0.2-0.3c0.1,0.2-0.1,0.5,0,0.6c0,0.3,0.4,0,0.5,0.3c0-0.1,0.2-0.2,0.4-0.1
						c0.1,0.2-0.1,0.4-0.2,0.3c0,0,0-0.1,0-0.1c-0.1,0-0.1-0.1-0.2,0l0.1,0c0,0.1,0.1,0.3,0,0.4c0.1,0.1,0.1,0,0.1-0.1
						c0,0.3,0.2,0.3,0.3,0.6c0-0.1,0.1-0.1,0.1-0.1c0.1,0.4,0.2,0.1,0.4,0.3c0,0.2-0.3,0.1,0,0.3c0,0.2-0.1,0.1-0.2,0.1
						C8,48.9,8,49.2,8,49.4l-0.1-0.1C8,49.3,8,49.4,8,49.4l0.1-0.1c0,0.1,0,0.1,0,0.2c0.1,0,0.2-0.2,0.4-0.1c0,0.1,0.2,0.2,0.1,0.3
						c-0.1-0.3-0.1,0.1-0.3-0.1c0,0,0.1,0.1,0.1,0.2c0,0,0,0-0.1,0c0,0.3,0.3,0,0.4,0.3c-0.1,0-0.1,0.2-0.1,0.2
						c-0.1-0.1,0.1-0.1,0.3-0.1c0,0.2,0.2,0.1,0.2,0.2l0-0.1c0.1,0,0.2,0.1,0.3,0.2c-0.1,0.1-0.1-0.1-0.1,0c0.2,0,0,0.4,0.2,0.5
						c0,0.1-0.2,0.1-0.2,0.2c0.2,0.1,0,0.3,0.2,0.4c0.1-0.1,0.1-0.1,0.3-0.1l-0.3-0.3l0.3,0.1c-0.1-0.1-0.2-0.2-0.2-0.2
						c0.2,0,0.1,0.1,0.2-0.1c-0.1,0.3,0.3,0.2,0.3,0.5l-0.3,0.2c0,0.3,0.4,0.3,0.5,0.7l0-0.1c0.1,0,0.1,0.2,0.2,0.3
						c-0.1,0.1-0.1,0.1-0.1,0.2c0.1-0.1,0.1,0.2,0.4,0.1l-0.1,0.2c0.1,0.3,0.5,0.1,0.6,0.4c-0.2,0-0.2,0.1-0.3,0
						c0,0.1,0.1,0.2,0.1,0.1c0,0.1,0.3,0.1,0.2,0.3c0.1,0,0.2,0,0.2,0.1c0,0-0.1,0-0.1,0c0.1,0,0.2,0.1,0.2,0
						c-0.2,0.4,0.4,0.7,0.3,1.1c0.1,0.2,0.3,0.4,0.4,0.5c0,0-0.1,0-0.1,0c0,0.3,0.4,0,0.4,0.3c-0.1,0.2-0.2-0.1-0.2,0
						c-0.3,0.2,0.2,0.3,0.1,0.6l0,0c0,0.2,0.3,0.3,0.4,0.5c0,0,0,0-0.1,0c0.3,0.1,0.5,0.3,0.6,0.5c-0.2,0-0.1-0.1-0.2,0.1
						c0.1,0.1,0.2-0.2,0.4,0c0,0.1,0,0.3-0.2,0.4l-0.1-0.2c-0.1,0.2,0.1,0.2,0.2,0.3l-0.1,0c0.2,0.3,0.4,0.1,0.5,0.5l0-0.1
						c0.3,0.1,0,0.3,0.2,0.3l-0.1,0.2c0.1,0.1,0.4,0.3,0.5,0.4c-0.2,0.1-0.4-0.1-0.5-0.2c0.1,0.2,0.3,0.5,0.4,0.5c0,0-0.1,0-0.1-0.1
						c0.2,0,0.3,0,0.5,0.3c-0.1,0.3,0,0.6,0.1,0.8c0.1,0.3,0.2,0.5,0.3,1c0.1,0.1,0.2,0.2,0.2,0.3c0.1-0.1,0.1-0.3,0.2-0.4
						c0.2-0.3,0.3-0.5,0.5-0.9c-0.3-0.2,0.1-0.2-0.1-0.7c0.1-0.2,0.1-0.2,0.1-0.2c0,0,0.4-0.2,0.4-0.3c0.1,0,0,0.2,0.1,0.3
						c0.2-0.4,0.2,0,0.4-0.3c-0.1,0-0.1-0.3,0.1-0.5c0,0-0.3,0.3-0.3,0.2c0-0.2,0.1-0.3,0.1-0.3c0,0,0.1-0.1,0.1-0.1
						c0.1,0,0.2-0.1,0.2-0.3l0.1,0.2c0-0.2,0.3-0.6,0.1-0.9c0.1,0,0.2,0,0.2,0.1c0.2-0.4,0.1-1,0.4-1.3l0.1,0.1c0-0.1-0.1-0.2,0-0.3
						c0,0,0.1,0.1,0.1,0c0-0.1-0.1-0.3,0-0.3l0.1,0.1c0.3-0.3,0-0.7,0.1-1.1c0.2,0.1,0.5-0.2,0.6-0.3l0,0c0.2-0.4,0.1-0.9,0.2-1.3
						c0.4-0.1,0.5-0.8,0.9-1.2c-0.1,0-0.2-0.1-0.2-0.2c0.1-0.1,0-0.3,0.2-0.2l0,0c0.3,0,0.3-0.2,0.4-0.3l-0.3-0.2
						c0.6-0.2,0.4-1.1,0.9-1.1c0-0.1,0-0.3,0-0.4l0.1,0.1c0.2-0.2,0.3-0.4,0.4-0.7l0.1,0.1c0.1-0.2-0.3-0.5-0.2-0.7l0.3,0.1
						c0.2-0.3,0.6-0.5,0.6-0.9c0,0,0.1,0.1,0.1,0.1c0.1-0.1,0.5-0.4,0.2-0.6c0.2,0.1,0.2-0.3,0.3-0.5l0.1,0.1
						c-0.1-0.3-0.1-0.3,0-0.5c0.1,0,0.1,0,0.1,0.1c0.2-0.1,0-0.2,0.2-0.3l0,0.1c0.1-0.1,0.1-0.2,0-0.3c0-0.1,0.2-0.3,0.4-0.2
						c-0.1-0.1-0.1-0.2,0-0.3c0.1,0,0.1,0.1,0.1,0.1c0.3-0.2,0.1-0.5,0.4-0.5c0,0,0.1,0,0.1,0c-0.2,0.2-0.3,0.3-0.3,0.3
						c0.1,0.1,0.3,0,0.3,0.2c0-0.2,0-0.6,0.2-0.7c0,0,0,0,0.1,0l0,0c0,0,0.1-0.1,0.1-0.1c0.1,0,0.1,0,0.1-0.1
						c0.1,0.1,0.2-0.1,0.3-0.2c-0.1-0.1,0-0.2-0.2-0.2c0,0,0,0,0,0.1c0,0,0,0,0,0l0,0c0,0.1-0.1,0.1-0.2,0.2c0-0.1,0-0.2,0.1-0.2
						c0-0.1-0.1-0.2-0.1-0.3c0.3,0.1,0.6,0,0.7,0c0.1-0.3,0.4-0.6,0.3-0.9c0-0.1,0.1,0,0.2,0c0,0.1-0.1,0.1,0,0.1
						c0.1-0.2,0.3-0.4,0.2-0.6c0.2-0.1,0.1,0.2,0.2,0l0,0.1c0.7-0.1,0.3-1.1,1.1-1.2c-0.1,0-0.1,0-0.1,0c0.7-0.3,1.1-1.2,1.9-1.4
						c0.2-0.1,0.1-0.2,0.2-0.4l0.2,0.1l0-0.3c0.1-0.3,0.7,0,0.8-0.4L30,39.6c0.1-0.1,0.3-0.3,0.4-0.2c0,0,0-0.1,0-0.1l0.1,0.1
						l0.2-0.3c0.3-0.1,0.2,0.3,0.5,0.1c0.1-0.1,0.2-0.5,0.1-0.5c-0.1,0-0.2,0-0.2,0l0.1-0.1C31,38.3,31,38,30.6,38l-0.1,0.3
						l-0.1-0.1l0.2-0.1c-0.2,0-0.2,0.1-0.2,0.2c-0.1,0-0.1-0.1-0.2-0.1l0,0.4c-0.1-0.1,0-0.2-0.2-0.2c0,0.2,0.2,0.1,0.1,0.3
						c-0.2,0-0.2-0.1-0.2,0c-0.1,0-0.1-0.1,0-0.2c0,0.1-0.2,0.2-0.2,0.4c-0.2-0.1-0.3,0.3-0.4,0c0,0.1,0,0.3-0.1,0.4
						c0-0.4-0.3,0.2-0.5-0.1c0.1,0.3-0.3,0.4-0.4,0.7c0,0,0-0.1,0-0.1c-0.1,0.1-0.2,0-0.3,0c0.1,0.2,0,0.4,0,0.6
						c-0.3-0.1-0.1-0.3-0.3-0.4c0.1,0.1-0.1,0.3,0,0.4c-0.2,0-0.1,0-0.3-0.1c0.2,0.2-0.1,0.1,0,0.3c-0.2,0-0.2-0.2-0.3,0
						C26.7,40.8,26.8,40.6,26.8,40.6z M23.4,44.6L23.4,44.6C23.5,44.6,23.5,44.6,23.4,44.6C23.5,44.6,23.5,44.6,23.4,44.6z M23.2,45
						c0,0,0.1-0.1,0.1-0.1c0.1,0,0.1,0.1,0.1,0.1C23.3,44.9,23.2,45,23.2,45z M24.7,45.1C24.6,45.1,24.6,45.1,24.7,45.1
						C24.6,45.1,24.6,45.1,24.7,45.1L24.7,45.1C24.6,45,24.7,45,24.7,45.1z"/>
					<path fill="#FFFFFF" d="M24.6,44.8C24.6,44.8,24.6,44.8,24.6,44.8C24.6,44.8,24.5,44.8,24.6,44.8L24.6,44.8L24.6,44.8z"/>
					<path fill="#FFFFFF" d="M4.7,43.2L4.7,43.2C4.7,43.2,4.7,43.2,4.7,43.2C4.7,43.2,4.7,43.2,4.7,43.2z"/>
					<polygon fill="#FFFFFF" points="19.5,49.8 19.6,49.8 19.6,49.8 					"/>
					<path fill="#FFFFFF" d="M3.9,40.9C3.9,40.9,3.9,40.9,3.9,40.9C3.9,40.9,3.9,40.9,3.9,40.9z"/>
					<path fill="#FFFFFF" d="M3.3,40.1l0-0.2C3.3,40,3.3,40,3.3,40.1z"/>
					<path fill="#FFFFFF" d="M2.9,39.4C2.9,39.4,2.9,39.4,2.9,39.4L2.9,39.4L2.9,39.4z"/>
					<path fill="#FFFFFF" d="M10,49.7L10,49.7C10.1,49.8,10.1,49.7,10,49.7z"/>
					<path fill="#FFFFFF" d="M7.7,46.8c0,0,0.1,0,0.1,0.1C7.8,46.8,7.8,46.7,7.7,46.8z"/>
					<polygon fill="#FFFFFF" points="12.3,53.2 12.3,53.2 12.3,53.2 					"/>
					<path fill="#FFFFFF" d="M7.9,47c0-0.1,0-0.1-0.1-0.1C7.8,46.9,7.8,46.9,7.9,47z"/>
					<path fill="#FFFFFF" d="M1,36.6L1,36.6C1,36.5,1,36.5,1,36.6L1,36.6z"/>
					<path fill="#FFFFFF" d="M1,36.5L1,36.5C0.9,36.5,0.9,36.6,1,36.5z"/>
					<path fill="#FFFFFF" d="M0.8,36.5L0.8,36.5C0.9,36.5,0.9,36.5,0.8,36.5z"/>
					<path fill="#FFFFFF" d="M1.6,37.5L1.6,37.5C1.6,37.4,1.6,37.4,1.6,37.5z"/>
					<path fill="#FFFFFF" d="M1.8,37.7c0-0.1,0-0.2-0.1-0.3l0,0C1.7,37.4,1.6,37.7,1.8,37.7z"/>
					<path fill="#FFFFFF" d="M1.9,39.2L1.8,39c0,0.1-0.1,0.2-0.1,0.1C1.7,39.5,1.7,38.9,1.9,39.2z"/>
					<path fill="#FFFFFF" d="M2.3,40C2.2,39.9,2.2,40,2.2,40C2.3,40.1,2.3,40.1,2.3,40z"/>
					<path fill="#FFFFFF" d="M5.6,44.8l-0.1,0.1C5.6,45,5.5,44.9,5.6,44.8z"/>
					<polygon fill="#FFFFFF" points="6.9,45.3 7,45.2 6.8,45.2 					"/>
					<polygon fill="#FFFFFF" points="6.4,46.5 6.3,46.5 6.5,46.6 					"/>
					<path fill="#FFFFFF" d="M11.6,54.9l0.2-0.1C11.7,54.7,11.5,54.8,11.6,54.9z"/>
					<path fill="#FFFFFF" d="M13.8,58.6c-0.1,0.1,0,0.3,0.1,0.3C13.9,58.8,13.9,58.6,13.8,58.6z"/>
					<polygon fill="#FFFFFF" points="20.4,51.5 20.4,51.7 20.4,51.5 					"/>
				</g>
			</g>
		</g>
	</g>
</g>
</svg>
