<?xml version="1.0" encoding="utf-8"?>
<!-- Generator: Adobe Illustrator 18.0.0, SVG Export Plug-In . SVG Version: 6.00 Build 0)  -->
<!DOCTYPE svg PUBLIC "-//W3C//DTD SVG 1.1//EN" "http://www.w3.org/Graphics/SVG/1.1/DTD/svg11.dtd">
<svg version="1.1" id="Layer_1" xmlns="http://www.w3.org/2000/svg" xmlns:xlink="http://www.w3.org/1999/xlink" x="0px" y="0px"
	 viewBox="0 0 31.5 61.3" enable-background="new 0 0 31.5 61.3" xml:space="preserve">
<g>
	<g>
		<path fill="none" d="M0.3,25.2c0,0,9.3-12.4,15.4-24.5c4.6,10.1,5.9,15.2,15.8,22.2 M15.5,4.3v57"/>
		<g>
			<g>
				<g>
					<path fill="#FFFFFF" d="M15.1,61.3c0.1,0,0.2,0,0.2-0.1l-0.2-0.1L15.1,61.3z"/>
					<path fill="#FFFFFF" d="M15.5,60.7c-0.1-0.1-0.3-0.2-0.5-0.1c0.2,0.1,0.1,0.1,0.3,0.2c0,0.1-0.1,0.1-0.1,0.1
						c0.1,0,0,0.1,0.1,0.2c0.2-0.1,0.2-0.2,0-0.4C15.4,60.7,15.4,60.7,15.5,60.7z"/>
					<path fill="#FFFFFF" d="M15.8,52.7L15.8,52.7C15.8,52.7,15.8,52.7,15.8,52.7z"/>
					<path fill="#FFFFFF" d="M15.9,47.6C15.9,47.7,15.9,47.7,15.9,47.6C16,47.7,15.9,47.6,15.9,47.6z"/>
					<path fill="#FFFFFF" d="M16.1,46.8C16.1,46.8,16.1,46.8,16.1,46.8C16.2,46.8,16.2,46.8,16.1,46.8z"/>
					<path fill="#FFFFFF" d="M15.8,52.7l0.1-0.1C15.8,52.5,15.8,52.6,15.8,52.7z"/>
					<path fill="#FFFFFF" d="M15,59.6C15,59.6,15,59.7,15,59.6C15,59.7,15,59.6,15,59.6C15,59.6,15,59.6,15,59.6z"/>
					<path fill="#FFFFFF" d="M16,54.9L16,54.9C16,54.9,16,54.9,16,54.9L16,54.9z"/>
					<path fill="#FFFFFF" d="M16,56.6c0,0-0.2-0.1-0.2-0.1c0.1,0,0.1,0,0.1,0.1C15.9,56.6,16,56.6,16,56.6z"/>
					<path fill="#FFFFFF" d="M15.7,59.2L15.7,59.2C15.7,59.3,15.7,59.3,15.7,59.2z"/>
					<path fill="#FFFFFF" d="M16,53.6C16,53.6,16.1,53.6,16,53.6C16.1,53.6,16,53.6,16,53.6z"/>
					<path fill="#FFFFFF" d="M14.7,6.3C14.7,6.3,14.7,6.3,14.7,6.3C14.7,6.2,14.7,6.2,14.7,6.3z"/>
					<path fill="#FFFFFF" d="M15.6,4.3L15.6,4.3c0,0,0.1,0,0.1,0L15.6,4.3z"/>
					<path fill="#FFFFFF" d="M16.4,45.2C16.4,45.2,16.4,45.2,16.4,45.2C16.4,45.3,16.4,45.2,16.4,45.2z"/>
					<path fill="#FFFFFF" d="M16.2,30.9c-0.2,0.2-0.2-0.3-0.4,0C15.9,30.8,16.1,31.1,16.2,30.9z"/>
					<path fill="#FFFFFF" d="M15,59.6C15,59.6,15,59.5,15,59.6C15,59.5,15,59.6,15,59.6z"/>
					<path fill="#FFFFFF" d="M15.9,30.8C15.9,30.8,15.9,30.8,15.9,30.8L15.9,30.8C15.9,30.9,15.9,30.8,15.9,30.8z"/>
					<path fill="#FFFFFF" d="M16.3,41.6C16.2,41.6,16.2,41.6,16.3,41.6C16.2,41.7,16.2,41.6,16.3,41.6z"/>
					<path fill="#FFFFFF" d="M16,44.3L16,44.3C16,44.3,16,44.3,16,44.3z"/>
					<path fill="#FFFFFF" d="M16,40.2C16,40.2,16.1,40.2,16,40.2C16,40.1,16,40.1,16,40.2C16,40.2,16,40.2,16,40.2z"/>
					<path fill="#FFFFFF" d="M16,38.8C16,38.8,16,38.8,16,38.8C16,38.8,16,38.8,16,38.8L16,38.8z"/>
					<path fill="#FFFFFF" d="M14.8,10.7c0,0,0.1-0.1,0.2-0.1C14.8,10.6,14.8,10.4,14.8,10.7z"/>
					<path fill="#FFFFFF" d="M15.1,59.6C15,59.6,15,59.6,15.1,59.6C15,59.6,15,59.6,15.1,59.6C15.1,59.6,15.1,59.6,15.1,59.6z"/>
					<path fill="#FFFFFF" d="M14.6,40.2l0-0.2C14.7,40,14.6,40.1,14.6,40.2z"/>
					<path fill="#FFFFFF" d="M14.8,21.1L14.8,21.1C14.8,21,14.8,21.1,14.8,21.1z"/>
					<path fill="#FFFFFF" d="M14.6,39.2c0.1,0,0.1-0.1,0.1-0.1c0,0,0,0,0,0L14.6,39.2z"/>
					<path fill="#FFFFFF" d="M14.9,10.6C14.9,10.6,14.9,10.6,14.9,10.6C14.9,10.6,14.9,10.6,14.9,10.6z"/>
					<path fill="#FFFFFF" d="M14.5,9.1c0,0.2,0.2,0.1,0.4,0.1c0.1,0.3-0.2,0.1-0.3,0.2c0.1,0.2,0.3,0.3,0.3,0.4c0,0-0.1,0-0.1,0
						c0.2,0.2,0,0.5,0.2,0.7c0,0,0,0-0.1,0c0.1,0,0.2,0,0.3,0c0,0.1,0.1,0.2,0,0.2c0-0.1-0.1-0.1-0.1-0.1l0.1,0.1
						c-0.2,0.1-0.1-0.1-0.2-0.1c0.1,0.2,0.2,0.4,0.2,0.6c-0.2,0-0.1-0.4-0.3-0.2l0.1-0.2c-0.3,0.2,0-0.1-0.3,0
						c-0.1,0.3,0.1,0.4,0,0.7c0.1,0.1,0.2,0,0.3,0c0.2,0.4-0.5,0.4-0.2,0.7c0.1,0.1,0.4,0.1,0.3,0.4l-0.2-0.1c0,0.3,0.3,0.2,0.2,0.5
						c-0.1-0.1-0.1-0.2-0.1-0.2C14.7,13,15,13,15,13.1l-0.2,0c0,0.3,0.2,0.7,0.2,1c-0.1,0-0.1-0.1-0.2,0c0.1,0.5,0,1-0.2,1.4
						l0.2,0.2c0,0-0.1,0.1-0.1,0c-0.1,0.2,0.1,0,0.2,0.1c0,0.1-0.1,0.1-0.2,0.1c0.2,0.3,0.3,0.9,0.1,1.2l-0.1-0.1
						c-0.1,0.2,0.4,0.3,0.2,0.5l0,0c-0.1,0.5,0.1,1.1-0.2,1.5c0.3,0.1-0.1,0.5,0.2,0.6c-0.2,0.3-0.2,0.2-0.4,0.6
						c0,0.1,0.2,0.2,0.3,0.3l-0.2,0l0.2,0.2l-0.2,0.1l0,0.1c0-0.1,0.1-0.1,0.1-0.1c0.1,0.2-0.1,0.5-0.2,0.5l0.2,0.5
						c-0.1,0-0.1-0.1-0.2-0.2c0.2,0.3-0.2,0,0,0.3c0,0,0.1,0,0.2,0c-0.1,0.1-0.1,0.4-0.1,0.6l-0.1,0c0,0.4,0.1,0.8,0.1,1.2
						c0.1-0.1,0.3-0.1,0.3,0l-0.2,0c0.1,0.1,0.1-0.1,0.2,0c0,0.2-0.2,0.1-0.3,0l0.1,0.2c-0.1,0-0.1,0-0.2,0c0.1,0.1-0.2,0.3,0,0.4
						l-0.1,0c0,0.4,0.1,0.6,0.1,0.9c0.2,0,0.1,0.1,0.3,0.2c-0.1,0.2-0.2,0.5-0.2,0.8c0.1,0.2,0.1,0.1,0.3,0.2
						c-0.2,0-0.1,0.3-0.3,0.2c0,0.4,0,0.5,0.2,0.9c0.1,0,0.1-0.1,0.1-0.1c0,0.1-0.1,0.2-0.1,0.2l0,0c0.2,0.5-0.5,1.2-0.1,1.6l0,0
						l0.2,0.4c0,0.2-0.1-0.1-0.2,0c0.3,0.4,0,0.7,0.1,1.1c-0.5,0.3,0,1-0.3,1.4l0.1,0c0.1,0.1-0.1,0.1-0.1,0.2c0.1,0,0.1-0.1,0.2,0
						c0.1,0.8-0.2,1.7-0.3,2.6c0,0.3,0.6,0.2,0.3,0.6l-0.2-0.1c0.2,0.6,0,1.3,0.2,1.9c0,0-0.1,0-0.1-0.1c-0.1,0.1,0,0.5,0.1,0.5
						c0,0.1-0.1,0-0.2,0.1c-0.1,0.1,0.2,0.3,0,0.4c0,0,0,0-0.1-0.1c0.1,0.1,0,0.4,0.2,0.3c-0.1,0.2,0.1,0.4,0,0.6
						c0.2,0.1-0.1,0.4,0.2,0.4c-0.3,0-0.2,0.4-0.1,0.6c-0.1,0-0.1,0.1-0.2,0.1c0,0.2,0.1,0.3,0.2,0.3c-0.3,0.3,0.3,0.6-0.2,0.8
						c0.2,0.5,0.3,1,0.3,1.4c-0.3,0,0-0.5-0.3-0.5c0.1,0.4,0.4,0.7,0.3,1.1c0,0.1-0.1-0.1-0.2-0.1c0.1,0.4,0,0.8,0.1,1.2
						c0,0-0.1,0-0.1-0.1c0,0.1,0,0.2,0.1,0.2l0-0.1c0.2-0.1,0.4,0.3,0.5,0.3c-0.4-0.1-0.1,0.4-0.6,0.2c0,0,0.1,0.1,0.2,0.1
						c0,0.1-0.1,0.1-0.2,0c0.1,0.3,0.2,0.2,0.2,0.4c-0.1,0-0.1-0.1-0.2-0.1c0.1,0.1,0.2,0.2,0.2,0.5c0,0-0.1,0-0.1,0
						c0,0.4,0.3,0.6,0.2,1c-0.3-0.1-0.1,0.1-0.3,0.2l0.1,0.2l0.1-0.1c0,0.2,0.2,0.3,0.1,0.5L15,47.4l0,0.3l0.1-0.2
						c0.1,0.2,0.3,0,0.2,0.2c0,0,0,0.2-0.1,0.3c0,0,0,0,0,0c0.1,0.1,0.2,0.2,0.1,0.3c-0.1,0-0.3,0-0.3,0c0.2,0.1,0.1,0.4,0.3,0.5
						c0,0-0.2,0-0.2,0l0.2,0.1c-0.1,0.1-0.1,0.1-0.2,0.1c0,0.3,0.3-0.1,0.2,0.2c0,0,0,0-0.1-0.1c-0.1,0.3,0.1,0.6,0,0.9
						C15,50.2,15.2,49.9,15,50c0,0.4,0.3,0.8,0.2,1.2l0-0.1c0.3,0.1-0.2,0.3,0,0.5c0,0-0.2-0.1-0.1-0.1c-0.1,0.3,0.1,0.5,0.2,0.9
						l-0.1-0.1c-0.1,0.2,0,0.4-0.1,0.6c0.1,0.1,0.1,0.1,0.2,0.1c-0.5,0.5,0.3,1-0.1,1.5c0-0.1-0.1-0.1-0.1-0.1l0.1,0.4
						c0.1,0,0.1-0.1,0.2-0.1c0.1,0.1,0.2,0.2,0.2,0.3c-0.1-0.2-0.2,0-0.3,0.1c0,0,0.1,0,0.1,0c-0.3,0.2,0.3,0,0.1,0.3l-0.1,0
						c0,0.1,0.1,0.2,0.1,0.3c-0.2,0-0.1-0.1-0.2-0.1c0,0.2,0.3,0.3,0.1,0.5c0-0.1,0-0.2-0.1-0.2c-0.2,0.2-0.1,0.2-0.2,0.3l0,0
						l-0.1,0.3l0.1-0.1c0.4,0.2,0.1,0.4,0.4,0.7c-0.3-0.3-0.2,0-0.3-0.1C15.1,57,15,57.1,15,57.1c0.2,0.1-0.1,0.2,0.1,0.4
						c-0.1,0,0,0.1-0.2,0.1c0,0.2,0.1,0,0.2,0c0.2,0.3-0.3,0.6,0,1c0.1,0.3,0.3,0.4,0.4,0.7c-0.1,0.1-0.2-0.1-0.2-0.1
						c-0.1,0.2-0.1,0.3,0,0.4c-0.1,0-0.1,0-0.2,0c0,0.1,0.2,0.1,0.1,0.2c-0.1,0-0.2-0.1-0.2-0.1c0.1,0.1,0.2,0.3,0.2,0.4
						c-0.1,0-0.2-0.1-0.2-0.1c0,0.2,0.1,0.4,0.3,0.5l0.1-0.1c0,0.1-0.1,0-0.2,0c-0.1-0.1,0.1-0.2,0.1-0.2l0,0.1
						c0.4-0.1-0.1-0.4,0-0.6l0.3,0.1l-0.2-0.2c0.1,0,0.2-0.1,0.2,0c0.1-0.2-0.1-0.1,0.1-0.3c0,0,0,0,0,0l-0.1-0.1
						c0.1,0,0.2,0,0.1,0.1c0.1-0.3-0.2-0.4,0-0.5l0,0c-0.1-0.4-0.2,0-0.4-0.3l0.5-0.2l-0.2,0c0,0,0-0.1,0.1-0.1
						c-0.1-0.1-0.1,0-0.2-0.1c0.2-0.2-0.1-0.5,0.2-0.5c-0.1-0.1-0.1,0.2-0.2,0c0.3-0.1-0.1-0.2,0.1-0.4c0.2,0.1,0.1,0.2,0.2,0
						c-0.3-0.1,0.1-0.3,0-0.5c-0.2,0-0.1-0.3-0.2-0.5c0.1,0,0.1-0.4,0.2-0.7l0,0c-0.2,0-0.2-0.3-0.2-0.4c0.1,0,0.2,0,0.3,0.1l0-0.2
						c-0.1,0-0.1-0.1-0.1-0.2l0.2,0c0-0.2-0.2-0.4-0.1-0.7c-0.2,0-0.4,0.2-0.5-0.1c0.1,0,0.2,0,0.3,0.1c0,0-0.1-0.1,0-0.1l0.1,0.1
						c0.1-0.1-0.1-0.1-0.1-0.2c0.1,0,0.1-0.1,0.2-0.1c0,0-0.1,0.1,0,0.1c0-0.1,0.1-0.2,0.2-0.3c-0.1,0-0.2,0-0.2-0.1
						c0-0.2,0.1-0.1,0.2-0.2c-0.1-0.1,0-0.2-0.2-0.2c0-0.1,0.1-0.1,0.1-0.1c-0.1-0.1,0-0.5-0.2-0.4l0,0c0,0,0,0,0,0c0,0,0,0,0,0v0
						c-0.2-0.4,0.1-0.7,0-1.1l0.1,0c-0.1-0.2,0-0.5-0.2-0.6c0-0.1,0.1-0.1,0.2-0.1c0-0.2-0.1-0.2,0-0.4c0.1,0.2,0.1-0.1,0.1,0.2
						c0.1-0.2,0.2-0.3,0-0.5c0.2,0.1,0.2-0.2,0.2-0.3l-0.1,0.1c0-0.1,0-0.2,0-0.3l0.2,0.1c0.3-0.4-0.4-0.8,0-1.1
						C16,48.6,16,49,15.9,48.9c0-0.2,0.3-0.4,0.3-0.5c0.1-0.3-0.3-0.2-0.2-0.5c-0.1,0-0.3,0.1-0.3-0.1c0-0.2,0.3-0.2,0.4-0.1
						c0,0,0,0.1,0,0.1c0,0.1,0.1,0.1,0.1,0.1l-0.1,0c0.1-0.1,0.1-0.4,0.2-0.3c-0.1-0.1-0.1-0.1-0.2,0c0.1-0.3,0-0.4,0.1-0.6
						c0,0-0.1,0.1-0.1,0c0.1-0.4-0.1-0.2-0.2-0.4c0.1-0.1,0.3,0.1,0.2-0.2c0.1-0.2,0.2,0,0.3,0c-0.1-0.2,0.1-0.4,0.1-0.6l0.1,0.1
						c0-0.1,0-0.1,0-0.2l-0.1,0.1c0-0.1,0-0.1,0.1-0.1c-0.1-0.1-0.2,0.1-0.4-0.1c0.1-0.1-0.1-0.3,0.1-0.3c-0.1,0.3,0.2,0,0.2,0.2
						c0,0,0-0.1,0-0.2c0,0,0,0,0.1,0c0.2-0.3-0.2-0.1-0.2-0.4c0.1,0,0.2-0.1,0.2-0.1c0,0.1-0.2,0.1-0.3-0.1c0.1-0.2-0.1-0.2-0.1-0.3
						l0,0.1c-0.1,0-0.1-0.1-0.1-0.3c0.1,0,0.1,0.1,0.1,0.1c-0.2-0.1,0.2-0.3,0.1-0.5c0.1-0.1,0.2,0,0.3-0.1c-0.1-0.2,0.2-0.3,0-0.5
						c-0.1,0.1-0.1,0.1-0.3-0.1l0.1,0.4l-0.2-0.3c0,0.1,0.1,0.3,0.1,0.3c-0.1-0.1-0.1-0.1-0.2-0.1c0.2-0.2-0.1-0.3,0-0.5l0.4,0
						c0.2-0.3-0.2-0.5-0.1-0.9L16,42.1c-0.1-0.1,0-0.2-0.1-0.4c0.1,0,0.2-0.1,0.2-0.1c-0.1,0,0-0.3-0.2-0.3l0.2-0.2
						c0.1-0.3-0.3-0.3-0.3-0.6c0.1,0.1,0.2,0,0.3,0.2c0-0.1,0-0.2-0.1-0.2c0.1-0.1-0.2-0.3,0-0.4c-0.1,0-0.2-0.1-0.2-0.2
						c0,0,0.1,0,0.1,0c-0.1,0-0.1-0.2-0.2-0.1c0.4-0.3,0-0.8,0.3-1.1c0-0.2-0.1-0.5-0.1-0.7c0,0,0.1,0,0,0c0.1-0.3-0.4-0.2-0.2-0.5
						c0.2-0.2,0.1,0.2,0.2,0.1c0.4,0-0.1-0.4,0.2-0.6l0,0c0.1-0.2-0.2-0.4-0.1-0.6c0,0,0,0,0.1,0c-0.2-0.2-0.3-0.5-0.3-0.8
						c0.2,0.1,0.1,0.1,0.2,0.1c0-0.1-0.3,0-0.3-0.2c0.1-0.1,0.2-0.2,0.3-0.3l0,0.2c0.2-0.1,0-0.3,0-0.4l0.1,0c0-0.3-0.3-0.3-0.3-0.7
						l-0.1,0c-0.2-0.2,0.1-0.2,0-0.3l0.2-0.1c-0.1-0.1-0.2-0.4-0.3-0.7c0.2,0.1,0.3,0.4,0.4,0.5c0-0.1,0-0.4-0.1-0.5
						c0,0,0.1,0.1,0,0.2c-0.2-0.1-0.3-0.3-0.3-0.6c0.5,0,0.1-0.6,0.5-0.8c-0.2-0.4,0.1-0.9,0-1.4c-0.4,0.2,0-0.1-0.4-0.1
						c0-0.1,0-0.2,0-0.2l0.2-0.4c0.1-0.1,0.1,0.1,0.2,0.1c0-0.3,0.2-0.1,0.3-0.3c-0.1,0-0.2-0.1-0.1-0.2l-0.2,0.2
						c-0.2-0.4,0.3-0.3,0.1-0.7l0.1,0.1c-0.1-0.2,0-0.7-0.3-0.9c0,0,0.1-0.1,0.2,0c0-0.4-0.3-1-0.1-1.3l0.1,0c0-0.1-0.2-0.1-0.1-0.2
						c0,0,0.1,0,0.1,0c0,0-0.2-0.2-0.1-0.3l0.1,0.1c0.1-0.4-0.3-0.7-0.3-1c0.3,0,0.4-0.3,0.4-0.5l0,0c0-0.5-0.2-0.9-0.3-1.3
						c0.3-0.3,0.1-1,0.3-1.4c0,0.1-0.2,0-0.2-0.1c0.1-0.1-0.2-0.3,0.1-0.3l0,0c0.2-0.1,0.2-0.3,0.2-0.5L16,22
						c0.5-0.5-0.2-1.2,0.3-1.4c-0.1-0.1-0.1-0.2-0.2-0.4l0.2,0c0-0.3,0.1-0.5,0-0.8l0.1,0.1c0-0.2-0.5-0.3-0.5-0.5l0.3-0.1
						c0-0.4,0.2-0.7,0-1.1c0,0,0.1,0,0.1,0.1c0-0.2,0.2-0.7-0.2-0.6c0.2,0,0-0.4-0.1-0.6l0.2,0c-0.2-0.2-0.3-0.2-0.3-0.4
						c0-0.1,0.1,0,0.1,0c0.1-0.2-0.2-0.1-0.1-0.4L16,16c0-0.2,0-0.2-0.2-0.3c-0.1-0.1,0-0.4,0.2-0.4c-0.1,0-0.2-0.1-0.2-0.2
						c0.1,0,0.1,0,0.1,0c0.1-0.3-0.2-0.5,0-0.7c0.1,0,0.1,0,0.1,0c0,0.3,0,0.5,0,0.4c0.2,0,0.2-0.2,0.4,0c-0.1-0.2-0.4-0.4-0.3-0.6
						c0,0,0,0,0.1,0l0,0c0,0,0-0.1,0-0.1c0-0.1,0-0.1,0-0.2c0.1,0,0.1-0.2,0.1-0.3c-0.2,0-0.1-0.1-0.3,0c0,0,0,0,0,0.1c0,0,0,0,0,0
						c0,0,0,0,0,0c0,0.1,0,0.2,0,0.3c-0.1-0.1-0.2-0.2-0.1-0.3c-0.1-0.1-0.2-0.1-0.3-0.1c0.2-0.1,0.4-0.4,0.5-0.4
						c-0.1-0.3-0.1-0.7-0.4-0.9c0-0.1,0.1-0.1,0.1-0.1c0,0.1,0,0.1,0.1,0.1c-0.1-0.2,0-0.5-0.3-0.6c0.1-0.2,0.2,0.1,0.2-0.2l0.1,0
						c0.4-0.6-0.6-1-0.1-1.7c0,0,0,0.1-0.1,0.1C16.1,9,15.6,8.2,16,7.5c0.1-0.2-0.1-0.2-0.2-0.4l0.2,0l-0.2-0.2
						c-0.2-0.3,0.5-0.6,0.2-1l-0.1,0.1c0-0.1-0.1-0.5,0.1-0.4c0,0-0.1,0-0.1-0.1l0.1,0L15.7,5c0.1-0.3,0.4,0,0.4-0.4
						c0-0.1-0.3-0.4-0.4-0.4c0,0.1-0.1,0.2-0.2,0.2l-0.1-0.1c-0.3,0-0.6-0.1-0.8,0.2L15,4.8l-0.1,0.1l0-0.2c-0.1,0.1,0,0.2,0.1,0.3
						c-0.1,0-0.1,0.1-0.2,0.1L15,5.2c-0.1,0-0.2-0.1-0.3,0.1c0.1,0.1,0.3-0.1,0.3,0.1c-0.1,0.1-0.2,0.1-0.1,0.2
						c-0.1,0-0.1,0-0.2-0.1c0.1,0.1,0,0.3,0.2,0.4c-0.2,0.1,0,0.4-0.2,0.4c0.1,0,0.2,0.2,0.2,0.3c-0.3-0.2,0,0.4-0.4,0.4
						c0.3,0.1,0.1,0.5,0.3,0.8c0,0-0.1,0-0.1-0.1c0,0.1-0.1,0.2-0.2,0.3c0.2,0,0.3,0.2,0.4,0.4c-0.2,0.2-0.3-0.1-0.5-0.1
						c0.2,0,0.2,0.3,0.4,0.2c-0.1,0.1-0.1,0.1-0.3,0.2c0.3,0,0.1,0.1,0.2,0.2c-0.1,0.2-0.3,0.1-0.2,0.3C14.6,9.3,14.5,9.1,14.5,9.1z
						 M15.1,14.2C15.1,14.2,15.1,14.2,15.1,14.2c0,0,0-0.1,0-0.1C15,14.1,15,14.2,15.1,14.2z M15.1,14.6c0-0.1,0-0.1,0-0.2
						c0.1,0,0.1,0,0.1,0C15.1,14.5,15.1,14.6,15.1,14.6z M16.3,13.7c0,0.1,0,0.1,0,0.1C16.2,13.8,16.2,13.8,16.3,13.7
						C16.2,13.7,16.2,13.7,16.3,13.7C16.2,13.7,16.2,13.7,16.3,13.7z"/>
					<path fill="#FFFFFF" d="M16,13.6C16,13.6,16,13.6,16,13.6C16,13.6,16,13.6,16,13.6C16,13.6,16,13.6,16,13.6
						C16,13.6,16,13.6,16,13.6z"/>
					<path fill="#FFFFFF" d="M15.8,52.7L15.8,52.7C15.8,52.7,15.8,52.7,15.8,52.7C15.8,52.7,15.8,52.7,15.8,52.7z"/>
					<polygon fill="#FFFFFF" points="14.7,20.6 14.8,20.6 14.7,20.6 					"/>
					<path fill="#FFFFFF" d="M15.2,55.1C15.2,55.1,15.1,55.1,15.2,55.1C15.1,55.1,15.2,55.1,15.2,55.1z"/>
					<path fill="#FFFFFF" d="M15.1,56.1l-0.1,0.1C15.1,56.2,15.1,56.2,15.1,56.1z"/>
					<path fill="#FFFFFF" d="M15.1,56.9C15.1,56.9,15.1,56.9,15.1,56.9C15.1,56.9,15.1,56.9,15.1,56.9L15.1,56.9z"/>
					<path fill="#FFFFFF" d="M14.9,44.4C14.8,44.3,14.8,44.3,14.9,44.4C14.8,44.3,14.8,44.3,14.9,44.4z"/>
					<path fill="#FFFFFF" d="M15.3,48.1c0,0-0.1-0.1-0.1-0.1C15.2,48,15.2,48.1,15.3,48.1z"/>
					<path fill="#FFFFFF" d="M14.6,40.2C14.6,40.2,14.6,40.2,14.6,40.2C14.6,40.2,14.6,40.2,14.6,40.2L14.6,40.2z"/>
					<path fill="#FFFFFF" d="M15.2,47.8c0,0.1,0,0.1,0,0.2C15.2,47.9,15.2,47.9,15.2,47.8z"/>
					<path fill="#FFFFFF" d="M15,60.3L15,60.3C15,60.4,15,60.4,15,60.3L15,60.3z"/>
					<path fill="#FFFFFF" d="M15,60.4L15,60.4C15,60.4,15,60.4,15,60.4z"/>
					<path fill="#FFFFFF" d="M15.1,60.5L15.1,60.5C15,60.4,15,60.5,15.1,60.5z"/>
					<path fill="#FFFFFF" d="M15.1,59.3L15.1,59.3C15,59.3,15,59.3,15.1,59.3z"/>
					<path fill="#FFFFFF" d="M15,59c0,0.1-0.1,0.2-0.1,0.3l0.1,0C14.9,59.2,15.1,59,15,59z"/>
					<path fill="#FFFFFF" d="M15.8,57.6l-0.1,0.3c0.1,0,0.2-0.1,0.2,0C16.1,57.6,15.8,58,15.8,57.6z"/>
					<path fill="#FFFFFF" d="M15.9,56.8c0,0.1,0.1,0,0.1,0C16,56.7,16,56.7,15.9,56.8z"/>
					<path fill="#FFFFFF" d="M15.9,50.9l0.2,0C16.1,50.8,16,50.9,15.9,50.9z"/>
					<polygon fill="#FFFFFF" points="15.1,49.7 15,49.8 15.1,49.9 					"/>
					<polygon fill="#FFFFFF" points="16.2,49 16.3,49.1 16.2,48.9 					"/>
					<path fill="#FFFFFF" d="M16.2,39l-0.2,0C16,39.1,16.2,39.2,16.2,39z"/>
					<path fill="#FFFFFF" d="M16,34.7c0.1,0,0.2-0.2,0.1-0.2C16,34.6,15.9,34.7,16,34.7z"/>
					<polygon fill="#FFFFFF" points="16.3,21.7 16.4,21.8 16.3,21.7 					"/>
				</g>
			</g>
		</g>
		<g>
			<g>
				<g>
					<path fill="#FFFFFF" d="M31.2,23.2c0.1,0,0.1-0.1,0-0.2l-0.2,0.1L31.2,23.2z"/>
					<path fill="#FFFFFF" d="M31,22.6c-0.1,0-0.3,0.1-0.4,0.3c0.2-0.1,0.2,0,0.4-0.2c0.1,0,0.1,0.1,0,0.2c0.1,0,0.1,0.1,0.2,0
						c0-0.2-0.1-0.3-0.3-0.3C30.9,22.6,31,22.6,31,22.6z"/>
					<path fill="#FFFFFF" d="M25.2,17.1L25.2,17.1C25.2,17.1,25.2,17.1,25.2,17.1z"/>
					<path fill="#FFFFFF" d="M22.2,13.2C22.2,13.2,22.3,13.2,22.2,13.2C22.3,13.2,22.2,13.1,22.2,13.2z"/>
					<path fill="#FFFFFF" d="M22,12.3C22,12.4,22,12.4,22,12.3C22,12.4,22,12.3,22,12.3z"/>
					<path fill="#FFFFFF" d="M25.2,17.1l0-0.1C25.1,17,25.1,17,25.2,17.1z"/>
					<path fill="#FFFFFF" d="M29.8,22.3C29.8,22.3,29.9,22.3,29.8,22.3L29.8,22.3L29.8,22.3z"/>
					<path fill="#FFFFFF" d="M26.8,18.5L26.8,18.5c0.1,0,0.1,0,0.1,0L26.8,18.5z"/>
					<path fill="#FFFFFF" d="M28.1,19.6c0,0-0.1,0.1-0.2,0.1c0.1,0,0.1,0,0.1,0C28,19.7,28,19.7,28.1,19.6z"/>
					<path fill="#FFFFFF" d="M29.9,21.5L29.9,21.5C30,21.5,30,21.5,29.9,21.5z"/>
					<path fill="#FFFFFF" d="M26,17.7C26,17.7,26,17.6,26,17.7C26,17.6,26,17.7,26,17.7z"/>
					<path fill="#FFFFFF" d="M2.1,24.1C2.1,24.1,2.1,24.1,2.1,24.1C2.1,24.1,2.1,24.1,2.1,24.1z"/>
					<polygon fill="#FFFFFF" points="0.3,25.2 0.3,25.1 0.2,25.1 					"/>
					<path fill="#FFFFFF" d="M21.4,10.9L21.4,10.9C21.4,10.9,21.4,10.9,21.4,10.9z"/>
					<path fill="#FFFFFF" d="M13.9,2.6C14,2.5,14,2.7,14,2.7c0,0.1,0,0.1,0.2,0.1C14.1,2.8,14.1,2.4,13.9,2.6z"/>
					<path fill="#FFFFFF" d="M29.8,22.3C29.8,22.2,29.8,22.2,29.8,22.3C29.8,22.2,29.8,22.2,29.8,22.3z"/>
					<path fill="#FFFFFF" d="M14.2,2.8L14.2,2.8L14.2,2.8C14.2,2.8,14.2,2.8,14.2,2.8z"/>
					<path fill="#FFFFFF" d="M19.7,7.8C19.7,7.8,19.7,7.8,19.7,7.8C19.7,7.9,19.7,7.8,19.7,7.8z"/>
					<path fill="#FFFFFF" d="M20.7,10.3L20.7,10.3C20.6,10.2,20.6,10.3,20.7,10.3z"/>
					<path fill="#FFFFFF" d="M18.9,6.7C18.9,6.6,18.9,6.6,18.9,6.7C18.9,6.6,18.9,6.6,18.9,6.7C18.9,6.6,18.9,6.6,18.9,6.7z"/>
					<polygon fill="#FFFFFF" points="18.3,5.3 18.3,5.4 18.3,5.4 					"/>
					<path fill="#FFFFFF" d="M4.6,20.4c-0.1,0-0.1,0-0.2,0C4.5,20.5,4.4,20.7,4.6,20.4z"/>
					<path fill="#FFFFFF" d="M29.9,22.2C29.8,22.2,29.8,22.3,29.9,22.2L29.9,22.2C29.9,22.3,29.9,22.2,29.9,22.2z"/>
					<path fill="#FFFFFF" d="M17.6,7.2l-0.1-0.2C17.6,7,17.6,7.1,17.6,7.2z"/>
					<path fill="#FFFFFF" d="M10.3,11.7L10.3,11.7C10.3,11.8,10.3,11.8,10.3,11.7z"/>
					<path fill="#FFFFFF" d="M17.3,6.3c0-0.1,0.1-0.1,0.1-0.2c0,0,0,0-0.1,0L17.3,6.3z"/>
					<path fill="#FFFFFF" d="M4.4,20.4L4.4,20.4L4.4,20.4z"/>
					<path fill="#FFFFFF" d="M3.9,21.9c0.1-0.2-0.1-0.2-0.2-0.3c0.1-0.3,0.2,0,0.4,0c0-0.2-0.1-0.4,0-0.5c0,0,0.1,0,0.1,0.1
						c0-0.2,0.3-0.4,0.2-0.7c0,0,0,0,0.1,0c-0.1,0-0.2-0.1-0.3-0.2c0.1-0.1,0-0.2,0.1-0.2c0,0,0,0.1,0,0.1l0-0.1
						c0.2,0,0,0.2,0.1,0.2c0.1-0.2,0-0.5,0.2-0.6c0.2,0.1-0.1,0.3,0.1,0.3l-0.2,0.2c0.4,0-0.1,0.1,0.3,0.2C5,20.1,4.9,20,5.1,19.8
						c-0.1-0.1-0.2-0.1-0.2-0.2c0.1-0.5,0.6,0,0.6-0.4c-0.1-0.1-0.3-0.3,0-0.4l0.2,0.2c0.2-0.2-0.2-0.3,0.1-0.5c0,0.1-0.1,0.2,0,0.2
						c0.3-0.1,0-0.2,0.1-0.3L6,18.4c0.2-0.3,0.2-0.7,0.4-1c0,0.1,0.1,0.1,0.2,0.1c0.2-0.4,0.6-0.8,0.9-1.1l-0.1-0.2c0,0,0.1,0,0.1,0
						c0.2-0.1-0.1-0.1-0.1-0.2c0-0.1,0.2,0,0.2,0c0-0.3,0.2-0.9,0.5-1.1l0,0.1c0.2-0.2-0.2-0.4,0.1-0.5l0,0.1c0.4-0.4,0.5-1,1-1.2
						c-0.2-0.2,0.4-0.4,0.1-0.6c0.3-0.2,0.3-0.1,0.7-0.4c0.1-0.1-0.1-0.3-0.1-0.4l0.2,0.1L10,11.9l0.2,0l0-0.1c0,0-0.1,0.1-0.2,0
						c0-0.2,0.4-0.4,0.5-0.3l0.1-0.5c0.1,0,0,0.1,0,0.2c0-0.3,0.2,0.1,0.2-0.2c-0.1,0-0.1-0.1-0.1-0.1c0.2,0,0.3-0.3,0.4-0.5
						l0.1,0.1c0.2-0.3,0.3-0.7,0.6-1c-0.1,0.1-0.3-0.1-0.3-0.2l0.2,0.1c-0.1-0.1-0.1,0.1-0.2-0.1c0.1-0.1,0.2,0,0.3,0.1l0-0.2
						c0.1,0,0.1,0.1,0.1,0.1c-0.1-0.1,0.3-0.2,0.2-0.4l0.1,0c0.2-0.4,0.2-0.5,0.4-0.8c-0.1-0.1,0-0.2-0.1-0.3
						c0.2-0.2,0.4-0.4,0.6-0.6c0-0.2-0.1-0.1-0.1-0.3c0.1,0.1,0.3-0.2,0.3,0c0.2-0.3,0.2-0.4,0.3-0.9c-0.1,0-0.1,0-0.2,0
						c0-0.1,0.1-0.1,0.2-0.1l0,0c0-0.5,1-0.8,0.9-1.3l0,0l0-0.4c0.1-0.2,0,0.2,0.2,0.1c0-0.5,0.4-0.6,0.4-1c0.3,0,0.3,0,0.3-0.1
						c0-0.1,0.1-0.3,0.1-0.1l0-0.2c0-0.2,0,0.1,0.1,0.1c0-0.1,0-0.1-0.1-0.2c0-0.1,0.1-0.2,0.1-0.3c0,0,0.1-0.1,0.1,0
						c0,0.2,0,0.4,0,0.5c0,0,0.4-0.4,0.3-0.1c0,0-0.2,0.1-0.2,0.1c0,0,0.1,0,0.1,0.1c0,0.1,0.1,0.1,0.1,0.2c0.1,0.1,0.1,0.3,0.2,0.4
						c0.1,0.3,0.2,0.6,0.5,0.8c-0.1,0-0.1,0-0.1,0c-0.1,0.2,0.2,0.4,0.3,0.4c0,0.1-0.1,0.1-0.1,0.1c0,0.2,0.3,0.2,0.2,0.4
						c0,0-0.1,0-0.1,0c0.1,0,0.1,0.4,0.3,0.2c0,0.2,0.2,0.4,0.2,0.6c0.2,0,0.1,0.4,0.3,0.3c-0.3,0.1,0,0.5,0.1,0.5
						c-0.1,0,0,0.2-0.2,0.1c0.1,0.2,0.2,0.3,0.3,0.2c-0.2,0.4,0.5,0.5,0.2,0.8c0.4,0.4,0.6,0.8,0.9,1.2c-0.3,0.1-0.2-0.4-0.5-0.3
						c0.3,0.3,0.6,0.5,0.7,0.9c0,0.1-0.1,0-0.2,0c0.3,0.3,0.3,0.8,0.7,1c0,0-0.1,0-0.1,0c0,0.1,0,0.2,0.2,0.1l-0.1,0
						c0.1-0.2,0.5,0.1,0.6,0c-0.4,0.1,0.1,0.4-0.4,0.4c0,0,0.1,0.1,0.2,0c0,0.1,0,0.1-0.1,0.1c0.2,0.2,0.3,0.1,0.4,0.3
						c-0.1,0-0.1,0-0.2,0c0.2,0.1,0.3,0.1,0.4,0.3c0,0-0.1,0.1-0.1,0c0.2,0.3,0.6,0.4,0.7,0.8c-0.3,0,0,0.2-0.2,0.3l0.2,0.1l0-0.1
						c0.1,0.2,0.3,0.2,0.4,0.4l-0.2-0.1l0.2,0.3l0-0.2c0.2,0.1,0.2-0.2,0.3,0.1c0,0,0.1,0.2,0,0.3l0,0c0.1,0,0.2,0.1,0.3,0.2
						c0,0.1-0.2,0.1-0.3,0.2c0.2,0,0.3,0.3,0.5,0.3c-0.1,0-0.2,0.1-0.2,0.1l0.2,0c0,0.1,0,0.1-0.1,0.2c0.1,0.2,0.2-0.2,0.3,0.1
						c0,0,0,0-0.1,0c0.1,0.3,0.4,0.4,0.5,0.7c-0.1,0.2-0.2-0.2-0.3,0c0.3,0.3,0.7,0.5,1,0.8l0-0.1c0.3-0.2,0.1,0.3,0.3,0.4
						c0,0-0.2,0.1-0.1,0.1c0.1,0.2,0.4,0.4,0.8,0.6l-0.1,0c0.1,0.2,0.3,0.3,0.3,0.5c0.1,0,0.2,0.1,0.2-0.1c0,0.7,0.9,0.5,0.9,1.1
						c0,0-0.1,0-0.1,0l0.3,0.2c0.1-0.1,0-0.1,0-0.2c0.1,0,0.2,0,0.3,0.1c-0.2-0.1-0.2,0.2-0.2,0.3c0,0,0.1-0.1,0.1-0.1
						c0,0.3,0.2-0.2,0.3,0.1l-0.1,0c0.1,0,0.2,0,0.3,0.1c-0.1,0.2-0.1,0-0.2,0.1c0.1,0.1,0.4,0,0.4,0.2c-0.1,0-0.2-0.1-0.2-0.1
						c0,0.2,0,0.2,0.1,0.3l0,0l0.1,0.2l0-0.1c0.4-0.2,0.4,0.2,0.7,0.2c-0.4,0-0.1,0.1-0.3,0.2c0,0.1,0.1,0.2,0,0.2
						c0.2,0,0.1,0.2,0.4,0.2c0,0.1,0.1,0.1,0,0.2c0.2,0.1,0-0.1,0.1-0.2c0.3,0,0.3,0.6,0.8,0.6c0.3,0.1,0.5,0,0.8,0.1
						c0,0.1-0.2,0.1-0.2,0.1c0.1,0.2,0.2,0.2,0.3,0.3c-0.1,0-0.1,0.1-0.1,0.2c0.1,0.1,0.2-0.1,0.3,0c-0.1,0-0.2,0.1-0.2,0.1
						c0.1,0,0.3,0,0.5,0.1c0,0.1-0.2,0.1-0.2,0.1c0.2,0.1,0.4,0.2,0.5,0.1l-0.1-0.1c0.1,0-0.1,0.1-0.1,0.1c-0.2,0-0.1-0.2-0.1-0.2
						l0.1,0c0.1-0.3-0.4-0.2-0.5-0.3l0.2-0.2l-0.3,0c0-0.1,0.1-0.2,0.2-0.2c0-0.2-0.2,0-0.2-0.2c0,0,0,0,0,0l-0.2,0
						c0.1,0,0.1-0.2,0.1-0.1c-0.1-0.3-0.5-0.1-0.4-0.3l0,0c-0.3-0.2-0.1,0.1-0.5,0.1l0.1-0.5L29,20.9c0,0-0.1-0.1,0-0.1
						c-0.2,0,0,0.1-0.2,0.1c0-0.2-0.4-0.3-0.3-0.5c-0.1,0.1,0.1,0.2-0.1,0.1c0.2-0.3-0.2-0.1-0.2-0.3c0.1-0.1,0.2,0.1,0.2-0.1
						c-0.3,0.1-0.2-0.3-0.3-0.3c-0.2,0.2-0.3-0.1-0.5-0.2c0.1,0-0.3-0.4-0.4-0.6l0,0c-0.2,0.1-0.3,0-0.5-0.1
						c0.1-0.1,0.2-0.1,0.3-0.1l-0.1-0.1c-0.1,0-0.1,0-0.2,0l0.1-0.1c-0.2-0.1-0.4-0.1-0.5-0.4c-0.1,0.1-0.2,0.5-0.4,0.3
						c0.1-0.1,0.1-0.2,0.2-0.2c0,0-0.1,0-0.1-0.1l0.2,0c0-0.1-0.1,0-0.2,0c0.1-0.1,0-0.1,0.1-0.2c0,0,0,0.1,0.1,0.1
						c-0.1-0.1-0.1-0.2-0.1-0.3c0,0.1-0.1,0.1-0.2,0.1c-0.2-0.1,0.1-0.2,0-0.3c-0.1,0-0.1-0.1-0.3,0c0,0,0-0.1,0-0.2
						c-0.1,0-0.4-0.3-0.4-0.1l0,0l0,0l0,0l0,0c-0.4-0.1-0.4-0.6-0.7-0.8l0,0C24.3,16.2,24.2,16,24,16c0,0,0-0.2,0.1-0.2
						c-0.1-0.1-0.2-0.1-0.3-0.3c0.2,0.1,0-0.1,0.2,0.1c-0.1-0.2,0-0.3-0.3-0.3c0.2,0,0.1-0.2,0-0.3l0,0.2c-0.1-0.1-0.1-0.2-0.2-0.2
						l0.2-0.1c0-0.5-0.8-0.3-0.6-0.8c-0.2,0,0.1,0.2-0.1,0.3c-0.1-0.2,0-0.5,0-0.6c0-0.3-0.4,0-0.5-0.3c0,0.1-0.2,0.2-0.4,0.1
						c-0.1-0.2,0.1-0.4,0.2-0.3c0,0,0,0.1,0,0.1c0.1,0,0.1,0.1,0.2,0l-0.1,0c0-0.1-0.1-0.3,0-0.3c-0.1-0.1-0.1,0-0.1,0.1
						c0-0.3-0.2-0.3-0.3-0.6c0,0.1-0.1,0.1-0.1,0.1c-0.1-0.4-0.2-0.1-0.4-0.3c0-0.2,0.3-0.1,0-0.3c0-0.2,0.2-0.1,0.2-0.1
						c-0.2-0.1-0.1-0.4-0.2-0.5l0.1,0.1c-0.1,0-0.1-0.1-0.1-0.1l-0.1,0.1c0-0.1,0-0.1,0-0.2c-0.1,0-0.2,0.2-0.4,0.1
						c0-0.1-0.2-0.2-0.1-0.3c0.1,0.3,0.2-0.1,0.3,0.1c0,0-0.1-0.1-0.1-0.2c0,0,0,0,0.1,0c0-0.3-0.3,0-0.4-0.3c0.1,0,0.2-0.2,0.1-0.2
						c0.1,0.1-0.1,0.1-0.3,0.1c0-0.2-0.2-0.2-0.2-0.2l0,0.1c-0.1,0-0.1-0.1-0.2-0.2c0.1,0,0.1,0.1,0.1,0c-0.2,0,0-0.4-0.2-0.5
						c0-0.1,0.2-0.1,0.2-0.2c-0.2-0.1,0-0.3-0.2-0.5c-0.1,0.1-0.1,0.1-0.3,0l0.3,0.3l-0.3-0.1c0.1,0.1,0.2,0.2,0.2,0.3
						c-0.2-0.1-0.1-0.1-0.2,0c0.1-0.2-0.3-0.2-0.2-0.5L20.2,9c0-0.3-0.4-0.4-0.5-0.8l0,0.1c-0.2,0-0.1-0.2-0.2-0.3
						c0.1,0,0.1-0.1,0.2-0.2c-0.1,0-0.1-0.2-0.3-0.2l0.1-0.2c-0.1-0.3-0.5-0.2-0.5-0.4c0.2,0,0.2-0.1,0.3,0c0-0.1-0.1-0.2-0.1-0.1
						c0-0.1-0.3-0.2-0.2-0.3c-0.1,0-0.2,0-0.2-0.1c0,0,0.1,0,0.1,0c-0.1,0-0.1-0.1-0.2,0c0.2-0.4-0.4-0.7-0.2-1.1
						C18.2,5.2,18,5,17.9,4.8c0,0,0.1,0,0.1,0c0-0.3-0.4,0-0.4-0.3c0.1-0.2,0.2,0.1,0.2,0c0.3-0.2-0.2-0.3-0.1-0.6l0,0
						c0.1-0.2-0.3-0.3-0.4-0.5c0,0,0,0,0.1,0C17.2,3.3,17,3,16.9,2.8c0.2,0,0.1,0.1,0.2,0c-0.1-0.1-0.2,0.1-0.3,0
						c0-0.1,0.1-0.3,0.2-0.4l0.1,0.2c0.1-0.1,0.1-0.1,0-0.2c-0.1-0.1-0.1-0.2-0.2-0.2l0.1,0c-0.2-0.5-0.4-0.2-0.6-0.7l0,0.1
						c-0.2,0.1,0-0.4-0.2-0.3l0.1-0.4c-0.1-0.1-0.3-0.2-0.4-0.3c0.1-0.2,0.3-0.1,0.4,0c-0.1-0.2-0.3-0.6-0.3-0.4c0,0,0.1,0,0.1,0.1
						c-0.1,0.1-0.1,0.1-0.2,0.1c0,0-0.1,0-0.1-0.1c0,0,0,0,0,0.1l0,0.1c0-0.5-0.1-0.4-0.2-0.2c-0.1,0.2-0.3,0.4-0.4,0.3
						c-0.1,0.4-0.3,0.7-0.4,0.9c-0.2,0.3-0.4,0.5-0.6,0.9c0.4,0-0.1,0.2,0.2,0.4c0,0.1-0.1,0.2-0.1,0.2L13.9,3c-0.1,0,0-0.1-0.1-0.2
						c-0.1,0.2-0.2,0-0.4,0.1c0.1,0,0.1,0.2,0,0.3l0.3-0.1c0,0.4-0.4,0.1-0.4,0.5l-0.1-0.2c0,0.2-0.3,0.6-0.1,0.9
						c-0.1,0-0.2,0-0.1-0.1c-0.2,0.4-0.2,1-0.5,1.2l-0.1-0.1c0,0.1,0.1,0.2-0.1,0.3c0,0-0.1-0.1-0.1,0c0,0.1,0,0.3-0.1,0.3l0-0.1
						c-0.3,0.3-0.1,0.7-0.2,1c-0.2-0.1-0.5,0.1-0.6,0.2l0,0c-0.3,0.4-0.2,0.8-0.4,1.3c-0.4,0.1-0.6,0.8-1,1.1c0.1,0,0.2,0.1,0.2,0.2
						C9.9,9.7,10,10,9.8,9.9l0,0C9.6,9.8,9.5,10,9.4,10.2l0.3,0.2c-0.6,0.1-0.5,1.1-1,1.1c0,0.1-0.1,0.2-0.1,0.4l-0.1-0.1
						c-0.2,0.2-0.3,0.3-0.5,0.7L8,12.3c-0.1,0.2,0.3,0.5,0.2,0.7l-0.3-0.1c-0.2,0.3-0.6,0.5-0.6,0.9c0,0-0.1-0.1-0.1-0.1
						c-0.1,0.1-0.5,0.5-0.2,0.6c-0.2-0.1-0.2,0.3-0.2,0.5l-0.1-0.1c0.1,0.3,0.1,0.3,0.1,0.5c0,0-0.1,0-0.1-0.1
						c-0.2,0.1,0.1,0.2-0.1,0.3l0-0.1c-0.1,0.2-0.1,0.2,0,0.3c0,0.1-0.2,0.3-0.4,0.2c0.1,0.1,0.1,0.2,0,0.3c-0.1,0-0.1-0.1-0.1-0.1
						c-0.3,0.2-0.1,0.5-0.4,0.6c0,0-0.1,0-0.1,0c0.1-0.2,0.3-0.4,0.3-0.3c-0.1-0.1-0.3,0.1-0.4-0.2c0,0.2,0.1,0.6-0.1,0.7
						c0,0,0,0-0.1,0l0,0c0,0,0,0.1,0,0.1c-0.1,0-0.1,0.1-0.1,0.1C5.1,17,5,17.2,4.9,17.3c0.1,0.1,0.1,0.2,0.2,0.2c0,0,0,0,0-0.1
						c0,0,0,0,0,0l0,0c0-0.1,0.1-0.1,0.1-0.2c0,0.1,0,0.2-0.1,0.3c0.1,0.1,0.1,0.2,0.2,0.3c-0.3,0-0.5,0.1-0.7,0.1
						c-0.1,0.3-0.4,0.6-0.2,1c0,0.1-0.1,0-0.2,0c0-0.1,0-0.1,0-0.2c0,0.2-0.3,0.5-0.1,0.6C4,19.3,4.1,18.9,4,19.2l0-0.1
						c-0.6,0.3-0.1,1.1-0.8,1.4c0.1,0,0.1,0,0.1,0c-0.6,0.5-0.7,1.4-1.4,1.8c-0.2,0.1-0.1,0.2-0.1,0.4l-0.2-0.1l0,0.3
						c-0.1,0.3-0.7,0.2-0.7,0.7l0.1,0c-0.1,0.1-0.2,0.4-0.3,0.3c0,0,0.1,0.1,0,0.1l-0.1-0.1l-0.1,0.4c-0.2,0.2-0.3-0.3-0.5,0
						C0,24.7,0,25,0.1,25c0,0,0.1-0.1,0.2,0l0,0.1c0.2,0.2,0.4,0.5,0.7,0.3l0-0.3l0.2,0l-0.1,0.2c0.2,0,0.1-0.1,0.1-0.2
						c0.1,0,0.1,0,0.2,0l-0.1-0.3c0.1,0,0.1,0.2,0.3,0.1c0-0.2-0.3-0.1-0.2-0.3c0.2,0,0.2,0.1,0.2-0.1c0.1,0,0.1,0.1,0.1,0.1
						c0-0.1,0.2-0.3,0.1-0.4c0.2,0,0.2-0.3,0.4-0.2c0-0.1-0.1-0.3,0-0.4c0.1,0.3,0.3-0.3,0.5-0.1c-0.2-0.3,0.2-0.5,0.2-0.8
						c0,0,0,0.1,0,0.1c0.1-0.1,0.2-0.1,0.3-0.1C2.9,22.6,3,22.4,3,22.2c0.3,0,0.2,0.3,0.4,0.3c-0.2-0.1,0-0.4-0.1-0.4
						c0.2,0,0.1-0.1,0.3,0c-0.2-0.2,0-0.1-0.1-0.3c0.2-0.1,0.3,0.1,0.3-0.1C3.9,21.7,3.9,21.9,3.9,21.9z M6.3,17.4L6.3,17.4
						C6.3,17.4,6.3,17.4,6.3,17.4C6.3,17.4,6.3,17.4,6.3,17.4z M6.6,17c0,0-0.1,0.1-0.1,0.2c-0.1,0-0.1-0.1-0.1-0.1
						C6.4,17.1,6.5,17,6.6,17z M5.1,17.1C5.1,17,5.1,17,5.1,17.1C5.2,17.1,5.1,17.1,5.1,17.1L5.1,17.1C5.1,17.1,5.1,17.1,5.1,17.1z"
						/>
					<path fill="#FFFFFF" d="M5.2,17.3C5.2,17.3,5.2,17.3,5.2,17.3C5.2,17.4,5.2,17.3,5.2,17.3L5.2,17.3L5.2,17.3z"/>
					<path fill="#FFFFFF" d="M25.2,17.2L25.2,17.2C25.2,17.2,25.2,17.2,25.2,17.2C25.2,17.2,25.2,17.2,25.2,17.2z"/>
					<polygon fill="#FFFFFF" points="10.1,12.2 10,12.2 10.1,12.2 					"/>
					<path fill="#FFFFFF" d="M26.4,19.3C26.4,19.3,26.4,19.3,26.4,19.3C26.4,19.3,26.4,19.3,26.4,19.3z"/>
					<path fill="#FFFFFF" d="M27.2,20l0.1,0.1C27.2,20,27.2,20,27.2,20z"/>
					<path fill="#FFFFFF" d="M27.7,20.6C27.7,20.5,27.8,20.5,27.7,20.6L27.7,20.6L27.7,20.6z"/>
					<path fill="#FFFFFF" d="M19.6,10.9L19.6,10.9C19.6,10.8,19.6,10.8,19.6,10.9z"/>
					<path fill="#FFFFFF" d="M21.9,13.9c0,0-0.1,0-0.1-0.1C21.8,13.9,21.8,14,21.9,13.9z"/>
					<polygon fill="#FFFFFF" points="17.6,7.2 17.6,7.2 17.6,7.2 					"/>
					<path fill="#FFFFFF" d="M21.7,13.7c0,0.1,0,0.1,0.1,0.1C21.8,13.8,21.7,13.7,21.7,13.7z"/>
					<path fill="#FFFFFF" d="M30.4,22.7L30.4,22.7C30.4,22.7,30.4,22.7,30.4,22.7L30.4,22.7z"/>
					<path fill="#FFFFFF" d="M30.4,22.7L30.4,22.7C30.5,22.7,30.4,22.7,30.4,22.7z"/>
					<path fill="#FFFFFF" d="M30.6,22.8L30.6,22.8C30.5,22.8,30.5,22.8,30.6,22.8z"/>
					<path fill="#FFFFFF" d="M29.6,22L29.6,22C29.5,22.1,29.6,22.1,29.6,22z"/>
					<path fill="#FFFFFF" d="M29.3,21.9c0.1,0.1,0.1,0.2,0.2,0.3l0,0C29.4,22.1,29.4,21.8,29.3,21.9z"/>
					<path fill="#FFFFFF" d="M28.8,20.4l0.2,0.2c0-0.1,0-0.2,0.1-0.1C28.9,20.1,29,20.7,28.8,20.4z"/>
					<path fill="#FFFFFF" d="M28.2,19.8C28.3,19.9,28.3,19.8,28.2,19.8C28.2,19.7,28.2,19.7,28.2,19.8z"/>
					<path fill="#FFFFFF" d="M24.1,15.7l0.1-0.1C24.1,15.5,24.2,15.7,24.1,15.7z"/>
					<polygon fill="#FFFFFF" points="22.7,15.3 22.7,15.5 22.9,15.4 					"/>
					<polygon fill="#FFFFFF" points="23.2,14.1 23.3,14.1 23.1,14 					"/>
					<path fill="#FFFFFF" d="M18.6,5.5l-0.2,0.1C18.5,5.7,18.7,5.6,18.6,5.5z"/>
					<path fill="#FFFFFF" d="M16.5,1.3c0-0.2,0-0.4-0.1-0.4C16.4,1.1,16.4,1.3,16.5,1.3z"/>
					<polygon fill="#FFFFFF" points="9.4,10.4 9.3,10.3 9.3,10.5 					"/>
				</g>
			</g>
		</g>
	</g>
</g>
</svg>
