<?xml version="1.0" encoding="utf-8"?>
<!-- Generator: Adobe Illustrator 17.1.0, SVG Export Plug-In . SVG Version: 6.00 Build 0)  -->
<!DOCTYPE svg PUBLIC "-//W3C//DTD SVG 1.1//EN" "http://www.w3.org/Graphics/SVG/1.1/DTD/svg11.dtd">
<svg version="1.1" id="Layer_1" xmlns="http://www.w3.org/2000/svg" xmlns:xlink="http://www.w3.org/1999/xlink" x="0px" y="0px"
	 viewBox="0 0 63.7 33.2" enable-background="new 0 0 63.7 33.2" xml:space="preserve">
<g>
	<g>
		<path fill="none" d="M36.9,1.3c0,0,12.4,9.3,24.5,15.4c-10.1,4.6-15.2,5.9-22.2,15.8 M57.8,16.5h-57"/>
		<g>
			<g>
				<g>
					<path fill="#FFFFFF" d="M0.8,15.8c0,0.1,0,0.3,0.1,0.2L1,15.7L0.8,15.8z"/>
					<path fill="#FFFFFF" d="M1.4,16.4c0.1-0.2,0.2-0.4,0.1-0.7c-0.1,0.3-0.1,0.2-0.2,0.6c-0.1,0-0.1-0.1-0.1-0.2
						c0,0.1-0.1-0.1-0.2,0.1c0.1,0.3,0.2,0.3,0.4,0.1C1.4,16.3,1.4,16.4,1.4,16.4z"/>
					<path fill="#FFFFFF" d="M9.5,17L9.5,17C9.4,16.9,9.5,17,9.5,17z"/>
					<path fill="#FFFFFF" d="M14.5,17.1C14.4,17.2,14.4,17.2,14.5,17.1C14.5,17.2,14.5,17.2,14.5,17.1z"/>
					<path fill="#FFFFFF" d="M15.3,17.5C15.3,17.5,15.3,17.5,15.3,17.5C15.3,17.5,15.3,17.5,15.3,17.5z"/>
					<path fill="#FFFFFF" d="M9.5,17l0.1,0.1C9.6,17,9.5,17,9.5,17z"/>
					<path fill="#FFFFFF" d="M2.5,15.6C2.5,15.7,2.5,15.7,2.5,15.6C2.5,15.7,2.5,15.7,2.5,15.6C2.5,15.7,2.5,15.7,2.5,15.6z"/>
					<path fill="#FFFFFF" d="M7.3,17.2L7.3,17.2c-0.1,0-0.1,0.1-0.1,0.1L7.3,17.2z"/>
					<path fill="#FFFFFF" d="M5.6,17.3c0,0,0.1-0.3,0.1-0.4c0,0.1,0,0.2-0.1,0.2C5.6,17.1,5.6,17.2,5.6,17.3z"/>
					<path fill="#FFFFFF" d="M2.9,16.8L2.9,16.8C2.8,16.8,2.9,16.8,2.9,16.8z"/>
					<path fill="#FFFFFF" d="M8.5,17.3c0,0,0,0.1,0,0.1C8.5,17.4,8.5,17.3,8.5,17.3z"/>
					<path fill="#FFFFFF" d="M55.9,15.2C55.9,15.2,55.9,15.2,55.9,15.2C55.9,15.2,55.9,15.2,55.9,15.2z"/>
					<path fill="#FFFFFF" d="M57.8,16.6L57.8,16.6c0,0.1,0,0.1,0,0.2L57.8,16.6z"/>
					<path fill="#FFFFFF" d="M16.9,17.9C16.9,17.9,16.9,17.9,16.9,17.9C16.9,17.9,16.9,17.9,16.9,17.9z"/>
					<path fill="#FFFFFF" d="M31.3,17.7c-0.2-0.3,0.3-0.3,0-0.6C31.3,17.2,31.1,17.5,31.3,17.7z"/>
					<path fill="#FFFFFF" d="M2.5,15.7C2.6,15.7,2.6,15.7,2.5,15.7C2.6,15.7,2.6,15.7,2.5,15.7z"/>
					<path fill="#FFFFFF" d="M31.3,17.1C31.3,17.1,31.3,17.1,31.3,17.1L31.3,17.1C31.3,17,31.3,17.1,31.3,17.1z"/>
					<path fill="#FFFFFF" d="M20.5,17.7c0,0,0-0.1,0-0.1C20.5,17.6,20.5,17.6,20.5,17.7z"/>
					<path fill="#FFFFFF" d="M17.8,17.3L17.8,17.3C17.9,17.3,17.8,17.3,17.8,17.3z"/>
					<path fill="#FFFFFF" d="M21.9,17.3C21.9,17.3,22,17.4,21.9,17.3C22,17.3,22,17.3,21.9,17.3C22,17.3,21.9,17.3,21.9,17.3z"/>
					<path fill="#FFFFFF" d="M23.4,17.3C23.3,17.3,23.3,17.3,23.4,17.3C23.3,17.3,23.3,17.3,23.4,17.3L23.4,17.3z"/>
					<path fill="#FFFFFF" d="M51.5,15.3c0,0.1,0.1,0.2,0.1,0.3C51.5,15.4,51.7,15.3,51.5,15.3z"/>
					<path fill="#FFFFFF" d="M2.5,15.8c0-0.1,0-0.1,0-0.1c0,0,0,0,0,0C2.5,15.7,2.5,15.8,2.5,15.8z"/>
					<path fill="#FFFFFF" d="M22,15.1l0.2,0C22.1,15.1,22,15.1,22,15.1z"/>
					<path fill="#FFFFFF" d="M41,15.4L41,15.4C41.1,15.3,41.1,15.3,41,15.4z"/>
					<path fill="#FFFFFF" d="M22.9,15.1c0,0.1,0.1,0.2,0.1,0.2c0,0,0,0,0-0.1L22.9,15.1z"/>
					<path fill="#FFFFFF" d="M51.5,15.6C51.5,15.6,51.5,15.6,51.5,15.6C51.5,15.6,51.5,15.6,51.5,15.6z"/>
					<path fill="#FFFFFF" d="M53,14.9c-0.2,0-0.1,0.4-0.1,0.6c-0.3,0.1-0.1-0.3-0.2-0.5c-0.2,0.1-0.3,0.4-0.4,0.4c0-0.1,0-0.1,0-0.2
						c-0.2,0.3-0.5,0-0.7,0.4c0,0,0-0.1,0-0.1c0,0.2,0,0.4,0,0.5c-0.1,0-0.2,0.2-0.2,0c0.1,0,0.1-0.1,0.1-0.2L51.3,16
						c-0.1-0.3,0.1-0.1,0.1-0.4c-0.2,0.1-0.4,0.4-0.6,0.3c0-0.3,0.4-0.1,0.2-0.4l0.2,0.1c-0.2-0.5,0.1,0,0-0.5
						c-0.3-0.1-0.4,0.2-0.7,0.1c-0.1,0.2,0,0.3,0,0.5c-0.4,0.3-0.4-0.9-0.7-0.4c-0.1,0.2-0.1,0.7-0.4,0.4l0.1-0.4
						c-0.3,0-0.2,0.6-0.5,0.3c0.1-0.2,0.2-0.1,0.2-0.2c-0.2-0.3-0.1,0.2-0.3,0.2l0-0.3c-0.3,0.1-0.7,0.3-1,0.4c0-0.1,0.1-0.2,0-0.3
						c-0.5,0.2-1,0-1.4-0.2l-0.2,0.3c0,0-0.1-0.1,0-0.2c-0.2-0.1,0,0.2-0.1,0.3c-0.1,0-0.1-0.2-0.1-0.3c-0.3,0.2-0.9,0.5-1.2,0.2
						l0.1-0.1c-0.2-0.1-0.3,0.6-0.5,0.3l0-0.1c-0.5-0.1-1.1,0.1-1.5-0.3c-0.1,0.4-0.5-0.2-0.6,0.4c-0.3-0.3-0.2-0.4-0.6-0.6
						c-0.1,0-0.2,0.4-0.3,0.4l0-0.3l-0.2,0.3l-0.1-0.4l-0.1,0.1c0.1,0,0.1,0.1,0.1,0.2c-0.2,0.1-0.5-0.2-0.5-0.4l-0.5,0.3
						c0-0.1,0.1-0.2,0.2-0.2c-0.3,0.3,0-0.3-0.3,0c0,0.1,0,0.2,0,0.2c-0.1-0.2-0.4-0.2-0.6-0.1l0-0.2c-0.4-0.1-0.8,0.1-1.2,0.1
						c0.1,0.1,0.1,0.5,0,0.5l0-0.3c-0.1,0.2,0.1,0.1,0,0.4c-0.2,0-0.1-0.4,0-0.5L38,15.4c0-0.1,0-0.1,0-0.3c-0.1,0.2-0.3-0.3-0.4,0
						l0-0.1c-0.4,0-0.6,0.1-0.9,0.1c0,0.3-0.1,0.2-0.2,0.4c-0.2-0.1-0.5-0.3-0.8-0.3c-0.2,0.1-0.1,0.2-0.2,0.4
						c0-0.3-0.3-0.2-0.2-0.4c-0.4,0-0.5,0.1-0.9,0.3c0,0.1,0.1,0.2,0.1,0.2c-0.1,0-0.2-0.1-0.2-0.2l0,0c-0.5,0.4-1.2-0.7-1.6-0.2
						l0,0l-0.4,0.3c-0.2,0,0.1-0.2,0-0.4c-0.4,0.4-0.7-0.1-1.1,0.2c-0.3-0.8-1,0.1-1.4-0.4l0,0.2c-0.1,0.2-0.1-0.1-0.2-0.1
						c0,0.1,0.1,0.2,0,0.3c-0.8,0.2-1.7-0.3-2.6-0.4c-0.3,0-0.2,0.9-0.6,0.5l0.1-0.3c-0.6,0.4-1.3,0-1.9,0.3c0-0.1,0-0.2,0.1-0.2
						c-0.1-0.2-0.5,0-0.5,0.2c-0.1,0,0-0.2-0.1-0.3c-0.1-0.1-0.3,0.3-0.4,0.1c0,0,0-0.1,0.1-0.1c-0.1,0.1-0.4,0-0.3,0.2
						c-0.2-0.1-0.4,0.1-0.6,0c-0.1,0.3-0.4-0.1-0.4,0.3c0-0.5-0.4-0.4-0.6-0.2c0-0.1-0.1-0.1-0.1-0.3c-0.2,0-0.3,0.1-0.3,0.3
						c-0.3-0.5-0.6,0.4-0.8-0.3c-0.5,0.2-1,0.4-1.4,0.5c0-0.5,0.5,0,0.5-0.5c-0.4,0.2-0.7,0.6-1.1,0.5c-0.1-0.1,0.1-0.2,0.1-0.3
						c-0.4,0.2-0.8,0-1.2,0.2c0,0,0-0.1,0.1-0.1c-0.1,0-0.2-0.1-0.2,0.1l0.1-0.1c0.1,0.3-0.3,0.6-0.3,0.8c0.1-0.6-0.4-0.1-0.2-0.9
						c0,0-0.1,0.1-0.1,0.3c-0.1,0-0.1-0.1,0-0.3c-0.3,0.1-0.2,0.3-0.4,0.3c0-0.1,0.1-0.1,0.1-0.3c-0.1,0.2-0.2,0.4-0.5,0.3
						c0-0.1,0-0.1,0-0.1c-0.4,0-0.6,0.5-1,0.3c0.1-0.4-0.1-0.1-0.2-0.5L15,15.6l0.1,0.2c-0.2,0-0.3,0.3-0.5,0.1l0.1-0.2l-0.3,0.1
						l0.2,0.1c-0.2,0.2,0,0.5-0.2,0.4c0,0-0.2,0-0.3-0.2c0,0,0,0,0,0c-0.1,0.1-0.2,0.2-0.3,0.2c0-0.1,0-0.4,0-0.5
						c-0.1,0.3-0.4,0.1-0.5,0.4c0-0.1,0-0.3,0-0.3l-0.1,0.3C13,16,13,16,13,15.8c-0.3,0,0.1,0.5-0.2,0.3c0,0,0-0.1,0.1-0.1
						c-0.3-0.1-0.6,0.2-0.9,0c-0.1-0.4,0.2-0.1,0.1-0.4c-0.4,0.1-0.8,0.5-1.2,0.4l0.1,0c-0.1,0.5-0.3-0.3-0.5,0c0,0,0.1-0.3,0.1-0.2
						c-0.3-0.1-0.5,0.1-0.9,0.3l0.1-0.1c-0.2-0.1-0.4-0.1-0.6-0.1C9,15.9,9,15.9,9,16.1c-0.5-0.8-1,0.4-1.5-0.2
						c0.1,0,0.1-0.1,0.1-0.1l-0.4,0.1c0,0.2,0.1,0.1,0.1,0.3c-0.1,0.1-0.2,0.2-0.3,0.2c0.2-0.2,0-0.4-0.1-0.5c0,0.1,0,0.1,0,0.2
						c-0.2-0.4,0,0.5-0.3,0.2l0-0.1c-0.1,0.1-0.2,0.2-0.3,0.2c0-0.3,0.1-0.1,0.1-0.3c-0.2,0-0.3,0.5-0.5,0.2
						c0.1-0.1,0.2-0.1,0.2-0.1c-0.2-0.3-0.2-0.2-0.3-0.3l0,0l-0.3-0.1l0.1,0.1c-0.2,0.7-0.4,0.1-0.7,0.6c0.3-0.4,0-0.2,0.1-0.6
						c-0.1-0.1-0.2-0.2-0.1-0.3c-0.1,0.2-0.2-0.2-0.4,0.2c0-0.1-0.1,0-0.1-0.3c-0.2,0.1,0,0.2,0,0.3c-0.3,0.3-0.6-0.4-1,0.1
						c-0.3,0.2-0.4,0.5-0.7,0.7C2.8,16.4,3,16.2,3,16.2c-0.2-0.1-0.3-0.1-0.4,0c0-0.1,0-0.2,0-0.3c-0.1,0-0.1,0.4-0.2,0.2
						c0-0.1,0.1-0.3,0.1-0.4C2.3,15.8,2.1,16,2,16.1c0-0.2,0.1-0.3,0.1-0.4c-0.2,0.1-0.4,0.2-0.5,0.4l0.1,0.1c-0.1,0,0-0.2,0-0.3
						C1.9,15.8,2,16.1,2,16.2l-0.1,0.1c0.1,0.6,0.4-0.1,0.6-0.1l-0.1,0.4l0.2-0.3c0,0.1,0.1,0.3,0,0.4c0.2,0.2,0.1-0.1,0.3,0.1
						c0,0,0,0.1,0,0.1L3,16.7c0,0.1,0,0.3-0.1,0.2c0.3,0.2,0.4-0.3,0.5,0l0,0c0.4-0.1,0-0.3,0.3-0.7L4,17l0-0.3c0,0,0.1,0,0.1,0.2
						c0.1-0.2,0-0.1,0.1-0.3c0.2,0.3,0.5-0.1,0.5,0.4c0.1-0.2-0.2-0.2,0-0.3c0.1,0.5,0.2-0.1,0.4,0.2c-0.1,0.3-0.2,0.1,0,0.4
						c0.1-0.5,0.3,0.1,0.5,0c0-0.4,0.3-0.2,0.5-0.3c0,0.1,0.4,0.2,0.7,0.3l0,0.1c0-0.4,0.3-0.3,0.4-0.4c0,0.2,0,0.3-0.1,0.4l0.2,0
						c0-0.1,0.1-0.2,0.2-0.2l0,0.3c0.2,0,0.4-0.3,0.7-0.1c0-0.3-0.2-0.7,0.1-0.9c0,0.1,0,0.4-0.1,0.4c0,0,0.1-0.1,0.1-0.1l-0.1,0.2
						c0.1,0.1,0.1-0.2,0.2-0.2c0,0.2,0.1,0.1,0.1,0.3c0,0-0.1-0.1-0.1,0c0.1,0,0.2,0.2,0.3,0.3c0-0.1,0-0.3,0.1-0.3
						c0.2,0,0.1,0.2,0.2,0.3c0.1-0.1,0.2,0,0.2-0.3C9,17.1,9,17.2,9,17.3c0.1-0.1,0.5,0,0.4-0.4l0,0c0,0,0,0,0,0c0,0,0,0,0,0h0
						c0.4-0.3,0.7,0.2,1.1,0l0,0.1c0.2-0.1,0.5-0.1,0.6-0.3c0.1,0,0.1,0.2,0.1,0.3c0.2-0.1,0.2-0.2,0.4,0c-0.2,0.2,0.1,0.2-0.2,0.1
						c0.2,0.1,0.3,0.2,0.5,0c-0.1,0.3,0.2,0.3,0.3,0.2L12,17.2c0.1,0,0.2,0,0.3,0l-0.1,0.3c0.4,0.4,0.8-0.7,1.1,0
						c0.1-0.2-0.2-0.2-0.1-0.4c0.2,0,0.4,0.5,0.5,0.5c0.3,0.2,0.2-0.5,0.5-0.4c0-0.1-0.1-0.4,0.1-0.5c0.2,0,0.2,0.5,0.1,0.6
						c0,0-0.1,0-0.1-0.1c-0.1,0-0.1,0.1-0.1,0.2l0-0.1c0.1,0.1,0.4,0.1,0.3,0.3c0.1-0.1,0.1-0.2,0-0.3c0.3,0.2,0.4,0,0.6,0.1
						c0-0.1-0.1-0.2,0-0.2c0.4,0.1,0.2-0.2,0.4-0.3c0.1,0.2-0.1,0.4,0.2,0.3c0.2,0.1,0,0.3,0,0.4c0.2-0.2,0.4,0.2,0.6,0.2L16.3,18
						c0.1-0.1,0.1-0.1,0.2-0.1l-0.1-0.2c0.1,0,0.1,0,0.1,0.1c0.1-0.2-0.1-0.4,0.1-0.6c0.1,0.1,0.3-0.1,0.3,0.2
						c-0.3-0.1,0,0.3-0.2,0.4c0,0,0.1,0,0.2,0c0,0,0,0.1,0,0.1c0.3,0.3,0.1-0.4,0.4-0.3c0,0.2,0.1,0.3,0.1,0.3
						c-0.1,0-0.1-0.3,0.1-0.4c0.2,0.1,0.2-0.1,0.3-0.1l-0.1-0.1c0-0.2,0.1-0.2,0.3-0.2c0,0.1-0.1,0.1-0.1,0.2
						c0.1-0.3,0.3,0.3,0.5,0.1c0.1,0.1,0,0.3,0.1,0.4c0.2-0.2,0.3,0.2,0.5,0.1c-0.1-0.2-0.1-0.2,0.1-0.4l-0.4,0.2l0.3-0.3
						c-0.1,0-0.3,0.1-0.3,0.1c0.1-0.2,0.1-0.1,0.1-0.3c0.2,0.4,0.3-0.2,0.5,0l0,0.6c0.3,0.3,0.5-0.3,0.9-0.2L20,17.3
						c0.1-0.2,0.2,0,0.4-0.1c0,0.2,0.1,0.3,0.1,0.4c0-0.1,0.3,0,0.3-0.4l0.2,0.3c0.3,0.1,0.3-0.6,0.6-0.5c-0.1,0.2,0,0.4-0.2,0.5
						c0.1,0,0.2,0,0.2-0.1c0.1,0.1,0.3-0.3,0.4-0.1c0-0.1,0.1-0.3,0.2-0.3c0,0,0,0.1,0,0.1c0-0.1,0.2-0.1,0.1-0.4
						c0.3,0.6,0.8,0,1.1,0.5c0.2-0.1,0.5-0.1,0.7-0.1c0,0.1,0,0.1,0,0.1c0.3,0.2,0.2-0.6,0.5-0.4c0.2,0.3-0.2,0.2-0.1,0.3
						c0,0.6,0.4-0.1,0.6,0.3l0,0c0.2,0.2,0.4-0.2,0.6-0.2c0,0,0,0.1,0,0.1c0.2-0.3,0.5-0.4,0.8-0.5c-0.1,0.3-0.1,0.1-0.1,0.4
						c0.1,0,0-0.4,0.2-0.5c0.1,0.1,0.2,0.3,0.3,0.5l-0.2,0c0.1,0.4,0.3,0,0.4,0l0,0.2c0.3-0.1,0.3-0.4,0.7-0.4l0-0.1
						c0.2-0.4,0.2,0.2,0.3-0.1l0.1,0.4c0.1-0.1,0.4-0.4,0.7-0.5c-0.1,0.3-0.4,0.4-0.5,0.6c0.1,0,0.4,0,0.5-0.2c0,0-0.1,0.1-0.2,0.1
						c0.1-0.3,0.3-0.5,0.6-0.5c0,0.8,0.6,0.2,0.8,0.8c0.4-0.3,0.9,0.1,1.4,0.1c-0.2-0.6,0.1,0,0.1-0.6c0.1,0,0.2,0,0.2,0l0.4,0.4
						c0.1,0.2-0.1,0.1-0.1,0.3c0.3,0,0.1,0.3,0.3,0.4c0-0.2,0.1-0.3,0.2-0.2l-0.2-0.3c0.4-0.3,0.3,0.5,0.7,0.2L32.4,18
						c0.2-0.1,0.7,0,0.9-0.5c0,0.1,0.1,0.2,0,0.3c0.4,0.1,1-0.5,1.3-0.2l0,0.1c0.1,0,0.1-0.3,0.2-0.1c0,0.1,0,0.1,0,0.2
						c0-0.1,0.2-0.3,0.3-0.2L35,17.7c0.4,0.2,0.7-0.4,1-0.5c0,0.4,0.3,0.6,0.5,0.7l0,0.1c0.5,0.1,0.9-0.4,1.3-0.5
						c0.3,0.5,1,0.2,1.4,0.5c-0.1-0.1,0-0.3,0.1-0.4c0.1,0.1,0.3-0.3,0.3,0.1l0,0c0.1,0.4,0.3,0.3,0.5,0.3l0-0.5
						c0.5,0.8,1.2-0.3,1.4,0.4c0.1-0.1,0.2-0.1,0.4-0.3l0,0.3c0.3,0.1,0.5,0.1,0.8,0L42.7,18c0.2,0,0.3-0.8,0.5-0.8l0.1,0.4
						c0.4,0,0.7,0.4,1.1,0c0,0.1,0,0.2-0.1,0.2c0.2,0,0.7,0.3,0.6-0.3c0,0.4,0.4,0,0.6-0.1l0,0.3c0.2-0.4,0.2-0.5,0.4-0.6
						c0.1,0,0,0.2,0,0.2c0.2,0.1,0.1-0.3,0.4-0.1l-0.1,0.2c0.2,0,0.2-0.1,0.3-0.3c0.1-0.1,0.4,0.1,0.4,0.3c0-0.2,0.1-0.4,0.2-0.3
						c0,0.1,0,0.2,0,0.2c0.3,0.2,0.5-0.3,0.7-0.1c0,0.1,0,0.1,0,0.2c-0.3,0-0.5,0-0.4,0c0,0.3,0.2,0.3,0,0.7
						c0.2-0.2,0.4-0.6,0.6-0.5c0,0,0,0,0,0.1l0,0c0,0,0.1,0,0.1,0c0.1,0,0.1,0.1,0.2,0.1c0,0.2,0.2,0.1,0.3,0.1c0-0.3,0.1-0.2,0-0.5
						c0,0,0,0-0.1,0c0,0,0,0,0,0c0,0,0,0,0,0c-0.1,0-0.2,0-0.3,0c0.1-0.1,0.2-0.3,0.3-0.1c0.1-0.2,0.1-0.4,0.1-0.5
						c0.1,0.4,0.4,0.6,0.4,0.8c0.3-0.2,0.7-0.1,0.9-0.6c0.1-0.1,0.1,0.2,0.1,0.2c-0.1,0.1-0.1,0-0.1,0.1c0.2-0.1,0.5-0.1,0.6-0.4
						c0.2,0.2-0.1,0.3,0.2,0.3l0,0.1c0.6,0.6,1-0.9,1.7-0.2c0,0-0.1-0.1-0.1-0.1c0.8,0.3,1.6-0.3,2.3,0.2c0.2,0.1,0.2-0.1,0.4-0.3
						l0,0.3l0.2-0.3c0.3-0.3,0.6,0.7,1,0.3l-0.1-0.2c0.1,0,0.5-0.1,0.4,0.1c0,0,0-0.2,0.1-0.1l0,0.2l0.4-0.3c0.3,0.1,0,0.6,0.4,0.7
						c0.1-0.1,0.4-0.5,0.4-0.6c-0.1,0-0.2-0.1-0.2-0.3l0.1-0.1c0-0.5,0.1-0.9-0.2-1.3l-0.2,0.3l-0.1-0.2l0.2,0
						c-0.1-0.2-0.2,0-0.3,0.1c0-0.1-0.1-0.2-0.1-0.2l-0.2,0.4c0-0.2,0.1-0.4-0.1-0.5c-0.1,0.2,0.1,0.4-0.1,0.5
						c-0.1-0.2-0.1-0.4-0.2-0.2c0-0.1,0-0.2,0.1-0.2c-0.1,0.1-0.3,0.1-0.4,0.3c-0.1-0.3-0.4,0.1-0.4-0.4c0,0.1-0.2,0.3-0.3,0.4
						c0.2-0.5-0.4,0-0.4-0.6c-0.1,0.5-0.5,0.2-0.8,0.5c0,0,0-0.1,0.1-0.1c-0.1,0-0.2-0.2-0.3-0.3c0,0.4-0.2,0.5-0.4,0.7
						c-0.2-0.4,0.1-0.5,0.1-0.8c0,0.3-0.3,0.3-0.2,0.6c-0.1-0.2-0.1-0.1-0.2-0.4c0,0.5-0.1,0.1-0.2,0.4c-0.2-0.2-0.1-0.5-0.3-0.3
						C52.9,15.1,53,14.9,53,14.9z M47.9,15.8C47.9,15.7,47.9,15.7,47.9,15.8c0,0,0.1,0,0.1,0C48,15.7,48,15.7,47.9,15.8z M47.5,15.8
						c0.1,0,0.1,0,0.2,0c0,0.1,0,0.2,0,0.2C47.6,15.9,47.5,15.8,47.5,15.8z M48.4,17.7c-0.1,0-0.1,0-0.1-0.1c0,0,0.1,0,0.1,0
						c0,0,0,0,0,0C48.4,17.6,48.4,17.7,48.4,17.7z"/>
					<path fill="#FFFFFF" d="M48.5,17.3C48.5,17.3,48.5,17.3,48.5,17.3C48.5,17.3,48.5,17.3,48.5,17.3
						C48.5,17.3,48.5,17.3,48.5,17.3C48.5,17.3,48.5,17.3,48.5,17.3z"/>
					<path fill="#FFFFFF" d="M9.4,16.9L9.4,16.9C9.4,16.9,9.4,16.9,9.4,16.9C9.4,16.9,9.4,16.9,9.4,16.9z"/>
					<polygon fill="#FFFFFF" points="41.5,15.2 41.5,15.3 41.6,15.2 					"/>
					<path fill="#FFFFFF" d="M7,16C7,15.9,7,15.9,7,16C7,15.9,7,15.9,7,16z"/>
					<path fill="#FFFFFF" d="M6,15.9l-0.1-0.1C5.9,15.8,6,15.9,6,15.9z"/>
					<path fill="#FFFFFF" d="M5.2,15.8c0,0,0,0.1,0,0.1c0,0,0,0,0,0L5.2,15.8z"/>
					<path fill="#FFFFFF" d="M17.8,15.4C17.8,15.4,17.8,15.4,17.8,15.4C17.9,15.4,17.8,15.4,17.8,15.4z"/>
					<path fill="#FFFFFF" d="M14,16.1c0-0.1,0.1-0.1,0.1-0.1C14.1,15.9,14,15.9,14,16.1z"/>
					<path fill="#FFFFFF" d="M21.9,15.1C21.9,15.1,21.9,15.1,21.9,15.1C21.9,15.1,22,15.1,21.9,15.1L21.9,15.1z"/>
					<path fill="#FFFFFF" d="M14.3,15.9c-0.1-0.1-0.1,0-0.2,0C14.2,16,14.3,16,14.3,15.9z"/>
					<path fill="#FFFFFF" d="M1.8,15.6L1.8,15.6C1.8,15.6,1.8,15.6,1.8,15.6L1.8,15.6z"/>
					<path fill="#FFFFFF" d="M1.8,15.7L1.8,15.7C1.7,15.7,1.8,15.7,1.8,15.7z"/>
					<path fill="#FFFFFF" d="M1.6,15.8L1.6,15.8C1.7,15.7,1.6,15.7,1.6,15.8z"/>
					<path fill="#FFFFFF" d="M2.8,15.8l0-0.1C2.9,15.7,2.8,15.7,2.8,15.8z"/>
					<path fill="#FFFFFF" d="M3.2,15.7c-0.1,0-0.2-0.2-0.3-0.2l0,0.1C2.9,15.5,3.1,15.9,3.2,15.7z"/>
					<path fill="#FFFFFF" d="M4.5,17l-0.3-0.1c0,0.1,0.1,0.3,0,0.3C4.5,17.5,4.1,16.9,4.5,17z"/>
					<path fill="#FFFFFF" d="M5.3,17.1c-0.1,0.1,0,0.2,0,0.2C5.4,17.3,5.4,17.2,5.3,17.1z"/>
					<path fill="#FFFFFF" d="M11.3,17.1l0,0.3C11.4,17.4,11.3,17.3,11.3,17.1z"/>
					<polygon fill="#FFFFFF" points="12.4,15.8 12.3,15.7 12.3,15.9 					"/>
					<polygon fill="#FFFFFF" points="13.1,17.6 13,17.7 13.2,17.6 					"/>
					<path fill="#FFFFFF" d="M23.1,17.6l0-0.3C23,17.3,23,17.6,23.1,17.6z"/>
					<path fill="#FFFFFF" d="M27.4,17.2c0,0.2,0.2,0.3,0.2,0.1C27.6,17.3,27.5,17.2,27.4,17.2z"/>
					<polygon fill="#FFFFFF" points="40.4,17.7 40.3,17.8 40.5,17.8 					"/>
				</g>
			</g>
		</g>
		<g>
			<g>
				<g>
					<path fill="#FFFFFF" d="M38.7,32.1c0.1,0.1,0.2,0.2,0.2,0.1l-0.2-0.2L38.7,32.1z"/>
					<path fill="#FFFFFF" d="M39.6,32c-0.1-0.2-0.2-0.4-0.5-0.6c0.2,0.3,0.1,0.2,0.3,0.5c0,0.1-0.2,0.1-0.3,0c0.1,0.1-0.1,0.1,0,0.2
						c0.3,0.1,0.4,0,0.3-0.3C39.5,31.9,39.5,31.9,39.6,32z"/>
					<path fill="#FFFFFF" d="M45.2,26.3L45.2,26.3C45.1,26.3,45.1,26.3,45.2,26.3z"/>
					<path fill="#FFFFFF" d="M49.1,23.4C49.1,23.4,49.1,23.5,49.1,23.4C49.1,23.5,49.1,23.4,49.1,23.4z"/>
					<path fill="#FFFFFF" d="M50,23.3C50,23.3,50,23.3,50,23.3C50,23.3,50,23.3,50,23.3z"/>
					<path fill="#FFFFFF" d="M45.2,26.3l0.2,0C45.3,26.2,45.2,26.3,45.2,26.3z"/>
					<path fill="#FFFFFF" d="M39.6,30.6c0,0,0,0.1,0,0.1C39.6,30.7,39.6,30.7,39.6,30.6L39.6,30.6z"/>
					<path fill="#FFFFFF" d="M43.8,28L43.8,28c0,0.1,0,0.1,0,0.1L43.8,28z"/>
					<path fill="#FFFFFF" d="M42.8,29.2c0,0-0.2-0.2-0.3-0.3c0.1,0.1,0.1,0.1,0.1,0.2C42.6,29.2,42.7,29.2,42.8,29.2z"/>
					<path fill="#FFFFFF" d="M40.7,31L40.7,31C40.7,31.1,40.7,31,40.7,31z"/>
					<path fill="#FFFFFF" d="M44.7,27.2C44.7,27.2,44.7,27.2,44.7,27.2C44.7,27.2,44.7,27.2,44.7,27.2z"/>
					<path fill="#FFFFFF" d="M37.7,3.5C37.8,3.5,37.8,3.5,37.7,3.5C37.7,3.5,37.7,3.5,37.7,3.5z"/>
					<polygon fill="#FFFFFF" points="37,1.2 37,1.2 37.1,1.1 					"/>
					<path fill="#FFFFFF" d="M51.5,22.8L51.5,22.8C51.5,22.9,51.5,22.9,51.5,22.8z"/>
					<path fill="#FFFFFF" d="M60.2,14.7c0,0.3-0.6,0-0.6,0.4C59.7,15,60.3,15,60.2,14.7z"/>
					<path fill="#FFFFFF" d="M39.7,30.6C39.7,30.6,39.7,30.6,39.7,30.6C39.7,30.6,39.7,30.6,39.7,30.6z"/>
					<path fill="#FFFFFF" d="M59.6,15.1L59.6,15.1L59.6,15.1C59.6,15.1,59.6,15.1,59.6,15.1z"/>
					<path fill="#FFFFFF" d="M54.5,21.1C54.5,21.1,54.5,21,54.5,21.1C54.5,21,54.5,21.1,54.5,21.1z"/>
					<path fill="#FFFFFF" d="M52,21.9L52,21.9C52,21.9,52,21.9,52,21.9z"/>
					<path fill="#FFFFFF" d="M55.6,20.2C55.6,20.2,55.7,20.2,55.6,20.2C55.7,20.1,55.7,20.1,55.6,20.2
						C55.7,20.2,55.7,20.2,55.6,20.2z"/>
					<polygon fill="#FFFFFF" points="56.9,19.6 56.9,19.5 56.8,19.6 					"/>
					<path fill="#FFFFFF" d="M41.4,5.9c0-0.1,0.1-0.2,0.1-0.2C41.4,5.9,41.2,5.8,41.4,5.9z"/>
					<path fill="#FFFFFF" d="M39.7,30.7c-0.1,0-0.1-0.1-0.1-0.1C39.6,30.6,39.6,30.6,39.7,30.7C39.7,30.7,39.7,30.7,39.7,30.7z"/>
					<path fill="#FFFFFF" d="M54.7,18.1l0.2-0.1C54.9,18.1,54.8,18.1,54.7,18.1z"/>
					<path fill="#FFFFFF" d="M50.2,11.6L50.2,11.6C50.1,11.6,50.1,11.6,50.2,11.6z"/>
					<path fill="#FFFFFF" d="M55.6,17.8c0.1,0.1,0.1,0.1,0.2,0.1c0,0,0,0,0-0.1L55.6,17.8z"/>
					<path fill="#FFFFFF" d="M41.5,5.7L41.5,5.7L41.5,5.7z"/>
					<path fill="#FFFFFF" d="M39.9,5.4c0.2,0.1,0.3-0.2,0.5-0.4c0.3,0.1-0.1,0.3-0.1,0.5c0.2,0,0.5-0.2,0.6-0.1c0,0.1,0,0.1-0.1,0.1
						c0.3-0.1,0.4,0.3,0.8,0.1c0,0,0,0.1,0,0.1c0.1-0.2,0.2-0.3,0.3-0.4c0.1,0.1,0.3-0.1,0.2,0.1c0,0-0.1,0-0.2,0.1l0.1,0
						c-0.1,0.3-0.2,0-0.3,0.2c0.2,0,0.6-0.1,0.7,0.1C42.1,6,41.9,5.6,41.9,6l-0.1-0.2c-0.2,0.5-0.1-0.1-0.3,0.5
						c0.2,0.3,0.4,0.1,0.6,0.3c0.2-0.1,0.1-0.2,0.3-0.4c0.6,0-0.2,0.9,0.3,0.7c0.2-0.1,0.5-0.5,0.5-0.2L43,7c0.2,0.2,0.5-0.4,0.6,0
						c-0.1,0.1-0.3,0-0.3,0c0,0.4,0.2-0.1,0.4,0l-0.2,0.3c0.3,0.1,0.7,0.1,1.1,0.3c-0.1,0.1-0.2,0.1-0.2,0.3c0.5,0.1,0.8,0.6,1,1
						l0.3-0.2c0,0,0,0.2-0.1,0.2c0.1,0.2,0.1-0.2,0.2-0.2c0.1,0,0,0.2-0.1,0.3c0.4,0,1,0,1.1,0.5l-0.1,0c0.1,0.2,0.6-0.4,0.6,0
						l-0.1,0c0.4,0.4,1,0.5,1.1,1.1c0.3-0.3,0.3,0.4,0.7,0c0.1,0.4,0,0.5,0.2,0.8c0.1,0.1,0.3-0.2,0.5-0.2l-0.2,0.3l0.3-0.2
						l-0.1,0.4l0.2,0c0,0,0-0.2,0-0.2c0.2,0,0.3,0.5,0.2,0.6l0.6,0c-0.1,0.1-0.2,0.1-0.3,0.1c0.4-0.1-0.1,0.3,0.2,0.2
						c0-0.1,0.1-0.1,0.1-0.2c0,0.2,0.2,0.4,0.4,0.4l-0.1,0.2c0.3,0.2,0.7,0.3,1.1,0.5c-0.1-0.2,0.1-0.5,0.3-0.4l-0.1,0.3
						c0.2-0.1,0-0.2,0.2-0.3c0.1,0.1-0.1,0.4-0.2,0.4l0.2,0c0,0.1-0.1,0.1-0.2,0.2c0.2-0.1,0.1,0.4,0.4,0.2l0,0.1
						c0.4,0.2,0.6,0.2,0.9,0.4c0.1-0.2,0.2-0.1,0.4-0.3c0.2,0.2,0.3,0.5,0.6,0.7c0.2,0,0.2-0.2,0.3-0.3c-0.1,0.2,0.2,0.4-0.1,0.4
						c0.3,0.1,0.4,0.2,0.9,0.2c0-0.1,0-0.2,0.1-0.2c0.1,0,0.1,0.2,0,0.3l0,0c0.6-0.1,0.7,1.2,1.3,0.9l0,0l0.5,0
						c0.1,0.1-0.2,0.1-0.1,0.3c0.7-0.1,0.3,0.2,0.6,0.1c-0.3,0.3-0.3,0.3-0.2,0.3c0.1,0,0.3,0-0.1,0.1l0.3,0c0.3,0-0.1,0-0.2,0
						c0.2,0,0.3,0,0.4-0.1c0.1,0,0.2,0,0.2,0.1c0,0,0,0.1-0.2,0.1c-0.4,0-0.8,0-0.9,0c-0.1,0,1.3,0.4,0.6,0.3c0,0-0.1,0-0.2-0.1
						c-0.1,0-0.2-0.1-0.2-0.1c0.2,0.1,0.1,0.2,0,0.2c-0.1,0-0.2,0.1-0.2,0.3c0-0.1-0.1-0.2,0-0.2c0-0.1-0.2-0.1-0.2,0
						c-0.1,0.1-0.1,0.2-0.1,0.3c-0.1,0-0.1-0.2-0.2-0.2c-0.2-0.1-0.2,0.4-0.3,0.2c0,0,0-0.1,0-0.1c0,0.1-0.4,0.1-0.2,0.4
						c-0.3,0-0.4,0.3-0.6,0.2c0,0.3-0.4,0-0.3,0.4c-0.2-0.4-0.5-0.2-0.6,0.1c0-0.1-0.2-0.1-0.2-0.3c-0.2,0.1-0.3,0.2-0.1,0.4
						c-0.5-0.4-0.4,0.7-0.8,0.1c-0.4,0.4-0.7,0.8-1.1,1.1c-0.2-0.4,0.4-0.3,0.2-0.7c-0.3,0.4-0.4,0.8-0.8,0.9c-0.1,0,0-0.2,0-0.3
						c-0.3,0.4-0.8,0.3-1,0.7c0,0,0-0.1,0-0.1c-0.1,0.1-0.2,0-0.1,0.2l0-0.1c0.2,0.2,0,0.7,0.1,0.8c-0.2-0.6-0.4,0.1-0.6-0.7
						c0,0.1,0,0.2,0,0.3c-0.1,0-0.1-0.1-0.2-0.2c-0.2,0.2,0,0.4-0.2,0.5c0-0.1,0-0.1-0.1-0.3c0,0.2,0,0.5-0.3,0.5
						c0-0.1-0.1-0.1,0-0.1c-0.3,0.2-0.3,0.7-0.7,0.8c-0.1-0.4-0.2-0.1-0.4-0.4c0,0-0.1,0.2-0.1,0.2l0.2,0.1
						c-0.2,0.1-0.1,0.4-0.3,0.4l0-0.2l-0.2,0.3l0.2,0c0,0.3,0.3,0.4,0,0.4c0-0.1-0.2,0.1-0.4,0l0,0c0,0.2,0,0.3-0.2,0.3
						c-0.1-0.1-0.2-0.4-0.3-0.4c0.1,0.3-0.3,0.3-0.2,0.7c0-0.1-0.1-0.2-0.2-0.3l0.1,0.2c-0.1,0-0.2,0-0.2-0.2
						c-0.2,0.1,0.3,0.3,0,0.3c0,0,0-0.1,0-0.1c-0.3,0.1-0.4,0.5-0.7,0.5c-0.3-0.2,0.1-0.2-0.1-0.4c-0.3,0.3-0.4,0.9-0.7,1.1l0.1,0
						c0.3,0.4-0.4,0-0.4,0.3c0-0.1-0.1-0.3-0.1-0.2c-0.3,0.1-0.3,0.5-0.5,0.9l-0.1-0.1c-0.2,0-0.4,0.2-0.5,0.3
						c0.1,0.1,0,0.2,0.1,0.3c-1-0.2-0.4,1-1.2,0.9c0,0,0-0.2,0-0.1l-0.2,0.4c0.2,0.1,0.1,0.1,0.3,0.1c0.1,0.1,0.1,0.3,0,0.4
						c0-0.2-0.3-0.3-0.4-0.3c0.1,0,0.1,0.1,0.2,0.2c-0.4-0.1,0.3,0.3-0.1,0.4l-0.1-0.1c0,0.1,0,0.3-0.1,0.4c-0.2-0.1,0-0.2-0.2-0.3
						c-0.1,0.1,0.2,0.6-0.1,0.5c0-0.1,0.1-0.2,0-0.3c-0.3-0.1-0.3,0-0.4,0l0,0l-0.3,0.1l0.1,0c0.4,0.6-0.2,0.4,0,0.9
						c-0.2-0.5-0.2-0.2-0.4-0.4c-0.1,0-0.3,0-0.3-0.1c0.1,0.3-0.3,0-0.1,0.4c-0.1-0.1-0.1,0.1-0.3-0.1c0,0.2,0.2,0.1,0.2,0.2
						c0.1,0.4-0.7,0.2-0.5,0.8c0,0.4,0.2,0.6,0.1,1c-0.2,0-0.2-0.3-0.2-0.3c-0.2,0-0.3,0.2-0.3,0.3c0-0.1-0.1-0.1-0.2-0.1
						c-0.1,0.1,0.2,0.3,0,0.3c-0.1-0.1-0.2-0.2-0.2-0.3c0,0.2,0,0.4,0,0.6c-0.2-0.1-0.2-0.2-0.2-0.3c0,0.2-0.1,0.4,0,0.6l0.1,0
						c0,0.1-0.2-0.1-0.2-0.2c-0.1-0.2,0.2-0.1,0.3-0.1l0,0.1c0.5,0.3,0.2-0.4,0.3-0.5l0.3,0.3l-0.1-0.4c0.1,0,0.3,0.1,0.3,0.3
						c0.3,0,0-0.2,0.2-0.2c0,0,0,0,0.1,0l0-0.2c0.1,0.1,0.2,0.2,0.1,0.2c0.3-0.1,0-0.5,0.3-0.4l0,0c0.1-0.4-0.2-0.2-0.3-0.7l0.7,0.3
						l-0.2-0.2c0,0,0.1-0.1,0.2,0c-0.1-0.2-0.1-0.1-0.2-0.3c0.3,0,0.2-0.5,0.6-0.2c-0.1-0.2-0.2,0-0.3-0.2c0.4,0.3,0.1-0.2,0.4-0.2
						c0.2,0.2,0,0.2,0.3,0.3c-0.3-0.4,0.3-0.2,0.3-0.3c-0.3-0.2,0.1-0.3,0.2-0.6c0.1,0.1,0.4-0.2,0.7-0.3l0,0c-0.2-0.3,0-0.4,0-0.6
						c0.2,0.2,0.2,0.2,0.2,0.4l0.1-0.1c-0.1-0.1-0.1-0.2,0-0.3l0.2,0.2c0.1-0.2,0-0.5,0.3-0.6c-0.2-0.2-0.7-0.3-0.6-0.7
						c0.1,0.1,0.3,0.2,0.3,0.3c0,0,0-0.1,0.1-0.1l0.1,0.2c0.2,0-0.1-0.2,0-0.2c0.1,0.1,0.1,0,0.2,0.2c0,0-0.1,0-0.1,0.1
						c0.1-0.1,0.3-0.1,0.4,0c-0.1-0.1-0.2-0.2-0.2-0.3c0.1-0.2,0.2,0.1,0.4,0.1c-0.1-0.1,0.1-0.1-0.1-0.3c0,0,0.1,0.1,0.2,0.1
						c0-0.2,0.3-0.3,0-0.5l0,0c0,0,0,0,0,0l0,0l0,0c0.1-0.4,0.7-0.3,0.8-0.7l0.1,0.1c0.1-0.2,0.3-0.3,0.3-0.6c0,0,0.2,0,0.3,0.2
						c0.1-0.2,0-0.3,0.3-0.3c0,0.2,0.1,0.1,0,0.2c0.2-0.1,0.3,0,0.3-0.3c0.1,0.2,0.3,0.2,0.4,0.1l-0.2-0.1c0.1-0.1,0.2-0.1,0.2-0.2
						l0.2,0.3c0.6,0.1,0.2-1,0.8-0.6c0-0.3-0.3,0-0.4-0.3c0.2-0.1,0.6,0.2,0.7,0.2c0.3,0-0.1-0.5,0.2-0.6c-0.1-0.1-0.3-0.3-0.2-0.5
						c0.2-0.1,0.5,0.3,0.4,0.4c0,0-0.1,0-0.1,0c0,0.1-0.1,0.2,0.1,0.2l0-0.1c0.1,0,0.3-0.1,0.4,0.1c0.1-0.2-0.1-0.2-0.2-0.2
						c0.3,0,0.3-0.2,0.6-0.2c-0.1,0-0.2-0.1-0.1-0.2c0.4-0.1,0-0.3,0.2-0.4c0.2,0.1,0.2,0.4,0.3,0.1c0.2,0,0.2,0.3,0.2,0.4
						c0.1-0.3,0.4-0.1,0.6-0.1L51,23.2c0-0.1,0.1-0.1,0.1-0.1L51,22.9c0.1,0,0.1,0,0.2,0.1c0-0.2-0.2-0.3-0.2-0.6
						c0.1,0.1,0.2-0.3,0.4,0c-0.3,0.1,0.2,0.3,0,0.4c0-0.1,0.1-0.1,0.2-0.1c0,0,0,0.1,0,0.1c0.4,0.1-0.1-0.4,0.2-0.5
						c0.1,0.2,0.2,0.3,0.2,0.2c-0.1,0.1-0.2-0.2-0.2-0.4c0.2,0,0.1-0.2,0.2-0.2l-0.1,0c0-0.2,0-0.2,0.1-0.3c0.1,0.1-0.1,0.1,0,0.2
						c0-0.4,0.4,0.1,0.5-0.1c0.1,0.1,0.2,0.3,0.3,0.3c0.1-0.3,0.3,0.1,0.5-0.2c-0.2-0.2-0.2-0.1-0.1-0.4l-0.3,0.3l0.1-0.4
						c-0.1,0-0.2,0.2-0.2,0.2c0-0.2,0-0.2-0.1-0.3c0.3,0.2,0.2-0.3,0.5-0.2l0.3,0.5c0.4,0.1,0.3-0.5,0.7-0.5l-0.2,0
						c-0.1-0.2,0.2-0.1,0.3-0.3c0.1,0.2,0.2,0.2,0.3,0.3c-0.1-0.1,0.2-0.1,0.1-0.5l0.3,0.2c0.3,0,0.1-0.7,0.4-0.7
						c0,0.2,0.2,0.3,0.1,0.5c0.1,0,0.2,0,0.1-0.2c0.1,0.1,0.1-0.4,0.3-0.2c0-0.1-0.1-0.3,0-0.3c0,0,0,0.1,0,0.1
						c0-0.1,0.1-0.2-0.1-0.4c0.5,0.4,0.7-0.4,1.2,0c0.2-0.1,0.4-0.3,0.5-0.4c0,0.1,0,0.1,0,0.1c0.3,0.1-0.1-0.6,0.3-0.5
						c0.3,0.2-0.1,0.2,0.1,0.3c0.2,0.3,0.2,0.2,0.3,0.1c0.1-0.1,0.2-0.2,0.4-0.1l0,0.1c0.3,0.1,0.4-0.4,0.7-0.5c0,0,0,0.1,0.1,0.1
						c0-0.4,0.2-0.6,0.4-0.8c0.2,0.2,0,0.1,0.4,0.3c0.1-0.1-0.5-0.2-0.3-0.4c0.2,0,0.6,0,0.9,0.2L60.3,18c0.6,0.1,0.3-0.2,0.5-0.2
						l0.2,0.1c0.4-0.2-0.2-0.4,0.2-0.5l-0.2,0c-0.5-0.2,0.6,0,0.3-0.2l0.8,0.1c0-0.1-0.2-0.3-0.2-0.4c0.5,0.1,0.5,0.3,0.6,0.4
						c0.2-0.1,0.5-0.3,0.2-0.3c0,0,0.1,0.1,0,0.1c-0.2-0.1-0.4-0.1-0.4-0.2c0,0,0-0.1,0-0.1c0,0-0.1-0.1-0.2-0.1
						c0.9,0,0.8-0.1,0.6-0.2c-0.2-0.1-0.4-0.3-0.1-0.4c-0.6-0.1-0.8-0.3-1-0.5c-0.2-0.2-0.5-0.4-0.9-0.6c-0.4,0.5-0.2-0.1-0.8,0.3
						c-0.2,0-0.2-0.1-0.2-0.1c0,0-0.1-0.5-0.2-0.5c0-0.2,0.3,0,0.3-0.1c-0.4-0.2,0-0.3-0.2-0.6c-0.1,0.2-0.3,0.2-0.5,0
						c0,0,0.2,0.4,0.2,0.4c-0.4,0-0.3-0.1-0.4-0.3c0-0.1,0-0.3-0.2-0.2l0.2-0.1c-0.2,0-0.6-0.3-1,0c0-0.1,0-0.2,0.1-0.2
						c-0.3-0.3-1.1,0-1.2-0.4l0.1-0.1c-0.1,0-0.3,0.2-0.3,0c0-0.1,0.1-0.1,0.1-0.1c-0.1,0-0.3,0.1-0.4,0l0.2-0.1
						c-0.3-0.4-0.8,0-1.1-0.1c0.2-0.4,0-0.7-0.1-0.8l0-0.1c-0.4-0.3-0.9-0.1-1.4-0.2c0-0.6-0.7-0.6-1-1.1c0,0.1-0.2,0.3-0.3,0.3
						c0-0.1-0.4,0.1-0.2-0.2l0,0c0.1-0.4-0.1-0.4-0.2-0.5l-0.3,0.4c0-0.9-1.2-0.4-1-1.1c-0.2,0.1-0.3,0-0.4,0l0.2-0.2
						c-0.2-0.2-0.3-0.3-0.7-0.5l0.2-0.1C50,8.3,49.5,9,49.3,8.9l0.2-0.4c-0.3-0.2-0.4-0.7-0.9-0.6c0,0,0.1-0.1,0.2-0.1
						c-0.1-0.1-0.4-0.6-0.7-0.1c0.2-0.3-0.3-0.2-0.6-0.2l0.2-0.2c-0.3,0.2-0.4,0.3-0.6,0.2c0-0.1,0.1-0.2,0.1-0.1
						c-0.1-0.2-0.3,0.1-0.4-0.1L47,7.3c-0.1-0.1-0.2,0-0.4,0.1c-0.2,0-0.3-0.3-0.1-0.5C46.3,7,46.1,7.1,46.1,7
						c0-0.1,0.1-0.1,0.1-0.1c-0.2-0.3-0.6,0-0.6-0.3c0-0.1,0.1-0.1,0.1-0.2C45.9,6.5,46,6.6,46,6.6c0.1-0.2,0-0.4,0.3-0.6
						c-0.2,0.1-0.7,0.3-0.8,0.1c0,0,0-0.1,0-0.1l0,0c0,0-0.1,0-0.1,0c0-0.1,0-0.1-0.1-0.2c0.1-0.2-0.1-0.2-0.2-0.3
						c-0.1,0.2-0.2,0.1-0.3,0.4c0,0,0,0,0.1,0c0,0,0,0,0.1,0l0,0c0.1,0,0.1,0.1,0.2,0.1c-0.1,0.1-0.3,0.1-0.3-0.1
						c-0.1,0.1-0.3,0.2-0.4,0.3c0.1-0.4,0-0.7,0.1-1c-0.3,0-0.7-0.3-1.1,0c-0.1,0,0-0.2,0-0.3c0.1,0,0.1,0,0.2,0
						c-0.2,0-0.5-0.3-0.7,0c-0.1-0.3,0.3-0.2,0-0.3l0.1-0.1c-0.2-0.8-1.3,0.2-1.5-0.8c0,0.1,0,0.1,0,0.2c-0.4-0.7-1.5-0.6-1.8-1.5
						c-0.1-0.2-0.3,0-0.5,0l0.1-0.3l-0.4,0.2c-0.4,0,0-0.9-0.6-0.8l-0.1,0.2c-0.1-0.1-0.4-0.2-0.3-0.3c0,0-0.2,0.1-0.1,0l0.1-0.1
						l-0.4,0c-0.2-0.3,0.4-0.5,0.1-0.7c-0.2,0-0.6,0.1-0.6,0.2c0,0,0.1,0.2,0,0.3l-0.2,0c-0.3,0.4-0.7,0.7-0.6,1.1l0.4-0.1l-0.1,0.2
						l-0.2-0.1c0,0.2,0.1,0.1,0.3,0.1c-0.1,0.1-0.1,0.2-0.1,0.3l0.4-0.2c-0.1,0.2-0.3,0.2-0.2,0.4c0.2-0.1,0.2-0.4,0.4-0.4
						c0,0.2-0.2,0.4,0.1,0.3C37.3,2.9,37.3,3,37.2,3c0.2,0,0.3,0.1,0.5,0c-0.1,0.3,0.4,0.2,0.1,0.5c0.1-0.1,0.4-0.2,0.5-0.1
						c-0.5,0.3,0.3,0.3-0.1,0.7c0.4-0.3,0.6,0.1,0.9,0.1c0,0-0.1,0.1-0.1,0c0.1,0.1,0,0.3,0.1,0.4c0.2-0.3,0.5-0.3,0.7-0.4
						c-0.1,0.4-0.4,0.3-0.5,0.6c0.2-0.3,0.4-0.1,0.5-0.3c0,0.3,0,0.2-0.1,0.5c0.3-0.4,0.2,0,0.4-0.2c0,0.3-0.2,0.4,0,0.4
						C40.1,5.3,39.9,5.4,39.9,5.4z M44.6,7.6L44.6,7.6c0,0-0.1,0-0.1,0C44.5,7.5,44.5,7.5,44.6,7.6z M45,7.8c0,0-0.1-0.1-0.1-0.1
						c0-0.1,0.1-0.2,0.1-0.1C44.9,7.6,45,7.7,45,7.8z M45.3,5.7c0.1,0,0.1,0.1,0,0.1C45.3,5.8,45.3,5.8,45.3,5.7l-0.1,0.1
						C45.2,5.7,45.3,5.7,45.3,5.7z"/>
					<path fill="#FFFFFF" d="M45,5.9C45,5.9,45,5.9,45,5.9C44.9,5.9,44.9,6,45,5.9L45,5.9L45,5.9z"/>
					<path fill="#FFFFFF" d="M45.1,26.3L45.1,26.3C45.1,26.3,45.1,26.3,45.1,26.3C45.1,26.3,45.1,26.3,45.1,26.3z"/>
					<polygon fill="#FFFFFF" points="49.7,11.5 49.7,11.4 49.6,11.4 					"/>
					<path fill="#FFFFFF" d="M42.7,27.3C42.7,27.3,42.7,27.3,42.7,27.3C42.7,27.3,42.7,27.3,42.7,27.3z"/>
					<path fill="#FFFFFF" d="M42,28l-0.2,0C41.9,28,42,28,42,28z"/>
					<path fill="#FFFFFF" d="M41.3,28.5C41.4,28.6,41.4,28.6,41.3,28.5L41.3,28.5L41.3,28.5z"/>
					<path fill="#FFFFFF" d="M51.1,20.3C51.1,20.3,51.1,20.3,51.1,20.3C51.1,20.2,51.1,20.2,51.1,20.3z"/>
					<path fill="#FFFFFF" d="M48.2,22.8c0-0.1,0-0.1,0-0.2C48.1,22.6,48.1,22.6,48.2,22.8z"/>
					<polygon fill="#FFFFFF" points="54.7,18.1 54.7,18.1 54.7,18.1 					"/>
					<path fill="#FFFFFF" d="M48.3,22.5c-0.1,0-0.1,0-0.1,0.1C48.2,22.6,48.3,22.6,48.3,22.5z"/>
					<path fill="#FFFFFF" d="M39.1,31.2L39.1,31.2C39.1,31.2,39.1,31.2,39.1,31.2L39.1,31.2z"/>
					<path fill="#FFFFFF" d="M39.1,31.2L39.1,31.2C39.2,31.3,39.2,31.2,39.1,31.2z"/>
					<path fill="#FFFFFF" d="M39.1,31.4l0-0.1C39.1,31.3,39.1,31.3,39.1,31.4z"/>
					<path fill="#FFFFFF" d="M39.9,30.4L39.9,30.4C39.8,30.4,39.8,30.4,39.9,30.4z"/>
					<path fill="#FFFFFF" d="M40.1,30.1c-0.1,0-0.3,0-0.3,0.1l0.1,0.1C39.7,30.2,40.1,30.3,40.1,30.1z"/>
					<path fill="#FFFFFF" d="M41.8,29.9L41.6,30c0.1,0,0.3,0.1,0.2,0.2C42.3,30.2,41.6,30.1,41.8,29.9z"/>
					<path fill="#FFFFFF" d="M42.5,29.3c-0.1,0.1,0.1,0.1,0.2,0.1C42.6,29.4,42.6,29.3,42.5,29.3z"/>
					<path fill="#FFFFFF" d="M46.6,25.3l0.2,0.2C46.8,25.4,46.7,25.4,46.6,25.3z"/>
					<polygon fill="#FFFFFF" points="46.7,23.5 46.5,23.4 46.6,23.7 					"/>
					<polygon fill="#FFFFFF" points="48.3,24.6 48.3,24.7 48.4,24.5 					"/>
					<path fill="#FFFFFF" d="M56.8,19.9l-0.2-0.3C56.6,19.7,56.7,20,56.8,19.9z"/>
					<path fill="#FFFFFF" d="M61.5,17.5c0.3,0,0.7,0,0.5-0.1C61.8,17.4,61.5,17.4,61.5,17.5z"/>
					<polygon fill="#FFFFFF" points="52,9.9 52.1,9.9 51.9,9.9 					"/>
				</g>
			</g>
		</g>
	</g>
</g>
</svg>
