<?xml version="1.0" encoding="utf-8"?>
<!-- Generator: Adobe Illustrator 18.0.0, SVG Export Plug-In . SVG Version: 6.00 Build 0)  -->
<!DOCTYPE svg PUBLIC "-//W3C//DTD SVG 1.1//EN" "http://www.w3.org/Graphics/SVG/1.1/DTD/svg11.dtd">
<svg version="1.1" id="Layer_1" xmlns="http://www.w3.org/2000/svg" xmlns:xlink="http://www.w3.org/1999/xlink" x="0px" y="0px"
	 viewBox="0 0 43.3 43.9" enable-background="new 0 0 43.3 43.9" xml:space="preserve">
<g>
	<g>
		<path fill="none" d="M36.3,15.1c0,0,2.2,15.3,6.4,28.2c-10.3-3.9-14.9-6.6-26.8-4.5 M40.3,40.6L0,0.3"/>
		<g>
			<g>
				<g>
					<path fill="#FFFFFF" d="M0.3,0C0.2,0,0.2,0.1,0.2,0.2l0.2-0.1L0.3,0z"/>
					<path fill="#FFFFFF" d="M0.4,0.7c0.1,0,0.3,0,0.4-0.2c-0.2,0.1-0.2,0-0.4,0.1c-0.1,0-0.1-0.1,0-0.2c-0.1,0-0.1-0.1-0.2-0.1
						c0,0.2,0.1,0.3,0.2,0.3C0.5,0.6,0.4,0.6,0.4,0.7z"/>
					<path fill="#FFFFFF" d="M5.9,6.6L5.9,6.6C5.9,6.6,5.9,6.6,5.9,6.6z"/>
					<path fill="#FFFFFF" d="M9.4,10.2C9.3,10.2,9.3,10.2,9.4,10.2C9.3,10.2,9.4,10.2,9.4,10.2z"/>
					<path fill="#FFFFFF" d="M9.8,11C9.8,11,9.8,11,9.8,11C9.8,11,9.8,11,9.8,11z"/>
					<path fill="#FFFFFF" d="M5.9,6.6l0,0.1C6,6.7,5.9,6.7,5.9,6.6z"/>
					<path fill="#FFFFFF" d="M1.6,1.1C1.5,1.1,1.5,1.1,1.6,1.1C1.5,1.1,1.5,1.1,1.6,1.1C1.5,1.1,1.5,1.1,1.6,1.1z"/>
					<path fill="#FFFFFF" d="M4.2,5.2L4.2,5.2c-0.1,0-0.1,0-0.1,0L4.2,5.2z"/>
					<path fill="#FFFFFF" d="M3,4c0,0,0.2-0.1,0.2-0.1C3.2,3.9,3.1,3.9,3,4C3.1,3.9,3,3.9,3,4z"/>
					<path fill="#FFFFFF" d="M1.3,1.9L1.3,1.9C1.3,1.9,1.3,1.9,1.3,1.9z"/>
					<path fill="#FFFFFF" d="M5.1,6C5,6.1,5,6.1,5.1,6C5,6.1,5.1,6.1,5.1,6z"/>
					<path fill="#FFFFFF" d="M39.5,38.6C39.5,38.6,39.5,38.6,39.5,38.6C39.5,38.6,39.5,38.6,39.5,38.6z"/>
					<path fill="#FFFFFF" d="M40.3,40.6L40.3,40.6C40.2,40.6,40.2,40.7,40.3,40.6L40.3,40.6z"/>
					<path fill="#FFFFFF" d="M10.8,12.3C10.8,12.3,10.8,12.2,10.8,12.3C10.7,12.2,10.7,12.2,10.8,12.3z"/>
					<path fill="#FFFFFF" d="M21,22.3c0-0.2,0.3,0,0.3-0.2C21.3,22.1,20.9,22.1,21,22.3z"/>
					<path fill="#FFFFFF" d="M1.6,1.1C1.6,1.2,1.6,1.2,1.6,1.1C1.6,1.2,1.6,1.2,1.6,1.1z"/>
					<path fill="#FFFFFF" d="M21.3,22.1C21.3,22.1,21.3,22.1,21.3,22.1L21.3,22.1C21.3,22.1,21.3,22.1,21.3,22.1z"/>
					<path fill="#FFFFFF" d="M13.4,14.7C13.4,14.7,13.4,14.7,13.4,14.7C13.4,14.7,13.4,14.7,13.4,14.7z"/>
					<path fill="#FFFFFF" d="M11.7,12.7L11.7,12.7C11.7,12.7,11.7,12.7,11.7,12.7z"/>
					<path fill="#FFFFFF" d="M14.5,15.5C14.6,15.6,14.6,15.6,14.5,15.5C14.6,15.6,14.6,15.6,14.5,15.5
						C14.6,15.6,14.6,15.6,14.5,15.5z"/>
					<path fill="#FFFFFF" d="M15.6,16.6C15.6,16.6,15.6,16.5,15.6,16.6C15.6,16.5,15.6,16.5,15.6,16.6L15.6,16.6z"/>
					<path fill="#FFFFFF" d="M36.3,35.6c0,0.1,0,0.1-0.1,0.2C36.3,35.6,36.5,35.7,36.3,35.6z"/>
					<path fill="#FFFFFF" d="M1.5,1.2C1.5,1.1,1.5,1.1,1.5,1.2C1.6,1.1,1.5,1.1,1.5,1.2C1.5,1.1,1.5,1.2,1.5,1.2z"/>
					<path fill="#FFFFFF" d="M15.6,14.6l0.1,0.2C15.7,14.7,15.6,14.7,15.6,14.6z"/>
					<path fill="#FFFFFF" d="M28.9,28.2L28.9,28.2C29,28.2,29,28.2,28.9,28.2z"/>
					<path fill="#FFFFFF" d="M16.2,15.3c0,0.1,0,0.1,0,0.2c0,0,0,0,0.1,0L16.2,15.3z"/>
					<path fill="#FFFFFF" d="M36.3,35.7C36.3,35.7,36.3,35.7,36.3,35.7C36.3,35.7,36.3,35.7,36.3,35.7z"/>
					<path fill="#FFFFFF" d="M37.6,36.5c-0.2-0.2-0.2,0.1-0.4,0.1c-0.2-0.1,0-0.2,0.1-0.4c-0.2-0.1-0.4,0-0.5-0.1c0,0,0-0.1,0.1-0.1
						c-0.3,0-0.4-0.4-0.7-0.3c0,0,0,0,0-0.1c-0.1,0.1-0.1,0.2-0.2,0.2c-0.1-0.1-0.2,0-0.2-0.2c0,0,0.1,0,0.1,0l-0.1,0
						c0.1-0.2,0.2,0,0.3-0.1c-0.2-0.1-0.5-0.1-0.5-0.3c0.1-0.2,0.3,0.2,0.3-0.1l0.1,0.2c0.1-0.4,0.1,0.1,0.2-0.3
						c-0.2-0.3-0.3-0.2-0.5-0.4c-0.1,0-0.1,0.1-0.2,0.2c-0.5-0.2,0.1-0.6-0.3-0.7c-0.2,0-0.4,0.2-0.4-0.1l0.2-0.1
						c-0.2-0.2-0.4,0.1-0.5-0.2c0.1,0,0.2,0.1,0.2,0.1c0-0.3-0.2,0-0.3-0.1l0.1-0.2c-0.3-0.2-0.6-0.3-0.9-0.6c0.1,0,0.1,0,0.1-0.1
						c-0.4-0.2-0.7-0.7-0.9-1.1l-0.2,0c0,0,0-0.1,0.1-0.1c-0.1-0.2-0.1,0.1-0.2,0.1c-0.1-0.1,0-0.2,0.1-0.2
						c-0.3-0.1-0.8-0.4-0.9-0.7l0.1,0c-0.1-0.2-0.5,0.1-0.5-0.2l0.1,0c-0.3-0.4-0.9-0.7-1-1.2c-0.2,0.1-0.3-0.5-0.6-0.2
						c-0.1-0.3,0-0.3-0.2-0.7c-0.1-0.1-0.3,0-0.4,0l0.1-0.1l-0.3,0l0.1-0.2L29,28.2c0,0,0,0.1,0,0.2c-0.2-0.1-0.3-0.5-0.2-0.5
						l-0.5-0.2c0.1,0,0.1,0,0.2,0c-0.3,0,0.1-0.2-0.2-0.2c0,0.1-0.1,0.1-0.1,0.1c0-0.2-0.2-0.4-0.4-0.5L28,27
						c-0.2-0.3-0.6-0.5-0.9-0.8c0.1,0.1-0.1,0.3-0.2,0.2l0.1-0.2c-0.1,0,0,0.1-0.2,0.1c-0.1-0.1,0.1-0.2,0.2-0.2l-0.2-0.1
						c0-0.1,0.1,0,0.2-0.1c-0.1,0-0.1-0.4-0.3-0.3l0,0c-0.3-0.3-0.5-0.4-0.7-0.6c-0.1,0.1-0.2,0-0.4,0c-0.1-0.2-0.2-0.5-0.4-0.7
						c-0.2-0.1-0.1,0.1-0.3,0.1c0.1-0.1-0.1-0.3,0.1-0.3c-0.3-0.2-0.3-0.3-0.8-0.5c0,0.1,0,0.1-0.1,0.2c-0.1,0-0.1-0.2,0-0.2l0,0
						c-0.5-0.2-0.5-1.1-1-1.2l0,0l-0.4-0.2c-0.1-0.2,0.2,0,0.1-0.2c-0.5-0.1-0.5-0.5-0.9-0.7c0.1-0.5-0.7-0.7-0.8-1.2l-0.1,0.1
						c-0.1,0,0-0.1-0.1-0.2c-0.1,0.1,0,0.1-0.1,0.1c-0.7-0.5-1.1-1.3-1.7-2c-0.2-0.2-0.5,0.3-0.6-0.2l0.2-0.1
						c-0.6-0.3-0.9-0.9-1.5-1.2c0.1,0,0.1,0,0.1,0c0-0.2-0.3-0.4-0.4-0.3c-0.1-0.1,0.1-0.1,0.1-0.2c0-0.2-0.4-0.1-0.3-0.3
						c0,0,0.1,0,0.1,0c-0.1,0-0.3-0.3-0.3-0.1c-0.1-0.2-0.4-0.3-0.4-0.5c-0.2,0-0.2-0.3-0.4-0.2c0.2-0.2-0.1-0.5-0.3-0.5
						c0.1,0,0-0.2,0.1-0.2c-0.1-0.1-0.3-0.2-0.3-0.1c0-0.5-0.6-0.3-0.5-0.7c-0.5-0.2-0.9-0.5-1.2-0.8c0.2-0.2,0.4,0.3,0.6,0.1
						c-0.4-0.2-0.7-0.2-1-0.6c-0.1-0.1,0.1,0,0.2,0c-0.4-0.2-0.6-0.6-0.9-0.8c0,0,0.1,0,0.1,0c-0.1,0-0.1-0.2-0.2-0.1l0.1,0
						c0,0.2-0.5,0.1-0.6,0.1c0.3-0.2-0.2-0.3,0.3-0.5c-0.1,0-0.1,0-0.2,0c0-0.1,0-0.1,0.1-0.1c-0.2-0.1-0.3,0-0.4-0.2
						c0,0,0.1,0,0.2-0.1c-0.2,0-0.3,0-0.5-0.2c0,0,0.1-0.1,0.1,0c-0.3-0.2-0.7-0.2-0.8-0.6c0.3-0.1,0-0.2,0.1-0.3l-0.2-0.1l0,0.1
						C10.3,9.9,10,9.9,10,9.7l0.2,0L9.9,9.5l0.1,0.2c-0.2,0-0.2,0.2-0.3,0c0.1,0-0.1-0.1-0.1-0.3c0,0,0,0,0,0c-0.1,0-0.2,0-0.3-0.2
						c0-0.1,0.2-0.2,0.2-0.2C9.2,9.1,9.1,8.8,8.9,8.9C8.9,8.9,9,8.8,9,8.8L8.9,8.8c0-0.1,0-0.1,0.1-0.2c-0.2-0.2-0.2,0.3-0.3,0
						c0,0,0,0,0.1,0C8.6,8.3,8.3,8.2,8.1,8c0.1-0.2,0.2,0.1,0.3-0.1c-0.3-0.3-0.8-0.4-1-0.7l0,0.1C7.1,7.5,7.3,7,7.1,6.9
						c0.1,0,0.2-0.1,0.1-0.1C7.1,6.6,6.8,6.5,6.4,6.3l0.1,0C6.4,6.1,6.2,6,6.2,5.8C6.1,5.9,6,5.8,6,5.9c0-0.7-0.9-0.5-0.9-1.1
						c0,0,0.1,0,0.1,0L4.8,4.6c-0.1,0.1,0,0.1,0,0.2c-0.1,0-0.2,0-0.3-0.1c0.2,0.1,0.2-0.2,0.2-0.3c0,0-0.1,0.1-0.1,0.1
						c0-0.3-0.2,0.2-0.3-0.1l0.1,0C4.2,4.3,4,4.3,4,4.2c0.1-0.2,0.1,0,0.2-0.1C4.1,4,3.8,4.1,3.8,3.9C3.9,3.9,3.9,4,4,4
						c0-0.2,0-0.2-0.1-0.3l0,0L3.8,3.4l0,0.1C3.4,3.7,3.5,3.3,3.1,3.3c0.4,0,0.1-0.1,0.3-0.2c0-0.1,0-0.2,0-0.2
						C3.2,2.9,3.3,2.7,3,2.7c0,0-0.1-0.1,0-0.2C2.9,2.4,3,2.6,3,2.6C2.6,2.6,2.7,2,2.2,2c-0.3-0.1-0.5,0-0.8-0.2
						c0-0.1,0.2-0.1,0.2-0.1C1.6,1.5,1.5,1.5,1.4,1.4c0.1,0,0.1-0.1,0.1-0.2C1.4,1.2,1.3,1.3,1.2,1.2c0.1,0,0.2-0.1,0.3-0.1
						C1.3,1,1.1,1,1,0.9c0-0.1,0.2,0,0.3-0.1C1.1,0.8,0.9,0.6,0.7,0.7l0,0.1c0,0,0.1-0.1,0.1-0.1C1.1,0.7,1,0.9,1,1l-0.1,0
						C0.7,1.2,1.2,1.2,1.3,1.3L1.1,1.5l0.3,0c0,0.1-0.1,0.2-0.2,0.2c0,0.2,0.2,0,0.2,0.2c0,0,0,0,0,0l0.2,0.1C1.4,1.9,1.4,2.1,1.3,2
						c0.1,0.3,0.4,0.2,0.4,0.4l0,0C2,2.5,1.8,2.2,2.2,2.3L2,2.7l0.2-0.1c0,0,0.1,0.1,0,0.1c0.2,0,0-0.1,0.2-0.1
						c0,0.3,0.4,0.3,0.2,0.5c0.1-0.1,0-0.2,0.2-0.1C2.5,3.3,2.9,3.2,2.9,3.4C2.8,3.5,2.7,3.3,2.8,3.5C3,3.4,2.9,3.8,3.1,3.9
						C3.2,3.7,3.4,4,3.6,4.2c-0.1,0,0.2,0.4,0.3,0.6l0,0c0.2-0.1,0.3,0.1,0.5,0.1C4.3,5,4.2,5,4.1,5l0.1,0.1c0.1,0,0.1,0,0.2,0
						L4.3,5.3c0.2,0.1,0.4,0.2,0.5,0.4C4.9,5.6,5,5.2,5.3,5.3C5.2,5.4,5.1,5.5,5,5.5c0,0,0.1,0,0.1,0.1L5,5.6c0,0.1,0.1,0,0.2,0
						c-0.1,0.1,0,0.1-0.1,0.2c0,0,0-0.1-0.1-0.1C5.1,5.8,5.1,5.9,5.1,6C5.1,6,5.2,5.9,5.2,6c0.2,0.1-0.1,0.2,0,0.3
						c0.1,0,0.1,0.1,0.3,0c0,0,0,0.1,0,0.2c0.1,0,0.4,0.3,0.4,0.1l0,0c0,0,0,0,0,0c0,0,0,0,0,0l0,0c0.4,0.1,0.4,0.6,0.7,0.8l0,0
						c0.2,0.1,0.4,0.3,0.6,0.3c0,0,0,0.2,0,0.2c0.1,0.1,0.2,0,0.3,0.3c-0.2,0,0,0.1-0.2-0.1c0.1,0.2,0.1,0.3,0.3,0.3
						c-0.2,0.1,0,0.2,0.1,0.3l0-0.2c0.1,0.1,0.2,0.1,0.2,0.2L7.7,8.8c0.1,0.5,0.8,0.2,0.8,0.8c0.2,0-0.1-0.2,0.1-0.3
						c0.1,0.2,0.1,0.5,0.1,0.6c0.1,0.3,0.4,0,0.5,0.2c0-0.1,0.1-0.2,0.3-0.1c0.1,0.2,0,0.4-0.2,0.3c0,0,0-0.1,0-0.1
						c-0.1,0-0.1-0.1-0.1,0l0.1,0c0,0.1,0.2,0.3,0.1,0.3c0.2,0.1,0.1,0,0.1-0.1c0.1,0.3,0.3,0.3,0.4,0.5c0-0.1,0-0.1,0.1-0.1
						c0.2,0.3,0.2,0,0.4,0.2c0,0.2-0.2,0.2,0,0.3c0.1,0.2-0.1,0.2-0.2,0.2c0.3,0.1,0.2,0.4,0.3,0.5l-0.1,0c0.1,0,0.1,0.1,0.2,0.1
						l0.1-0.2c0,0.1,0.1,0.1,0,0.2c0.1,0,0.1-0.2,0.3-0.2c0,0.1,0.3,0.2,0.2,0.3c-0.2-0.3-0.1,0.2-0.3,0c0.1,0,0.1,0.1,0.1,0.1
						c0,0,0,0-0.1,0c0.1,0.3,0.3-0.1,0.5,0.2c-0.1,0.1-0.1,0.2,0,0.2c-0.1-0.1,0.1-0.2,0.2-0.2c0.1,0.2,0.2,0.1,0.3,0.2l-0.1-0.1
						c0.1-0.1,0.2,0,0.3,0.1c-0.1,0.1-0.1,0-0.1,0c0.2,0,0.1,0.4,0.3,0.4c0,0.1-0.1,0.2-0.1,0.2c0.3,0.1,0.1,0.3,0.3,0.4
						c0.1-0.2,0-0.1,0.2-0.1l-0.4-0.2l0.3,0c-0.1-0.1-0.2-0.1-0.3-0.2c0.2,0,0.1,0,0.2-0.1c0,0.3,0.3,0.1,0.4,0.4l-0.3,0.3
						c0.1,0.3,0.5,0.2,0.7,0.6l0-0.1c0.1-0.1,0.2,0.2,0.3,0.2c-0.1,0.1-0.1,0.2-0.1,0.3c0.1-0.1,0.2,0.2,0.4,0.1l0,0.2
						c0.2,0.3,0.5,0,0.7,0.2c-0.2,0-0.1,0.2-0.3,0.1c0.1,0.1,0.1,0.1,0.2,0.1c0,0.1,0.3,0.1,0.3,0.2c0.1,0,0.2-0.1,0.2,0
						c0,0,0,0,0,0c0,0,0.2,0.1,0.2-0.1c-0.1,0.5,0.6,0.6,0.6,1c0.2,0.1,0.4,0.3,0.5,0.4c0,0,0,0-0.1,0c0.1,0.3,0.4-0.1,0.5,0.2
						c0,0.2-0.2,0-0.2,0.1c-0.3,0.3,0.3,0.2,0.3,0.5l-0.1,0c0,0.2,0.4,0.2,0.5,0.4c0,0,0,0,0,0c0.3,0,0.6,0.2,0.8,0.3
						c-0.2,0.1-0.1,0-0.2,0.1c0.1,0.1,0.2-0.2,0.3-0.1c0,0.1,0,0.3-0.1,0.4l-0.2-0.1C17.7,19,18,18.9,18,19l-0.1,0.1
						c0.2,0.2,0.4,0,0.7,0.3l0-0.1c0.3,0,0,0.2,0.3,0.2l-0.1,0.2c0.1,0,0.5,0.1,0.7,0.3c-0.2,0-0.5-0.1-0.7-0.1
						c0.1,0.1,0.3,0.3,0.4,0.2c-0.1,0-0.1,0-0.1-0.1c0.2,0,0.4,0,0.6,0.2c-0.4,0.3,0.4,0.5,0.2,0.9c0.4,0.2,0.6,0.7,0.9,1
						c0.1-0.4,0.1,0.1,0.4-0.2c0.1,0.1,0.1,0.1,0.1,0.1l0.1,0.4c0,0.1-0.1,0-0.2,0c0.2,0.2,0,0.2,0,0.4c0.1-0.1,0.2-0.1,0.3,0.1
						l0-0.3c0.4,0.1,0,0.4,0.4,0.6l-0.2,0c0.2,0.1,0.5,0.5,0.8,0.4c0,0.1-0.1,0.2-0.1,0.1c0.3,0.3,0.9,0.5,1,0.8l-0.1,0
						c0.1,0,0.2,0,0.2,0.1c0,0-0.1,0-0.1,0.1c0.1,0,0.3,0,0.3,0.2l-0.1,0c0.2,0.4,0.6,0.3,0.9,0.5c-0.2,0.2,0,0.5,0.1,0.6l0,0
						c0.3,0.4,0.8,0.4,1.2,0.7c0,0.4,0.6,0.8,0.8,1.2c0-0.1,0.2-0.1,0.2-0.1c0,0.1,0.3,0.1,0.2,0.2l0,0c-0.1,0.2,0.1,0.3,0.2,0.5
						l0.3-0.2c0,0.7,1,0.7,0.8,1.2c0.1,0,0.2,0.1,0.4,0.1l-0.1,0.1c0.2,0.2,0.3,0.4,0.6,0.6l-0.1,0c0.1,0.2,0.5-0.2,0.7,0l-0.1,0.2
						c0.3,0.3,0.4,0.7,0.8,0.8c0,0-0.1,0.1-0.1,0c0.1,0.1,0.4,0.6,0.6,0.3c-0.2,0.2,0.3,0.3,0.5,0.4L31,32.3c0.3,0,0.3-0.1,0.5,0
						c0,0.1-0.1,0.1-0.1,0c0.1,0.2,0.2,0,0.3,0.2l-0.1,0c0.1,0.1,0.2,0.1,0.3,0.1c0.1,0,0.2,0.3,0.1,0.4c0.1,0,0.2-0.1,0.3,0
						c0,0.1-0.1,0-0.1,0c0.1,0.3,0.5,0.2,0.5,0.5c0,0,0,0.1,0,0.1c-0.2-0.2-0.3-0.3-0.3-0.3c-0.1,0.1,0,0.3-0.3,0.3
						c0.2,0,0.6,0,0.7,0.2c0,0,0,0,0,0.1l0,0c0,0,0.1,0.1,0.1,0.1c0,0.1,0,0.1,0.1,0.2c-0.1,0.1,0.1,0.2,0.2,0.3
						c0.1-0.1,0.2,0,0.2-0.2c0,0,0,0-0.1,0c0,0,0,0,0,0c0,0,0,0,0,0c-0.1,0-0.1-0.1-0.2-0.2c0.1,0,0.2,0,0.2,0.2
						c0.1,0,0.2-0.1,0.3-0.1c-0.1,0.3,0,0.6-0.1,0.7c0.3,0.2,0.6,0.5,0.9,0.4c0.1,0,0,0.1,0,0.2c-0.1,0-0.1-0.1-0.2,0
						c0.2,0.1,0.4,0.4,0.6,0.2c0.1,0.2-0.2,0.1,0,0.3l-0.1,0c0.2,0.7,1.1,0.3,1.3,1.1c0-0.1,0-0.1,0-0.1c0.4,0.7,1.3,1,1.6,1.7
						c0.1,0.2,0.2,0.1,0.4,0.1L38,39l0.3,0c0.3,0.1,0.1,0.7,0.6,0.8l0.1-0.1c0.1,0.1,0.4,0.3,0.3,0.4c0,0,0.1-0.1,0.1,0l-0.1,0.1
						l0.4,0.1c0.1,0.2-0.3,0.2,0,0.5c0.1,0.1,0.5,0.1,0.5,0c0,0-0.1-0.2,0-0.2l0.1,0.1c0.2-0.2,0.5-0.3,0.4-0.7l-0.3,0l0-0.2
						l0.1,0.1c0-0.2-0.1-0.1-0.2-0.1c0-0.1,0.1-0.1,0-0.2l-0.4,0c0.1-0.1,0.2-0.1,0.2-0.2c-0.2,0-0.1,0.3-0.3,0.2
						c0-0.2,0.1-0.2-0.1-0.2c0-0.1,0.1-0.1,0.2-0.1c-0.1,0-0.2-0.2-0.4-0.1c0-0.2-0.3-0.2-0.1-0.4c-0.1,0-0.3,0-0.4-0.1
						c0.4-0.1-0.3-0.3,0-0.5c-0.3,0.1-0.5-0.3-0.8-0.3c0,0,0.1,0,0.1,0c-0.1-0.1-0.1-0.2-0.1-0.3c-0.2,0.2-0.4,0-0.6,0.1
						c0-0.3,0.3-0.1,0.4-0.3c-0.1,0.1-0.4-0.1-0.4,0.1c0-0.2,0-0.1,0.1-0.3c-0.2,0.2-0.1-0.1-0.3,0c0-0.2,0.2-0.2-0.1-0.3
						C37.4,36.5,37.6,36.5,37.6,36.5z M33.6,33.3C33.6,33.3,33.6,33.3,33.6,33.3C33.7,33.3,33.7,33.3,33.6,33.3
						C33.7,33.3,33.7,33.3,33.6,33.3z M33.3,32.9c0,0,0.1,0.1,0.1,0.1c0,0.1-0.1,0.1-0.1,0.1C33.4,33.1,33.3,33,33.3,32.9z
						 M33.1,34.4c-0.1,0-0.1-0.1,0-0.1C33.1,34.4,33.1,34.4,33.1,34.4C33.2,34.4,33.2,34.4,33.1,34.4C33.2,34.4,33.1,34.4,33.1,34.4
						z"/>
					<path fill="#FFFFFF" d="M33.4,34.4C33.4,34.4,33.4,34.4,33.4,34.4C33.4,34.4,33.4,34.3,33.4,34.4
						C33.4,34.3,33.3,34.3,33.4,34.4C33.3,34.4,33.3,34.4,33.4,34.4z"/>
					<path fill="#FFFFFF" d="M5.9,6.5L5.9,6.5C5.9,6.5,5.9,6.5,5.9,6.5C5.9,6.5,5.9,6.5,5.9,6.5z"/>
					<polygon fill="#FFFFFF" points="29.3,28.5 29.3,28.5 29.4,28.5 					"/>
					<path fill="#FFFFFF" d="M4.6,4.4C4.6,4.4,4.6,4.4,4.6,4.4C4.6,4.4,4.6,4.4,4.6,4.4z"/>
					<path fill="#FFFFFF" d="M3.9,3.7L3.9,3.5C3.9,3.6,3.9,3.7,3.9,3.7z"/>
					<path fill="#FFFFFF" d="M3.4,3.1C3.4,3.1,3.4,3.1,3.4,3.1C3.4,3.1,3.4,3.1,3.4,3.1L3.4,3.1z"/>
					<path fill="#FFFFFF" d="M12.4,11.8C12.5,11.8,12.5,11.8,12.4,11.8C12.5,11.8,12.5,11.8,12.4,11.8z"/>
					<path fill="#FFFFFF" d="M9.5,9.4c0.1,0,0.1,0,0.1,0C9.6,9.4,9.6,9.4,9.5,9.4z"/>
					<path fill="#FFFFFF" d="M15.5,14.6C15.5,14.6,15.5,14.6,15.5,14.6C15.5,14.6,15.6,14.6,15.5,14.6L15.5,14.6z"/>
					<path fill="#FFFFFF" d="M9.8,9.6c0-0.1-0.1-0.1-0.1-0.1C9.7,9.5,9.7,9.6,9.8,9.6z"/>
					<path fill="#FFFFFF" d="M1.1,0.6L1.1,0.6C1,0.6,1,0.6,1.1,0.6L1.1,0.6z"/>
					<path fill="#FFFFFF" d="M1,0.6L1,0.6C1,0.6,1,0.6,1,0.6z"/>
					<path fill="#FFFFFF" d="M0.9,0.5L0.9,0.5C1,0.5,0.9,0.5,0.9,0.5z"/>
					<path fill="#FFFFFF" d="M1.8,1.4L1.8,1.4C1.8,1.4,1.8,1.4,1.8,1.4z"/>
					<path fill="#FFFFFF" d="M2,1.6c0-0.1,0-0.2-0.1-0.3l0,0C1.9,1.3,1.9,1.6,2,1.6z"/>
					<path fill="#FFFFFF" d="M2.4,3.1L2.2,2.9c0,0.1,0,0.2-0.1,0.1C2.2,3.4,2.1,2.8,2.4,3.1z"/>
					<path fill="#FFFFFF" d="M2.9,3.7C2.8,3.7,2.8,3.8,2.8,3.8C2.9,3.9,2.9,3.9,2.9,3.7z"/>
					<path fill="#FFFFFF" d="M7.1,8L7,8.1C7.1,8.1,7,8,7.1,8z"/>
					<polygon fill="#FFFFFF" points="8.5,8.2 8.5,8 8.3,8.1 					"/>
					<polygon fill="#FFFFFF" points="8.2,9.5 8.1,9.4 8.3,9.5 					"/>
					<path fill="#FFFFFF" d="M15.3,16.5l0.1-0.2C15.3,16.3,15.2,16.4,15.3,16.5z"/>
					<path fill="#FFFFFF" d="M18.5,19.4c0,0.1,0,0.2,0.1,0.2C18.5,19.5,18.5,19.4,18.5,19.4z"/>
					<polygon fill="#FFFFFF" points="27.4,28.8 27.3,28.8 27.5,28.9 					"/>
				</g>
			</g>
		</g>
		<g>
			<g>
				<g>
					<path fill="#FFFFFF" d="M15.8,38.3c0,0.1,0,0.2,0.1,0.1l0-0.2L15.8,38.3z"/>
					<path fill="#FFFFFF" d="M16.4,38.6c0.1-0.1,0.2-0.3,0.1-0.5C16.4,38.4,16.4,38.3,16.4,38.6c-0.2-0.1-0.2-0.1-0.2-0.2
						c0,0.1-0.1,0-0.2,0.1c0.1,0.1,0.3,0.1,0.4,0C16.5,38.5,16.4,38.6,16.4,38.6z"/>
					<path fill="#FFFFFF" d="M24.4,38.3L24.4,38.3C24.4,38.3,24.4,38.3,24.4,38.3z"/>
					<path fill="#FFFFFF" d="M29.3,39.1C29.3,39.1,29.2,39.1,29.3,39.1C29.3,39.1,29.3,39.1,29.3,39.1z"/>
					<path fill="#FFFFFF" d="M30.1,39.5C30,39.4,30,39.4,30.1,39.5C30,39.5,30,39.5,30.1,39.5z"/>
					<path fill="#FFFFFF" d="M24.4,38.3l0.1,0.1C24.6,38.3,24.5,38.4,24.4,38.3z"/>
					<path fill="#FFFFFF" d="M17.5,38C17.4,38,17.4,38,17.5,38L17.5,38L17.5,38z"/>
					<path fill="#FFFFFF" d="M22.3,38.5L22.3,38.5C22.2,38.5,22.2,38.6,22.3,38.5L22.3,38.5z"/>
					<path fill="#FFFFFF" d="M20.6,38.6c0,0,0-0.2,0-0.2c0,0.1,0,0.1-0.1,0.1C20.6,38.5,20.6,38.6,20.6,38.6z"/>
					<path fill="#FFFFFF" d="M17.9,38.6L17.9,38.6C17.9,38.6,17.9,38.6,17.9,38.6z"/>
					<path fill="#FFFFFF" d="M23.5,38.5C23.5,38.5,23.5,38.6,23.5,38.5C23.5,38.6,23.5,38.5,23.5,38.5z"/>
					<path fill="#FFFFFF" d="M35.8,17.1C35.8,17.1,35.8,17.1,35.8,17.1C35.8,17.1,35.8,17.1,35.8,17.1z"/>
					<polygon fill="#FFFFFF" points="36.3,15.1 36.4,15.1 36.4,15.1 					"/>
					<path fill="#FFFFFF" d="M31.5,40.1L31.5,40.1C31.4,40.1,31.4,40.1,31.5,40.1z"/>
					<path fill="#FFFFFF" d="M42.6,40.6c0,0.1-0.1,0-0.2,0c-0.1,0-0.1-0.1-0.2,0.1C42.3,40.6,42.6,40.9,42.6,40.6z"/>
					<path fill="#FFFFFF" d="M17.5,38C17.5,38,17.6,38,17.5,38C17.5,38,17.5,38,17.5,38z"/>
					<path fill="#FFFFFF" d="M42.3,40.7L42.3,40.7L42.3,40.7C42.3,40.7,42.3,40.7,42.3,40.7z"/>
					<path fill="#FFFFFF" d="M34.9,41.1C34.9,41,34.9,41,34.9,41.1C34.8,41,34.8,41,34.9,41.1z"/>
					<path fill="#FFFFFF" d="M32.4,40L32.4,40C32.5,40,32.5,40,32.4,40z"/>
					<path fill="#FFFFFF" d="M36.2,41.3C36.3,41.3,36.3,41.4,36.2,41.3L36.2,41.3C36.3,41.4,36.3,41.4,36.2,41.3z"/>
					<polygon fill="#FFFFFF" points="37.6,41.8 37.6,41.8 37.5,41.8 					"/>
					<path fill="#FFFFFF" d="M36.6,21.4c0,0,0.1-0.1,0.1-0.1C36.6,21.4,36.6,21.2,36.6,21.4z"/>
					<path fill="#FFFFFF" d="M17.5,38.1C17.5,38,17.5,38,17.5,38.1L17.5,38.1C17.5,38,17.5,38.1,17.5,38.1z"/>
					<path fill="#FFFFFF" d="M36.8,40.1l0.2,0.1C36.9,40.1,36.9,40.1,36.8,40.1z"/>
					<path fill="#FFFFFF" d="M38.8,31.6L38.8,31.6C38.7,31.6,38.7,31.6,38.8,31.6z"/>
					<path fill="#FFFFFF" d="M37.6,40.4c0,0.1,0,0.1,0.1,0.2c0,0,0,0,0,0L37.6,40.4z"/>
					<path fill="#FFFFFF" d="M36.8,21.3L36.8,21.3L36.8,21.3z"/>
					<path fill="#FFFFFF" d="M36.1,19.9c0,0.2,0.2,0.1,0.4,0.1c0.1,0.2-0.1,0.1-0.2,0.3c0.1,0.2,0.3,0.2,0.3,0.4c0,0,0,0-0.1,0
						c0.2,0.1,0.1,0.5,0.4,0.7c0,0,0,0-0.1,0c0.1-0.1,0.2-0.1,0.3-0.1c0,0.1,0.2,0.2,0,0.2c0-0.1-0.1-0.1-0.1-0.1l0.1,0.1
						c-0.2,0.1-0.1-0.1-0.3-0.1c0.1,0.2,0.3,0.4,0.3,0.5c-0.2,0.1-0.1-0.3-0.3-0.1l0-0.2c-0.3,0.2,0-0.1-0.3,0.1
						c0,0.3,0.2,0.3,0.2,0.6c0.1,0,0.2-0.1,0.3,0c0.3,0.4-0.5,0.4-0.1,0.7c0.2,0.1,0.4,0,0.3,0.3l-0.2,0c0,0.3,0.4,0.1,0.3,0.4
						c-0.1,0-0.1-0.2-0.1-0.2c-0.1,0.2,0.2,0.1,0.2,0.3l-0.2,0.1c0.1,0.3,0.3,0.6,0.4,1c-0.1,0-0.1-0.1-0.2,0
						c0.2,0.4,0.2,0.9,0.1,1.4l0.2,0.1c0,0-0.1,0.1-0.1,0.1c0,0.2,0.1,0,0.2,0.1c0,0.1-0.1,0.1-0.1,0.1c0.2,0.3,0.5,0.8,0.4,1.1
						l-0.1,0c0,0.3,0.4,0.2,0.3,0.5l0,0c0,0.5,0.3,1.1,0.1,1.5c0.3,0,0,0.5,0.4,0.5c-0.1,0.3-0.2,0.3-0.2,0.7c0,0.1,0.3,0.1,0.3,0.2
						l-0.2,0l0.2,0.1l-0.2,0.2l0.1,0.1c0-0.1,0.1-0.1,0.1-0.1c0.1,0.2,0,0.5-0.1,0.5l0.3,0.4c-0.1,0-0.1-0.1-0.2-0.1
						c0.2,0.2-0.2,0.1,0,0.3c0,0,0.1,0,0.2,0c-0.1,0.1,0,0.4,0.1,0.6l-0.1,0c0.1,0.4,0.2,0.7,0.3,1.1c0-0.2,0.3-0.2,0.3-0.1
						l-0.2,0.1c0.1,0,0-0.1,0.2,0c0,0.2-0.2,0.2-0.3,0.1l0.1,0.2c-0.1,0-0.1,0-0.2,0c0.1,0-0.1,0.4,0.1,0.4l-0.1,0
						c0.1,0.4,0.2,0.6,0.3,0.9c0.2,0,0.2,0.1,0.3,0.2c0,0.2,0,0.5,0,0.8c0.1,0.2,0.2,0,0.3,0.1c-0.1,0.1-0.1,0.3-0.2,0.2
						c0.1,0.3,0.1,0.4,0.4,0.8c0-0.1,0.1-0.1,0.1-0.1c0,0.1,0,0.2-0.1,0.2l0,0c0.4,0.4-0.1,1.2,0.3,1.5l0,0l0.3,0.3
						c0,0.2-0.1-0.1-0.2,0.1c0.4,0.4,0.2,0.7,0.4,1c-0.2,0.2-0.2,0.2-0.1,0.3c0.1,0.1,0.2,0.2,0,0.2l0.1,0.1c0.1,0.1-0.1,0-0.1,0
						c0.1,0.1,0.1,0,0.2,0.1c0.1,0.1,0.1,0.2,0.1,0.3c0,0.1,0,0.2-0.1,0c-0.2-0.1-0.3-0.3-0.3-0.3c0,0,0,0.6-0.1,0.3
						c0,0,0.1-0.2,0.1-0.2c0,0-0.1,0-0.2,0c-0.1,0-0.2,0-0.2-0.1c-0.2,0-0.3-0.1-0.5-0.2c-0.3-0.1-0.6-0.2-0.9-0.3
						c0.1,0,0.1-0.1,0.1-0.1C39.4,41,39,41,39,41.1c-0.1,0,0-0.1,0-0.2c-0.1-0.1-0.4,0.1-0.4-0.1c0,0,0.1,0,0.1,0
						c-0.1,0-0.4-0.2-0.4,0c-0.2-0.2-0.4-0.1-0.6-0.3c-0.2,0.1-0.3-0.2-0.5,0c0.1-0.3-0.3-0.4-0.5-0.3c0.1-0.1-0.1-0.1,0-0.2
						c-0.2-0.1-0.3-0.1-0.3,0.1c-0.2-0.4-0.7,0-0.7-0.4c-0.5,0-1-0.1-1.4-0.2c0.1-0.3,0.5,0.1,0.6-0.1c-0.4,0-0.8,0.1-1.1-0.1
						c-0.1-0.1,0.1-0.1,0.1-0.1c-0.4,0-0.8-0.3-1.2-0.3c0,0,0.1,0,0.1,0c-0.1,0-0.2-0.1-0.2,0l0.1,0c0.1,0.2-0.4,0.3-0.4,0.4
						c0.2-0.3-0.3-0.2,0-0.6c-0.1,0-0.1,0-0.1,0.1c-0.1,0-0.1-0.1,0-0.2c-0.3,0-0.2,0.1-0.5,0.1c0-0.1,0.1-0.1,0.1-0.1
						c-0.2,0.1-0.3,0.2-0.5,0.1c0,0,0-0.1,0.1-0.1c-0.4-0.1-0.7,0.2-1-0.1c0.2-0.2-0.1-0.1-0.1-0.3l-0.2,0l0.1,0.1
						c-0.2,0-0.4,0.1-0.5,0l0.2-0.1l-0.3,0l0.2,0.1c-0.2,0.1,0,0.3-0.3,0.2c0.1,0-0.2,0-0.2-0.2l0,0c-0.1,0.1-0.2,0.1-0.3,0
						c0-0.1,0.1-0.2,0.1-0.3c-0.1,0.2-0.4,0-0.6,0.2c0,0,0.1-0.2,0.1-0.2l-0.1,0.1C28,38.1,28,38.1,28,38c-0.2-0.1,0,0.3-0.2,0.1
						c0,0,0,0,0.1,0c-0.3-0.1-0.6,0-0.9-0.1c-0.1-0.2,0.3,0,0.2-0.2c-0.4,0-0.9,0.2-1.3,0.1l0.1,0c-0.1,0.3-0.3-0.2-0.5-0.1
						c0,0,0.1-0.2,0.1-0.1c-0.3-0.1-0.6,0-1,0.1l0.1-0.1c-0.2-0.1-0.4-0.1-0.6-0.1c-0.1,0.1-0.1,0.1-0.1,0.2c-0.5-0.5-1,0.3-1.5-0.1
						c0.1,0,0.1-0.1,0.1-0.1l-0.4,0.1c0,0.1,0.1,0.1,0.1,0.2c0,0.1-0.2,0.2-0.3,0.2c0.2-0.1,0-0.2-0.1-0.3c0,0,0,0.1,0,0.1
						c-0.2-0.2,0,0.3-0.3,0.1l0-0.1c-0.1,0-0.2,0.2-0.3,0.1c-0.1-0.2,0.1-0.1,0.1-0.2c-0.2,0-0.3,0.3-0.5,0.2
						c0.1-0.1,0.2-0.1,0.2-0.1c-0.2-0.2-0.2-0.1-0.3-0.2l0,0l-0.3-0.1l0.1,0c-0.2,0.4-0.4,0.1-0.6,0.4c0.2-0.3,0-0.2,0-0.3
						c-0.1,0-0.2-0.1-0.2-0.2c-0.1,0.2-0.2-0.1-0.4,0.1c0-0.1-0.1,0-0.1-0.1c-0.2,0.1,0,0.1,0,0.2c-0.2,0.2-0.6-0.2-1,0.1
						c-0.3,0.2-0.3,0.4-0.6,0.5c-0.1-0.1,0.1-0.2,0.1-0.2c-0.2-0.1-0.3,0-0.4,0.1c0-0.1,0-0.1-0.1-0.2c-0.1,0,0,0.2-0.2,0.2
						c0-0.1,0-0.2,0.1-0.3c-0.1,0.1-0.3,0.2-0.4,0.3c-0.1-0.1,0.1-0.2,0.1-0.2c-0.2,0.1-0.4,0.2-0.4,0.3l0.1,0c-0.1,0-0.1-0.1,0-0.2
						c0.1-0.2,0.2,0,0.2,0.1l-0.1,0.1c0.2,0.3,0.4-0.1,0.6-0.1l0,0.3l0.2-0.2c0.1,0.1,0.1,0.2,0,0.2c0.2,0.1,0.1-0.1,0.3,0
						c0,0,0,0,0,0l0.1-0.1c0,0.1,0,0.2,0,0.2c0.3,0.1,0.4-0.2,0.5-0.1l0,0c0.4-0.1,0-0.2,0.3-0.4l0.2,0.4l0-0.2c0,0,0.1,0,0.1,0.1
						c0.1-0.1,0-0.1,0-0.2c0.2,0.1,0.5-0.1,0.6,0.2c0.1-0.1-0.2-0.1,0-0.2c0.1,0.3,0.2-0.1,0.4,0.1c0,0.2-0.2,0.1,0,0.2
						c0.1-0.3,0.3,0,0.5,0c0-0.2,0.3-0.1,0.5-0.2c0,0.1,0.4,0.1,0.7,0.2l0,0c0-0.2,0.3-0.2,0.4-0.2c0,0.1,0,0.2-0.1,0.3l0.2,0
						c0-0.1,0.1-0.1,0.2-0.1l0,0.2c0.2,0,0.4-0.2,0.7-0.1c0-0.2-0.2-0.4,0.1-0.5c0,0.1,0,0.2-0.1,0.3c0,0,0.1-0.1,0.1,0l-0.1,0.1
						c0.1,0.1,0.1-0.1,0.2-0.1c0,0.1,0.1,0.1,0.1,0.2c0,0-0.1,0-0.1,0c0.1,0,0.2,0.1,0.3,0.2c0-0.1,0-0.2,0.1-0.2
						c0.2,0,0.1,0.1,0.2,0.2c0.1-0.1,0.2,0,0.2-0.2c0.1,0,0.1,0.1,0.1,0.1c0.1-0.1,0.5,0,0.4-0.2l0,0l0,0l0,0l0,0
						c0.4-0.2,0.7,0.1,1.1,0.1l0,0.1c0.2-0.1,0.5,0,0.6-0.1c0.1,0,0.1,0.1,0.1,0.2c0.2,0,0.2-0.1,0.4,0c-0.2,0.1,0,0.1-0.2,0.1
						c0.2,0.1,0.2,0.2,0.5,0c-0.1,0.1,0.1,0.2,0.2,0.2l-0.1-0.1c0.1,0,0.2,0,0.3,0l-0.1,0.2c0.4,0.3,0.8-0.3,1,0.1
						c0.1-0.1-0.2-0.1-0.1-0.3c0.2,0.1,0.3,0.4,0.4,0.4c0.2,0.2,0.3-0.2,0.5-0.1c0-0.1,0-0.3,0.2-0.3c0.2,0.1,0.2,0.3,0,0.4
						c0,0-0.1,0-0.1-0.1c-0.1,0-0.2,0-0.1,0.1l0-0.1c0.1,0.1,0.3,0.1,0.2,0.2c0.2,0,0.1-0.1,0-0.2c0.2,0.2,0.4,0.1,0.6,0.2
						c0,0,0-0.1,0-0.1c0.3,0.2,0.2-0.1,0.4-0.1c0.1,0.1-0.1,0.2,0.2,0.2c0.1,0.1,0,0.2-0.1,0.2c0.3-0.1,0.4,0.2,0.5,0.3l-0.1,0
						c0.1,0,0.1,0,0.2,0l0-0.2c0.1,0,0.1,0.1,0.1,0.1c0.1-0.1,0-0.3,0.2-0.3c0.1,0.1,0.3,0,0.3,0.2c-0.3-0.1,0,0.2-0.3,0.2
						c0.1,0,0.1,0,0.2,0.1c0,0,0,0,0,0c0.2,0.2,0.2-0.2,0.5-0.1c-0.1,0.1,0,0.2,0.1,0.2c-0.1,0,0-0.2,0.1-0.2c0.2,0.1,0.2,0,0.3,0
						l-0.1-0.1c0.1-0.1,0.2-0.1,0.3,0c0,0.1-0.1,0-0.1,0.1c0.2-0.1,0.3,0.3,0.5,0.2c0.1,0.1-0.1,0.2,0,0.3c0.3-0.1,0.2,0.2,0.5,0.2
						c0-0.2,0-0.1,0.2-0.2l-0.4,0l0.3-0.1c-0.1,0-0.3,0-0.3,0c0.2-0.1,0.1,0,0.1-0.2c0.1,0.3,0.4,0,0.5,0.2l-0.1,0.3
						c0.2,0.2,0.5,0,0.9,0.2l-0.1-0.1c0.1-0.1,0.2,0.1,0.4,0c-0.1,0.1,0,0.2,0,0.3c0-0.1,0.3,0.1,0.4-0.1l0.1,0.2
						c0.3,0.2,0.4-0.2,0.7-0.1c-0.1,0.1,0,0.2-0.2,0.2c0.1,0,0.2,0.1,0.2,0c0,0.1,0.3-0.1,0.4,0.1c0.1,0,0.1-0.2,0.2-0.1
						c0,0,0,0.1,0,0.1c0-0.1,0.2,0,0.1-0.2c0.1,0.5,0.8,0.3,0.9,0.7c0.2,0,0.5,0.1,0.6,0.2c0,0,0,0.1-0.1,0c0.2,0.2,0.3-0.3,0.5,0
						c0.1,0.2-0.2,0-0.1,0.1c-0.1,0.4,0.4,0.1,0.5,0.4l-0.1,0c0.1,0.2,0.4,0,0.6,0.1c0,0,0,0,0,0.1c0.2-0.1,0.6-0.1,0.8,0
						c-0.1,0.1-0.1,0-0.1,0.2c0.1,0,0.1-0.3,0.3-0.2c0,0.1,0.1,0.2,0.1,0.4l-0.2-0.1c0,0.1,0.1,0.1,0.1,0.1c0.1,0,0.2,0,0.3,0.1
						l0,0.1c0.5,0.2,0.5-0.1,0.9,0.1l-0.1-0.1c0.1-0.2,0.3,0.2,0.4,0.1l0.3,0.4c0.1,0,0.3-0.1,0.5-0.1c0.1,0.2-0.1,0.2-0.3,0.3
						c0.2,0.1,0.6,0.2,0.5,0c0,0,0,0.1-0.2,0c0-0.1,0-0.2,0.1-0.2c0,0,0.1,0,0.1,0c0,0,0,0,0-0.1l0-0.1c0.4,0.4,0.4,0.2,0.3,0
						c-0.1-0.2-0.1-0.5,0.1-0.4c-0.2-0.4-0.3-0.7-0.3-1c-0.1-0.3-0.1-0.6-0.2-1c-0.3,0.3-0.1-0.2-0.4-0.1c-0.1-0.1-0.1-0.2-0.1-0.2
						l0.1-0.4c0.1-0.1,0.1,0.1,0.2,0c0-0.3,0.1-0.1,0.2-0.3c-0.1,0.1-0.2,0-0.2-0.2l-0.1,0.2c-0.3-0.3,0.2-0.4-0.1-0.7l0.1,0.1
						c-0.1-0.2-0.2-0.6-0.5-0.7c0,0,0.1-0.1,0.2,0c-0.1-0.4-0.6-0.8-0.5-1.2l0.1,0c0-0.1-0.2-0.1-0.1-0.2c0,0,0.1,0,0.1,0
						c0,0-0.2-0.2-0.2-0.3l0.1,0.1c0-0.4-0.4-0.6-0.6-0.9c0.3-0.1,0.3-0.4,0.3-0.6l0,0c-0.1-0.5-0.4-0.8-0.6-1.2
						c0.2-0.3-0.1-1-0.1-1.5c0,0.1-0.2,0-0.3,0c0-0.1-0.3-0.2,0-0.3l0,0c0.2-0.1,0.1-0.3,0.1-0.5l-0.3,0c0.4-0.5-0.4-1.1-0.1-1.4
						c-0.1-0.1-0.1-0.2-0.2-0.3l0.2,0c0-0.3,0-0.5-0.2-0.8l0.1,0c0-0.2-0.5-0.1-0.6-0.3l0.2-0.1c-0.1-0.4,0.1-0.8-0.2-1.1
						c0,0,0.1,0,0.1,0c0-0.2,0-0.7-0.3-0.6c0.2-0.1-0.1-0.4-0.2-0.5l0.2,0c-0.2-0.1-0.3-0.1-0.4-0.3c0-0.1,0.1-0.1,0.1,0
						c0-0.2-0.2-0.1-0.1-0.3l0.1,0.1c0-0.2-0.1-0.2-0.2-0.2c-0.1-0.1,0-0.4,0.1-0.4c-0.1,0-0.2-0.1-0.2-0.2c0.1,0,0.1,0,0.1,0
						c0.1-0.3-0.3-0.4-0.2-0.7c0.1,0,0.1,0,0.1-0.1c0,0.2,0.1,0.4,0.1,0.4c0.2,0,0.1-0.2,0.4-0.1c-0.1-0.1-0.5-0.4-0.4-0.6
						c0,0,0,0,0,0l0,0c0,0,0-0.1,0-0.1c0-0.1,0-0.1,0-0.2c0.1,0,0-0.2,0-0.3c-0.2,0-0.2-0.1-0.3,0.1c0,0,0,0,0,0.1c0,0,0,0,0,0l0,0
						c0,0.1,0,0.1,0.1,0.2c-0.1-0.1-0.2-0.1-0.1-0.3c-0.1,0-0.2-0.1-0.3-0.1c0.2-0.2,0.3-0.5,0.4-0.5c-0.2-0.3-0.2-0.7-0.6-0.8
						c-0.1-0.1,0.1-0.1,0.1-0.2c0,0,0,0.1,0.1,0.1c-0.1-0.2-0.1-0.5-0.4-0.5c0.1-0.2,0.2,0.1,0.1-0.2l0.1,0c0.2-0.7-0.7-0.9-0.4-1.6
						c0,0.1,0,0.1-0.1,0.1c0.1-0.8-0.5-1.5-0.3-2.3c0-0.2-0.1-0.2-0.2-0.3l0.2-0.1l-0.2-0.2c-0.2-0.3,0.4-0.6,0-1l-0.1,0.1
						c0-0.1-0.1-0.4,0-0.4c0,0-0.1,0-0.1-0.1l0.1,0l-0.2-0.3c0-0.3,0.4,0,0.3-0.4c-0.1-0.1-0.3-0.4-0.4-0.3c0,0.1,0,0.2-0.1,0.2
						l-0.1-0.1c-0.3,0-0.6,0-0.7,0.3l0.2,0.2l-0.1,0.1l0-0.2c-0.1,0.1,0,0.2,0.1,0.2c-0.1,0-0.1,0.1-0.1,0.1l0.3,0.2
						c-0.1,0-0.2-0.1-0.3,0.1c0.1,0.1,0.2-0.1,0.3,0c-0.1,0.1-0.2,0.1-0.1,0.2c-0.1,0-0.1,0-0.2,0c0.1,0.1,0.1,0.3,0.2,0.3
						c-0.1,0.1,0.1,0.4-0.2,0.4c0.1,0,0.2,0.2,0.3,0.3c-0.4-0.1,0,0.4-0.3,0.4c0.3,0.1,0.2,0.5,0.4,0.7c0,0-0.1,0-0.1-0.1
						c0,0.1-0.1,0.2-0.1,0.3c0.2,0,0.3,0.2,0.5,0.3c-0.2,0.2-0.3-0.1-0.5,0c0.2,0,0.2,0.3,0.4,0.2c-0.1,0.2,0,0.1-0.2,0.2
						c0.3,0,0.1,0.1,0.3,0.2c-0.1,0.2-0.3,0.1-0.1,0.3C36.2,20.1,36.1,19.9,36.1,19.9z M37.5,24.9L37.5,24.9c0,0,0-0.1,0-0.1
						C37.5,24.8,37.5,24.8,37.5,24.9z M37.6,25.3c0-0.1,0-0.1,0-0.2c0.1,0,0.1,0,0.1,0C37.7,25.1,37.7,25.2,37.6,25.3z M38.6,24.2
						c0,0.1,0,0.1,0,0.1C38.6,24.2,38.6,24.2,38.6,24.2L38.6,24.2C38.6,24.2,38.6,24.2,38.6,24.2z"/>
					<path fill="#FFFFFF" d="M38.4,24.1C38.4,24.1,38.4,24.1,38.4,24.1C38.4,24.1,38.3,24.1,38.4,24.1L38.4,24.1L38.4,24.1z"/>
					<path fill="#FFFFFF" d="M24.4,38.3L24.4,38.3C24.4,38.3,24.4,38.3,24.4,38.3C24.4,38.3,24.4,38.3,24.4,38.3z"/>
					<polygon fill="#FFFFFF" points="38.6,31.2 38.6,31.2 38.6,31.1 					"/>
					<path fill="#FFFFFF" d="M22,37.7C22,37.7,22,37.7,22,37.7C22,37.7,22,37.7,22,37.7z"/>
					<path fill="#FFFFFF" d="M21,37.7l-0.1-0.1C20.9,37.7,20.9,37.7,21,37.7z"/>
					<path fill="#FFFFFF" d="M20.2,37.7C20.2,37.7,20.2,37.8,20.2,37.7L20.2,37.7L20.2,37.7z"/>
					<path fill="#FFFFFF" d="M32.7,38.9C32.7,38.9,32.8,38.9,32.7,38.9C32.8,38.9,32.8,38.9,32.7,38.9z"/>
					<path fill="#FFFFFF" d="M29,38.3c0,0,0.1,0,0.1-0.1C29.1,38.2,29,38.2,29,38.3z"/>
					<polygon fill="#FFFFFF" points="36.8,40 36.8,40.1 36.8,40.1 					"/>
					<path fill="#FFFFFF" d="M29.3,38.3c-0.1,0-0.1-0.1-0.2,0C29.2,38.3,29.2,38.3,29.3,38.3z"/>
					<path fill="#FFFFFF" d="M16.8,38.1L16.8,38.1C16.7,38.1,16.7,38.1,16.8,38.1L16.8,38.1z"/>
					<path fill="#FFFFFF" d="M16.7,38.1L16.7,38.1C16.7,38.1,16.7,38.1,16.7,38.1z"/>
					<path fill="#FFFFFF" d="M16.6,38.2L16.6,38.2C16.7,38.1,16.6,38.1,16.6,38.2z"/>
					<path fill="#FFFFFF" d="M17.8,38L17.8,38C17.8,37.9,17.8,38,17.8,38z"/>
					<path fill="#FFFFFF" d="M18.1,37.9c-0.1,0-0.2-0.1-0.3-0.1l0,0.1C17.8,37.8,18.1,38,18.1,37.9z"/>
					<path fill="#FFFFFF" d="M19.5,38.5l-0.3,0c0.1,0.1,0.1,0.1,0,0.2C19.6,38.9,19.2,38.6,19.5,38.5z"/>
					<path fill="#FFFFFF" d="M20.3,38.6c-0.1,0,0,0.1,0,0.1C20.4,38.6,20.5,38.6,20.3,38.6z"/>
					<path fill="#FFFFFF" d="M26.2,38.6l0,0.2C26.3,38.7,26.2,38.7,26.2,38.6z"/>
					<polygon fill="#FFFFFF" points="27.4,37.9 27.3,37.8 27.2,37.9 					"/>
					<polygon fill="#FFFFFF" points="27.9,39.1 27.8,39.1 28,39.1 					"/>
					<path fill="#FFFFFF" d="M37.3,41.9l0-0.2C37.2,41.7,37.2,41.9,37.3,41.9z"/>
					<path fill="#FFFFFF" d="M41.7,43.4c0.1,0.1,0.3,0.3,0.4,0.2C41.9,43.5,41.8,43.4,41.7,43.4z"/>
					<polygon fill="#FFFFFF" points="40.3,31.9 40.4,32 40.3,31.8 					"/>
				</g>
			</g>
		</g>
	</g>
</g>
</svg>
