<?xml version="1.0" encoding="utf-8"?>
<!-- Generator: Adobe Illustrator 18.0.0, SVG Export Plug-In . SVG Version: 6.00 Build 0)  -->
<!DOCTYPE svg PUBLIC "-//W3C//DTD SVG 1.1//EN" "http://www.w3.org/Graphics/SVG/1.1/DTD/svg11.dtd">
<svg version="1.1" id="Layer_1" xmlns="http://www.w3.org/2000/svg" xmlns:xlink="http://www.w3.org/1999/xlink" x="0px" y="0px"
	 viewBox="0 0 43.9 44.4" enable-background="new 0 0 43.9 44.4" xml:space="preserve">
<g>
	<g>
		<path fill="none" d="M27.8,38.8C15.9,36.7,11.3,39.5,1,43.4c4.3-12.9,6.4-28.2,6.4-28.2 M43.7,0.4L3.4,40.7"/>
		<g>
			<g>
				<g>
					<path fill="#FFFFFF" d="M3.1,40.4c0,0.1,0.1,0.1,0.2,0.1l-0.1-0.2L3.1,40.4z"/>
					<path fill="#FFFFFF" d="M3.8,40.3c0-0.1,0-0.3-0.2-0.4c0.1,0.2,0,0.2,0.1,0.4c0,0.1-0.1,0.1-0.2,0c0,0.1-0.1,0.1-0.1,0.2
						c0.2,0,0.3-0.1,0.3-0.2C3.7,40.2,3.7,40.2,3.8,40.3z"/>
					<path fill="#FFFFFF" d="M9.7,34.8L9.7,34.8C9.7,34.8,9.7,34.8,9.7,34.8z"/>
					<path fill="#FFFFFF" d="M13.3,31.3C13.3,31.3,13.3,31.4,13.3,31.3C13.3,31.3,13.3,31.3,13.3,31.3z"/>
					<path fill="#FFFFFF" d="M14.1,30.9C14.1,30.9,14,30.9,14.1,30.9C14.1,30.9,14.1,30.9,14.1,30.9z"/>
					<path fill="#FFFFFF" d="M9.7,34.8l0.1,0C9.8,34.7,9.8,34.7,9.7,34.8z"/>
					<path fill="#FFFFFF" d="M4.2,39.1C4.2,39.1,4.2,39.2,4.2,39.1C4.2,39.2,4.2,39.2,4.2,39.1C4.2,39.1,4.2,39.1,4.2,39.1z"/>
					<path fill="#FFFFFF" d="M8.3,36.4L8.3,36.4c0,0.1,0,0.1,0,0.1L8.3,36.4z"/>
					<path fill="#FFFFFF" d="M7.1,37.7c0,0-0.1-0.2-0.1-0.2C7,37.5,7,37.6,7.1,37.7C7,37.6,7,37.6,7.1,37.7z"/>
					<path fill="#FFFFFF" d="M5,39.4L5,39.4C4.9,39.4,5,39.4,5,39.4z"/>
					<path fill="#FFFFFF" d="M9.1,35.6C9.2,35.6,9.2,35.6,9.1,35.6C9.2,35.6,9.2,35.6,9.1,35.6z"/>
					<path fill="#FFFFFF" d="M41.7,1.2C41.7,1.2,41.7,1.2,41.7,1.2C41.7,1.2,41.7,1.2,41.7,1.2z"/>
					<path fill="#FFFFFF" d="M43.7,0.4L43.7,0.4C43.7,0.5,43.7,0.5,43.7,0.4L43.7,0.4z"/>
					<path fill="#FFFFFF" d="M15.3,29.9C15.3,29.9,15.3,29.9,15.3,29.9C15.3,30,15.3,29.9,15.3,29.9z"/>
					<path fill="#FFFFFF" d="M25.4,19.7c-0.2,0,0-0.3-0.2-0.3C25.2,19.4,25.2,19.7,25.4,19.7z"/>
					<path fill="#FFFFFF" d="M4.2,39.1C4.3,39.1,4.3,39.1,4.2,39.1C4.3,39.1,4.2,39.1,4.2,39.1z"/>
					<path fill="#FFFFFF" d="M25.2,19.4C25.2,19.4,25.2,19.4,25.2,19.4L25.2,19.4C25.1,19.4,25.2,19.4,25.2,19.4z"/>
					<path fill="#FFFFFF" d="M17.8,27.3C17.8,27.3,17.8,27.3,17.8,27.3C17.8,27.3,17.8,27.3,17.8,27.3z"/>
					<path fill="#FFFFFF" d="M15.7,29L15.7,29C15.8,29,15.8,29,15.7,29z"/>
					<path fill="#FFFFFF" d="M18.6,26.1C18.7,26.1,18.7,26.1,18.6,26.1C18.7,26.1,18.7,26.1,18.6,26.1
						C18.7,26.1,18.7,26.1,18.6,26.1z"/>
					<path fill="#FFFFFF" d="M19.7,25.1C19.6,25.1,19.6,25.1,19.7,25.1C19.6,25.1,19.6,25.1,19.7,25.1L19.7,25.1z"/>
					<path fill="#FFFFFF" d="M38.7,4.4c0.1,0,0.1,0,0.2,0.1C38.7,4.4,38.8,4.2,38.7,4.4z"/>
					<path fill="#FFFFFF" d="M4.3,39.2C4.2,39.2,4.2,39.1,4.3,39.2C4.2,39.1,4.2,39.1,4.3,39.2C4.2,39.2,4.2,39.2,4.3,39.2z"/>
					<path fill="#FFFFFF" d="M17.7,25.1l0.2-0.1C17.8,25,17.8,25.1,17.7,25.1z"/>
					<path fill="#FFFFFF" d="M31.3,11.7L31.3,11.7C31.3,11.7,31.3,11.7,31.3,11.7z"/>
					<path fill="#FFFFFF" d="M18.3,24.5c0.1,0,0.1,0,0.2,0c0,0,0,0,0-0.1L18.3,24.5z"/>
					<path fill="#FFFFFF" d="M38.8,4.4C38.8,4.4,38.8,4.4,38.8,4.4C38.8,4.4,38.8,4.4,38.8,4.4z"/>
					<path fill="#FFFFFF" d="M39.6,3.1c-0.2,0.2,0.1,0.2,0.1,0.4c-0.1,0.2-0.2,0-0.4-0.1c-0.1,0.2,0,0.4-0.1,0.5c0,0-0.1,0-0.1-0.1
						c0,0.3-0.4,0.4-0.3,0.7c0,0,0,0-0.1,0c0.1,0.1,0.2,0.1,0.2,0.2c-0.1,0.1,0,0.2-0.2,0.2c0,0,0-0.1,0-0.1l0,0.1
						c-0.2-0.1,0-0.2-0.1-0.3C38.7,4.7,38.7,5,38.5,5c-0.2-0.1,0.2-0.3-0.1-0.3l0.2-0.1c-0.4-0.1,0.1-0.1-0.3-0.2
						c-0.3,0.2-0.2,0.3-0.4,0.5c0,0.1,0.1,0.1,0.2,0.2C38,5.6,37.5,5,37.5,5.5c0,0.2,0.2,0.4-0.1,0.4l-0.1-0.2
						c-0.2,0.2,0.1,0.4-0.2,0.5c0-0.1,0.1-0.2,0.1-0.2c-0.3,0,0,0.2-0.1,0.3l-0.2-0.1c-0.2,0.3-0.3,0.6-0.6,0.9c0-0.1,0-0.1-0.1-0.1
						c-0.2,0.4-0.7,0.7-1.1,0.9l0,0.2C35,8,35,8,35,8C34.8,8,35,8,35,8.1c-0.1,0.1-0.2,0-0.2-0.1c-0.1,0.3-0.4,0.8-0.7,0.9l0-0.1
						c-0.2,0.1,0.1,0.5-0.2,0.5l0-0.1c-0.4,0.3-0.7,0.9-1.2,1c0.1,0.2-0.5,0.3-0.2,0.6c-0.3,0.1-0.3,0-0.7,0.2c-0.1,0.1,0,0.3,0,0.4
						l-0.1-0.1l0,0.3l-0.2-0.1l-0.1,0.1c0,0,0.1,0,0.2,0c-0.1,0.2-0.5,0.3-0.5,0.2l-0.2,0.5c0-0.1,0-0.1,0-0.2
						c0,0.3-0.2-0.1-0.2,0.2c0.1,0,0.1,0.1,0.1,0.1c-0.2,0-0.4,0.2-0.5,0.4l-0.1-0.1c-0.3,0.2-0.5,0.6-0.8,0.9
						c0.1-0.1,0.3,0.1,0.2,0.2l-0.2-0.1c0,0.1,0.1,0,0.1,0.2c-0.1,0.1-0.2-0.1-0.2-0.2l-0.1,0.2c-0.1,0,0-0.1-0.1-0.2
						c0,0.1-0.4,0.1-0.3,0.3l0,0c-0.3,0.3-0.4,0.5-0.6,0.7c0.1,0.1,0,0.2,0,0.4c-0.2,0.1-0.5,0.2-0.7,0.4c-0.1,0.2,0.1,0.1,0.1,0.3
						c-0.1-0.1-0.3,0.1-0.3-0.1C27,16,27,16.1,26.7,16.5c0.1,0,0.1,0,0.2,0.1c0,0.1-0.2,0.1-0.2,0l0,0c-0.2,0.5-1.1,0.5-1.2,1l0,0
						l-0.2,0.4c-0.2,0.1,0-0.2-0.2-0.1c-0.1,0.5-0.5,0.5-0.7,0.9c-0.5-0.1-0.7,0.7-1.2,0.8l0.1,0.1c0,0.1-0.1,0-0.2,0.1
						c0.1,0.1,0.1,0,0.1,0.1c-0.5,0.7-1.3,1.1-2,1.7c-0.2,0.2,0.3,0.5-0.2,0.6L21,21.7c-0.3,0.6-0.9,0.9-1.2,1.5c0-0.1,0-0.1,0-0.1
						c-0.2,0-0.4,0.3-0.3,0.4c-0.1,0.1-0.1-0.1-0.2-0.1c-0.2,0-0.1,0.4-0.3,0.3c0,0,0-0.1,0-0.1c0,0.1-0.3,0.3-0.1,0.3
						c-0.2,0.1-0.3,0.4-0.5,0.4c0,0.2-0.3,0.2-0.2,0.4c-0.2-0.2-0.5,0.1-0.5,0.3c0-0.1-0.2,0-0.2-0.1c-0.1,0.1-0.2,0.3-0.1,0.3
						c-0.5,0-0.3,0.6-0.7,0.5c-0.2,0.5-0.5,0.9-0.8,1.2c-0.2-0.2,0.3-0.4,0.1-0.6c-0.2,0.4-0.2,0.7-0.6,1c-0.1,0.1,0-0.1,0-0.2
						c-0.2,0.4-0.6,0.6-0.8,0.9c0,0,0-0.1,0-0.1c0,0.1-0.2,0.1-0.1,0.2l0-0.1c0.2,0,0.1,0.5,0.1,0.6c-0.2-0.3-0.3,0.2-0.5-0.3
						c0,0.1,0,0.1,0,0.2c-0.1,0-0.1,0-0.1-0.1c-0.1,0.2,0,0.3-0.2,0.4c0,0,0-0.1-0.1-0.2c0,0.2,0,0.3-0.2,0.5c0,0-0.1-0.1,0-0.1
						c-0.2,0.3-0.2,0.7-0.6,0.8c-0.1-0.3-0.2,0-0.3-0.1L13,30.3l0.1,0c-0.1,0.1-0.1,0.4-0.3,0.4l0-0.2l-0.2,0.3l0.2-0.1
						c0,0.2,0.2,0.2,0,0.3c0-0.1-0.1,0.1-0.3,0.1c0,0,0,0,0,0c0,0.1,0,0.2-0.2,0.3c-0.1,0-0.2-0.2-0.2-0.2c0.1,0.2-0.3,0.3-0.2,0.6
						c0-0.1-0.1-0.1-0.1-0.2l0.1,0.2c-0.1,0-0.1,0-0.2-0.1c-0.2,0.2,0.3,0.2,0,0.3c0,0,0,0,0-0.1c-0.3,0.2-0.3,0.5-0.6,0.6
						c-0.2-0.1,0.1-0.2-0.1-0.3c-0.3,0.3-0.4,0.8-0.7,1l0.1,0c0.2,0.3-0.3,0.1-0.3,0.3c0-0.1-0.1-0.2-0.1-0.1
						c-0.2,0.2-0.3,0.4-0.5,0.8l0-0.1c-0.2,0.1-0.3,0.3-0.5,0.4c0,0.1-0.1,0.2,0.1,0.2c-0.7,0-0.5,0.9-1.1,0.9c0,0,0-0.1,0-0.1
						l-0.2,0.3c0.1,0.1,0.1,0,0.2,0c0,0.1,0,0.2-0.1,0.3c0.1-0.2-0.2-0.2-0.3-0.2c0,0,0.1,0.1,0.1,0.1c-0.3,0,0.2,0.2-0.1,0.3l0-0.1
						c0,0.1,0,0.2-0.1,0.3c-0.2-0.1,0-0.1-0.1-0.2c-0.1,0.1,0,0.4-0.2,0.4c0-0.1,0.1-0.2,0.1-0.2c-0.2,0-0.2,0-0.3,0.1l0,0l-0.3,0.1
						l0.1,0c0.2,0.4-0.2,0.3-0.2,0.7c0-0.4-0.1-0.1-0.2-0.3c-0.1,0-0.2,0-0.2,0c0,0.2-0.2,0.1-0.2,0.3c0,0-0.1,0.1-0.2,0
						c-0.1,0.2,0.1,0,0.1,0.1c0,0.3-0.6,0.2-0.7,0.7c-0.1,0.3,0,0.5-0.2,0.8c-0.1,0-0.1-0.2-0.1-0.2c-0.2,0.1-0.2,0.1-0.3,0.3
						c0-0.1-0.1-0.1-0.2-0.1c-0.1,0.1,0.1,0.2-0.1,0.3c0-0.1-0.1-0.2-0.1-0.3c-0.1,0.1-0.1,0.3-0.1,0.5c-0.1,0,0-0.2-0.1-0.3
						c-0.1,0.2-0.2,0.4-0.2,0.5l0.1,0c0,0-0.1-0.1-0.1-0.1c0-0.2,0.2-0.1,0.2-0.1l0,0.1c0.3,0.2,0.3-0.3,0.4-0.5l0.1,0.2l0-0.3
						c0.1,0,0.2,0.1,0.2,0.2c0.2,0,0-0.2,0.2-0.2c0,0,0,0,0,0L5,39.2c0,0.1,0.1,0.1,0.1,0.1c0.3-0.1,0.2-0.4,0.4-0.4l0,0
						c0.2-0.3-0.1-0.2-0.1-0.5l0.5,0.2l-0.1-0.2c0,0,0.1-0.1,0.1,0c0-0.2-0.1,0-0.1-0.2c0.3,0,0.3-0.4,0.5-0.2
						c-0.1-0.1-0.2,0-0.1-0.2c0.3,0.2,0.1-0.2,0.3-0.2c0.1,0.2-0.1,0.2,0.1,0.2c-0.1-0.3,0.3-0.2,0.3-0.3c-0.2-0.2,0.2-0.3,0.3-0.5
						c0,0.1,0.4-0.2,0.6-0.3l0,0c-0.1-0.2,0.1-0.3,0.1-0.5c0.1,0.1,0.1,0.2,0.1,0.3l0.1-0.1c0-0.1,0-0.1,0-0.2l0.1,0.1
						c0.1-0.2,0.2-0.4,0.4-0.5c-0.1-0.1-0.5-0.2-0.3-0.4c0.1,0.1,0.2,0.1,0.2,0.2c0,0,0-0.1,0.1-0.1l0,0.2c0.1,0,0-0.1,0-0.2
						c0.1,0.1,0.1,0,0.2,0.1c0,0-0.1,0-0.1,0.1c0.1-0.1,0.2-0.1,0.3-0.1c-0.1,0-0.1-0.1-0.1-0.2c0.1-0.2,0.2,0.1,0.3,0
						c0-0.1,0.1-0.1,0-0.3c0,0,0.1,0,0.2,0c0-0.1,0.3-0.4,0.1-0.4l0,0c0,0,0,0,0,0c0,0,0,0,0,0l0,0c0.1-0.4,0.6-0.4,0.8-0.7l0,0
						c0.1-0.2,0.3-0.4,0.3-0.6c0,0,0.2,0,0.2,0c0.1-0.1,0-0.2,0.3-0.3c0,0.2,0.1,0-0.1,0.2c0.2-0.1,0.3-0.1,0.3-0.3
						c0.1,0.2,0.2,0,0.3-0.1l-0.2,0c0.1-0.1,0.1-0.2,0.2-0.2l0.1,0.2c0.5-0.1,0.2-0.8,0.8-0.8c0-0.2-0.2,0.1-0.3-0.1
						c0.2-0.1,0.5-0.1,0.6-0.1c0.3-0.1,0-0.4,0.2-0.5c-0.1,0-0.2-0.1-0.1-0.3c0.2-0.1,0.4,0,0.3,0.2c0,0-0.1,0-0.1,0
						c0,0.1-0.1,0.1,0,0.1l0-0.1c0.1,0,0.3-0.2,0.3-0.1c0.1-0.2,0-0.1-0.1-0.1c0.3-0.1,0.3-0.3,0.5-0.4c-0.1,0-0.1,0-0.1-0.1
						c0.3-0.2,0-0.2,0.2-0.4c0.2,0,0.2,0.2,0.3,0c0.2-0.1,0.2,0.1,0.2,0.2c0.1-0.3,0.4-0.2,0.5-0.3l0,0.1c0-0.1,0.1-0.1,0.1-0.2
						l-0.2-0.1c0.1,0,0.1-0.1,0.2,0c0-0.1-0.2-0.1-0.2-0.3c0.1,0,0.2-0.3,0.3-0.2c-0.3,0.2,0.2,0.1,0,0.3c0-0.1,0.1-0.1,0.1-0.1
						c0,0,0,0,0,0.1c0.3-0.1-0.1-0.3,0.2-0.5c0.1,0.1,0.2,0.1,0.2,0c-0.1,0.1-0.2-0.1-0.2-0.2c0.2-0.1,0.1-0.2,0.2-0.3l-0.1,0.1
						c-0.1-0.1,0-0.2,0.1-0.3c0.1,0.1,0,0.1,0,0.1c0-0.2,0.4-0.1,0.4-0.3c0.1,0,0.2,0.1,0.2,0.1c0.1-0.3,0.3-0.1,0.4-0.3
						c-0.2-0.1-0.1,0-0.1-0.2l-0.2,0.4l0-0.3c-0.1,0.1-0.1,0.2-0.2,0.3c0-0.2,0-0.1-0.1-0.2c0.3,0,0.1-0.3,0.4-0.4l0.3,0.3
						c0.3-0.1,0.2-0.5,0.6-0.7l-0.1,0c-0.1-0.1,0.2-0.2,0.2-0.3c0.1,0.1,0.2,0.1,0.3,0.1c-0.1-0.1,0.2-0.2,0.1-0.4l0.2,0
						c0.3-0.2,0-0.5,0.2-0.7c0,0.2,0.2,0.1,0.1,0.3c0.1-0.1,0.1-0.1,0.1-0.2c0.1,0,0.1-0.3,0.2-0.3c0-0.1-0.1-0.2,0-0.2c0,0,0,0,0,0
						c0,0,0.1-0.2-0.1-0.2c0.5,0.1,0.6-0.6,1-0.6c0.1-0.2,0.3-0.4,0.4-0.5c0,0,0,0,0,0.1c0.3-0.1-0.1-0.4,0.2-0.5
						c0.2,0,0,0.2,0.1,0.2c0.3,0.3,0.2-0.3,0.5-0.3l0,0.1c0.2,0,0.2-0.4,0.4-0.5c0,0,0,0,0,0c0-0.3,0.2-0.6,0.3-0.8
						c0.1,0.2,0,0.1,0.1,0.2c0.1-0.1-0.2-0.2-0.1-0.3c0.1,0,0.3,0,0.4,0.1l-0.1,0.2c0.2,0.1,0.2-0.2,0.3-0.2l0.1,0.1
						c0.2-0.2,0-0.4,0.3-0.7l-0.1,0c0-0.3,0.2,0,0.2-0.3l0.2,0.1c0-0.1,0.1-0.5,0.3-0.7c0,0.2-0.1,0.5-0.1,0.7
						c0.1-0.1,0.3-0.3,0.2-0.4c0,0.1,0,0.1-0.1,0.1c0-0.2,0-0.4,0.2-0.6c0.3,0.4,0.5-0.4,0.9-0.2c0.2-0.4,0.7-0.6,1-0.9
						c-0.4-0.1,0.1-0.1-0.2-0.4c0.1-0.1,0.1-0.1,0.1-0.1l0.4-0.1c0.1,0,0,0.1,0,0.2c0.2-0.2,0.2,0,0.4,0c-0.1-0.1-0.1-0.2,0.1-0.3
						l-0.3,0c0.1-0.4,0.4,0,0.6-0.4l0,0.2c0.1-0.2,0.5-0.5,0.4-0.8c0.1,0,0.2,0.1,0.1,0.1c0.3-0.3,0.5-0.9,0.8-1l0,0.1
						c0-0.1,0-0.2,0.1-0.2c0,0,0,0.1,0.1,0.1c0-0.1,0-0.3,0.2-0.3l0,0.1c0.4-0.2,0.3-0.6,0.5-0.9c0.2,0.2,0.5,0,0.6-0.1l0,0
						c0.4-0.3,0.4-0.8,0.7-1.2c0.4,0,0.8-0.6,1.2-0.8c-0.1,0-0.1-0.2-0.1-0.2c0.1,0,0.1-0.3,0.2-0.2l0,0c0.2,0.1,0.3-0.1,0.5-0.2
						l-0.2-0.3c0.7,0,0.7-1,1.2-0.8c0-0.1,0.1-0.2,0.1-0.4l0.1,0.1c0.2-0.2,0.4-0.3,0.6-0.6l0,0.1c0.2-0.1-0.2-0.5,0-0.7l0.2,0.1
						c0.3-0.3,0.7-0.4,0.8-0.8c0,0,0.1,0.1,0,0.1c0.1-0.1,0.6-0.4,0.3-0.6c0.2,0.2,0.3-0.3,0.4-0.5l0.1,0.1c0-0.3-0.1-0.3,0-0.5
						c0.1,0,0.1,0.1,0,0.1c0.2-0.1,0-0.2,0.2-0.3l0,0.1c0.1-0.1,0.1-0.2,0.1-0.3c0-0.1,0.3-0.2,0.4-0.1c0-0.1-0.1-0.3,0-0.3
						c0.1,0,0,0.1,0,0.1c0.3-0.1,0.2-0.5,0.5-0.5c0,0,0.1,0,0.1,0c-0.2,0.2-0.3,0.3-0.3,0.3c0.1,0.1,0.3,0,0.3,0.3
						c0-0.2,0-0.6,0.2-0.7c0,0,0,0,0.1,0l0,0c0,0,0.1-0.1,0.1-0.1c0.1,0,0.1,0,0.2-0.1c0.1,0.1,0.2-0.1,0.3-0.2
						c-0.1-0.1,0-0.2-0.2-0.2c0,0,0,0,0,0.1c0,0,0,0,0,0c0,0,0,0,0,0c0,0.1-0.1,0.1-0.2,0.2c0-0.1,0-0.2,0.2-0.2
						c0-0.1-0.1-0.2-0.1-0.3c0.3,0.1,0.6,0,0.7,0.1c0.2-0.3,0.5-0.6,0.4-0.9c0-0.1,0.1,0,0.2,0c0,0.1-0.1,0.1,0,0.2
						c0.1-0.2,0.4-0.4,0.2-0.6c0.2-0.1,0.1,0.2,0.3,0l0,0.1c0.7-0.2,0.3-1.1,1.1-1.3c-0.1,0-0.1,0-0.1,0c0.7-0.4,1-1.3,1.7-1.6
						c0.2-0.1,0.1-0.2,0.1-0.4l0.2,0.1l0-0.3c0.1-0.3,0.7-0.1,0.8-0.6l-0.1-0.1c0.1-0.1,0.3-0.4,0.4-0.3c0,0-0.1-0.1,0-0.1l0.1,0.1
						L43.3,1c0.2-0.1,0.2,0.3,0.5,0c0.1-0.1,0.1-0.5,0-0.5c0,0-0.2,0.1-0.2,0l0.1-0.1C43.5,0.2,43.4-0.1,43,0l0,0.3l-0.2,0l0.1-0.1
						c-0.2,0-0.1,0.1-0.1,0.2c-0.1,0-0.1-0.1-0.2,0l0,0.4c-0.1-0.1-0.1-0.2-0.2-0.2c0,0.2,0.3,0.1,0.2,0.3c-0.2,0-0.2-0.1-0.2,0.1
						c-0.1,0-0.1-0.1-0.1-0.2c0,0.1-0.2,0.2-0.1,0.4c-0.2,0-0.2,0.3-0.4,0.1c0,0.1,0,0.3-0.1,0.4c-0.1-0.4-0.3,0.3-0.5,0
						c0.1,0.3-0.3,0.5-0.3,0.8c0,0,0-0.1,0-0.1c-0.1,0.1-0.2,0.1-0.3,0.1c0.2,0.2,0,0.4,0.1,0.6c-0.3,0-0.1-0.3-0.3-0.4
						c0.1,0.1-0.1,0.4,0.1,0.4c-0.2,0-0.1,0-0.3-0.1C40.2,3.1,40,3,40,3.2c-0.2,0-0.2-0.2-0.3,0.1C39.5,3.3,39.6,3.1,39.6,3.1z
						 M36.3,7.1C36.3,7.1,36.3,7.1,36.3,7.1C36.4,7,36.4,7,36.3,7.1C36.4,7,36.4,7,36.3,7.1z M36,7.4c0,0,0.1-0.1,0.1-0.1
						c0.1,0,0.1,0.1,0.1,0.1C36.2,7.3,36.1,7.4,36,7.4z M37.5,7.6c0,0.1-0.1,0.1-0.1,0C37.5,7.6,37.5,7.6,37.5,7.6
						C37.5,7.5,37.5,7.5,37.5,7.6C37.5,7.5,37.5,7.5,37.5,7.6z"/>
					<path fill="#FFFFFF" d="M37.5,7.3C37.5,7.3,37.5,7.3,37.5,7.3C37.5,7.3,37.4,7.3,37.5,7.3C37.4,7.3,37.4,7.3,37.5,7.3
						C37.4,7.3,37.5,7.3,37.5,7.3z"/>
					<path fill="#FFFFFF" d="M9.6,34.8L9.6,34.8C9.6,34.8,9.6,34.8,9.6,34.8C9.6,34.8,9.6,34.8,9.6,34.8z"/>
					<polygon fill="#FFFFFF" points="31.6,11.3 31.6,11.4 31.6,11.3 					"/>
					<path fill="#FFFFFF" d="M7.5,36.1C7.5,36,7.5,36,7.5,36.1C7.5,36,7.5,36.1,7.5,36.1z"/>
					<path fill="#FFFFFF" d="M6.8,36.7l-0.1,0.1C6.7,36.8,6.7,36.8,6.8,36.7z"/>
					<path fill="#FFFFFF" d="M6.2,37.2C6.2,37.3,6.2,37.3,6.2,37.2C6.2,37.3,6.2,37.3,6.2,37.2L6.2,37.2z"/>
					<path fill="#FFFFFF" d="M14.9,28.2C14.9,28.2,14.9,28.2,14.9,28.2C14.9,28.1,14.9,28.2,14.9,28.2z"/>
					<path fill="#FFFFFF" d="M12.5,31.2c0-0.1,0-0.1,0-0.1C12.5,31.1,12.5,31.1,12.5,31.2z"/>
					<path fill="#FFFFFF" d="M17.7,25.1C17.7,25.1,17.7,25.1,17.7,25.1C17.7,25.1,17.7,25.1,17.7,25.1L17.7,25.1z"/>
					<path fill="#FFFFFF" d="M12.7,30.9c-0.1,0-0.1,0.1-0.1,0.1C12.6,31,12.7,31,12.7,30.9z"/>
					<path fill="#FFFFFF" d="M3.7,39.6L3.7,39.6C3.7,39.6,3.7,39.6,3.7,39.6L3.7,39.6z"/>
					<path fill="#FFFFFF" d="M3.7,39.7L3.7,39.7C3.7,39.7,3.7,39.7,3.7,39.7z"/>
					<path fill="#FFFFFF" d="M3.6,39.8L3.6,39.8C3.6,39.7,3.6,39.7,3.6,39.8z"/>
					<path fill="#FFFFFF" d="M4.5,38.9L4.5,38.9C4.4,38.9,4.5,38.9,4.5,38.9z"/>
					<path fill="#FFFFFF" d="M4.7,38.7c-0.1,0-0.2,0-0.3,0.1l0,0C4.4,38.8,4.7,38.8,4.7,38.7z"/>
					<path fill="#FFFFFF" d="M6.2,38.3L6,38.5c0.1,0,0.2,0,0.1,0.1C6.4,38.5,5.9,38.5,6.2,38.3z"/>
					<path fill="#FFFFFF" d="M6.8,37.8c-0.1,0.1,0.1,0.1,0.1,0.1C6.9,37.8,6.9,37.8,6.8,37.8z"/>
					<path fill="#FFFFFF" d="M11,33.6l0.1,0.1C11.2,33.6,11.1,33.7,11,33.6z"/>
					<polygon fill="#FFFFFF" points="11.3,32.2 11.1,32.2 11.2,32.3 					"/>
					<polygon fill="#FFFFFF" points="12.5,32.5 12.5,32.6 12.6,32.4 					"/>
					<path fill="#FFFFFF" d="M19.6,25.4l-0.2-0.1C19.4,25.4,19.5,25.5,19.6,25.4z"/>
					<path fill="#FFFFFF" d="M22.5,22.2c0.1,0,0.2,0,0.2-0.1C22.6,22.1,22.5,22.1,22.5,22.2z"/>
					<polygon fill="#FFFFFF" points="31.9,13.3 31.9,13.4 32,13.2 					"/>
				</g>
			</g>
		</g>
		<g>
			<g>
				<g>
					<path fill="#FFFFFF" d="M7.8,15.2c0,0-0.2,0-0.2,0l0.2,0.1L7.8,15.2z"/>
					<path fill="#FFFFFF" d="M7.3,15.7c0.1,0.1,0.2,0.2,0.4,0.2c-0.2-0.1-0.1-0.1-0.3-0.3c0-0.1,0.1-0.1,0.2-0.1
						c0,0,0.1-0.1-0.1-0.2c-0.2,0.1-0.2,0.2-0.1,0.4C7.4,15.7,7.4,15.7,7.3,15.7z"/>
					<path fill="#FFFFFF" d="M5.7,23.5L5.7,23.5C5.7,23.5,5.7,23.5,5.7,23.5z"/>
					<path fill="#FFFFFF" d="M4.5,28.4C4.6,28.4,4.5,28.3,4.5,28.4C4.5,28.4,4.5,28.4,4.5,28.4z"/>
					<path fill="#FFFFFF" d="M4.1,29.2C4.2,29.2,4.2,29.1,4.1,29.2C4.1,29.1,4.1,29.2,4.1,29.2z"/>
					<path fill="#FFFFFF" d="M5.7,23.5l-0.1,0.1C5.6,23.7,5.6,23.6,5.7,23.5z"/>
					<path fill="#FFFFFF" d="M7.7,16.9C7.7,16.8,7.6,16.8,7.7,16.9L7.7,16.9L7.7,16.9z"/>
					<path fill="#FFFFFF" d="M5.9,21.4L5.9,21.4C5.9,21.3,5.9,21.3,5.9,21.4L5.9,21.4z"/>
					<path fill="#FFFFFF" d="M6.2,19.7c0,0,0.2,0.1,0.2,0.1c-0.1,0-0.1-0.1-0.1-0.1C6.3,19.7,6.2,19.7,6.2,19.7z"/>
					<path fill="#FFFFFF" d="M6.9,17.1L6.9,17.1C6.9,17.1,6.9,17.1,6.9,17.1z"/>
					<path fill="#FFFFFF" d="M5.6,22.5C5.6,22.5,5.6,22.5,5.6,22.5C5.6,22.5,5.6,22.5,5.6,22.5z"/>
					<path fill="#FFFFFF" d="M26,37.7C26,37.7,26,37.7,26,37.7C26,37.7,26,37.7,26,37.7z"/>
					<polygon fill="#FFFFFF" points="27.8,38.9 27.8,38.9 27.7,39 					"/>
					<path fill="#FFFFFF" d="M3.6,30.6L3.6,30.6C3.6,30.6,3.6,30.6,3.6,30.6z"/>
					<path fill="#FFFFFF" d="M1.9,43.8c-0.2-0.1,0.4-0.4,0.2-0.5C2.1,43.4,1.6,43.8,1.9,43.8z"/>
					<path fill="#FFFFFF" d="M7.6,16.9C7.6,16.9,7.6,16.9,7.6,16.9C7.6,16.9,7.6,16.9,7.6,16.9z"/>
					<path fill="#FFFFFF" d="M2.1,43.3L2.1,43.3L2.1,43.3C2.1,43.3,2.1,43.3,2.1,43.3z"/>
					<path fill="#FFFFFF" d="M2.8,34.1C2.9,34.1,2.9,34.1,2.8,34.1C2.9,34.1,2.9,34.1,2.8,34.1z"/>
					<path fill="#FFFFFF" d="M3.7,31.6L3.7,31.6C3.7,31.6,3.7,31.6,3.7,31.6z"/>
					<path fill="#FFFFFF" d="M2.7,35.5C2.7,35.6,2.7,35.6,2.7,35.5L2.7,35.5C2.7,35.6,2.7,35.6,2.7,35.5z"/>
					<polygon fill="#FFFFFF" points="2.4,36.9 2.4,36.9 2.4,36.9 					"/>
					<path fill="#FFFFFF" d="M21.5,37.4c0,0,0,0.1,0.1,0.2C21.6,37.4,21.8,37.4,21.5,37.4z"/>
					<path fill="#FFFFFF" d="M7.6,16.8C7.6,16.9,7.6,16.9,7.6,16.8L7.6,16.8C7.6,16.8,7.6,16.8,7.6,16.8z"/>
					<path fill="#FFFFFF" d="M4.1,35.9L4,36.1C4,36.1,4,36,4.1,35.9z"/>
					<path fill="#FFFFFF" d="M11.1,38.9L11.1,38.9C11.1,38.8,11.1,38.8,11.1,38.9z"/>
					<path fill="#FFFFFF" d="M3.8,36.8c-0.1,0-0.1,0.1-0.1,0.1c0,0,0,0,0,0L3.8,36.8z"/>
					<path fill="#FFFFFF" d="M21.6,37.6L21.6,37.6L21.6,37.6z"/>
					<path fill="#FFFFFF" d="M23.1,37.2c-0.2,0-0.1,0.2-0.2,0.3c-0.3,0-0.1-0.2-0.2-0.3c-0.2,0-0.3,0.2-0.4,0.2c0,0,0-0.1,0-0.1
						c-0.2,0.2-0.5,0-0.7,0.2c0,0,0,0,0-0.1c0,0.1,0,0.2,0,0.3c-0.1,0-0.2,0.1-0.2,0c0.1,0,0.1-0.1,0.1-0.1l-0.1,0.1
						c-0.1-0.2,0.1-0.1,0.1-0.2c-0.2,0.1-0.4,0.2-0.6,0.2c0-0.2,0.4-0.1,0.2-0.3l0.2,0.1c-0.2-0.3,0.1,0,0-0.3
						c-0.3-0.1-0.4,0.1-0.7,0c-0.1,0.1,0,0.2,0,0.3c-0.4,0.2-0.4-0.5-0.7-0.3c-0.1,0.1-0.1,0.4-0.4,0.3l0.1-0.2
						c-0.3,0-0.2,0.3-0.5,0.2c0.1-0.1,0.2-0.1,0.2-0.1c-0.2-0.2-0.1,0.1-0.3,0.1l0-0.2c-0.3,0-0.7,0.2-1,0.3c0-0.1,0.1-0.1,0-0.2
						c-0.4,0.2-1,0.1-1.4,0l-0.1,0.2c0,0-0.1-0.1,0-0.1c-0.2,0,0,0.1-0.1,0.2c-0.1,0-0.1-0.1-0.1-0.1c-0.3,0.2-0.8,0.4-1.2,0.3
						l0.1-0.1c-0.3,0-0.2,0.4-0.5,0.3l0,0c-0.5,0-1.1,0.3-1.6,0.2c0,0.3-0.5,0-0.5,0.4c-0.3-0.1-0.3-0.2-0.7-0.2
						c-0.1,0-0.1,0.3-0.2,0.3l-0.1-0.2l-0.1,0.2l-0.2-0.2l-0.1,0.1c0.1,0,0.1,0,0.1,0.1c-0.2,0.1-0.5,0-0.6-0.1l-0.4,0.3
						c0-0.1,0.1-0.1,0.1-0.2c-0.2,0.3-0.1-0.2-0.3,0.1c0,0,0,0.1,0,0.2c-0.2-0.1-0.4,0-0.6,0.1l0-0.1c-0.4,0.1-0.7,0.3-1.1,0.4
						c0.2,0,0.2,0.2,0.1,0.3l-0.1-0.2c0,0.1,0.1,0,0,0.2c-0.2,0-0.2-0.2-0.1-0.3l-0.2,0.1c0-0.1,0-0.1,0-0.2c0,0.1-0.4-0.1-0.4,0.2
						l0-0.1c-0.4,0.1-0.5,0.3-0.8,0.4c0.1,0.2-0.1,0.2-0.1,0.3c-0.2,0-0.6,0-0.8,0.1c-0.2,0.2,0,0.2-0.1,0.3c-0.1-0.1-0.3,0-0.2-0.2
						c-0.3,0.2-0.4,0.2-0.8,0.5c0.1,0,0.1,0,0.1,0.1c-0.1,0.1-0.2,0-0.2-0.1l0,0c-0.4,0.4-1.2,0-1.5,0.4l0,0L3,42
						c-0.2,0,0.1-0.2-0.1-0.2c-0.1,0.1-0.2,0.2-0.2,0.2c0,0-0.1,0-0.1,0c-0.1,0-0.1,0-0.2,0.1c0-0.3,0-0.3,0-0.2c0,0-0.2,0.2,0-0.1
						L2.3,42c-0.2,0.1,0.1-0.1,0.2-0.2C2.3,41.9,2.2,42,2.2,42c0-0.1,0.1-0.3,0.2-0.5c0.1-0.1,0.1-0.2,0.2-0.2
						c0.1-0.1,0.1,0,0.2-0.3c0.1-0.3-0.5-0.3-0.1-0.6l0.2,0.2c-0.1-0.7,0.4-1.3,0.4-1.9c0,0,0.1,0.1,0.1,0.1c0.2-0.1,0.1-0.5,0-0.5
						c0-0.1,0.1,0,0.2,0c0.1-0.1-0.1-0.4,0.1-0.4c0,0,0,0,0,0.1c0-0.1,0.1-0.4-0.1-0.3c0.1-0.2,0-0.5,0.2-0.6
						c-0.2-0.2,0.2-0.4-0.1-0.5c0.3,0.1,0.3-0.3,0.2-0.5c0.1,0.1,0.1-0.1,0.2,0c0-0.2,0-0.3-0.1-0.3c0.4-0.2-0.1-0.7,0.4-0.7
						c0-0.5,0-1,0-1.5c0.3,0.1-0.1,0.5,0.2,0.5c0-0.4-0.2-0.7,0-1.1c0.1-0.1,0.1,0.1,0.1,0.1c0-0.4,0.2-0.8,0.2-1.2
						c0,0,0,0.1,0.1,0.1c0-0.1,0.1-0.2,0-0.2l0,0.1c-0.2,0.1-0.3-0.4-0.4-0.4c0.3,0.2,0.2-0.3,0.6,0c0-0.1-0.1-0.1-0.1-0.1
						c0-0.1,0.1-0.1,0.2,0c0-0.3-0.2-0.2-0.1-0.5c0.1,0,0.1,0.1,0.1,0.1C5,30.7,4.9,30.5,5,30.3c0,0,0.1,0,0.1,0.1
						c0.1-0.3-0.2-0.7,0-1c0.2,0.2,0.1-0.1,0.3-0.1l0-0.2l-0.1,0.1c0-0.2-0.1-0.4,0-0.5l0.1,0.2l0-0.3l-0.1,0.2
						c-0.1-0.2-0.3,0-0.2-0.3c0,0.1,0-0.2,0.2-0.2l0,0c-0.1-0.1-0.1-0.2,0-0.3c0.1,0,0.2,0.1,0.3,0.1c-0.2-0.1,0-0.4-0.1-0.6
						c0,0,0.2,0.1,0.2,0.1l-0.1-0.1c0.1-0.1,0.1-0.1,0.2,0c0.1-0.2-0.3,0-0.1-0.2c0,0,0,0,0,0.1c0.1-0.3,0-0.6,0.2-0.8
						c0.2,0,0,0.2,0.2,0.2c0-0.4-0.1-0.9,0-1.2l0,0.1c-0.3-0.1,0.2-0.3,0.1-0.5c0,0.1,0.2,0.1,0.1,0.1c0.1-0.3,0-0.5,0-1l0.1,0.1
						c0.1-0.1,0.1-0.4,0.2-0.6c-0.1-0.1,0-0.2-0.2-0.1c0.6-0.4-0.1-1,0.4-1.4c0,0.1,0,0.1,0.1,0.1l0-0.4c-0.1,0-0.1,0-0.2,0.1
						c-0.1-0.1-0.1-0.2-0.1-0.3c0.1,0.2,0.2,0,0.3,0c0,0-0.1,0-0.1,0c0.3-0.2-0.3-0.1-0.1-0.3l0.1,0c0-0.1-0.1-0.2-0.1-0.3
						c0.2,0,0.1,0.1,0.2,0.2c0-0.2-0.3-0.4-0.1-0.5c0,0.1,0,0.2,0.1,0.2c0.2-0.1,0.2-0.1,0.2-0.3l0,0L7.1,20L7,20.1
						c-0.4-0.3,0-0.4-0.2-0.7c0.2,0.3,0.1,0.1,0.3,0.1c0.1-0.1,0.1-0.2,0.2-0.1c-0.1-0.2,0.2-0.2,0-0.4c0.1,0,0-0.1,0.2-0.1
						c0-0.2-0.1,0-0.2,0c-0.2-0.3,0.3-0.5,0.1-1c-0.1-0.3-0.3-0.4-0.3-0.7c0.1-0.1,0.2,0.1,0.2,0.1c0.1-0.1,0.1-0.3,0.1-0.4
						c0,0,0.1,0,0.2,0c0-0.1-0.2-0.1-0.1-0.3c0.1,0,0.2,0.1,0.2,0.2c0-0.1-0.1-0.3-0.2-0.5c0.1,0,0.1,0.1,0.2,0.2
						c0-0.2,0-0.4-0.2-0.5l-0.1,0.1c0-0.1,0.1,0,0.2,0c0.1,0.2-0.1,0.2-0.1,0.2l0-0.1c-0.4,0.1,0,0.4-0.1,0.6l-0.2-0.1L7.3,17
						c-0.1,0-0.2,0-0.2-0.1C6.9,17,7.1,17,6.9,17.1c0,0,0,0,0,0L7,17.3c0,0-0.2,0-0.1-0.1c-0.2,0.2,0.1,0.5-0.1,0.5l0,0
						c0,0.4,0.2,0.1,0.4,0.4l-0.5,0.1l0.2,0.1c0,0,0,0.1-0.1,0.1c0.1,0.2,0.1,0,0.2,0.1c-0.2,0.2,0,0.5-0.3,0.5
						C6.7,19,6.7,18.8,6.7,19c-0.3,0,0,0.2-0.2,0.4c-0.2-0.1,0-0.2-0.2-0.1c0.3,0.1-0.1,0.3-0.1,0.5c0.2,0,0,0.3,0.1,0.6
						c-0.1,0-0.2,0.4-0.3,0.6l0,0c0.2,0.1,0.1,0.3,0.1,0.5c-0.1,0-0.2-0.1-0.2-0.2l0,0.2C6,21.4,6,21.4,6,21.5l-0.2-0.1
						c0,0.2,0.1,0.4,0,0.7c0.2,0,0.5-0.1,0.5,0.2c-0.1,0-0.2,0-0.3-0.1c0,0,0.1,0.1,0,0.1L6,22.2c-0.1,0.1,0.1,0.1,0.1,0.2
						c-0.1,0-0.1,0.1-0.2,0c0,0,0.1-0.1,0-0.1c0,0.1-0.1,0.2-0.2,0.2c0.1,0,0.2,0,0.2,0.1c0,0.2-0.2,0-0.2,0.1
						c0.1,0.1,0,0.2,0.1,0.2c0,0.1-0.1,0.1-0.2,0.1c0.1,0.1-0.1,0.5,0.1,0.4l0,0l0,0l0,0l0,0c0.1,0.4-0.2,0.7-0.2,1l-0.1,0
						c0,0.2-0.1,0.5,0,0.6c0,0.1-0.1,0.1-0.2,0.1c0,0.2,0.1,0.2-0.1,0.4c-0.1-0.2-0.1,0,0-0.2c-0.1,0.2-0.2,0.2-0.1,0.5
						c-0.1-0.1-0.2,0.1-0.2,0.2L5,26c0,0.1,0,0.2-0.1,0.3l-0.2-0.1c-0.3,0.4,0.3,0.8-0.2,1.1c0.1,0.1,0.1-0.2,0.3-0.1
						c-0.1,0.2-0.4,0.3-0.4,0.4c-0.2,0.2,0.2,0.3,0.1,0.6c0.1,0,0.3,0,0.3,0.2c-0.1,0.2-0.3,0.2-0.4,0c0,0,0-0.1,0.1-0.1
						c0-0.1,0-0.2-0.1-0.1l0.1,0c-0.1,0.1-0.1,0.3-0.2,0.3c0,0.2,0.1,0.1,0.2,0c-0.2,0.2-0.1,0.4-0.2,0.6c0,0,0.1,0,0.1,0
						c-0.2,0.3,0.1,0.2,0.1,0.4c-0.1,0.1-0.2-0.1-0.2,0.2c-0.1,0.1-0.2,0-0.2-0.1C4,29.9,3.7,30,3.7,30.2l0-0.1c0,0.1,0,0.1,0,0.2
						l0.2,0c0,0.1-0.1,0.1-0.1,0.1c0.1,0.1,0.2,0,0.3,0.2c-0.1,0.1,0,0.3-0.2,0.3c0.1-0.3-0.2,0-0.2-0.3c0,0.1,0,0.1,0,0.2
						c0,0,0,0,0,0c-0.2,0.2,0.2,0.2,0.1,0.5c-0.1-0.1-0.2,0-0.2,0.1c0-0.1,0.2,0,0.2,0.1c-0.1,0.2,0,0.2,0,0.3l0.1-0.1
						c0.1,0.1,0.1,0.2,0.1,0.3c-0.1,0,0-0.1-0.1-0.1c0.2,0.2-0.3,0.3-0.2,0.5c-0.1,0.1-0.2,0-0.3,0c0.1,0.3-0.2,0.2-0.1,0.5
						c0.2,0,0.1-0.1,0.2,0.1l0-0.4l0.1,0.3c0-0.1,0-0.3,0-0.3c0.1,0.1,0.1,0.1,0.2,0.1c-0.3,0.1,0,0.3-0.1,0.5l-0.4-0.1
						c-0.2,0.2,0.1,0.5-0.1,0.9l0.1-0.1c0.1,0.1,0,0.2,0,0.4c-0.1,0-0.2,0-0.3,0.1c0.1,0-0.1,0.3,0.2,0.4l-0.2,0.1
						C2.7,34.9,3.1,35,3,35.3c-0.1-0.1-0.2,0-0.3-0.2c0,0.1-0.1,0.2,0,0.2c-0.1,0,0.1,0.3,0,0.4c0,0.1,0.2,0.1,0.1,0.2
						c0,0-0.1,0-0.1,0c0.1,0,0,0.2,0.2,0.1c-0.4,0.2-0.2,0.8-0.6,1c0,0.2,0,0.5-0.1,0.7c0,0-0.1,0,0,0c-0.2,0.2,0.3,0.3,0.1,0.5
						c-0.2,0.1-0.1-0.2-0.2-0.1c-0.4-0.1,0,0.4-0.3,0.5l0-0.1c-0.2,0.1,0,0.4-0.1,0.6c0,0,0,0-0.1,0c0.1,0.2,0.1,0.6,0.1,0.8
						c-0.1-0.1,0-0.1-0.2-0.1c0,0.1,0.3,0,0.2,0.3c-0.1,0-0.2,0.2-0.4,0.1l0-0.2c-0.2,0-0.1,0.3-0.1,0.3l-0.1,0
						c-0.1,0.3,0.2,0.4,0.1,0.7l0.1,0c0.2,0.3-0.2,0.2-0.1,0.4l-0.3,0.1c0,0.2,0.1,0.5,0.1,0.7C1,42,1,41.7,1,41.5
						c-0.1,0.2-0.2,0.6,0,0.6c0-0.1-0.1-0.1,0-0.2c0.2,0.1,0.2,0.3,0.1,0.5c-0.3,0.2-0.4,0.4-0.5,0.6c-0.1,0.3-0.2,0.5-0.5,0.9
						c0,0.1,0,0.2-0.1,0.4c0.1,0,0.3-0.1,0.4-0.1c0.3-0.1,0.6-0.1,1-0.3c0-0.4,0.2-0.1,0.4-0.6c0.2-0.1,0.2-0.1,0.2-0.1
						c0,0,0.4,0.1,0.4,0.1c0.1,0.1-0.2,0.2-0.2,0.2c0.4-0.1,0.2,0.1,0.5,0.1c-0.1-0.1,0.1-0.3,0.4-0.3c0,0-0.4,0-0.4,0
						C3,43.3,3,43.2,3.1,43.2c0.1,0,0.1,0,0.2,0c0.1,0,0.2,0.1,0.3-0.1l-0.1,0.2c0.1-0.1,0.6-0.2,0.7-0.6c0,0,0.1,0.1,0.1,0.2
						c0.4-0.1,0.8-0.7,1.2-0.6l0,0.1c0.1-0.1,0.1-0.2,0.2-0.2c0,0,0,0.1,0,0.1c0,0,0.1-0.2,0.3-0.2l0,0.1c0.4,0,0.5-0.5,0.8-0.7
						c0.1,0.3,0.4,0.2,0.6,0.2l0,0c0.5-0.1,0.7-0.5,1.1-0.8c0.4,0.2,0.9-0.2,1.4-0.2c-0.1,0-0.1-0.2,0-0.3c0.1,0,0.2-0.3,0.3,0l0,0
						c0.2,0.2,0.3,0.1,0.5,0l-0.1-0.3c0.6,0.3,1.1-0.5,1.4-0.2c0.1-0.1,0.2-0.1,0.3-0.3l0,0.2c0.3,0,0.4,0,0.8-0.2l0,0.1
						c0.2,0,0.1-0.6,0.3-0.6l0.1,0.2c0.3-0.1,0.8,0.1,1.1-0.2c0,0,0,0.1,0,0.1c0.2,0,0.7,0,0.5-0.3c0,0.2,0.4-0.1,0.5-0.2l0,0.2
						c0.1-0.2,0.1-0.3,0.3-0.4c0.1,0,0.1,0.1,0,0.1c0.2,0.1,0.1-0.2,0.3-0.1l-0.1,0.1c0.2,0,0.2-0.1,0.2-0.2c0.1-0.1,0.4,0,0.4,0.1
						c0-0.1,0.1-0.2,0.2-0.2c0,0.1,0,0.1,0,0.1c0.3,0.1,0.4-0.2,0.7-0.1c0,0.1,0,0.1,0,0.1c-0.2,0-0.4,0-0.4,0
						c0,0.2,0.2,0.2,0.1,0.4c0.1-0.1,0.4-0.4,0.6-0.4c0,0,0,0,0,0.1l0,0c0,0,0.1,0,0.1,0c0.1,0,0.1,0,0.2,0c0,0.1,0.2,0.1,0.3,0.1
						c0-0.2,0.1-0.1,0-0.3c0,0,0,0-0.1,0c0,0,0,0,0,0l0,0c-0.1,0-0.2,0-0.2,0c0.1-0.1,0.2-0.2,0.3-0.1c0-0.1,0.1-0.2,0.1-0.3
						c0.2,0.2,0.4,0.4,0.5,0.5c0.3-0.1,0.7-0.1,0.9-0.4c0.1,0,0.1,0.1,0.1,0.1c-0.1,0-0.1,0-0.1,0.1c0.2-0.1,0.5,0,0.6-0.3
						c0.2,0.1-0.1,0.2,0.2,0.2l0,0.1c0.6,0.4,1-0.6,1.6-0.1c0,0-0.1,0-0.1-0.1c0.7,0.2,1.6-0.1,2.3,0.3c0.2,0.1,0.2-0.1,0.4-0.1
						l0,0.2l0.2-0.2c0.3-0.1,0.5,0.5,0.9,0.3l0-0.1c0.1,0,0.5,0,0.4,0.1c0,0,0.1-0.1,0.1,0l0,0.1l0.4-0.1c0.3,0.1-0.1,0.4,0.3,0.5
						c0.2,0,0.5-0.2,0.4-0.3c-0.1,0-0.1-0.1-0.1-0.2l0.1,0c0.1-0.3,0.2-0.6-0.1-0.8l-0.3,0.1l-0.1-0.1l0.2,0c-0.1-0.1-0.2,0-0.3,0
						c0-0.1,0-0.1-0.1-0.2L27,38.2c0-0.1,0.1-0.2,0-0.3c-0.1,0.1,0.1,0.3-0.1,0.3c-0.1-0.1,0-0.2-0.2-0.2c0-0.1,0-0.1,0.1-0.1
						c-0.1,0.1-0.3,0-0.4,0.1c-0.1-0.2-0.4,0-0.3-0.3c0,0.1-0.2,0.2-0.3,0.2c0.2-0.3-0.4-0.1-0.3-0.4c-0.2,0.3-0.5,0.1-0.8,0.2
						c0,0,0.1-0.1,0.1,0c-0.1,0-0.2-0.1-0.3-0.2c0,0.2-0.3,0.3-0.4,0.4c-0.2-0.3,0.1-0.3,0.1-0.5c0,0.2-0.3,0.2-0.3,0.3
						c-0.1-0.2-0.1-0.1-0.2-0.3c-0.1,0.3-0.1,0-0.3,0.2c-0.2-0.2,0-0.3-0.3-0.2C22.9,37.3,23.1,37.2,23.1,37.2z M17.9,37.8
						L17.9,37.8c0,0,0.1,0,0.1,0C18,37.7,18,37.7,17.9,37.8z M17.5,37.8c0.1,0,0.1,0,0.2,0c0,0.1,0,0.1,0,0.1
						C17.7,37.9,17.6,37.8,17.5,37.8z M18.5,38.9c-0.1,0-0.1,0-0.1,0C18.4,38.9,18.5,38.9,18.5,38.9L18.5,38.9
						C18.5,38.9,18.5,38.9,18.5,38.9z"/>
					<path fill="#FFFFFF" d="M18.6,38.7C18.6,38.7,18.6,38.7,18.6,38.7C18.6,38.7,18.6,38.6,18.6,38.7L18.6,38.7L18.6,38.7z"/>
					<path fill="#FFFFFF" d="M5.7,23.5L5.7,23.5C5.7,23.5,5.7,23.5,5.7,23.5C5.7,23.5,5.7,23.5,5.7,23.5z"/>
					<polygon fill="#FFFFFF" points="11.5,38.6 11.5,38.7 11.6,38.6 					"/>
					<path fill="#FFFFFF" d="M6.7,21.3C6.7,21.3,6.7,21.3,6.7,21.3C6.8,21.3,6.7,21.3,6.7,21.3z"/>
					<path fill="#FFFFFF" d="M6.9,20.3L7,20.2C7,20.2,6.9,20.2,6.9,20.3z"/>
					<path fill="#FFFFFF" d="M7.2,19.5C7.1,19.5,7.1,19.5,7.2,19.5L7.2,19.5L7.2,19.5z"/>
					<path fill="#FFFFFF" d="M4.9,31.8C4.9,31.8,4.9,31.8,4.9,31.8C4.9,31.9,4.9,31.9,4.9,31.8z"/>
					<path fill="#FFFFFF" d="M5.3,28.1c0,0,0,0.1,0.1,0.1C5.4,28.2,5.4,28.1,5.3,28.1z"/>
					<polygon fill="#FFFFFF" points="4.1,35.9 4.1,35.9 4.1,35.9 					"/>
					<path fill="#FFFFFF" d="M5.3,28.4c0-0.1,0.1-0.1,0-0.2C5.3,28.3,5.3,28.3,5.3,28.4z"/>
					<path fill="#FFFFFF" d="M7.8,16.2L7.8,16.2C7.8,16.1,7.8,16.1,7.8,16.2L7.8,16.2z"/>
					<path fill="#FFFFFF" d="M7.8,16.1L7.8,16.1C7.8,16.1,7.8,16.1,7.8,16.1z"/>
					<path fill="#FFFFFF" d="M7.7,16L7.7,16C7.8,16.1,7.8,16,7.7,16z"/>
					<path fill="#FFFFFF" d="M7.5,17.2L7.5,17.2C7.6,17.2,7.6,17.2,7.5,17.2z"/>
					<path fill="#FFFFFF" d="M7.5,17.5c0-0.1,0.2-0.2,0.1-0.3l0,0C7.7,17.3,7.4,17.4,7.5,17.5z"/>
					<path fill="#FFFFFF" d="M6.5,18.7l0.1-0.3c-0.1,0-0.2,0.1-0.2,0C6.2,18.7,6.6,18.3,6.5,18.7z"/>
					<path fill="#FFFFFF" d="M6.3,19.5c0-0.1-0.1,0-0.1,0C6.2,19.5,6.2,19.6,6.3,19.5z"/>
					<path fill="#FFFFFF" d="M5.2,25.3l-0.2,0C5,25.3,5.1,25.2,5.2,25.3z"/>
					<polygon fill="#FFFFFF" points="5.8,26.6 5.9,26.5 5.8,26.4 					"/>
					<polygon fill="#FFFFFF" points="4.5,27 4.5,26.9 4.5,27.1 					"/>
					<path fill="#FFFFFF" d="M2.3,36.6l0.2,0C2.5,36.6,2.3,36.5,2.3,36.6z"/>
					<path fill="#FFFFFF" d="M1.3,40.8c-0.1,0-0.2,0.2-0.2,0.3C1.2,41,1.3,40.9,1.3,40.8z"/>
					<polygon fill="#FFFFFF" points="10.9,40.5 10.8,40.6 11,40.4 					"/>
				</g>
			</g>
		</g>
	</g>
</g>
</svg>
