<?xml version="1.0" encoding="utf-8"?>
<!-- Generator: Adobe Illustrator 18.0.0, SVG Export Plug-In . SVG Version: 6.00 Build 0)  -->
<!DOCTYPE svg PUBLIC "-//W3C//DTD SVG 1.1//EN" "http://www.w3.org/Graphics/SVG/1.1/DTD/svg11.dtd">
<svg version="1.1" id="Layer_1" xmlns="http://www.w3.org/2000/svg" xmlns:xlink="http://www.w3.org/1999/xlink" x="0px" y="0px"
	 viewBox="0 0 61.3 31.5" enable-background="new 0 0 61.3 31.5" xml:space="preserve">
<g>
	<g>
		<path fill="none" d="M36.1,0.3c0,0,12.4,9.3,24.5,15.4c-10.1,4.6-15.2,5.9-22.2,15.8 M57,15.5H0"/>
		<g>
			<g>
				<g>
					<path fill="#FFFFFF" d="M0,15.1c0,0.1,0,0.2,0.1,0.2l0.1-0.2L0,15.1z"/>
					<path fill="#FFFFFF" d="M0.6,15.5c0.1-0.1,0.2-0.3,0.1-0.5c-0.1,0.2-0.1,0.1-0.2,0.3c-0.1,0-0.1-0.1-0.1-0.1
						c0,0.1-0.1,0-0.2,0.1c0.1,0.2,0.2,0.2,0.4,0C0.6,15.4,0.6,15.4,0.6,15.5z"/>
					<path fill="#FFFFFF" d="M8.7,15.8L8.7,15.8C8.6,15.8,8.6,15.8,8.7,15.8z"/>
					<path fill="#FFFFFF" d="M13.7,15.9C13.6,15.9,13.6,15.9,13.7,15.9C13.6,16,13.7,15.9,13.7,15.9z"/>
					<path fill="#FFFFFF" d="M14.5,16.1C14.5,16.1,14.5,16.1,14.5,16.1C14.5,16.2,14.5,16.2,14.5,16.1z"/>
					<path fill="#FFFFFF" d="M8.7,15.8l0.1,0.1C8.8,15.8,8.7,15.8,8.7,15.8z"/>
					<path fill="#FFFFFF" d="M1.7,15C1.7,15,1.6,15,1.7,15C1.6,15,1.7,15,1.7,15C1.7,15,1.7,15,1.7,15z"/>
					<path fill="#FFFFFF" d="M6.4,16L6.4,16C6.4,16,6.4,16,6.4,16L6.4,16z"/>
					<path fill="#FFFFFF" d="M4.8,16c0,0,0.1-0.2,0.1-0.2c0,0.1,0,0.1-0.1,0.1C4.7,15.9,4.7,16,4.8,16z"/>
					<path fill="#FFFFFF" d="M2.1,15.7L2.1,15.7C2,15.7,2.1,15.7,2.1,15.7z"/>
					<path fill="#FFFFFF" d="M7.7,16C7.7,16,7.7,16.1,7.7,16C7.7,16.1,7.7,16,7.7,16z"/>
					<path fill="#FFFFFF" d="M55,14.7C55,14.7,55.1,14.7,55,14.7C55.1,14.7,55.1,14.7,55,14.7z"/>
					<path fill="#FFFFFF" d="M57,15.6L57,15.6c0,0,0,0.1,0,0.1L57,15.6z"/>
					<path fill="#FFFFFF" d="M16.1,16.4C16.1,16.4,16.1,16.4,16.1,16.4C16,16.4,16.1,16.4,16.1,16.4z"/>
					<path fill="#FFFFFF" d="M30.4,16.2c-0.2-0.2,0.3-0.2,0-0.4C30.5,15.9,30.2,16.1,30.4,16.2z"/>
					<path fill="#FFFFFF" d="M1.7,15C1.8,15,1.8,15,1.7,15C1.8,15,1.7,15,1.7,15z"/>
					<path fill="#FFFFFF" d="M30.5,15.9C30.5,15.9,30.5,15.9,30.5,15.9L30.5,15.9C30.5,15.9,30.5,15.9,30.5,15.9z"/>
					<path fill="#FFFFFF" d="M19.7,16.3C19.7,16.2,19.7,16.2,19.7,16.3C19.7,16.2,19.7,16.2,19.7,16.3z"/>
					<path fill="#FFFFFF" d="M17,16L17,16C17,16,17,16,17,16z"/>
					<path fill="#FFFFFF" d="M21.1,16C21.1,16,21.1,16.1,21.1,16C21.2,16,21.2,16,21.1,16C21.1,16,21.1,16,21.1,16z"/>
					<path fill="#FFFFFF" d="M22.5,16C22.5,16,22.5,16,22.5,16C22.5,16,22.5,16,22.5,16L22.5,16z"/>
					<path fill="#FFFFFF" d="M50.6,14.8c0,0,0.1,0.1,0.1,0.2C50.7,14.8,50.9,14.8,50.6,14.8z"/>
					<path fill="#FFFFFF" d="M1.7,15.1C1.7,15,1.7,15,1.7,15.1C1.7,15,1.7,15,1.7,15.1C1.7,15.1,1.7,15.1,1.7,15.1z"/>
					<path fill="#FFFFFF" d="M21.1,14.6l0.2,0C21.3,14.7,21.2,14.6,21.1,14.6z"/>
					<path fill="#FFFFFF" d="M40.2,14.8L40.2,14.8C40.3,14.8,40.2,14.8,40.2,14.8z"/>
					<path fill="#FFFFFF" d="M22.1,14.6c0,0.1,0.1,0.1,0.1,0.1c0,0,0,0,0,0L22.1,14.6z"/>
					<path fill="#FFFFFF" d="M50.7,14.9C50.7,14.9,50.7,14.9,50.7,14.9C50.7,14.9,50.7,14.9,50.7,14.9z"/>
					<path fill="#FFFFFF" d="M52.2,14.5c-0.2,0-0.1,0.2-0.1,0.4c-0.3,0.1-0.1-0.2-0.2-0.3c-0.2,0.1-0.3,0.3-0.4,0.3c0,0,0-0.1,0-0.1
						c-0.2,0.2-0.5,0-0.7,0.2c0,0,0,0,0-0.1c0,0.1,0,0.2,0,0.3c-0.1,0-0.2,0.1-0.2,0c0.1,0,0.1-0.1,0.1-0.1l-0.1,0.1
						c-0.1-0.2,0.1-0.1,0.1-0.2c-0.2,0.1-0.4,0.2-0.6,0.2c0-0.2,0.4-0.1,0.2-0.3l0.2,0.1c-0.2-0.3,0.1,0,0-0.3
						c-0.3-0.1-0.4,0.1-0.7,0c-0.1,0.1,0,0.2,0,0.3c-0.4,0.2-0.4-0.5-0.7-0.2c-0.1,0.1-0.1,0.4-0.4,0.3l0.1-0.2
						c-0.3,0-0.2,0.3-0.5,0.2c0.1-0.1,0.2-0.1,0.2-0.1c-0.2-0.2-0.1,0.1-0.3,0.1l0-0.2c-0.3,0-0.7,0.2-1,0.2c0-0.1,0.1-0.1,0-0.2
						c-0.5,0.1-1,0-1.4-0.2l-0.2,0.2c0,0-0.1-0.1,0-0.1c-0.2-0.1,0,0.1-0.1,0.2c-0.1,0-0.1-0.1-0.1-0.2c-0.3,0.2-0.9,0.3-1.2,0.1
						l0.1-0.1c-0.2-0.1-0.3,0.4-0.5,0.2l0,0c-0.5-0.1-1.1,0.1-1.5-0.2c-0.1,0.3-0.5-0.1-0.6,0.2c-0.3-0.2-0.2-0.2-0.6-0.4
						c-0.1,0-0.2,0.2-0.3,0.3l0-0.2L40.5,15l-0.1-0.2l-0.1,0c0.1,0,0.1,0.1,0.1,0.1c-0.2,0.1-0.5-0.1-0.5-0.2l-0.5,0.2
						c0-0.1,0.1-0.1,0.2-0.2c-0.3,0.2,0-0.2-0.3,0c0,0,0,0.1,0,0.2c-0.1-0.1-0.4-0.1-0.6-0.1l0-0.1c-0.4,0-0.8,0.1-1.2,0.1
						c0.1,0.1,0.1,0.3,0,0.3l0-0.2c-0.1,0.1,0.1,0.1,0,0.2c-0.2,0-0.1-0.2,0-0.3l-0.2,0.1c0-0.1,0-0.1,0-0.2c-0.1,0.1-0.3-0.2-0.4,0
						l0-0.1c-0.4,0-0.6,0.1-0.9,0.1c0,0.2-0.1,0.1-0.2,0.3c-0.2-0.1-0.5-0.2-0.8-0.2c-0.2,0.1-0.1,0.1-0.2,0.3
						c0-0.2-0.3-0.1-0.2-0.3c-0.4,0-0.5,0-0.9,0.2c0,0.1,0.1,0.1,0.1,0.1c-0.1,0-0.2-0.1-0.2-0.1l0,0c-0.5,0.2-1.2-0.5-1.6-0.1l0,0
						l-0.4,0.2c-0.2,0,0.1-0.1,0-0.2c-0.4,0.3-0.7,0-1.1,0.1c-0.3-0.5-1,0-1.4-0.3l0,0.1c-0.1,0.1-0.1-0.1-0.2-0.1
						c0,0.1,0.1,0.1,0,0.2c-0.8,0.1-1.7-0.2-2.6-0.3c-0.3,0-0.2,0.6-0.6,0.3l0.1-0.2c-0.6,0.2-1.3,0-1.9,0.2c0,0,0-0.1,0.1-0.1
						c-0.1-0.1-0.5,0-0.5,0.1c-0.1,0,0-0.1-0.1-0.2c-0.1-0.1-0.3,0.2-0.4,0c0,0,0,0,0.1-0.1c-0.1,0.1-0.4,0-0.3,0.2
						c-0.2-0.1-0.4,0.1-0.6,0c-0.1,0.2-0.4-0.1-0.4,0.2c0-0.3-0.4-0.2-0.6-0.1c0-0.1-0.1-0.1-0.1-0.2c-0.2,0-0.3,0.1-0.3,0.2
						c-0.3-0.3-0.6,0.3-0.8-0.2c-0.5,0.2-1,0.3-1.4,0.3c0-0.3,0.5,0,0.5-0.3C18.6,14.8,18.4,15,18,15c-0.1,0,0.1-0.1,0.1-0.2
						c-0.4,0.1-0.8,0-1.2,0.1c0,0,0-0.1,0.1-0.1c-0.1,0-0.2,0-0.2,0.1l0.1,0c0.1,0.2-0.3,0.4-0.3,0.5c0.1-0.4-0.4-0.1-0.2-0.6
						c0,0-0.1,0.1-0.1,0.2c-0.1,0-0.1-0.1,0-0.2C16,14.9,16.1,15,15.8,15c0-0.1,0.1-0.1,0.1-0.2c-0.1,0.1-0.2,0.2-0.5,0.2
						c0,0,0-0.1,0-0.1c-0.4,0-0.6,0.3-1,0.2c0.1-0.3-0.1-0.1-0.2-0.3l-0.2,0.1l0.1,0.1c-0.2,0-0.3,0.2-0.5,0.1l0.1-0.1l-0.3,0
						l0.2,0.1c-0.2,0.1,0,0.3-0.2,0.2c0,0-0.2,0-0.3-0.1c0,0,0,0,0,0c-0.1,0.1-0.2,0.2-0.3,0.1c0-0.1,0-0.3,0-0.3
						c-0.1,0.2-0.4,0.1-0.5,0.3c0,0,0-0.2,0-0.2l-0.1,0.2c-0.1-0.1-0.1-0.1-0.1-0.2c-0.3,0,0.1,0.3-0.2,0.2c0,0,0,0,0.1-0.1
						c-0.3-0.1-0.6,0.1-0.9,0c-0.1-0.2,0.2-0.1,0.1-0.3c-0.4,0-0.8,0.3-1.2,0.2l0.1,0c-0.1,0.3-0.3-0.2-0.5,0c0,0,0.1-0.2,0.1-0.1
						c-0.3-0.1-0.5,0.1-0.9,0.2l0.1-0.1c-0.2-0.1-0.4,0-0.6-0.1c-0.1,0.1-0.1,0.1-0.1,0.2c-0.5-0.5-1,0.3-1.5-0.1
						c0.1,0,0.1-0.1,0.1-0.1l-0.4,0.1c0,0.1,0.1,0.1,0.1,0.2c-0.1,0.1-0.2,0.2-0.3,0.2c0.2-0.1,0-0.2-0.1-0.3c0,0,0,0.1,0,0.1
						c-0.2-0.3,0,0.3-0.3,0.1l0-0.1c-0.1,0-0.2,0.1-0.3,0.1c0-0.2,0.1-0.1,0.1-0.2c-0.2,0-0.3,0.3-0.5,0.1c0.1,0,0.2,0,0.2-0.1
						c-0.2-0.2-0.2-0.1-0.3-0.2l0,0l-0.3-0.1L5,15.1c-0.2,0.4-0.4,0.1-0.7,0.4c0.3-0.3,0-0.2,0.1-0.3C4.3,15.1,4.2,15,4.2,15
						c-0.1,0.2-0.2-0.1-0.4,0.1c0-0.1-0.1,0-0.1-0.2c-0.2,0,0,0.1,0,0.2c-0.3,0.2-0.6-0.3-1,0c-0.3,0.1-0.4,0.3-0.7,0.4
						c-0.1-0.1,0.1-0.2,0.1-0.2c-0.2-0.1-0.3-0.1-0.4,0c0-0.1,0-0.1,0-0.2c-0.1,0-0.1,0.2-0.2,0.1c0-0.1,0.1-0.2,0.1-0.2
						c-0.1,0.1-0.3,0.2-0.4,0.2c0-0.1,0.1-0.2,0.1-0.2c-0.2,0-0.4,0.1-0.5,0.3l0.1,0.1c-0.1,0,0-0.1,0-0.2c0.1-0.1,0.2,0.1,0.2,0.1
						l-0.1,0c0.1,0.4,0.4-0.1,0.6,0l-0.1,0.3l0.2-0.2c0,0.1,0.1,0.2,0,0.2c0.2,0.1,0.1-0.1,0.3,0.1c0,0,0,0,0,0l0.1-0.1
						c0,0.1,0,0.2-0.1,0.1c0.3,0.1,0.4-0.2,0.5,0l0,0c0.4-0.1,0-0.2,0.3-0.4l0.2,0.5l0-0.2c0,0,0.1,0,0.1,0.1c0.1-0.1,0-0.1,0.1-0.2
						c0.2,0.2,0.5-0.1,0.5,0.2c0.1-0.1-0.2-0.1,0-0.2c0.1,0.3,0.2-0.1,0.4,0.1c-0.1,0.2-0.2,0.1,0,0.2c0.1-0.3,0.3,0.1,0.5,0
						c0-0.2,0.3-0.1,0.5-0.2c0,0.1,0.4,0.1,0.7,0.2l0,0c0-0.2,0.3-0.2,0.4-0.2c0,0.1,0,0.2-0.1,0.3l0.2,0c0-0.1,0.1-0.1,0.2-0.1
						l0,0.2c0.2,0,0.4-0.2,0.7-0.1c0-0.2-0.2-0.4,0.1-0.5c0,0.1,0,0.2-0.1,0.3c0,0,0.1-0.1,0.1,0l-0.1,0.1c0.1,0.1,0.1-0.1,0.2-0.1
						c0,0.1,0.1,0.1,0.1,0.2c0,0-0.1-0.1-0.1,0c0.1,0,0.2,0.1,0.3,0.2c0-0.1,0-0.2,0.1-0.2c0.2,0,0.1,0.1,0.2,0.2
						C8,16,8.1,16,8.1,15.9c0.1,0,0.1,0.1,0.1,0.1c0.1-0.1,0.5,0,0.4-0.2l0,0c0,0,0,0,0,0c0,0,0,0,0,0h0c0.4-0.2,0.7,0.1,1.1,0
						l0,0.1c0.2-0.1,0.5,0,0.6-0.2c0.1,0,0.1,0.1,0.1,0.2c0.2,0,0.2-0.1,0.4,0c-0.2,0.1,0.1,0.1-0.2,0.1c0.2,0.1,0.3,0.2,0.5,0
						c-0.1,0.2,0.2,0.2,0.3,0.2l-0.1-0.1c0.1,0,0.2,0,0.3,0l-0.1,0.2c0.4,0.3,0.8-0.4,1.1,0c0.1-0.1-0.2-0.1-0.1-0.3
						c0.2,0,0.4,0.3,0.5,0.3c0.3,0.1,0.2-0.3,0.5-0.2c0-0.1-0.1-0.3,0.1-0.3c0.2,0,0.2,0.3,0.1,0.4c0,0-0.1,0-0.1,0
						c-0.1,0-0.1,0.1-0.1,0.1l0-0.1c0.1,0.1,0.4,0.1,0.3,0.2c0.1-0.1,0.1-0.1,0-0.2c0.3,0.1,0.4,0,0.6,0.1c0,0-0.1-0.1,0-0.1
						c0.4,0.1,0.2-0.1,0.4-0.2c0.1,0.1-0.1,0.3,0.2,0.2c0.2,0.1,0,0.2,0,0.3c0.2-0.1,0.4,0.1,0.6,0.1l-0.1,0.1c0.1,0,0.1,0,0.2,0
						l-0.1-0.1c0.1,0,0.1,0,0.1,0.1c0.1-0.1-0.1-0.2,0.1-0.4c0.1,0.1,0.3-0.1,0.3,0.1c-0.3-0.1,0,0.2-0.2,0.2c0,0,0.1,0,0.2,0
						c0,0,0,0,0,0.1c0.3,0.2,0.1-0.2,0.4-0.2c0,0.1,0.1,0.2,0.1,0.2c-0.1,0-0.1-0.2,0.1-0.3c0.2,0.1,0.2-0.1,0.3-0.1l-0.1,0
						c0-0.1,0.1-0.1,0.3-0.1c0,0.1-0.1,0.1-0.1,0.1c0.1-0.2,0.3,0.2,0.5,0.1c0.1,0.1,0,0.2,0.1,0.3c0.2-0.1,0.3,0.2,0.5,0
						c-0.1-0.1-0.1-0.1,0.1-0.3l-0.4,0.1l0.3-0.2c-0.1,0-0.3,0.1-0.3,0.1c0.1-0.1,0.1-0.1,0.1-0.2c0.2,0.2,0.3-0.1,0.5,0l0,0.4
						c0.3,0.2,0.5-0.2,0.9-0.1L19.2,16c0.1-0.1,0.2,0,0.4-0.1c0,0.1,0.1,0.2,0.1,0.2c0-0.1,0.3,0,0.3-0.2l0.2,0.2
						c0.3,0.1,0.3-0.3,0.6-0.3c-0.1,0.1,0,0.2-0.2,0.3c0.1,0,0.2,0,0.2-0.1c0.1,0.1,0.3-0.2,0.4,0c0-0.1,0.1-0.2,0.2-0.2
						c0,0,0,0.1,0,0.1c0-0.1,0.2-0.1,0.1-0.2c0.3,0.4,0.8,0,1.1,0.3c0.2,0,0.5-0.1,0.7-0.1c0,0,0,0.1,0,0c0.3,0.1,0.2-0.4,0.5-0.2
						c0.2,0.2-0.2,0.1-0.1,0.2c0,0.4,0.4-0.1,0.6,0.2l0,0c0.2,0.1,0.4-0.2,0.6-0.1c0,0,0,0,0,0.1c0.2-0.2,0.5-0.3,0.8-0.3
						c-0.1,0.2-0.1,0.1-0.1,0.2c0.1,0,0-0.3,0.2-0.3c0.1,0.1,0.2,0.2,0.3,0.3l-0.2,0c0.1,0.2,0.3,0,0.4,0l0,0.1
						c0.3,0,0.3-0.3,0.7-0.3l0-0.1c0.2-0.2,0.2,0.1,0.3,0L27,16c0.1-0.1,0.4-0.2,0.7-0.3c-0.1,0.2-0.4,0.3-0.5,0.4
						c0.1,0,0.4,0,0.5-0.1c0,0-0.1,0.1-0.2,0c0.1-0.2,0.3-0.3,0.6-0.3c0,0.5,0.6,0.1,0.8,0.5c0.4-0.2,0.9,0.1,1.4,0
						c-0.2-0.4,0.1,0,0.1-0.4c0.1,0,0.2,0,0.2,0l0.4,0.2c0.1,0.1-0.1,0.1-0.1,0.2c0.3,0,0.1,0.2,0.3,0.3c0-0.1,0.1-0.2,0.2-0.1
						L31,16.2c0.4-0.2,0.3,0.3,0.7,0.1l-0.1,0.1c0.2-0.1,0.7,0,0.9-0.3c0,0,0.1,0.1,0,0.2c0.4,0,1-0.3,1.3-0.1l0,0.1
						c0.1,0,0.1-0.2,0.2-0.1c0,0,0,0.1,0,0.1c0,0,0.2-0.2,0.3-0.1l-0.1,0.1c0.4,0.1,0.7-0.3,1-0.3c0,0.3,0.3,0.4,0.5,0.4l0,0
						c0.5,0,0.9-0.2,1.3-0.3c0.3,0.3,1,0.1,1.4,0.3c-0.1,0,0-0.2,0.1-0.2c0.1,0.1,0.3-0.2,0.3,0.1l0,0c0.1,0.2,0.3,0.2,0.5,0.2
						l0-0.3c0.5,0.5,1.2-0.2,1.4,0.3c0.1-0.1,0.2-0.1,0.4-0.2l0,0.2c0.3,0,0.5,0.1,0.8,0l-0.1,0.1c0.2,0,0.3-0.5,0.5-0.5l0.1,0.3
						c0.4,0,0.7,0.2,1.1,0c0,0,0,0.1-0.1,0.1c0.2,0,0.7,0.2,0.6-0.2c0,0.2,0.4,0,0.6-0.1l0,0.2c0.2-0.2,0.2-0.3,0.4-0.3
						c0.1,0,0,0.1,0,0.1c0.2,0.1,0.1-0.2,0.4-0.1L45.3,16c0.2,0,0.2,0,0.3-0.2c0.1-0.1,0.4,0,0.4,0.2c0-0.1,0.1-0.2,0.2-0.2
						c0,0.1,0,0.1,0,0.1c0.3,0.1,0.5-0.2,0.7,0c0,0.1,0,0.1,0,0.1c-0.3,0-0.5,0-0.4,0c0,0.2,0.2,0.2,0,0.4c0.2-0.1,0.4-0.4,0.6-0.3
						c0,0,0,0,0,0.1l0,0c0,0,0.1,0,0.1,0c0.1,0,0.1,0,0.2,0c0,0.1,0.2,0.1,0.3,0.1c0-0.2,0.1-0.1,0-0.3c0,0,0,0-0.1,0c0,0,0,0,0,0
						c0,0,0,0,0,0c-0.1,0-0.2,0-0.3,0c0.1-0.1,0.2-0.2,0.3-0.1c0.1-0.1,0.1-0.2,0.1-0.3c0.1,0.2,0.4,0.4,0.4,0.5
						c0.3-0.1,0.7-0.1,0.9-0.4c0.1,0,0.1,0.1,0.1,0.1c-0.1,0-0.1,0-0.1,0.1c0.2-0.1,0.5,0,0.6-0.3C50,15.9,49.7,16,50,16l0,0.1
						c0.6,0.4,1-0.6,1.7-0.1c0,0-0.1,0-0.1-0.1c0.8,0.2,1.6-0.2,2.3,0.1c0.2,0.1,0.2-0.1,0.4-0.2l0,0.2l0.2-0.2
						c0.3-0.2,0.6,0.5,1,0.2l-0.1-0.1c0.1,0,0.5-0.1,0.4,0.1c0,0,0-0.1,0.1-0.1l0,0.1l0.4-0.2c0.3,0.1,0,0.4,0.4,0.4
						c0.1,0,0.4-0.3,0.4-0.4c-0.1,0-0.2-0.1-0.2-0.2l0.1-0.1c0-0.3,0.1-0.6-0.2-0.8L56.5,15l-0.1-0.1l0.2,0c-0.1-0.1-0.2,0-0.3,0.1
						c0-0.1-0.1-0.1-0.1-0.2L56.1,15c0-0.1,0.1-0.2-0.1-0.3c-0.1,0.1,0.1,0.3-0.1,0.3c-0.1-0.1-0.1-0.2-0.2-0.1c0-0.1,0-0.1,0.1-0.2
						c-0.1,0.1-0.3,0-0.4,0.2c-0.1-0.2-0.4,0-0.4-0.2c0,0.1-0.2,0.2-0.3,0.2c0.2-0.3-0.4,0-0.4-0.4c-0.1,0.3-0.5,0.1-0.8,0.3
						c0,0,0-0.1,0.1-0.1c-0.1,0-0.2-0.1-0.3-0.2c0,0.2-0.2,0.3-0.4,0.4c-0.2-0.2,0.1-0.3,0.1-0.5c0,0.2-0.3,0.2-0.2,0.4
						c-0.1-0.1-0.1-0.1-0.2-0.3c0,0.3-0.1,0.1-0.2,0.2c-0.2-0.1-0.1-0.3-0.3-0.2C52,14.6,52.2,14.5,52.2,14.5z M47.1,15.1
						C47.1,15.1,47.1,15.1,47.1,15.1c0,0,0.1,0,0.1,0C47.2,15,47.1,15,47.1,15.1z M46.7,15.1c0.1,0,0.1,0,0.2,0c0,0.1,0,0.1,0,0.1
						C46.8,15.1,46.7,15.1,46.7,15.1z M47.6,16.3c-0.1,0-0.1,0-0.1,0C47.5,16.2,47.5,16.2,47.6,16.3C47.6,16.2,47.6,16.2,47.6,16.3
						C47.6,16.2,47.6,16.2,47.6,16.3z"/>
					<path fill="#FFFFFF" d="M47.7,16C47.7,16,47.7,16,47.7,16C47.7,16,47.7,16,47.7,16C47.7,16,47.7,16,47.7,16
						C47.7,16,47.7,16,47.7,16z"/>
					<path fill="#FFFFFF" d="M8.6,15.8L8.6,15.8C8.6,15.8,8.6,15.8,8.6,15.8C8.6,15.8,8.6,15.8,8.6,15.8z"/>
					<polygon fill="#FFFFFF" points="40.7,14.7 40.7,14.8 40.7,14.7 					"/>
					<path fill="#FFFFFF" d="M6.2,15.2C6.2,15.2,6.2,15.1,6.2,15.2C6.2,15.1,6.2,15.2,6.2,15.2z"/>
					<path fill="#FFFFFF" d="M5.2,15.1L5,15.1C5.1,15.1,5.2,15.1,5.2,15.1z"/>
					<path fill="#FFFFFF" d="M4.4,15.1C4.4,15.1,4.4,15.1,4.4,15.1C4.4,15.1,4.4,15.1,4.4,15.1L4.4,15.1z"/>
					<path fill="#FFFFFF" d="M16.9,14.9C17,14.8,17,14.8,16.9,14.9C17,14.8,17,14.8,16.9,14.9z"/>
					<path fill="#FFFFFF" d="M13.2,15.3c0,0,0.1-0.1,0.1-0.1C13.3,15.2,13.2,15.2,13.2,15.3z"/>
					<path fill="#FFFFFF" d="M21.1,14.6C21.1,14.6,21.1,14.6,21.1,14.6C21.1,14.6,21.1,14.6,21.1,14.6L21.1,14.6z"/>
					<path fill="#FFFFFF" d="M13.5,15.2c-0.1,0-0.1,0-0.2,0C13.4,15.2,13.5,15.2,13.5,15.2z"/>
					<path fill="#FFFFFF" d="M1,15L1,15C0.9,15,0.9,15,1,15L1,15z"/>
					<path fill="#FFFFFF" d="M0.9,15L0.9,15C0.9,15,0.9,15,0.9,15z"/>
					<path fill="#FFFFFF" d="M0.8,15.1L0.8,15.1C0.9,15,0.8,15,0.8,15.1z"/>
					<path fill="#FFFFFF" d="M2,15.1L2,15.1C2,15,2,15,2,15.1z"/>
					<path fill="#FFFFFF" d="M2.3,15c-0.1,0-0.2-0.1-0.3-0.1L2,15C2.1,14.9,2.3,15.1,2.3,15z"/>
					<path fill="#FFFFFF" d="M3.7,15.8l-0.3-0.1c0,0.1,0.1,0.2,0,0.2C3.7,16.1,3.3,15.8,3.7,15.8z"/>
					<path fill="#FFFFFF" d="M4.5,15.9c-0.1,0,0,0.1,0,0.1C4.6,16,4.6,16,4.5,15.9z"/>
					<path fill="#FFFFFF" d="M10.5,15.9l0,0.2C10.5,16.1,10.4,16,10.5,15.9z"/>
					<polygon fill="#FFFFFF" points="11.6,15.1 11.5,15 11.4,15.1 					"/>
					<polygon fill="#FFFFFF" points="12.3,16.2 12.2,16.3 12.4,16.2 					"/>
					<path fill="#FFFFFF" d="M22.3,16.2l0-0.2C22.2,16,22.2,16.2,22.3,16.2z"/>
					<path fill="#FFFFFF" d="M26.6,16c0,0.1,0.2,0.2,0.2,0.1C26.7,16,26.6,15.9,26.6,16z"/>
					<polygon fill="#FFFFFF" points="39.6,16.3 39.5,16.4 39.6,16.3 					"/>
				</g>
			</g>
		</g>
		<g>
			<g>
				<g>
					<path fill="#FFFFFF" d="M38.1,31.2c0,0.1,0.1,0.1,0.2,0l-0.1-0.2L38.1,31.2z"/>
					<path fill="#FFFFFF" d="M38.8,31c0-0.1-0.1-0.3-0.3-0.4c0.1,0.2,0,0.2,0.2,0.4c0,0.1-0.1,0.1-0.2,0c0,0.1-0.1,0.1,0,0.2
						c0.2,0,0.3-0.1,0.3-0.3C38.7,30.9,38.7,31,38.8,31z"/>
					<path fill="#FFFFFF" d="M44.2,25.2L44.2,25.2C44.2,25.2,44.2,25.2,44.2,25.2z"/>
					<path fill="#FFFFFF" d="M48.1,22.2C48.1,22.2,48.1,22.3,48.1,22.2C48.1,22.3,48.2,22.2,48.1,22.2z"/>
					<path fill="#FFFFFF" d="M49,22C48.9,22,48.9,22,49,22C48.9,22,49,22,49,22z"/>
					<path fill="#FFFFFF" d="M44.2,25.2l0.1,0C44.3,25.1,44.3,25.1,44.2,25.2z"/>
					<path fill="#FFFFFF" d="M39,29.8C39,29.8,39,29.9,39,29.8L39,29.8L39,29.8z"/>
					<path fill="#FFFFFF" d="M42.8,26.8L42.8,26.8c0,0.1,0,0.1,0,0.1L42.8,26.8z"/>
					<path fill="#FFFFFF" d="M41.7,28.1c0,0-0.1-0.1-0.1-0.2c0,0.1,0,0.1,0,0.1C41.6,28,41.6,28,41.7,28.1z"/>
					<path fill="#FFFFFF" d="M39.8,29.9L39.8,29.9C39.8,30,39.8,30,39.8,29.9z"/>
					<path fill="#FFFFFF" d="M43.6,26C43.7,26,43.7,26,43.6,26C43.7,26,43.7,26,43.6,26z"/>
					<path fill="#FFFFFF" d="M37.2,2.1C37.2,2.1,37.2,2.1,37.2,2.1C37.2,2.1,37.2,2.1,37.2,2.1z"/>
					<polygon fill="#FFFFFF" points="36.1,0.3 36.2,0.3 36.2,0.2 					"/>
					<path fill="#FFFFFF" d="M50.4,21.4L50.4,21.4C50.4,21.4,50.4,21.4,50.4,21.4z"/>
					<path fill="#FFFFFF" d="M58.7,13.9c0.1,0.1-0.1,0.1-0.1,0.1c-0.1,0-0.1,0-0.1,0.2C58.5,14.1,58.9,14.1,58.7,13.9z"/>
					<path fill="#FFFFFF" d="M39.1,29.8C39.1,29.8,39.1,29.8,39.1,29.8C39.1,29.8,39.1,29.8,39.1,29.8z"/>
					<path fill="#FFFFFF" d="M58.5,14.2L58.5,14.2L58.5,14.2C58.5,14.2,58.5,14.2,58.5,14.2z"/>
					<path fill="#FFFFFF" d="M53.5,19.7C53.5,19.7,53.5,19.7,53.5,19.7C53.4,19.7,53.5,19.7,53.5,19.7z"/>
					<path fill="#FFFFFF" d="M51,20.7L51,20.7C51.1,20.6,51,20.6,51,20.7z"/>
					<path fill="#FFFFFF" d="M54.6,18.9C54.7,18.9,54.7,18.9,54.6,18.9C54.7,18.9,54.7,18.9,54.6,18.9
						C54.7,18.9,54.7,18.9,54.6,18.9z"/>
					<polygon fill="#FFFFFF" points="56,18.3 55.9,18.3 55.9,18.3 					"/>
					<path fill="#FFFFFF" d="M40.9,4.6c0-0.1,0-0.1,0-0.2C40.8,4.5,40.6,4.4,40.9,4.6z"/>
					<path fill="#FFFFFF" d="M39.1,29.9C39.1,29.8,39,29.8,39.1,29.9L39.1,29.9C39.1,29.9,39.1,29.9,39.1,29.9z"/>
					<path fill="#FFFFFF" d="M54.1,17.6l0.2-0.1C54.3,17.6,54.2,17.6,54.1,17.6z"/>
					<path fill="#FFFFFF" d="M49.6,10.3L49.6,10.3C49.5,10.3,49.5,10.3,49.6,10.3z"/>
					<path fill="#FFFFFF" d="M55,17.3c0.1,0,0.1,0.1,0.2,0.1c0,0,0,0,0-0.1L55,17.3z"/>
					<path fill="#FFFFFF" d="M40.9,4.4L40.9,4.4L40.9,4.4z"/>
					<path fill="#FFFFFF" d="M39.4,3.9c0.2,0.1,0.2-0.1,0.3-0.2c0.3,0.1,0,0.2,0,0.4c0.2,0,0.4-0.1,0.5,0c0,0,0,0.1-0.1,0.1
						c0.2,0,0.4,0.3,0.7,0.2c0,0,0,0,0,0.1c0-0.1,0.1-0.2,0.2-0.3c0.1,0.1,0.2,0,0.2,0.1c0,0-0.1,0-0.1,0l0.1,0c0,0.2-0.2,0-0.2,0.1
						c0.2,0.1,0.5,0,0.6,0.2c-0.1,0.2-0.3-0.1-0.3,0.1l-0.2-0.2c0,0.4-0.1-0.1-0.2,0.3c0.2,0.2,0.3,0.1,0.6,0.3
						c0.1-0.1,0.1-0.2,0.2-0.2c0.5,0.1,0,0.6,0.4,0.6c0.1-0.1,0.3-0.3,0.4,0l-0.2,0.2c0.2,0.2,0.3-0.2,0.5,0.1c-0.1,0-0.2-0.1-0.2,0
						c0.1,0.3,0.2,0,0.3,0.1L42.9,6c0.3,0.2,0.7,0.2,1,0.4c-0.1,0-0.1,0.1-0.1,0.2c0.4,0.2,0.8,0.6,1.1,0.9l0.2-0.1c0,0,0,0.1,0,0.1
						c0.1,0.2,0.1-0.1,0.2-0.1c0.1,0,0,0.2,0,0.2c0.3,0,0.9,0.2,1.1,0.5l-0.1,0c0.2,0.2,0.4-0.2,0.5,0.1l-0.1,0c0.4,0.4,1,0.5,1.2,1
						c0.2-0.2,0.4,0.4,0.6,0.1c0.2,0.3,0.1,0.3,0.4,0.7c0.1,0.1,0.3-0.1,0.4-0.1L49.1,10l0.3-0.1l0,0.2l0.1,0c0,0-0.1-0.1,0-0.2
						c0.2,0,0.4,0.4,0.3,0.5l0.5,0.1c0,0.1-0.1,0-0.2,0c0.3,0-0.1,0.2,0.2,0.2c0-0.1,0.1-0.1,0.1-0.1c0,0.2,0.3,0.3,0.5,0.4
						l-0.1,0.1c0.3,0.2,0.7,0.3,1,0.6c-0.1-0.1,0.1-0.3,0.2-0.3l-0.1,0.2c0.1-0.1-0.1-0.1,0.1-0.2c0.1,0.1,0,0.2-0.1,0.3l0.2,0
						c0,0.1-0.1,0.1-0.1,0.1c0.1-0.1,0.2,0.3,0.4,0.2l0,0.1c0.4,0.2,0.5,0.2,0.8,0.4c0.1-0.1,0.2,0,0.3-0.1c0.2,0.2,0.4,0.4,0.6,0.6
						c0.2,0,0.1-0.1,0.3-0.1c-0.1,0.1,0.2,0.3,0,0.3c0.3,0.2,0.4,0.2,0.9,0.3c0-0.1,0-0.1,0-0.2c0.1,0,0.1,0.1,0.1,0.2l0,0
						c0.5,0,0.8,1,1.3,0.9l0,0l0.4,0c0.2,0.1-0.2,0-0.1,0.2c0.5,0,0.6,0.4,1,0.4c0,0.3,0,0.3,0.1,0.3c0.1,0,0.3,0.1,0.1,0.1l0.2,0
						c0.2,0-0.1,0-0.1,0.1c0.1,0,0.1,0,0.2-0.1c0.1,0,0.2,0.1,0.3,0.1c0,0,0.1,0.1,0,0.1c-0.2,0-0.4,0-0.5,0c0,0,0.4,0.4,0.1,0.3
						c0,0-0.1-0.2-0.1-0.2c0,0,0,0.1-0.1,0.1c-0.1,0-0.1,0.1-0.2,0.1c-0.1,0.1-0.3,0.1-0.4,0.2c-0.3,0.1-0.6,0.2-0.8,0.5
						c0-0.1,0-0.1,0-0.1c-0.2-0.1-0.4,0.2-0.4,0.3c-0.1,0-0.1-0.1-0.1-0.1c-0.2,0-0.2,0.3-0.4,0.2c0,0,0-0.1,0-0.1
						c0,0.1-0.4,0.1-0.2,0.3c-0.2,0-0.4,0.2-0.6,0.2c0,0.2-0.4,0.1-0.3,0.3c-0.1-0.3-0.5,0-0.5,0.1c0-0.1-0.2,0-0.1-0.2
						c-0.2,0.1-0.3,0.2-0.2,0.3c-0.4-0.2-0.5,0.5-0.8,0.2c-0.4,0.4-0.8,0.6-1.2,0.9c-0.1-0.3,0.4-0.2,0.3-0.5
						c-0.3,0.3-0.5,0.6-0.9,0.7c-0.1,0,0-0.1,0-0.2c-0.3,0.3-0.8,0.3-1,0.7c0,0,0-0.1,0-0.1c-0.1,0-0.2,0-0.1,0.2l0-0.1
						c0.2,0.1-0.1,0.5,0,0.6c-0.1-0.4-0.4,0.1-0.4-0.4c0,0-0.1,0.1,0,0.2c-0.1,0-0.1,0-0.1-0.1c-0.2,0.2-0.1,0.3-0.3,0.4
						c0-0.1,0-0.1,0-0.2c-0.1,0.2-0.1,0.3-0.3,0.4c0,0-0.1-0.1,0-0.1c-0.3,0.2-0.4,0.6-0.8,0.7c0-0.3-0.2,0-0.3-0.2L48,21.1l0.1,0
						c-0.2,0.1-0.2,0.3-0.4,0.4l0.1-0.2l-0.3,0.2l0.2,0c-0.1,0.2,0.2,0.2-0.1,0.3c0,0-0.2,0.1-0.3,0l0,0c0,0.1-0.1,0.2-0.2,0.3
						c-0.1,0-0.1-0.2-0.2-0.3c0,0.2-0.3,0.3-0.3,0.5c0-0.1-0.1-0.2-0.1-0.2l0,0.2c-0.1,0-0.1,0-0.2-0.1c-0.2,0.1,0.2,0.2-0.1,0.3
						c0,0,0,0,0-0.1c-0.3,0.1-0.4,0.4-0.7,0.5c-0.2-0.1,0.2-0.2,0-0.3c-0.3,0.3-0.5,0.7-0.8,1l0.1,0c0.2,0.3-0.3,0.1-0.4,0.3
						c0,0-0.1-0.2-0.1-0.1c-0.2,0.1-0.4,0.4-0.6,0.8l0-0.1c-0.2,0.1-0.3,0.3-0.5,0.3c0,0.1-0.1,0.2,0.1,0.2c-0.7,0-0.5,0.9-1.1,0.9
						c0,0,0-0.1,0-0.1l-0.2,0.3c0.1,0.1,0.1,0,0.2,0c0,0.1,0,0.2-0.1,0.3c0.1-0.2-0.2-0.2-0.3-0.2c0,0,0.1,0.1,0.1,0.1
						c-0.3,0,0.2,0.2-0.1,0.3l0-0.1c0,0.1,0,0.2-0.1,0.3c-0.2-0.1,0-0.1-0.1-0.2c-0.1,0.1,0,0.4-0.2,0.4c0-0.1,0.1-0.2,0.1-0.2
						c-0.2,0-0.2,0-0.3,0.1l0,0l-0.2,0.1l0.1,0c0.2,0.4-0.2,0.4-0.2,0.7c0-0.4-0.1-0.1-0.2-0.3c-0.1,0-0.2,0.1-0.2,0
						c0,0.2-0.2,0.1-0.2,0.4c-0.1,0-0.1,0.1-0.2,0c-0.1,0.2,0.1,0,0.2,0.1c0,0.3-0.6,0.3-0.6,0.8c-0.1,0.3,0,0.5-0.1,0.8
						c-0.1,0-0.1-0.2-0.1-0.2c-0.2,0.1-0.2,0.2-0.3,0.3c0-0.1-0.1-0.1-0.2-0.1c-0.1,0.1,0.1,0.2,0,0.3c0-0.1-0.1-0.2-0.1-0.2
						c0,0.1,0,0.3-0.1,0.5c-0.1,0-0.1-0.2-0.1-0.2c-0.1,0.2-0.2,0.4-0.1,0.5l0.1-0.1c0,0.1-0.1-0.1-0.1-0.1c0-0.2,0.2-0.1,0.2-0.1
						l0,0.1c0.3,0.1,0.2-0.4,0.3-0.5l0.2,0.2l0-0.3c0.1,0,0.2,0.1,0.2,0.2c0.2,0,0-0.2,0.2-0.2c0,0,0,0,0,0l0-0.2
						c0,0.1,0.2,0.1,0.1,0.1c0.3-0.1,0.1-0.5,0.3-0.4l0,0c0.2-0.3-0.1-0.1-0.1-0.5l0.5,0.1L40.4,29c0,0,0.1-0.1,0.1,0
						c0-0.2-0.1,0-0.1-0.2c0.2,0,0.3-0.4,0.5-0.3c-0.1-0.1-0.2,0.1-0.1-0.1c0.3,0.2,0.1-0.2,0.3-0.2c0.1,0.1-0.1,0.2,0.1,0.2
						c-0.1-0.3,0.3-0.2,0.3-0.3c-0.2-0.2,0.1-0.3,0.2-0.5c0,0.1,0.4-0.3,0.6-0.4l0,0c-0.1-0.2,0-0.3,0.1-0.5
						c0.1,0.1,0.1,0.2,0.1,0.3l0.1-0.1c0-0.1,0-0.1,0-0.2l0.1,0.1c0.1-0.2,0.1-0.4,0.4-0.5c-0.1-0.1-0.5-0.2-0.3-0.4
						c0.1,0.1,0.2,0.1,0.2,0.2c0,0,0-0.1,0.1-0.1l0,0.2c0.1,0,0-0.1,0-0.2c0.1,0.1,0.1,0,0.2,0.1c0,0-0.1,0-0.1,0.1
						c0.1-0.1,0.2-0.1,0.3-0.1c-0.1,0-0.1-0.1-0.1-0.2c0.1-0.2,0.2,0.1,0.3,0c0-0.1,0.1-0.1,0-0.3c0,0,0.1,0,0.2,0
						c0-0.1,0.3-0.4,0.1-0.4l0,0l0,0l0,0l0,0c0.1-0.4,0.6-0.4,0.8-0.7l0,0c0.1-0.2,0.3-0.3,0.4-0.5c0,0,0.2,0,0.2,0.1
						c0.1-0.1,0.1-0.2,0.3-0.3c-0.1,0.2,0.1,0-0.1,0.2c0.2-0.1,0.3,0,0.3-0.3c0,0.2,0.2,0.1,0.3,0l-0.2,0c0.1-0.1,0.2-0.1,0.2-0.2
						l0.1,0.2c0.5,0,0.3-0.8,0.8-0.6c0-0.2-0.2,0.1-0.3-0.1c0.2-0.1,0.5,0,0.6,0c0.3,0,0-0.4,0.3-0.5c-0.1,0-0.2-0.2-0.1-0.4
						c0.2-0.1,0.4,0.1,0.3,0.2c0,0-0.1,0-0.1,0c0,0.1-0.1,0.1,0,0.2l0-0.1c0.1,0,0.3-0.1,0.3,0c0.1-0.1,0-0.1-0.1-0.1
						c0.3,0,0.3-0.2,0.6-0.3c-0.1,0-0.1-0.1-0.1-0.1c0.4-0.1,0.1-0.2,0.3-0.4c0.2,0,0.1,0.3,0.3,0c0.2,0,0.1,0.2,0.1,0.2
						c0.1-0.2,0.4-0.1,0.5-0.2l-0.1,0.1c0-0.1,0.1-0.1,0.1-0.1l-0.1-0.1c0.1,0,0.1,0,0.2,0c0-0.1-0.2-0.2-0.1-0.4
						c0.1,0,0.2-0.2,0.3-0.1c-0.3,0.1,0.1,0.2-0.1,0.3c0,0,0.1-0.1,0.2-0.1c0,0,0,0,0,0.1c0.3,0,0-0.3,0.3-0.4
						c0,0.1,0.2,0.2,0.2,0.1c-0.1,0.1-0.1-0.1-0.1-0.3c0.2,0,0.2-0.2,0.2-0.2l-0.1,0c0-0.1,0.1-0.1,0.2-0.2c0,0.1-0.1,0.1,0,0.1
						c0-0.2,0.4,0,0.5-0.2c0.1,0,0.1,0.2,0.2,0.2c0.1-0.2,0.3,0,0.5-0.2c-0.1-0.1-0.1-0.1,0-0.3l-0.3,0.3l0.1-0.3
						c-0.1,0.1-0.2,0.2-0.3,0.2c0.1-0.2,0.1-0.1,0-0.2c0.2,0.1,0.2-0.3,0.5-0.2l0.2,0.3c0.3,0,0.4-0.4,0.8-0.5l-0.1,0
						c0-0.2,0.2-0.1,0.3-0.2c0,0.1,0.1,0.1,0.2,0.2c0-0.1,0.2-0.1,0.2-0.3l0.2,0.1c0.3-0.1,0.2-0.5,0.4-0.5c0,0.2,0.1,0.2,0,0.3
						c0.1,0,0.2-0.1,0.1-0.1c0.1,0,0.2-0.3,0.3-0.2c0-0.1,0-0.2,0.1-0.2c0,0,0,0.1,0,0.1c0-0.1,0.1-0.1,0-0.2
						c0.4,0.2,0.7-0.4,1.1-0.2c0.2-0.1,0.4-0.3,0.6-0.3c0,0,0,0.1,0,0.1c0.3,0,0-0.4,0.3-0.4c0.2,0.1-0.1,0.2,0,0.2
						c0.2,0.3,0.3-0.2,0.6-0.1l0,0c0.2,0.1,0.3-0.3,0.5-0.4c0,0,0,0,0,0.1c0.1-0.3,0.3-0.5,0.6-0.6c0,0.2-0.1,0.1,0,0.2
						c0.1-0.1-0.1-0.2,0-0.3c0.1,0,0.3,0.1,0.4,0.2l-0.2,0.1c0.1,0.1,0.1,0.1,0.2,0c0.1-0.1,0.2-0.1,0.2-0.2l0,0.1
						c0.5-0.2,0.2-0.4,0.7-0.6l-0.1,0c-0.1-0.2,0.4,0,0.3-0.2l0.4,0.1c0.1-0.1,0.2-0.3,0.3-0.4c0.2,0.1,0.1,0.3,0,0.4
						c0.2-0.1,0.6-0.3,0.4-0.3c0,0,0,0.1-0.1,0.1C61,15.9,61,15.9,61,15.8c0,0,0-0.1,0.1-0.1c0,0,0,0-0.1,0l-0.1,0
						c0.5,0,0.4-0.1,0.2-0.2c-0.2-0.1-0.4-0.3-0.3-0.4c-0.4-0.1-0.7-0.3-0.9-0.4c-0.3-0.2-0.5-0.4-0.9-0.6c0,0.4-0.2-0.1-0.4,0.2
						c-0.1,0-0.2-0.1-0.2-0.1l-0.2-0.4c0-0.1,0.1,0,0.2-0.1c-0.2-0.1,0-0.2-0.1-0.4c0,0.1-0.2,0.1-0.3,0l0.1,0.3
						c-0.4,0-0.1-0.4-0.5-0.4l0.2-0.1c-0.2,0-0.6-0.3-0.9-0.1c0-0.1,0-0.2,0.1-0.1c-0.4-0.2-1-0.2-1.2-0.5l0.1-0.1
						c-0.1,0-0.2,0.1-0.3-0.1c0,0,0.1-0.1,0-0.1c-0.1,0-0.3,0-0.3-0.1l0.1,0c-0.3-0.3-0.7-0.1-1-0.2c0.1-0.2-0.1-0.5-0.2-0.6l0,0
						c-0.4-0.3-0.8-0.2-1.3-0.4c-0.1-0.4-0.8-0.6-1.1-1c0,0.1-0.1,0.2-0.2,0.2c-0.1-0.1-0.4,0-0.2-0.2l0,0c0.1-0.3-0.2-0.3-0.3-0.4
						L51,9.7c-0.1-0.6-1.1-0.5-1.1-1c-0.1,0-0.2-0.1-0.4-0.1l0.1-0.1c-0.2-0.2-0.3-0.3-0.7-0.5L49,8c-0.2-0.1-0.5,0.3-0.7,0.2
						l0.1-0.3c-0.3-0.2-0.5-0.6-0.9-0.6c0,0,0.1-0.1,0.1-0.1c-0.1-0.1-0.5-0.5-0.6-0.2c0.1-0.2-0.3-0.2-0.5-0.2l0.1-0.1
						c-0.3,0.1-0.3,0.1-0.5,0.1c0,0,0-0.1,0.1-0.1c-0.1-0.2-0.2,0.1-0.3-0.1l0.1,0c-0.2-0.1-0.2-0.1-0.3,0c-0.1,0-0.3-0.2-0.2-0.4
						c-0.1,0.1-0.2,0.1-0.3,0c0-0.1,0.1-0.1,0.1-0.1C45,5.8,44.7,6,44.6,5.7c0,0,0-0.1,0-0.1C44.9,5.8,45,5.9,45,5.9
						c0.1-0.1-0.1-0.3,0.2-0.4c-0.2,0-0.6,0.1-0.7-0.1c0,0,0,0,0-0.1l0,0c0,0-0.1,0-0.1,0c0-0.1-0.1-0.1-0.1-0.1
						c0.1-0.1-0.2-0.2-0.2-0.3C44,5.1,43.9,5,43.9,5.2c0,0,0,0,0.1,0c0,0,0,0,0,0l0,0c0.1,0,0.1,0.1,0.2,0.1c-0.1,0-0.2,0-0.3-0.1
						c-0.1,0.1-0.2,0.1-0.3,0.2c0-0.3-0.1-0.5-0.1-0.7c-0.3-0.1-0.6-0.4-1-0.2c-0.1,0,0-0.1,0-0.2c0.1,0,0.1,0,0.2,0
						c-0.2,0-0.5-0.3-0.6-0.1C42,4,42.4,4.1,42.1,4l0.1,0c-0.3-0.6-1.1-0.1-1.4-0.8c0,0.1,0,0.1,0,0.1c-0.5-0.6-1.4-0.7-1.8-1.4
						c-0.1-0.2-0.2-0.1-0.4-0.1l0.1-0.2l-0.3,0c-0.3-0.1-0.2-0.7-0.7-0.7l0,0.1c-0.1-0.1-0.4-0.2-0.3-0.3c0,0-0.1,0.1-0.1,0l0.1-0.1
						l-0.4-0.1c-0.2-0.2,0.3-0.3,0-0.5c-0.1-0.1-0.5,0-0.5,0.1c0,0,0.1,0.1,0,0.2l-0.1,0C36,0.5,35.7,0.7,35.9,1l0.3,0l0,0.2L36,1.1
						c0,0.2,0.1,0.1,0.2,0.1c0,0.1,0,0.1,0,0.2l0.3-0.1c0,0.1-0.2,0.1-0.1,0.3c0.2,0,0.1-0.3,0.3-0.2c0,0.2-0.1,0.2,0.1,0.2
						c0,0.1-0.1,0.1-0.1,0.1c0.1,0,0.3,0.2,0.4,0.1c0,0.2,0.3,0.2,0.2,0.4c0.1,0,0.3-0.1,0.4,0c-0.3,0.1,0.3,0.3,0.1,0.5
						c0.3-0.2,0.5,0.2,0.8,0.2c0,0-0.1,0-0.1,0c0.1,0.1,0.1,0.2,0.1,0.3C38.7,2.9,38.9,3,39.1,3c0,0.3-0.3,0.2-0.3,0.4
						c0.1-0.2,0.4,0,0.4-0.1c0,0.2,0.1,0.1,0,0.3c0.2-0.2,0.1,0,0.3-0.1c0.1,0.2-0.1,0.3,0.1,0.3C39.6,3.9,39.4,3.9,39.4,3.9z
						 M43.9,6.3L43.9,6.3C43.9,6.3,43.9,6.3,43.9,6.3C43.9,6.3,43.9,6.3,43.9,6.3z M44.3,6.6c0,0-0.1-0.1-0.2-0.1
						c0-0.1,0.1-0.1,0.1-0.1C44.2,6.4,44.3,6.5,44.3,6.6z M44.2,5.1C44.3,5.1,44.3,5.1,44.2,5.1C44.2,5.2,44.2,5.1,44.2,5.1
						L44.2,5.1C44.2,5.1,44.2,5.1,44.2,5.1z"/>
					<path fill="#FFFFFF" d="M44,5.2C44,5.2,44,5.2,44,5.2C44,5.2,44,5.2,44,5.2L44,5.2L44,5.2z"/>
					<path fill="#FFFFFF" d="M44.1,25.2L44.1,25.2C44.1,25.2,44.1,25.2,44.1,25.2C44.1,25.2,44.1,25.2,44.1,25.2z"/>
					<polygon fill="#FFFFFF" points="49.1,10.1 49.1,10 49.1,10.1 					"/>
					<path fill="#FFFFFF" d="M42,26.4C42,26.4,42,26.4,42,26.4C42,26.4,42,26.4,42,26.4z"/>
					<path fill="#FFFFFF" d="M41.3,27.2l-0.1,0.1C41.3,27.2,41.3,27.2,41.3,27.2z"/>
					<path fill="#FFFFFF" d="M40.7,27.7C40.8,27.7,40.8,27.8,40.7,27.7L40.7,27.7L40.7,27.7z"/>
					<path fill="#FFFFFF" d="M50.4,19.6L50.4,19.6C50.5,19.6,50.5,19.6,50.4,19.6z"/>
					<path fill="#FFFFFF" d="M47.4,21.9c0,0,0-0.1,0.1-0.1C47.4,21.8,47.4,21.8,47.4,21.9z"/>
					<polygon fill="#FFFFFF" points="54.1,17.6 54.1,17.6 54.1,17.6 					"/>
					<path fill="#FFFFFF" d="M47.6,21.7c-0.1,0-0.1,0-0.1,0.1C47.5,21.8,47.6,21.7,47.6,21.7z"/>
					<path fill="#FFFFFF" d="M38.6,30.4L38.6,30.4C38.6,30.4,38.6,30.4,38.6,30.4L38.6,30.4z"/>
					<path fill="#FFFFFF" d="M38.6,30.4L38.6,30.4C38.6,30.5,38.6,30.4,38.6,30.4z"/>
					<path fill="#FFFFFF" d="M38.5,30.6L38.5,30.6C38.5,30.5,38.5,30.5,38.5,30.6z"/>
					<path fill="#FFFFFF" d="M39.3,29.6L39.3,29.6C39.2,29.5,39.2,29.6,39.3,29.6z"/>
					<path fill="#FFFFFF" d="M39.4,29.3c-0.1,0.1-0.2,0.1-0.3,0.2l0,0C39.2,29.4,39.5,29.4,39.4,29.3z"/>
					<path fill="#FFFFFF" d="M40.9,28.8l-0.2,0.2c0.1,0,0.2,0,0.1,0.1C41.2,28.9,40.6,29,40.9,28.8z"/>
					<path fill="#FFFFFF" d="M41.5,28.2C41.4,28.3,41.5,28.3,41.5,28.2C41.6,28.2,41.6,28.2,41.5,28.2z"/>
					<path fill="#FFFFFF" d="M45.6,24.1l0.1,0.1C45.8,24.1,45.7,24.2,45.6,24.1z"/>
					<polygon fill="#FFFFFF" points="46,22.7 45.8,22.7 45.9,22.9 					"/>
					<polygon fill="#FFFFFF" points="47.2,23.2 47.2,23.3 47.3,23.1 					"/>
					<path fill="#FFFFFF" d="M55.8,18.6l-0.1-0.2C55.6,18.5,55.7,18.7,55.8,18.6z"/>
					<path fill="#FFFFFF" d="M60,16.5c0.2,0,0.4,0,0.4-0.1C60.2,16.4,60,16.4,60,16.5z"/>
					<polygon fill="#FFFFFF" points="50.9,9.4 51,9.3 50.8,9.3 					"/>
				</g>
			</g>
		</g>
	</g>
</g>
</svg>
