<?xml version="1.0" encoding="utf-8"?>
<!-- Generator: Adobe Illustrator 18.0.0, SVG Export Plug-In . SVG Version: 6.00 Build 0)  -->
<!DOCTYPE svg PUBLIC "-//W3C//DTD SVG 1.1//EN" "http://www.w3.org/Graphics/SVG/1.1/DTD/svg11.dtd">
<svg version="1.1" id="Layer_1" xmlns="http://www.w3.org/2000/svg" xmlns:xlink="http://www.w3.org/1999/xlink" x="0px" y="0px"
	 viewBox="0 0 43.9 43.3" enable-background="new 0 0 43.9 43.3" xml:space="preserve">
<g>
	<g>
		<path fill="none" d="M15.1,7c0,0,15.3-2.2,28.2-6.4c-3.9,10.3-6.6,14.9-4.5,26.8 M40.6,3L0.3,43.3"/>
		<g>
			<g>
				<g>
					<path fill="#FFFFFF" d="M0,43.1c0,0.1,0.1,0.1,0.2,0.1l-0.1-0.2L0,43.1z"/>
					<path fill="#FFFFFF" d="M0.7,42.9c0-0.1,0-0.3-0.2-0.4c0.1,0.2,0,0.2,0.1,0.4c0,0.1-0.1,0.1-0.2,0c0,0.1-0.1,0.1-0.1,0.2
						c0.2,0,0.3-0.1,0.3-0.2C0.6,42.8,0.6,42.9,0.7,42.9z"/>
					<path fill="#FFFFFF" d="M6.6,37.4L6.6,37.4C6.6,37.5,6.6,37.5,6.6,37.4z"/>
					<path fill="#FFFFFF" d="M10.2,34C10.2,34,10.2,34,10.2,34C10.2,34,10.2,34,10.2,34z"/>
					<path fill="#FFFFFF" d="M11,33.5C11,33.5,11,33.5,11,33.5C11,33.6,11,33.6,11,33.5z"/>
					<path fill="#FFFFFF" d="M6.6,37.4l0.1,0C6.7,37.3,6.7,37.4,6.6,37.4z"/>
					<path fill="#FFFFFF" d="M1.1,41.8C1.1,41.8,1.1,41.8,1.1,41.8C1.1,41.9,1.1,41.8,1.1,41.8C1.1,41.8,1.1,41.8,1.1,41.8z"/>
					<path fill="#FFFFFF" d="M5.2,39.1L5.2,39.1c0,0.1,0,0.1,0,0.1L5.2,39.1z"/>
					<path fill="#FFFFFF" d="M4,40.3c0,0-0.1-0.2-0.1-0.2C3.9,40.2,3.9,40.2,4,40.3C3.9,40.3,3.9,40.3,4,40.3z"/>
					<path fill="#FFFFFF" d="M1.9,42L1.9,42C1.9,42.1,1.9,42,1.9,42z"/>
					<path fill="#FFFFFF" d="M6,38.3C6.1,38.3,6.1,38.3,6,38.3C6.1,38.3,6.1,38.3,6,38.3z"/>
					<path fill="#FFFFFF" d="M38.6,3.8C38.6,3.9,38.6,3.9,38.6,3.8C38.6,3.9,38.6,3.8,38.6,3.8z"/>
					<path fill="#FFFFFF" d="M40.6,3.1L40.6,3.1C40.6,3.1,40.7,3.1,40.6,3.1L40.6,3.1z"/>
					<path fill="#FFFFFF" d="M12.3,32.6C12.3,32.6,12.2,32.6,12.3,32.6C12.2,32.6,12.2,32.6,12.3,32.6z"/>
					<path fill="#FFFFFF" d="M22.3,22.3c-0.2,0,0-0.3-0.2-0.3C22.1,22.1,22.1,22.4,22.3,22.3z"/>
					<path fill="#FFFFFF" d="M1.1,41.8C1.2,41.8,1.2,41.7,1.1,41.8C1.2,41.7,1.2,41.8,1.1,41.8z"/>
					<path fill="#FFFFFF" d="M22.1,22.1C22.1,22.1,22.1,22.1,22.1,22.1L22.1,22.1C22.1,22.1,22.1,22.1,22.1,22.1z"/>
					<path fill="#FFFFFF" d="M14.7,30C14.7,29.9,14.7,29.9,14.7,30C14.7,29.9,14.7,30,14.7,30z"/>
					<path fill="#FFFFFF" d="M12.7,31.7L12.7,31.7C12.7,31.7,12.7,31.7,12.7,31.7z"/>
					<path fill="#FFFFFF" d="M15.5,28.8C15.6,28.8,15.6,28.8,15.5,28.8C15.6,28.7,15.6,28.7,15.5,28.8
						C15.6,28.8,15.6,28.8,15.5,28.8z"/>
					<path fill="#FFFFFF" d="M16.6,27.8C16.6,27.8,16.5,27.8,16.6,27.8C16.5,27.8,16.5,27.8,16.6,27.8L16.6,27.8z"/>
					<path fill="#FFFFFF" d="M35.6,7c0.1,0,0.1,0,0.2,0.1C35.6,7,35.7,6.8,35.6,7z"/>
					<path fill="#FFFFFF" d="M1.2,41.9C1.1,41.8,1.1,41.8,1.2,41.9C1.1,41.8,1.1,41.8,1.2,41.9C1.1,41.8,1.2,41.9,1.2,41.9z"/>
					<path fill="#FFFFFF" d="M14.6,27.8l0.2-0.1C14.7,27.7,14.7,27.7,14.6,27.8z"/>
					<path fill="#FFFFFF" d="M28.2,14.4L28.2,14.4C28.2,14.4,28.2,14.4,28.2,14.4z"/>
					<path fill="#FFFFFF" d="M15.3,27.1c0.1,0,0.1,0,0.2,0c0,0,0,0,0-0.1L15.3,27.1z"/>
					<path fill="#FFFFFF" d="M35.7,7.1C35.7,7.1,35.7,7.1,35.7,7.1C35.7,7.1,35.7,7.1,35.7,7.1z"/>
					<path fill="#FFFFFF" d="M36.5,5.7c-0.2,0.2,0.1,0.2,0.1,0.4c-0.1,0.2-0.2,0-0.4-0.1c-0.1,0.2,0,0.4-0.1,0.5c0,0-0.1,0-0.1-0.1
						c0,0.3-0.4,0.4-0.3,0.7c0,0,0,0-0.1,0c0.1,0.1,0.2,0.1,0.2,0.2c-0.1,0.1,0,0.2-0.2,0.2c0,0,0-0.1,0-0.1l0,0.1
						c-0.2-0.1,0-0.2-0.1-0.3c-0.1,0.2-0.1,0.5-0.3,0.5c-0.2-0.1,0.2-0.3-0.1-0.3l0.2-0.1c-0.4-0.1,0.1-0.1-0.3-0.2
						c-0.3,0.2-0.2,0.3-0.4,0.5c0,0.1,0.1,0.1,0.2,0.2c-0.2,0.5-0.6-0.1-0.7,0.3c0,0.2,0.2,0.4-0.1,0.4l-0.1-0.2
						C34,8.5,34.4,8.7,34,8.8c0-0.1,0.1-0.2,0.1-0.2c-0.3,0,0,0.2-0.1,0.3l-0.2-0.1c-0.2,0.3-0.3,0.6-0.6,0.9c0-0.1,0-0.1-0.1-0.1
						c-0.2,0.4-0.7,0.7-1.1,0.9l0,0.2c0,0-0.1,0-0.1-0.1c-0.2,0.1,0.1,0.1,0.1,0.2c-0.1,0.1-0.2,0-0.2-0.1c-0.1,0.3-0.4,0.8-0.7,0.9
						l0-0.1c-0.2,0.1,0.1,0.5-0.2,0.5l0-0.1c-0.4,0.3-0.7,0.9-1.2,1c0.1,0.2-0.5,0.3-0.2,0.6c-0.3,0.1-0.3,0-0.7,0.2
						c-0.1,0.1,0,0.3,0,0.4L28.5,14l0,0.3l-0.2-0.1l-0.1,0.1c0,0,0.1,0,0.2,0c-0.1,0.2-0.5,0.3-0.5,0.2L27.7,15c0-0.1,0-0.1,0-0.2
						c0,0.3-0.2-0.1-0.2,0.2c0.1,0,0.1,0.1,0.1,0.1c-0.2,0-0.4,0.2-0.5,0.4L27,15.4c-0.3,0.2-0.5,0.6-0.8,0.9
						c0.1-0.1,0.3,0.1,0.2,0.2l-0.2-0.1c0,0.1,0.1,0,0.1,0.2c-0.1,0.1-0.2-0.1-0.2-0.2l-0.1,0.2c-0.1,0,0-0.1-0.1-0.2
						c0,0.1-0.4,0.1-0.3,0.3l0,0c-0.3,0.3-0.4,0.5-0.6,0.7c0.1,0.1,0,0.2,0,0.4c-0.2,0.1-0.5,0.2-0.7,0.4c-0.1,0.2,0.1,0.1,0.1,0.3
						c-0.1-0.1-0.3,0.1-0.3-0.1c-0.2,0.3-0.3,0.3-0.5,0.8c0.1,0,0.1,0,0.2,0.1c0,0.1-0.2,0.1-0.2,0l0,0c-0.2,0.5-1.1,0.5-1.2,1l0,0
						l-0.2,0.4c-0.2,0.1,0-0.2-0.2-0.1c-0.1,0.5-0.5,0.5-0.7,0.9c-0.5-0.1-0.7,0.7-1.2,0.8l0.1,0.1c0,0.1-0.1,0-0.2,0.1
						c0.1,0.1,0.1,0,0.1,0.1c-0.5,0.7-1.3,1.1-2,1.7c-0.2,0.2,0.3,0.5-0.2,0.6L18,24.4c-0.3,0.6-0.9,0.9-1.2,1.5c0-0.1,0-0.1,0-0.1
						c-0.2,0-0.4,0.3-0.3,0.4c-0.1,0.1-0.1-0.1-0.2-0.1c-0.2,0-0.1,0.4-0.3,0.3c0,0,0-0.1,0-0.1c0,0.1-0.3,0.3-0.1,0.3
						c-0.2,0.1-0.3,0.4-0.5,0.4c0,0.2-0.3,0.2-0.2,0.4c-0.2-0.2-0.5,0.1-0.5,0.3c0-0.1-0.2,0-0.2-0.1c-0.1,0.1-0.2,0.3-0.1,0.3
						c-0.5,0-0.3,0.6-0.7,0.5c-0.2,0.5-0.5,0.9-0.8,1.2c-0.2-0.2,0.3-0.4,0.1-0.6c-0.2,0.4-0.2,0.7-0.6,1c-0.1,0.1,0-0.1,0-0.2
						c-0.2,0.4-0.6,0.6-0.8,0.9c0,0,0-0.1,0-0.1c0,0.1-0.2,0.1-0.1,0.2l0-0.1c0.2,0,0.1,0.5,0.1,0.6c-0.2-0.3-0.3,0.2-0.5-0.3
						c0,0.1,0,0.1,0,0.2c-0.1,0-0.1,0-0.1-0.1c-0.1,0.2,0,0.3-0.2,0.4c0,0,0-0.1-0.1-0.2c0,0.2,0,0.3-0.2,0.5c0,0-0.1-0.1,0-0.1
						c-0.2,0.3-0.2,0.7-0.6,0.8c-0.1-0.3-0.2,0-0.3-0.1l-0.1,0.2l0.1,0c-0.1,0.1-0.1,0.4-0.3,0.4l0-0.2l-0.2,0.3l0.2-0.1
						c0,0.2,0.2,0.2,0,0.3c0-0.1-0.1,0.1-0.3,0.1c0,0,0,0,0,0c0,0.1,0,0.2-0.2,0.3c-0.1,0-0.2-0.2-0.2-0.2c0.1,0.2-0.3,0.3-0.2,0.6
						c0-0.1-0.1-0.1-0.1-0.2l0.1,0.2c-0.1,0-0.1,0-0.2-0.1c-0.2,0.2,0.3,0.2,0,0.3c0,0,0,0,0-0.1c-0.3,0.2-0.3,0.5-0.6,0.6
						c-0.2-0.1,0.1-0.2-0.1-0.3c-0.3,0.3-0.4,0.8-0.7,1l0.1,0C7.5,36.2,7,36,6.9,36.3c0-0.1-0.1-0.2-0.1-0.1
						c-0.2,0.2-0.3,0.4-0.5,0.8l0-0.1c-0.2,0.1-0.3,0.3-0.5,0.4c0,0.1-0.1,0.2,0.1,0.2c-0.7,0-0.5,0.9-1.1,0.9c0,0,0-0.1,0-0.1
						l-0.2,0.3c0.1,0.1,0.1,0,0.2,0c0,0.1,0,0.2-0.1,0.3c0.1-0.2-0.2-0.2-0.3-0.2c0,0,0.1,0.1,0.1,0.1c-0.3,0,0.2,0.2-0.1,0.3l0-0.1
						c0,0.1,0,0.2-0.1,0.3c-0.2-0.1,0-0.1-0.1-0.2c-0.1,0.1,0,0.4-0.2,0.4c0-0.1,0.1-0.2,0.1-0.2c-0.2,0-0.2,0-0.3,0.1l0,0l-0.3,0.1
						l0.1,0c0.2,0.4-0.2,0.3-0.2,0.7c0-0.4-0.1-0.1-0.2-0.3c-0.1,0-0.2,0-0.2,0c0,0.2-0.2,0.1-0.2,0.3c0,0-0.1,0.1-0.2,0
						c-0.1,0.2,0.1,0,0.1,0.1c0,0.3-0.6,0.2-0.7,0.7c-0.1,0.3,0,0.5-0.2,0.8c-0.1,0-0.1-0.2-0.1-0.2c-0.2,0.1-0.2,0.1-0.3,0.3
						c0-0.1-0.1-0.1-0.2-0.1c-0.1,0.1,0.1,0.2-0.1,0.3c0-0.1-0.1-0.2-0.1-0.3C1,42,1,42.2,0.9,42.3c-0.1,0,0-0.2-0.1-0.3
						c-0.1,0.2-0.2,0.4-0.2,0.5l0.1,0c0,0-0.1-0.1-0.1-0.1c0-0.2,0.2-0.1,0.2-0.1l0,0.1c0.3,0.2,0.3-0.3,0.4-0.5l0.1,0.2l0-0.3
						c0.1,0,0.2,0.1,0.2,0.2c0.2,0,0-0.2,0.2-0.2c0,0,0,0,0,0l0.1-0.2C1.9,41.9,2.1,42,2,42c0.3-0.1,0.2-0.4,0.4-0.4l0,0
						c0.2-0.3-0.1-0.2-0.1-0.5l0.5,0.2l-0.1-0.2c0,0,0.1-0.1,0.1,0c0-0.2-0.1,0-0.1-0.2c0.3,0,0.3-0.4,0.5-0.2
						c-0.1-0.1-0.2,0-0.1-0.2c0.3,0.2,0.1-0.2,0.3-0.2c0.1,0.2-0.1,0.2,0.1,0.2c-0.1-0.3,0.3-0.2,0.3-0.3C3.7,40.1,4,40,4.2,39.8
						c0,0.1,0.4-0.2,0.6-0.3l0,0c-0.1-0.2,0.1-0.3,0.1-0.5C5,39.1,5,39.2,5,39.3l0.1-0.1c0-0.1,0-0.1,0-0.2l0.1,0.1
						c0.1-0.2,0.2-0.4,0.4-0.5c-0.1-0.1-0.5-0.2-0.3-0.4c0.1,0.1,0.2,0.1,0.2,0.2c0,0,0-0.1,0.1-0.1l0,0.2c0.1,0,0-0.1,0-0.2
						c0.1,0.1,0.1,0,0.2,0.1c0,0-0.1,0-0.1,0.1c0.1-0.1,0.2-0.1,0.3-0.1c-0.1,0-0.1-0.1-0.1-0.2c0.1-0.2,0.2,0.1,0.3,0
						c0-0.1,0.1-0.1,0-0.3c0,0,0.1,0,0.2,0c0-0.1,0.3-0.4,0.1-0.4l0,0c0,0,0,0,0,0c0,0,0,0,0,0l0,0c0.1-0.4,0.6-0.4,0.8-0.7l0,0
						c0.1-0.2,0.3-0.4,0.3-0.6c0,0,0.2,0,0.2,0c0.1-0.1,0-0.2,0.3-0.3c0,0.2,0.1,0-0.1,0.2C8.3,36,8.4,36,8.4,35.8
						c0.1,0.2,0.2,0,0.3-0.1l-0.2,0c0.1-0.1,0.1-0.2,0.2-0.2l0.1,0.2c0.5-0.1,0.2-0.8,0.8-0.8c0-0.2-0.2,0.1-0.3-0.1
						c0.2-0.1,0.5-0.1,0.6-0.1c0.3-0.1,0-0.4,0.2-0.5c-0.1,0-0.2-0.1-0.1-0.3c0.2-0.1,0.4,0,0.3,0.2c0,0-0.1,0-0.1,0
						c0,0.1-0.1,0.1,0,0.1l0-0.1c0.1,0,0.3-0.2,0.3-0.1c0.1-0.2,0-0.1-0.1-0.1c0.3-0.1,0.3-0.3,0.5-0.4c-0.1,0-0.1,0-0.1-0.1
						c0.3-0.2,0-0.2,0.2-0.4c0.2,0,0.2,0.2,0.3,0c0.2-0.1,0.2,0.1,0.2,0.2c0.1-0.3,0.4-0.2,0.5-0.3l0,0.1c0-0.1,0.1-0.1,0.1-0.2
						l-0.2-0.1c0.1,0,0.1-0.1,0.2,0c0-0.1-0.2-0.1-0.2-0.3c0.1,0,0.2-0.3,0.3-0.2c-0.3,0.2,0.2,0.1,0,0.3c0-0.1,0.1-0.1,0.1-0.1
						c0,0,0,0,0,0.1c0.3-0.1-0.1-0.3,0.2-0.5c0.1,0.1,0.2,0.1,0.2,0c-0.1,0.1-0.2-0.1-0.2-0.2c0.2-0.1,0.1-0.2,0.2-0.3l-0.1,0.1
						c-0.1-0.1,0-0.2,0.1-0.3c0.1,0.1,0,0.1,0,0.1c0-0.2,0.4-0.1,0.4-0.3c0.1,0,0.2,0.1,0.2,0.1c0.1-0.3,0.3-0.1,0.4-0.3
						c-0.2-0.1-0.1,0-0.1-0.2l-0.2,0.4l0-0.3c-0.1,0.1-0.1,0.2-0.2,0.3c0-0.2,0-0.1-0.1-0.2c0.3,0,0.1-0.3,0.4-0.4l0.3,0.3
						c0.3-0.1,0.2-0.5,0.6-0.7l-0.1,0c-0.1-0.1,0.2-0.2,0.2-0.3c0.1,0.1,0.2,0.1,0.3,0.1c-0.1-0.1,0.2-0.2,0.1-0.4l0.2,0
						c0.3-0.2,0-0.5,0.2-0.7c0,0.2,0.2,0.1,0.1,0.3c0.1-0.1,0.1-0.1,0.1-0.2c0.1,0,0.1-0.3,0.2-0.3c0-0.1-0.1-0.2,0-0.2c0,0,0,0,0,0
						c0,0,0.1-0.2-0.1-0.2c0.5,0.1,0.6-0.6,1-0.6c0.1-0.2,0.3-0.4,0.4-0.5c0,0,0,0,0,0.1c0.3-0.1-0.1-0.4,0.2-0.5
						c0.2,0,0,0.2,0.1,0.2c0.3,0.3,0.2-0.3,0.5-0.3l0,0.1c0.2,0,0.2-0.4,0.4-0.5c0,0,0,0,0,0c0-0.3,0.2-0.6,0.3-0.8
						c0.1,0.2,0,0.1,0.1,0.2c0.1-0.1-0.2-0.2-0.1-0.3c0.1,0,0.3,0,0.4,0.1l-0.1,0.2c0.2,0.1,0.2-0.2,0.3-0.2l0.1,0.1
						c0.2-0.2,0-0.4,0.3-0.7l-0.1,0c0-0.3,0.2,0,0.2-0.3l0.2,0.1c0-0.1,0.1-0.5,0.3-0.7c0,0.2-0.1,0.5-0.1,0.7
						c0.1-0.1,0.3-0.3,0.2-0.4c0,0.1,0,0.1-0.1,0.1c0-0.2,0-0.4,0.2-0.6c0.3,0.4,0.5-0.4,0.9-0.2c0.2-0.4,0.7-0.6,1-0.9
						c-0.4-0.1,0.1-0.1-0.2-0.4c0.1-0.1,0.1-0.1,0.1-0.1l0.4-0.1c0.1,0,0,0.1,0,0.2c0.2-0.2,0.2,0,0.4,0c-0.1-0.1-0.1-0.2,0.1-0.3
						l-0.3,0c0.1-0.4,0.4,0,0.6-0.4l0,0.2c0.1-0.2,0.5-0.5,0.4-0.8c0.1,0,0.2,0.1,0.1,0.1c0.3-0.3,0.5-0.9,0.8-1l0,0.1
						c0-0.1,0-0.2,0.1-0.2c0,0,0,0.1,0.1,0.1c0-0.1,0-0.3,0.2-0.3l0,0.1c0.4-0.2,0.3-0.6,0.5-0.9c0.2,0.2,0.5,0,0.6-0.1l0,0
						c0.4-0.3,0.4-0.8,0.7-1.2c0.4,0,0.8-0.6,1.2-0.8c-0.1,0-0.1-0.2-0.1-0.2c0.1,0,0.1-0.3,0.2-0.2l0,0c0.2,0.1,0.3-0.1,0.5-0.2
						l-0.2-0.3c0.7,0,0.7-1,1.2-0.8c0-0.1,0.1-0.2,0.1-0.4l0.1,0.1c0.2-0.2,0.4-0.3,0.6-0.6l0,0.1c0.2-0.1-0.2-0.5,0-0.7l0.2,0.1
						c0.3-0.3,0.7-0.4,0.8-0.8c0,0,0.1,0.1,0,0.1c0.1-0.1,0.6-0.4,0.3-0.6c0.2,0.2,0.3-0.3,0.4-0.5l0.1,0.1c0-0.3-0.1-0.3,0-0.5
						c0.1,0,0.1,0.1,0,0.1c0.2-0.1,0-0.2,0.2-0.3l0,0.1c0.1-0.1,0.1-0.2,0.1-0.3c0-0.1,0.3-0.2,0.4-0.1c0-0.1-0.1-0.3,0-0.3
						c0.1,0,0,0.1,0,0.1c0.3-0.1,0.2-0.5,0.5-0.5c0,0,0.1,0,0.1,0c-0.2,0.2-0.3,0.3-0.3,0.3c0.1,0.1,0.3,0,0.3,0.3
						c0-0.2,0-0.6,0.2-0.7c0,0,0,0,0.1,0l0,0c0,0,0.1-0.1,0.1-0.1c0.1,0,0.1,0,0.2-0.1c0.1,0.1,0.2-0.1,0.3-0.2
						c-0.1-0.1,0-0.2-0.2-0.2c0,0,0,0,0,0.1c0,0,0,0,0,0c0,0,0,0,0,0c0,0.1-0.1,0.1-0.2,0.2c0-0.1,0-0.2,0.2-0.2
						c0-0.1-0.1-0.2-0.1-0.3c0.3,0.1,0.6,0,0.7,0.1c0.2-0.3,0.5-0.6,0.4-0.9c0-0.1,0.1,0,0.2,0c0,0.1-0.1,0.1,0,0.2
						c0.1-0.2,0.4-0.4,0.2-0.6c0.2-0.1,0.1,0.2,0.3,0l0,0.1c0.7-0.2,0.3-1.1,1.1-1.3c-0.1,0-0.1,0-0.1,0c0.7-0.4,1-1.3,1.7-1.6
						c0.2-0.1,0.1-0.2,0.1-0.4L39,5.3L39,5c0.1-0.3,0.7-0.1,0.8-0.6l-0.1-0.1C39.8,4.3,39.9,4,40,4.1c0,0-0.1-0.1,0-0.1l0.1,0.1
						l0.1-0.4c0.2-0.1,0.2,0.3,0.5,0c0.1-0.1,0.1-0.5,0-0.5c0,0-0.2,0.1-0.2,0l0.1-0.1c-0.2-0.2-0.3-0.5-0.7-0.4l0,0.3l-0.2,0
						l0.1-0.1c-0.2,0-0.1,0.1-0.1,0.2c-0.1,0-0.1-0.1-0.2,0l0,0.4c-0.1-0.1-0.1-0.2-0.2-0.2c0,0.2,0.3,0.1,0.2,0.3
						c-0.2,0-0.2-0.1-0.2,0.1c-0.1,0-0.1-0.1-0.1-0.2c0,0.1-0.2,0.2-0.1,0.4c-0.2,0-0.2,0.3-0.4,0.1c0,0.1,0,0.3-0.1,0.4
						c-0.1-0.4-0.3,0.3-0.5,0c0.1,0.3-0.3,0.5-0.3,0.8c0,0,0-0.1,0-0.1C37.6,5,37.5,5,37.4,5c0.2,0.2,0,0.4,0.1,0.6
						c-0.3,0-0.1-0.3-0.3-0.4c0.1,0.1-0.1,0.4,0.1,0.4c-0.2,0-0.1,0-0.3-0.1c0.2,0.2-0.1,0.1,0,0.3c-0.2,0-0.2-0.2-0.3,0.1
						C36.5,5.9,36.5,5.7,36.5,5.7z M33.3,9.7C33.3,9.7,33.3,9.7,33.3,9.7C33.3,9.7,33.3,9.7,33.3,9.7C33.3,9.7,33.3,9.7,33.3,9.7z
						 M32.9,10c0,0,0.1-0.1,0.1-0.1c0.1,0,0.1,0.1,0.1,0.1C33.1,10,33,10,32.9,10z M34.4,10.2c0,0.1-0.1,0.1-0.1,0
						C34.4,10.3,34.4,10.2,34.4,10.2C34.4,10.2,34.4,10.2,34.4,10.2C34.4,10.2,34.4,10.2,34.4,10.2z"/>
					<path fill="#FFFFFF" d="M34.4,10C34.4,10,34.4,10,34.4,10C34.4,10,34.3,10,34.4,10C34.3,10,34.3,10,34.4,10
						C34.4,10,34.4,10,34.4,10z"/>
					<path fill="#FFFFFF" d="M6.5,37.5L6.5,37.5C6.5,37.5,6.5,37.5,6.5,37.5C6.5,37.5,6.5,37.5,6.5,37.5z"/>
					<polygon fill="#FFFFFF" points="28.5,14 28.5,14 28.5,14 					"/>
					<path fill="#FFFFFF" d="M4.4,38.7C4.4,38.7,4.4,38.7,4.4,38.7C4.4,38.7,4.4,38.7,4.4,38.7z"/>
					<path fill="#FFFFFF" d="M3.7,39.4l-0.1,0.1C3.6,39.5,3.7,39.4,3.7,39.4z"/>
					<path fill="#FFFFFF" d="M3.1,39.9C3.1,39.9,3.1,40,3.1,39.9C3.1,40,3.1,40,3.1,39.9L3.1,39.9z"/>
					<path fill="#FFFFFF" d="M11.8,30.9C11.8,30.9,11.8,30.9,11.8,30.9C11.8,30.8,11.8,30.8,11.8,30.9z"/>
					<path fill="#FFFFFF" d="M9.4,33.8c0-0.1,0-0.1,0-0.1C9.4,33.7,9.4,33.8,9.4,33.8z"/>
					<path fill="#FFFFFF" d="M14.6,27.8C14.6,27.8,14.6,27.8,14.6,27.8C14.6,27.8,14.6,27.8,14.6,27.8L14.6,27.8z"/>
					<path fill="#FFFFFF" d="M9.6,33.6c-0.1,0-0.1,0.1-0.1,0.1C9.5,33.7,9.6,33.6,9.6,33.6z"/>
					<path fill="#FFFFFF" d="M0.6,42.3L0.6,42.3C0.6,42.3,0.6,42.3,0.6,42.3L0.6,42.3z"/>
					<path fill="#FFFFFF" d="M0.6,42.3L0.6,42.3C0.6,42.4,0.6,42.3,0.6,42.3z"/>
					<path fill="#FFFFFF" d="M0.5,42.5L0.5,42.5C0.5,42.4,0.5,42.4,0.5,42.5z"/>
					<path fill="#FFFFFF" d="M1.4,41.6L1.4,41.6C1.4,41.6,1.4,41.6,1.4,41.6z"/>
					<path fill="#FFFFFF" d="M1.6,41.4c-0.1,0-0.2,0-0.3,0.1l0,0C1.3,41.4,1.6,41.5,1.6,41.4z"/>
					<path fill="#FFFFFF" d="M3.1,41l-0.2,0.2c0.1,0,0.2,0,0.1,0.1C3.4,41.2,2.8,41.2,3.1,41z"/>
					<path fill="#FFFFFF" d="M3.7,40.5c-0.1,0.1,0.1,0.1,0.1,0.1C3.9,40.5,3.9,40.4,3.7,40.5z"/>
					<path fill="#FFFFFF" d="M8,36.2l0.1,0.1C8.1,36.3,8,36.3,8,36.2z"/>
					<polygon fill="#FFFFFF" points="8.2,34.9 8,34.9 8.1,35 					"/>
					<polygon fill="#FFFFFF" points="9.5,35.2 9.4,35.2 9.5,35.1 					"/>
					<path fill="#FFFFFF" d="M16.5,28.1l-0.2-0.1C16.3,28,16.4,28.2,16.5,28.1z"/>
					<path fill="#FFFFFF" d="M19.4,24.9c0.1,0,0.2,0,0.2-0.1C19.5,24.8,19.4,24.8,19.4,24.9z"/>
					<polygon fill="#FFFFFF" points="28.8,15.9 28.8,16 28.9,15.9 					"/>
				</g>
			</g>
		</g>
		<g>
			<g>
				<g>
					<path fill="#FFFFFF" d="M38.3,27.5c0.1,0,0.2,0,0.1-0.1l-0.2,0L38.3,27.5z"/>
					<path fill="#FFFFFF" d="M38.6,26.9c-0.1-0.1-0.3-0.2-0.5-0.1C38.4,26.9,38.3,26.9,38.6,26.9c-0.1,0.2-0.1,0.2-0.2,0.2
						c0.1,0,0,0.1,0.1,0.2c0.1-0.1,0.1-0.3,0-0.4C38.5,26.9,38.6,26.9,38.6,26.9z"/>
					<path fill="#FFFFFF" d="M38.3,18.9L38.3,18.9C38.3,18.9,38.3,18.9,38.3,18.9z"/>
					<path fill="#FFFFFF" d="M39.1,14.1C39.1,14.1,39.1,14.1,39.1,14.1C39.1,14.1,39.1,14,39.1,14.1z"/>
					<path fill="#FFFFFF" d="M39.5,13.3C39.4,13.3,39.4,13.3,39.5,13.3C39.5,13.3,39.5,13.3,39.5,13.3z"/>
					<path fill="#FFFFFF" d="M38.3,18.9l0.1-0.1C38.3,18.8,38.4,18.8,38.3,18.9z"/>
					<path fill="#FFFFFF" d="M38,25.9C38,25.9,38,25.9,38,25.9L38,25.9L38,25.9z"/>
					<path fill="#FFFFFF" d="M38.5,21.1L38.5,21.1C38.5,21.1,38.6,21.1,38.5,21.1L38.5,21.1z"/>
					<path fill="#FFFFFF" d="M38.6,22.7c0,0-0.2,0-0.2,0c0.1,0,0.1,0,0.1,0.1C38.5,22.8,38.6,22.8,38.6,22.7z"/>
					<path fill="#FFFFFF" d="M38.6,25.4L38.6,25.4C38.6,25.4,38.6,25.4,38.6,25.4z"/>
					<path fill="#FFFFFF" d="M38.5,19.9C38.5,19.9,38.6,19.9,38.5,19.9C38.6,19.9,38.5,19.9,38.5,19.9z"/>
					<path fill="#FFFFFF" d="M17.1,7.6C17.1,7.5,17.1,7.5,17.1,7.6C17.1,7.5,17.1,7.6,17.1,7.6z"/>
					<polygon fill="#FFFFFF" points="15.1,7 15.1,7 15.1,6.9 					"/>
					<path fill="#FFFFFF" d="M40.1,11.9L40.1,11.9C40.1,11.9,40.1,11.9,40.1,11.9z"/>
					<path fill="#FFFFFF" d="M40.6,0.7c0.1,0,0,0.1,0,0.2c0,0.1-0.1,0.1,0.1,0.2C40.6,1,40.9,0.7,40.6,0.7z"/>
					<path fill="#FFFFFF" d="M38,25.8C38,25.8,38,25.8,38,25.8C38,25.8,38,25.8,38,25.8z"/>
					<path fill="#FFFFFF" d="M40.7,1.1L40.7,1.1L40.7,1.1C40.7,1.1,40.7,1.1,40.7,1.1z"/>
					<path fill="#FFFFFF" d="M41.1,8.5C41,8.5,41,8.5,41.1,8.5C41,8.5,41,8.5,41.1,8.5z"/>
					<path fill="#FFFFFF" d="M40,10.9L40,10.9C40,10.9,40,10.9,40,10.9z"/>
					<path fill="#FFFFFF" d="M41.3,7.1C41.3,7.1,41.4,7.1,41.3,7.1L41.3,7.1C41.4,7.1,41.4,7.1,41.3,7.1z"/>
					<polygon fill="#FFFFFF" points="41.8,5.8 41.8,5.8 41.8,5.8 					"/>
					<path fill="#FFFFFF" d="M21.4,6.7c0,0-0.1-0.1-0.1-0.1C21.4,6.7,21.2,6.8,21.4,6.7z"/>
					<path fill="#FFFFFF" d="M38.1,25.9C38,25.9,38,25.9,38.1,25.9L38.1,25.9C38,25.9,38.1,25.9,38.1,25.9z"/>
					<path fill="#FFFFFF" d="M40.1,6.6l0.1-0.2C40.1,6.4,40.1,6.5,40.1,6.6z"/>
					<path fill="#FFFFFF" d="M31.6,4.6L31.6,4.6C31.6,4.6,31.6,4.6,31.6,4.6z"/>
					<path fill="#FFFFFF" d="M40.4,5.7c0.1,0,0.1,0,0.2-0.1c0,0,0,0,0,0L40.4,5.7z"/>
					<path fill="#FFFFFF" d="M21.3,6.6L21.3,6.6L21.3,6.6z"/>
					<path fill="#FFFFFF" d="M19.9,7.3C20.1,7.2,20,7,20,6.9c0.2-0.1,0.1,0.1,0.3,0.2c0.2-0.1,0.2-0.3,0.4-0.3c0,0,0,0,0,0.1
						c0.1-0.2,0.5-0.1,0.7-0.4c0,0,0,0,0,0.1c-0.1-0.1-0.1-0.2-0.1-0.3c0.1,0,0.2-0.2,0.2,0c-0.1,0-0.1,0.1-0.1,0.1l0.1-0.1
						c0.1,0.2-0.1,0.1-0.1,0.3c0.2-0.1,0.4-0.3,0.5-0.3c0.1,0.2-0.3,0.1-0.1,0.3l-0.2,0c0.2,0.3-0.1,0,0.1,0.3
						c0.3,0,0.3-0.2,0.6-0.2c0-0.1-0.1-0.2,0-0.3c0.4-0.3,0.4,0.5,0.7,0.1c0.1-0.2,0-0.4,0.3-0.3l0,0.2c0.3,0,0.1-0.4,0.4-0.3
						c0,0.1-0.2,0.1-0.2,0.1c0.2,0.1,0.1-0.2,0.3-0.2l0.1,0.2c0.3-0.1,0.6-0.3,1-0.4c0,0.1-0.1,0.1,0,0.2c0.4-0.2,0.9-0.2,1.4-0.1
						l0.1-0.2c0,0,0.1,0.1,0.1,0.1c0.2,0,0-0.1,0.1-0.2c0.1,0,0.1,0.1,0.1,0.1c0.3-0.2,0.8-0.5,1.1-0.4l0,0.1c0.3,0,0.2-0.4,0.5-0.3
						l0,0c0.5,0,1.1-0.3,1.5-0.1c0-0.3,0.5,0,0.5-0.4c0.3,0.1,0.3,0.2,0.7,0.2c0.1,0,0.1-0.3,0.2-0.3l0,0.2l0.1-0.2l0.2,0.2l0.1-0.1
						c-0.1,0-0.1-0.1-0.1-0.1c0.2-0.1,0.5,0,0.5,0.1l0.4-0.3c0,0.1-0.1,0.1-0.1,0.2c0.2-0.2,0.1,0.2,0.3,0c0,0,0-0.1,0-0.2
						c0.1,0.1,0.4,0,0.6-0.1l0,0.1c0.4-0.1,0.7-0.2,1.1-0.3c-0.2,0-0.2-0.3-0.1-0.3l0.1,0.2c0-0.1-0.1,0,0-0.2
						c0.2,0,0.2,0.2,0.1,0.3l0.2-0.1c0,0.1,0,0.1,0,0.2c0-0.1,0.4,0.1,0.4-0.1L35,4c0.4-0.1,0.6-0.2,0.9-0.3c0-0.2,0.1-0.2,0.2-0.3
						c0.2,0,0.5,0,0.8,0c0.2-0.1,0-0.2,0.1-0.3c0.1,0.1,0.3,0.1,0.2,0.2c0.3-0.1,0.4-0.1,0.8-0.4c-0.1,0-0.1-0.1-0.1-0.1
						c0.1,0,0.2,0,0.2,0.1l0,0c0.4-0.4,1.2,0.1,1.5-0.3l0,0l0.3-0.3c0.2,0-0.1,0.1,0.1,0.2c0.4-0.4,0.7-0.2,1-0.4
						c0.2,0.2,0.2,0.2,0.3,0.1c0.1-0.1,0.2-0.2,0.2,0L41.5,2c0.1-0.1,0,0.1,0,0.1c0.1-0.1,0-0.1,0.1-0.2c0.1-0.1,0.2-0.1,0.3-0.1
						c0.1,0,0.2,0,0,0.1c-0.1,0.2-0.3,0.3-0.3,0.3c0,0,0.6,0,0.3,0.1c0,0-0.2-0.1-0.2-0.1c0,0,0,0.1,0,0.2c0,0.1,0,0.2-0.1,0.2
						c0,0.2-0.1,0.3-0.2,0.5c-0.1,0.3-0.2,0.6-0.3,0.9c0-0.1-0.1-0.1-0.1-0.1C41,3.9,41,4.3,41.1,4.4c0,0.1-0.1,0-0.2,0
						c-0.1,0.1,0.1,0.4-0.1,0.4c0,0,0-0.1,0-0.1c0,0.1-0.2,0.4,0,0.4c-0.2,0.2-0.1,0.4-0.3,0.6c0.1,0.2-0.2,0.3,0,0.5
						c-0.3-0.1-0.4,0.3-0.3,0.5c-0.1-0.1-0.1,0.1-0.2,0C40,6.8,40,6.9,40.1,6.9c-0.4,0.2,0,0.7-0.4,0.7c0,0.5-0.1,1-0.2,1.4
						c-0.3-0.1,0.1-0.5-0.1-0.6c0,0.4,0.1,0.8-0.1,1.1c-0.1,0.1-0.1-0.1-0.1-0.1c0,0.4-0.3,0.8-0.3,1.2c0,0,0-0.1,0-0.1
						c0,0.1-0.1,0.2,0,0.2l0-0.1c0.2-0.1,0.3,0.4,0.4,0.4c-0.3-0.2-0.2,0.3-0.6,0c0,0.1,0,0.1,0.1,0.1c0,0.1-0.1,0.1-0.2,0
						c0,0.3,0.1,0.2,0.1,0.5c-0.1,0-0.1-0.1-0.1-0.1c0.1,0.2,0.2,0.3,0.1,0.5c0,0-0.1,0-0.1-0.1c-0.1,0.4,0.2,0.7-0.1,1
						c-0.2-0.2-0.1,0.1-0.3,0.1l0,0.2l0.1-0.1c0,0.2,0.1,0.4,0,0.5l-0.1-0.2l0,0.3l0.1-0.2c0.1,0.2,0.3,0,0.2,0.3
						c0-0.1,0,0.2-0.2,0.2l0,0c0.1,0.1,0.1,0.2,0,0.3c-0.1,0-0.2-0.1-0.3-0.1c0.2,0.1,0,0.4,0.2,0.6c0,0-0.2-0.1-0.2-0.1l0.1,0.1
						c-0.1,0.1-0.1,0.1-0.2,0.1c-0.1,0.2,0.3,0,0.1,0.2c0,0,0,0,0-0.1c-0.1,0.3,0,0.6-0.1,0.9c-0.2,0.1,0-0.3-0.2-0.2
						c0,0.4,0.2,0.9,0.1,1.3l0-0.1c0.3,0.1-0.2,0.3-0.1,0.5c0,0-0.2-0.1-0.1-0.1c-0.1,0.3,0,0.6,0.1,1l-0.1-0.1
						c-0.1,0.2-0.1,0.4-0.1,0.6c0.1,0.1,0.1,0.1,0.2,0.1c-0.5,0.5,0.3,1-0.1,1.5c0-0.1-0.1-0.1-0.1-0.1l0.1,0.4
						c0.1,0,0.1-0.1,0.2-0.1c0.1,0,0.2,0.2,0.2,0.3c-0.1-0.2-0.2,0-0.3,0.1c0,0,0.1,0,0.1,0c-0.2,0.2,0.3,0,0.1,0.3l-0.1,0
						c0,0.1,0.2,0.2,0.1,0.3c-0.2,0.1-0.1-0.1-0.2-0.1c0,0.2,0.3,0.3,0.2,0.5c-0.1-0.1-0.1-0.2-0.1-0.2c-0.2,0.2-0.1,0.2-0.2,0.3
						l0,0l-0.1,0.3l0-0.1c0.4,0.2,0.1,0.4,0.4,0.6c-0.3-0.2-0.2,0-0.3,0c0,0.1-0.1,0.2-0.2,0.2c0.2,0.1-0.1,0.2,0.1,0.4
						c-0.1,0,0,0.1-0.1,0.1c0.1,0.2,0.1,0,0.2,0c0.2,0.2-0.2,0.6,0.1,1c0.2,0.3,0.4,0.3,0.5,0.6c-0.1,0.1-0.2-0.1-0.2-0.1
						c-0.1,0.2,0,0.3,0.1,0.4c-0.1,0-0.1,0-0.2,0.1c0,0.1,0.2,0,0.2,0.2c-0.1,0-0.2,0-0.3-0.1c0.1,0.1,0.2,0.3,0.3,0.4
						c-0.1,0.1-0.2-0.1-0.2-0.1c0.1,0.2,0.2,0.4,0.3,0.4l0-0.1c0,0.1-0.1,0.1-0.2,0c-0.2-0.1,0-0.2,0.1-0.2l0.1,0.1
						c0.3-0.2-0.1-0.4-0.1-0.6l0.3,0l-0.2-0.2c0.1-0.1,0.2-0.1,0.2,0c0.1-0.2-0.1-0.1,0-0.3c0,0,0,0,0,0l-0.1-0.1c0.1,0,0.2,0,0.2,0
						c0.1-0.3-0.2-0.4-0.1-0.5l0,0c-0.1-0.4-0.2,0-0.4-0.3l0.4-0.2l-0.2,0c0,0,0-0.1,0.1-0.1c-0.1-0.1-0.1,0-0.2,0
						c0.1-0.2-0.1-0.5,0.2-0.6c-0.1-0.1-0.1,0.2-0.2,0c0.3-0.1-0.1-0.2,0.1-0.4c0.2,0,0.1,0.2,0.2,0c-0.3-0.1,0-0.3,0-0.5
						c-0.2,0-0.1-0.3-0.2-0.5c0.1,0,0.1-0.4,0.2-0.7l0,0c-0.2,0-0.2-0.3-0.2-0.4c0.1,0,0.2,0,0.3,0.1l0-0.2c-0.1,0-0.1-0.1-0.1-0.2
						l0.2,0c0-0.2-0.2-0.4-0.1-0.7c-0.2,0-0.4,0.2-0.5-0.1c0.1,0,0.2,0,0.3,0.1c0,0-0.1-0.1,0-0.1l0.1,0.1c0.1-0.1-0.1-0.1-0.1-0.2
						c0.1,0,0.1-0.1,0.2-0.1c0,0,0,0.1,0,0.1c0-0.1,0.1-0.2,0.2-0.3c-0.1,0-0.2,0-0.2-0.1c0-0.2,0.1-0.1,0.2-0.2
						c-0.1-0.1,0-0.2-0.2-0.2c0-0.1,0.1-0.1,0.1-0.1c-0.1-0.1,0-0.5-0.2-0.4l0,0l0,0l0,0l0,0c-0.2-0.4,0.1-0.7,0.1-1.1l0.1,0
						c-0.1-0.2,0-0.5-0.1-0.6c0-0.1,0.1-0.1,0.2-0.1c0-0.2-0.1-0.2,0-0.4c0.1,0.2,0.1,0,0.1,0.2c0.1-0.2,0.2-0.2,0-0.5
						c0.1,0.1,0.2-0.1,0.2-0.2l-0.1,0.1c0-0.1,0-0.2,0-0.3l0.2,0.1c0.3-0.4-0.3-0.8,0.1-1c-0.1-0.1-0.1,0.2-0.3,0.1
						c0.1-0.2,0.4-0.3,0.4-0.4c0.2-0.2-0.2-0.3-0.1-0.5c-0.1,0-0.3,0-0.3-0.2c0.1-0.2,0.3-0.2,0.4,0c0,0,0,0.1-0.1,0.1
						c0,0.1,0,0.2,0.1,0.1l-0.1,0c0.1-0.1,0.1-0.3,0.2-0.2c0-0.2-0.1-0.1-0.2,0c0.2-0.2,0.1-0.4,0.2-0.6c0,0-0.1,0-0.1,0
						c0.2-0.3-0.1-0.2-0.1-0.4c0.1-0.1,0.2,0.1,0.2-0.2c0.1-0.1,0.2,0,0.2,0.1c-0.1-0.3,0.2-0.4,0.3-0.5l0,0.1c0-0.1,0-0.1,0-0.2
						l-0.2,0c0-0.1,0.1-0.1,0.1-0.1c-0.1-0.1-0.3,0-0.3-0.2c0.1-0.1,0-0.3,0.2-0.3C39.7,12,40,11.7,40,12c0-0.1,0-0.1,0.1-0.2
						c0,0,0,0,0,0c0.2-0.2-0.2-0.2-0.1-0.5c0.1,0.1,0.2,0,0.2-0.1c0,0.1-0.2,0-0.2-0.1c0.1-0.2,0-0.2,0-0.3L39.9,11
						c-0.1-0.1-0.1-0.2,0-0.3c0.1,0,0,0.1,0.1,0.1c-0.1-0.2,0.3-0.3,0.2-0.5c0.1-0.1,0.2,0.1,0.3,0c-0.1-0.3,0.2-0.2,0.2-0.5
						c-0.2,0-0.1,0-0.2-0.2l0,0.4l-0.1-0.3c0,0.1,0,0.3,0,0.3C40.2,10,40.2,10,40,10c0.3-0.1,0-0.4,0.2-0.5l0.3,0.1
						c0.2-0.2,0-0.5,0.2-0.9l-0.1,0.1c-0.1-0.1,0.1-0.2,0-0.4c0.1,0.1,0.2,0,0.3,0c-0.1,0,0.1-0.3-0.1-0.4L41.1,8
						c0.2-0.3-0.2-0.4-0.1-0.7c0.1,0.1,0.2,0,0.2,0.2c0-0.1,0.1-0.2,0-0.2c0.1,0-0.1-0.3,0.1-0.4c0-0.1-0.2-0.1-0.1-0.2
						c0,0,0.1,0,0.1,0c-0.1,0,0-0.2-0.2-0.1c0.5-0.1,0.3-0.8,0.7-0.9c0-0.2,0.1-0.5,0.2-0.6c0,0,0.1,0,0,0.1c0.2-0.2-0.3-0.3,0-0.5
						c0.2-0.1,0,0.2,0.1,0.1c0.4,0.1,0.1-0.4,0.4-0.5l0,0.1c0.2-0.1,0-0.4,0.1-0.6c0,0,0,0,0.1,0c-0.1-0.2-0.1-0.6,0-0.8
						c0.1,0.1,0,0.1,0.2,0.1c0-0.1-0.3-0.1-0.2-0.3c0.1,0,0.2-0.1,0.4-0.1l-0.1,0.2c0.1,0,0.1-0.1,0.1-0.1c0-0.1,0-0.2,0.1-0.3
						l0.1,0c0.2-0.5-0.1-0.5,0.1-0.9l-0.1,0.1c-0.2-0.1,0.2-0.3,0.1-0.4l0.4-0.3c0-0.1-0.1-0.3-0.1-0.5c0.2-0.1,0.2,0.1,0.3,0.3
						c0.1-0.2,0.2-0.6,0-0.5c0,0,0.1,0,0,0.2c-0.1,0-0.2,0-0.2-0.1c0,0,0-0.1,0-0.1c0,0,0,0-0.1,0l-0.1,0c0.4-0.4,0.2-0.4,0-0.3
						C43.2,0.1,43,0.2,43,0c-0.4,0.2-0.7,0.3-1,0.3c-0.3,0.1-0.6,0.1-1,0.2c0.3,0.3-0.2,0.1-0.1,0.4c-0.1,0.1-0.2,0.1-0.2,0.1
						L40.3,1c-0.1-0.1,0.1-0.1,0-0.2c-0.3,0-0.1-0.1-0.3-0.2c0.1,0.1,0,0.2-0.2,0.2l0.2,0.1c-0.3,0.3-0.4-0.2-0.7,0.1l0.1-0.1
						C39.3,1,38.8,1,38.8,1.4c0,0-0.1-0.1,0-0.2c-0.4,0.1-0.8,0.6-1.2,0.5l0-0.1c-0.1,0-0.1,0.2-0.2,0.1c0,0,0-0.1,0-0.1
						c0,0-0.2,0.2-0.3,0.2L37,1.7c-0.4,0-0.6,0.4-0.9,0.6C36.1,2,35.7,2,35.6,2l0,0c-0.5,0.1-0.8,0.4-1.2,0.6
						c-0.3-0.2-1,0.1-1.5,0.1c0.1,0,0,0.2,0,0.3c-0.1,0-0.2,0.3-0.3,0l0,0c-0.1-0.2-0.3-0.1-0.5-0.1l0,0.3c-0.5-0.4-1.1,0.4-1.4,0.1
						c-0.1,0.1-0.2,0.1-0.3,0.2l0-0.2c-0.3,0-0.5,0-0.8,0.2l0-0.1c-0.2,0-0.1,0.5-0.3,0.6l-0.1-0.2c-0.4,0.1-0.8-0.1-1.1,0.2
						c0,0,0-0.1,0-0.1c-0.2,0-0.7,0-0.6,0.3c-0.1-0.2-0.4,0.1-0.5,0.2l0-0.2c-0.1,0.2-0.1,0.3-0.3,0.4c-0.1,0-0.1-0.1,0-0.1
						c-0.2,0-0.1,0.2-0.3,0.1l0.1-0.1c-0.2,0-0.2,0.1-0.2,0.2c-0.1,0.1-0.4,0-0.4-0.1c0,0.1-0.1,0.2-0.2,0.2c0-0.1,0-0.1,0-0.1
						c-0.3-0.1-0.4,0.3-0.7,0.2c0-0.1,0-0.1-0.1-0.1c0.2,0,0.4-0.1,0.4-0.1c0-0.2-0.2-0.1-0.1-0.4c-0.1,0.1-0.4,0.5-0.6,0.4
						c0,0,0,0,0,0l0,0c0,0-0.1,0-0.1,0c-0.1,0-0.1,0-0.2,0c0-0.1-0.2,0-0.3,0C24,4.9,23.9,4.9,24,5c0,0,0,0,0.1,0c0,0,0,0,0,0l0,0
						c0.1,0,0.1,0,0.2-0.1C24.3,5,24.2,5.1,24.1,5c0,0.1-0.1,0.2-0.1,0.3c-0.2-0.2-0.5-0.3-0.5-0.4c-0.3,0.2-0.7,0.2-0.8,0.6
						c-0.1,0.1-0.1-0.1-0.2-0.1c0,0,0.1,0,0.1-0.1c-0.2,0.1-0.5,0.1-0.5,0.4c-0.2-0.1,0.1-0.2-0.2-0.1l0-0.1
						c-0.7-0.2-0.9,0.7-1.6,0.4c0.1,0,0.1,0,0.1,0.1c-0.8-0.1-1.5,0.5-2.3,0.3c-0.2,0-0.2,0.1-0.3,0.2l-0.1-0.2l-0.2,0.2
						c-0.3,0.2-0.6-0.4-1,0l0.1,0.1c-0.1,0-0.4,0.1-0.4,0c0,0,0,0.1-0.1,0.1l0-0.1l-0.3,0.2c-0.3,0,0-0.4-0.4-0.3
						C15.2,6.4,15,6.7,15,6.8c0.1,0,0.2,0,0.2,0.1L15.1,7c0,0.3,0,0.6,0.3,0.7l0.2-0.2l0.1,0.1l-0.2,0c0.1,0.1,0.2,0,0.2-0.1
						c0,0.1,0.1,0.1,0.1,0.1l0.2-0.3c0,0.1-0.1,0.2,0.1,0.3c0.1-0.1-0.1-0.2,0-0.3c0.1,0.1,0.1,0.2,0.2,0.1c0,0.1,0,0.1,0,0.2
						c0.1-0.1,0.3-0.1,0.3-0.2c0.1,0.1,0.4-0.1,0.4,0.2c0-0.1,0.2-0.2,0.3-0.3c-0.1,0.4,0.4,0,0.4,0.3c0.1-0.3,0.5-0.2,0.7-0.4
						c0,0,0,0.1-0.1,0.1c0.1,0,0.2,0.1,0.3,0.1C18.7,7.1,19,7,19,6.8c0.2,0.2-0.1,0.3,0,0.5c0-0.2,0.3-0.2,0.2-0.4
						c0.2,0.1,0.1,0,0.2,0.2c0-0.3,0.1-0.1,0.2-0.3C19.9,7,19.8,7.2,20,7C20.1,7.1,19.9,7.3,19.9,7.3z M24.9,5.8L24.9,5.8
						c0,0-0.1,0-0.1,0C24.8,5.8,24.8,5.8,24.9,5.8z M25.3,5.7c-0.1,0-0.1,0-0.2,0c0-0.1,0-0.1,0-0.1C25.1,5.7,25.2,5.7,25.3,5.7z
						 M24.2,4.7c0.1,0,0.1,0,0.1,0C24.2,4.7,24.2,4.8,24.2,4.7L24.2,4.7C24.2,4.8,24.2,4.7,24.2,4.7z"/>
					<path fill="#FFFFFF" d="M24.1,5C24.1,5,24.1,5,24.1,5C24.1,5,24.1,5,24.1,5L24.1,5L24.1,5z"/>
					<path fill="#FFFFFF" d="M38.3,19L38.3,19C38.3,19,38.3,19,38.3,19C38.3,19,38.3,19,38.3,19z"/>
					<polygon fill="#FFFFFF" points="31.2,4.8 31.2,4.7 31.1,4.8 					"/>
					<path fill="#FFFFFF" d="M37.7,21.3C37.7,21.3,37.7,21.4,37.7,21.3C37.7,21.4,37.7,21.4,37.7,21.3z"/>
					<path fill="#FFFFFF" d="M37.7,22.4l-0.1,0.1C37.7,22.5,37.7,22.4,37.7,22.4z"/>
					<path fill="#FFFFFF" d="M37.7,23.2C37.7,23.2,37.8,23.2,37.7,23.2L37.7,23.2L37.7,23.2z"/>
					<path fill="#FFFFFF" d="M38.9,10.6C38.9,10.6,38.9,10.6,38.9,10.6C38.9,10.5,38.9,10.6,38.9,10.6z"/>
					<path fill="#FFFFFF" d="M38.3,14.4c0,0,0-0.1-0.1-0.1C38.2,14.3,38.2,14.3,38.3,14.4z"/>
					<polygon fill="#FFFFFF" points="40,6.6 40.1,6.6 40.1,6.6 					"/>
					<path fill="#FFFFFF" d="M38.3,14c0,0.1-0.1,0.1,0,0.2C38.3,14.2,38.3,14.1,38.3,14z"/>
					<path fill="#FFFFFF" d="M38.1,26.6L38.1,26.6C38.1,26.6,38.1,26.6,38.1,26.6L38.1,26.6z"/>
					<path fill="#FFFFFF" d="M38.1,26.6L38.1,26.6C38.1,26.6,38.1,26.6,38.1,26.6z"/>
					<path fill="#FFFFFF" d="M38.2,26.7L38.2,26.7C38.1,26.7,38.1,26.7,38.2,26.7z"/>
					<path fill="#FFFFFF" d="M38,25.5L38,25.5C37.9,25.5,38,25.5,38,25.5z"/>
					<path fill="#FFFFFF" d="M37.9,25.2c0,0.1-0.1,0.2-0.1,0.3l0.1,0C37.8,25.5,38,25.3,37.9,25.2z"/>
					<path fill="#FFFFFF" d="M38.5,23.8l0,0.3c0.1-0.1,0.1-0.1,0.2,0C38.9,23.7,38.6,24.2,38.5,23.8z"/>
					<path fill="#FFFFFF" d="M38.6,23c0,0.1,0.1,0,0.1,0C38.6,22.9,38.6,22.9,38.6,23z"/>
					<path fill="#FFFFFF" d="M38.6,17.2l0.2,0C38.7,17.1,38.7,17.2,38.6,17.2z"/>
					<polygon fill="#FFFFFF" points="37.9,15.9 37.8,16 37.9,16.1 					"/>
					<polygon fill="#FFFFFF" points="39.1,15.4 39.1,15.5 39.1,15.3 					"/>
					<path fill="#FFFFFF" d="M41.9,6.1l-0.2,0C41.7,6.1,41.9,6.2,41.9,6.1z"/>
					<path fill="#FFFFFF" d="M43.4,1.6c0.1-0.1,0.3-0.3,0.2-0.4C43.5,1.4,43.4,1.6,43.4,1.6z"/>
					<polygon fill="#FFFFFF" points="31.9,3 32,2.9 31.8,3 					"/>
				</g>
			</g>
		</g>
	</g>
</g>
</svg>
