<?xml version="1.0" encoding="utf-8"?>
<!-- Generator: Adobe Illustrator 18.0.0, SVG Export Plug-In . SVG Version: 6.00 Build 0)  -->
<!DOCTYPE svg PUBLIC "-//W3C//DTD SVG 1.1//EN" "http://www.w3.org/Graphics/SVG/1.1/DTD/svg11.dtd">
<svg version="1.1" id="Layer_1" xmlns="http://www.w3.org/2000/svg" xmlns:xlink="http://www.w3.org/1999/xlink" x="0px" y="0px"
	 viewBox="0 0 44.4 43.9" enable-background="new 0 0 44.4 43.9" xml:space="preserve">
<g>
	<g>
		<path fill="none" d="M5.5,27.8C7.6,15.9,4.9,11.3,1,1c12.9,4.3,28.2,6.4,28.2,6.4 M44,43.7L3.7,3.4"/>
		<g>
			<g>
				<g>
					<path fill="#FFFFFF" d="M4,3.1c-0.1,0-0.1,0.1-0.1,0.2l0.2-0.1L4,3.1z"/>
					<path fill="#FFFFFF" d="M4.1,3.8c0.1,0,0.3,0,0.4-0.2c-0.2,0.1-0.2,0-0.4,0.1c-0.1,0-0.1-0.1,0-0.2C4.1,3.4,4.1,3.3,4,3.4
						c0,0.2,0.1,0.3,0.2,0.3C4.2,3.7,4.1,3.7,4.1,3.8z"/>
					<path fill="#FFFFFF" d="M9.6,9.7L9.6,9.7C9.6,9.7,9.6,9.7,9.6,9.7z"/>
					<path fill="#FFFFFF" d="M13.1,13.3C13,13.3,13,13.3,13.1,13.3C13,13.3,13.1,13.3,13.1,13.3z"/>
					<path fill="#FFFFFF" d="M13.5,14.1C13.5,14.1,13.5,14,13.5,14.1C13.5,14.1,13.5,14.1,13.5,14.1z"/>
					<path fill="#FFFFFF" d="M9.6,9.7l0,0.1C9.7,9.8,9.6,9.8,9.6,9.7z"/>
					<path fill="#FFFFFF" d="M5.3,4.2C5.2,4.2,5.2,4.2,5.3,4.2C5.2,4.2,5.2,4.2,5.3,4.2C5.2,4.2,5.2,4.2,5.3,4.2z"/>
					<path fill="#FFFFFF" d="M7.9,8.3L7.9,8.3c-0.1,0-0.1,0-0.1,0L7.9,8.3z"/>
					<path fill="#FFFFFF" d="M6.7,7.1c0,0,0.2-0.1,0.2-0.1C6.9,7,6.8,7,6.7,7.1C6.8,7,6.7,7,6.7,7.1z"/>
					<path fill="#FFFFFF" d="M5,5L5,5C5,4.9,5,5,5,5z"/>
					<path fill="#FFFFFF" d="M8.8,9.1C8.7,9.2,8.7,9.2,8.8,9.1C8.7,9.2,8.8,9.2,8.8,9.1z"/>
					<path fill="#FFFFFF" d="M43.2,41.7C43.2,41.7,43.2,41.7,43.2,41.7C43.2,41.7,43.2,41.7,43.2,41.7z"/>
					<path fill="#FFFFFF" d="M44,43.7L44,43.7C43.9,43.7,43.9,43.7,44,43.7L44,43.7z"/>
					<path fill="#FFFFFF" d="M14.5,15.3C14.5,15.3,14.5,15.3,14.5,15.3C14.4,15.3,14.4,15.3,14.5,15.3z"/>
					<path fill="#FFFFFF" d="M24.7,25.4c0-0.2,0.3,0,0.3-0.2C25,25.2,24.6,25.2,24.7,25.4z"/>
					<path fill="#FFFFFF" d="M5.3,4.2C5.3,4.3,5.3,4.3,5.3,4.2C5.3,4.3,5.3,4.2,5.3,4.2z"/>
					<path fill="#FFFFFF" d="M25,25.2C25,25.2,25,25.2,25,25.2L25,25.2C25,25.1,25,25.2,25,25.2z"/>
					<path fill="#FFFFFF" d="M17.1,17.8C17.1,17.8,17.1,17.8,17.1,17.8C17.1,17.8,17.1,17.8,17.1,17.8z"/>
					<path fill="#FFFFFF" d="M15.4,15.7L15.4,15.7C15.4,15.8,15.4,15.8,15.4,15.7z"/>
					<path fill="#FFFFFF" d="M18.2,18.6C18.3,18.7,18.3,18.7,18.2,18.6C18.3,18.7,18.3,18.7,18.2,18.6
						C18.3,18.7,18.3,18.7,18.2,18.6z"/>
					<path fill="#FFFFFF" d="M19.3,19.7C19.3,19.6,19.3,19.6,19.3,19.7C19.3,19.6,19.3,19.6,19.3,19.7L19.3,19.7z"/>
					<path fill="#FFFFFF" d="M40,38.7c0,0.1,0,0.1-0.1,0.2C40,38.7,40.2,38.8,40,38.7z"/>
					<path fill="#FFFFFF" d="M5.2,4.3C5.2,4.2,5.2,4.2,5.2,4.3C5.3,4.2,5.2,4.2,5.2,4.3C5.2,4.2,5.2,4.2,5.2,4.3z"/>
					<path fill="#FFFFFF" d="M19.3,17.7l0.1,0.2C19.4,17.8,19.3,17.8,19.3,17.7z"/>
					<path fill="#FFFFFF" d="M32.6,31.3L32.6,31.3C32.7,31.3,32.7,31.3,32.6,31.3z"/>
					<path fill="#FFFFFF" d="M19.9,18.3c0,0.1,0,0.1,0,0.2c0,0,0,0,0.1,0L19.9,18.3z"/>
					<path fill="#FFFFFF" d="M40,38.8C40,38.8,40,38.8,40,38.8C40,38.8,40,38.8,40,38.8z"/>
					<path fill="#FFFFFF" d="M41.3,39.6c-0.2-0.2-0.2,0.1-0.4,0.1c-0.2-0.1,0-0.2,0.1-0.4c-0.2-0.1-0.4,0-0.5-0.1c0,0,0-0.1,0.1-0.1
						c-0.3,0-0.4-0.4-0.7-0.3c0,0,0,0,0-0.1c-0.1,0.1-0.1,0.2-0.2,0.2c-0.1-0.1-0.2,0-0.2-0.2c0,0,0.1,0,0.1,0l-0.1,0
						c0.1-0.2,0.2,0,0.3-0.1c-0.2-0.1-0.5-0.1-0.5-0.3c0.1-0.2,0.3,0.2,0.3-0.1l0.1,0.2c0.1-0.4,0.1,0.1,0.2-0.3
						c-0.2-0.3-0.3-0.2-0.5-0.4c-0.1,0-0.1,0.1-0.2,0.2c-0.5-0.2,0.1-0.6-0.3-0.7c-0.2,0-0.4,0.2-0.4-0.1l0.2-0.1
						c-0.2-0.2-0.4,0.1-0.5-0.2c0.1,0,0.2,0.1,0.2,0.1c0-0.3-0.2,0-0.3-0.1l0.1-0.2c-0.3-0.2-0.6-0.3-0.9-0.6c0.1,0,0.1,0,0.1-0.1
						c-0.4-0.2-0.7-0.7-0.9-1.1l-0.2,0c0,0,0-0.1,0.1-0.1c-0.1-0.2-0.1,0.1-0.2,0.1c-0.1-0.1,0-0.2,0.1-0.2
						c-0.3-0.1-0.8-0.4-0.9-0.7l0.1,0c-0.1-0.2-0.5,0.1-0.5-0.2l0.1,0c-0.3-0.4-0.9-0.7-1-1.2c-0.2,0.1-0.3-0.5-0.6-0.2
						c-0.1-0.3,0-0.3-0.2-0.7c-0.1-0.1-0.3,0-0.4,0l0.1-0.1l-0.3,0l0.1-0.2l-0.1-0.1c0,0,0,0.1,0,0.2c-0.2-0.1-0.3-0.5-0.2-0.5
						L32,30.7c0.1,0,0.1,0,0.2,0c-0.3,0,0.1-0.2-0.2-0.2c0,0.1-0.1,0.1-0.1,0.1c0-0.2-0.2-0.4-0.4-0.5l0.1-0.1
						c-0.2-0.3-0.6-0.5-0.9-0.8c0.1,0.1-0.1,0.3-0.2,0.2l0.1-0.2c-0.1,0,0,0.1-0.2,0.1c-0.1-0.1,0.1-0.2,0.2-0.2l-0.2-0.1
						c0-0.1,0.1,0,0.2-0.1c-0.1,0-0.1-0.4-0.3-0.3l0,0c-0.3-0.3-0.5-0.4-0.7-0.6c-0.1,0.1-0.2,0-0.4,0c-0.1-0.2-0.2-0.5-0.4-0.7
						c-0.2-0.1-0.1,0.1-0.3,0.1c0.1-0.1-0.1-0.3,0.1-0.3c-0.3-0.2-0.3-0.3-0.8-0.5c0,0.1,0,0.1-0.1,0.2c-0.1,0-0.1-0.2,0-0.2l0,0
						c-0.5-0.2-0.5-1.1-1-1.2l0,0l-0.4-0.2c-0.1-0.2,0.2,0,0.1-0.2c-0.5-0.1-0.5-0.5-0.9-0.7c0.1-0.5-0.7-0.7-0.8-1.2l-0.1,0.1
						c-0.1,0,0-0.1-0.1-0.2c-0.1,0.1,0,0.1-0.1,0.1c-0.7-0.5-1.1-1.3-1.7-2c-0.2-0.2-0.5,0.3-0.6-0.2l0.2-0.1
						c-0.6-0.3-0.9-0.9-1.5-1.2c0.1,0,0.1,0,0.1,0c0-0.2-0.3-0.4-0.4-0.3c-0.1-0.1,0.1-0.1,0.1-0.2c0-0.2-0.4-0.1-0.3-0.3
						c0,0,0.1,0,0.1,0c-0.1,0-0.3-0.3-0.3-0.1c-0.1-0.2-0.4-0.3-0.4-0.5c-0.2,0-0.2-0.3-0.4-0.2c0.2-0.2-0.1-0.5-0.3-0.5
						c0.1,0,0-0.2,0.1-0.2c-0.1-0.1-0.3-0.2-0.3-0.1c0-0.5-0.6-0.3-0.5-0.7c-0.5-0.2-0.9-0.5-1.2-0.8c0.2-0.2,0.4,0.3,0.6,0.1
						c-0.4-0.2-0.7-0.2-1-0.6c-0.1-0.1,0.1,0,0.2,0c-0.4-0.2-0.6-0.6-0.9-0.8c0,0,0.1,0,0.1,0c-0.1,0-0.1-0.2-0.2-0.1l0.1,0
						c0,0.2-0.5,0.1-0.6,0.1c0.3-0.2-0.2-0.3,0.3-0.5c-0.1,0-0.1,0-0.2,0c0-0.1,0-0.1,0.1-0.1c-0.2-0.1-0.3,0-0.4-0.2
						c0,0,0.1,0,0.2-0.1c-0.2,0-0.3,0-0.5-0.2c0,0,0.1-0.1,0.1,0c-0.3-0.2-0.7-0.2-0.8-0.6c0.3-0.1,0-0.2,0.1-0.3L14.1,13l0,0.1
						C14,13,13.7,13,13.7,12.8l0.2,0l-0.3-0.2l0.1,0.2c-0.2,0-0.2,0.2-0.3,0c0.1,0-0.1-0.1-0.1-0.3c0,0,0,0,0,0
						c-0.1,0-0.2,0-0.3-0.2c0-0.1,0.2-0.2,0.2-0.2c-0.2,0.1-0.3-0.3-0.6-0.2c0.1,0,0.1-0.1,0.2-0.1l-0.2,0.1c0-0.1,0-0.1,0.1-0.2
						c-0.2-0.2-0.2,0.3-0.3,0c0,0,0,0,0.1,0c-0.2-0.3-0.5-0.3-0.6-0.6c0.1-0.2,0.2,0.1,0.3-0.1c-0.3-0.3-0.8-0.4-1-0.7l0,0.1
						c-0.3,0.2-0.1-0.3-0.3-0.3c0.1,0,0.2-0.1,0.1-0.1c-0.2-0.2-0.4-0.3-0.8-0.5l0.1,0c-0.1-0.2-0.3-0.3-0.4-0.5
						C9.8,8.9,9.7,8.9,9.7,9c0-0.7-0.9-0.5-0.9-1.1c0,0,0.1,0,0.1,0L8.5,7.6c-0.1,0.1,0,0.1,0,0.2c-0.1,0-0.2,0-0.3-0.1
						c0.2,0.1,0.2-0.2,0.2-0.3c0,0-0.1,0.1-0.1,0.1c0-0.3-0.2,0.2-0.3-0.1l0.1,0c-0.1,0-0.2,0-0.3-0.1c0.1-0.2,0.1,0,0.2-0.1
						C7.8,7.1,7.5,7.2,7.5,7c0.1,0,0.2,0.1,0.2,0.1c0-0.2,0-0.2-0.1-0.3l0,0L7.5,6.5l0,0.1C7.1,6.8,7.2,6.4,6.8,6.4
						c0.4,0,0.1-0.1,0.3-0.2c0-0.1,0-0.2,0-0.2C6.9,6,7,5.7,6.7,5.8c0,0-0.1-0.1,0-0.2c-0.2-0.1,0,0.1-0.1,0.1
						C6.3,5.7,6.4,5.1,6,5.1C5.6,4.9,5.5,5,5.2,4.9c0-0.1,0.2-0.1,0.2-0.1C5.3,4.6,5.2,4.5,5.1,4.5c0.1,0,0.1-0.1,0.1-0.2
						C5.1,4.3,5,4.4,4.9,4.3c0.1,0,0.2-0.1,0.3-0.1C5,4.1,4.8,4.1,4.7,4C4.8,3.9,4.9,4,5,4C4.8,3.9,4.6,3.7,4.4,3.8l0,0.1
						c0,0,0.1-0.1,0.1-0.1c0.2,0,0.1,0.2,0.1,0.2L4.6,4C4.4,4.3,4.9,4.3,5,4.4L4.8,4.5l0.3,0c0,0.1-0.1,0.2-0.2,0.2
						c0,0.2,0.2,0,0.2,0.2c0,0,0,0,0,0L5.2,5C5.1,5,5.1,5.2,5,5.1c0.1,0.3,0.4,0.2,0.4,0.4l0,0c0.3,0.2,0.2-0.1,0.5-0.1L5.7,5.8
						l0.2-0.1c0,0,0.1,0.1,0,0.1c0.2,0,0-0.1,0.2-0.1c0,0.3,0.4,0.3,0.2,0.5c0.1-0.1,0-0.2,0.2-0.1C6.2,6.4,6.6,6.3,6.6,6.5
						C6.5,6.6,6.4,6.4,6.5,6.6C6.7,6.5,6.6,6.9,6.8,7c0.2-0.2,0.3,0.2,0.5,0.3c-0.1,0,0.2,0.4,0.3,0.6l0,0C7.8,7.7,7.9,7.9,8.1,8
						C8,8.1,7.9,8.1,7.8,8.1l0.1,0.1c0.1,0,0.1,0,0.2,0L8,8.3c0.2,0.1,0.4,0.2,0.5,0.4C8.6,8.7,8.7,8.3,9,8.4
						C8.9,8.5,8.8,8.6,8.7,8.6c0,0,0.1,0,0.1,0.1l-0.2,0c0,0.1,0.1,0,0.2,0c-0.1,0.1,0,0.1-0.1,0.2c0,0,0-0.1-0.1-0.1
						C8.8,8.9,8.8,9,8.8,9.1c0-0.1,0.1-0.1,0.2-0.1c0.2,0.1-0.1,0.2,0,0.3c0.1,0,0.1,0.1,0.3,0c0,0,0,0.1,0,0.2
						c0.1,0,0.4,0.3,0.4,0.1l0,0c0,0,0,0,0,0c0,0,0,0,0,0l0,0c0.4,0.1,0.4,0.6,0.7,0.8l0,0c0.2,0.1,0.4,0.3,0.6,0.3c0,0,0,0.2,0,0.2
						c0.1,0.1,0.2,0,0.3,0.3c-0.2,0,0,0.1-0.2-0.1c0.1,0.2,0.1,0.3,0.3,0.3c-0.2,0.1,0,0.2,0.1,0.3l0-0.2c0.1,0.1,0.2,0.1,0.2,0.2
						l-0.2,0.1c0.1,0.5,0.8,0.2,0.8,0.8c0.2,0-0.1-0.2,0.1-0.3c0.1,0.2,0.1,0.5,0.1,0.6c0.1,0.3,0.4,0,0.5,0.2
						c0-0.1,0.1-0.2,0.3-0.1c0.1,0.2,0,0.4-0.2,0.3c0,0,0-0.1,0-0.1c-0.1,0-0.1-0.1-0.1,0l0.1,0c0,0.1,0.2,0.3,0.1,0.3
						c0.2,0.1,0.1,0,0.1-0.1c0.1,0.3,0.3,0.3,0.4,0.5c0-0.1,0-0.1,0.1-0.1c0.2,0.3,0.2,0,0.4,0.2c0,0.2-0.2,0.2,0,0.3
						c0.1,0.2-0.1,0.2-0.2,0.2c0.3,0.1,0.2,0.4,0.3,0.5L14,15c0.1,0,0.1,0.1,0.2,0.1l0.1-0.2c0,0.1,0.1,0.1,0,0.2
						c0.1,0,0.1-0.2,0.3-0.2c0,0.1,0.3,0.2,0.2,0.3c-0.2-0.3-0.1,0.2-0.3,0c0.1,0,0.1,0.1,0.1,0.1c0,0,0,0-0.1,0
						c0.1,0.3,0.3-0.1,0.5,0.2c-0.1,0.1-0.1,0.2,0,0.2c-0.1-0.1,0.1-0.2,0.2-0.2c0.1,0.2,0.2,0.1,0.3,0.2l-0.1-0.1
						c0.1-0.1,0.2,0,0.3,0.1c-0.1,0.1-0.1,0-0.1,0c0.2,0,0.1,0.4,0.3,0.4c0,0.1-0.1,0.2-0.1,0.2c0.3,0.1,0.1,0.3,0.3,0.4
						c0.1-0.2,0-0.1,0.2-0.1l-0.4-0.2l0.3,0c-0.1-0.1-0.2-0.1-0.3-0.2c0.2,0,0.1,0,0.2-0.1c0,0.3,0.3,0.1,0.4,0.4l-0.3,0.3
						c0.1,0.3,0.5,0.2,0.7,0.6l0-0.1c0.1-0.1,0.2,0.2,0.3,0.2c-0.1,0.1-0.1,0.2-0.1,0.3c0.1-0.1,0.2,0.2,0.4,0.1l0,0.2
						c0.2,0.3,0.5,0,0.7,0.2c-0.2,0-0.1,0.2-0.3,0.1c0.1,0.1,0.1,0.1,0.2,0.1c0,0.1,0.3,0.1,0.3,0.2c0.1,0,0.2-0.1,0.2,0
						c0,0,0,0,0,0c0,0,0.2,0.1,0.2-0.1c-0.1,0.5,0.6,0.6,0.6,1c0.2,0.1,0.4,0.3,0.5,0.4c0,0,0,0-0.1,0c0.1,0.3,0.4-0.1,0.5,0.2
						c0,0.2-0.2,0-0.2,0.1c-0.3,0.3,0.3,0.2,0.3,0.5l-0.1,0c0,0.2,0.4,0.2,0.5,0.4c0,0,0,0,0,0c0.3,0,0.6,0.2,0.8,0.3
						c-0.2,0.1-0.1,0-0.2,0.1c0.1,0.1,0.2-0.2,0.3-0.1c0,0.1,0,0.3-0.1,0.4l-0.2-0.1c-0.1,0.2,0.2,0.2,0.2,0.3l-0.1,0.1
						c0.2,0.2,0.4,0,0.7,0.3l0-0.1c0.3,0,0,0.2,0.3,0.2l-0.1,0.2c0.1,0,0.5,0.1,0.7,0.3c-0.2,0-0.5-0.1-0.7-0.1
						c0.1,0.1,0.3,0.3,0.4,0.2c-0.1,0-0.1,0-0.1-0.1c0.2,0,0.4,0,0.6,0.2c-0.4,0.3,0.4,0.5,0.2,0.9c0.4,0.2,0.6,0.7,0.9,1
						c0.1-0.4,0.1,0.1,0.4-0.2c0.1,0.1,0.1,0.1,0.1,0.1l0.1,0.4c0,0.1-0.1,0-0.2,0c0.2,0.2,0,0.2,0,0.4c0.1-0.1,0.2-0.1,0.3,0.1
						l0-0.3c0.4,0.1,0,0.4,0.4,0.6l-0.2,0c0.2,0.1,0.5,0.5,0.8,0.4c0,0.1-0.1,0.2-0.1,0.1c0.3,0.3,0.9,0.5,1,0.8l-0.1,0
						c0.1,0,0.2,0,0.2,0.1c0,0-0.1,0-0.1,0.1c0.1,0,0.3,0,0.3,0.2l-0.1,0c0.2,0.4,0.6,0.3,0.9,0.5c-0.2,0.2,0,0.5,0.1,0.6l0,0
						c0.3,0.4,0.8,0.4,1.2,0.7c0,0.4,0.6,0.8,0.8,1.2c0-0.1,0.2-0.1,0.2-0.1c0,0.1,0.3,0.1,0.2,0.2l0,0c-0.1,0.2,0.1,0.3,0.2,0.5
						l0.3-0.2c0,0.7,1,0.7,0.8,1.2c0.1,0,0.2,0.1,0.4,0.1L32.2,33c0.2,0.2,0.3,0.4,0.6,0.6l-0.1,0c0.1,0.2,0.5-0.2,0.7,0l-0.1,0.2
						c0.3,0.3,0.4,0.7,0.8,0.8c0,0-0.1,0.1-0.1,0c0.1,0.1,0.4,0.6,0.6,0.3c-0.2,0.2,0.3,0.3,0.5,0.4l-0.1,0.1c0.3,0,0.3-0.1,0.5,0
						c0,0.1-0.1,0.1-0.1,0c0.1,0.2,0.2,0,0.3,0.2l-0.1,0c0.1,0.1,0.2,0.1,0.3,0.1c0.1,0,0.2,0.3,0.1,0.4c0.1,0,0.3-0.1,0.3,0
						c0,0.1-0.1,0-0.1,0c0.1,0.3,0.5,0.2,0.5,0.5c0,0,0,0.1,0,0.1c-0.2-0.2-0.3-0.3-0.3-0.3c-0.1,0.1,0,0.3-0.3,0.3
						c0.2,0,0.6,0,0.7,0.2c0,0,0,0,0,0.1l0,0c0,0,0.1,0.1,0.1,0.1c0,0.1,0,0.1,0.1,0.2c-0.1,0.1,0.1,0.2,0.2,0.3
						c0.1-0.1,0.2,0,0.2-0.2c0,0,0,0-0.1,0c0,0,0,0,0,0c0,0,0,0,0,0c-0.1,0-0.1-0.1-0.2-0.2c0.1,0,0.2,0,0.2,0.2
						c0.1,0,0.2-0.1,0.3-0.1c-0.1,0.3,0,0.6-0.1,0.7c0.3,0.2,0.6,0.5,0.9,0.4c0.1,0,0,0.1,0,0.2c-0.1,0-0.1-0.1-0.2,0
						c0.2,0.1,0.4,0.4,0.6,0.2c0.1,0.2-0.2,0.1,0,0.3l-0.1,0c0.2,0.7,1.1,0.3,1.3,1.1c0-0.1,0-0.1,0-0.1c0.4,0.7,1.3,1,1.6,1.7
						c0.1,0.2,0.2,0.1,0.4,0.1l-0.1,0.2l0.3,0c0.3,0.1,0.1,0.7,0.6,0.8l0.1-0.1c0.1,0.1,0.4,0.3,0.3,0.4c0,0,0.1-0.1,0.1,0L43,43.2
						l0.4,0.1c0.1,0.2-0.3,0.2,0,0.5c0.1,0.1,0.5,0.1,0.5,0c0,0-0.1-0.2,0-0.2l0.1,0.1c0.2-0.2,0.5-0.3,0.4-0.7l-0.3,0l0-0.2
						l0.1,0.1c0-0.2-0.1-0.1-0.2-0.1c0-0.1,0.1-0.1,0-0.2l-0.4,0c0.1-0.1,0.2-0.1,0.2-0.2c-0.2,0-0.1,0.3-0.3,0.2
						c0-0.2,0.1-0.2-0.1-0.2c0-0.1,0.1-0.1,0.2-0.1c-0.1,0-0.2-0.2-0.4-0.1c0-0.2-0.3-0.2-0.1-0.4c-0.1,0-0.3,0-0.4-0.1
						c0.4-0.1-0.3-0.3,0-0.5c-0.3,0.1-0.5-0.3-0.8-0.3c0,0,0.1,0,0.1,0c-0.1-0.1-0.1-0.2-0.1-0.3c-0.2,0.2-0.4,0-0.6,0.1
						c0-0.3,0.3-0.1,0.4-0.3c-0.1,0.1-0.4-0.1-0.4,0.1c0-0.2,0-0.1,0.1-0.3c-0.2,0.2-0.1-0.1-0.3,0c0-0.2,0.2-0.2-0.1-0.3
						C41.1,39.5,41.3,39.6,41.3,39.6z M37.3,36.3C37.3,36.3,37.3,36.3,37.3,36.3C37.4,36.4,37.4,36.4,37.3,36.3
						C37.4,36.4,37.4,36.4,37.3,36.3z M37,36c0,0,0.1,0.1,0.1,0.1c0,0.1-0.1,0.1-0.1,0.1C37.1,36.2,37,36.1,37,36z M36.8,37.5
						c-0.1,0-0.1-0.1,0-0.1C36.8,37.5,36.8,37.5,36.8,37.5C36.9,37.5,36.9,37.5,36.8,37.5C36.9,37.5,36.8,37.5,36.8,37.5z"/>
					<path fill="#FFFFFF" d="M37.1,37.5C37.1,37.5,37.1,37.5,37.1,37.5C37.1,37.5,37.1,37.4,37.1,37.5C37.1,37.4,37,37.4,37.1,37.5
						C37,37.4,37,37.5,37.1,37.5z"/>
					<path fill="#FFFFFF" d="M9.6,9.6L9.6,9.6C9.6,9.6,9.6,9.6,9.6,9.6C9.6,9.6,9.6,9.6,9.6,9.6z"/>
					<polygon fill="#FFFFFF" points="33,31.6 33,31.6 33.1,31.6 					"/>
					<path fill="#FFFFFF" d="M8.3,7.5C8.3,7.5,8.3,7.5,8.3,7.5C8.3,7.5,8.3,7.5,8.3,7.5z"/>
					<path fill="#FFFFFF" d="M7.6,6.8L7.6,6.6C7.6,6.7,7.6,6.7,7.6,6.8z"/>
					<path fill="#FFFFFF" d="M7.1,6.2C7.1,6.2,7.1,6.2,7.1,6.2C7.1,6.2,7.1,6.2,7.1,6.2L7.1,6.2z"/>
					<path fill="#FFFFFF" d="M16.1,14.9C16.2,14.9,16.2,14.9,16.1,14.9C16.3,14.9,16.2,14.9,16.1,14.9z"/>
					<path fill="#FFFFFF" d="M13.2,12.5c0.1,0,0.1,0,0.1,0C13.3,12.5,13.3,12.5,13.2,12.5z"/>
					<path fill="#FFFFFF" d="M19.2,17.7C19.2,17.7,19.2,17.7,19.2,17.7C19.2,17.7,19.3,17.7,19.2,17.7L19.2,17.7z"/>
					<path fill="#FFFFFF" d="M13.5,12.7c0-0.1-0.1-0.1-0.1-0.1C13.4,12.6,13.4,12.7,13.5,12.7z"/>
					<path fill="#FFFFFF" d="M4.8,3.7L4.8,3.7C4.7,3.7,4.7,3.7,4.8,3.7L4.8,3.7z"/>
					<path fill="#FFFFFF" d="M4.7,3.7L4.7,3.7C4.7,3.7,4.7,3.7,4.7,3.7z"/>
					<path fill="#FFFFFF" d="M4.6,3.6L4.6,3.6C4.7,3.6,4.6,3.6,4.6,3.6z"/>
					<path fill="#FFFFFF" d="M5.5,4.5L5.5,4.5C5.5,4.4,5.5,4.5,5.5,4.5z"/>
					<path fill="#FFFFFF" d="M5.7,4.7c0-0.1,0-0.2-0.1-0.3l0,0C5.6,4.4,5.6,4.7,5.7,4.7z"/>
					<path fill="#FFFFFF" d="M6.1,6.2L5.9,6c0,0.1,0,0.2-0.1,0.1C5.9,6.4,5.8,5.9,6.1,6.2z"/>
					<path fill="#FFFFFF" d="M6.6,6.8C6.5,6.8,6.5,6.9,6.5,6.9C6.6,6.9,6.6,6.9,6.6,6.8z"/>
					<path fill="#FFFFFF" d="M10.8,11l-0.1,0.1C10.8,11.2,10.7,11.1,10.8,11z"/>
					<polygon fill="#FFFFFF" points="12.2,11.3 12.2,11.1 12,11.2 					"/>
					<polygon fill="#FFFFFF" points="11.9,12.5 11.8,12.5 12,12.6 					"/>
					<path fill="#FFFFFF" d="M19,19.6l0.1-0.2C19,19.4,18.9,19.5,19,19.6z"/>
					<path fill="#FFFFFF" d="M22.2,22.5c0,0.1,0,0.2,0.1,0.2C22.2,22.6,22.2,22.5,22.2,22.5z"/>
					<polygon fill="#FFFFFF" points="31.1,31.9 31,31.9 31.2,32 					"/>
				</g>
			</g>
		</g>
		<g>
			<g>
				<g>
					<path fill="#FFFFFF" d="M29.2,7.8c0,0,0-0.2,0-0.2L29,7.8L29.2,7.8z"/>
					<path fill="#FFFFFF" d="M28.7,7.3c-0.1,0.1-0.2,0.2-0.2,0.4c0.1-0.2,0.1-0.1,0.3-0.3c0.1,0,0.1,0.1,0.1,0.2
						c0,0,0.1,0.1,0.2-0.1c-0.1-0.2-0.2-0.2-0.4-0.1C28.6,7.4,28.7,7.4,28.7,7.3z"/>
					<path fill="#FFFFFF" d="M20.8,5.7L20.8,5.7C20.9,5.7,20.8,5.7,20.8,5.7z"/>
					<path fill="#FFFFFF" d="M16,4.5C16,4.6,16,4.5,16,4.5C16,4.5,16,4.5,16,4.5z"/>
					<path fill="#FFFFFF" d="M15.2,4.1C15.2,4.2,15.2,4.2,15.2,4.1C15.2,4.1,15.2,4.1,15.2,4.1z"/>
					<path fill="#FFFFFF" d="M20.8,5.7l-0.1-0.1C20.7,5.6,20.8,5.6,20.8,5.7z"/>
					<path fill="#FFFFFF" d="M27.5,7.7C27.5,7.7,27.6,7.6,27.5,7.7L27.5,7.7L27.5,7.7z"/>
					<path fill="#FFFFFF" d="M23,5.9L23,5.9C23.1,5.9,23.1,5.9,23,5.9L23,5.9z"/>
					<path fill="#FFFFFF" d="M24.7,6.2c0,0-0.1,0.2-0.1,0.2c0-0.1,0.1-0.1,0.1-0.1C24.7,6.3,24.7,6.2,24.7,6.2z"/>
					<path fill="#FFFFFF" d="M27.3,6.9L27.3,6.9C27.3,6.9,27.3,6.9,27.3,6.9z"/>
					<path fill="#FFFFFF" d="M21.8,5.6C21.8,5.6,21.8,5.6,21.8,5.6C21.8,5.6,21.8,5.6,21.8,5.6z"/>
					<path fill="#FFFFFF" d="M6.7,26C6.6,26,6.6,26,6.7,26C6.6,26,6.6,26,6.7,26z"/>
					<polygon fill="#FFFFFF" points="5.5,27.8 5.5,27.8 5.4,27.7 					"/>
					<path fill="#FFFFFF" d="M13.7,3.6L13.7,3.6C13.8,3.6,13.8,3.6,13.7,3.6z"/>
					<path fill="#FFFFFF" d="M0.6,1.9C0.7,1.7,1,2.3,1.1,2.1C1,2.1,0.6,1.6,0.6,1.9z"/>
					<path fill="#FFFFFF" d="M27.5,7.6C27.5,7.6,27.4,7.6,27.5,7.6C27.4,7.6,27.5,7.6,27.5,7.6z"/>
					<path fill="#FFFFFF" d="M1.1,2.1L1.1,2.1L1.1,2.1C1.1,2.1,1.1,2.1,1.1,2.1z"/>
					<path fill="#FFFFFF" d="M10.2,2.8C10.2,2.9,10.3,2.9,10.2,2.8C10.3,2.9,10.3,2.9,10.2,2.8z"/>
					<path fill="#FFFFFF" d="M12.8,3.7L12.8,3.7C12.7,3.7,12.8,3.7,12.8,3.7z"/>
					<path fill="#FFFFFF" d="M8.8,2.7C8.8,2.7,8.8,2.7,8.8,2.7L8.8,2.7C8.8,2.7,8.8,2.7,8.8,2.7z"/>
					<polygon fill="#FFFFFF" points="7.5,2.4 7.5,2.4 7.5,2.4 					"/>
					<path fill="#FFFFFF" d="M7,21.5c0,0-0.1,0-0.2,0.1C6.9,21.6,7,21.8,7,21.5z"/>
					<path fill="#FFFFFF" d="M27.5,7.6C27.5,7.6,27.5,7.6,27.5,7.6L27.5,7.6C27.5,7.6,27.5,7.6,27.5,7.6z"/>
					<path fill="#FFFFFF" d="M8.4,4.1L8.2,4C8.3,4,8.4,4,8.4,4.1z"/>
					<path fill="#FFFFFF" d="M5.5,11.1L5.5,11.1C5.5,11.1,5.5,11.1,5.5,11.1z"/>
					<path fill="#FFFFFF" d="M7.6,3.8c0-0.1-0.1-0.1-0.1-0.1c0,0,0,0,0,0L7.6,3.8z"/>
					<path fill="#FFFFFF" d="M6.8,21.6L6.8,21.6L6.8,21.6z"/>
					<path fill="#FFFFFF" d="M7.1,23.1c0-0.2-0.2-0.1-0.3-0.2c0-0.3,0.2-0.1,0.3-0.2c0-0.2-0.2-0.3-0.2-0.4c0,0,0.1,0,0.1,0
						c-0.2-0.2,0-0.5-0.2-0.7c0,0,0,0,0.1,0c-0.1,0-0.2,0-0.3,0c0-0.1-0.1-0.2,0-0.2c0,0.1,0.1,0.1,0.1,0.1l-0.1-0.1
						c0.2-0.1,0.1,0.1,0.2,0.1c-0.1-0.2-0.2-0.4-0.2-0.6c0.2,0,0.1,0.4,0.3,0.2l-0.1,0.2c0.3-0.2,0,0.1,0.3,0c0.1-0.3-0.1-0.4,0-0.7
						c-0.1-0.1-0.2,0-0.3,0c-0.2-0.4,0.5-0.4,0.3-0.7c-0.1-0.1-0.4-0.1-0.3-0.4L7,19.6c0-0.3-0.3-0.2-0.2-0.5
						c0.1,0.1,0.1,0.2,0.1,0.2c0.2-0.2-0.1-0.1-0.1-0.3L7,19c0-0.3-0.2-0.7-0.3-1c0.1,0,0.1,0.1,0.2,0c-0.2-0.4-0.1-1,0-1.4
						l-0.2-0.1c0,0,0.1-0.1,0.1,0c0-0.2-0.1,0-0.2-0.1c0-0.1,0.1-0.1,0.1-0.1c-0.2-0.3-0.4-0.8-0.3-1.2L6.5,15
						c0-0.3-0.4-0.2-0.3-0.5l0,0c0-0.5-0.3-1.1-0.2-1.6c-0.3,0,0-0.5-0.4-0.5c0.1-0.3,0.2-0.3,0.2-0.7c0-0.1-0.3-0.1-0.3-0.2
						l0.2-0.1l-0.2-0.1l0.2-0.2l-0.1-0.1c0,0.1,0,0.1-0.1,0.1c-0.1-0.2,0-0.5,0.1-0.6l-0.3-0.4c0.1,0,0.1,0.1,0.2,0.1
						c-0.3-0.2,0.2-0.1-0.1-0.3c0,0-0.1,0-0.2,0c0.1-0.2,0-0.4-0.1-0.6l0.1,0C5.1,9.2,4.9,8.8,4.7,8.4c0,0.2-0.2,0.2-0.3,0.1
						l0.2-0.1c-0.1,0,0,0.1-0.2,0c0-0.2,0.2-0.2,0.3-0.1L4.5,8.2c0.1,0,0.1,0,0.2,0c-0.1,0,0.1-0.4-0.2-0.4l0.1,0
						C4.5,7.4,4.3,7.2,4.2,6.9C4,7,4,6.8,3.9,6.8c0-0.2,0-0.6-0.1-0.8C3.6,5.8,3.6,6,3.5,5.9c0.1-0.1,0-0.3,0.2-0.2
						C3.5,5.4,3.4,5.3,3.2,4.9C3.1,5,3.1,5,3.1,5C3,5,3,4.8,3.1,4.8l0,0c-0.4-0.4,0-1.2-0.4-1.5l0,0L2.4,3c0-0.2,0.2,0.1,0.2-0.1
						C2.5,2.8,2.4,2.8,2.4,2.7c0,0,0-0.1,0-0.1c0-0.1,0-0.1-0.1-0.2c0.3,0,0.3,0,0.2,0c0,0-0.2-0.2,0.1,0L2.4,2.3
						C2.3,2.1,2.5,2.4,2.6,2.4C2.5,2.3,2.4,2.2,2.3,2.2c0.1,0,0.3,0.1,0.5,0.2C2.9,2.4,3,2.5,3.1,2.6c0.1,0.1,0,0.1,0.3,0.2
						C3.7,2.9,3.7,2.3,4,2.6L3.9,2.8c0.7-0.1,1.3,0.4,1.9,0.4c0,0-0.1,0.1-0.1,0.1c0.1,0.2,0.5,0.1,0.5,0c0.1,0,0,0.1,0,0.2
						c0.1,0.1,0.4-0.1,0.4,0.1c0,0,0,0-0.1,0c0.1,0,0.4,0.1,0.3-0.1c0.2,0.1,0.5,0,0.6,0.2c0.2-0.2,0.4,0.2,0.5-0.1
						C7.9,3.9,8.3,3.9,8.5,3.8C8.4,3.9,8.6,4,8.5,4.1c0.2,0,0.3,0,0.3-0.1C9,4.3,9.5,3.8,9.5,4.3c0.5,0,1,0,1.5,0
						c-0.1,0.3-0.5-0.1-0.5,0.2c0.4,0,0.7-0.2,1.1,0c0.1,0.1-0.1,0.1-0.1,0.1c0.4,0,0.8,0.2,1.2,0.2c0,0-0.1,0-0.1,0.1
						c0.1,0,0.2,0.1,0.2,0l-0.1,0c-0.1-0.2,0.4-0.3,0.4-0.4c-0.2,0.3,0.3,0.2,0,0.6c0.1,0,0.1-0.1,0.1-0.1c0.1,0,0.1,0.1,0,0.2
						c0.3,0,0.2-0.2,0.5-0.1c0,0.1-0.1,0.1-0.1,0.1C13.7,5,13.9,4.9,14.1,5c0,0,0,0.1-0.1,0.1c0.3,0.1,0.7-0.2,1,0
						c-0.2,0.2,0.1,0.1,0.1,0.3l0.2,0l-0.1-0.1c0.2,0,0.4-0.1,0.5,0l-0.2,0.1l0.3,0l-0.2-0.1C16,5.2,15.8,5,16,5.1
						c-0.1,0,0.2,0,0.2,0.2l0,0c0.1-0.1,0.2-0.1,0.3,0c0,0.1-0.1,0.2-0.1,0.3c0.1-0.2,0.4,0,0.6-0.1c0,0-0.1,0.2-0.1,0.2l0.1-0.1
						c0.1,0.1,0.1,0.1,0,0.2c0.2,0.1,0-0.3,0.2-0.1c0,0,0,0-0.1,0c0.3,0.1,0.6,0,0.8,0.2c0,0.2-0.2,0-0.2,0.2c0.4,0,0.9-0.1,1.2,0
						l-0.1,0c0.1-0.3,0.3,0.2,0.5,0.1c-0.1,0-0.1,0.2-0.1,0.1c0.3,0.1,0.5,0,1,0l-0.1,0.1c0.1,0.1,0.4,0.1,0.6,0.2
						c0.1-0.1,0.2,0,0.1-0.2c0.4,0.6,1-0.1,1.4,0.4c-0.1,0-0.1,0-0.1,0.1l0.4,0c0-0.1,0-0.1-0.1-0.2c0.1-0.1,0.2-0.1,0.3-0.1
						c-0.2,0.1,0,0.2,0,0.3c0,0,0-0.1,0-0.1c0.2,0.3,0.1-0.3,0.3-0.1l0,0.1c0.1,0,0.2-0.1,0.3-0.1c0,0.2-0.1,0.1-0.2,0.2
						c0.2,0,0.4-0.3,0.5-0.1c-0.1,0-0.2,0-0.2,0.1C24,6.9,24,6.9,24.1,6.9l0,0l0.3,0.1L24.3,7c0.3-0.4,0.4,0,0.7-0.2
						c-0.3,0.2-0.1,0.1-0.1,0.3C24.9,7.1,25,7.2,25,7.3c0.2-0.1,0.2,0.2,0.4,0c0,0.1,0.1,0,0.1,0.2c0.2,0,0-0.1,0-0.2
						c0.3-0.2,0.5,0.3,1,0.1c0.3-0.1,0.4-0.3,0.7-0.3c0.1,0.1-0.1,0.2-0.1,0.2c0.1,0.1,0.3,0.1,0.4,0.1c0,0,0,0.1,0,0.2
						c0.1,0,0.1-0.2,0.3-0.1c0,0.1-0.1,0.2-0.2,0.2c0.1,0,0.3-0.1,0.5-0.2c0,0.1-0.1,0.1-0.2,0.2c0.2,0,0.4,0,0.5-0.2l-0.1-0.1
						c0.1,0,0,0.1,0,0.2c-0.2,0.1-0.2-0.1-0.2-0.1l0.1,0c-0.1-0.4-0.4,0-0.6-0.1l0.1-0.2l-0.2,0.2c0-0.1,0-0.2,0.1-0.2
						c-0.1-0.1-0.1,0.1-0.3-0.1c0,0,0,0,0,0L27.1,7c0,0,0-0.2,0.1-0.1c-0.2-0.2-0.5,0.1-0.5-0.1l0,0c-0.4,0-0.1,0.2-0.4,0.4
						l-0.1-0.5l-0.1,0.2c0,0-0.1,0-0.1-0.1c-0.2,0.1,0,0.1-0.1,0.2c-0.2-0.2-0.5,0-0.5-0.3c-0.1,0.1,0.2,0.1-0.1,0.2
						c0-0.3-0.2,0-0.4-0.2c0.1-0.2,0.2,0,0.1-0.2c-0.1,0.3-0.3-0.1-0.5-0.1c0,0.2-0.3,0-0.6,0.1c0-0.1-0.4-0.2-0.6-0.3l0,0
						c-0.1,0.2-0.3,0.1-0.5,0.1c0-0.1,0.1-0.2,0.2-0.2l-0.2,0C23,6,23,6,22.8,6l0.1-0.2c-0.2,0-0.4,0.1-0.7,0c0,0.2,0.1,0.5-0.2,0.5
						c0-0.1,0-0.2,0.1-0.3c0,0-0.1,0.1-0.1,0L22.2,6C22.1,5.9,22.1,6.1,22,6c0-0.1-0.1-0.1,0-0.2c0,0,0.1,0.1,0.1,0
						c-0.1,0-0.2-0.1-0.2-0.2c0,0.1,0,0.2-0.1,0.2c-0.2,0,0-0.2-0.1-0.2c-0.1,0.1-0.2,0-0.2,0.1c-0.1,0-0.1-0.1-0.1-0.2
						c-0.1,0.1-0.5-0.1-0.4,0.1l0,0l0,0l0,0l0,0c-0.4,0.1-0.7-0.2-1-0.2l0-0.1c-0.2,0-0.5-0.1-0.6,0c-0.1,0-0.1-0.1-0.1-0.2
						c-0.2,0-0.2,0.1-0.4-0.1c0.2-0.1,0-0.1,0.2,0c-0.2-0.1-0.2-0.2-0.5-0.1c0.1-0.1-0.1-0.2-0.2-0.2L18.4,5c-0.1,0-0.2,0-0.3-0.1
						l0.1-0.2c-0.4-0.3-0.8,0.3-1.1-0.2c-0.1,0.1,0.2,0.1,0.1,0.3c-0.2-0.1-0.3-0.4-0.4-0.4c-0.2-0.2-0.3,0.2-0.6,0.1
						c0,0.1,0,0.3-0.2,0.3c-0.2-0.1-0.2-0.3,0-0.4c0,0,0.1,0,0.1,0.1c0.1,0,0.2,0,0.1-0.1l0,0.1c-0.1-0.1-0.3-0.1-0.3-0.2
						c-0.2,0-0.1,0.1,0,0.2c-0.2-0.2-0.4-0.1-0.6-0.2c0,0,0,0.1,0,0.1c-0.3-0.2-0.2,0.1-0.4,0.1c-0.1-0.1,0.1-0.2-0.2-0.2
						c-0.1-0.1,0-0.2,0.1-0.2c-0.3,0.1-0.4-0.2-0.5-0.2l0.1,0c-0.1,0-0.1,0-0.2,0l0,0.2c-0.1,0-0.1-0.1-0.1-0.1
						c-0.1,0.1,0,0.2-0.2,0.3c-0.1-0.1-0.3,0-0.3-0.2c0.3,0.1,0-0.2,0.3-0.2c-0.1,0-0.1,0-0.2,0c0,0,0,0,0,0
						c-0.2-0.2-0.2,0.2-0.5,0.1c0.1-0.1,0-0.2-0.1-0.2c0.1,0,0,0.2-0.1,0.2c-0.2-0.1-0.2,0-0.3,0l0.1,0.1c-0.1,0.1-0.2,0.1-0.3,0.1
						c0-0.1,0.1,0,0.1-0.1c-0.2,0.2-0.3-0.3-0.5-0.2c-0.1-0.1,0-0.2,0-0.3c-0.3,0.1-0.2-0.2-0.5-0.1c0,0.2,0.1,0.1-0.1,0.2l0.4,0
						l-0.3,0.1c0.1,0,0.3,0,0.3,0c-0.1,0.1-0.1,0.1-0.1,0.2c-0.1-0.3-0.3,0-0.5-0.1l0.1-0.4c-0.2-0.2-0.5,0.1-0.9-0.1l0.1,0.1
						c-0.1,0.1-0.2,0-0.4,0c0-0.1,0-0.2-0.1-0.3c0,0.1-0.3-0.1-0.4,0.2L9.8,2.9C9.5,2.7,9.4,3.1,9.1,3c0.1-0.1,0-0.2,0.2-0.3
						c-0.1,0-0.2-0.1-0.2,0c0-0.1-0.3,0.1-0.4,0c-0.1,0-0.1,0.2-0.2,0.1c0,0,0-0.1,0-0.1c0,0.1-0.2,0-0.1,0.2
						c-0.2-0.4-0.8-0.2-1-0.6c-0.2,0-0.5,0-0.7-0.1c0,0,0-0.1,0,0C6.6,2.1,6.6,2.6,6.4,2.4C6.3,2.2,6.5,2.3,6.5,2.2
						c0.1-0.4-0.4,0-0.5-0.3l0.1,0c-0.1-0.2-0.4,0-0.6-0.1c0,0,0,0,0-0.1C5.2,1.9,4.9,1.9,4.6,1.9c0.1-0.1,0.1,0,0.1-0.2
						c-0.1,0,0,0.3-0.3,0.2c0-0.1-0.2-0.2-0.1-0.4l0.2,0c0-0.2-0.3-0.1-0.3-0.1l0-0.1C3.9,1.3,3.8,1.5,3.5,1.4l0,0.1
						C3.3,1.7,3.4,1.3,3.1,1.4L3.1,1.1c-0.2,0-0.5,0.1-0.7,0.1C2.4,1,2.7,1,2.9,1c-0.2-0.1-0.6-0.2-0.6,0c0.1,0,0.1-0.1,0.2,0
						C2.4,1.1,2.2,1.1,1.9,1.1C1.8,0.8,1.6,0.7,1.3,0.6C1,0.5,0.8,0.4,0.4,0.1C0.3,0.1,0.2,0,0,0c0,0.1,0.1,0.3,0.1,0.4
						c0.1,0.3,0.1,0.6,0.3,1c0.4,0,0.1,0.2,0.6,0.4C1.1,2,1.1,2.1,1.1,2.1C1.1,2,1,2.5,1,2.5C0.9,2.6,0.8,2.3,0.8,2.3
						c0.1,0.4-0.1,0.2-0.1,0.5C0.8,2.7,0.9,2.9,1,3.2c0,0,0-0.4,0-0.4C1.1,3,1.1,3,1.2,3.1c0,0.1,0,0.1,0,0.2c0,0.1-0.1,0.2,0.1,0.3
						L1,3.6c0.1,0.1,0.2,0.6,0.6,0.7c0,0-0.1,0.1-0.2,0.1c0.1,0.4,0.7,0.8,0.6,1.2L2,5.5C2,5.6,2.2,5.6,2.1,5.7c0,0-0.1,0-0.1,0
						c0,0,0.2,0.1,0.2,0.3l-0.1,0c0,0.4,0.5,0.5,0.7,0.8C2.5,6.9,2.6,7.2,2.6,7.4l0,0c0.1,0.5,0.5,0.7,0.8,1.1
						C3.1,8.9,3.5,9.4,3.5,9.9c0-0.1,0.2-0.1,0.3,0c0,0.1,0.3,0.2,0,0.3l0,0c-0.2,0.2-0.1,0.3,0,0.5l0.3-0.1
						c-0.3,0.6,0.5,1.1,0.2,1.4c0.1,0.1,0.1,0.2,0.3,0.3l-0.2,0c0,0.3,0,0.4,0.2,0.8l-0.1,0c0,0.2,0.6,0.1,0.6,0.3l-0.2,0.1
						c0.1,0.3-0.1,0.8,0.2,1.1c0,0-0.1,0-0.1,0c0,0.2,0,0.7,0.3,0.5c-0.2,0,0.1,0.4,0.2,0.5l-0.2,0c0.2,0.1,0.3,0.1,0.4,0.3
						c0,0.1-0.1,0.1-0.1,0c-0.1,0.2,0.2,0.1,0.1,0.3l-0.1-0.1c0,0.2,0.1,0.2,0.2,0.2c0.1,0.1,0,0.4-0.1,0.4c0.1,0,0.2,0.1,0.2,0.2
						c-0.1,0-0.1,0-0.1,0c-0.1,0.3,0.2,0.4,0.1,0.7c-0.1,0-0.1,0-0.1,0c0-0.2,0-0.4,0-0.4c-0.2,0-0.2,0.2-0.4,0.1
						c0.1,0.1,0.4,0.4,0.4,0.6c0,0,0,0-0.1,0l0,0c0,0,0,0.1,0,0.1c0,0.1,0,0.1,0,0.2c-0.1,0-0.1,0.2-0.1,0.3c0.2,0,0.1,0.1,0.3,0
						c0,0,0,0,0-0.1c0,0,0,0,0,0l0,0c0-0.1,0-0.2,0-0.2c0.1,0.1,0.2,0.2,0.1,0.3c0.1,0,0.2,0.1,0.3,0.1c-0.2,0.2-0.4,0.4-0.5,0.5
						c0.1,0.3,0.1,0.7,0.4,0.9c0,0.1-0.1,0.1-0.1,0.1c0-0.1,0-0.1-0.1-0.1c0.1,0.2,0,0.5,0.3,0.6c-0.1,0.2-0.2-0.1-0.2,0.2l-0.1,0
						c-0.4,0.6,0.6,1,0.1,1.6c0,0,0-0.1,0.1-0.1c-0.2,0.7,0.1,1.6-0.3,2.3c-0.1,0.2,0.1,0.2,0.1,0.4l-0.2,0l0.2,0.2
						c0.1,0.3-0.5,0.5-0.3,0.9l0.1,0c0,0.1,0,0.5-0.1,0.4c0,0,0.1,0.1,0,0.1l-0.1,0L5.5,27c-0.1,0.3-0.4-0.1-0.5,0.3
						c0,0.2,0.2,0.5,0.3,0.4c0-0.1,0.1-0.1,0.2-0.1l0,0.1C5.8,27.8,6,28,6.3,27.7l-0.1-0.3l0.1-0.1l0,0.2c0.1-0.1,0-0.2,0-0.3
						c0.1,0,0.1,0,0.2-0.1L6.2,27c0.1,0,0.2,0.1,0.3,0c-0.1-0.1-0.3,0.1-0.3-0.1c0.1-0.1,0.2,0,0.2-0.2c0.1,0,0.1,0,0.1,0.1
						c-0.1-0.1,0-0.3-0.1-0.4c0.2-0.1,0-0.4,0.3-0.3c-0.1,0-0.2-0.2-0.2-0.3c0.3,0.2,0.1-0.4,0.4-0.3c-0.3-0.2-0.1-0.5-0.2-0.8
						c0,0,0.1,0.1,0,0.1c0-0.1,0.1-0.2,0.2-0.3c-0.2,0-0.3-0.3-0.4-0.4C6.7,23.7,6.8,24,7,24c-0.2,0-0.2-0.3-0.3-0.3
						c0.2-0.1,0.1-0.1,0.3-0.2c-0.3-0.1,0-0.1-0.2-0.3c0.2-0.2,0.3,0,0.2-0.3C7,22.9,7.1,23.1,7.1,23.1z M6.6,17.9L6.6,17.9
						c0,0,0,0.1,0,0.1C6.6,18,6.6,18,6.6,17.9z M6.6,17.5c0,0.1,0,0.1,0,0.2c-0.1,0-0.1,0-0.1,0C6.5,17.7,6.5,17.6,6.6,17.5z
						 M5.5,18.5c0-0.1,0-0.1,0-0.1C5.5,18.4,5.5,18.5,5.5,18.5L5.5,18.5C5.5,18.5,5.5,18.5,5.5,18.5z"/>
					<path fill="#FFFFFF" d="M5.7,18.6C5.7,18.6,5.7,18.6,5.7,18.6C5.7,18.6,5.7,18.6,5.7,18.6L5.7,18.6L5.7,18.6z"/>
					<path fill="#FFFFFF" d="M20.9,5.7L20.9,5.7C20.9,5.7,20.9,5.7,20.9,5.7C20.9,5.7,20.9,5.7,20.9,5.7z"/>
					<polygon fill="#FFFFFF" points="5.7,11.5 5.7,11.5 5.7,11.6 					"/>
					<path fill="#FFFFFF" d="M23.1,6.7C23.1,6.7,23.1,6.7,23.1,6.7C23.1,6.8,23.1,6.7,23.1,6.7z"/>
					<path fill="#FFFFFF" d="M24.1,6.9L24.2,7C24.2,7,24.1,6.9,24.1,6.9z"/>
					<path fill="#FFFFFF" d="M24.9,7.2C24.9,7.1,24.9,7.1,24.9,7.2L24.9,7.2L24.9,7.2z"/>
					<path fill="#FFFFFF" d="M12.6,4.9C12.6,4.9,12.5,4.9,12.6,4.9C12.5,4.9,12.5,4.9,12.6,4.9z"/>
					<path fill="#FFFFFF" d="M16.3,5.3c0,0-0.1,0-0.1,0.1C16.2,5.4,16.3,5.4,16.3,5.3z"/>
					<polygon fill="#FFFFFF" points="8.5,4.1 8.5,4.1 8.4,4.1 					"/>
					<path fill="#FFFFFF" d="M16,5.3c0.1,0,0.1,0.1,0.2,0C16.1,5.3,16,5.3,16,5.3z"/>
					<path fill="#FFFFFF" d="M28.2,7.8L28.2,7.8C28.2,7.8,28.2,7.8,28.2,7.8L28.2,7.8z"/>
					<path fill="#FFFFFF" d="M28.3,7.8L28.3,7.8C28.3,7.8,28.3,7.8,28.3,7.8z"/>
					<path fill="#FFFFFF" d="M28.4,7.7L28.4,7.7C28.3,7.8,28.4,7.8,28.4,7.7z"/>
					<path fill="#FFFFFF" d="M27.2,7.5L27.2,7.5C27.2,7.6,27.2,7.6,27.2,7.5z"/>
					<path fill="#FFFFFF" d="M26.9,7.5c0.1,0,0.2,0.2,0.3,0.1l0,0C27.1,7.7,27,7.4,26.9,7.5z"/>
					<path fill="#FFFFFF" d="M25.7,6.5L26,6.6c0-0.1-0.1-0.2,0-0.2C25.7,6.2,26,6.6,25.7,6.5z"/>
					<path fill="#FFFFFF" d="M24.9,6.3c0.1,0,0-0.1,0-0.1C24.8,6.2,24.8,6.2,24.9,6.3z"/>
					<path fill="#FFFFFF" d="M19.1,5.2l0-0.2C19,5,19.1,5.1,19.1,5.2z"/>
					<polygon fill="#FFFFFF" points="17.8,5.8 17.9,5.9 18,5.8 					"/>
					<polygon fill="#FFFFFF" points="17.4,4.5 17.5,4.5 17.3,4.5 					"/>
					<path fill="#FFFFFF" d="M7.7,2.3l0,0.2C7.8,2.5,7.9,2.3,7.7,2.3z"/>
					<path fill="#FFFFFF" d="M3.6,1.3c0-0.1-0.2-0.2-0.3-0.2C3.4,1.2,3.5,1.3,3.6,1.3z"/>
					<polygon fill="#FFFFFF" points="3.9,10.9 3.8,10.8 3.9,11 					"/>
				</g>
			</g>
		</g>
	</g>
</g>
</svg>
