<?xml version="1.0" encoding="utf-8"?>
<!-- Generator: Adobe Illustrator 18.0.0, SVG Export Plug-In . SVG Version: 6.00 Build 0)  -->
<!DOCTYPE svg PUBLIC "-//W3C//DTD SVG 1.1//EN" "http://www.w3.org/Graphics/SVG/1.1/DTD/svg11.dtd">
<svg version="1.1" id="Layer_1" xmlns="http://www.w3.org/2000/svg" xmlns:xlink="http://www.w3.org/1999/xlink" x="0px" y="0px"
	 viewBox="0 0 250.6 29" enable-background="new 0 0 250.6 29" xml:space="preserve">
<g>
	<g>
		<g>
			<g>
				<g>
					<path fill="#FFFFFF" d="M250.5,0.1c-0.1-0.1-0.4-0.1-0.4,0.4c0,0,0.1,0.1,0.2,0.2c0.1,0.1,0.2,0.2,0.2,0.2L250.5,0.1z"/>
					<path fill="#FFFFFF" d="M249,2.6c0,0.5,0,1.2,0.6,1.2c-0.1-0.7,0.1-0.7-0.2-1.4c0.1-0.4,0.4-0.6,0.5-0.5
						c-0.1-0.2,0.3-0.6,0-0.9c-0.2,0.2-0.4,0.5-0.5,0.8c-0.1,0.3-0.1,0.6-0.2,1C249.2,2.8,249.1,2.6,249,2.6z"/>
					<path fill="#FFFFFF" d="M213.7,10.4l0.2,0C213.9,10.4,213.8,10.4,213.7,10.4z"/>
					<path fill="#FFFFFF" d="M190.6,10.4c0.2,0,0.2-0.1,0.3-0.1C190.7,10.3,190.6,10.3,190.6,10.4z"/>
					<path fill="#FFFFFF" d="M186.7,9.9c0.1,0,0.2,0,0.2,0C186.8,9.9,186.7,9.8,186.7,9.9z"/>
					<path fill="#FFFFFF" d="M213.7,10.4l-0.6-0.1C213.1,10.4,213.4,10.4,213.7,10.4z"/>
					<path fill="#FFFFFF" d="M245.9,7.1c0.1-0.1,0.2-0.2,0.3-0.3C246.1,6.9,246,7,245.9,7.1C245.9,7.1,245.9,7.1,245.9,7.1z"/>
					<path fill="#FFFFFF" d="M223.9,9.5l0.2,0c0.1-0.1,0.1-0.1,0.1-0.2L223.9,9.5z"/>
					<path fill="#FFFFFF" d="M231.6,8.7c-0.2,0-0.2,0.4-0.2,0.6c0.1-0.2,0.2-0.3,0.3-0.3C231.7,8.9,231.7,8.8,231.6,8.7z"/>
					<path fill="#FFFFFF" d="M243.6,6.5l0.2-0.1C243.7,6.4,243.6,6.4,243.6,6.5z"/>
					<path fill="#FFFFFF" d="M218.3,9.8c0-0.1,0-0.1-0.1-0.1C218.2,9.7,218.3,9.7,218.3,9.8z"/>
					<path fill="#FFFFFF" d="M6.2,8.4C6.2,8.4,6.2,8.4,6.2,8.4C6.2,8.3,6.1,8.4,6.2,8.4z"/>
					<path fill="#FFFFFF" d="M1.7,0.1l0,0.1c0.1,0,0.2,0,0.2,0L1.7,0.1z"/>
					<path fill="#FFFFFF" d="M179.4,9.4C179.4,9.4,179.4,9.4,179.4,9.4C179.6,9.3,179.5,9.3,179.4,9.4z"/>
					<path fill="#FFFFFF" d="M120.4,14.8c0.6,0.7-1.4-0.1-0.4,0.7C119.9,15.3,121.2,15.4,120.4,14.8z"/>
					<path fill="#FFFFFF" d="M245.7,7.2c-0.1,0.1-0.2,0.1-0.3,0.2C245.6,7.3,245.7,7.2,245.7,7.2z"/>
					<path fill="#FFFFFF" d="M119.9,15.5L119.9,15.5L119.9,15.5C120,15.6,120,15.6,119.9,15.5z"/>
					<path fill="#FFFFFF" d="M162.7,9.9c0,0.1,0.1,0.1,0.2,0.2C162.9,10,162.8,10,162.7,9.9z"/>
					<path fill="#FFFFFF" d="M175.2,10.2l-0.3-0.1C175,10.2,175.1,10.2,175.2,10.2z"/>
					<path fill="#FFFFFF" d="M156.3,10.7c-0.2,0-0.2-0.1-0.5,0c0,0,0,0,0.1,0C156,10.7,156.1,10.7,156.3,10.7z"/>
					<path fill="#FFFFFF" d="M149.5,11.3c0,0,0.1,0,0.1,0.1c0.1,0,0.1,0,0.2,0L149.5,11.3z"/>
					<path fill="#FFFFFF" d="M26.8,12.2c-0.1-0.1-0.2-0.3-0.3-0.4C26.6,12.1,25.6,12.2,26.8,12.2z"/>
					<path fill="#FFFFFF" d="M245.8,6.9c0,0.1,0,0.2-0.1,0.3c0.1,0,0.1-0.1,0.2-0.1C245.9,7,245.9,6.9,245.8,6.9z"/>
					<path fill="#FFFFFF" d="M156.2,13.9l-1.1,0C155.4,14,155.8,14,156.2,13.9z"/>
					<path fill="#FFFFFF" d="M75,13l-0.2,0C74.9,13,74.9,13,75,13z"/>
					<path fill="#FFFFFF" d="M152,14.2c-0.2-0.1-0.4-0.2-0.6-0.2c0,0-0.1,0.1-0.1,0.1L152,14.2z"/>
					<path fill="#FFFFFF" d="M26.5,11.8L26.5,11.8L26.5,11.8z"/>
					<path fill="#FFFFFF" d="M19.3,12.1c1,0.2,0.5-0.4,0.8-0.7c1.2,0,0.5,0.5,0.9,0.8c0.8-0.1,1.4-0.5,2-0.4c0,0.1,0.1,0.1,0,0.2
						c0.8-0.3,2.4,0.2,3.4-0.3c0.1,0.1,0.1,0.1,0.1,0.1c-0.1-0.3-0.1-0.5-0.1-0.7c0.5,0,0.9-0.3,1,0.1c-0.3,0-0.3,0.1-0.5,0.2
						l0.5-0.1c0.4,0.5-0.7,0.1-0.7,0.5c0.9-0.1,2.1-0.4,2.8-0.2c0.1,0.5-1.7,0.1-0.8,0.5l-1.1-0.3c0.8,0.8-0.7-0.1,0.1,0.8
						c1.5,0.2,1.7-0.1,3.1,0.1c0.3-0.3-0.1-0.4,0.3-0.7c2.1-0.4,1.6,1.3,3.1,0.7c0.4-0.3,0.6-0.9,1.7-0.6l-0.4,0.5
						c1.4,0.1,0.8-0.8,2.3-0.3c-0.3,0.2-1.1,0.1-0.9,0.2c0.9,0.5,0.7-0.3,1.4-0.3l0.1,0.5c1.5,0,3.2-0.3,4.8-0.4
						c-0.1,0.1-0.4,0.3,0,0.4c2.1-0.2,4.5,0.1,6.5,0.4l0.8-0.4c0.2,0,0.3,0.2,0.1,0.3c0.8,0.2,0-0.3,0.4-0.4c0.4,0,0.6,0.2,0.3,0.4
						c1.4-0.3,4-0.8,5.4-0.3l-0.3,0.1c1.1,0.2,1.3-0.9,2.3-0.5l-0.2,0.1c2.5,0.2,5.2-0.2,7.1,0.4c0.4-0.6,2.4,0.3,2.6-0.6
						c1.4,0.4,1,0.6,3,0.9c0.5,0,0.8-0.5,1.4-0.6l0,0.4l0.9-0.5l0.5,0.5l0.6-0.1c-0.2,0-0.5-0.2-0.5-0.3c1-0.2,2.3,0.3,2.4,0.6
						l2.3-0.3c-0.1,0.2-0.4,0.2-0.7,0.3c1.2-0.4,0.2,0.5,1.3,0.1c-0.1-0.1,0.1-0.3,0.1-0.4c0.5,0.3,1.8,0.3,2.7,0.2l-0.2,0.3
						c1.7,0.1,3.5-0.1,5.4,0c-0.7-0.2-0.5-0.7,0.1-0.7l0.2,0.5c0.4-0.3-0.6-0.2,0.2-0.5c0.7,0.1,0.5,0.5,0,0.7l0.9-0.1
						c0,0.1-0.2,0.2-0.2,0.4c0.4-0.3,1.5,0.5,2,0l0,0.1c1.9,0.1,2.7,0,4.3,0c0.1-0.4,0.6-0.3,1.1-0.6c1.1,0.2,2.3,0.6,3.7,0.7
						c1-0.1,0.3-0.3,0.8-0.5c0,0.4,1.4,0.5,0.7,0.7c1.6,0.1,2.1,0.1,4.1,0.1c-0.2-0.2-0.4-0.3-0.3-0.4c0.4,0,0.8,0.3,0.7,0.4l-0.1,0
						c2.4-0.3,5,1.9,6.9,1.5l-0.1,0c0,0,0.5,0,0.9,0c0.5,0,1,0,1,0c0.8,0.3-0.6,0.1,0,0.5c2.1-0.1,2.9,1,4.5,1.2
						c0.3,0.7,1.3,1.2,2.2,1.7c0.5,0.3,0.9,0.6,1.2,0.9c0.1,0.1,0.1,0.2,0.2,0.3c0.2,0.2,0.3,0.4,0.4,0.6c0.1,0.1,0.1,0.2,0.2,0.3
						c0.1,0.1,0.1,0.3,0.1,0.5c0.1,0.4,0.2,0.7,0.2,1.1l0.1-0.6c0.5,0.8,0.4,1.5,0.6,2.8c0-0.3-0.1-0.8-0.1-1.1
						c0-0.3-0.1-0.5,0.1-0.3c0.3,1,0.6,1.9,0.9,2.9c0.2,0.8,0.4,1.6,0.6,2.4l0.4-1.4l0.4-1.4l0.5-1.7c0.1-0.3,0.2-0.6,0.3-0.8
						l0.2-0.7l0.5-1.4c0.1-0.3,0.2-0.4,0.3-0.6c0.1-0.1,0.2-0.3,0.4-0.4l0.2-0.2l0.1-0.1c0.1-0.1,0.1-0.1,0.2-0.2l0.4-0.3
						c1.1-0.8,2.5-1.3,3.9-1.8c1.3-0.4,0.2-1.5,2.1-1.5l-0.3,0.6c2.5-1.4,5.6-1.4,8.3-2.4c-0.2,0.1-0.1,0.3-0.4,0.3
						c0.6,0.2,2.2-0.3,2.2-0.6c0.4,0,0.1,0.2,0.4,0.3c0.6,0.1,1.4-0.6,1.8-0.3c0.1,0-0.2,0.1-0.3,0.2c0.4-0.2,1.8-0.2,1.4-0.5
						c1.1,0.1,2-0.4,2.9-0.2c0.5-0.5,1.8,0.1,2-0.6c0,0.6,1.9,0.4,2.6,0c-0.2,0.2,0.6,0.2,0.4,0.5c0.8-0.1,1.5-0.2,1.3-0.5
						c1.5,0.7,2.8-0.8,3.7,0.2c2.3-0.4,4.4-0.7,6.5-0.9c-0.1,0.6-2.3,0.1-2.2,0.8c2-0.3,3.1-0.9,5.1-0.8c0.5,0.1-0.3,0.3-0.5,0.4
						c2-0.3,3.8,0,5.6-0.4c0,0.1-0.2,0.1-0.4,0.2c0.3,0,0.8,0.1,0.8-0.2l-0.3,0.1c-0.6-0.4,1.4-0.9,1.4-1.1
						c-0.6,0.8,1.7,0.2,0.8,1.3c0.2-0.1,0.5-0.2,0.5-0.4c0.3,0.1,0.4,0.2,0.1,0.4c1.2-0.2,0.8-0.5,1.9-0.5c0,0.1-0.2,0.2-0.3,0.4
						c0.6-0.3,1.1-0.6,2.1-0.4c-0.1,0.1,0.1,0.2-0.2,0.2c1.6,0,2.8-0.7,4.6-0.5c-0.5,0.6,0.6,0.2,0.7,0.7l1-0.2l-0.4-0.3
						c0.8,0,1.6-0.4,2.3-0.2l-0.6,0.2l1.6-0.1l-0.9-0.2c0.9-0.3-0.1-0.7,1-0.5c-0.2,0.1,0.8,0,1.3,0.3l0,0c0.4-0.2,0.8-0.4,1.5-0.2
						c0.2,0.2-0.1,0.6,0,0.7c0.4-0.4,2-0.1,2.5-0.6c-0.2,0.1-0.2,0.4-0.1,0.5l0.3-0.4c0.4,0.1,0.4,0.2,0.4,0.4
						c1.2,0.1-0.4-0.7,1-0.4c-0.1,0-0.1,0.1-0.3,0.1c1.4,0.1,2.7-0.2,4-0.1c0.4,0.5-1.1,0.1-0.7,0.6c1.9-0.1,3.9-0.7,5.7-0.6
						l-0.3-0.1c0.2-0.8,1.3,0.4,2.3,0c-0.2,0.1-0.3,0.4-0.2,0.3c1.2,0.1,2.5-0.2,4.4-0.5l-0.2,0.2c0.7,0.2,1.9,0,2.7,0.1
						c0.2-0.2,0.7-0.2,0.4-0.5c2.5,1,4.6-0.8,6.8,0c-0.3,0-0.6,0.2-0.4,0.2l1.8-0.3c-0.2-0.3-0.3-0.2-0.7-0.4
						c0.2-0.2,0.7-0.4,1.2-0.4c-0.8,0.3,0,0.5,0.4,0.7c-0.1-0.1,0-0.2,0-0.3c1,0.5,0.1-0.7,1.4-0.4l-0.1,0.2
						c0.5-0.1,0.9-0.4,1.4-0.4c0.3,0.4-0.5,0.2-0.5,0.5c0.7-0.1,1.4-0.9,2.1-0.6c-0.3,0.1-0.8,0.2-1.1,0.3c0.8,0.4,0.8,0.2,1.4,0.3
						l-0.1,0l1.3,0.1l-0.3-0.1c0.8-1.1,1.9-0.4,3-1.3c-1.1,0.8-0.1,0.4-0.2,0.8c0.3,0.1,0.8,0.1,0.7,0.3c0.5-0.4,1,0.1,1.8-0.6
						c0.1,0.1,0.6-0.1,0.6,0.3c0.7-0.3-0.2-0.2-0.2-0.4c1.1-0.7,2.9,0,4.4-1.1c1.4-0.7,1.5-1.2,2.6-2c0.5,0-0.2,0.6-0.2,0.6
						c0.8-0.1,1.3-0.4,1.9-0.9c-0.1,0.2,0.1,0.2,0.4,0.2c0.5-0.3,0.1-0.6,0.8-0.9c0,0.2,0,0.5-0.2,0.8c0.5-0.5,1-1.1,1.4-1.7
						c0.3,0.1-0.1,0.6-0.2,0.9c0.6-0.6,1.5-1.7,1.3-2.1c0,0-0.4,0.3-0.4,0.3c0.2-0.2,0.4,0.1,0.3,0.3c-0.1,0.4-0.3,0.5-0.5,0.6
						c-0.2,0-0.4,0-0.4,0c0,0,0.3-0.4,0.3-0.4c-0.5-0.1-0.8,0.2-1.2,0.7c-0.4,0.4-0.8,1-1.2,1.2c0,0,0-0.2,0-0.4c0-0.2,0-0.4,0-0.4
						s-0.2,0.2-0.3,0.5c-0.2,0.2-0.3,0.5-0.3,0.5c-0.3,0-0.5-0.3-0.2-0.6c-0.7,0.1-0.5,0.5-1.1,0.4c-0.1,0-0.1-0.1,0-0.1L243,6.9
						c0.1-0.2-0.3-0.3,0.1-0.4c-1.2,0.1-1.7,1.1-2.3,0.8l0.1-0.1c-1.6,0.7,0,0.5-1.1,1.3l-1.1-0.8l-0.1,0.5c-0.2,0-0.5,0.1-0.5-0.1
						c-0.6,0.4,0.2,0.2-0.2,0.5c-0.9-0.2-2.2,0.7-2.6,0c-0.2,0.4,0.8,0.1,0,0.5c-0.4-0.7-1,0.3-1.8,0.1c0.2-0.4,0.9-0.3,0.1-0.6
						c-0.4,0.7-1.5,0.1-2.1,0.3c0,0.5-1.4,0.4-2.4,0.7c0-0.2-2.1-0.1-3.1-0.2l0-0.1c-0.1,0.5-1.2,0.5-2,0.7c0-0.3,0.1-0.5,0.5-0.6
						l-0.7,0.1c-0.2,0.2-0.4,0.3-0.8,0.4l0.2-0.4c-0.9,0.1-1.9,0.6-3.1,0.4c-0.1,0.4,1,1-0.3,1.3c-0.1-0.2-0.1-0.5,0.2-0.6
						c-0.1,0-0.4,0.2-0.6,0.1l0.5-0.4c-0.6-0.1-0.3,0.3-0.7,0.3c0-0.3-0.3-0.2-0.3-0.4c0.1,0,0.4,0.1,0.6,0c-0.5,0-1.1-0.2-1.3-0.4
						c0.1,0.2,0,0.4-0.3,0.4c-1,0.1-0.3-0.3-0.9-0.4c-0.2,0.2-0.8,0-0.8,0.5c-0.3,0-0.3-0.2-0.5-0.3c-0.5,0.2-2.3,0.1-1.7,0.6l0.1,0
						c0,0-0.1,0-0.1,0l0,0l0,0c-1.6,0.5-3.4-0.1-5,0.1l0-0.1c-1,0.2-2.1,0.1-2.8,0.4c-0.3,0-0.7-0.2-0.6-0.4
						c-0.7,0.1-0.8,0.3-1.9,0.1c0.7-0.3-0.3-0.2,0.8-0.2c-1-0.1-1.2-0.3-2.2,0.1c0.3-0.4-0.7-0.5-1.2-0.3l0.7,0.3
						c-0.5,0.1-1,0-1.4,0l0.2-0.5c-2-0.6-3.5,1-5,0c-0.5,0.3,1.1,0.2,0.6,0.6c-0.9-0.1-1.8-0.7-2.1-0.7c-1.2-0.3-1.1,0.7-2.4,0.5
						c0.2,0.2,0.3,0.6-0.6,0.8c-0.9-0.1-1.1-0.7-0.5-0.8c0.2,0,0.3,0,0.3,0.1c0.3-0.1,0.7-0.1,0.3-0.3l-0.1,0.2
						c-0.4-0.2-1.7-0.2-1.4-0.4c-0.7,0.2-0.3,0.3,0.2,0.4c-1.2-0.2-1.8,0-3-0.2c0.2,0.1,0.4,0.3,0.2,0.3c-1.7-0.2-0.8,0.3-2,0.4
						c-0.7-0.3,0.2-0.6-0.9-0.4c-0.7-0.2-0.2-0.5,0.1-0.6c-1.1,0.3-2-0.2-2.6-0.3l0.6-0.1c-0.3,0.1-0.6,0.1-0.9,0.1l0.3,0.3
						c-0.3-0.1-0.6-0.1-0.6-0.2c-0.3,0.2,0.3,0.6-0.4,0.9c-0.4-0.2-1.4,0.2-1.5-0.3c1.4,0.1-0.2-0.5,1-0.5c-0.2,0.1-0.5,0.1-0.8,0
						c-0.1-0.1,0-0.1,0.1-0.1c-1.3-0.4-0.6,0.5-2,0.5c0.2-0.3-0.3-0.5-0.6-0.4c0.6,0,0.3,0.4-0.2,0.6c-0.9-0.2-1,0.2-1.4,0.1
						l0.5,0.1c-0.2,0.3-0.6,0.2-1.2,0.3c-0.1-0.2,0.6-0.1,0.3-0.2c-0.7,0.5-1.6-0.4-2.5-0.1c-0.5-0.2,0-0.5-0.4-0.6
						c-1.1,0.3-1.2-0.3-2.3,0c0.3,0.3,0.4,0.3-0.4,0.6l1.9-0.3l-1.2,0.5c0.6,0,1.2-0.2,1.5-0.2c-0.6,0.3-0.5,0.2-0.2,0.5
						c-0.8-0.5-1.5,0.3-2.4,0l0-0.8c-1.4-0.3-2.4,0.5-4.1,0.3l0.6,0.1c-0.2,0.3-1.1,0.1-1.6,0.2c0-0.3-0.3-0.4-0.6-0.5
						c0,0.2-1.3,0-1.4,0.6l-0.8-0.3c-1.4-0.1-1.6,0.9-2.9,0.8c0.4-0.3-0.2-0.5,0.7-0.8c-0.5,0-0.9,0-0.9,0.2
						c-0.3-0.2-1.2,0.4-1.7,0.2c-0.2,0.1-0.2,0.4-0.7,0.4c-0.1-0.1,0-0.1,0-0.1c0,0.1-0.8,0.2-0.3,0.5c-1.5-0.8-3.9,0.3-5.2-0.3
						c-1,0.2-2.2,0.4-3,0.5c0-0.1,0-0.1,0.2-0.1c-1.3-0.1-0.7,0.9-2.1,0.8c-0.8-0.4,0.7-0.3,0.2-0.5c-0.3-0.9-1.7,0.4-2.7,0l0.2-0.1
						c-0.8-0.2-1.7,0.6-2.9,0.8c0,0,0-0.1,0-0.1c-0.7,0.6-2.2,1.1-3.3,1.5c0.2-0.5,0.5-0.3,0.1-0.6c-0.5,0.2,0.3,0.5-0.7,0.9
						c-0.4-0.1-1.1-0.1-1.4-0.4c0,0,0.2-0.1,0.5-0.2c0.2-0.1,0.5-0.1,0.5-0.1c-0.6-0.4-1.2,0.4-1.7,0.5l0-0.2
						c-0.7,0.3-1,0.6-1.3,0.9c-0.3,0.3-0.6,0.6-1.4,0.9l0.2,0.1c-0.5,0.9-0.8,0-1.4,0.9l-0.5-0.3c-0.2,0.2-0.6,0.6-1,1.1
						c-0.4,0.5-0.8,1-1.1,1.4c0.1-0.8,1-1.8,1.5-2.4c-0.3,0.2-0.7,0.5-1,0.8c-0.3,0.4-0.6,0.7-0.7,0.9c0.1-0.2,0.3-0.5,0.5-0.6
						c-0.1,0.4-0.4,0.8-0.6,1.2c-0.2,0.3-0.4,0.7-0.6,1.1c-0.2-0.9-0.5-0.2-0.6,0.2c-0.1-0.4-0.2-0.8-0.1-1.4
						c-0.1,0-0.2-0.1-0.3-0.3c-0.1-0.1-0.1-0.1-0.2-0.2c0,0,0-0.1-0.1-0.1l-0.1-0.2c-0.1-0.1-0.2-0.2-0.3-0.3
						c-0.8-0.9-1.7-1.7-2.9-2.3c0.4,1.2-0.7-0.3-0.9,0.5c-0.5-0.2-0.7-0.3-0.7-0.4c0,0-0.3-0.3-0.7-0.6c-0.3-0.3-0.7-0.6-0.7-0.6
						c-0.3-0.4,0.6,0,0.6-0.2c-1.1-0.5-0.4-0.6-1.1-1c0.1,0.3-0.6,0.3-1.2-0.1l0.8,0.7c-1.8-0.1-1.2-1.2-3-1.2c0,0,0.1,0,0.3-0.1
						c0.2,0,0.3-0.1,0.3-0.1c-0.5,0-1.2-0.2-2.1-0.4c-0.8-0.1-1.6-0.1-2.1,0.1c-0.1-0.1-0.3-0.4,0.1-0.4c-2-0.5-4.7,0-6.2-0.6
						l0.2-0.2c-0.4,0-0.7,0.3-1.2,0.1c0-0.1,0.2-0.2,0-0.2c-0.2,0.1-1.1,0.3-1.6,0.1l0.5-0.2c-2-0.5-3.1,0.3-4.8,0.3
						c0.1-0.6-1.5-0.9-2.3-1.1l0-0.1c-2.3-0.2-4,0.3-6.2,0.5c-1.3-0.7-4.5-0.4-6.7-0.9C83.4,9.6,83,10,82.6,10
						c-0.5-0.1-1.4,0.4-1.3-0.2l0.2,0c-0.4-0.6-1.4-0.4-2.2-0.5l-0.1,0.8C77,9,73.6,10.5,72.4,9.5c-0.5,0.2-1.1,0.2-1.6,0.4l0-0.4
						c-1.4-0.1-2.1-0.2-3.9-0.1l0.4-0.3c-1,0-1.2,1.2-2.1,1.2l-0.3-0.6c-1.7,0-3.5-0.5-5.1,0c0-0.1,0.1-0.3,0.4-0.3
						c-0.8,0-3.1-0.4-2.8,0.4c0-0.5-1.8-0.1-2.7,0.2l0.1-0.4c-0.8,0.5-0.8,0.6-1.9,0.8c-0.3-0.1-0.2-0.3,0.1-0.2
						c-0.9-0.2-0.7,0.4-1.7,0.2l0.4-0.3c-0.9,0-0.8,0.1-1.3,0.4c-0.6,0.2-1.7-0.1-1.8-0.5c-0.1,0.2-0.6,0.5-1.1,0.4
						c-0.1-0.1,0.1-0.2,0.2-0.3c-1.5-0.3-2.2,0.4-3.2,0c0-0.1-0.1-0.2-0.2-0.2c1.2,0,2.1,0.1,2,0.1c0-0.4-0.9-0.4-0.2-0.9
						c-0.8,0.3-2.1,0.9-3,0.7c0,0-0.1-0.1-0.1-0.1l0.1,0c-0.2,0-0.4,0-0.6,0c-0.3-0.1-0.5-0.1-0.8-0.1c-0.1-0.3-1.1-0.2-1.6-0.2
						c0,0.4-0.6,0.3,0,0.7c-0.1,0,0.1,0,0.4-0.1c0.1,0,0.2,0,0.2,0l0,0c0.3,0,0.7,0,1.2,0c-0.4,0.2-0.8,0.4-1.3,0.1
						c-0.2,0.3-0.5,0.5-0.7,0.6c-0.6-0.6-1.9-0.9-2-1.3c-1.4,0.2-3.4,0-4.3,0.7c-0.4,0.1-0.5-0.2-0.6-0.4c0.2-0.1,0.5,0,0.7-0.1
						c-0.8,0.2-2.4,0-2.7,0.5c-1-0.3,0.6-0.5-0.8-0.4l0.2-0.2c-2.7-1-4.6,1.1-7.6-0.3C22.9,9.3,23,9.4,23,9.4
						c-3.4-0.8-7.3-0.4-10.5-2c-0.9-0.4-1.1-0.1-1.7,0L10.7,7L9.6,7.1C8.9,7,8.4,6.6,7.9,6.1c-0.5-0.5-1-0.9-2-1.1l0,0.4
						C5.7,5.3,5.2,5,4.9,4.8C4.6,4.5,4.3,4.3,4.5,4.2c-0.1,0-0.4,0.1-0.4-0.2l0.1-0.2c0,0-0.3-0.2-0.6-0.4C3.4,3.4,3.2,3.2,3.1,3.2
						C3,3.1,2.9,3,2.9,3C2.7,2.5,3,2.4,3.1,2.3C3.3,2.1,3.4,2,3.2,1.3C3.1,1.1,2.8,0.8,2.6,0.5C2.4,0.2,2.2,0,2.2,0.1
						c0,0.2-0.1,0.6-0.3,0.7L1.7,0.2C1.4,0.1,1,0,0.7,0C0.4,0.1,0.1,0.4,0,1.4c0,0,0.2,0.3,0.4,0.6c0.1,0.1,0.2,0.3,0.3,0.4
						c0.1,0.1,0.1,0.2,0.1,0.2L0.7,3.2c0,0-0.1-0.3-0.3-0.5C0.3,2.4,0.2,2.1,0.2,2.1c-0.1,0.8,0.4,1,0.7,1.4c-0.1,0.2-0.1,0.4,0,0.7
						c0,0,0.3,0.2,0.6,0.4c0.3,0.2,0.6,0.3,0.6,0.3C2.1,5.1,1.4,4.7,1.9,5.4c0.6,0.2,0-0.8,0.8-0.2C3,5.8,2.7,5.9,3.4,6.1
						c0,0.2-0.2,0.2-0.5,0.1C3.5,6.5,4.3,7.1,4.8,7c0.3,0.6,1.8,0.8,1.5,1.4c0.2-0.1,1.1,0,1.6,0.1C6.7,8.8,9.7,9.2,9.2,9.8
						c0.9-0.4,2.5,0.4,3.8,0.3c-0.1,0-0.2,0.1-0.3,0.1c0.7,0.2,0.8,0.4,1.2,0.7c0.2-0.5,1.3-0.5,1.9-0.7c0.7,0.7-0.6,0.6-0.5,1.1
						c0-0.4,1.5-0.2,1.3-0.6c0.6,0.4,0.5,0.2,0.8,0.8c0.2-0.7,0.6,0,1.2-0.4c0.9,0.5,0.1,0.7,1.2,0.6C20.2,11.9,19.3,12.1,19.3,12.1
						z M43.3,12.3L43.3,12.3c-0.2,0-0.4,0-0.5,0C42.9,12.3,43,12.3,43.3,12.3z M45.3,12.3c-0.2,0-0.5,0-0.9,0
						c-0.1-0.1,0-0.3,0.2-0.3C44.5,12.1,45,12.2,45.3,12.3z M41.1,9.4c0.3-0.1,0.4,0,0.5,0.1c-0.1,0-0.3,0-0.6,0c0,0,0,0,0,0
						C41,9.6,41,9.5,41.1,9.4z"/>
					<path fill="#FFFFFF" d="M40.5,10c0,0-0.1,0-0.1,0c0.1,0,0.1,0.1,0.2,0.1c0,0,0.1-0.1,0.1-0.1C40.6,10,40.6,10,40.5,10z"/>
					<path fill="#FFFFFF" d="M214,10.5L214,10.5C214,10.5,214,10.5,214,10.5C214,10.5,214,10.5,214,10.5z"/>
					<polygon fill="#FFFFFF" points="72.8,13.2 72.8,13.1 72.6,13.2 					"/>
					<path fill="#FFFFFF" d="M225.1,11.3c0,0,0.1,0.1,0.2,0.1C225.2,11.3,225.1,11.3,225.1,11.3z"/>
					<path fill="#FFFFFF" d="M229.8,10.9l0.7,0.1C230.2,10.9,230,10.9,229.8,10.9z"/>
					<path fill="#FFFFFF" d="M233.5,10.6c0-0.1,0-0.1,0-0.2l0,0L233.5,10.6z"/>
					<path fill="#FFFFFF" d="M175.4,12.9c0,0-0.1,0-0.1,0C175,13,175.2,13,175.4,12.9z"/>
					<path fill="#FFFFFF" d="M192.7,11.9c-0.2,0.1-0.4,0.1-0.6,0.2C192.4,12.1,192.7,12.1,192.7,11.9z"/>
					<polygon fill="#FFFFFF" points="156.3,13.9 156.3,13.9 156.2,13.9 					"/>
					<path fill="#FFFFFF" d="M191.3,12.1c0.3,0.1,0.6,0.1,0.8,0C191.9,12.1,191.6,12,191.3,12.1z"/>
					<path fill="#FFFFFF" d="M248.8,4.9l0.2-0.1c0,0,0,0,0-0.1L248.8,4.9z"/>
					<path fill="#FFFFFF" d="M248.9,4.7l0.1-0.2C249,4.6,248.9,4.7,248.9,4.7z"/>
					<path fill="#FFFFFF" d="M249.3,4.1c0,0-0.2,0.5-0.2,0.4C249.2,4.4,249.3,4.3,249.3,4.1z"/>
					<path fill="#FFFFFF" d="M244.4,7.7l0,0.2C244.4,7.9,244.4,7.8,244.4,7.7z"/>
					<path fill="#FFFFFF" d="M243,8.4c0.4-0.1,1,0,1.4-0.3l0-0.1C244.2,8.2,243.2,8,243,8.4z"/>
					<path fill="#FFFFFF" d="M236.5,8.3l1.2-0.1c-0.2-0.1-0.6-0.3,0-0.4C236.1,7.6,238.1,8,236.5,8.3z"/>
					<path fill="#FFFFFF" d="M232.8,8.7c0.6-0.2,0-0.2,0-0.3C232.4,8.6,232.3,8.6,232.8,8.7z"/>
					<path fill="#FFFFFF" d="M205.4,10.3l0.1-0.4C205,10,205.5,10.1,205.4,10.3z"/>
					<polygon fill="#FFFFFF" points="200.2,12.3 200.7,12.5 200.9,12.2 					"/>
					<polygon fill="#FFFFFF" points="197.1,9.7 197.3,9.6 196.4,9.7 					"/>
					<path fill="#FFFFFF" d="M150.7,10.8l0.2,0.4C151.2,11.1,151.3,10.6,150.7,10.8z"/>
					<path fill="#FFFFFF" d="M130.9,15.4c-0.3-0.1-0.9,0-1.1,0.4C130.2,15.6,130.7,15.6,130.9,15.4z"/>
					<polygon fill="#FFFFFF" points="78.1,9.6 78.5,9.4 77.8,9.6 					"/>
				</g>
			</g>
		</g>
	</g>
</g>
</svg>
