<?xml version="1.0" encoding="utf-8"?>
<!-- Generator: Adobe Illustrator 18.0.0, SVG Export Plug-In . SVG Version: 6.00 Build 0)  -->
<!DOCTYPE svg PUBLIC "-//W3C//DTD SVG 1.1//EN" "http://www.w3.org/Graphics/SVG/1.1/DTD/svg11.dtd">
<svg version="1.1" id="Layer_1" xmlns="http://www.w3.org/2000/svg" xmlns:xlink="http://www.w3.org/1999/xlink" x="0px" y="0px"
	 viewBox="0 0 29 250.6" enable-background="new 0 0 29 250.6" xml:space="preserve">
<g>
	<g>
		<g>
			<g>
				<g>
					<path fill="#FFFFFF" d="M29,250.5c0.1-0.1,0.1-0.4-0.4-0.4c0,0-0.1,0.1-0.2,0.2c-0.1,0.1-0.2,0.2-0.2,0.2L29,250.5z"/>
					<path fill="#FFFFFF" d="M26.5,249c-0.5,0-1.2,0-1.2,0.6c0.7-0.1,0.7,0.1,1.4-0.2c0.4,0.1,0.6,0.4,0.5,0.5
						c0.2-0.1,0.6,0.3,0.9,0c-0.2-0.2-0.5-0.4-0.8-0.5c-0.3-0.1-0.6-0.1-1-0.2C26.2,249.2,26.4,249.1,26.5,249z"/>
					<path fill="#FFFFFF" d="M18.6,213.7l0,0.2C18.6,213.9,18.6,213.8,18.6,213.7z"/>
					<path fill="#FFFFFF" d="M18.7,190.6c0,0.2,0.1,0.2,0.1,0.3C18.7,190.7,18.7,190.6,18.7,190.6z"/>
					<path fill="#FFFFFF" d="M19.2,186.7c0,0.1,0,0.2,0,0.2C19.2,186.8,19.2,186.7,19.2,186.7z"/>
					<path fill="#FFFFFF" d="M18.6,213.7l0.1-0.6C18.6,213.1,18.7,213.4,18.6,213.7z"/>
					<path fill="#FFFFFF" d="M21.9,245.9c0.1,0.1,0.2,0.2,0.3,0.3C22.1,246.1,22.1,246,21.9,245.9C22,245.9,22,245.9,21.9,245.9z"/>
					<path fill="#FFFFFF" d="M19.5,223.9l0,0.2c0.1,0.1,0.1,0.1,0.2,0.1L19.5,223.9z"/>
					<path fill="#FFFFFF" d="M20.4,231.6c0-0.2-0.4-0.2-0.6-0.2c0.2,0.1,0.3,0.2,0.3,0.3C20.2,231.7,20.3,231.7,20.4,231.6z"/>
					<path fill="#FFFFFF" d="M22.6,243.6l0.1,0.2C22.7,243.7,22.6,243.6,22.6,243.6z"/>
					<path fill="#FFFFFF" d="M19.3,218.3c0.1,0,0.1,0,0.1-0.1C19.4,218.2,19.3,218.3,19.3,218.3z"/>
					<path fill="#FFFFFF" d="M20.6,6.2C20.7,6.2,20.7,6.2,20.6,6.2C20.7,6.2,20.7,6.1,20.6,6.2z"/>
					<path fill="#FFFFFF" d="M29,1.7l-0.1,0c0,0.1,0,0.2,0,0.2L29,1.7z"/>
					<path fill="#FFFFFF" d="M19.7,179.4C19.7,179.4,19.7,179.4,19.7,179.4C19.7,179.6,19.7,179.5,19.7,179.4z"/>
					<path fill="#FFFFFF" d="M14.3,120.4c-0.7,0.6,0.1-1.4-0.7-0.4C13.7,119.9,13.6,121.2,14.3,120.4z"/>
					<path fill="#FFFFFF" d="M21.9,245.7c-0.1-0.1-0.1-0.2-0.2-0.3C21.8,245.6,21.8,245.7,21.9,245.7z"/>
					<path fill="#FFFFFF" d="M13.5,119.9L13.5,119.9L13.5,119.9C13.5,120,13.5,120,13.5,119.9z"/>
					<path fill="#FFFFFF" d="M19.2,162.7c-0.1,0-0.1,0.1-0.2,0.2C19,162.9,19.1,162.8,19.2,162.7z"/>
					<path fill="#FFFFFF" d="M18.8,175.2l0.1-0.3C18.9,175,18.8,175.1,18.8,175.2z"/>
					<path fill="#FFFFFF" d="M18.3,156.3c0-0.2,0.1-0.2,0-0.5c0,0,0,0,0,0.1C18.3,156,18.4,156.1,18.3,156.3z"/>
					<path fill="#FFFFFF" d="M17.8,149.5c0,0,0,0.1-0.1,0.1c0,0.1,0,0.1,0,0.2L17.8,149.5z"/>
					<path fill="#FFFFFF" d="M16.8,26.8c0.1-0.1,0.3-0.2,0.4-0.3C16.9,26.6,16.9,25.6,16.8,26.8z"/>
					<path fill="#FFFFFF" d="M22.1,245.8c-0.1,0-0.2,0-0.3-0.1c0,0.1,0.1,0.1,0.1,0.2C22.1,245.9,22.1,245.9,22.1,245.8z"/>
					<path fill="#FFFFFF" d="M15.1,156.2l0-1.1C15.1,155.4,15.1,155.8,15.1,156.2z"/>
					<path fill="#FFFFFF" d="M16.1,75l0-0.2C16,74.9,16,74.9,16.1,75z"/>
					<path fill="#FFFFFF" d="M14.8,152c0.1-0.2,0.2-0.4,0.2-0.6c0,0-0.1-0.1-0.1-0.1L14.8,152z"/>
					<path fill="#FFFFFF" d="M17.2,26.5L17.2,26.5L17.2,26.5z"/>
					<path fill="#FFFFFF" d="M17,19.3c-0.2,1,0.4,0.5,0.7,0.8c0,1.2-0.5,0.5-0.8,0.9c0.1,0.8,0.5,1.4,0.4,2c-0.1,0-0.1,0.1-0.2,0
						c0.3,0.8-0.2,2.4,0.3,3.4c-0.1,0.1-0.1,0.1-0.1,0.1c0.3-0.1,0.5-0.1,0.7-0.1c0,0.5,0.3,0.9-0.1,1c0-0.3-0.1-0.3-0.2-0.5
						l0.1,0.5c-0.5,0.4-0.1-0.7-0.5-0.7c0.1,0.9,0.4,2.1,0.2,2.8c-0.5,0.1-0.1-1.7-0.5-0.8l0.3-1.1c-0.8,0.8,0.1-0.7-0.8,0.1
						c-0.2,1.5,0.1,1.7-0.1,3.1c0.3,0.3,0.4-0.1,0.7,0.3c0.4,2.1-1.3,1.6-0.7,3.1c0.3,0.4,0.9,0.6,0.6,1.7l-0.5-0.4
						c-0.1,1.4,0.8,0.8,0.3,2.3c-0.2-0.3-0.1-1.1-0.2-0.9c-0.5,0.9,0.3,0.7,0.3,1.4l-0.5,0.1c0,1.5,0.3,3.2,0.4,4.8
						c-0.1-0.1-0.3-0.4-0.4,0c0.2,2.1-0.1,4.5-0.4,6.5l0.4,0.8c0,0.2-0.2,0.3-0.3,0.1c-0.2,0.8,0.3,0,0.4,0.4c0,0.4-0.2,0.6-0.4,0.3
						c0.3,1.4,0.8,4,0.3,5.4l-0.1-0.3c-0.2,1.1,0.9,1.3,0.5,2.3l-0.1-0.2c-0.2,2.5,0.2,5.2-0.4,7.1c0.6,0.4-0.3,2.4,0.6,2.6
						c-0.4,1.4-0.6,1-0.9,3c0,0.5,0.5,0.8,0.6,1.4l-0.4,0l0.5,0.9l-0.5,0.5l0.1,0.6c0-0.2,0.2-0.5,0.3-0.5c0.2,1-0.3,2.3-0.6,2.4
						l0.3,2.3c-0.2-0.1-0.2-0.4-0.3-0.7c0.4,1.2-0.5,0.2-0.1,1.3c0.1-0.1,0.3,0.1,0.4,0.1c-0.3,0.5-0.3,1.8-0.2,2.7l-0.3-0.2
						c-0.1,1.7,0.1,3.5,0,5.4c0.2-0.7,0.7-0.5,0.7,0.1l-0.5,0.2c0.3,0.4,0.2-0.6,0.5,0.2c-0.1,0.7-0.5,0.5-0.7,0l0.1,0.9
						c-0.1,0-0.2-0.2-0.4-0.2c0.3,0.4-0.5,1.5,0,2l-0.1,0c-0.1,1.9,0,2.7,0,4.3c0.4,0.1,0.3,0.6,0.6,1.1c-0.2,1.1-0.6,2.3-0.7,3.7
						c0.1,1,0.3,0.3,0.5,0.8c-0.4,0-0.5,1.4-0.7,0.7c-0.1,1.6-0.1,2.1-0.1,4.1c0.2-0.2,0.3-0.4,0.4-0.3c0,0.4-0.3,0.8-0.4,0.7l0-0.1
						c0.3,2.4-1.9,5-1.5,6.9l0-0.1c0,0,0,0.5,0,0.9c0,0.5,0,1,0,1c-0.3,0.8-0.1-0.6-0.5,0c0.1,2.1-1,2.9-1.2,4.5
						c-0.7,0.3-1.2,1.3-1.7,2.2c-0.3,0.5-0.6,0.9-0.9,1.2c-0.1,0.1-0.2,0.1-0.3,0.2c-0.2,0.2-0.4,0.3-0.6,0.4
						c-0.1,0.1-0.2,0.1-0.3,0.2c-0.1,0.1-0.3,0.1-0.5,0.1c-0.4,0.1-0.7,0.2-1.1,0.2l0.6,0.1c-0.8,0.5-1.5,0.4-2.8,0.6
						c0.3,0,0.8-0.1,1.1-0.1c0.3,0,0.5-0.1,0.3,0.1c-1,0.3-1.9,0.6-2.9,0.9c-0.8,0.2-1.6,0.4-2.4,0.6l1.4,0.4l1.4,0.4l1.7,0.5
						c0.3,0.1,0.6,0.2,0.8,0.3l0.7,0.2l1.4,0.5c0.3,0.1,0.4,0.2,0.6,0.3c0.1,0.1,0.3,0.2,0.4,0.4l0.2,0.2l0.1,0.1
						c0.1,0.1,0.1,0.1,0.2,0.2l0.3,0.4c0.8,1.1,1.3,2.5,1.8,3.9c0.4,1.3,1.5,0.2,1.5,2.1l-0.6-0.3c1.4,2.5,1.4,5.6,2.4,8.3
						c-0.1-0.2-0.3-0.1-0.3-0.4c-0.2,0.6,0.3,2.2,0.6,2.2c0,0.4-0.2,0.1-0.3,0.4c-0.1,0.6,0.6,1.4,0.3,1.8c0,0.1-0.1-0.2-0.2-0.3
						c0.2,0.4,0.2,1.8,0.5,1.4c-0.1,1.1,0.4,2,0.2,2.9c0.5,0.5-0.1,1.8,0.6,2c-0.6,0-0.4,1.9,0,2.6c-0.2-0.2-0.2,0.6-0.5,0.4
						c0.1,0.8,0.2,1.5,0.5,1.3c-0.7,1.5,0.8,2.8-0.2,3.7c0.4,2.3,0.7,4.4,0.9,6.5c-0.6-0.1-0.1-2.3-0.8-2.2c0.3,2,0.9,3.1,0.8,5.1
						c-0.1,0.5-0.3-0.3-0.4-0.5c0.3,2,0,3.8,0.4,5.6c-0.1,0-0.1-0.2-0.2-0.4c0,0.3-0.1,0.8,0.2,0.8l-0.1-0.3
						c0.4-0.6,0.9,1.4,1.1,1.4c-0.8-0.6-0.2,1.7-1.3,0.8c0.1,0.2,0.2,0.5,0.4,0.5c-0.1,0.3-0.2,0.4-0.4,0.1c0.2,1.2,0.5,0.8,0.5,1.9
						c-0.1,0-0.2-0.2-0.4-0.3c0.3,0.6,0.6,1.1,0.4,2.1c-0.1-0.1-0.2,0.1-0.2-0.2c0,1.6,0.7,2.8,0.5,4.6c-0.6-0.5-0.2,0.6-0.7,0.7
						l0.2,1l0.3-0.4c0,0.8,0.4,1.6,0.2,2.3l-0.2-0.6l0.1,1.6l0.2-0.9c0.3,0.9,0.7-0.1,0.5,1c-0.1-0.2,0,0.8-0.3,1.3l0,0
						c0.2,0.4,0.4,0.8,0.2,1.5c-0.2,0.2-0.6-0.1-0.7,0c0.4,0.4,0.1,2,0.6,2.5c-0.1-0.2-0.4-0.2-0.5-0.1l0.4,0.3
						c-0.1,0.4-0.2,0.4-0.4,0.4c-0.1,1.2,0.7-0.4,0.4,1c0-0.1-0.1-0.1-0.1-0.3c-0.1,1.4,0.2,2.7,0.1,4c-0.5,0.4-0.1-1.1-0.6-0.7
						c0.1,1.9,0.7,3.9,0.6,5.7l0.1-0.3c0.8,0.2-0.4,1.3,0,2.3c-0.1-0.2-0.4-0.3-0.3-0.2c-0.1,1.2,0.2,2.5,0.5,4.4l-0.2-0.2
						c-0.2,0.7,0,1.9-0.1,2.7c0.2,0.2,0.2,0.7,0.5,0.4c-1,2.5,0.8,4.6,0,6.8c0-0.3-0.2-0.6-0.2-0.4l0.3,1.8c0.3-0.2,0.2-0.3,0.4-0.7
						c0.2,0.2,0.4,0.7,0.4,1.2c-0.3-0.8-0.5,0-0.7,0.4c0.1-0.1,0.2,0,0.3,0c-0.5,1,0.7,0.1,0.4,1.4l-0.2-0.1
						c0.1,0.5,0.4,0.9,0.4,1.4c-0.4,0.3-0.2-0.5-0.5-0.5c0.1,0.7,0.9,1.4,0.6,2.1c-0.1-0.3-0.2-0.8-0.3-1.1
						c-0.4,0.8-0.2,0.8-0.3,1.4l0-0.1l-0.1,1.3l0.1-0.3c1.1,0.8,0.4,1.9,1.3,3c-0.8-1.1-0.4-0.1-0.8-0.2c-0.1,0.3-0.1,0.8-0.3,0.7
						c0.4,0.5-0.1,1,0.6,1.8c-0.1,0.1,0.1,0.6-0.3,0.6c0.3,0.7,0.2-0.2,0.4-0.2c0.7,1.1,0,2.9,1.1,4.4c0.7,1.4,1.2,1.5,2,2.6
						c0,0.5-0.6-0.2-0.6-0.2c0.1,0.8,0.4,1.3,0.9,1.9c-0.2-0.1-0.2,0.1-0.2,0.4c0.3,0.5,0.6,0.1,0.9,0.8c-0.2,0-0.5,0-0.8-0.2
						c0.5,0.5,1.1,1,1.7,1.4c-0.1,0.3-0.6-0.1-0.9-0.2c0.6,0.6,1.7,1.5,2.1,1.3c0,0-0.3-0.4-0.3-0.4c0.2,0.2-0.1,0.4-0.3,0.3
						c-0.4-0.1-0.5-0.3-0.6-0.5c0-0.2,0-0.4,0-0.4c0,0,0.4,0.3,0.4,0.3c0.1-0.5-0.2-0.8-0.7-1.2c-0.4-0.4-1-0.8-1.2-1.2
						c0,0,0.2,0,0.4,0c0.2,0,0.4,0,0.4,0s-0.2-0.2-0.5-0.3c-0.2-0.2-0.5-0.3-0.5-0.3c0-0.3,0.3-0.5,0.6-0.2
						c-0.1-0.7-0.5-0.5-0.4-1.1c0-0.1,0.1-0.1,0.1,0l-0.4-0.5c0.2,0.1,0.3-0.3,0.4,0.1c-0.1-1.2-1.1-1.7-0.8-2.3l0.1,0.1
						c-0.7-1.6-0.5,0-1.3-1.1l0.8-1.1l-0.5-0.1c0-0.2-0.1-0.5,0.1-0.5c-0.4-0.6-0.2,0.2-0.5-0.2c0.2-0.9-0.7-2.2,0-2.6
						c-0.4-0.2-0.1,0.8-0.5,0c0.7-0.4-0.3-1-0.1-1.8c0.4,0.2,0.3,0.9,0.6,0.1c-0.7-0.4-0.1-1.5-0.3-2.1c-0.5,0-0.4-1.4-0.7-2.4
						c0.2,0,0.1-2.1,0.2-3.1l0.1,0c-0.5-0.1-0.5-1.2-0.7-2c0.3,0,0.5,0.1,0.6,0.5l-0.1-0.7c-0.2-0.2-0.3-0.4-0.4-0.8l0.4,0.2
						c-0.1-0.9-0.6-1.9-0.4-3.1c-0.4-0.1-1,1-1.3-0.3c0.2-0.1,0.5-0.1,0.6,0.2c0-0.1-0.2-0.4-0.1-0.6l0.4,0.5
						c0.1-0.6-0.3-0.3-0.3-0.7c0.3,0,0.2-0.3,0.4-0.3c0,0.1-0.1,0.4,0,0.6c0-0.5,0.2-1.1,0.4-1.3c-0.2,0.1-0.4,0-0.4-0.3
						c-0.1-1,0.3-0.3,0.4-0.9c-0.2-0.2,0-0.8-0.5-0.8c0-0.3,0.2-0.3,0.3-0.5c-0.2-0.5-0.1-2.3-0.6-1.7l0,0.1c0,0,0-0.1,0-0.1l0,0
						l0,0c-0.5-1.6,0.1-3.4-0.1-5l0.1,0c-0.2-1-0.1-2.1-0.4-2.8c0-0.3,0.2-0.7,0.4-0.6c-0.1-0.7-0.3-0.8-0.1-1.9
						c0.3,0.7,0.2-0.3,0.2,0.8c0.1-1,0.3-1.2-0.1-2.2c0.4,0.3,0.5-0.7,0.3-1.2l-0.3,0.7c-0.1-0.5,0-1,0-1.4l0.5,0.2c0.6-2-1-3.5,0-5
						c-0.3-0.5-0.2,1.1-0.6,0.6c0.1-0.9,0.7-1.8,0.7-2.1c0.3-1.2-0.7-1.1-0.5-2.4c-0.2,0.2-0.6,0.3-0.8-0.6c0.1-0.9,0.7-1.1,0.8-0.5
						c0,0.2,0,0.3-0.1,0.3c0.1,0.3,0.1,0.7,0.3,0.3l-0.2-0.1c0.2-0.4,0.2-1.7,0.4-1.4c-0.2-0.7-0.3-0.3-0.4,0.2c0.2-1.2,0-1.8,0.2-3
						c-0.1,0.2-0.3,0.4-0.3,0.2c0.2-1.7-0.3-0.8-0.4-2c0.3-0.7,0.6,0.2,0.4-0.9c0.2-0.7,0.5-0.2,0.6,0.1c-0.3-1.1,0.2-2,0.3-2.6
						l0.1,0.6c-0.1-0.3-0.1-0.6-0.1-0.9l-0.3,0.3c0.1-0.3,0.1-0.6,0.2-0.6c-0.2-0.3-0.6,0.3-0.9-0.4c0.2-0.4-0.2-1.4,0.3-1.5
						c-0.1,1.4,0.5-0.2,0.5,1c-0.1-0.2-0.1-0.5,0-0.8c0.1-0.1,0.1,0,0.1,0.1c0.4-1.3-0.5-0.6-0.5-2c0.3,0.2,0.5-0.3,0.4-0.6
						c0,0.6-0.4,0.3-0.6-0.2c0.2-0.9-0.2-1-0.1-1.4l-0.1,0.5c-0.3-0.2-0.2-0.6-0.3-1.2c0.2-0.1,0.1,0.6,0.2,0.3
						c-0.5-0.7,0.4-1.6,0.1-2.5c0.2-0.5,0.5,0,0.6-0.4c-0.3-1.1,0.3-1.2,0-2.3c-0.3,0.3-0.3,0.4-0.6-0.4l0.3,1.9l-0.5-1.2
						c0,0.6,0.2,1.2,0.2,1.5c-0.3-0.6-0.2-0.5-0.5-0.2c0.5-0.8-0.3-1.5,0-2.4l0.8,0c0.3-1.4-0.5-2.4-0.3-4.1l-0.1,0.6
						c-0.3-0.2-0.1-1.1-0.2-1.6c0.3,0,0.4-0.3,0.5-0.6c-0.2,0,0-1.3-0.6-1.4l0.3-0.8c0.1-1.4-0.9-1.6-0.8-2.9
						c0.3,0.4,0.5-0.2,0.8,0.7c0-0.5,0-0.9-0.2-0.9c0.2-0.3-0.4-1.2-0.2-1.7c-0.1-0.2-0.4-0.2-0.4-0.7c0.1-0.1,0.1,0,0.1,0
						c-0.1,0-0.2-0.8-0.5-0.3c0.8-1.5-0.3-3.9,0.3-5.2c-0.2-1-0.4-2.2-0.5-3c0.1,0,0.1,0,0.1,0.2c0.1-1.3-0.9-0.7-0.8-2.1
						c0.4-0.8,0.3,0.7,0.5,0.2c0.9-0.3-0.4-1.7,0-2.7l0.1,0.2c0.2-0.8-0.6-1.7-0.8-2.9c0,0,0.1,0,0.1,0c-0.6-0.7-1.1-2.2-1.5-3.3
						c0.5,0.2,0.3,0.5,0.6,0.1c-0.2-0.5-0.5,0.3-0.9-0.7c0.1-0.4,0.1-1.1,0.4-1.4c0,0,0.1,0.2,0.2,0.5c0.1,0.2,0.1,0.5,0.1,0.5
						c0.4-0.6-0.4-1.2-0.5-1.7l0.2,0c-0.3-0.7-0.6-1-0.9-1.3c-0.3-0.3-0.6-0.6-0.9-1.4l-0.1,0.2c-0.9-0.5,0-0.8-0.9-1.4l0.3-0.5
						c-0.2-0.2-0.6-0.6-1.1-1c-0.5-0.4-1-0.8-1.4-1.1c0.8,0.1,1.8,1,2.4,1.5c-0.2-0.3-0.5-0.7-0.8-1c-0.4-0.3-0.7-0.6-0.9-0.7
						c0.2,0.1,0.5,0.3,0.6,0.5c-0.4-0.1-0.8-0.4-1.2-0.6c-0.3-0.2-0.7-0.4-1.1-0.6c0.9-0.2,0.2-0.5-0.2-0.6c0.4-0.1,0.8-0.2,1.4-0.1
						c0-0.1,0.1-0.2,0.3-0.3c0.1-0.1,0.1-0.1,0.2-0.2c0,0,0.1,0,0.1-0.1l0.2-0.1c0.1-0.1,0.2-0.2,0.3-0.3c0.9-0.8,1.7-1.7,2.3-2.9
						c-1.2,0.4,0.3-0.7-0.5-0.9c0.2-0.5,0.3-0.7,0.4-0.7c0,0,0.3-0.3,0.6-0.7c0.3-0.3,0.6-0.7,0.6-0.7c0.4-0.3,0,0.6,0.2,0.6
						c0.5-1.1,0.6-0.4,1-1.1c-0.3,0.1-0.3-0.6,0.1-1.2l-0.7,0.8c0.1-1.8,1.2-1.2,1.2-3c0,0,0,0.1,0.1,0.3c0,0.2,0.1,0.3,0.1,0.3
						c0-0.5,0.2-1.2,0.4-2.1c0.1-0.8,0.1-1.6-0.1-2.1c0.1-0.1,0.4-0.3,0.4,0.1c0.5-2,0-4.7,0.6-6.2l0.2,0.2c0-0.4-0.3-0.7-0.1-1.2
						c0.1,0,0.2,0.2,0.2,0c-0.1-0.2-0.3-1.1-0.1-1.6l0.2,0.5c0.5-2-0.3-3.1-0.3-4.8c0.6,0.1,0.9-1.5,1.1-2.3l0.1,0
						c0.2-2.3-0.3-4-0.5-6.2c0.7-1.3,0.4-4.5,0.9-6.7c-0.1,0.3-0.5-0.1-0.5-0.4c0.1-0.5-0.4-1.4,0.2-1.3l0,0.2
						c0.6-0.4,0.4-1.4,0.5-2.2l-0.8-0.1c1.1-2.1-0.3-5.5,0.6-6.7c-0.2-0.5-0.2-1.1-0.4-1.6l0.4,0c0.1-1.4,0.2-2.1,0.1-3.9l0.3,0.4
						c0-1-1.2-1.2-1.2-2.1l0.6-0.3c0-1.7,0.5-3.5,0-5.1c0.1,0,0.3,0.1,0.3,0.4c0-0.8,0.4-3.1-0.4-2.8c0.5,0,0.1-1.8-0.2-2.7l0.4,0.1
						c-0.5-0.8-0.6-0.8-0.8-1.9c0.1-0.3,0.3-0.2,0.2,0.1c0.2-0.9-0.4-0.7-0.2-1.7l0.3,0.4c0-0.9-0.1-0.8-0.4-1.3
						c-0.2-0.6,0.1-1.7,0.5-1.8c-0.2-0.1-0.5-0.6-0.4-1.1c0.1-0.1,0.2,0.1,0.3,0.2c0.3-1.5-0.4-2.2,0-3.2c0.1,0,0.2-0.1,0.2-0.2
						c0,1.2-0.1,2.1-0.1,2c0.4,0,0.4-0.9,0.9-0.2c-0.3-0.8-0.9-2.1-0.7-3c0,0,0.1-0.1,0.1-0.1l0,0.1c0-0.2,0-0.4,0-0.6
						c0.1-0.3,0.1-0.5,0.1-0.8c0.3-0.1,0.2-1.1,0.2-1.6c-0.4,0-0.3-0.6-0.7,0c0-0.1,0,0.1,0.1,0.4c0,0.1,0,0.2,0,0.2l0,0
						c0,0.3,0,0.7,0,1.2c-0.2-0.4-0.4-0.8-0.1-1.3c-0.3-0.2-0.5-0.5-0.6-0.7c0.6-0.6,0.9-1.9,1.3-2c-0.2-1.4,0-3.4-0.7-4.3
						c-0.1-0.4,0.2-0.5,0.4-0.6c0.1,0.2,0,0.5,0.1,0.7c-0.2-0.8,0-2.4-0.5-2.7c0.3-1,0.5,0.6,0.4-0.8l0.2,0.2c1-2.7-1.1-4.6,0.3-7.6
						c-0.1,0.2-0.1,0.3-0.2,0.3c0.8-3.4,0.4-7.3,2-10.5c0.4-0.9,0.1-1.1,0-1.7l0.5-0.1l-0.2-1.1c0.1-0.7,0.5-1.3,1-1.8
						c0.5-0.5,0.9-1,1.1-2l-0.4,0c0.2-0.3,0.4-0.7,0.6-1c0.3-0.3,0.5-0.5,0.6-0.4c0-0.1-0.1-0.4,0.2-0.4l0.2,0.1
						c0,0,0.2-0.3,0.4-0.6c0.1-0.2,0.2-0.3,0.3-0.4C26,3,26.1,2.9,26.1,2.9c0.5-0.3,0.6,0,0.7,0.2c0.1,0.2,0.3,0.3,0.9,0.1
						c0.2-0.1,0.6-0.4,0.9-0.5c0.3-0.2,0.5-0.4,0.4-0.5c-0.2,0-0.6-0.1-0.7-0.3l0.6-0.2c0-0.3,0.2-0.7,0.1-1C29,0.4,28.6,0.1,27.6,0
						c0,0-0.3,0.2-0.6,0.4c-0.1,0.1-0.3,0.2-0.4,0.3c-0.1,0.1-0.2,0.1-0.2,0.1l-0.5-0.1c0,0,0.3-0.1,0.5-0.3C26.7,0.3,27,0.2,27,0.2
						c-0.8-0.1-1,0.4-1.4,0.7c-0.2-0.1-0.4-0.1-0.7,0c0,0-0.2,0.3-0.4,0.6c-0.2,0.3-0.3,0.6-0.3,0.6c-0.3-0.1,0.1-0.8-0.7-0.3
						c-0.2,0.6,0.8,0,0.2,0.8c-0.6,0.2-0.7-0.1-0.9,0.6c-0.2,0-0.2-0.2-0.1-0.5c-0.3,0.6-0.9,1.4-0.8,1.8c-0.6,0.3-0.8,1.8-1.4,1.5
						c0.1,0.2,0,1.1-0.1,1.6c-0.4-1.2-0.7,1.8-1.4,1.3c0.4,0.9-0.4,2.5-0.3,3.8c0-0.1-0.1-0.2-0.1-0.3c-0.2,0.7-0.4,0.8-0.7,1.2
						c0.5,0.2,0.5,1.3,0.7,1.9c-0.7,0.7-0.6-0.6-1.1-0.5c0.4,0,0.2,1.5,0.6,1.3c-0.4,0.6-0.2,0.5-0.8,0.8c0.7,0.2,0,0.6,0.4,1.2
						c-0.5,0.9-0.7,0.1-0.6,1.2C17.1,20.2,17,19.3,17,19.3z M16.8,43.3L16.8,43.3c0-0.2,0-0.4,0-0.5C16.7,42.9,16.8,43,16.8,43.3z
						 M16.7,45.3c0-0.2,0-0.5,0-0.9c0.1-0.1,0.3,0,0.3,0.2C16.9,44.5,16.9,45,16.7,45.3z M19.6,41.1c0.1,0.3,0,0.4-0.1,0.5
						c0-0.1,0-0.3,0-0.6c0,0,0,0,0,0C19.5,41,19.6,41,19.6,41.1z"/>
					<path fill="#FFFFFF" d="M19.1,40.5c0,0,0-0.1,0-0.1c0,0.1-0.1,0.1-0.1,0.2c0,0,0.1,0.1,0.1,0.1C19.1,40.6,19.1,40.6,19.1,40.5z
						"/>
					<path fill="#FFFFFF" d="M18.6,214L18.6,214C18.6,214,18.6,214,18.6,214C18.6,214,18.6,214,18.6,214z"/>
					<polygon fill="#FFFFFF" points="15.9,72.8 16,72.8 15.9,72.6 					"/>
					<path fill="#FFFFFF" d="M17.8,225.1c0,0-0.1,0.1-0.1,0.2C17.7,225.2,17.8,225.1,17.8,225.1z"/>
					<path fill="#FFFFFF" d="M18.2,229.8l-0.1,0.7C18.1,230.2,18.2,230,18.2,229.8z"/>
					<path fill="#FFFFFF" d="M18.4,233.5c0.1,0,0.1,0,0.2,0l0,0L18.4,233.5z"/>
					<path fill="#FFFFFF" d="M16.1,175.4c0,0,0-0.1,0-0.1C16,175,16.1,175.2,16.1,175.4z"/>
					<path fill="#FFFFFF" d="M17.1,192.7c-0.1-0.2-0.1-0.4-0.2-0.6C16.9,192.4,16.9,192.7,17.1,192.7z"/>
					<polygon fill="#FFFFFF" points="15.1,156.3 15.1,156.3 15.1,156.2 					"/>
					<path fill="#FFFFFF" d="M16.9,191.3c-0.1,0.3-0.1,0.6,0,0.8C17,191.9,17,191.6,16.9,191.3z"/>
					<path fill="#FFFFFF" d="M24.1,248.8l0.1,0.2c0,0,0,0,0.1,0L24.1,248.8z"/>
					<path fill="#FFFFFF" d="M24.3,248.9l0.2,0.1C24.4,249,24.4,248.9,24.3,248.9z"/>
					<path fill="#FFFFFF" d="M24.9,249.3c0,0-0.5-0.2-0.4-0.2C24.6,249.2,24.8,249.3,24.9,249.3z"/>
					<path fill="#FFFFFF" d="M21.3,244.4l-0.2,0C21.2,244.4,21.2,244.4,21.3,244.4z"/>
					<path fill="#FFFFFF" d="M20.7,243c0.1,0.4,0,1,0.3,1.4l0.1,0C20.8,244.2,21,243.2,20.7,243z"/>
					<path fill="#FFFFFF" d="M20.8,236.5l0.1,1.2c0.1-0.2,0.3-0.6,0.4,0C21.4,236.1,21.1,238.1,20.8,236.5z"/>
					<path fill="#FFFFFF" d="M20.3,232.8c0.2,0.6,0.2,0,0.3,0C20.5,232.4,20.4,232.3,20.3,232.8z"/>
					<path fill="#FFFFFF" d="M18.7,205.4l0.4,0.1C19,205,18.9,205.5,18.7,205.4z"/>
					<polygon fill="#FFFFFF" points="16.8,200.2 16.6,200.7 16.9,200.9 					"/>
					<polygon fill="#FFFFFF" points="19.4,197.1 19.4,197.3 19.3,196.4 					"/>
					<path fill="#FFFFFF" d="M18.3,150.7l-0.4,0.2C17.9,151.2,18.4,151.3,18.3,150.7z"/>
					<path fill="#FFFFFF" d="M13.6,130.9c0.1-0.3,0-0.9-0.4-1.1C13.4,130.2,13.4,130.7,13.6,130.9z"/>
					<polygon fill="#FFFFFF" points="19.5,78.1 19.6,78.5 19.5,77.8 					"/>
				</g>
			</g>
		</g>
	</g>
</g>
</svg>
