<?xml version="1.0" encoding="utf-8"?>
<!-- Generator: Adobe Illustrator 17.1.0, SVG Export Plug-In . SVG Version: 6.00 Build 0)  -->
<!DOCTYPE svg PUBLIC "-//W3C//DTD SVG 1.1//EN" "http://www.w3.org/Graphics/SVG/1.1/DTD/svg11.dtd">
<svg version="1.1" id="Layer_1" xmlns="http://www.w3.org/2000/svg" xmlns:xlink="http://www.w3.org/1999/xlink" x="0px" y="0px"
	 viewBox="0 0 28.7 251.3" enable-background="new 0 0 28.7 251.3" xml:space="preserve">
<g>
	<g>
		<g>
			<g>
				<g>
					<path fill="#FFFFFF" d="M2.1,249c-0.1,0.1-0.1,0.3,0.3,0.2l0.2-0.4L2.1,249z"/>
					<path fill="#FFFFFF" d="M4.5,249c0.4-0.3,0.6-0.9,0.2-1c-0.2,0.5-0.3,0.4-0.6,0.9c-0.3,0.2-0.6,0.1-0.6,0
						c-0.1,0.1-0.5,0.1-0.7,0.3c0.3,0.1,0.5,0.1,0.8,0c0.3,0,0.6-0.2,0.8-0.5C4.6,248.8,4.5,249,4.5,249z"/>
					<path fill="#FFFFFF" d="M13.6,213.9l0,0.2C13.5,214,13.5,214,13.6,213.9z"/>
					<path fill="#FFFFFF" d="M14,190.7c0,0.2,0,0.2,0.1,0.3C14,190.8,14,190.7,14,190.7z"/>
					<path fill="#FFFFFF" d="M14.3,186.8c0,0.1,0,0.2,0,0.2C14.4,186.9,14.4,186.8,14.3,186.8z"/>
					<path fill="#FFFFFF" d="M13.6,213.9l0.1-0.6C13.6,213.2,13.6,213.6,13.6,213.9z"/>
					<path fill="#FFFFFF" d="M7.3,245c0,0.1-0.1,0.2-0.1,0.3C7.3,245.3,7.3,245.2,7.3,245C7.4,245,7.4,245,7.3,245z"/>
					<path fill="#FFFFFF" d="M13.3,224.1l0,0.2c0,0.1,0.1,0.1,0.1,0.2L13.3,224.1z"/>
					<path fill="#FFFFFF" d="M12.6,231.9c0-0.2-0.2-0.3-0.3-0.4c0.1,0.1,0.1,0.3,0.1,0.4C12.4,232,12.5,232,12.6,231.9z"/>
					<path fill="#FFFFFF" d="M9.1,244l-0.1,0.2C9.1,244.1,9.1,244,9.1,244z"/>
					<path fill="#FFFFFF" d="M13.7,218.5c0,0,0.1,0,0.1-0.1C13.8,218.4,13.7,218.5,13.7,218.5z"/>
					<path fill="#FFFFFF" d="M7.5,7.6C7.5,7.6,7.5,7.6,7.5,7.6C7.5,7.6,7.5,7.6,7.5,7.6z"/>
					<path fill="#FFFFFF" d="M2.1,1.6l0.1,0c0-0.1,0-0.1,0-0.2L2.1,1.6z"/>
					<path fill="#FFFFFF" d="M14.7,179.5C14.7,179.6,14.7,179.6,14.7,179.5C14.7,179.8,14.7,179.7,14.7,179.5z"/>
					<path fill="#FFFFFF" d="M19.4,119.3c0.1,0.8-0.8-0.9-0.6,0.2C18.8,119.3,19.6,120.2,19.4,119.3z"/>
					<path fill="#FFFFFF" d="M7.5,244.9l0.1-0.3C7.5,244.7,7.5,244.8,7.5,244.9z"/>
					<path fill="#FFFFFF" d="M18.8,119.5L18.8,119.5l0,0.1C18.8,119.5,18.8,119.5,18.8,119.5z"/>
					<path fill="#FFFFFF" d="M14.8,162.9c-0.1,0-0.1,0.1-0.1,0.2C14.7,163.1,14.8,163,14.8,162.9z"/>
					<path fill="#FFFFFF" d="M14.2,175.3l0-0.3C14.2,175.1,14.2,175.2,14.2,175.3z"/>
					<path fill="#FFFFFF" d="M14.7,156.5c0-0.2,0.1-0.2,0-0.4c0,0,0,0,0,0.1C14.8,156.2,14.8,156.3,14.7,156.5z"/>
					<path fill="#FFFFFF" d="M15.2,149.8c0,0,0,0.1-0.1,0.1c0,0.1,0,0.1,0,0.2L15.2,149.8z"/>
					<path fill="#FFFFFF" d="M11.4,27.1c0.1-0.2,0.1-0.2,0.2-0.3C11.4,26.9,11.3,25.9,11.4,27.1z"/>
					<path fill="#FFFFFF" d="M7.5,245.1c0-0.1,0-0.1,0-0.2c0,0.1-0.1,0.1-0.1,0.2C7.4,245.1,7.4,245.1,7.5,245.1z"/>
					<path fill="#FFFFFF" d="M12.5,156.1l0.1-1.1C12.6,155.3,12.5,155.7,12.5,156.1z"/>
					<path fill="#FFFFFF" d="M12.2,75.1l0-0.2C12.2,75,12.2,75.1,12.2,75.1z"/>
					<path fill="#FFFFFF" d="M12.8,151.8c0.1-0.2,0.2-0.4,0.2-0.6c0,0,0-0.1-0.1-0.1L12.8,151.8z"/>
					<path fill="#FFFFFF" d="M11.6,26.8L11.6,26.8L11.6,26.8z"/>
					<path fill="#FFFFFF" d="M10.2,19.9c0.1,1,0.4,0.4,0.7,0.6c0.2,1.2-0.2,0.6-0.3,1c0.2,0.7,0.6,1.3,0.6,1.8c-0.1,0-0.1,0.2-0.2,0
						c0.4,0.8,0.2,2.3,0.7,3.2c0,0.1-0.1,0.1-0.1,0.1c0.2-0.2,0.4-0.2,0.5-0.2c0,0.5,0.3,0.8,0.1,1c0-0.3-0.1-0.3-0.2-0.4l0.1,0.5
						C11.8,28.1,12,27,11.7,27c0.2,0.9,0.5,2,0.5,2.7c-0.3,0.2-0.2-1.6-0.5-0.7l0.1-1.1c-0.5,0.9,0-0.7-0.5,0.1c0,1.4,0.3,1.6,0.3,3
						c0.2,0.3,0.3-0.1,0.5,0.2c0.4,2-0.8,1.7-0.3,3.1c0.2,0.4,0.7,0.5,0.5,1.6l-0.4-0.4c0,1.4,0.6,0.8,0.4,2.3
						C12,37.7,12,36.8,12,37.1c-0.3,1,0.2,0.7,0.3,1.4l-0.3,0.2c0.1,1.5,0.4,3.1,0.5,4.8c-0.1-0.1-0.2-0.4-0.3,0
						c0.2,2.1,0,4.5-0.2,6.5l0.3,0.8c0,0.2-0.1,0.3-0.2,0.1c-0.1,0.8,0.2,0,0.3,0.4c0,0.4-0.2,0.6-0.3,0.3c0.3,1.4,0.6,3.9,0.2,5.4
						l-0.1-0.3c-0.1,1.1,0.6,1.3,0.3,2.3l-0.1-0.2c-0.1,2.5,0.1,5.2-0.3,7.1c0.4,0.4-0.2,2.4,0.4,2.6c-0.3,1.4-0.4,1-0.6,3
						c0,0.5,0.4,0.8,0.4,1.4l-0.3,0l0.3,0.9l-0.4,0.5l0.1,0.6c0-0.2,0.1-0.5,0.2-0.5c0.1,1-0.2,2.3-0.4,2.4l0.3,2.3
						c-0.1,0-0.2-0.4-0.3-0.7c0.3,1.2-0.3,0.2,0,1.3c0.1-0.2,0.2,0.1,0.2,0.1c-0.2,0.6-0.2,1.8-0.1,2.8L12,82.3
						c0,1.7,0.2,3.6,0.2,5.5c0.1-0.7,0.4-0.5,0.5,0L12.5,88c0.2,0.4,0.1-0.6,0.4,0.1c0,0.7-0.4,0.5-0.5,0.1l0.1,0.9
						c-0.1,0.1-0.2-0.1-0.3-0.2c0.2,0.3-0.3,1.5,0.1,2L12.2,91c0.1,1.9,0.2,2.8,0.3,4.3c0.3,0,0.3,0.6,0.5,1.1c0,1.1-0.1,2.4,0,3.8
						c0.2,0.9,0.3,0.3,0.5,0.7c-0.2,0.1-0.1,1.5-0.3,0.8c0.2,1.6,0.3,2.1,0.7,4.1c0.1-0.2,0.1-0.5,0.2-0.4c0.1,0.4,0,0.9-0.1,0.8
						l0-0.1c0.7,2.3,0.1,5.5,1,7.2l-0.1-0.1c0,0,0.2,0.5,0.4,0.9c0.2,0.5,0.4,0.9,0.4,0.9c0.2,0.9-0.3-0.5-0.3,0.2
						c1,1.9,0.9,3.3,1.9,4.8c-0.1,0.8,0.5,1.9,1.3,3c0.4,0.6,0.9,1.1,1.3,1.6c0.5,0.4,1.1,1.1,0.9,1l0.1-0.1c0.2,0,0,0.1,0,0.1
						c0.2,0,0.1-0.1,0.3-0.1c0.2,0.1,0.4,0.1,0.6,0.2c-0.2,0.1-0.5,0.1-0.7,0.2L21,126c0,0-0.1,0.1-0.2,0.2l-0.3,0.2l-0.6,0.5
						l-0.5,0.5c-1.3,1.4-2.3,2.9-3,4.5c-0.6,1.4,0.5,1.1-0.5,2.8l-0.1-0.6c-0.6,3-1.6,6-1.7,9c0-0.2-0.1-0.2-0.1-0.5
						c-0.3,0.6-0.4,2.3-0.2,2.3c-0.1,0.4-0.2,0.1-0.3,0.3c-0.2,0.6,0.1,1.6-0.2,1.9c0,0.1-0.1-0.2-0.1-0.3c0.1,0.4-0.2,1.9,0.1,1.5
						c-0.3,1.1-0.1,2.1-0.3,2.9c0.3,0.6-0.3,1.9,0.1,2.1c-0.5-0.1-0.5,1.9-0.3,2.6c-0.1-0.2-0.2,0.6-0.4,0.3c0,0.8,0,1.5,0.2,1.4
						c-0.6,1.4,0.3,2.9-0.4,3.7c0.2,2.3,0.3,4.5,0.3,6.6c-0.5-0.1,0-2.3-0.5-2.2c0.1,2,0.5,3.1,0.4,5.1c-0.1,0.5-0.2-0.3-0.3-0.5
						c0.2,2-0.1,3.8,0.1,5.6c0,0-0.1-0.2-0.1-0.4c0,0.3-0.1,0.8,0.1,0.8l-0.1-0.3c0.3-0.6,0.6,1.4,0.8,1.4c-0.6-0.6-0.2,1.7-0.9,0.8
						c0,0.2,0.1,0.5,0.3,0.5c0,0.3-0.1,0.4-0.3,0.1c0.1,1.2,0.3,0.8,0.3,1.9c-0.1,0-0.1-0.2-0.3-0.3c0.2,0.6,0.4,1.1,0.3,2.1
						c-0.1-0.1-0.1,0.1-0.1-0.2c0,1.6,0.5,2.8,0.3,4.6c-0.4-0.5-0.1,0.6-0.5,0.7l0.1,1l0.2-0.4c0,0.8,0.3,1.6,0.1,2.3l-0.2-0.6
						l0.1,1.6l0.1-0.9c0.2,0.9,0.5-0.1,0.4,1c0-0.2,0,0.8-0.2,1.3l0,0c0.1,0.4,0.2,0.8,0.2,1.5c-0.1,0.2-0.4-0.1-0.5,0
						c0.3,0.4,0.1,2,0.4,2.5c-0.1-0.2-0.3-0.2-0.3-0.1l0.3,0.3c-0.1,0.4-0.1,0.4-0.3,0.4c-0.1,1.2,0.5-0.4,0.3,1
						c0-0.1-0.1-0.1-0.1-0.3c-0.1,1.4,0.1,2.7,0,4c-0.4,0.4-0.1-1.1-0.4-0.7c0.1,1.9,0.4,3.9,0.3,5.7l0-0.3c0.5,0.3-0.3,1.3,0,2.2
						c0-0.2-0.3-0.3-0.2-0.2c-0.1,1.2,0.1,2.5,0.2,4.4l-0.1-0.2c-0.1,0.7-0.1,1.9-0.2,2.7c0.1,0.2,0.1,0.7,0.3,0.4
						c-0.9,2.4,0.2,4.6-0.6,6.7c0-0.3-0.1-0.6-0.1-0.4l0,1.8c0.2-0.1,0.2-0.2,0.4-0.6c0.1,0.2,0.2,0.8,0.2,1.2
						c-0.1-0.8-0.4,0-0.5,0.3c0.1-0.1,0.1,0.1,0.2,0c-0.5,0.9,0.5,0.2,0.1,1.5l-0.1-0.1c0,0.5,0.1,1,0,1.5c-0.3,0.2-0.1-0.5-0.3-0.6
						c-0.1,0.7,0.4,1.5,0,2.1c0-0.3,0-0.8,0-1.1c-0.4,0.7-0.3,0.8-0.4,1.3l0-0.1l-0.3,1.2l0.1-0.3c0.6,1-0.1,1.9,0.1,3.2
						c-0.2-1.3-0.2-0.2-0.5-0.4c-0.1,0.3-0.3,0.8-0.4,0.6c0.2,0.6-0.3,0.9-0.1,1.8c-0.1,0-0.1,0.6-0.3,0.4c-0.1,0.8,0.2-0.1,0.3-0.1
						c0.1,1.2-1,2.6-1,4.3c-0.2,1.4,0,1.8-0.4,3.1c-0.3,0.4-0.2-0.5-0.2-0.5c-0.4,0.6-0.6,1.1-0.8,1.8c0-0.2-0.1-0.1-0.3,0.1
						c-0.2,0.5,0.1,0.5-0.4,1c0-0.2-0.1-0.4,0-0.7c-0.3,0.6-0.4,1.2-0.8,1.7c-0.2,0,0.1-0.5,0.1-0.7c-0.4,0.6-1.1,1.5-1.1,1.8
						c0,0,0.4-0.2,0.4-0.2c-0.2,0.2-0.2-0.1-0.1-0.3c0.2-0.3,0.3-0.4,0.5-0.5c0.1-0.1,0.3-0.1,0.3-0.1c0,0-0.3,0.4-0.3,0.4
						c0.4,0.1,0.7-0.4,0.9-0.8c0.2-0.5,0.4-1.1,0.7-1.5l0.2,0.6c0,0,0.1-0.3,0.1-0.5c0-0.3,0.1-0.5,0.1-0.5c0.2-0.1,0.5-0.2,0.3,0.3
						c0.5-0.5,0.1-0.6,0.6-1.1c0.1,0,0.1,0,0.1,0.1l0.2-0.7c0,0.2,0.3,0,0.1,0.4c0.7-1.1,0.4-2,0.8-2.3l0,0.1
						c0.4-1.7-0.2-0.3-0.2-1.6l0.9-0.6l-0.3-0.2c0.1-0.2,0.2-0.5,0.3-0.4c-0.1-0.7-0.2,0.1-0.3-0.3c0.5-0.8,0.4-2.3,0.9-2.4
						c-0.2-0.3-0.3,0.8-0.3-0.2c0.6-0.2,0.1-1,0.5-1.8c0.2,0.3,0,1,0.3,0.3c-0.4-0.5,0.3-1.5,0.3-2.2c-0.4-0.1,0-1.4,0-2.5
						c0.1,0.1,0.4-2,0.6-3l0.1,0c-0.3-0.2-0.2-1.3-0.2-2c0.2,0,0.3,0.2,0.4,0.6l0.1-0.7c-0.1-0.2-0.2-0.4-0.2-0.9l0.3,0.2
						c0-1-0.2-2,0.1-3.2c-0.3-0.1-0.8,0.9-0.9-0.4c0.1,0,0.4-0.1,0.4,0.3c0-0.1-0.1-0.4,0-0.6l0.2,0.5c0.1-0.6-0.2-0.3-0.1-0.8
						c0.2,0,0.2-0.3,0.3-0.3c0,0.1-0.1,0.4,0,0.6c0.1-0.5,0.2-1.1,0.4-1.3c-0.1,0-0.3,0-0.3-0.4c0-1,0.3-0.3,0.4-0.9
						c-0.1-0.2,0-0.8-0.3-0.9c0-0.3,0.2-0.3,0.2-0.4c-0.1-0.5,0-2.3-0.3-1.8l0,0.1c0,0,0-0.1,0-0.1l0,0l0,0c-0.2-1.6,0.3-3.4,0.2-5
						l0.1,0c-0.1-1,0-2.1-0.2-2.8c0-0.3,0.2-0.7,0.3-0.5c-0.1-0.7-0.2-0.8,0-1.9c0.2,0.7,0.2-0.3,0.1,0.8c0.1-1,0.3-1.2,0-2.2
						c0.3,0.4,0.3-0.7,0.3-1.2L14,202c0-0.5,0-1,0-1.4l0.3,0.2c0.4-2-0.7-3.5,0-5c-0.2-0.5-0.2,1.1-0.4,0.6c0-0.9,0.5-1.8,0.5-2.1
						c0.2-1.2-0.5-1.2-0.4-2.4c-0.1,0.2-0.4,0.3-0.5-0.6c0-0.9,0.5-1.1,0.6-0.5c0,0.2,0,0.3-0.1,0.3c0,0.3,0.1,0.7,0.2,0.3l-0.1-0.1
						c0.1-0.4,0.1-1.7,0.3-1.4c-0.1-0.7-0.2-0.3-0.3,0.2c0.2-1.2,0-1.8,0.1-3c-0.1,0.2-0.2,0.4-0.2,0.2c0.1-1.7-0.2-0.8-0.3-2
						c0.2-0.7,0.4,0.2,0.3-0.9c0.1-0.7,0.3-0.2,0.4,0.1c-0.2-1.1,0.2-2,0.2-2.6l0.1,0.6c-0.1-0.3-0.1-0.6-0.1-0.9l-0.2,0.3
						c0-0.3,0-0.6,0.1-0.6c-0.2-0.3-0.4,0.3-0.6-0.4c0.1-0.4-0.1-1.4,0.2-1.5c-0.1,1.4,0.3-0.2,0.4,1c0-0.2,0-0.5,0-0.8
						c0-0.1,0.1,0,0.1,0.1c0.3-1.3-0.4-0.6-0.3-2c0.2,0.2,0.3-0.3,0.3-0.5c0,0.6-0.3,0.3-0.4-0.2c0.1-0.9-0.1-1-0.1-1.4l-0.1,0.5
						c-0.2-0.2-0.2-0.6-0.2-1.3c0.1-0.1,0.1,0.6,0.2,0.3c-0.3-0.7,0.3-1.6,0.1-2.5c0.1-0.4,0.3,0,0.4-0.4c-0.2-1.1,0.3-1.2,0.1-2.3
						c-0.2,0.3-0.2,0.4-0.4-0.4l0.1,1.9l-0.3-1.2c0,0.6,0.1,1.2,0.1,1.5c-0.2-0.6-0.1-0.5-0.3-0.2c0.4-0.8-0.2-1.5,0.1-2.4l0.6,0
						c0.3-1.3-0.3-2.4-0.1-4.1l-0.1,0.6c-0.2-0.2,0-1.1-0.1-1.6c0.2,0.1,0.3-0.3,0.4-0.5c-0.1,0,0.1-1.3-0.3-1.4l0.3-0.8
						c0.2-1.4-0.5-1.6-0.4-3c0.2,0.4,0.4-0.2,0.5,0.7c0-0.4,0.1-0.9-0.1-0.9c0.1-0.3-0.2-1.3,0-1.7c-0.1-0.2-0.3-0.3-0.2-0.8
						c0-0.1,0.1,0,0.1,0c-0.1,0-0.1-0.8-0.3-0.4c0.7-1.3,0.2-3.9,0.9-5c0-1,0.1-2.2,0.2-3c0.1,0.1,0.1,0,0.1,0.2
						c0.3-1.2-0.5-0.8-0.1-2.2c0.4-0.7,0.1,0.8,0.3,0.3c0.7-0.1,0.2-1.7,0.7-2.5l0,0.2c0.3-0.7,0-1.8,0.3-2.9c0,0,0,0.1,0.1,0
						c-0.2-0.8,0.1-2.4,0.3-3.5c0.1,0.4,0,0.5,0.3,0.4c0.1-0.5-0.4,0-0.2-1c0.2-0.3,0.5-0.9,0.8-0.9c0,0-0.1,0.2-0.1,0.4
						c-0.1,0.2-0.1,0.5-0.1,0.5c0.5-0.4,0.3-1.2,0.6-1.6l0.1,0.1c0.2-0.7,0.2-1,0.3-1.4c0-0.4,0.1-0.8,0.5-1.5l-0.2,0.1
						c0-0.9,0.5-0.5,0.7-1.4l0.5,0c0.1-0.3,0.3-0.7,0.5-1.2c0.3-0.5,0.6-1,0.9-1.3c-0.2,0.6-0.8,1.5-1,2.2c0.3-0.5,1-1.4,1.1-1.7
						c-0.1,0.2-0.2,0.4-0.4,0.6c0.1-0.3,0.3-0.7,0.5-1c0.2-0.2,0.2-0.3,0.5-0.5c0.3-0.2,0.5-0.3,0.9-0.5c0.1,0.1,0.3,0.1,0.6,0.1
						c0.3,0,0.7-0.1,1.2-0.2c0.5-0.1,1.1-0.3,1.5-0.4c0.5-0.1,1-0.3,1.6-0.4c-0.5-0.1-1-0.3-1.3-0.4c-0.3-0.1-0.7-0.3-0.8-0.5
						l-1-0.2c-0.3-0.1-0.6-0.2-0.8-0.3c-0.4-0.2-0.8-0.4-1.2-0.6l-0.3-0.1l-0.1-0.1l-0.2-0.2c-0.2-0.2-0.3-0.3-0.5-0.5
						c-0.6-0.7-1.1-1.6-1.6-2.5c-0.1,1-0.3-0.5-0.8-0.2c-0.3-0.5-0.3-0.6-0.3-0.7c0,0-0.1-0.4-0.2-0.8c-0.1-0.4-0.1-0.8-0.1-0.8
						c0-0.4,0.3,0.4,0.4,0.3c-0.4-1.1,0.1-0.5,0-1.3c-0.2,0.2-0.4-0.3-0.5-0.9l0,1c-0.8-1.4,0.1-1.5-0.7-2.9l0.3,0.4
						c-0.2-0.4-0.3-1.1-0.6-1.9c-0.2-0.7-0.4-1.5-0.8-1.8c0-0.2,0.2-0.4,0.3,0c-0.3-2-1.2-4.3-1.1-5.9l0.2,0.1
						c-0.1-0.4-0.4-0.6-0.3-1.1c0.1,0,0.2,0.1,0.2,0c-0.1-0.2-0.4-1-0.3-1.5l0.2,0.4c0-2-0.7-3-0.9-4.6c0.4,0,0.5-1.6,0.5-2.4l0.1,0
						c-0.1-2.3-0.6-3.9-0.8-6c0.4-1.3,0-4.5,0.3-6.6c-0.1,0.3-0.3,0-0.4-0.4c0.1-0.5-0.3-1.4,0.1-1.3l0,0.2c0.4-0.4,0.3-1.4,0.3-2.2
						l-0.5-0.1c0.7-2.1-0.3-5.5,0.3-6.7c-0.1-0.5-0.1-1.1-0.3-1.6l0.3,0c0.1-1.4,0.1-2.1,0-3.9l0.2,0.4c0-1-0.8-1.2-0.8-2.1l0.4-0.3
						c0-1.7,0.4-3.4,0-5.1c0.1,0,0.2,0.1,0.2,0.4c0-0.8,0.3-3.1-0.3-2.8c0.4,0,0-1.8-0.1-2.7l0.3,0.1C14.1,54,14,54,13.9,52.9
						c0-0.3,0.2-0.2,0.2,0.1c0.1-0.9-0.3-0.7-0.1-1.7l0.2,0.4c0-0.9-0.1-0.8-0.3-1.3c-0.1-0.6,0.1-1.7,0.3-1.8
						c-0.2-0.1-0.4-0.6-0.3-1.1c0.1-0.1,0.2,0.1,0.2,0.2c0.2-1.5-0.3-2.2-0.1-3.2c0.1,0,0.1-0.1,0.2-0.2c0,1.2,0,2.1,0,2
						c0.3,0,0.3-1,0.7-0.2c-0.2-0.8-0.6-2.1-0.5-3c0,0,0-0.1,0.1-0.1l0,0.1c0-0.2,0-0.4-0.1-0.6c0-0.3,0.1-0.5,0.1-0.8
						c0.2-0.1,0.1-1.1,0.1-1.6c-0.3,0-0.2-0.6-0.5,0c0-0.1,0,0.1,0.1,0.4c0,0.1,0,0.2,0,0.2l0,0c0,0.3,0,0.7,0,1.2
						c-0.2-0.4-0.3-0.8-0.1-1.3c-0.2-0.2-0.4-0.5-0.5-0.7c0.4-0.7,0.6-1.9,0.8-2.1c-0.2-1.4-0.2-3.4-0.8-4.3
						c-0.1-0.4,0.1-0.5,0.2-0.6c0.1,0.2,0.1,0.5,0.1,0.6c-0.2-0.8-0.2-2.4-0.6-2.6c0.1-1,0.4,0.6,0.2-0.9l0.1,0.2
						c0.4-2.9-1.2-4.5-0.8-7.7c0,0.2,0,0.3-0.1,0.4c0-3.6-1.2-7.2-1.5-10.8c-0.2-1-0.4-1.1-0.7-1.6l0.2-0.3L10,9.4
						c-0.4-0.7-0.4-1.3-0.6-2C9.4,6.7,9.1,5.9,8.4,5.2l0,0.3C8.2,5.2,7.9,4.8,7.6,4.4C7.4,4,7.2,3.8,7.3,3.7c-0.1,0-0.3,0-0.4-0.3
						L7,3.3c0,0-0.4-0.3-0.7-0.5C6.1,2.6,5.9,2.6,5.7,2.5C5.6,2.4,5.5,2.4,5.5,2.4C4.9,1.9,5,1.9,5.1,1.7c0-0.1,0-0.4-1-0.7
						c-0.4-0.1-1-0.1-1.4,0C2.2,1.1,2,1.2,2.1,1.2c0.3,0,0.8,0.2,0.8,0.3l-0.6,0C2,2,1.7,2.5,2.9,2.9c0,0,0.9-0.1,0.9,0L4,3.2
						c0,0-0.2-0.1-0.3-0.2C3.5,3,3.3,3,3.3,3c0.3,0.3,0.6,0.3,0.9,0.3c0,0.1,0.1,0.3,0.2,0.4c0,0,1,0.1,1,0.2c0,0.2-0.5,0-0.2,0.5
						c0.5,0.1,0-0.6,0.6-0.2c0.2,0.5-0.1,0.5,0.4,0.8c0,0.1-0.2,0.1-0.4,0c0.4,0.3,0.8,1,1.1,1.1c0,0.6,0.9,1.5,0.4,1.6
						c0.2,0.1,0.7,0.7,0.9,1.1C7.6,8.1,9,10.4,8.4,10.4c0.7,0.5,0.9,2.2,1.4,3.3c-0.1-0.1-0.2-0.2-0.2-0.3c0.1,0.6,0,0.9,0,1.3
						c0.4,0,0.7,1,1,1.5c-0.2,0.9-0.5-0.4-0.9-0.1c0.3-0.1,0.6,1.3,0.8,1c-0.1,0.6,0,0.5-0.3,0.9c0.5,0,0.2,0.6,0.5,1
						c-0.1,0.9-0.4,0.3-0.1,1.2C10.5,20.8,10.2,19.9,10.2,19.9z M12.5,43.4L12.5,43.4c0-0.2,0-0.4,0-0.5
						C12.5,43,12.5,43.2,12.5,43.4z M12.5,45.4c0-0.2,0-0.5,0-0.9c0.1-0.1,0.2,0,0.2,0.2C12.6,44.6,12.6,45.1,12.5,45.4z M14.4,41.1
						c0,0.3,0,0.4-0.1,0.5c0-0.1,0-0.3,0-0.6c0,0,0,0,0,0C14.3,41,14.3,41.1,14.4,41.1z"/>
					<path fill="#FFFFFF" d="M14,40.6c0,0,0-0.1,0-0.1C14,40.5,13.9,40.6,14,40.6c-0.1,0.1,0,0.1,0,0.2C14,40.7,14,40.6,14,40.6z"/>
					<path fill="#FFFFFF" d="M13.5,214.2L13.5,214.2C13.5,214.1,13.5,214.2,13.5,214.2C13.5,214.2,13.5,214.2,13.5,214.2z"/>
					<polygon fill="#FFFFFF" points="12.1,72.9 12.1,72.9 12.1,72.7 					"/>
					<path fill="#FFFFFF" d="M12,225.1c0,0-0.1,0.1-0.1,0.1C11.9,225.2,11.9,225.1,12,225.1z"/>
					<path fill="#FFFFFF" d="M11.4,229.8l-0.2,0.7C11.3,230.1,11.4,229.9,11.4,229.8z"/>
					<path fill="#FFFFFF" d="M10.8,233.3c0,0.1,0.1,0.1,0.1,0.1l0,0L10.8,233.3z"/>
					<path fill="#FFFFFF" d="M12.3,175.5c0,0,0-0.1,0-0.1C12.2,175.1,12.2,175.3,12.3,175.5z"/>
					<path fill="#FFFFFF" d="M12.9,192.8c-0.1-0.2-0.1-0.4-0.1-0.6C12.8,192.5,12.7,192.8,12.9,192.8z"/>
					<polygon fill="#FFFFFF" points="12.5,156.2 12.5,156.2 12.5,156.1 					"/>
					<path fill="#FFFFFF" d="M12.8,191.4c-0.1,0.3,0,0.6,0,0.8C12.8,192,12.8,191.7,12.8,191.4z"/>
					<path fill="#FFFFFF" d="M5.5,247.4l-0.1,0.1c0,0,0,0,0,0L5.5,247.4z"/>
					<path fill="#FFFFFF" d="M5.4,247.5l-0.1,0.1C5.4,247.6,5.4,247.5,5.4,247.5z"/>
					<path fill="#FFFFFF" d="M5.1,247.9c0,0,0.3-0.3,0.3-0.3C5.2,247.7,5.1,247.8,5.1,247.9z"/>
					<path fill="#FFFFFF" d="M8.1,243.7L8.1,243.7C8,243.7,8.1,243.7,8.1,243.7z"/>
					<path fill="#FFFFFF" d="M8.6,242.4c-0.1,0.3-0.5,0.7-0.6,1.2l0.1,0.1C8,243.4,8.7,242.8,8.6,242.4z"/>
					<path fill="#FFFFFF" d="M11.4,236.9l-0.3,1.2c0.2-0.2,0.4-0.4,0.3,0.1C12,236.7,11.1,238.5,11.4,236.9z"/>
					<path fill="#FFFFFF" d="M12.3,233.1c-0.1,0.7,0.2,0,0.2,0.1C12.4,232.7,12.4,232.6,12.3,233.1z"/>
					<path fill="#FFFFFF" d="M13.9,205.6l0.3,0.1C14.1,205.1,14.1,205.6,13.9,205.6z"/>
					<polygon fill="#FFFFFF" points="12.6,200.3 12.5,200.8 12.7,201 					"/>
					<polygon fill="#FFFFFF" points="14.5,197.2 14.5,197.4 14.4,196.5 					"/>
					<path fill="#FFFFFF" d="M15.4,151l-0.3,0.1C15.1,151.5,15.4,151.6,15.4,151z"/>
					<path fill="#FFFFFF" d="M19.1,131.8c0.2-0.1,0.5-0.6,0.6-0.9C19.4,131.2,19.1,131.6,19.1,131.8z"/>
					<polygon fill="#FFFFFF" points="14.6,78.2 14.7,78.6 14.7,77.8 					"/>
				</g>
			</g>
		</g>
	</g>
</g>
</svg>
