<?xml version="1.0" encoding="utf-8"?>
<!-- Generator: Adobe Illustrator 18.0.0, SVG Export Plug-In . SVG Version: 6.00 Build 0)  -->
<!DOCTYPE svg PUBLIC "-//W3C//DTD SVG 1.1//EN" "http://www.w3.org/Graphics/SVG/1.1/DTD/svg11.dtd">
<svg version="1.1" id="Layer_1" xmlns="http://www.w3.org/2000/svg" xmlns:xlink="http://www.w3.org/1999/xlink" x="0px" y="0px"
	 viewBox="0 0 250.6 29.1" enable-background="new 0 0 250.6 29.1" xml:space="preserve">
<g>
	<g>
		<g>
			<g>
				<g>
					<path fill="#FFFFFF" d="M250.5,29c-0.1,0.1-0.4,0.1-0.4-0.4c0,0,0.1-0.1,0.2-0.2c0.1-0.1,0.2-0.2,0.2-0.2L250.5,29z"/>
					<path fill="#FFFFFF" d="M249.1,26.5c0.1-0.5,0-1.2,0.6-1.2c-0.1,0.7,0.1,0.7-0.2,1.4c0.1,0.4,0.3,0.6,0.5,0.5
						c-0.1,0.2,0.3,0.6,0,0.9c-0.2-0.2-0.4-0.5-0.5-0.8c-0.1-0.3-0.1-0.6-0.2-1C249.2,26.2,249.1,26.4,249.1,26.5z"/>
					<path fill="#FFFFFF" d="M213.7,18.6l0.2,0C213.9,18.6,213.8,18.6,213.7,18.6z"/>
					<path fill="#FFFFFF" d="M190.6,18.7c0.2,0,0.2,0.1,0.3,0.1C190.7,18.7,190.6,18.7,190.6,18.7z"/>
					<path fill="#FFFFFF" d="M186.7,19.2c0.1,0,0.2,0,0.2,0C186.8,19.2,186.7,19.2,186.7,19.2z"/>
					<path fill="#FFFFFF" d="M213.7,18.6l-0.6,0.1C213.1,18.6,213.4,18.7,213.7,18.6z"/>
					<path fill="#FFFFFF" d="M245.9,21.9c0.1,0.1,0.2,0.2,0.3,0.3C246.1,22.1,246,22.1,245.9,21.9C245.9,22,245.9,21.9,245.9,21.9z"
						/>
					<path fill="#FFFFFF" d="M223.9,19.5l0.2,0c0.1,0.1,0.1,0.1,0.1,0.2L223.9,19.5z"/>
					<path fill="#FFFFFF" d="M231.6,20.4c-0.2,0-0.2-0.4-0.2-0.6c0.1,0.2,0.2,0.3,0.3,0.3C231.7,20.2,231.7,20.3,231.6,20.4z"/>
					<path fill="#FFFFFF" d="M243.6,22.6l0.2,0.1C243.7,22.7,243.7,22.6,243.6,22.6z"/>
					<path fill="#FFFFFF" d="M218.3,19.3c0,0.1,0,0.1-0.1,0.1C218.2,19.4,218.3,19.3,218.3,19.3z"/>
					<path fill="#FFFFFF" d="M6.2,20.7C6.2,20.7,6.2,20.7,6.2,20.7C6.2,20.7,6.1,20.7,6.2,20.7z"/>
					<path fill="#FFFFFF" d="M1.7,29l0-0.1c0.1,0,0.2,0,0.2,0L1.7,29z"/>
					<path fill="#FFFFFF" d="M179.4,19.7C179.4,19.7,179.5,19.7,179.4,19.7C179.7,19.7,179.5,19.7,179.4,19.7z"/>
					<path fill="#FFFFFF" d="M120.4,14.2c0.6-0.7-1.4,0.1-0.5-0.7C119.9,13.7,121.2,13.6,120.4,14.2z"/>
					<path fill="#FFFFFF" d="M245.7,21.9c-0.1-0.1-0.2-0.1-0.3-0.2C245.6,21.8,245.7,21.8,245.7,21.9z"/>
					<path fill="#FFFFFF" d="M119.9,13.5L119.9,13.5L119.9,13.5C120,13.4,120,13.4,119.9,13.5z"/>
					<path fill="#FFFFFF" d="M162.7,19.2c0-0.1,0.1-0.1,0.2-0.2C162.9,19,162.9,19.1,162.7,19.2z"/>
					<path fill="#FFFFFF" d="M175.2,18.8l-0.3,0.1C175,18.9,175.1,18.8,175.2,18.8z"/>
					<path fill="#FFFFFF" d="M156.3,18.3c-0.2,0-0.2,0.1-0.5,0c0,0,0,0,0.1,0C156,18.3,156.1,18.4,156.3,18.3z"/>
					<path fill="#FFFFFF" d="M149.5,17.8c0,0,0.1,0,0.1-0.1c0.1,0,0.1,0,0.2,0L149.5,17.8z"/>
					<path fill="#FFFFFF" d="M26.8,16.8c-0.1,0.1-0.2,0.3-0.3,0.4C26.6,16.9,25.6,16.9,26.8,16.8z"/>
					<path fill="#FFFFFF" d="M245.8,22.1c0-0.1,0-0.2-0.1-0.3c0.1,0,0.1,0.1,0.2,0.1C245.9,22.1,245.9,22.1,245.8,22.1z"/>
					<path fill="#FFFFFF" d="M156.2,15.1l-1.1,0C155.4,15.1,155.8,15.1,156.2,15.1z"/>
					<path fill="#FFFFFF" d="M75,16.1l-0.2,0C74.9,16,75,16,75,16.1z"/>
					<path fill="#FFFFFF" d="M152,14.8c-0.2,0.1-0.4,0.2-0.6,0.2c0,0-0.1-0.1-0.1-0.1L152,14.8z"/>
					<path fill="#FFFFFF" d="M26.5,17.2L26.5,17.2L26.5,17.2z"/>
					<path fill="#FFFFFF" d="M19.3,17c1-0.2,0.5,0.4,0.8,0.7c1.2,0,0.5-0.5,0.9-0.8c0.8,0.1,1.4,0.5,2,0.4c0-0.1,0.1-0.1,0-0.2
						c0.8,0.3,2.4-0.2,3.4,0.3c0.1-0.1,0.1-0.1,0.1-0.1c-0.1,0.3-0.1,0.5-0.1,0.7c0.5,0,0.9,0.3,1-0.1c-0.3,0-0.3-0.1-0.5-0.2
						l0.5,0.1c0.4-0.5-0.7-0.1-0.7-0.5c0.9,0.1,2.1,0.4,2.8,0.2c0.1-0.5-1.7-0.1-0.8-0.5l-1.1,0.3c0.8-0.8-0.7,0.1,0.1-0.8
						c1.5-0.2,1.7,0.1,3.1-0.1c0.3,0.3-0.1,0.4,0.3,0.7c2.1,0.4,1.6-1.3,3.1-0.7c0.4,0.3,0.6,0.9,1.7,0.6l-0.4-0.5
						c1.4-0.1,0.8,0.8,2.3,0.3c-0.3-0.2-1.1-0.1-0.9-0.2c0.9-0.5,0.7,0.3,1.4,0.3l0.1-0.5c1.5,0,3.2,0.3,4.8,0.4
						c-0.1-0.1-0.4-0.3,0-0.4c2.1,0.2,4.5-0.1,6.5-0.4l0.8,0.4c0.2,0,0.3-0.2,0.1-0.3c0.8-0.2,0,0.3,0.4,0.4c0.4,0,0.6-0.2,0.3-0.4
						c1.4,0.3,4,0.8,5.4,0.3l-0.3-0.1c1.1-0.2,1.3,0.9,2.3,0.5l-0.2-0.1c2.5-0.2,5.2,0.2,7.1-0.4c0.4,0.6,2.4-0.3,2.6,0.6
						c1.4-0.4,1-0.6,3-0.9c0.5,0,0.8,0.5,1.4,0.6l0-0.4l0.9,0.5l0.5-0.5l0.6,0.1c-0.2,0-0.5,0.2-0.5,0.3c1,0.2,2.3-0.3,2.4-0.6
						l2.3,0.3c-0.1-0.2-0.4-0.2-0.7-0.3c1.2,0.4,0.2-0.5,1.3-0.1c-0.1,0.1,0.1,0.3,0.1,0.4c0.5-0.3,1.8-0.3,2.7-0.2l-0.2-0.3
						c1.7-0.1,3.5,0.1,5.4,0c-0.7,0.2-0.5,0.7,0.1,0.7l0.2-0.5c0.4,0.3-0.6,0.2,0.2,0.5c0.7-0.1,0.5-0.5,0-0.7l0.9,0.1
						c0-0.1-0.2-0.2-0.2-0.4c0.4,0.3,1.5-0.5,2,0l0-0.1c1.9-0.1,2.7,0,4.3,0c0.1,0.4,0.6,0.3,1.1,0.6c1.1-0.2,2.3-0.6,3.7-0.7
						c1,0.1,0.3,0.3,0.8,0.5c0-0.4,1.4-0.5,0.7-0.7c1.6-0.1,2.1-0.1,4.1-0.1c-0.2,0.2-0.4,0.3-0.3,0.4c0.4,0,0.8-0.3,0.7-0.4l-0.1,0
						c2.4,0.3,5-1.9,6.9-1.5l-0.1,0c0,0,0.5,0,0.9,0c0.5,0,1,0,1,0c0.8-0.3-0.6-0.1,0-0.5c2.1,0.1,2.9-1,4.5-1.3
						c0.3-0.7,1.3-1.2,2.1-1.7c0.2-0.1,0.5-0.3,0.6-0.4c0.2-0.2,0.4-0.3,0.6-0.5c0.1-0.1,0.5-0.5,0.7-1c0.1-0.2,0.2-0.6,0.3-1
						c0.1-0.4,0.2-0.7,0.2-1.1l0,0.6c0.2-0.4,0.3-0.8,0.4-1.2c0.1-0.4,0.1-1.1,0.3-1.7c0,0.6-0.3,2,0,1.5c0.3-0.9,0.5-1.8,0.8-2.7
						c0.2-0.7,0.4-1.5,0.6-2.2l0.4,1.4l0.4,1.5c0.3,1.1,0.7,2.4,1,3.3l0.5,1.5c0.1,0.3,0.2,0.4,0.3,0.5c0.1,0.2,0.2,0.3,0.4,0.4
						c0.2,0.2,0.2,0.2,0.2,0.2c0.1,0.1,0.1,0.1,0.2,0.2l0.4,0.3c1.1,0.8,2.6,1.3,4,1.8c1.3,0.4,0.3,1.5,2.1,1.5l-0.3-0.6
						c2.5,1.4,5.6,1.4,8.3,2.3c-0.2-0.1-0.1-0.3-0.4-0.3c0.6-0.2,2.2,0.3,2.2,0.6c0.4,0,0.1-0.2,0.4-0.3c0.6-0.1,1.4,0.6,1.8,0.3
						c0.1,0-0.2-0.1-0.3-0.2c0.4,0.2,1.8,0.2,1.4,0.5c1.1-0.1,2,0.4,2.9,0.2c0.5,0.5,1.8-0.1,2,0.6c0-0.6,1.9-0.4,2.6,0
						c-0.2-0.2,0.6-0.2,0.4-0.5c0.8,0.1,1.5,0.2,1.3,0.5c1.5-0.7,2.8,0.8,3.7-0.2c2.3,0.4,4.4,0.7,6.5,0.9c-0.1-0.6-2.3-0.1-2.2-0.8
						c2,0.3,3.1,0.9,5.1,0.8c0.5-0.1-0.3-0.3-0.5-0.4c2,0.3,3.8,0,5.6,0.4c0-0.1-0.2-0.1-0.4-0.2c0.3,0,0.8-0.1,0.8,0.2l-0.3-0.1
						c-0.6,0.4,1.4,0.9,1.4,1.1c-0.6-0.8,1.7-0.2,0.8-1.3c0.2,0.1,0.5,0.2,0.5,0.4c0.3-0.1,0.4-0.2,0.1-0.4c1.2,0.2,0.8,0.5,1.9,0.5
						c0-0.1-0.2-0.2-0.3-0.4c0.6,0.3,1.1,0.6,2.1,0.4c-0.1-0.1,0.1-0.2-0.2-0.2c1.6,0,2.8,0.7,4.6,0.5c-0.5-0.6,0.6-0.2,0.7-0.7
						l1,0.2l-0.4,0.3c0.8,0,1.6,0.4,2.3,0.2l-0.6-0.2l1.6,0.1l-0.9,0.2c0.9,0.3-0.1,0.7,1,0.5c-0.2-0.1,0.8,0,1.3-0.3l0,0
						c0.4,0.2,0.8,0.4,1.5,0.2c0.2-0.2-0.1-0.6,0-0.7c0.4,0.4,2,0.1,2.5,0.6c-0.2-0.1-0.2-0.4-0.1-0.5l0.3,0.4
						c0.4-0.1,0.4-0.2,0.4-0.4c1.2-0.1-0.4,0.7,1,0.4c-0.1,0-0.1-0.1-0.3-0.1c1.4-0.1,2.7,0.2,4,0.1c0.4-0.5-1.1-0.1-0.7-0.6
						c1.9,0.1,3.9,0.7,5.7,0.6l-0.3,0.1c0.2,0.8,1.3-0.4,2.3,0c-0.2-0.1-0.3-0.4-0.2-0.3c1.2-0.1,2.5,0.2,4.4,0.5l-0.2-0.2
						c0.7-0.2,1.9,0,2.7-0.1c0.2,0.2,0.7,0.2,0.4,0.5c2.5-1,4.6,0.8,6.8,0c-0.3,0-0.6-0.2-0.4-0.2l1.8,0.3c-0.2,0.3-0.3,0.2-0.7,0.4
						c0.2,0.2,0.7,0.4,1.2,0.4c-0.8-0.3,0-0.5,0.4-0.7c-0.1,0.1,0,0.2,0,0.3c1-0.5,0.1,0.7,1.4,0.4l-0.1-0.2
						c0.5,0.1,0.9,0.4,1.4,0.4c0.3-0.4-0.5-0.2-0.5-0.5c0.7,0.1,1.4,0.9,2.1,0.6c-0.3-0.1-0.8-0.2-1.1-0.3c0.8-0.4,0.8-0.2,1.4-0.3
						l-0.1,0l1.3-0.1l-0.3,0.1c0.8,1.1,1.9,0.4,3,1.3c-1.1-0.8-0.1-0.4-0.2-0.8c0.3-0.1,0.8-0.1,0.7-0.3c0.5,0.4,1-0.1,1.8,0.6
						c0.1-0.1,0.6,0.1,0.6-0.3c0.7,0.3-0.2,0.2-0.2,0.4c1.1,0.7,2.9,0,4.4,1.1c1.4,0.7,1.5,1.2,2.6,2c0.5,0-0.2-0.6-0.2-0.6
						c0.8,0.1,1.3,0.4,1.9,0.9c-0.1-0.2,0.1-0.2,0.4-0.2c0.5,0.3,0.1,0.6,0.8,0.9c0-0.2,0-0.5-0.2-0.8c0.5,0.5,1,1.1,1.4,1.7
						c0.3-0.1-0.1-0.6-0.2-0.9c0.6,0.6,1.5,1.7,1.3,2.1c0,0-0.4-0.3-0.4-0.3c0.2,0.2,0.4-0.1,0.3-0.3c-0.1-0.4-0.3-0.5-0.5-0.6
						c-0.2,0-0.4,0-0.4,0c0,0,0.3,0.4,0.3,0.4c-0.5,0.1-0.8-0.2-1.2-0.7c-0.4-0.4-0.8-1-1.2-1.2c0,0,0,0.2,0,0.4c0,0.2,0,0.4,0,0.4
						s-0.2-0.2-0.3-0.5c-0.2-0.2-0.3-0.5-0.3-0.5c-0.3,0-0.5,0.3-0.2,0.6c-0.7-0.1-0.5-0.5-1.1-0.4c-0.1,0-0.1,0.1,0,0.1l-0.5-0.4
						c0.1,0.2-0.3,0.3,0.1,0.4c-1.2-0.1-1.7-1.1-2.3-0.8l0.1,0.1c-1.6-0.7,0-0.5-1.1-1.3l-1.1,0.8l-0.1-0.5c-0.2,0-0.5-0.1-0.5,0.1
						c-0.6-0.4,0.2-0.2-0.2-0.5c-0.9,0.2-2.2-0.7-2.6,0c-0.2-0.4,0.8-0.1,0-0.5c-0.4,0.7-1-0.3-1.8-0.1c0.2,0.4,0.9,0.3,0.1,0.6
						c-0.4-0.7-1.5-0.1-2.1-0.3c0-0.5-1.4-0.4-2.4-0.7c0,0.2-2.1,0.1-3.1,0.2l0,0.1c-0.1-0.5-1.2-0.5-2-0.7c0,0.3,0.1,0.5,0.5,0.6
						l-0.7-0.1c-0.2-0.2-0.4-0.3-0.8-0.4l0.2,0.4c-0.9-0.1-1.9-0.6-3.1-0.4c-0.1-0.4,1-1-0.3-1.3c-0.1,0.2-0.1,0.5,0.2,0.6
						c-0.1,0-0.4-0.2-0.6-0.1l0.5,0.4c-0.6,0.1-0.3-0.3-0.7-0.3c0,0.3-0.3,0.2-0.3,0.4c0.1,0,0.4-0.1,0.6,0c-0.5,0-1.1,0.2-1.3,0.4
						c0.1-0.2,0-0.4-0.3-0.4c-1-0.1-0.3,0.3-0.9,0.4c-0.2-0.2-0.8,0-0.8-0.5c-0.3,0-0.3,0.2-0.5,0.3c-0.5-0.2-2.3-0.1-1.7-0.6l0.1,0
						c0,0-0.1,0-0.1,0l0,0l0,0c-1.6-0.5-3.4,0.1-5-0.1l0,0.1c-1-0.2-2.1-0.1-2.8-0.4c-0.3,0-0.7,0.2-0.6,0.4
						c-0.7-0.1-0.8-0.3-1.9-0.1c0.7,0.3-0.3,0.2,0.8,0.2c-1,0.1-1.2,0.3-2.2-0.1c0.3,0.4-0.7,0.5-1.2,0.3l0.7-0.3
						c-0.5-0.1-1,0-1.4,0l0.2,0.5c-2,0.6-3.5-1-5,0c-0.5-0.3,1.1-0.2,0.6-0.6c-0.9,0.1-1.8,0.7-2.1,0.7c-1.2,0.3-1.1-0.7-2.4-0.5
						c0.2-0.2,0.3-0.6-0.6-0.8c-0.9,0.1-1.1,0.7-0.5,0.8c0.2,0,0.3,0,0.3-0.1c0.3,0.1,0.7,0.1,0.3,0.3l-0.1-0.2
						c-0.4,0.2-1.7,0.2-1.4,0.4c-0.7-0.2-0.3-0.3,0.2-0.4c-1.2,0.2-1.8,0-3,0.2c0.2-0.1,0.4-0.3,0.2-0.3c-1.7,0.2-0.8-0.3-2-0.4
						c-0.7,0.3,0.2,0.6-0.9,0.4c-0.7,0.2-0.2,0.5,0.1,0.6c-1.1-0.3-2,0.2-2.6,0.3l0.6,0.1c-0.3-0.1-0.6-0.1-0.9-0.1l0.3-0.3
						c-0.3,0.1-0.6,0.1-0.6,0.2c-0.3-0.2,0.3-0.6-0.4-0.9c-0.4,0.2-1.4-0.2-1.5,0.3c1.4-0.1-0.2,0.5,1,0.5c-0.2-0.1-0.5-0.1-0.8,0
						c-0.1,0.1,0,0.1,0.1,0.1c-1.3,0.4-0.6-0.5-2-0.5c0.2,0.3-0.3,0.5-0.6,0.4c0.6,0,0.3-0.4-0.2-0.6c-0.9,0.2-1-0.2-1.4-0.1
						l0.5-0.1c-0.2-0.3-0.6-0.2-1.2-0.3c-0.1,0.2,0.6,0.1,0.3,0.2c-0.7-0.5-1.6,0.4-2.5,0.1c-0.5,0.2,0,0.5-0.4,0.6
						c-1.1-0.3-1.2,0.3-2.3,0c0.3-0.3,0.4-0.3-0.4-0.6l1.9,0.3l-1.2-0.5c0.6,0,1.2,0.2,1.5,0.2c-0.6-0.3-0.5-0.2-0.2-0.5
						c-0.8,0.5-1.5-0.3-2.4,0l0,0.8c-1.4,0.3-2.4-0.5-4.1-0.3l0.6-0.1c-0.2-0.3-1.1-0.1-1.6-0.2c0,0.3-0.3,0.4-0.6,0.5
						c0-0.2-1.3,0-1.4-0.6l-0.8,0.3c-1.4,0.1-1.6-0.9-2.9-0.8c0.4,0.3-0.2,0.5,0.7,0.8c-0.5,0-0.9,0-0.9-0.2
						c-0.3,0.2-1.2-0.4-1.7-0.2c-0.2-0.1-0.2-0.4-0.7-0.4c-0.1,0.1,0,0.1,0,0.1c0-0.1-0.8-0.2-0.3-0.5c-1.5,0.8-3.9-0.3-5.2,0.3
						c-1-0.2-2.2-0.4-3-0.5c0,0.1,0,0.1,0.2,0.1c-1.3,0.1-0.7-0.9-2.1-0.8c-0.8,0.4,0.7,0.3,0.2,0.5c-0.3,0.9-1.7-0.4-2.7,0l0.2,0.1
						c-0.8,0.2-1.7-0.6-2.9-0.8c0,0,0,0.1,0,0.1c-0.7-0.6-2.2-1.1-3.3-1.5c0.2,0.5,0.5,0.3,0.2,0.6c-0.5-0.2,0.3-0.5-0.7-0.9
						c-0.4,0.1-1.1,0.1-1.4,0.4c0,0,0.2,0.1,0.5,0.2c0.2,0.1,0.5,0.1,0.5,0.1c-0.6,0.4-1.2-0.4-1.7-0.5l0,0.2
						c-0.7-0.3-1-0.6-1.3-0.9c-0.3-0.3-0.7-0.5-1.4-0.9l0.2-0.1c-0.6-0.9-0.8,0-1.4-0.8l-0.5,0.4c-0.5-0.4-1.5-1.6-2.1-2.5
						c0.1,0.7,1,1.7,1.5,2.4c-0.3-0.2-0.7-0.5-1.1-0.8c-0.4-0.4-0.6-0.7-0.7-0.9c0.1,0.2,0.3,0.5,0.5,0.6c-0.1-0.4-0.4-0.8-0.6-1.3
						c-0.1-0.2-0.2-0.3-0.3-0.5c-0.1-0.2-0.2-0.4-0.3-0.6c-0.3,0.9-0.6,0.1-0.7-0.3c-0.1,0.4-0.1,0.8-0.1,1.3
						c-0.1,0-0.2,0.1-0.3,0.3c0,0.1-0.1,0.2-0.2,0.2c0,0-0.3,0.4-0.5,0.6c-0.8,0.9-1.7,1.7-2.9,2.3c0.4-1.2-0.7,0.4-0.9-0.5
						c-0.5,0.2-0.7,0.3-0.7,0.4c0,0-0.3,0.3-0.7,0.6c-0.3,0.3-0.7,0.6-0.7,0.6c-0.3,0.4,0.6,0,0.6,0.2c-1.1,0.5-0.4,0.6-1.1,1.1
						c0.1-0.3-0.6-0.3-1.2,0.1l0.8-0.7c-1.8,0.1-1.2,1.2-3,1.2l0.6,0.1c-0.9,0.1-3.2,0.8-4.2,0.2c-0.1,0.1-0.3,0.4,0.1,0.4
						c-2,0.5-4.7,0-6.2,0.6l0.2,0.2c-0.4,0-0.7-0.3-1.2,0c0,0.1,0.2,0.2,0,0.2c-0.2-0.1-1.1-0.3-1.6-0.1l0.5,0.2
						c-2,0.5-3.1-0.3-4.8-0.3c0.1,0.6-1.5,0.9-2.3,1.1l0,0.1c-2.3,0.2-4-0.3-6.2-0.5c-1.3,0.7-4.5,0.4-6.7,0.9
						c0.3-0.1-0.1-0.5-0.4-0.5c-0.5,0.1-1.4-0.4-1.3,0.2l0.2,0c-0.4,0.6-1.4,0.4-2.2,0.5l-0.1-0.8c-2.1,1.1-5.5-0.3-6.7,0.6
						c-0.5-0.2-1.1-0.2-1.6-0.4l0,0.4c-1.4,0.1-2.1,0.2-3.9,0.1l0.4,0.3c-1,0-1.2-1.2-2.1-1.2l-0.3,0.6c-1.7,0-3.5,0.5-5.1,0
						c0,0.1,0.1,0.3,0.4,0.3c-0.8,0-3.1,0.4-2.8-0.4c0,0.5-1.8,0.1-2.7-0.2l0.1,0.4c-0.8-0.5-0.8-0.6-1.9-0.8
						c-0.3,0.1-0.2,0.3,0.1,0.2c-0.9,0.2-0.7-0.4-1.7-0.2l0.4,0.3c-0.9,0-0.8-0.1-1.3-0.4c-0.6-0.2-1.7,0.1-1.8,0.5
						c-0.1-0.2-0.6-0.5-1.1-0.4c-0.1,0.1,0.1,0.2,0.2,0.3c-1.5,0.3-2.2-0.4-3.2,0c0,0.1-0.1,0.2-0.2,0.2c1.2,0,2.1-0.1,2-0.1
						c0,0.4-0.9,0.4-0.2,0.9c-0.8-0.3-2.1-0.9-3-0.7c0,0-0.1,0.1-0.1,0.1l0.1,0c-0.2,0-0.4,0-0.6,0c-0.3,0.1-0.5,0.1-0.8,0.1
						c-0.1,0.3-1.1,0.2-1.6,0.2c0-0.4-0.6-0.3,0-0.7c-0.1,0,0.1,0,0.4,0.1c0.1,0,0.2,0,0.2,0l0,0c0.3,0,0.7,0,1.2,0
						c-0.4-0.2-0.8-0.4-1.3-0.1c-0.2-0.3-0.5-0.5-0.7-0.6c-0.6,0.6-1.9,0.9-2,1.3c-1.4-0.2-3.4,0-4.3-0.7c-0.4-0.1-0.5,0.2-0.6,0.4
						c0.2,0.1,0.5,0,0.7,0.1c-0.8-0.2-2.4,0-2.7-0.5c-1,0.3,0.6,0.5-0.8,0.4l0.2,0.2c-2.7,1-4.6-1.1-7.6,0.3
						c0.2-0.1,0.3-0.1,0.3-0.2c-3.4,0.8-7.3,0.4-10.5,2c-0.9,0.4-1.1,0.1-1.7,0l-0.1,0.5l-1.1-0.2c-0.7,0.1-1.3,0.5-1.8,1
						c-0.5,0.5-1,0.9-2,1.1l0-0.4c-0.3,0.2-0.7,0.4-1.1,0.6c-0.3,0.3-0.5,0.5-0.4,0.6c-0.1,0-0.4-0.1-0.4,0.2l0.1,0.2
						c0,0-0.3,0.2-0.6,0.4c-0.2,0.1-0.3,0.2-0.4,0.3C3,26,3,26.1,3,26.1c-0.3,0.5,0,0.6,0.2,0.7c0.2,0.1,0.3,0.3,0.1,0.9
						c-0.1,0.2-0.4,0.6-0.5,0.9c-0.2,0.3-0.4,0.5-0.5,0.4c0-0.2-0.1-0.6-0.3-0.7l-0.2,0.6c-0.3,0-0.7,0.2-1,0.1
						c-0.3-0.1-0.6-0.4-0.7-1.4c0,0,0.2-0.3,0.4-0.6c0.1-0.1,0.2-0.3,0.3-0.4c0.1-0.1,0.1-0.2,0.1-0.2l-0.1-0.5c0,0-0.1,0.3-0.3,0.5
						C0.3,26.7,0.2,27,0.2,27c-0.1-0.8,0.4-1,0.7-1.4c-0.1-0.2-0.1-0.4,0-0.7c0,0,0.3-0.2,0.6-0.4c0.3-0.2,0.6-0.3,0.6-0.3
						c-0.1-0.3-0.8,0.1-0.3-0.7c0.6-0.2,0,0.8,0.8,0.2c0.2-0.6-0.1-0.7,0.6-0.9c0-0.2-0.2-0.2-0.5-0.1c0.6-0.3,1.4-0.9,1.8-0.8
						c0.3-0.6,1.8-0.8,1.5-1.4c0.2,0.1,1.1,0,1.6-0.1c-1.2-0.4,1.8-0.7,1.3-1.4c0.9,0.4,2.5-0.4,3.8-0.3c-0.1,0-0.2-0.1-0.3-0.1
						c0.7-0.2,0.8-0.4,1.2-0.7c0.2,0.5,1.3,0.5,1.9,0.7c0.7-0.7-0.6-0.6-0.5-1.1c0,0.4,1.5,0.2,1.3,0.6c0.6-0.4,0.5-0.2,0.8-0.8
						c0.2,0.7,0.6,0,1.2,0.4c0.9-0.5,0.1-0.7,1.2-0.6C20.3,17.1,19.3,17,19.3,17z M43.3,16.8L43.3,16.8c-0.2,0-0.4,0-0.5,0
						C42.9,16.7,43,16.8,43.3,16.8z M45.3,16.7c-0.2,0-0.5,0-0.9,0c-0.1,0.1,0,0.3,0.2,0.3C44.5,16.9,45,16.9,45.3,16.7z M41.1,19.6
						c0.3,0.1,0.4,0,0.5-0.1c-0.1,0-0.3,0-0.6,0c0,0,0,0,0,0C41,19.5,41,19.6,41.1,19.6z"/>
					<path fill="#FFFFFF" d="M40.5,19.1c0,0-0.1,0-0.1,0c0.1,0,0.1-0.1,0.2-0.1c0,0,0.1,0.1,0.1,0.1C40.6,19.1,40.6,19.1,40.5,19.1z
						"/>
					<path fill="#FFFFFF" d="M214,18.6L214,18.6C214,18.6,214.1,18.6,214,18.6C214,18.6,214,18.6,214,18.6z"/>
					<polygon fill="#FFFFFF" points="72.8,15.9 72.8,16 72.6,15.9 					"/>
					<path fill="#FFFFFF" d="M225.1,17.8c0,0,0.1-0.1,0.2-0.1C225.2,17.7,225.2,17.8,225.1,17.8z"/>
					<path fill="#FFFFFF" d="M229.8,18.2l0.7-0.1C230.2,18.1,230,18.2,229.8,18.2z"/>
					<path fill="#FFFFFF" d="M233.5,18.4c0,0.1,0,0.1,0,0.2l0,0L233.5,18.4z"/>
					<path fill="#FFFFFF" d="M175.5,16.1c0,0-0.1,0-0.1,0C175,16,175.2,16.1,175.5,16.1z"/>
					<path fill="#FFFFFF" d="M192.7,17.1c-0.2-0.1-0.4-0.1-0.6-0.2C192.4,16.9,192.7,16.9,192.7,17.1z"/>
					<polygon fill="#FFFFFF" points="156.3,15.1 156.3,15.1 156.2,15.1 					"/>
					<path fill="#FFFFFF" d="M191.3,16.9c0.3-0.1,0.6-0.1,0.8,0C191.9,17,191.6,17,191.3,16.9z"/>
					<path fill="#FFFFFF" d="M248.8,24.1l0.2,0.1c0,0,0,0,0,0.1L248.8,24.1z"/>
					<path fill="#FFFFFF" d="M249,24.3l0.1,0.2C249,24.4,248.9,24.3,249,24.3z"/>
					<path fill="#FFFFFF" d="M249.3,24.9c0,0-0.2-0.5-0.2-0.4C249.2,24.6,249.3,24.8,249.3,24.9z"/>
					<path fill="#FFFFFF" d="M244.4,21.3l0-0.2C244.4,21.2,244.4,21.2,244.4,21.3z"/>
					<path fill="#FFFFFF" d="M243,20.7c0.4,0.1,1,0,1.4,0.3l0,0.1C244.2,20.8,243.2,21,243,20.7z"/>
					<path fill="#FFFFFF" d="M236.5,20.8l1.2,0.1c-0.2,0.1-0.6,0.3,0,0.4C236.1,21.4,238.1,21,236.5,20.8z"/>
					<path fill="#FFFFFF" d="M232.8,20.3c0.6,0.2,0,0.2,0,0.3C232.4,20.5,232.3,20.4,232.8,20.3z"/>
					<path fill="#FFFFFF" d="M205.4,18.7l0.1,0.4C205,19,205.5,18.9,205.4,18.7z"/>
					<polygon fill="#FFFFFF" points="200.2,16.8 200.7,16.6 200.9,16.9 					"/>
					<polygon fill="#FFFFFF" points="197.1,19.4 197.3,19.4 196.4,19.3 					"/>
					<path fill="#FFFFFF" d="M150.7,18.3l0.2-0.4C151.2,17.9,151.3,18.5,150.7,18.3z"/>
					<path fill="#FFFFFF" d="M130.9,13.7c-0.3,0.1-0.9,0-1.1-0.4C130.2,13.5,130.7,13.5,130.9,13.7z"/>
					<polygon fill="#FFFFFF" points="78.1,19.5 78.5,19.6 77.8,19.5 					"/>
				</g>
			</g>
		</g>
	</g>
</g>
</svg>
