<?xml version="1.0" encoding="utf-8"?>
<!-- Generator: Adobe Illustrator 18.0.0, SVG Export Plug-In . SVG Version: 6.00 Build 0)  -->
<!DOCTYPE svg PUBLIC "-//W3C//DTD SVG 1.1//EN" "http://www.w3.org/Graphics/SVG/1.1/DTD/svg11.dtd">
<svg version="1.1" id="Layer_1" xmlns="http://www.w3.org/2000/svg" xmlns:xlink="http://www.w3.org/1999/xlink" x="0px" y="0px"
	 viewBox="0 0 29.1 250.6" enable-background="new 0 0 29.1 250.6" xml:space="preserve">
<g>
	<g>
		<g>
			<g>
				<g>
					<path fill="#FFFFFF" d="M0.1,250.5c-0.1-0.1-0.1-0.4,0.4-0.4c0,0,0.1,0.1,0.2,0.2c0.1,0.1,0.2,0.2,0.2,0.2L0.1,250.5z"/>
					<path fill="#FFFFFF" d="M2.6,249.1c0.5,0.1,1.2,0,1.2,0.6c-0.7-0.1-0.7,0.1-1.4-0.2c-0.4,0.1-0.6,0.3-0.5,0.5
						c-0.2-0.1-0.6,0.3-0.9,0c0.2-0.2,0.5-0.4,0.8-0.5c0.3-0.1,0.6-0.1,1-0.2C2.8,249.2,2.6,249.1,2.6,249.1z"/>
					<path fill="#FFFFFF" d="M10.4,213.7l0,0.2C10.4,213.9,10.4,213.8,10.4,213.7z"/>
					<path fill="#FFFFFF" d="M10.4,190.6c0,0.2-0.1,0.2-0.1,0.3C10.3,190.7,10.4,190.6,10.4,190.6z"/>
					<path fill="#FFFFFF" d="M9.9,186.7c0,0.1,0,0.2,0,0.2C9.9,186.8,9.8,186.7,9.9,186.7z"/>
					<path fill="#FFFFFF" d="M10.4,213.7l-0.1-0.6C10.4,213.1,10.4,213.4,10.4,213.7z"/>
					<path fill="#FFFFFF" d="M7.1,245.9c-0.1,0.1-0.2,0.2-0.3,0.3C6.9,246.1,7,246,7.1,245.9C7.1,245.9,7.1,245.9,7.1,245.9z"/>
					<path fill="#FFFFFF" d="M9.5,223.9l0,0.2c-0.1,0.1-0.1,0.1-0.2,0.1L9.5,223.9z"/>
					<path fill="#FFFFFF" d="M8.7,231.6c0-0.2,0.4-0.2,0.6-0.2c-0.2,0.1-0.3,0.2-0.3,0.3C8.9,231.7,8.8,231.7,8.7,231.6z"/>
					<path fill="#FFFFFF" d="M6.5,243.6l-0.1,0.2C6.4,243.7,6.4,243.7,6.5,243.6z"/>
					<path fill="#FFFFFF" d="M9.8,218.3c-0.1,0-0.1,0-0.1-0.1C9.7,218.2,9.7,218.3,9.8,218.3z"/>
					<path fill="#FFFFFF" d="M8.4,6.2C8.4,6.2,8.4,6.2,8.4,6.2C8.3,6.2,8.4,6.1,8.4,6.2z"/>
					<path fill="#FFFFFF" d="M0.1,1.7l0.1,0c0,0.1,0,0.2,0,0.2L0.1,1.7z"/>
					<path fill="#FFFFFF" d="M9.4,179.4C9.4,179.4,9.4,179.5,9.4,179.4C9.3,179.7,9.3,179.5,9.4,179.4z"/>
					<path fill="#FFFFFF" d="M14.8,120.4c0.7,0.6-0.1-1.4,0.7-0.5C15.4,119.9,15.5,121.2,14.8,120.4z"/>
					<path fill="#FFFFFF" d="M7.2,245.7c0.1-0.1,0.1-0.2,0.2-0.3C7.3,245.6,7.2,245.7,7.2,245.7z"/>
					<path fill="#FFFFFF" d="M15.6,119.9L15.6,119.9L15.6,119.9C15.6,120,15.6,120,15.6,119.9z"/>
					<path fill="#FFFFFF" d="M9.9,162.7c0.1,0,0.1,0.1,0.2,0.2C10,162.9,10,162.9,9.9,162.7z"/>
					<path fill="#FFFFFF" d="M10.2,175.2l-0.1-0.3C10.2,175,10.2,175.1,10.2,175.2z"/>
					<path fill="#FFFFFF" d="M10.7,156.3c0-0.2-0.1-0.2,0-0.5c0,0,0,0,0,0.1C10.7,156,10.7,156.1,10.7,156.3z"/>
					<path fill="#FFFFFF" d="M11.2,149.5c0,0,0,0.1,0.1,0.1c0,0.1,0,0.1,0,0.2L11.2,149.5z"/>
					<path fill="#FFFFFF" d="M12.2,26.8c-0.1-0.1-0.3-0.2-0.4-0.3C12.1,26.6,12.2,25.6,12.2,26.8z"/>
					<path fill="#FFFFFF" d="M6.9,245.8c0.1,0,0.2,0,0.3-0.1c0,0.1-0.1,0.1-0.1,0.2C7,245.9,6.9,245.9,6.9,245.8z"/>
					<path fill="#FFFFFF" d="M13.9,156.2l0-1.1C14,155.4,13.9,155.8,13.9,156.2z"/>
					<path fill="#FFFFFF" d="M13,75l0-0.2C13,74.9,13,75,13,75z"/>
					<path fill="#FFFFFF" d="M14.2,152c-0.1-0.2-0.2-0.4-0.2-0.6c0,0,0.1-0.1,0.1-0.1L14.2,152z"/>
					<path fill="#FFFFFF" d="M11.8,26.5L11.8,26.5L11.8,26.5z"/>
					<path fill="#FFFFFF" d="M12.1,19.3c0.2,1-0.4,0.5-0.7,0.8c0,1.2,0.5,0.5,0.8,0.9c-0.1,0.8-0.5,1.4-0.4,2c0.1,0,0.1,0.1,0.2,0
						c-0.3,0.8,0.2,2.4-0.3,3.4c0.1,0.1,0.1,0.1,0.1,0.1c-0.3-0.1-0.5-0.1-0.7-0.1c0,0.5-0.3,0.9,0.1,1c0-0.3,0.1-0.3,0.2-0.5
						l-0.1,0.5c0.5,0.4,0.1-0.7,0.5-0.7c-0.1,0.9-0.4,2.1-0.2,2.8c0.5,0.1,0.1-1.7,0.5-0.8l-0.3-1.1c0.8,0.8-0.1-0.7,0.8,0.1
						c0.2,1.5-0.1,1.7,0.1,3.1c-0.3,0.3-0.4-0.1-0.7,0.3c-0.4,2.1,1.3,1.6,0.7,3.1c-0.3,0.4-0.9,0.6-0.6,1.7l0.5-0.4
						c0.1,1.4-0.8,0.8-0.3,2.3c0.2-0.3,0.1-1.1,0.2-0.9c0.5,0.9-0.3,0.7-0.3,1.4l0.5,0.1c0,1.5-0.3,3.2-0.4,4.8
						c0.1-0.1,0.3-0.4,0.4,0c-0.2,2.1,0.1,4.5,0.4,6.5l-0.4,0.8c0,0.2,0.2,0.3,0.3,0.1c0.2,0.8-0.3,0-0.4,0.4c0,0.4,0.2,0.6,0.4,0.3
						c-0.3,1.4-0.8,4-0.3,5.4l0.1-0.3c0.2,1.1-0.9,1.3-0.5,2.3l0.1-0.2c0.2,2.5-0.2,5.2,0.4,7.1c-0.6,0.4,0.3,2.4-0.6,2.6
						c0.4,1.4,0.6,1,0.9,3c0,0.5-0.5,0.8-0.6,1.4l0.4,0l-0.5,0.9l0.5,0.5L13,74.8c0-0.2-0.2-0.5-0.3-0.5c-0.2,1,0.3,2.3,0.6,2.4
						l-0.3,2.3c0.2-0.1,0.2-0.4,0.3-0.7c-0.4,1.2,0.5,0.2,0.1,1.3c-0.1-0.1-0.3,0.1-0.4,0.1c0.3,0.5,0.3,1.8,0.2,2.7l0.3-0.2
						c0.1,1.7-0.1,3.5,0,5.4c-0.2-0.7-0.7-0.5-0.7,0.1l0.5,0.2C13,88.2,13,87.3,12.7,88c0.1,0.7,0.5,0.5,0.7,0l-0.1,0.9
						c0.1,0,0.2-0.2,0.4-0.2c-0.3,0.4,0.5,1.5,0,2l0.1,0c0.1,1.9,0,2.7,0,4.3c-0.4,0.1-0.3,0.6-0.6,1.1c0.2,1.1,0.6,2.3,0.7,3.7
						c-0.1,1-0.3,0.3-0.5,0.8c0.4,0,0.5,1.4,0.7,0.7c0.1,1.6,0.1,2.1,0.1,4.1c-0.2-0.2-0.3-0.4-0.4-0.3c0,0.4,0.3,0.8,0.4,0.7l0-0.1
						c-0.3,2.4,1.9,5,1.5,6.9l0-0.1c0,0,0,0.5,0,0.9c0,0.5,0,1,0,1c0.3,0.8,0.1-0.6,0.5,0c-0.1,2.1,1,2.9,1.3,4.5
						c0.7,0.3,1.2,1.3,1.7,2.1c0.1,0.2,0.3,0.5,0.4,0.6c0.2,0.2,0.3,0.4,0.5,0.6c0.1,0.1,0.5,0.5,1,0.7c0.2,0.1,0.6,0.2,1,0.3
						c0.4,0.1,0.7,0.2,1.1,0.2l-0.6,0c0.4,0.2,0.8,0.3,1.2,0.4c0.4,0.1,1.1,0.1,1.7,0.3c-0.6,0-2-0.3-1.5,0c0.9,0.3,1.8,0.5,2.7,0.8
						c0.7,0.2,1.5,0.4,2.2,0.6l-1.4,0.4l-1.5,0.4c-1.1,0.3-2.4,0.7-3.3,1l-1.5,0.5c-0.3,0.1-0.4,0.2-0.5,0.3
						c-0.2,0.1-0.3,0.2-0.4,0.4c-0.2,0.2-0.2,0.2-0.2,0.2c-0.1,0.1-0.1,0.1-0.2,0.2l-0.3,0.4c-0.8,1.1-1.3,2.6-1.8,4
						c-0.4,1.3-1.5,0.3-1.5,2.1l0.6-0.3c-1.4,2.5-1.4,5.6-2.3,8.3c0.1-0.2,0.3-0.1,0.3-0.4c0.2,0.6-0.3,2.2-0.6,2.2
						c0,0.4,0.2,0.1,0.3,0.4c0.1,0.6-0.6,1.4-0.3,1.8c0,0.1,0.1-0.2,0.2-0.3c-0.2,0.4-0.2,1.8-0.5,1.4c0.1,1.1-0.4,2-0.2,2.9
						c-0.5,0.5,0.1,1.8-0.6,2c0.6,0,0.4,1.9,0,2.6c0.2-0.2,0.2,0.6,0.5,0.4c-0.1,0.8-0.2,1.5-0.5,1.3c0.7,1.5-0.8,2.8,0.2,3.7
						c-0.4,2.3-0.7,4.4-0.9,6.5c0.6-0.1,0.1-2.3,0.8-2.2c-0.3,2-0.9,3.1-0.8,5.1c0.1,0.5,0.3-0.3,0.4-0.5c-0.3,2,0,3.8-0.4,5.6
						c0.1,0,0.1-0.2,0.2-0.4c0,0.3,0.1,0.8-0.2,0.8l0.1-0.3c-0.4-0.6-0.9,1.4-1.1,1.4c0.8-0.6,0.2,1.7,1.3,0.8
						c-0.1,0.2-0.2,0.5-0.4,0.5c0.1,0.3,0.2,0.4,0.4,0.1c-0.2,1.2-0.5,0.8-0.5,1.9c0.1,0,0.2-0.2,0.4-0.3c-0.3,0.6-0.6,1.1-0.4,2.1
						c0.1-0.1,0.2,0.1,0.2-0.2c0,1.6-0.7,2.8-0.5,4.6c0.6-0.5,0.2,0.6,0.7,0.7l-0.2,1l-0.3-0.4c0,0.8-0.4,1.6-0.2,2.3l0.2-0.6
						l-0.1,1.6l-0.2-0.9c-0.3,0.9-0.7-0.1-0.5,1c0.1-0.2,0,0.8,0.3,1.3l0,0c-0.2,0.4-0.4,0.8-0.2,1.5c0.2,0.2,0.6-0.1,0.7,0
						c-0.4,0.4-0.1,2-0.6,2.5c0.1-0.2,0.4-0.2,0.5-0.1l-0.4,0.3c0.1,0.4,0.2,0.4,0.4,0.4c0.1,1.2-0.7-0.4-0.4,1
						c0-0.1,0.1-0.1,0.1-0.3c0.1,1.4-0.2,2.7-0.1,4c0.5,0.4,0.1-1.1,0.6-0.7c-0.1,1.9-0.7,3.9-0.6,5.7l-0.1-0.3
						c-0.8,0.2,0.4,1.3,0,2.3c0.1-0.2,0.4-0.3,0.3-0.2c0.1,1.2-0.2,2.5-0.5,4.4l0.2-0.2c0.2,0.7,0,1.9,0.1,2.7
						c-0.2,0.2-0.2,0.7-0.5,0.4c1,2.5-0.8,4.6,0,6.8c0-0.3,0.2-0.6,0.2-0.4l-0.3,1.8c-0.3-0.2-0.2-0.3-0.4-0.7
						c-0.2,0.2-0.4,0.7-0.4,1.2c0.3-0.8,0.5,0,0.7,0.4c-0.1-0.1-0.2,0-0.3,0c0.5,1-0.7,0.1-0.4,1.4l0.2-0.1
						c-0.1,0.5-0.4,0.9-0.4,1.4c0.4,0.3,0.2-0.5,0.5-0.5c-0.1,0.7-0.9,1.4-0.6,2.1c0.1-0.3,0.2-0.8,0.3-1.1c0.4,0.8,0.2,0.8,0.3,1.4
						l0-0.1l0.1,1.3l-0.1-0.3c-1.1,0.8-0.4,1.9-1.3,3c0.8-1.1,0.4-0.1,0.8-0.2c0.1,0.3,0.1,0.8,0.3,0.7c-0.4,0.5,0.1,1-0.6,1.8
						c0.1,0.1-0.1,0.6,0.3,0.6c-0.3,0.7-0.2-0.2-0.4-0.2c-0.7,1.1,0,2.9-1.1,4.4c-0.7,1.4-1.2,1.5-2,2.6c0,0.5,0.6-0.2,0.6-0.2
						c-0.1,0.8-0.4,1.3-0.9,1.9c0.2-0.1,0.2,0.1,0.2,0.4c-0.3,0.5-0.6,0.1-0.9,0.8c0.2,0,0.5,0,0.8-0.2c-0.5,0.5-1.1,1-1.7,1.4
						c0.1,0.3,0.6-0.1,0.9-0.2c-0.6,0.6-1.7,1.5-2.1,1.3c0,0,0.3-0.4,0.3-0.4c-0.2,0.2,0.1,0.4,0.3,0.3c0.4-0.1,0.5-0.3,0.6-0.5
						c0-0.2,0-0.4,0-0.4c0,0-0.4,0.3-0.4,0.3c-0.1-0.5,0.2-0.8,0.7-1.2c0.4-0.4,1-0.8,1.2-1.2c0,0-0.2,0-0.4,0c-0.2,0-0.4,0-0.4,0
						s0.2-0.2,0.5-0.3c0.2-0.2,0.5-0.3,0.5-0.3c0-0.3-0.3-0.5-0.6-0.2c0.1-0.7,0.5-0.5,0.4-1.1c0-0.1-0.1-0.1-0.1,0l0.4-0.5
						c-0.2,0.1-0.3-0.3-0.4,0.1c0.1-1.2,1.1-1.7,0.8-2.3L7.2,241c0.7-1.6,0.5,0,1.3-1.1l-0.8-1.1l0.5-0.1c0-0.2,0.1-0.5-0.1-0.5
						c0.4-0.6,0.2,0.2,0.5-0.2c-0.2-0.9,0.7-2.2,0-2.6c0.4-0.2,0.1,0.8,0.5,0c-0.7-0.4,0.3-1,0.1-1.8c-0.4,0.2-0.3,0.9-0.6,0.1
						c0.7-0.4,0.1-1.5,0.3-2.1c0.5,0,0.4-1.4,0.7-2.4c-0.2,0-0.1-2.1-0.2-3.1l-0.1,0c0.5-0.1,0.5-1.2,0.7-2c-0.3,0-0.5,0.1-0.6,0.5
						l0.1-0.7c0.2-0.2,0.3-0.4,0.4-0.8l-0.4,0.2c0.1-0.9,0.6-1.9,0.4-3.1c0.4-0.1,1,1,1.3-0.3c-0.2-0.1-0.5-0.1-0.6,0.2
						c0-0.1,0.2-0.4,0.1-0.6l-0.4,0.5c-0.1-0.6,0.3-0.3,0.3-0.7c-0.3,0-0.2-0.3-0.4-0.3c0,0.1,0.1,0.4,0,0.6c0-0.5-0.2-1.1-0.4-1.3
						c0.2,0.1,0.4,0,0.4-0.3c0.1-1-0.3-0.3-0.4-0.9c0.2-0.2,0-0.8,0.5-0.8c0-0.3-0.2-0.3-0.3-0.5c0.2-0.5,0.1-2.3,0.6-1.7l0,0.1
						c0,0,0-0.1,0-0.1l0,0l0,0c0.5-1.6-0.1-3.4,0.1-5l-0.1,0c0.2-1,0.1-2.1,0.4-2.8c0-0.3-0.2-0.7-0.4-0.6c0.1-0.7,0.3-0.8,0.1-1.9
						c-0.3,0.7-0.2-0.3-0.2,0.8c-0.1-1-0.3-1.2,0.1-2.2c-0.4,0.3-0.5-0.7-0.3-1.2l0.3,0.7c0.1-0.5,0-1,0-1.4l-0.5,0.2
						c-0.6-2,1-3.5,0-5c0.3-0.5,0.2,1.1,0.6,0.6c-0.1-0.9-0.7-1.8-0.7-2.1c-0.3-1.2,0.7-1.1,0.5-2.4c0.2,0.2,0.6,0.3,0.8-0.6
						c-0.1-0.9-0.7-1.1-0.8-0.5c0,0.2,0,0.3,0.1,0.3c-0.1,0.3-0.1,0.7-0.3,0.3l0.2-0.1c-0.2-0.4-0.2-1.7-0.4-1.4
						c0.2-0.7,0.3-0.3,0.4,0.2c-0.2-1.2,0-1.8-0.2-3c0.1,0.2,0.3,0.4,0.3,0.2c-0.2-1.7,0.3-0.8,0.4-2c-0.3-0.7-0.6,0.2-0.4-0.9
						c-0.2-0.7-0.5-0.2-0.6,0.1c0.3-1.1-0.2-2-0.3-2.6l-0.1,0.6c0.1-0.3,0.1-0.6,0.1-0.9l0.3,0.3c-0.1-0.3-0.1-0.6-0.2-0.6
						c0.2-0.3,0.6,0.3,0.9-0.4c-0.2-0.4,0.2-1.4-0.3-1.5c0.1,1.4-0.5-0.2-0.5,1c0.1-0.2,0.1-0.5,0-0.8c-0.1-0.1-0.1,0-0.1,0.1
						c-0.4-1.3,0.5-0.6,0.5-2c-0.3,0.2-0.5-0.3-0.4-0.6c0,0.6,0.4,0.3,0.6-0.2c-0.2-0.9,0.2-1,0.1-1.4l0.1,0.5
						c0.3-0.2,0.2-0.6,0.3-1.2c-0.2-0.1-0.1,0.6-0.2,0.3c0.5-0.7-0.4-1.6-0.1-2.5c-0.2-0.5-0.5,0-0.6-0.4c0.3-1.1-0.3-1.2,0-2.3
						c0.3,0.3,0.3,0.4,0.6-0.4L9.9,171l0.5-1.2c0,0.6-0.2,1.2-0.2,1.5c0.3-0.6,0.2-0.5,0.5-0.2c-0.5-0.8,0.3-1.5,0-2.4l-0.8,0
						c-0.3-1.4,0.5-2.4,0.3-4.1l0.1,0.6c0.3-0.2,0.1-1.1,0.2-1.6c-0.3,0-0.4-0.3-0.5-0.6c0.2,0,0-1.3,0.6-1.4l-0.3-0.8
						c-0.1-1.4,0.9-1.6,0.8-2.9c-0.3,0.4-0.5-0.2-0.8,0.7c0-0.5,0-0.9,0.2-0.9c-0.2-0.3,0.4-1.2,0.2-1.7c0.1-0.2,0.4-0.2,0.4-0.7
						c-0.1-0.1-0.1,0-0.1,0c0.1,0,0.2-0.8,0.5-0.3c-0.8-1.5,0.3-3.9-0.3-5.2c0.2-1,0.4-2.2,0.5-3c-0.1,0-0.1,0-0.1,0.2
						c-0.1-1.3,0.9-0.7,0.8-2.1c-0.4-0.8-0.3,0.7-0.5,0.2c-0.9-0.3,0.4-1.7,0-2.7l-0.1,0.2c-0.2-0.8,0.6-1.7,0.8-2.9
						c0,0-0.1,0-0.1,0c0.6-0.7,1.1-2.2,1.5-3.3c-0.5,0.2-0.3,0.5-0.6,0.2c0.2-0.5,0.5,0.3,0.9-0.7c-0.1-0.4-0.1-1.1-0.4-1.4
						c0,0-0.1,0.2-0.2,0.5c-0.1,0.2-0.1,0.5-0.1,0.5c-0.4-0.6,0.4-1.2,0.5-1.7l-0.2,0c0.3-0.7,0.6-1,0.9-1.3
						c0.3-0.3,0.5-0.7,0.9-1.4l0.1,0.2c0.9-0.6,0-0.8,0.8-1.4l-0.4-0.5c0.4-0.5,1.6-1.5,2.5-2.1c-0.7,0.1-1.7,1-2.4,1.5
						c0.2-0.3,0.5-0.7,0.8-1.1c0.4-0.4,0.7-0.6,0.9-0.7c-0.2,0.1-0.5,0.3-0.6,0.5c0.4-0.1,0.8-0.4,1.3-0.6c0.2-0.1,0.3-0.2,0.5-0.3
						c0.2-0.1,0.4-0.2,0.6-0.3c-0.9-0.3-0.1-0.6,0.3-0.7c-0.4-0.1-0.8-0.1-1.3-0.1c0-0.1-0.1-0.2-0.3-0.3c-0.1,0-0.2-0.1-0.2-0.2
						c0,0-0.4-0.3-0.6-0.5c-0.9-0.8-1.7-1.7-2.3-2.9c1.2,0.4-0.4-0.7,0.5-0.9c-0.2-0.5-0.3-0.7-0.4-0.7c0,0-0.3-0.3-0.6-0.7
						c-0.3-0.3-0.6-0.7-0.6-0.7c-0.4-0.3,0,0.6-0.2,0.6c-0.5-1.1-0.6-0.4-1.1-1.1c0.3,0.1,0.3-0.6-0.1-1.2l0.7,0.8
						c-0.1-1.8-1.2-1.2-1.2-3l-0.1,0.6c-0.1-0.9-0.8-3.2-0.2-4.2c-0.1-0.1-0.4-0.3-0.4,0.1c-0.5-2,0-4.7-0.6-6.2l-0.2,0.2
						c0-0.4,0.3-0.7,0-1.2c-0.1,0-0.2,0.2-0.2,0c0.1-0.2,0.3-1.1,0.1-1.6l-0.2,0.5c-0.5-2,0.3-3.1,0.3-4.8c-0.6,0.1-0.9-1.5-1.1-2.3
						l-0.1,0c-0.2-2.3,0.3-4,0.5-6.2c-0.7-1.3-0.4-4.5-0.9-6.7C9.6,83.4,10,83,10,82.6c-0.1-0.5,0.4-1.4-0.2-1.3l0,0.2
						c-0.6-0.4-0.4-1.4-0.5-2.2l0.8-0.1c-1.1-2.1,0.3-5.5-0.6-6.7c0.2-0.5,0.2-1.1,0.4-1.6l-0.4,0c-0.1-1.4-0.2-2.1-0.1-3.9
						l-0.3,0.4c0-1,1.2-1.2,1.2-2.1l-0.6-0.3c0-1.7-0.5-3.5,0-5.1c-0.1,0-0.3,0.1-0.3,0.4c0-0.8-0.4-3.1,0.4-2.8
						c-0.5,0-0.1-1.8,0.2-2.7l-0.4,0.1c0.5-0.8,0.6-0.8,0.8-1.9c-0.1-0.3-0.3-0.2-0.2,0.1c-0.2-0.9,0.4-0.7,0.2-1.7l-0.3,0.4
						c0-0.9,0.1-0.8,0.4-1.3c0.2-0.6-0.1-1.7-0.5-1.8c0.2-0.1,0.5-0.6,0.4-1.1c-0.1-0.1-0.2,0.1-0.3,0.2c-0.3-1.5,0.4-2.2,0-3.2
						c-0.1,0-0.2-0.1-0.2-0.2c0,1.2,0.1,2.1,0.1,2c-0.4,0-0.4-0.9-0.9-0.2c0.3-0.8,0.9-2.1,0.7-3c0,0-0.1-0.1-0.1-0.1l0,0.1
						c0-0.2,0-0.4,0-0.6c-0.1-0.3-0.1-0.5-0.1-0.8c-0.3-0.1-0.2-1.1-0.2-1.6c0.4,0,0.3-0.6,0.7,0c0-0.1,0,0.1-0.1,0.4
						c0,0.1,0,0.2,0,0.2l0,0c0,0.3,0,0.7,0,1.2c0.2-0.4,0.4-0.8,0.1-1.3c0.3-0.2,0.5-0.5,0.6-0.7c-0.6-0.6-0.9-1.9-1.3-2
						c0.2-1.4,0-3.4,0.7-4.3c0.1-0.4-0.2-0.5-0.4-0.6c-0.1,0.2,0,0.5-0.1,0.7c0.2-0.8,0-2.4,0.5-2.7c-0.3-1-0.5,0.6-0.4-0.8
						l-0.2,0.2c-1-2.7,1.1-4.6-0.3-7.6C9.3,22.9,9.4,23,9.5,23c-0.8-3.4-0.4-7.3-2-10.5c-0.4-0.9-0.1-1.1,0-1.7L7,10.7l0.2-1.1
						C7,8.9,6.6,8.4,6.1,7.9c-0.5-0.5-0.9-1-1.1-2l0.4,0C5.3,5.7,5,5.3,4.8,4.9C4.5,4.6,4.3,4.4,4.2,4.5c0-0.1,0.1-0.4-0.2-0.4
						L3.9,4.2c0,0-0.2-0.3-0.4-0.6C3.4,3.4,3.2,3.3,3.2,3.1C3.1,3,3,3,3,3C2.5,2.7,2.4,3,2.3,3.1C2.1,3.3,2,3.4,1.3,3.2
						C1.1,3.1,0.8,2.8,0.5,2.6C0.2,2.4,0,2.2,0.1,2.2c0.2,0,0.6-0.1,0.7-0.3L0.2,1.7C0.1,1.4,0,1,0,0.7C0.1,0.4,0.4,0.1,1.4,0
						c0,0,0.3,0.2,0.6,0.4c0.1,0.1,0.3,0.2,0.4,0.3c0.1,0.1,0.2,0.1,0.2,0.1l0.5-0.1c0,0-0.3-0.1-0.5-0.3C2.4,0.3,2.1,0.2,2.1,0.2
						c0.8-0.1,1,0.4,1.4,0.7c0.2-0.1,0.4-0.1,0.7,0c0,0,0.2,0.3,0.4,0.6c0.2,0.3,0.3,0.6,0.3,0.6c0.3-0.1-0.1-0.8,0.7-0.3
						c0.2,0.6-0.8,0-0.2,0.8C5.8,3,5.9,2.7,6.1,3.4c0.2,0,0.2-0.2,0.1-0.5C6.5,3.5,7.1,4.3,7,4.8c0.6,0.3,0.8,1.8,1.4,1.5
						c-0.1,0.2,0,1.1,0.1,1.6c0.4-1.2,0.7,1.8,1.4,1.3c-0.4,0.9,0.4,2.5,0.3,3.8c0-0.1,0.1-0.2,0.1-0.3c0.2,0.7,0.4,0.8,0.7,1.2
						c-0.5,0.2-0.5,1.3-0.7,1.9c0.7,0.7,0.6-0.6,1.1-0.5c-0.4,0-0.2,1.5-0.6,1.3c0.4,0.6,0.2,0.5,0.8,0.8c-0.7,0.2,0,0.6-0.4,1.2
						c0.5,0.9,0.7,0.1,0.6,1.2C11.9,20.3,12.1,19.3,12.1,19.3z M12.3,43.3L12.3,43.3c0-0.2,0-0.4,0-0.5C12.3,42.9,12.3,43,12.3,43.3
						z M12.3,45.3c0-0.2,0-0.5,0-0.9c-0.1-0.1-0.3,0-0.3,0.2C12.1,44.5,12.2,45,12.3,45.3z M9.4,41.1c-0.1,0.3,0,0.4,0.1,0.5
						c0-0.1,0-0.3,0-0.6c0,0,0,0,0,0C9.6,41,9.5,41,9.4,41.1z"/>
					<path fill="#FFFFFF" d="M10,40.5c0,0,0-0.1,0-0.1c0,0.1,0.1,0.1,0.1,0.2c0,0-0.1,0.1-0.1,0.1C10,40.6,10,40.6,10,40.5z"/>
					<path fill="#FFFFFF" d="M10.5,214L10.5,214C10.5,214,10.5,214.1,10.5,214C10.5,214,10.5,214,10.5,214z"/>
					<polygon fill="#FFFFFF" points="13.2,72.8 13.1,72.8 13.2,72.6 					"/>
					<path fill="#FFFFFF" d="M11.3,225.1c0,0,0.1,0.1,0.1,0.2C11.3,225.2,11.3,225.2,11.3,225.1z"/>
					<path fill="#FFFFFF" d="M10.9,229.8l0.1,0.7C10.9,230.2,10.9,230,10.9,229.8z"/>
					<path fill="#FFFFFF" d="M10.6,233.5c-0.1,0-0.1,0-0.2,0l0,0L10.6,233.5z"/>
					<path fill="#FFFFFF" d="M12.9,175.5c0,0,0-0.1,0-0.1C13,175,13,175.2,12.9,175.5z"/>
					<path fill="#FFFFFF" d="M11.9,192.7c0.1-0.2,0.1-0.4,0.2-0.6C12.1,192.4,12.2,192.7,11.9,192.7z"/>
					<polygon fill="#FFFFFF" points="13.9,156.3 13.9,156.3 13.9,156.2 					"/>
					<path fill="#FFFFFF" d="M12.1,191.3c0.1,0.3,0.1,0.6,0,0.8C12.1,191.9,12,191.6,12.1,191.3z"/>
					<path fill="#FFFFFF" d="M5,248.8L4.8,249c0,0,0,0-0.1,0L5,248.8z"/>
					<path fill="#FFFFFF" d="M4.8,249l-0.2,0.1C4.6,249,4.7,248.9,4.8,249z"/>
					<path fill="#FFFFFF" d="M4.1,249.3c0,0,0.5-0.2,0.4-0.2C4.4,249.2,4.3,249.3,4.1,249.3z"/>
					<path fill="#FFFFFF" d="M7.8,244.4l0.2,0C7.9,244.4,7.8,244.4,7.8,244.4z"/>
					<path fill="#FFFFFF" d="M8.4,243c-0.1,0.4,0,1-0.3,1.4l-0.1,0C8.2,244.2,8,243.2,8.4,243z"/>
					<path fill="#FFFFFF" d="M8.3,236.5l-0.1,1.2c-0.1-0.2-0.3-0.6-0.4,0C7.6,236.1,8,238.1,8.3,236.5z"/>
					<path fill="#FFFFFF" d="M8.7,232.8c-0.2,0.6-0.2,0-0.3,0C8.6,232.4,8.6,232.3,8.7,232.8z"/>
					<path fill="#FFFFFF" d="M10.3,205.4l-0.4,0.1C10,205,10.1,205.5,10.3,205.4z"/>
					<polygon fill="#FFFFFF" points="12.3,200.2 12.5,200.7 12.2,200.9 					"/>
					<polygon fill="#FFFFFF" points="9.7,197.1 9.6,197.3 9.8,196.4 					"/>
					<path fill="#FFFFFF" d="M10.8,150.7l0.4,0.2C11.1,151.2,10.6,151.3,10.8,150.7z"/>
					<path fill="#FFFFFF" d="M15.4,130.9c-0.1-0.3,0-0.9,0.4-1.1C15.6,130.2,15.5,130.7,15.4,130.9z"/>
					<polygon fill="#FFFFFF" points="9.6,78.1 9.5,78.5 9.6,77.8 					"/>
				</g>
			</g>
		</g>
	</g>
</g>
</svg>
