<?xml version="1.0" encoding="utf-8"?>
<!-- Generator: Adobe Illustrator 17.1.0, SVG Export Plug-In . SVG Version: 6.00 Build 0)  -->
<!DOCTYPE svg PUBLIC "-//W3C//DTD SVG 1.1//EN" "http://www.w3.org/Graphics/SVG/1.1/DTD/svg11.dtd">
<svg version="1.1" id="Layer_1" xmlns="http://www.w3.org/2000/svg" xmlns:xlink="http://www.w3.org/1999/xlink" x="0px" y="0px"
	 viewBox="0 0 28.7 251.3" enable-background="new 0 0 28.7 251.3" xml:space="preserve">
<g>
	<g>
		<g>
			<g>
				<g>
					<path fill="#FFFFFF" d="M27.6,250.3c0.1-0.1,0.1-0.3-0.3-0.3l-0.3,0.3L27.6,250.3z"/>
					<path fill="#FFFFFF" d="M25.1,249.1c-0.5,0-1.1-0.1-1,0.3c0.6,0,0.6,0.1,1.3,0c0.4,0.1,0.6,0.3,0.5,0.4
						c0.2-0.1,0.6,0.3,0.9,0.1c-0.2-0.1-0.5-0.3-0.8-0.4c-0.3-0.1-0.6-0.2-1-0.2C24.9,249.2,25,249.2,25.1,249.1z"/>
					<path fill="#FFFFFF" d="M17,213.8l0,0.2C17,214,17,213.9,17,213.8z"/>
					<path fill="#FFFFFF" d="M17,190.7c0,0.2,0,0.2,0.1,0.3C17,190.8,17,190.7,17,190.7z"/>
					<path fill="#FFFFFF" d="M17.3,186.8c0,0.1,0,0.2,0,0.2C17.4,186.9,17.4,186.8,17.3,186.8z"/>
					<path fill="#FFFFFF" d="M17,213.8l0.1-0.6C17,213.2,17.1,213.5,17,213.8z"/>
					<path fill="#FFFFFF" d="M20.8,245.9c0.1,0.1,0.2,0.2,0.2,0.3C21,246,21,245.9,20.8,245.9C20.9,245.9,20.9,245.9,20.8,245.9z"/>
					<path fill="#FFFFFF" d="M17.8,224l0,0.2c0,0.1,0.1,0.1,0.1,0.1L17.8,224z"/>
					<path fill="#FFFFFF" d="M18.7,231.7c0-0.2-0.3-0.2-0.4-0.3c0.1,0.1,0.2,0.2,0.2,0.4C18.5,231.8,18.6,231.8,18.7,231.7z"/>
					<path fill="#FFFFFF" d="M21.1,243.7l0.1,0.2C21.2,243.9,21.1,243.8,21.1,243.7z"/>
					<path fill="#FFFFFF" d="M17.5,218.4C17.6,218.4,17.6,218.4,17.5,218.4C17.6,218.3,17.6,218.4,17.5,218.4z"/>
					<path fill="#FFFFFF" d="M19.8,6.5C19.8,6.5,19.8,6.5,19.8,6.5C19.8,6.5,19.8,6.5,19.8,6.5z"/>
					<path fill="#FFFFFF" d="M27.6,1.7l-0.1,0c0,0.1,0,0.1,0,0.2L27.6,1.7z"/>
					<path fill="#FFFFFF" d="M17.7,179.5C17.7,179.5,17.7,179.5,17.7,179.5C17.7,179.8,17.7,179.6,17.7,179.5z"/>
					<path fill="#FFFFFF" d="M12.4,120.3c-0.6,0.6,0.3-1.3-0.5-0.3C12.1,119.9,11.8,121.1,12.4,120.3z"/>
					<path fill="#FFFFFF" d="M20.8,245.6l-0.2-0.3C20.7,245.5,20.7,245.6,20.8,245.6z"/>
					<path fill="#FFFFFF" d="M11.9,119.9L11.9,119.9L11.9,119.9C11.9,120,11.9,120,11.9,119.9z"/>
					<path fill="#FFFFFF" d="M17.2,162.8c0,0-0.1,0.1-0.1,0.2C17.2,163,17.2,163,17.2,162.8z"/>
					<path fill="#FFFFFF" d="M17.1,175.3l0-0.3C17.1,175.1,17.1,175.2,17.1,175.3z"/>
					<path fill="#FFFFFF" d="M16.6,156.4c0-0.2,0-0.2,0-0.5c0,0,0,0,0,0.1C16.6,156.1,16.6,156.2,16.6,156.4z"/>
					<path fill="#FFFFFF" d="M16,149.7c0,0,0,0.1,0,0.1c0,0.1,0,0.1,0,0.2L16,149.7z"/>
					<path fill="#FFFFFF" d="M15.9,26.9c0.1-0.1,0.2-0.2,0.3-0.3C16,26.7,16,25.7,15.9,26.9z"/>
					<path fill="#FFFFFF" d="M21,245.8c-0.1,0-0.1,0-0.2-0.1C20.8,245.7,20.9,245.8,21,245.8C20.9,245.8,21,245.8,21,245.8z"/>
					<path fill="#FFFFFF" d="M14.3,156.2l0-1.1C14.3,155.5,14.3,155.9,14.3,156.2z"/>
					<path fill="#FFFFFF" d="M15.2,75.1l0-0.2C15.1,75,15.1,75.1,15.2,75.1z"/>
					<path fill="#FFFFFF" d="M14,152.1c0.1-0.2,0.1-0.4,0.1-0.6c0,0,0-0.1-0.1-0.1L14,152.1z"/>
					<path fill="#FFFFFF" d="M16.2,26.6L16.2,26.6L16.2,26.6z"/>
					<path fill="#FFFFFF" d="M16.3,19.5c-0.1,1,0.3,0.5,0.5,0.8c0,1.2-0.3,0.5-0.6,0.9c0,0.8,0.3,1.4,0.2,2c-0.1,0-0.1,0.1-0.2,0
						c0.2,0.8-0.2,2.4,0.1,3.4c0,0.1-0.1,0.1-0.1,0.1c0.2-0.1,0.4-0.1,0.5-0.1c0,0.5,0.2,0.9-0.1,1c0-0.3-0.1-0.3-0.1-0.4l0.1,0.5
						c-0.4,0.4-0.1-0.7-0.3-0.7c0,0.9,0.3,2,0.1,2.8c-0.4,0.1,0-1.7-0.4-0.7l0.2-1.1c-0.6,0.8,0.1-0.7-0.5,0.1
						c-0.2,1.5,0.1,1.6-0.1,3.1c0.2,0.3,0.3-0.1,0.5,0.2c0.2,2.1-0.9,1.6-0.6,3.1c0.2,0.4,0.6,0.6,0.4,1.6l-0.4-0.4
						c-0.1,1.4,0.5,0.8,0.2,2.3c-0.1-0.3-0.1-1.1-0.1-0.9c-0.3,0.9,0.2,0.7,0.2,1.4l-0.3,0.1c0,1.5,0.2,3.2,0.3,4.8
						c-0.1-0.1-0.2-0.4-0.3,0c0.1,2.1-0.1,4.5-0.3,6.5l0.3,0.8c0,0.2-0.1,0.3-0.2,0.1c-0.1,0.8,0.2,0,0.3,0.4c0,0.4-0.2,0.6-0.3,0.3
						c0.2,1.4,0.5,4,0.2,5.4l-0.1-0.3c-0.1,1.1,0.6,1.3,0.3,2.3l-0.1-0.2c-0.1,2.5,0.1,5.2-0.3,7.1c0.4,0.4-0.2,2.4,0.4,2.6
						c-0.3,1.4-0.4,1-0.6,3c0,0.5,0.4,0.8,0.4,1.4l-0.3,0l0.3,0.9L15,74.3l0.1,0.6c0-0.2,0.1-0.5,0.2-0.5c0.1,1-0.2,2.3-0.4,2.4
						l0.2,2.3C15.1,79,15,78.6,15,78.3c0.3,1.2-0.3,0.2-0.1,1.3c0.1-0.1,0.2,0.1,0.2,0.1c-0.2,0.6-0.2,1.8-0.2,2.7l-0.2-0.2
						c-0.1,1.7,0,3.5,0,5.4c0.1-0.7,0.5-0.5,0.5,0L14.9,88c0.2,0.4,0.1-0.6,0.4,0.2c-0.1,0.7-0.4,0.5-0.5,0.1l0.1,0.9
						c-0.1,0-0.1-0.2-0.3-0.2c0.2,0.4-0.4,1.5-0.1,2l-0.1,0c-0.1,1.9,0,2.7-0.1,4.3c0.3,0,0.2,0.6,0.4,1.1c-0.2,1.1-0.5,2.3-0.6,3.7
						c0.1,1,0.2,0.3,0.3,0.7c-0.3,0-0.4,1.4-0.5,0.7c-0.1,1.6-0.1,2.1-0.2,4.1c0.1-0.2,0.2-0.5,0.3-0.3c0,0.4-0.2,0.8-0.3,0.8l0-0.1
						c0.1,2.4-1.5,5.1-1.4,7l0-0.1c0,0,0,0.5-0.1,0.9c0,0.5-0.1,0.9-0.1,0.9c-0.3,0.8,0-0.5-0.4,0c-0.1,2.1-1,3-1.4,4.6
						c-0.6,0.4-1.1,1.4-1.7,2.3c-0.3,0.5-0.6,0.9-1,1.3c-0.4,0.3-0.4,0.5-1.7,0.9l0.4,0c-0.3,0.3-0.6,0.4-0.9,0.4
						c-0.2,0-0.3,0.1-0.5,0.1c-0.2,0-0.5,0.1-0.7,0.1c0.2,0,0.6-0.1,0.9-0.1c0.2-0.1,0.3-0.1,0.1,0.1c-0.9,0.3-1.7,0.5-2.6,0.8
						c-0.7,0.2-1.5,0.4-2.2,0.6l1.3,0.3l1.3,0.4l1.5,0.4c0.2,0.1,0.5,0.1,0.7,0.2l0.5,0.3l1.1,0.5c0.2,0.1,0.2,0.1,0.3,0.2l0.2,0.2
						l0.4,0.4l0.3,0.4c0.9,1.2,1.5,2.6,2,4c0.5,1.3,1.2,0.4,1.3,2.2l-0.5-0.4c1.3,2.6,1.5,5.7,2.2,8.4c-0.1-0.2-0.2-0.1-0.2-0.4
						c-0.1,0.6,0.3,2.2,0.5,2.2c0,0.4-0.2,0.1-0.2,0.4c-0.1,0.6,0.5,1.5,0.3,1.8c0,0.1-0.1-0.2-0.1-0.3c0.2,0.4,0.2,1.8,0.4,1.4
						c0,1.1,0.3,2,0.2,2.9c0.4,0.5,0,1.8,0.4,2c-0.4,0-0.2,1.9,0,2.6c-0.1-0.2-0.1,0.6-0.3,0.3c0,0.8,0.2,1.5,0.4,1.3
						c-0.5,1.5,0.6,2.9-0.1,3.7c0.3,2.3,0.6,4.4,0.7,6.5c-0.4-0.1-0.1-2.3-0.6-2.2c0.2,2,0.6,3.1,0.6,5.1c-0.1,0.5-0.2-0.3-0.3-0.5
						c0.2,2,0,3.8,0.3,5.6c0,0-0.1-0.2-0.1-0.4c0,0.3-0.1,0.8,0.1,0.8l-0.1-0.3c0.3-0.6,0.6,1.4,0.8,1.4c-0.6-0.6-0.1,1.7-0.9,0.8
						c0,0.2,0.1,0.5,0.3,0.5c0,0.3-0.1,0.4-0.3,0.1c0.1,1.2,0.3,0.8,0.3,1.9c-0.1,0-0.1-0.2-0.3-0.3c0.2,0.6,0.4,1.1,0.3,2.1
						c-0.1-0.1-0.1,0.1-0.1-0.2c0,1.6,0.5,2.8,0.3,4.6c-0.4-0.5-0.1,0.6-0.5,0.7l0.1,1l0.2-0.4c0,0.8,0.3,1.6,0.1,2.3l-0.2-0.6
						l0.1,1.6l0.1-0.9c0.2,0.9,0.5-0.1,0.4,1c0-0.2,0,0.8-0.2,1.3l0,0c0.1,0.4,0.2,0.8,0.2,1.5c-0.1,0.2-0.4-0.1-0.5,0
						c0.3,0.4,0.1,2,0.4,2.5c-0.1-0.2-0.3-0.2-0.3-0.1l0.3,0.3c-0.1,0.4-0.1,0.4-0.3,0.4c0,1.2,0.5-0.4,0.3,1c0-0.1-0.1-0.1-0.1-0.3
						c-0.1,1.4,0.2,2.7,0.1,4c-0.4,0.4-0.1-1.1-0.4-0.7c0.1,1.9,0.5,3.9,0.4,5.7l0-0.3c0.5,0.2-0.2,1.3,0,2.3c0-0.2-0.3-0.3-0.2-0.2
						c-0.1,1.2,0.2,2.5,0.4,4.4l-0.1-0.2c-0.1,0.7,0,1.9,0,2.7c0.1,0.2,0.1,0.7,0.3,0.4c-0.7,2.5,0.6,4.6,0.1,6.8
						c0-0.3-0.2-0.6-0.1-0.4l0.2,1.8c0.2-0.2,0.1-0.3,0.3-0.6c0.2,0.2,0.3,0.7,0.3,1.2c-0.2-0.8-0.4,0-0.5,0.4
						c0.1-0.1,0.2,0.1,0.2,0c-0.3,1,0.5,0.1,0.3,1.4l-0.1-0.1c0.1,0.5,0.3,0.9,0.3,1.4c-0.2,0.2-0.2-0.5-0.4-0.5
						c0.1,0.7,0.6,1.4,0.5,2.1c-0.1-0.3-0.2-0.8-0.3-1.1c-0.2,0.8-0.1,0.8-0.1,1.4l0-0.1l0,1.3l0-0.3c0.8,0.8,0.4,1.9,1,3
						c-0.6-1.1-0.3-0.2-0.6-0.2c0,0.3,0,0.8-0.2,0.7c0.3,0.5,0,1,0.5,1.8c-0.1,0.1,0.1,0.6-0.2,0.5c0.2,0.7,0.1-0.2,0.3-0.2
						c0.6,1.1,0.2,2.9,1.1,4.4c0.6,1.4,1,1.5,1.7,2.7c0,0.5-0.5-0.2-0.5-0.2c0.2,0.7,0.4,1.3,0.9,1.8c-0.1-0.1-0.1,0.1-0.1,0.3
						c0.3,0.5,0.5,0.2,0.8,0.9c-0.2,0-0.4-0.1-0.6-0.3c0.4,0.5,1,1,1.5,1.5c0,0.3-0.5-0.2-0.7-0.3c0.5,0.6,1.6,1.5,1.9,1.4
						c0,0-0.3-0.4-0.3-0.4c0.2,0.2,0,0.3-0.2,0.2c-0.3-0.2-0.5-0.4-0.6-0.5c-0.1-0.2,0-0.3,0-0.4c0,0,0.4,0.3,0.4,0.3
						c0-0.4-0.3-0.7-0.7-1.1c-0.4-0.4-0.9-0.8-1.1-1.3l0.6,0.2c0,0-0.2-0.2-0.4-0.4c-0.2-0.2-0.4-0.4-0.4-0.4c0-0.2,0.1-0.5,0.4-0.1
						c-0.1-0.7-0.4-0.5-0.4-1.1c0-0.1,0-0.1,0.1,0l-0.4-0.6c0.1,0.1,0.2-0.2,0.3,0.2c-0.2-1.2-1-1.7-0.8-2.3l0.1,0.1
						c-0.6-1.6-0.4-0.1-1-1.2l0.5-1l-0.3-0.1c0-0.2-0.1-0.5,0-0.5c-0.3-0.6-0.1,0.1-0.4-0.2c0.1-0.9-0.6-2.3-0.2-2.5
						c-0.3-0.3,0,0.8-0.4,0c0.5-0.3-0.3-1-0.2-1.8c0.3,0.2,0.3,0.9,0.4,0.1c-0.5-0.4-0.1-1.5-0.3-2.1c-0.4,0-0.3-1.4-0.6-2.5
						c0.1,0.1,0-2.1,0-3.1l0.1,0c-0.4-0.2-0.4-1.2-0.5-2c0.2,0,0.3,0.1,0.5,0.5l-0.1-0.7c-0.1-0.2-0.2-0.4-0.3-0.8l0.3,0.2
						c-0.1-1-0.5-1.9-0.3-3.1c-0.3-0.1-0.7,1-0.9-0.3c0.1-0.1,0.4-0.1,0.4,0.2c0-0.1-0.1-0.4-0.1-0.6l0.3,0.5
						c0.1-0.6-0.2-0.3-0.2-0.7c0.2,0,0.1-0.3,0.3-0.3c0,0.1-0.1,0.4,0,0.6c0-0.5,0.1-1.1,0.2-1.3c-0.1,0-0.3,0-0.3-0.4
						c-0.1-1,0.2-0.3,0.3-0.9c-0.1-0.2,0-0.8-0.3-0.8c0-0.3,0.1-0.3,0.2-0.4c-0.1-0.5-0.1-2.3-0.4-1.7l0,0.1c0,0,0-0.1,0-0.1l0,0
						l0,0c-0.3-1.6,0.1-3.4-0.1-5l0.1,0c-0.1-1-0.1-2.1-0.3-2.8c0-0.3,0.2-0.7,0.3-0.6c-0.1-0.7-0.2-0.8,0-1.9
						c0.2,0.7,0.1-0.3,0.1,0.8c0.1-1,0.2-1.2,0-2.2c0.3,0.3,0.3-0.7,0.2-1.2L17,202c0-0.5,0-1,0-1.4l0.3,0.2c0.4-2-0.7-3.5,0-5
						c-0.2-0.5-0.2,1.1-0.4,0.6c0-0.9,0.5-1.8,0.5-2.1c0.2-1.2-0.5-1.1-0.4-2.4c-0.1,0.2-0.4,0.3-0.5-0.6c0-0.9,0.5-1.1,0.6-0.5
						c0,0.2,0,0.3-0.1,0.3c0,0.3,0.1,0.7,0.2,0.3l-0.1-0.1c0.1-0.4,0.1-1.7,0.3-1.4c-0.1-0.7-0.2-0.3-0.3,0.2c0.2-1.2,0-1.8,0.1-3
						c-0.1,0.2-0.2,0.4-0.2,0.2c0.1-1.7-0.2-0.8-0.3-2c0.2-0.7,0.4,0.2,0.3-0.9c0.1-0.7,0.3-0.2,0.4,0.1c-0.2-1.1,0.1-2,0.2-2.6
						l0.1,0.6c-0.1-0.3-0.1-0.6-0.1-0.9l-0.2,0.3c0-0.3,0-0.6,0.1-0.6c-0.2-0.3-0.4,0.3-0.6-0.4c0.1-0.4-0.1-1.4,0.2-1.5
						c-0.1,1.4,0.3-0.2,0.4,1c0-0.2,0-0.5,0-0.8c0-0.1,0.1,0,0.1,0.1c0.3-1.3-0.4-0.6-0.4-2c0.2,0.2,0.3-0.3,0.3-0.6
						c0,0.6-0.3,0.3-0.4-0.2c0.1-0.9-0.1-1-0.1-1.4l-0.1,0.5c-0.2-0.2-0.2-0.6-0.2-1.3c0.1-0.1,0.1,0.6,0.2,0.3
						c-0.3-0.7,0.3-1.6,0.1-2.5c0.1-0.4,0.3,0,0.4-0.4c-0.2-1.1,0.2-1.2,0-2.3c-0.2,0.3-0.2,0.4-0.4-0.4l0.2,1.9l-0.4-1.2
						c0,0.6,0.2,1.2,0.1,1.5c-0.2-0.6-0.1-0.5-0.3-0.2c0.3-0.8-0.2-1.5,0-2.4l0.6,0c0.2-1.3-0.4-2.4-0.3-4.1l-0.1,0.6
						c-0.2-0.2-0.1-1.1-0.2-1.6c0.2,0,0.3-0.3,0.4-0.6c-0.1,0,0-1.3-0.4-1.4l0.2-0.8c0-1.4-0.6-1.6-0.6-2.9c0.2,0.4,0.3-0.2,0.5,0.7
						c0-0.5,0-0.9-0.1-0.9c0.1-0.3-0.3-1.2-0.2-1.7c-0.1-0.2-0.3-0.2-0.3-0.7c0-0.1,0.1,0,0.1,0c-0.1,0-0.2-0.8-0.4-0.3
						c0.5-1.4-0.3-3.9,0.1-5.1c-0.1-1-0.4-2.2-0.5-3c0.1,0.1,0.1,0,0.1,0.2c0-1.3-0.7-0.7-0.6-2.1c0.2-0.8,0.3,0.7,0.3,0.3
						c0.6-0.3-0.3-1.7-0.1-2.7l0.1,0.2c0.1-0.8-0.5-1.7-0.7-2.9c0,0,0.1,0,0.1,0c-0.5-0.7-0.9-2.2-1.3-3.3c0.3,0.3,0.3,0.5,0.5,0.2
						c-0.2-0.5-0.4,0.2-0.7-0.7c0-0.4,0-1.1,0.2-1.3c0,0,0.1,0.2,0.2,0.5c0.1,0.2,0.1,0.5,0.1,0.5c0.2-0.6-0.4-1.2-0.5-1.7l0.2,0
						c-0.3-0.7-0.5-1-0.8-1.4c-0.2-0.3-0.5-0.7-0.8-1.4l0,0.2c-0.7-0.6-0.1-0.8-0.8-1.4l0.2-0.4c-0.2-0.2-0.6-0.6-1-1
						c-0.5-0.4-0.9-0.8-1.3-1.1c0.7,0.2,1.6,1.1,2.2,1.6c-0.2-0.2-0.4-0.7-0.8-1c-0.3-0.3-0.7-0.6-0.9-0.7c0.2,0.1,0.5,0.3,0.6,0.5
						c-0.4-0.2-0.7-0.4-1.1-0.7c-0.2-0.1-0.4-0.3-0.6-0.4c-0.2-0.1-0.4-0.2-0.6-0.3c0.6-0.2-0.1-0.5-0.5-0.6
						c0.4-0.1,0.8-0.2,1.2-0.1c0-0.1,0.2-0.2,0.3-0.3l0.1,0l0.2-0.1l0.3-0.3c0.2-0.2,0.5-0.4,0.6-0.6c0.8-0.8,1.6-1.7,2.1-2.8
						c-1,0.5,0.3-0.6-0.3-0.8c0.2-0.5,0.3-0.7,0.4-0.7c0,0,0.3-0.3,0.5-0.7c0.2-0.4,0.5-0.7,0.5-0.7c0.3-0.3-0.1,0.5,0.1,0.5
						c0.5-1.1,0.4-0.4,0.9-1.1c-0.3,0.1-0.2-0.5,0.1-1.1l-0.6,0.8c0.2-1.7,0.9-1.3,1.1-3l0,0.6c0.1-0.4,0.2-1.2,0.4-2
						c0.1-0.8,0.2-1.6,0-2.1c0.1-0.1,0.3-0.3,0.3,0.1c0.5-2,0.2-4.6,0.7-6.2l0.1,0.2c0-0.4-0.2-0.7,0-1.2c0.1,0,0.1,0.2,0.2,0
						c0-0.2-0.1-1,0-1.5l0.1,0.4c0.4-2-0.1-3.1-0.1-4.8c0.4,0,0.7-1.5,0.8-2.3l0.1,0c0.2-2.3-0.1-4-0.2-6.1c0.5-1.3,0.4-4.5,0.7-6.7
						c-0.1,0.3-0.3-0.1-0.4-0.4c0.1-0.5-0.3-1.4,0.1-1.3l0,0.2c0.4-0.4,0.3-1.4,0.3-2.2l-0.5-0.1c0.8-2.1-0.2-5.5,0.5-6.7
						c-0.1-0.5-0.1-1.1-0.3-1.6l0.3,0c0.1-1.4,0.1-2.1,0-3.9l0.2,0.4c0-1-0.8-1.2-0.8-2.1l0.4-0.3c0-1.7,0.4-3.5,0-5.1
						c0.1,0,0.2,0.1,0.2,0.4c0-0.8,0.3-3.1-0.3-2.8c0.4,0,0-1.8-0.1-2.7l0.3,0.1C17.1,54,17,54,16.9,52.9c0-0.3,0.2-0.2,0.2,0.1
						c0.1-0.9-0.3-0.7-0.1-1.7l0.2,0.4c0-0.9-0.1-0.8-0.3-1.3c-0.1-0.6,0.1-1.7,0.3-1.8c-0.2-0.1-0.4-0.6-0.3-1.1
						c0.1-0.1,0.2,0.1,0.2,0.2c0.2-1.5-0.3-2.2,0-3.2c0.1,0,0.1-0.1,0.2-0.2c0,1.2,0,2.1-0.1,2c0.3,0,0.3-0.9,0.7-0.2
						c-0.2-0.8-0.6-2.1-0.4-3c0,0,0.1-0.1,0.1-0.1l0,0.1c0-0.2,0-0.4,0-0.6c0-0.3,0.1-0.5,0.1-0.8c0.2-0.1,0.1-1.1,0.2-1.6
						c-0.3,0-0.2-0.6-0.5,0c0-0.1,0,0.1,0,0.4c0,0.1,0,0.2,0,0.2l0,0c0,0.3,0,0.7,0,1.2c-0.1-0.4-0.2-0.8-0.1-1.3
						c-0.2-0.2-0.4-0.5-0.4-0.7c0.4-0.6,0.7-1.9,0.9-2c-0.1-1.4,0-3.4-0.5-4.3c0-0.4,0.2-0.5,0.3-0.6c0,0.2,0,0.5,0.1,0.7
						c-0.1-0.8,0.1-2.4-0.3-2.6c0.2-1,0.3,0.6,0.3-0.8l0.1,0.2c0.8-2.7-0.7-4.6,0.4-7.6C18.1,23,18,23.1,18,23.1
						c0.7-3.5,0.6-7.3,1.9-10.5c0.4-0.9,0.1-1.1,0.1-1.7l0.4-0.1l0-1.1c0.3-1.5,1.5-2.1,2-3.8c0,0-0.3,0.1-0.3,0.1
						c0.2-0.3,0.4-0.7,0.7-1.1c0.3-0.3,0.5-0.6,0.5-0.4c0-0.1,0-0.3,0.2-0.4l0.1,0.1c0,0,0.2-0.3,0.5-0.6c0.1-0.2,0.3-0.3,0.4-0.4
						c0.1-0.1,0.2-0.2,0.2-0.2c0.5-0.3,0.6-0.1,0.7,0c0.1,0.1,0.2,0.2,0.9-0.1c0.5-0.3,1.6-0.7,1.4-0.8c-0.3,0-0.7,0-0.7-0.2
						l0.6-0.1c0.1-0.2,0.2-0.5,0.1-0.7c-0.1-0.2-0.4-0.4-1.3-0.5c0,0-0.3,0.2-0.6,0.3c-0.3,0.1-0.6,0.3-0.6,0.3l-0.5,0
						c0,0,0.2-0.1,0.5-0.2c0.3-0.1,0.5-0.2,0.5-0.2c-0.7-0.1-1,0.3-1.3,0.6c-0.2-0.1-0.4-0.1-0.6,0.1c0,0-0.2,0.3-0.4,0.5
						c-0.2,0.3-0.3,0.6-0.3,0.6c-0.2,0,0.2-0.6-0.5-0.2c-0.3,0.5,0.7-0.1,0.1,0.7c-0.6,0.3-0.6,0-0.8,0.7c-0.2,0-0.1-0.2,0-0.4
						C21.5,3.9,21,4.7,21,5.1c-0.5,0.4-0.9,1.7-1.2,1.5c0,0.2-0.1,1.1-0.3,1.5c-0.2-1.1-0.7,1.8-1.1,1.4c0.2,0.8-0.5,2.5-0.5,3.7
						c0-0.1-0.1-0.2,0-0.3c-0.2,0.7-0.4,0.8-0.6,1.2c0.4,0.2,0.3,1.2,0.4,1.8c-0.5,0.8-0.4-0.6-0.8-0.4c0.3,0,0.1,1.5,0.4,1.2
						c-0.3,0.6-0.2,0.5-0.6,0.8c0.5,0.2,0,0.6,0.2,1.2c-0.4,0.9-0.5,0.2-0.5,1.2C16.3,20.4,16.3,19.5,16.3,19.5z M15.7,43.4
						L15.7,43.4c0-0.2,0-0.4,0-0.5C15.7,43,15.7,43.1,15.7,43.4z M15.7,45.4c0-0.2,0-0.5,0-0.9c0.1-0.1,0.2,0,0.2,0.2
						C15.8,44.6,15.7,45.1,15.7,45.4z M17.7,41.2c0,0.3,0,0.4-0.1,0.5c0-0.1,0-0.3,0-0.6c0,0,0,0,0,0C17.6,41.1,17.6,41.1,17.7,41.2
						z"/>
					<path fill="#FFFFFF" d="M17.3,40.6c0,0,0-0.1,0-0.1C17.3,40.5,17.3,40.6,17.3,40.6c-0.1,0.1,0,0.1,0,0.2
						C17.3,40.7,17.3,40.7,17.3,40.6z"/>
					<path fill="#FFFFFF" d="M17,214.1L17,214.1C17,214.1,17,214.2,17,214.1C17,214.1,17,214.1,17,214.1z"/>
					<polygon fill="#FFFFFF" points="15,72.9 15.1,72.9 15,72.7 					"/>
					<path fill="#FFFFFF" d="M16.6,225.1c0,0,0,0.1-0.1,0.1C16.6,225.3,16.6,225.2,16.6,225.1z"/>
					<path fill="#FFFFFF" d="M17,229.9l0,0.7C17,230.3,17,230.1,17,229.9z"/>
					<path fill="#FFFFFF" d="M17.4,233.6c0.1,0,0.1,0,0.1,0.1l0,0L17.4,233.6z"/>
					<path fill="#FFFFFF" d="M15.2,175.5c0,0,0-0.1,0-0.1C15.1,175.1,15.2,175.3,15.2,175.5z"/>
					<path fill="#FFFFFF" d="M15.9,192.8c-0.1-0.2-0.1-0.4-0.1-0.6C15.8,192.5,15.8,192.8,15.9,192.8z"/>
					<polygon fill="#FFFFFF" points="14.3,156.4 14.3,156.4 14.3,156.2 					"/>
					<path fill="#FFFFFF" d="M15.8,191.4c-0.1,0.3,0,0.6,0,0.8C15.8,192,15.8,191.7,15.8,191.4z"/>
					<path fill="#FFFFFF" d="M23,248.7l0.1,0.1c0,0,0,0,0,0L23,248.7z"/>
					<path fill="#FFFFFF" d="M23.1,248.8l0.2,0.1C23.2,248.8,23.2,248.8,23.1,248.8z"/>
					<path fill="#FFFFFF" d="M23.7,249.1c0,0-0.4-0.2-0.4-0.2C23.4,249,23.6,249.1,23.7,249.1z"/>
					<path fill="#FFFFFF" d="M20.2,244.3l-0.1,0C20.1,244.3,20.2,244.3,20.2,244.3z"/>
					<path fill="#FFFFFF" d="M19.6,242.9c0.1,0.3,0.1,0.9,0.4,1.4l0.1,0C19.8,244.2,19.9,243.2,19.6,242.9z"/>
					<path fill="#FFFFFF" d="M19.2,236.7l0.2,1.2c0.1-0.2,0.1-0.5,0.3,0C19.6,236.3,19.5,238.2,19.2,236.7z"/>
					<path fill="#FFFFFF" d="M18.7,232.9c0.2,0.6,0.2,0,0.2,0C18.7,232.5,18.7,232.4,18.7,232.9z"/>
					<path fill="#FFFFFF" d="M17,205.5l0.3,0.1C17.3,205.1,17.2,205.6,17,205.5z"/>
					<polygon fill="#FFFFFF" points="15.7,200.3 15.5,200.8 15.8,201 					"/>
					<polygon fill="#FFFFFF" points="17.5,197.2 17.5,197.4 17.4,196.5 					"/>
					<path fill="#FFFFFF" d="M16.4,150.8l-0.3,0.2C16.2,151.4,16.6,151.4,16.4,150.8z"/>
					<path fill="#FFFFFF" d="M11.9,131.2c0-0.3-0.1-0.9-0.4-1.1C11.7,130.5,11.8,131,11.9,131.2z"/>
					<polygon fill="#FFFFFF" points="17.5,78.2 17.6,78.6 17.5,77.9 					"/>
				</g>
			</g>
		</g>
	</g>
</g>
</svg>
