<?xml version="1.0" encoding="utf-8"?>
<!-- Generator: Adobe Illustrator 18.0.0, SVG Export Plug-In . SVG Version: 6.00 Build 0)  -->
<!DOCTYPE svg PUBLIC "-//W3C//DTD SVG 1.1//EN" "http://www.w3.org/Graphics/SVG/1.1/DTD/svg11.dtd">
<svg version="1.1" id="Layer_1" xmlns="http://www.w3.org/2000/svg" xmlns:xlink="http://www.w3.org/1999/xlink" x="0px" y="0px"
	 viewBox="0 0 103 33.5" enable-background="new 0 0 103 33.5" xml:space="preserve">
<g>
	<g>
		<g>
			<g>
				<g>
					<path fill="#FFFFFF" d="M101.5,32c0.1,0.1,0.3,0.1,0.2-0.3l-0.3-0.3L101.5,32z"/>
					<path fill="#FFFFFF" d="M102.1,29.4c-0.2-0.4-0.4-1-0.7-0.7c0.3,0.4,0.2,0.5,0.6,1c0,0.4-0.1,0.7-0.2,0.6
						c0.1,0.1-0.1,0.6,0.1,0.8c0.3-0.5,0.3-1.1,0.1-1.8C101.9,29.3,102,29.4,102.1,29.4z"/>
					<path fill="#FFFFFF" d="M92.9,1l0.2,0C93.1,1,93,1,92.9,1z"/>
					<path fill="#FFFFFF" d="M69.9,0.8c0.2,0,0.2,0,0.3-0.1C70,0.8,69.8,0.8,69.9,0.8z"/>
					<path fill="#FFFFFF" d="M66,0.5c0.1,0,0.2,0,0.2,0C66.1,0.5,66,0.5,66,0.5z"/>
					<path fill="#FFFFFF" d="M92.9,1l-0.6-0.1C92.2,1,92.6,1,92.9,1z"/>
					<path fill="#FFFFFF" d="M101.3,24.3c0,0.1,0,0.2,0.1,0.3L101.3,24.3C101.3,24.3,101.3,24.3,101.3,24.3z"/>
					<path fill="#FFFFFF" d="M102.8,2.1l0,0.3c0,0.1,0.1,0.1,0.1,0.2L102.8,2.1z"/>
					<path fill="#FFFFFF" d="M102.9,10.2c0-0.2-0.3-0.2-0.4-0.3c0.1,0.1,0.2,0.2,0.2,0.4C102.8,10.3,102.8,10.3,102.9,10.2z"/>
					<path fill="#FFFFFF" d="M102.4,22.6l0,0.2C102.4,22.7,102.4,22.6,102.4,22.6z"/>
					<path fill="#FFFFFF" d="M97.5,0.7c0,0,0-0.1-0.1-0.1C97.4,0.6,97.4,0.7,97.5,0.7z"/>
					<path fill="#FFFFFF" d="M93.1,30.7C93.1,30.7,93.1,30.7,93.1,30.7C93.1,30.7,93.1,30.7,93.1,30.7z"/>
					<path fill="#FFFFFF" d="M102.1,32.1l-0.1,0c0,0.1,0,0.1,0,0.2L102.1,32.1z"/>
					<path fill="#FFFFFF" d="M58.8,0.1C58.8,0.1,58.8,0.1,58.8,0.1C59,0.1,58.9,0.1,58.8,0.1z"/>
					<path fill="#FFFFFF" d="M0.5,10.4c0.3-0.7,0.3,1.2,0.6,0.1C0.9,10.6,0.6,9.4,0.5,10.4z"/>
					<path fill="#FFFFFF" d="M101.3,24.1l0-0.3C101.3,23.9,101.3,24,101.3,24.1z"/>
					<path fill="#FFFFFF" d="M1.1,10.5L1.1,10.5l0-0.1C1.1,10.4,1.1,10.4,1.1,10.5z"/>
					<path fill="#FFFFFF" d="M42.2,0.3c0,0,0.1,0.1,0.2,0.1C42.4,0.4,42.3,0.3,42.2,0.3z"/>
					<path fill="#FFFFFF" d="M54.5,0.7l-0.3,0C54.4,0.7,54.4,0.7,54.5,0.7z"/>
					<path fill="#FFFFFF" d="M35.8,0.7c-0.2,0-0.2-0.1-0.4,0c0,0,0,0,0.1,0C35.5,0.7,35.6,0.6,35.8,0.7z"/>
					<path fill="#FFFFFF" d="M29.1,0.7c0,0,0.1,0,0.1,0.1c0.1,0,0.1,0,0.2,0L29.1,0.7z"/>
					<path fill="#FFFFFF" d="M72.8,30.8c0.1,0.1,0.2,0.2,0.3,0.3C73,30.9,74,30.8,72.8,30.8z"/>
					<path fill="#FFFFFF" d="M101.4,24.3c-0.1,0-0.1-0.1-0.1-0.2c0,0.1,0,0.2,0,0.2C101.4,24.3,101.4,24.4,101.4,24.3z"/>
					<path fill="#FFFFFF" d="M35.5,2.9l-1.1,0C34.7,2.9,35.1,2.9,35.5,2.9z"/>
					<path fill="#FFFFFF" d="M24.9,30.8l0.2,0C25.1,30.8,25,30.8,24.9,30.8z"/>
					<path fill="#FFFFFF" d="M31.3,2.9c-0.2-0.1-0.4-0.2-0.6-0.2c0,0-0.1,0-0.1,0.1L31.3,2.9z"/>
					<path fill="#FFFFFF" d="M73.1,31.1L73.1,31.1L73.1,31.1z"/>
					<path fill="#FFFFFF" d="M80.1,30.4c-1,0-0.5,0.4-0.7,0.6c-1.2,0.1-0.6-0.3-1-0.5c-0.8,0.1-1.3,0.4-1.9,0.4c0-0.1-0.2-0.1,0-0.2
						c-0.8,0.3-2.4,0-3.3,0.4c-0.1,0-0.1-0.1-0.1-0.1c0.2,0.2,0.2,0.4,0.1,0.5c-0.5,0-0.8,0.2-1,0c0.3,0,0.3-0.1,0.4-0.2l-0.5,0.1
						c-0.4-0.3,0.6-0.1,0.6-0.4c-0.9,0.1-2,0.4-2.7,0.3c-0.1-0.3,1.7-0.1,0.7-0.4l1.1,0.1c-0.8-0.5,0.7,0-0.1-0.5
						c-1.4-0.1-1.6,0.2-3.1,0.1c-0.3,0.2,0.1,0.3-0.2,0.5c-2,0.3-1.6-0.9-3.1-0.4c-0.4,0.2-0.5,0.7-1.6,0.4l0.4-0.4
						c-1.4,0-0.8,0.6-2.3,0.3c0.3-0.2,1.1-0.1,0.9-0.2c-0.9-0.3-0.7,0.2-1.4,0.2l-0.2-0.3c-1.5,0.1-3.1,0.3-4.8,0.4
						c0.1-0.1,0.4-0.2,0-0.3c-2.1,0.2-4.4,0-6.4-0.2l-0.8,0.3c-0.2,0-0.3-0.1-0.1-0.2c-0.8-0.1,0,0.2-0.4,0.3
						c-0.4,0-0.6-0.2-0.3-0.3c-1.4,0.2-3.9,0.5-5.4,0.2l0.3-0.1c-1.1-0.1-1.3,0.6-2.3,0.3l0.2-0.1c-2.5-0.1-5.2,0.1-7-0.3
						c-0.4,0.4-2.4-0.2-2.6,0.4c-1.4-0.3-1-0.4-3-0.6c-0.5,0-0.8,0.4-1.4,0.4l0-0.3l-0.9,0.3l-0.5-0.4l-0.6,0.1
						c0.2,0,0.5,0.1,0.5,0.2c-1,0.1-2.3-0.2-2.4-0.4l-2.3,0.3c0.1-0.1,0.4-0.2,0.7-0.2c-1.2,0.3-0.2-0.3-1.3,0
						c0.1,0.1-0.1,0.2-0.1,0.2c-0.6-0.2-1.8-0.2-2.7-0.1l0.2-0.2c-1.7-0.1-3.5,0.1-5.4,0.1c0.7,0.1,0.5,0.5,0,0.5l-0.2-0.3
						C11.8,31,12.7,31,12,31.2c-0.7,0-0.5-0.4-0.1-0.5L11,30.8c-0.1-0.1,0.2-0.1,0.2-0.3c-0.4,0.2-1.5-0.3-2,0l0-0.1
						c-1.9,0-2.7,0.1-4.3,0.1c0,0.3-0.6,0.2-1.1,0.4c-0.2,0-0.4,0-0.5-0.1c-0.2,0-0.2,0-0.3-0.1c-0.1,0-0.2-0.1-0.3-0.1
						c0-0.2,0.1-0.3,0.1-0.4c0,0,0-0.1-0.1-0.2c0-0.1,0-0.1,0-0.2C2.7,30,2.7,30,2.6,30c-0.1,0-0.1,0.1-0.2-0.2
						c0.3-0.1,0.2-1.4,0.4-0.7c0-1.6-0.1-2.1-0.3-4.1c-0.1,0.2-0.2,0.5-0.2,0.3c0-0.4,0.1-0.9,0.2-0.8l0,0.1
						c-0.4-2.3,0.7-5.3,0.2-7.2l0,0.1l-0.3-1.9c0-0.9,0.2,0.5,0.4-0.1c-0.4-2.1,0.1-3.3-0.2-4.9c0.8-1.3-0.1-4.7,0.4-6.4L2.9,4.2
						C2.8,3.8,3,3.7,3.1,3.3c-0.1,0-0.2,0.5-0.3,0.2l0-0.4l0-0.1c0-0.1,0-0.2,0-0.3c0.3,0,0.2,0,1.3,0.1c0.8,0,1.7,0.1,2.5,0.1
						c1.7,0.1,3.3,0.2,5,0.3c1.5,0,0.8-0.9,2.7-0.5l-0.5,0.3c2.9-0.4,6,0,8.9-0.3c-0.2,0.1-0.2,0.2-0.5,0.2c0.6,0.2,2.2,0,2.3-0.2
						c0.4,0,0.1,0.2,0.4,0.3c0.6,0.1,1.5-0.3,1.9-0.1c0.1,0-0.2,0.1-0.3,0.1c0.4-0.1,1.8,0,1.5-0.2c1.1,0.1,2.1-0.1,2.9,0
						c0.6-0.3,1.8,0.1,2-0.3c-0.1,0.5,1.9,0.4,2.6,0.2c-0.2,0.1,0.6,0.1,0.3,0.3c0.8,0,1.5-0.1,1.4-0.3c1.4,0.5,2.9-0.4,3.7,0.3
						c2.3-0.2,4.4-0.4,6.5-0.5c-0.1,0.5-2.3,0-2.2,0.5c2-0.2,3.1-0.6,5.1-0.5c0.5,0.1-0.3,0.2-0.5,0.3c2-0.2,3.8,0,5.6-0.2
						c0,0-0.2,0.1-0.4,0.1c0.3,0,0.8,0.1,0.8-0.1l-0.3,0.1c-0.6-0.3,1.4-0.6,1.4-0.8c-0.6,0.6,1.7,0.1,0.8,0.9
						c0.2,0,0.5-0.1,0.5-0.3c0.3,0,0.4,0.1,0.1,0.3c1.2-0.1,0.8-0.3,1.9-0.3c0,0.1-0.2,0.1-0.3,0.3c0.6-0.2,1.1-0.4,2.1-0.3
						c-0.1,0.1,0.1,0.1-0.2,0.1c1.6,0,2.8-0.5,4.6-0.3c-0.5,0.4,0.6,0.1,0.7,0.5l1-0.1l-0.4-0.2c0.8,0,1.6-0.3,2.3-0.1L69,2.3
						l1.6-0.1l-0.9-0.1c0.9-0.2-0.1-0.5,1-0.4c-0.2,0,0.8,0,1.3,0.2l0,0c0.4-0.1,0.8-0.2,1.5-0.2c0.2,0.1-0.1,0.4,0,0.5
						c0.4-0.3,2-0.1,2.5-0.4c-0.2,0.1-0.2,0.3-0.1,0.3l0.3-0.3C76.5,2,76.5,2,76.5,2.2c1.2,0-0.4-0.5,1-0.3c-0.1,0-0.1,0.1-0.3,0.1
						c1.4,0.1,2.7-0.2,4,0c0.4,0.4-1.1,0.1-0.7,0.4c1.9-0.1,3.8-0.5,5.6-0.4l-0.3,0C86,1.4,87.1,2.2,88,2c-0.2,0-0.3,0.3-0.2,0.2
						c1.2,0.1,2.5-0.1,4.4-0.3l-0.2,0.1c0.7,0.1,1.9,0.1,2.7,0.1C94.9,2,95.3,2.1,95,1.9c1.2,0.4,2.4,0.3,3.5,0.2
						c1.1-0.1,2.4-0.3,2.8,0.1c-0.2,0-0.4,0.1-0.3,0.1l0.5-0.1l0.1,0.6c0.2-0.2,0.1-0.2,0.3-0.6c0.1,0.1,0.2,0.5,0.2,1
						c-0.1-0.4-0.2-0.3-0.3-0.2c-0.1,0.1-0.2,0.4-0.2,0.6c0.1-0.1,0.1,0.1,0.2,0c-0.4,1,0.5,0.2,0.2,1.5l-0.1-0.1
						c0.1,0.5,0.2,0.9,0.2,1.5c-0.3,0.2-0.1-0.5-0.3-0.6c0,0.7,0.5,1.5,0.2,2.1c-0.1-0.3-0.1-0.8-0.1-1.1c-0.3,0.7-0.2,0.8-0.3,1.3
						l0-0.1l-0.1,1.2l0.1-0.3c0.7,0.9,0.1,1.9,0.6,3.1c-0.4-1.2-0.2-0.2-0.6-0.3c-0.1,0.3-0.2,0.8-0.3,0.7c0.2,0.6-0.2,1,0.2,1.8
						c-0.1,0,0,0.6-0.3,0.5c0.1,0.8,0.2-0.2,0.3-0.1c0.3,1.2-0.4,2.8,0.1,4.4c0.2,1.5,0.5,1.7,0.7,3.1c-0.2,0.5-0.4-0.4-0.4-0.4
						c-0.1,0.7-0.1,1.3,0,2c-0.1-0.1-0.2,0-0.3,0.2c0,0.6,0.4,0.4,0.2,1.1c-0.1-0.1-0.3-0.3-0.4-0.6c0.1,0.7,0.3,1.3,0.4,2
						c-0.2,0.2-0.3-0.4-0.4-0.6c0.1,0.8,0.2,2,0.4,2.2l0.1-0.5c0,0.3-0.2,0.1-0.3-0.1c-0.2-0.7,0.1-0.9,0.2-1l0.1,0.5
						c0.6-0.5-0.1-1.9-0.1-2.9l0.4,0.4l-0.3-1c0.1-0.2,0.3-0.4,0.4,0.1c0.2-0.7-0.1-0.6,0.1-1.2c0-0.1,0.1,0,0.1,0l-0.1-0.7
						c0.1,0.1,0.3-0.1,0.2,0.3c0.2-1.2-0.3-2,0-2.4l0,0.1c-0.1-1.7-0.3-0.2-0.7-1.4l0.8-0.9l-0.3-0.2c0-0.2,0-0.5,0.2-0.5
						c-0.2-0.7-0.1,0.1-0.3-0.3c0.3-0.8-0.1-2.3,0.4-2.5c-0.2-0.3-0.2,0.8-0.3-0.1c0.5-0.3-0.1-1,0.2-1.8c0.3,0.2,0.1,1,0.4,0.2
						c-0.5-0.5,0.1-1.5,0-2.1c-0.4,0-0.2-1.4-0.3-2.5c0.1,0.1,0.2-2.1,0.3-3.1l0.1,0c-0.2-0.1-0.3-0.4-0.3-0.8c0-0.4,0-0.8-0.1-1.3
						c0.1,0,0.2,0,0.2,0.1c0.1,0.1,0.1,0.3,0.2,0.5l0-0.9c-0.1-0.2-0.2-0.5-0.2-1.1c0,0,0.3,0,0.3,0c0-0.2,0-0.4,0-0.6
						c-0.6,0-1.2,0.1-1.9,0.1c-0.2,0-0.3,0-0.5,0c-0.1,0-0.2,0-0.4,0c-0.2,0-0.5,0-0.7-0.1c-0.1,0.3,1,0.7-0.3,0.9
						c0-0.1-0.1-0.4,0.2-0.4c-0.1,0-0.4,0.1-0.6,0.1l0.5-0.2c-0.6-0.1-0.3,0.2-0.7,0.2c0-0.2-0.3-0.1-0.3-0.3c0.1,0,0.4,0.1,0.6,0
						c-0.5,0-1.1-0.2-1.3-0.3c0,0.1,0,0.3-0.4,0.3c-1,0-0.3-0.2-0.9-0.3c-0.2,0.1-0.8,0-0.9,0.3c-0.3,0-0.3-0.1-0.4-0.2
						c-0.5,0.1-2.3,0-1.7,0.4l0.1,0c0,0-0.1,0-0.1,0h0h0c-1.6,0.3-3.4-0.2-5,0l0-0.1c-1,0.1-2.1,0.1-2.8,0.3c-0.3,0-0.7-0.2-0.5-0.3
						C84.2,1,84.1,1.1,83,1c0.7-0.2-0.3-0.2,0.8-0.1c-1-0.1-1.2-0.2-2.2,0c0.3-0.3-0.7-0.3-1.2-0.2l0.7,0.2c-0.5,0-1,0-1.4,0
						l0.2-0.3c-1.9-0.4-3.5,0.7-5,0c-0.5,0.2,1.1,0.2,0.6,0.4c-0.9,0-1.8-0.5-2.1-0.5c-1.2-0.2-1.1,0.5-2.4,0.4
						c0.2,0.1,0.3,0.4-0.6,0.5c-0.9,0-1.1-0.5-0.5-0.6c0.2,0,0.3,0,0.3,0.1c0.3,0,0.7-0.1,0.3-0.2l-0.1,0.1
						c-0.4-0.1-1.7-0.1-1.4-0.3c-0.7,0.1-0.3,0.2,0.2,0.3c-1.1-0.2-1.8,0-3-0.1c0.2,0.1,0.4,0.2,0.2,0.2c-1.7-0.1-0.8,0.2-1.9,0.3
						c-0.7-0.2,0.2-0.4-0.9-0.3c-0.7-0.1-0.2-0.3,0.1-0.4c-1.1,0.2-2-0.2-2.6-0.2L61.5,0c-0.3,0.1-0.6,0.1-0.9,0.1L61,0.3
						c-0.3,0-0.6,0-0.6-0.1c-0.3,0.2,0.3,0.4-0.4,0.6c-0.4-0.1-1.4,0.1-1.5-0.2c1.4,0.1-0.2-0.3,1-0.4c-0.2,0-0.5,0-0.8,0
						c-0.1,0,0-0.1,0.1-0.1c-1.3-0.3-0.6,0.4-2,0.3c0.2-0.2-0.3-0.3-0.5-0.3c0.6,0,0.3,0.3-0.2,0.4c-0.9-0.1-1,0.1-1.4,0.1l0.5,0.1
						c-0.2,0.2-0.6,0.2-1.2,0.2c-0.1-0.1,0.6-0.1,0.3-0.2c-0.7,0.3-1.6-0.3-2.5-0.1c-0.4-0.1,0-0.3-0.4-0.4
						c-1.1,0.2-1.2-0.2-2.3-0.1c0.3,0.2,0.4,0.2-0.4,0.4l1.9-0.2l-1.2,0.3c0.6,0,1.2-0.1,1.5-0.1c-0.6,0.2-0.5,0.1-0.2,0.3
						c-0.8-0.4-1.5,0.2-2.4,0l0-0.6c-1.3-0.3-2.4,0.3-4.1,0.2l0.6,0.1c-0.2,0.2-1.1,0-1.6,0.1c0.1-0.2-0.3-0.3-0.5-0.4
						c0,0.1-1.3,0-1.4,0.4l-0.8-0.3c-1.4-0.1-1.6,0.6-2.9,0.5c0.4-0.2-0.2-0.4,0.7-0.5c-0.4,0-0.9,0-0.9,0.1
						c-0.3-0.1-1.2,0.3-1.7,0.1C35.2,0.8,35.1,1,34.6,1c-0.1,0,0-0.1,0-0.1c0,0.1-0.8,0.1-0.3,0.4c-1.4-0.6-3.9,0-5.1-0.5
						c-1,0.1-2.2,0.1-3,0.1c0.1-0.1,0-0.1,0.2-0.1c-1.2-0.2-0.8,0.6-2.1,0.4c-0.7-0.3,0.7-0.2,0.3-0.3c-0.2-0.6-1.7,0.1-2.6-0.3
						l0.2,0c-0.7-0.2-1.8,0.2-2.9,0.2c0,0,0.1-0.1,0-0.1c-0.8,0.3-2.3,0.4-3.4,0.5C16.1,0.9,16.2,1,16,0.8c-0.5,0,0.1,0.4-0.9,0.5
						C14.8,1.1,14.1,1,14,0.7l1,0c-0.5-0.4-1.2,0-1.7,0l0.1-0.2c-1.5,0.1-1.5,0.4-3,0.4l0.2,0.1C9.6,1.4,9.7,0.8,8.8,1.1L8.6,0.7
						c-0.6,0.1-2,0.4-3,0.5c0.6-0.3,1.8-0.4,2.5-0.6c-0.6,0-1.9,0-2.2,0.2c0.2,0,0.5-0.1,0.7-0.1C5.9,1,5,1.2,3.9,1.2
						C4,0.9,3.7,0.8,3.2,0.8c-0.7-0.1-1.5,0-2.4-0.1c0,0.9-0.1,1.7-0.3,2.1c0,0.3,0.1,0.6,0.1,0.9c0,0.2,0,0.5,0,0.7
						c0,0.5,0,1,0,1.5C0.5,6.9,0.4,8,0.4,9.1c0.6-0.8,0,0.7,0.6,0.5c0,0.5,0,0.7,0,0.8l-0.4,1.6c-0.2,0.4-0.1-0.5-0.3-0.5
						c0,1.2-0.3,0.5-0.4,1.3c0.2-0.2,0.3,0.4,0.2,1.1L0.5,13c0.3,1.6-0.5,1.4-0.2,3.1l-0.2-0.5c0.1,0.8,0,3.1,0.5,4
						c-0.1,0.2-0.2,0.3-0.3,0c-0.1,2,0.5,4.5,0.2,6.1l-0.1-0.2c0,0.4,0.3,0.7,0.1,1.1c-0.1,0-0.1-0.2-0.2,0c0.1,0.2,0.3,1,0.2,1.5
						l-0.2-0.4c-0.1,0.9,0,1.6,0.1,2.3l0,0.2c0,0.1,0,0.2,0,0.3l0.1,0.8c0.1,0.5,0.1,1,0.2,1.4c0.2,0,0.4,0,0.6,0
						c-0.2,0.2,0.3,0.4,1.2,0.5c0.2,0,0.4,0,0.6,0.1c0.1,0,0.3,0,0.4,0.1c0.3,0,0.5,0.1,0.7,0.1l0,0.1c2.3,0.1,3.9-0.4,6-0.5
						c1.3,0.5,4.5,0.2,6.6,0.5C16.7,33.3,17,33,17.4,33c0.5,0.1,1.4-0.3,1.3,0.1l-0.2,0c0.4,0.4,1.4,0.3,2.2,0.3l0.1-0.5
						c2.1,0.8,5.5-0.3,6.6,0.4c0.5-0.1,1.1-0.1,1.6-0.3l0,0.3c1.4,0.1,2.1,0.1,3.8,0l-0.4,0.2c1,0,1.2-0.8,2.1-0.8l0.3,0.4
						c1.7,0,3.4,0.4,5.1,0c0,0.1-0.1,0.2-0.4,0.2c0.8,0,3.1,0.3,2.8-0.3c0,0.4,1.8,0,2.7-0.1l-0.1,0.3c0.8-0.4,0.8-0.5,1.9-0.6
						c0.3,0,0.2,0.2-0.1,0.2c0.9,0.1,0.7-0.3,1.7-0.1l-0.4,0.2c0.9,0,0.8-0.1,1.3-0.3c0.6-0.1,1.7,0.1,1.8,0.3
						c0.1-0.2,0.6-0.4,1.1-0.3c0.1,0.1-0.1,0.2-0.2,0.2c1.5,0.2,2.2-0.3,3.2-0.1c0,0.1,0.1,0.1,0.2,0.2c-1.2,0-2.1,0-2,0
						c0,0.3,0.9,0.3,0.2,0.7c0.8-0.2,2.1-0.6,3-0.5c0,0,0.1,0,0.1,0.1l-0.1,0c0.2,0,0.4,0,0.6,0c0.3,0,0.5,0.1,0.8,0.1
						c0.1,0.2,1.1,0.1,1.6,0.1c0-0.3,0.6-0.2,0-0.5c0.1,0-0.1,0-0.4,0c-0.1,0-0.2,0-0.2,0l0,0c-0.3,0-0.7,0-1.2,0
						c0.4-0.1,0.8-0.3,1.3-0.1c0.2-0.2,0.5-0.4,0.7-0.5c0.6,0.4,1.9,0.6,2.1,0.8c1.4-0.2,3.4-0.1,4.3-0.6c0.4-0.1,0.5,0.2,0.6,0.2
						c-0.2,0.1-0.5,0-0.6,0.1c0.8-0.1,2.4-0.1,2.6-0.4c1,0.2-0.6,0.3,0.8,0.3l-0.2,0.1c2.8,0.6,4.5-0.9,7.6-0.2
						c-0.2,0-0.3-0.1-0.4-0.1c3.5,0.3,7.3-0.3,10.7,0.2c1,0.1,1.1-0.1,1.7-0.3l0.2,0.3l1-0.3c1.5-0.3,2.5,0.7,4.4,0.3l-0.2-0.2
						c0.7,0,2.1-0.1,2,0.1c0.1,0,0.2-0.2,0.5-0.1l0,0.2l1.6-0.3c1.3,0.1-0.2,0.6,1.7,0.7c0.7-0.1,2-0.5,1.7-0.6
						c-0.3,0-0.7-0.1-0.7-0.3l0.6-0.1c0.1-0.5,0.6-0.9-0.9-1.3l-1.1,0.3l-0.3-0.2l0.9,0c-0.5-0.2-0.8,0-1.2,0.1
						c-0.1-0.1-0.2-0.2-0.5-0.2l-1.1,0.4c-0.1-0.2,0.5-0.4-0.2-0.5c-0.5,0.2,0.5,0.4-0.3,0.5c-0.5-0.2-0.4-0.4-1-0.2
						c-0.1-0.1,0-0.2,0.3-0.2c-0.5,0.1-1.4,0.1-1.7,0.3c-0.5-0.3-1.8,0.1-1.8-0.4c-0.2,0.1-0.9,0.3-1.4,0.4c0.9-0.5-1.8,0-1.6-0.6
						c-0.7,0.5-2.4,0.2-3.6,0.5c0.1,0,0.2-0.1,0.3-0.1c-0.7,0-0.9-0.2-1.3-0.3c-0.1,0.4-1.1,0.5-1.7,0.7c-0.8-0.4,0.5-0.5,0.2-0.8
						c0,0.3-1.4,0.3-1.1,0.6c-0.6-0.2-0.5-0.1-0.9-0.4c-0.1,0.5-0.6,0.1-1.1,0.4c-0.9-0.2-0.2-0.5-1.2-0.3
						C79.2,30.6,80.1,30.4,80.1,30.4z M56.5,31.2L56.5,31.2c0.2,0,0.4,0,0.5,0C56.9,31.2,56.8,31.2,56.5,31.2z M54.5,31.2
						c0.2,0,0.5,0,0.9,0c0.1,0.1,0,0.2-0.2,0.2C55.3,31.4,54.8,31.3,54.5,31.2z M58.7,33.2c-0.3,0-0.4,0-0.5-0.1c0.1,0,0.3,0,0.5,0
						c0,0,0,0,0,0C58.8,33.1,58.8,33.2,58.7,33.2z"/>
					<path fill="#FFFFFF" d="M59.3,32.8c0,0,0.1,0,0.1,0C59.4,32.8,59.3,32.8,59.3,32.8c-0.1-0.1-0.1,0-0.2,0
						C59.2,32.8,59.2,32.8,59.3,32.8z"/>
					<path fill="#FFFFFF" d="M93.2,1.1L93.2,1.1C93.2,1.1,93.2,1.1,93.2,1.1C93.2,1.1,93.2,1.1,93.2,1.1z"/>
					<polygon fill="#FFFFFF" points="27.1,30.7 27.2,30.8 27.3,30.7 					"/>
					<path fill="#FFFFFF" d="M101.6,3.5c0,0-0.1,0.1-0.1,0.1C101.5,3.6,101.5,3.6,101.6,3.5z"/>
					<path fill="#FFFFFF" d="M101.5,8.2l-0.1,0.7C101.5,8.6,101.5,8.4,101.5,8.2z"/>
					<path fill="#FFFFFF" d="M101.4,11.8c0,0,0.1,0.1,0.1,0.1l0,0L101.4,11.8z"/>
					<path fill="#FFFFFF" d="M54.8,2.6c0,0-0.1,0-0.1,0C54.3,2.6,54.5,2.6,54.8,2.6z"/>
					<path fill="#FFFFFF" d="M71.9,1.9C71.8,2,71.6,2,71.4,2C71.7,2.1,71.9,2.1,71.9,1.9z"/>
					<polygon fill="#FFFFFF" points="35.6,2.9 35.6,2.9 35.5,2.9 					"/>
					<path fill="#FFFFFF" d="M70.6,2c0.3,0.1,0.6,0,0.8,0C71.1,2,70.8,2,70.6,2z"/>
					<path fill="#FFFFFF" d="M101.2,27.5l0,0.2c0,0,0,0,0,0L101.2,27.5z"/>
					<path fill="#FFFFFF" d="M101.3,27.7l0,0.2C101.3,27.8,101.3,27.8,101.3,27.7z"/>
					<path fill="#FFFFFF" d="M101.4,28.3l-0.1-0.4C101.3,28.1,101.3,28.2,101.4,28.3z"/>
					<path fill="#FFFFFF" d="M101.4,22.7l-0.1-0.1C101.3,22.7,101.3,22.7,101.4,22.7z"/>
					<path fill="#FFFFFF" d="M101.3,21.3c0,0.3-0.2,0.9-0.2,1.4l0.1,0C101.1,22.5,101.5,21.6,101.3,21.3z"/>
					<path fill="#FFFFFF" d="M102.6,15.2l-0.1,1.2c0.1-0.2,0.3-0.5,0.3,0.1C103.1,14.9,102.6,16.8,102.6,15.2z"/>
					<path fill="#FFFFFF" d="M102.8,11.4c0.1,0.7,0.2,0,0.2,0C102.9,11,102.9,10.9,102.8,11.4z"/>
					<path fill="#FFFFFF" d="M84.6,0.8l0.1-0.3C84.2,0.6,84.7,0.7,84.6,0.8z"/>
					<polygon fill="#FFFFFF" points="79.4,2.2 79.9,2.3 80.1,2.1 					"/>
					<polygon fill="#FFFFFF" points="76.3,0.3 76.5,0.3 75.7,0.4 					"/>
					<path fill="#FFFFFF" d="M30.3,0.4l0.2,0.3C30.8,0.7,30.9,0.3,30.3,0.4z"/>
					<path fill="#FFFFFF" d="M10.4,0.8c-0.2-0.2-0.8-0.3-1.1-0.1C9.8,0.7,10.2,0.8,10.4,0.8z"/>
					<polygon fill="#FFFFFF" points="21.9,33.2 21.5,33.3 22.2,33.2 					"/>
				</g>
			</g>
		</g>
	</g>
</g>
</svg>
