<?xml version="1.0" encoding="utf-8"?>
<!-- Generator: Adobe Illustrator 17.1.0, SVG Export Plug-In . SVG Version: 6.00 Build 0)  -->
<!DOCTYPE svg PUBLIC "-//W3C//DTD SVG 1.1//EN" "http://www.w3.org/Graphics/SVG/1.1/DTD/svg11.dtd">
<svg version="1.1" id="Layer_1" xmlns="http://www.w3.org/2000/svg" xmlns:xlink="http://www.w3.org/1999/xlink" x="0px" y="0px"
	 viewBox="0 0 24.8 16.8" enable-background="new 0 0 24.8 16.8" xml:space="preserve">
<g>
	<g>
		<g>
			<g>
				<g>
					<path fill="#FFFFFF" d="M22.6,15c-0.1,0.1-0.2,0.2-0.2,0.1L22.6,15L22.6,15z"/>
					<path fill="#FFFFFF" d="M21.9,15.2c0.1-0.1,0.3-0.3,0.6-0.5c-0.2,0.2-0.1,0.2-0.4,0.4c0,0.1,0.1,0,0.2-0.1
						c-0.1,0.1,0.1,0-0.1,0.1C22,15.3,22,15.2,22.1,15C22.1,15.1,22,15.1,21.9,15.2z"/>
					<path fill="#FFFFFF" d="M19.2,12.8L19.2,12.8C19.2,12.8,19.2,12.8,19.2,12.8z"/>
					<path fill="#FFFFFF" d="M17.4,11.5C17.4,11.6,17.4,11.6,17.4,11.5C17.3,11.6,17.3,11.6,17.4,11.5z"/>
					<path fill="#FFFFFF" d="M16.9,11.7C16.9,11.7,16.9,11.7,16.9,11.7C16.9,11.7,16.8,11.7,16.9,11.7z"/>
					<path fill="#FFFFFF" d="M19.2,12.8l-0.1,0C19.1,12.7,19.2,12.8,19.2,12.8z"/>
					<path fill="#FFFFFF" d="M22.3,14.3C22.3,14.3,22.3,14.3,22.3,14.3C22.2,14.3,22.2,14.3,22.3,14.3L22.3,14.3z"/>
					<path fill="#FFFFFF" d="M19.7,13.6L19.7,13.6c0,0,0,0.1-0.1,0.1L19.7,13.6z"/>
					<path fill="#FFFFFF" d="M20.1,14.2c0,0,0.2-0.2,0.3-0.3c-0.1,0.1-0.1,0.1-0.1,0.2C20.3,14.1,20.2,14.2,20.1,14.2z"/>
					<path fill="#FFFFFF" d="M21.3,14.8L21.3,14.8C21.3,14.9,21.3,14.8,21.3,14.8z"/>
					<path fill="#FFFFFF" d="M19.3,13.3C19.3,13.3,19.2,13.3,19.3,13.3C19.2,13.3,19.3,13.3,19.3,13.3z"/>
					<path fill="#FFFFFF" d="M23.2,2.7C23.2,2.7,23.2,2.7,23.2,2.7C23.2,2.7,23.2,2.7,23.2,2.7z"/>
					<polygon fill="#FFFFFF" points="23.1,1 23.1,1 23,0.9 					"/>
					<path fill="#FFFFFF" d="M16.1,11.6L16.1,11.6C16.1,11.7,16.1,11.7,16.1,11.6z"/>
					<path fill="#FFFFFF" d="M11.1,7.3c0.3,0.1,0.7,0,1,0.1C11.9,7.4,11.2,7.4,11.1,7.3z"/>
					<path fill="#FFFFFF" d="M22.2,14.3C22.2,14.3,22.2,14.3,22.2,14.3C22.2,14.3,22.2,14.3,22.2,14.3z"/>
					<path fill="#FFFFFF" d="M12,7.4L12,7.4L12,7.4C12.1,7.5,12,7.5,12,7.4z"/>
					<path fill="#FFFFFF" d="M14.8,10.8c0,0,0-0.1,0.1-0.1C14.8,10.7,14.8,10.7,14.8,10.8z"/>
					<path fill="#FFFFFF" d="M16,10.9L16,10.9C16,10.9,16,10.9,16,10.9z"/>
					<path fill="#FFFFFF" d="M14.3,10.1C14.2,10.1,14.2,10.1,14.3,10.1C14.2,10.1,14.2,10.1,14.3,10.1
						C14.2,10.1,14.2,10.1,14.3,10.1z"/>
					<path fill="#FFFFFF" d="M13.4,9.7C13.4,9.7,13.4,9.7,13.4,9.7L13.4,9.7L13.4,9.7z"/>
					<path fill="#FFFFFF" d="M21.4,3.8c0-0.1-0.1-0.2-0.1-0.2C21.4,3.7,21.5,3.7,21.4,3.8z"/>
					<path fill="#FFFFFF" d="M22.2,14.4C22.2,14.3,22.2,14.3,22.2,14.4L22.2,14.4C22.2,14.3,22.2,14.4,22.2,14.4z"/>
					<path fill="#FFFFFF" d="M15.5,8.2L15.5,8.2C15.5,8.2,15.5,8.2,15.5,8.2z"/>
					<path fill="#FFFFFF" d="M17.4,6.4L17.4,6.4C17.4,6.4,17.4,6.4,17.4,6.4z"/>
					<path fill="#FFFFFF" d="M15.4,8.2c-0.1,0.1-0.1,0.1-0.2,0.1c0,0,0,0,0.1-0.1L15.4,8.2z"/>
					<path fill="#FFFFFF" d="M21.3,3.5L21.3,3.5L21.3,3.5z"/>
					<path fill="#FFFFFF" d="M22.3,3.7c-0.1,0.1-0.2-0.3-0.4-0.4c-0.2,0,0.1,0.3,0.2,0.4c-0.1,0-0.4-0.3-0.4-0.2
						c0,0.1,0,0.1,0.1,0.1c-0.2-0.2-0.2,0.1-0.5-0.1c0,0,0,0.1,0,0.1c-0.1-0.2-0.2-0.3-0.3-0.4c0,0-0.2-0.1-0.1,0.1
						c0,0,0.1,0.1,0.1,0.1L21,3.2c0.2,0.3,0.1,0.1,0.3,0.3c-0.1,0-0.4-0.2-0.4-0.1c0.2,0.3,0.2,0,0.3,0.3l0-0.2
						c0.2,0.5,0-0.1,0.3,0.4c-0.1,0.2-0.2,0-0.3,0.1C21,4,21,3.9,20.9,3.7c-0.4-0.2,0.3,0.8,0,0.5c-0.2-0.2-0.4-0.5-0.4-0.3l0.2,0.3
						c-0.1,0.1-0.4-0.4-0.4-0.1c0.1,0.1,0.2,0,0.2,0.1c0.1,0.3-0.2-0.1-0.2-0.1l0.2,0.3c-0.2,0-0.4-0.1-0.6,0
						C20,4.5,20,4.5,20.1,4.7c-0.3,0-0.4,0.3-0.4,0.6L19.4,5c0,0,0,0.1,0.1,0.2c0,0.1-0.1-0.2-0.2-0.2c0,0,0,0.2,0.1,0.2
						c-0.3-0.1-0.6-0.2-0.6,0.1l0.1,0.1c0,0.2-0.4-0.4-0.4-0.2l0,0c-0.1,0.2-0.5,0.2-0.4,0.6c-0.3-0.3-0.1,0.3-0.4-0.2
						c0,0.3,0.1,0.4,0.1,0.7c0,0.1-0.3-0.3-0.3-0.3l0.2,0.3l-0.2-0.2l0.2,0.3l-0.1,0c0,0,0-0.1-0.1-0.2c-0.2-0.1-0.1,0.3,0,0.4
						L17,6.5c0.1,0.1,0.1,0.1,0.2,0.2c-0.3-0.2,0.2,0.3-0.1,0.1c0-0.1-0.1-0.2-0.1-0.2c0.1,0.2-0.1,0.3-0.2,0.2L16.9,7
						c-0.1,0.1-0.4,0.1-0.5,0.2c0-0.1-0.2-0.4-0.3-0.4L16.3,7c-0.1-0.2,0-0.1-0.2-0.3c0,0.1,0.1,0.3,0.2,0.4l-0.1-0.1
						c0,0.1,0.1,0.1,0.2,0.2c-0.1-0.2,0,0.4-0.2,0.1l0,0.1c-0.2,0.1-0.3,0-0.4,0.1c-0.1-0.2-0.2-0.2-0.3-0.3c0,0.1-0.1,0.4-0.1,0.4
						c-0.1-0.1-0.1-0.2-0.2-0.3c0.1,0.2,0.1,0.2,0.2,0.4c-0.1,0-0.1,0-0.3-0.1c-0.1-0.1-0.1-0.1-0.2-0.2c-0.1,0,0,0.1,0.2,0.2l0,0
						c-0.2-0.1-0.1,0.1,0,0.2c0.1,0.1,0.3,0.2,0,0.1l0,0c0,0-0.4-0.1-0.4-0.1c0,0,0.3,0.1,0.5,0.1c-0.6-0.1,0,0.1-0.4,0
						C15.2,8,15.2,8,15.1,8c-0.1,0-0.3,0,0.2,0l-0.3,0c-0.3,0,0.2,0,0.3,0c-0.3,0-0.3,0-0.5,0c-0.2,0-0.2,0.1,0.1,0.1
						c0.3,0,0.6,0,0.8,0c0.1,0-1.6,0.3-0.8,0.2l0.6-0.1c-0.3,0.1-0.3,0.1-0.2,0.1c0,0,0.1,0-0.1,0.1c0.1,0,0.2-0.1,0.2-0.1
						c0.3-0.1,0.1,0-0.2,0.1c0,0,0.2-0.1,0.3-0.2c0.2-0.1-0.3,0.2,0,0.1c0,0,0.1-0.1,0.1-0.1c-0.1,0.1,0.1,0-0.2,0.2
						c0.2-0.1,0,0.1,0.1,0c-0.2,0.2,0.2-0.1-0.1,0.3c0.3-0.3,0.3-0.3,0.2-0.1c0.1-0.1,0.1-0.1,0.2-0.3c0,0,0,0.1-0.1,0.3
						c0.2-0.2,0.1-0.1,0.1,0c0,0.1,0,0.2,0.2-0.1C15.8,8.7,16,9,16.1,9.2c0.2-0.4-0.2-0.1,0-0.6c0.1,0.3,0,0.7,0.3,0.6
						c0.1,0,0.1-0.2,0.1-0.3c0.1,0.3,0.4,0.1,0.4,0.4c0,0,0-0.1,0-0.1c0,0,0.1,0,0,0.2l0-0.1c-0.2,0.2-0.2,0.6-0.2,0.8
						c0.2-0.5,0.2,0,0.5-0.7c0,0,0,0.1-0.1,0.3c0,0,0.1-0.1,0.1-0.2c0.1,0.2-0.1,0.3,0,0.4c0-0.1,0-0.1,0.1-0.2c0,0.2-0.1,0.4,0,0.4
						c0-0.1,0.1-0.1,0-0.1c0.1,0.1,0,0.6,0.2,0.5c0.2-0.4,0.1-0.1,0.3-0.4l0,0.1l-0.1,0.1c0.1,0,0,0.3,0.1,0.3l0-0.2l0.1,0.2
						L18,10.5c0,0.2-0.3,0.4-0.1,0.4c0,0,0.1,0,0.2-0.1l0,0c0,0.1-0.1,0.3,0,0.2c0.1-0.1,0.2-0.3,0.3-0.4c-0.1,0.3,0.1,0.2,0,0.5
						c0-0.1,0.1-0.2,0.2-0.3L18.5,11c0.1,0,0.1-0.1,0.2-0.2c0.1,0-0.3,0.4-0.1,0.3c0,0,0-0.1,0-0.1c0.2,0,0.1,0.3,0.3,0.3
						c0.3-0.3,0-0.1,0.2-0.4c0.1,0.2,0,0.6,0.2,0.7l-0.1,0c-0.3,0.4,0.3-0.1,0.2,0.1c0,0,0.2-0.2,0.1-0.2c0.2,0,0.1,0.3,0.1,0.5
						l0.1-0.1c0.1,0,0.2,0.1,0.3,0.1c-0.1,0.1,0,0.1-0.2,0.3c0.7-0.4,0,0.6,0.6,0.3c0,0,0-0.1,0.1-0.1l0,0.2
						c-0.2,0.1-0.1,0.1-0.3,0.2c-0.1,0.1-0.1,0.2-0.1,0.3c0.1-0.2,0.3-0.3,0.4-0.3c-0.1,0-0.1,0.1-0.2,0.2c0.4-0.2-0.3,0.3,0,0.2
						l0.1-0.1c0,0.1-0.1,0.2,0,0.2c0.2-0.2,0.1-0.1,0.2-0.3c0,0.1-0.3,0.4,0,0.3c0-0.1,0-0.1,0-0.2c0.3-0.2,0.2-0.1,0.3-0.1l0,0
						l0.2,0l-0.1,0c-0.5,0.5,0,0.2-0.2,0.6c0.2-0.4,0.2-0.2,0.4-0.4c0.1,0,0.2-0.1,0.2-0.1c-0.2,0.2,0.2,0,0,0.3
						c0.1-0.1,0,0,0.2-0.1c0,0.1-0.1,0.1-0.2,0.2c-0.2,0.3,0.5,0,0.2,0.4c-0.1,0.2-0.3,0.5-0.4,0.7c0.2-0.1,0.3-0.2,0.3-0.2
						c0.2,0,0.2,0,0.1,0.2c0.1-0.1,0.1-0.1,0.2-0.1c0,0.1-0.3,0.2-0.1,0.2c0.1-0.1,0.2-0.2,0.3-0.3c0,0.1-0.1,0.3-0.2,0.4
						c0.1-0.1,0.2-0.2,0.3-0.3c0,0.1,0,0.3-0.2,0.4l-0.1,0c0,0,0.2-0.1,0.2-0.2c0.1-0.2-0.1,0-0.2,0l0,0.1c-0.5,0.3,0-0.2-0.1-0.3
						l-0.3,0.3l0.2-0.3c-0.1,0-0.3,0.2-0.3,0.3c-0.2,0.1,0.1-0.1-0.1,0c0,0,0,0-0.1,0l0.1-0.1c-0.1,0.1-0.2,0.2-0.2,0.2
						c-0.3,0.1,0.1-0.3-0.1-0.2l0,0c0-0.2,0.2-0.2,0.4-0.5l-0.6,0.4l0.2-0.2c0,0-0.1,0-0.1,0.1c0.1-0.2,0.1-0.1,0.2-0.2
						c-0.3,0.1,0-0.3-0.4,0c0.2-0.2,0.2-0.1,0.3-0.2c-0.4,0.3,0-0.1-0.2,0c-0.2,0.2,0,0.2-0.3,0.2c0.3-0.3-0.2,0-0.1-0.1
						c0.3-0.2,0-0.2,0-0.4c-0.1,0.1-0.3,0-0.4,0l0,0c0.3-0.3,0.1-0.3,0.1-0.4c-0.2,0.2-0.2,0.2-0.3,0.3l0-0.1
						c0.1-0.1,0.1-0.2,0.1-0.2l-0.2,0.2c0-0.1,0.1-0.4-0.1-0.3c0.2-0.2,0.6-0.4,0.6-0.6c-0.1,0.1-0.3,0.3-0.3,0.3c0,0,0.1-0.1,0-0.1
						l-0.1,0.2c-0.1,0,0.1-0.2,0.1-0.2c-0.1,0.1-0.1,0.1-0.2,0.2c0,0,0.1,0,0,0c-0.1,0-0.2,0-0.3,0.1c0.1-0.1,0.2-0.2,0.2-0.2
						c-0.1-0.1-0.2,0.1-0.3,0.2c0.1-0.1-0.1,0,0.1-0.3c0,0-0.1,0.1-0.2,0.1c0.1-0.1-0.1-0.2,0.1-0.4l0,0c0,0,0,0,0,0l0,0l0,0
						c0.1-0.3-0.4-0.1-0.4-0.3l-0.1,0.1c0-0.1-0.1-0.2,0-0.4c0,0-0.2,0.1-0.2,0.2c0-0.1,0.1-0.2-0.1-0.1c-0.1,0.2-0.1,0.1,0,0.1
						c-0.1,0-0.2,0.1-0.1-0.2c-0.1,0.2-0.3,0.2-0.2,0.1l0.2-0.1c0-0.1-0.1-0.1-0.1-0.1l-0.2,0.3c-0.4,0.2,0.1-0.7-0.4-0.3
						c0.1-0.2,0.2-0.1,0.3-0.3c-0.1,0-0.4,0.3-0.5,0.3c-0.2,0.1,0.2-0.5,0-0.4c0.1-0.1,0.3-0.3,0.3-0.5c-0.1,0-0.4,0.4-0.4,0.5
						c0,0,0,0,0.1,0c0,0.1,0,0.1-0.1,0.2l0.1-0.1c-0.1,0.1-0.2,0-0.3,0.2c0-0.1,0.1-0.2,0.2-0.2c-0.2,0.1-0.1-0.1-0.3,0
						c0,0,0.1-0.2,0.1-0.2c-0.2,0,0.1-0.2,0-0.3c-0.1,0.1-0.2,0.4-0.2,0.2c-0.1,0.1-0.2,0.3-0.2,0.4c0-0.2-0.2,0-0.3,0l0,0.1
						c0-0.1,0-0.1,0-0.1l0.1-0.2c0,0-0.1,0-0.1,0.1c0-0.2,0.2-0.3,0.3-0.5c-0.1,0.1,0-0.2-0.2,0.1c0.2,0-0.2,0.3-0.1,0.4
						c0,0,0-0.1-0.1,0c0,0,0,0.1,0,0.1c-0.2,0.2,0.1-0.3,0-0.4c-0.1,0.2-0.2,0.3-0.2,0.2c0,0,0.2-0.2,0.2-0.4
						c-0.1,0.1,0-0.1-0.1-0.1l0.1,0c0.1-0.2,0-0.2,0-0.2c-0.1,0.1,0,0.1,0,0.2c0.1-0.3-0.3,0.2-0.3,0c-0.1,0.1-0.2,0.3-0.2,0.4
						c0-0.3-0.2,0.2-0.2,0c0.1-0.2,0.1-0.1,0.1-0.4l0.1,0.2l0.1-0.4c0.1,0,0,0.2,0.1,0.2c0-0.2,0-0.1,0.1-0.3
						c-0.2,0.3,0-0.3-0.2-0.1l-0.3,0.5c-0.2,0.2-0.1-0.4-0.3-0.3l0.1-0.1c0.1-0.2-0.1-0.1-0.1-0.2c-0.1,0.2-0.1,0.2-0.2,0.3
						c0.1-0.1-0.1,0,0-0.4l-0.2,0.2c-0.2,0,0.1-0.6-0.1-0.6c-0.1,0.2-0.2,0.3-0.2,0.5c-0.1,0-0.1,0-0.1-0.1c-0.1,0.1,0-0.3-0.2-0.2
						c0-0.1,0.1-0.3,0.1-0.3c0,0-0.1,0.1-0.1,0.1c0.1-0.1,0-0.1,0.2-0.3c-0.3,0.2-0.4,0.2-0.5,0.1c-0.1-0.1-0.2-0.1-0.5,0
						c-0.1-0.1-0.1-0.2-0.2-0.3c-0.1,0-0.1,0.1-0.1,0.1c-0.4,0,0.5-0.4,0.1-0.3c-0.4,0.2-0.1,0.1-0.3,0.2c-0.8,0.4-0.1-0.1-0.7,0
						l0,0c-0.4,0.1,0.1-0.2-0.1-0.3c0,0-0.1,0-0.1,0c0.4-0.2,0.4-0.3,0.4-0.4c-0.4,0.1-0.2,0.1-0.6,0.2c0,0,0.7-0.2,0.7-0.2
						c-0.3,0-0.5,0-1,0.1l0.1,0.1c-0.7,0.1-0.2-0.1-0.3-0.1L11,8.8c-0.1-0.1,0.6-0.2,0.4-0.3l0.2,0c0.7-0.1-0.5,0,0-0.1l-0.8,0.1
						c0.1-0.1,0.5-0.2,0.6-0.2c-0.6,0.1-0.7,0.2-1,0.2c-0.1,0-0.2-0.1,0.2-0.2c-0.1,0-0.2,0-0.1,0.1c0.3,0,0.5-0.1,0.6-0.1
						c0.1,0,0.1,0,0.1,0c0,0,0.1,0,0.1,0C9.6,8.2,11.2,8,10.1,7.9c0.8-0.1,0.3-0.3,0.8-0.5C11.7,7.6,11,7.4,12,7.5
						c0.1,0,0.1,0,0.1-0.1c0,0-0.4-0.2-0.4-0.2c-0.2-0.1-0.3,0-0.5,0c0.1-0.1-0.3-0.1-0.4-0.2c0.3,0.1,0.5,0.1,0.5,0l0.3,0.2
						c0.7,0-0.5-0.3,0.2-0.3l-0.3,0c0.3,0,0.5-0.3,1.2-0.1c-0.1,0-0.2-0.2-0.3-0.1c0.3-0.2,1.2-0.1,1.1-0.4L13.3,6
						c0.1,0,0.3,0.1,0.3,0c0,0-0.1-0.1-0.1-0.1c0.1,0,0.3,0.1,0.3,0l-0.2-0.1c0.2-0.3,0.7,0.1,0.9,0.1c-0.2-0.4-0.2-0.6-0.1-0.7
						l0-0.1c0.2-0.2,0.5,0.1,0.8,0.2C15,4.9,15.4,5,15.4,4.6c0,0.1,0.2,0.3,0.2,0.3c0-0.1,0.3,0.2,0.1-0.2l0,0c-0.2-0.4,0-0.3,0-0.4
						L16,4.9c-0.2-0.8,0.6-0.1,0.3-0.7c0.1,0.1,0.2,0.1,0.3,0.1l-0.2-0.2c0.1-0.1,0.1-0.2,0.3-0.2l-0.1-0.2c0.1-0.1,0.5,0.6,0.6,0.6
						L17,3.9c0.1-0.1,0.1-0.5,0.4-0.3c0-0.1-0.1-0.2-0.1-0.2c0.1-0.1,0.1-0.4,0.4,0.1c-0.2-0.3,0.1-0.1,0.3,0l-0.2-0.2
						c0.3,0.3,0.3,0.3,0.5,0.4c0,0-0.1-0.2-0.1-0.1c0-0.2,0.2,0.2,0.2,0l-0.1-0.1c0.1-0.1,0.1,0,0.3,0.2c0.1,0.1,0.1-0.1,0-0.4
						c0.1,0.1,0.2,0.3,0.3,0.2c0-0.1-0.1-0.1-0.1-0.1c0-0.2,0.4,0.2,0.3-0.1c0-0.1-0.1-0.1-0.1-0.1c-0.1,0.1-0.2,0.1-0.1,0.1
						c-0.1-0.2-0.1-0.3-0.3-0.6c0.2,0.1,0.5,0.4,0.5,0.3c0,0,0,0,0-0.1l0,0c0,0,0,0,0.1,0c0-0.1,0-0.1,0-0.1c-0.1-0.2,0-0.2,0.1-0.2
						c0.2,0.2,0.2,0.2,0.3,0.4c0,0,0,0-0.1,0c0,0,0,0,0,0l0,0c0,0-0.1,0-0.1,0c0.1,0.1,0.2,0.2,0.2,0c0.1,0.1,0.2,0.3,0.3,0.3
						c-0.2-0.4-0.2-0.6-0.3-0.8c0.2,0.1,0.3-0.1,0.7,0.3c0.1,0,0-0.2-0.1-0.2c0,0-0.1,0-0.1-0.1c0.1,0.1,0.2-0.1,0.5,0.2
						c0-0.2-0.2-0.2-0.1-0.3L20,2.3c-0.1-0.6,0.9,0.5,0.7-0.3c0,0.1,0,0.1,0,0.1c0.1-0.5,0.8-0.2,0.7-0.8c0-0.1,0.2,0,0.3,0.2
						l-0.2-0.3L22,1.5c0.3,0.1-0.2-0.7,0.2-0.5l0.1,0.2c0-0.1,0.2,0,0.1-0.2c0,0,0.1,0.2,0.1,0.1l-0.1-0.1L22.7,1
						c0-0.2-0.4-0.5-0.3-0.6c0.1,0,0.4,0.3,0.5,0.4c0,0,0,0.1,0.1,0.2l0.1,0c0.3,0.4,0.6,0.7,0.7,1.1l-0.3-0.2l0.1,0.2l0.1,0
						c0.1,0.2-0.1,0.1-0.2,0c0.1,0.1,0.1,0.2,0.1,0.2L23.3,2c0.1,0.2,0.3,0.3,0.3,0.4C23.4,2.3,23.3,2,23.2,2c0.1,0.2,0.2,0.3,0,0.2
						c0.1,0.1,0.1,0.2,0.2,0.2c-0.1-0.1-0.2,0-0.3-0.1c0.1,0.2-0.2,0.1,0.1,0.4c-0.1-0.1-0.3-0.2-0.3-0.2C23.2,2.8,22.7,2.6,23,3
						c-0.3-0.3-0.3,0-0.6-0.2c0,0,0.1,0.1,0.1,0.1c0,0.1,0,0.2,0.1,0.3c-0.2-0.3-0.4-0.3-0.6-0.5c0.2,0.4,0.3,0.3,0.5,0.7
						c-0.2-0.3-0.3-0.2-0.4-0.4c0.1,0.2,0,0.1,0.2,0.4C22,3,22.2,3.3,22,3.1c0.1,0.2,0.2,0.4,0.1,0.3C22.1,3.6,22.3,3.7,22.3,3.7z
						 M19.8,4.3L19.8,4.3C19.9,4.3,19.9,4.3,19.8,4.3C19.9,4.3,19.9,4.3,19.8,4.3z M19.7,4.4C19.7,4.4,19.7,4.4,19.7,4.4
						c0-0.1,0-0.2-0.1-0.2C19.7,4.3,19.7,4.3,19.7,4.4z M18.9,2.6C18.9,2.6,18.9,2.6,18.9,2.6C19,2.7,19,2.7,18.9,2.6L19,2.7
						C19,2.6,19,2.6,18.9,2.6z"/>
					<path fill="#FFFFFF" d="M19.2,2.9C19.2,2.9,19.2,2.9,19.2,2.9C19.2,2.9,19.2,2.9,19.2,2.9L19.2,2.9L19.2,2.9z"/>
					<path fill="#FFFFFF" d="M19.2,12.7L19.2,12.7C19.2,12.7,19.3,12.7,19.2,12.7C19.3,12.7,19.3,12.7,19.2,12.7z"/>
					<polygon fill="#FFFFFF" points="17.6,6.4 17.6,6.3 17.7,6.3 					"/>
					<path fill="#FFFFFF" d="M20.7,12.8C20.7,12.8,20.7,12.8,20.7,12.8C20.7,12.8,20.7,12.8,20.7,12.8z"/>
					<path fill="#FFFFFF" d="M21.1,13.1l0.1,0C21.1,13.1,21.1,13.1,21.1,13.1z"/>
					<path fill="#FFFFFF" d="M21.4,13.3C21.4,13.4,21.4,13.4,21.4,13.3L21.4,13.3L21.4,13.3z"/>
					<path fill="#FFFFFF" d="M16.9,9.3C16.9,9.3,16.9,9.3,16.9,9.3C16.9,9.2,16.9,9.2,16.9,9.3z"/>
					<path fill="#FFFFFF" d="M18.1,10.8c0-0.1,0-0.1,0-0.1C18.2,10.6,18.2,10.6,18.1,10.8z"/>
					<polygon fill="#FFFFFF" points="15.5,8.2 15.5,8.2 15.5,8.2 					"/>
					<path fill="#FFFFFF" d="M18.1,10.6C18.1,10.6,18.1,10.6,18.1,10.6C18.1,10.6,18.1,10.6,18.1,10.6z"/>
					<path fill="#FFFFFF" d="M22.5,14.5L22.5,14.5C22.5,14.6,22.5,14.6,22.5,14.5L22.5,14.5z"/>
					<path fill="#FFFFFF" d="M22.5,14.6L22.5,14.6C22.5,14.6,22.5,14.6,22.5,14.6z"/>
					<path fill="#FFFFFF" d="M22.4,14.7L22.4,14.7C22.5,14.6,22.5,14.6,22.4,14.7z"/>
					<path fill="#FFFFFF" d="M22.1,14.2L22.1,14.2C22.2,14.2,22.1,14.2,22.1,14.2z"/>
					<path fill="#FFFFFF" d="M22,14.1c0,0,0.2-0.1,0.2,0l-0.1,0.1C22.3,14,21.9,14.2,22,14.1z"/>
					<path fill="#FFFFFF" d="M20.7,14.4l0.1,0c-0.1,0.1-0.2,0.1-0.2,0.2C20.3,14.7,20.8,14.5,20.7,14.4z"/>
					<path fill="#FFFFFF" d="M20.3,14.2c0,0.1-0.1,0.1-0.2,0.1C20.2,14.2,20.2,14.2,20.3,14.2z"/>
					<path fill="#FFFFFF" d="M18.5,12.4l-0.2,0.2C18.3,12.5,18.4,12.5,18.5,12.4z"/>
					<polygon fill="#FFFFFF" points="18.9,11 19,10.9 18.9,11.1 					"/>
					<polygon fill="#FFFFFF" points="17.6,12.3 17.6,12.3 17.6,12.2 					"/>
					<path fill="#FFFFFF" d="M13.3,10l0.3-0.2C13.6,9.8,13.3,10.1,13.3,10z"/>
					<path fill="#FFFFFF" d="M11,8.6c-0.3,0-0.6,0-0.4,0C10.8,8.6,11.1,8.6,11,8.6z"/>
					<polygon fill="#FFFFFF" points="15.9,4.5 15.8,4.4 15.9,4.4 					"/>
				</g>
			</g>
		</g>
	</g>
</g>
<g>
	<g>
		<g>
			<g>
				<g>
					<path fill="#FFFFFF" d="M13.6,15c-0.1,0.1-0.2,0.2-0.2,0.1L13.6,15L13.6,15z"/>
					<path fill="#FFFFFF" d="M13,15.2c0.1-0.1,0.3-0.3,0.6-0.5c-0.2,0.2-0.1,0.2-0.4,0.4c0,0.1,0.1,0,0.2-0.1
						c-0.1,0.1,0.1,0-0.1,0.1c-0.2,0.1-0.3,0.1-0.2-0.1C13.1,15.1,13,15.1,13,15.2z"/>
					<path fill="#FFFFFF" d="M10.2,12.8L10.2,12.8C10.2,12.8,10.2,12.8,10.2,12.8z"/>
					<path fill="#FFFFFF" d="M8.4,11.5C8.4,11.6,8.4,11.6,8.4,11.5C8.4,11.6,8.4,11.6,8.4,11.5z"/>
					<path fill="#FFFFFF" d="M7.9,11.7C7.9,11.7,7.9,11.7,7.9,11.7C7.9,11.7,7.9,11.7,7.9,11.7z"/>
					<path fill="#FFFFFF" d="M10.2,12.8l-0.1,0C10.2,12.7,10.2,12.8,10.2,12.8z"/>
					<path fill="#FFFFFF" d="M13.3,14.3C13.3,14.3,13.3,14.3,13.3,14.3C13.3,14.3,13.3,14.3,13.3,14.3L13.3,14.3z"/>
					<path fill="#FFFFFF" d="M10.7,13.6L10.7,13.6c0,0,0,0.1-0.1,0.1L10.7,13.6z"/>
					<path fill="#FFFFFF" d="M11.2,14.2c0,0,0.2-0.2,0.3-0.3c-0.1,0.1-0.1,0.1-0.1,0.2C11.3,14.1,11.2,14.2,11.2,14.2z"/>
					<path fill="#FFFFFF" d="M12.3,14.8L12.3,14.8C12.3,14.9,12.3,14.8,12.3,14.8z"/>
					<path fill="#FFFFFF" d="M10.3,13.3C10.3,13.3,10.3,13.3,10.3,13.3C10.3,13.3,10.3,13.3,10.3,13.3z"/>
					<path fill="#FFFFFF" d="M14.2,2.7C14.2,2.7,14.2,2.7,14.2,2.7C14.2,2.7,14.2,2.7,14.2,2.7z"/>
					<polygon fill="#FFFFFF" points="14.1,1 14.1,1 14,0.9 					"/>
					<path fill="#FFFFFF" d="M7.1,11.6L7.1,11.6C7.1,11.7,7.1,11.7,7.1,11.6z"/>
					<path fill="#FFFFFF" d="M2.1,7.3c0.3,0.1,0.7,0,1,0.1C2.9,7.4,2.2,7.4,2.1,7.3z"/>
					<path fill="#FFFFFF" d="M13.3,14.3C13.3,14.3,13.3,14.3,13.3,14.3C13.3,14.3,13.3,14.3,13.3,14.3z"/>
					<path fill="#FFFFFF" d="M3.1,7.4L3.1,7.4L3.1,7.4C3.1,7.5,3.1,7.5,3.1,7.4z"/>
					<path fill="#FFFFFF" d="M5.8,10.8c0,0,0-0.1,0.1-0.1C5.9,10.7,5.9,10.7,5.8,10.8z"/>
					<path fill="#FFFFFF" d="M7.1,10.9L7.1,10.9C7,10.9,7.1,10.9,7.1,10.9z"/>
					<path fill="#FFFFFF" d="M5.3,10.1C5.3,10.1,5.2,10.1,5.3,10.1C5.2,10.1,5.3,10.1,5.3,10.1C5.3,10.1,5.3,10.1,5.3,10.1z"/>
					<path fill="#FFFFFF" d="M4.4,9.7C4.5,9.7,4.5,9.7,4.4,9.7L4.4,9.7L4.4,9.7z"/>
					<path fill="#FFFFFF" d="M12.5,3.8c0-0.1-0.1-0.2-0.1-0.2C12.5,3.7,12.6,3.7,12.5,3.8z"/>
					<path fill="#FFFFFF" d="M13.2,14.4C13.2,14.3,13.3,14.3,13.2,14.4L13.2,14.4C13.2,14.3,13.2,14.4,13.2,14.4z"/>
					<path fill="#FFFFFF" d="M6.5,8.2L6.5,8.2C6.5,8.2,6.5,8.2,6.5,8.2z"/>
					<path fill="#FFFFFF" d="M8.4,6.4L8.4,6.4C8.5,6.4,8.4,6.4,8.4,6.4z"/>
					<path fill="#FFFFFF" d="M6.5,8.2C6.4,8.3,6.3,8.3,6.3,8.3c0,0,0,0,0.1-0.1L6.5,8.2z"/>
					<path fill="#FFFFFF" d="M12.3,3.5L12.3,3.5L12.3,3.5z"/>
					<path fill="#FFFFFF" d="M13.3,3.7c-0.1,0.1-0.2-0.3-0.4-0.4c-0.2,0,0.1,0.3,0.2,0.4c-0.1,0-0.4-0.3-0.4-0.2
						c0,0.1,0,0.1,0.1,0.1c-0.2-0.2-0.2,0.1-0.5-0.1c0,0,0,0.1,0,0.1c-0.1-0.2-0.2-0.3-0.3-0.4c0,0-0.2-0.1-0.1,0.1
						c0,0,0.1,0.1,0.1,0.1L12,3.2c0.2,0.3,0.1,0.1,0.3,0.3c-0.1,0-0.4-0.2-0.4-0.1c0.2,0.3,0.2,0,0.3,0.3l0-0.2
						c0.2,0.5,0-0.1,0.3,0.4c-0.1,0.2-0.2,0-0.3,0.1c-0.1-0.1-0.1-0.2-0.3-0.4c-0.4-0.2,0.3,0.8,0,0.5c-0.2-0.2-0.4-0.5-0.4-0.3
						l0.2,0.3c-0.1,0.1-0.4-0.4-0.4-0.1c0.1,0.1,0.2,0,0.2,0.1c0.1,0.3-0.2-0.1-0.2-0.1l0.2,0.3c-0.2,0-0.4-0.1-0.6,0
						c0.1,0.1,0.1,0.2,0.2,0.3c-0.3,0-0.4,0.3-0.4,0.6L10.5,5c0,0,0,0.1,0.1,0.2c0,0.1-0.1-0.2-0.2-0.2c0,0,0,0.2,0.1,0.2
						C10.2,5,9.8,4.9,9.9,5.3L10,5.3c0,0.2-0.4-0.4-0.4-0.2l0,0C9.5,5.5,9.1,5.4,9.2,5.9C8.9,5.5,9.1,6.1,8.8,5.7
						C8.8,6,8.9,6,8.8,6.3C8.8,6.4,8.6,6,8.5,6l0.2,0.3L8.4,6.1l0.2,0.3l-0.1,0c0,0,0-0.1-0.1-0.2c-0.2-0.1-0.1,0.3,0,0.4L8,6.5
						c0.1,0.1,0.1,0.1,0.2,0.2C8,6.5,8.4,7,8.1,6.8C8.1,6.7,8,6.6,8,6.6C8.1,6.8,8,6.8,7.8,6.8L8,7C7.8,7.1,7.6,7.1,7.4,7.2
						c0-0.1-0.2-0.4-0.3-0.4L7.3,7c-0.1-0.2,0-0.1-0.2-0.3c0,0.1,0.1,0.3,0.2,0.4L7.2,7.1c0,0.1,0.1,0.1,0.2,0.2
						c-0.1-0.2,0,0.4-0.2,0.1l0,0.1c-0.2,0.1-0.3,0-0.4,0.1C6.7,7.3,6.6,7.4,6.5,7.2c0,0.1-0.1,0.4-0.1,0.4C6.2,7.5,6.2,7.4,6.1,7.3
						c0.1,0.2,0.1,0.2,0.2,0.4c-0.1,0-0.1,0-0.3-0.1C5.9,7.5,5.9,7.4,5.8,7.4c-0.1,0,0,0.1,0.2,0.2l0,0C5.8,7.5,5.9,7.6,6,7.7
						c0.1,0.1,0.3,0.2,0,0.1l0,0c0,0-0.4-0.1-0.4-0.1c0,0,0.3,0.1,0.5,0.1c-0.6-0.1,0,0.1-0.4,0C6.2,8,6.2,8,6.1,8C6,8,5.8,8,6.3,8
						L5.9,8C5.6,8,6.1,8,6.2,8C5.9,8,5.9,8,5.7,8C5.5,8,5.5,8,5.8,8.1c0.3,0,0.6,0,0.8,0c0.1,0-1.6,0.3-0.8,0.2l0.6-0.1
						C5.9,8.1,6,8.2,6,8.2c0,0,0.1,0-0.1,0.1c0.1,0,0.2-0.1,0.2-0.1C6.5,8,6.2,8.2,6,8.3c0,0,0.2-0.1,0.3-0.2c0.2-0.1-0.3,0.2,0,0.1
						c0,0,0.1-0.1,0.1-0.1c-0.1,0.1,0.1,0-0.2,0.2c0.2-0.1,0,0.1,0.1,0C6.1,8.6,6.5,8.2,6.1,8.6c0.3-0.3,0.3-0.3,0.2-0.1
						c0.1-0.1,0.1-0.1,0.2-0.3c0,0,0,0.1-0.1,0.3c0.2-0.2,0.1-0.1,0.1,0c0,0.1,0,0.2,0.2-0.1C6.9,8.7,7,9,7.1,9.2
						C7.3,8.8,7,9,7.2,8.6c0.1,0.3,0,0.7,0.3,0.6c0.1,0,0.1-0.2,0.1-0.3c0.1,0.3,0.4,0.1,0.4,0.4c0,0,0-0.1,0-0.1c0,0,0.1,0,0,0.2
						l0-0.1C7.8,9.6,7.8,10,7.7,10.1c0.2-0.5,0.2,0,0.5-0.7c0,0,0,0.1-0.1,0.3c0,0,0.1-0.1,0.1-0.2c0.1,0.2-0.1,0.3,0,0.4
						c0-0.1,0-0.1,0.1-0.2c0,0.2-0.1,0.4,0,0.4c0-0.1,0.1-0.1,0-0.1c0.1,0.1,0,0.6,0.2,0.5C8.9,9.9,8.8,10.2,9,9.9l0,0.1l-0.1,0.1
						c0.1,0,0,0.3,0.1,0.3l0-0.2l0.1,0.2L9,10.5c0,0.2-0.3,0.4-0.1,0.4c0,0,0.1,0,0.2-0.1l0,0c0,0.1-0.1,0.3,0,0.2
						c0.1-0.1,0.2-0.3,0.3-0.4c-0.1,0.3,0.1,0.2,0,0.5c0-0.1,0.1-0.2,0.2-0.3L9.5,11c0.1,0,0.1-0.1,0.2-0.2c0.1,0-0.3,0.4-0.1,0.3
						c0,0,0-0.1,0-0.1c0.2,0,0.1,0.3,0.3,0.3c0.3-0.3,0-0.1,0.2-0.4c0.1,0.2,0,0.6,0.2,0.7l-0.1,0c-0.3,0.4,0.3-0.1,0.2,0.1
						c0,0,0.2-0.2,0.1-0.2c0.2,0,0.1,0.3,0.1,0.5l0.1-0.1c0.1,0,0.2,0.1,0.3,0.1c-0.1,0.1,0,0.1-0.2,0.3c0.7-0.4,0,0.6,0.6,0.3
						c0,0,0-0.1,0.1-0.1l0,0.2c-0.2,0.1-0.1,0.1-0.3,0.2c-0.1,0.1-0.1,0.2-0.1,0.3c0.1-0.2,0.3-0.3,0.4-0.3c-0.1,0-0.1,0.1-0.2,0.2
						c0.4-0.2-0.3,0.3,0,0.2l0.1-0.1c0,0.1-0.1,0.2,0,0.2c0.2-0.2,0.1-0.1,0.2-0.3c0,0.1-0.3,0.4,0,0.3c0-0.1,0-0.1,0-0.2
						c0.3-0.2,0.2-0.1,0.3-0.1l0,0l0.2,0l-0.1,0c-0.5,0.5,0,0.2-0.2,0.6c0.2-0.4,0.2-0.2,0.4-0.4c0.1,0,0.2-0.1,0.2-0.1
						c-0.2,0.2,0.2,0,0,0.3c0.1-0.1,0,0,0.2-0.1c0,0.1-0.1,0.1-0.2,0.2c-0.2,0.3,0.5,0,0.2,0.4c-0.1,0.2-0.3,0.5-0.4,0.7
						c0.2-0.1,0.3-0.2,0.3-0.2c0.2,0,0.2,0,0.1,0.2c0.1-0.1,0.1-0.1,0.2-0.1c0,0.1-0.3,0.2-0.1,0.2c0.1-0.1,0.2-0.2,0.3-0.3
						c0,0.1-0.1,0.3-0.2,0.4c0.1-0.1,0.2-0.2,0.3-0.3c0,0.1,0,0.3-0.2,0.4l-0.1,0c0,0,0.2-0.1,0.2-0.2c0.1-0.2-0.1,0-0.2,0l0,0.1
						c-0.5,0.3,0-0.2-0.1-0.3l-0.3,0.3l0.2-0.3c-0.1,0-0.3,0.2-0.3,0.3c-0.2,0.1,0.1-0.1-0.1,0c0,0,0,0-0.1,0l0.1-0.1
						c-0.1,0.1-0.2,0.2-0.2,0.2c-0.3,0.1,0.1-0.3-0.1-0.2l0,0c0-0.2,0.2-0.2,0.4-0.5l-0.6,0.4l0.2-0.2c0,0-0.1,0-0.1,0.1
						c0.1-0.2,0.1-0.1,0.2-0.2c-0.3,0.1,0-0.3-0.4,0c0.2-0.2,0.2-0.1,0.3-0.2c-0.4,0.3,0-0.1-0.2,0c-0.2,0.2,0,0.2-0.3,0.2
						c0.3-0.3-0.2,0-0.1-0.1c0.3-0.2,0-0.2,0-0.4c-0.1,0.1-0.3,0-0.4,0l0,0c0.3-0.3,0.1-0.3,0.1-0.4c-0.2,0.2-0.2,0.2-0.3,0.3l0-0.1
						c0.1-0.1,0.1-0.2,0.1-0.2l-0.2,0.2c0-0.1,0.1-0.4-0.1-0.3c0.2-0.2,0.6-0.4,0.6-0.6c-0.1,0.1-0.3,0.3-0.3,0.3c0,0,0.1-0.1,0-0.1
						l-0.1,0.2c-0.1,0,0.1-0.2,0.1-0.2c-0.1,0.1-0.1,0.1-0.2,0.2c0,0,0.1,0,0,0c-0.1,0-0.2,0-0.3,0.1c0.1-0.1,0.2-0.2,0.2-0.2
						c-0.1-0.1-0.2,0.1-0.3,0.2c0.1-0.1-0.1,0,0.1-0.3c0,0-0.1,0.1-0.2,0.1c0.1-0.1-0.1-0.2,0.1-0.4l0,0c0,0,0,0,0,0l0,0l0,0
						c0.1-0.3-0.4-0.1-0.4-0.3l-0.1,0.1c0-0.1-0.1-0.2,0-0.4c0,0-0.2,0.1-0.2,0.2c0-0.1,0.1-0.2-0.1-0.1c-0.1,0.2-0.1,0.1,0,0.1
						c-0.1,0-0.2,0.1-0.1-0.2c-0.1,0.2-0.3,0.2-0.2,0.1l0.2-0.1c0-0.1-0.1-0.1-0.1-0.1l-0.2,0.3c-0.4,0.2,0.1-0.7-0.4-0.3
						c0.1-0.2,0.2-0.1,0.3-0.3c-0.1,0-0.4,0.3-0.5,0.3c-0.2,0.1,0.2-0.5,0-0.4c0.1-0.1,0.3-0.3,0.3-0.5c-0.1,0-0.4,0.4-0.4,0.5
						c0,0,0,0,0.1,0c0,0.1,0,0.1-0.1,0.2l0.1-0.1c-0.1,0.1-0.2,0-0.3,0.2c0-0.1,0.1-0.2,0.2-0.2c-0.2,0.1-0.1-0.1-0.3,0
						c0,0,0.1-0.2,0.1-0.2c-0.2,0,0.1-0.2,0-0.3c-0.1,0.1-0.2,0.4-0.2,0.2c-0.1,0.1-0.2,0.3-0.2,0.4c0-0.2-0.2,0-0.3,0l0,0.1
						c0-0.1,0-0.1,0-0.1l0.1-0.2c0,0-0.1,0-0.1,0.1c0-0.2,0.2-0.3,0.3-0.5c-0.1,0.1,0-0.2-0.2,0.1c0.2,0-0.2,0.3-0.1,0.4
						c0,0,0-0.1-0.1,0c0,0,0,0.1,0,0.1c-0.2,0.2,0.1-0.3,0-0.4C7.1,11.4,7,11.5,7,11.5c0,0,0.2-0.2,0.2-0.4c-0.1,0.1,0-0.1-0.1-0.1
						l0.1,0c0.1-0.2,0-0.2,0-0.2c-0.1,0.1,0,0.1,0,0.2c0.1-0.3-0.3,0.2-0.3,0c-0.1,0.1-0.2,0.3-0.2,0.4c0-0.3-0.2,0.2-0.2,0
						c0.1-0.2,0.1-0.1,0.1-0.4L6.6,11l0.1-0.4c0.1,0,0,0.2,0.1,0.2c0-0.2,0-0.1,0.1-0.3c-0.2,0.3,0-0.3-0.2-0.1l-0.3,0.5
						c-0.2,0.2-0.1-0.4-0.3-0.3l0.1-0.1c0.1-0.2-0.1-0.1-0.1-0.2C6,10.5,6,10.6,5.9,10.7c0.1-0.1-0.1,0,0-0.4l-0.2,0.2
						c-0.2,0,0.1-0.6-0.1-0.6c-0.1,0.2-0.2,0.3-0.2,0.5c-0.1,0-0.1,0-0.1-0.1c-0.1,0.1,0-0.3-0.2-0.2c0-0.1,0.1-0.3,0.1-0.3
						c0,0-0.1,0.1-0.1,0.1c0.1-0.1,0-0.1,0.2-0.3C5.2,9.8,5.1,9.7,5,9.7c-0.1-0.1-0.2-0.1-0.5,0C4.4,9.6,4.3,9.5,4.3,9.4
						c-0.1,0-0.1,0.1-0.1,0.1c-0.4,0,0.5-0.4,0.1-0.3C3.9,9.3,4.2,9.3,4,9.3c-0.8,0.4-0.1-0.1-0.7,0l0,0C2.9,9.4,3.4,9.1,3.2,9.1
						c0,0-0.1,0-0.1,0c0.4-0.2,0.4-0.3,0.4-0.4C3.1,8.8,3.3,8.8,2.9,8.9c0,0,0.7-0.2,0.7-0.2c-0.3,0-0.5,0-1,0.1l0.1,0.1
						C1.9,9,2.5,8.8,2.3,8.8L2,8.8C1.9,8.7,2.6,8.6,2.4,8.5l0.2,0c0.7-0.1-0.5,0,0-0.1L1.8,8.5c0.1-0.1,0.5-0.2,0.6-0.2
						c-0.6,0.1-0.7,0.2-1,0.2c-0.1,0-0.2-0.1,0.2-0.2c-0.1,0-0.2,0-0.1,0.1c0.3,0,0.5-0.1,0.6-0.1c0.1,0,0.1,0,0.1,0
						c0,0,0.1,0,0.1,0C0.6,8.2,2.2,8,1.1,7.9c0.8-0.1,0.3-0.3,0.8-0.5C2.8,7.6,2,7.4,3,7.5c0.1,0,0.1,0,0.1-0.1c0,0-0.4-0.2-0.4-0.2
						c-0.2-0.1-0.3,0-0.5,0c0.1-0.1-0.3-0.1-0.4-0.2C2.1,7,2.3,7,2.3,6.9l0.3,0.2c0.7,0-0.5-0.3,0.2-0.3l-0.3,0
						c0.3,0,0.5-0.3,1.2-0.1c-0.1,0-0.2-0.2-0.3-0.1c0.3-0.2,1.2-0.1,1.1-0.4L4.3,6c0.1,0,0.3,0.1,0.3,0c0,0-0.1-0.1-0.1-0.1
						c0.1,0,0.3,0.1,0.3,0L4.6,5.8c0.2-0.3,0.7,0.1,0.9,0.1C5.3,5.5,5.3,5.3,5.4,5.2l0-0.1C5.5,5,5.9,5.3,6.1,5.4
						C6,4.9,6.4,5,6.4,4.6c0,0.1,0.2,0.3,0.2,0.3c0-0.1,0.3,0.2,0.1-0.2l0,0c-0.2-0.4,0-0.3,0-0.4L7,4.9C6.8,4.1,7.6,4.8,7.4,4.2
						c0.1,0.1,0.2,0.1,0.3,0.1L7.5,4.1c0.1-0.1,0.1-0.2,0.3-0.2L7.7,3.7c0.1-0.1,0.5,0.6,0.6,0.6L8.1,3.9c0.1-0.1,0.1-0.5,0.4-0.3
						c0-0.1-0.1-0.2-0.1-0.2c0.1-0.1,0.1-0.4,0.4,0.1C8.6,3.3,8.9,3.5,9,3.6L8.9,3.3c0.3,0.3,0.3,0.3,0.5,0.4c0,0-0.1-0.2-0.1-0.1
						c0-0.2,0.2,0.2,0.2,0L9.3,3.5c0.1-0.1,0.1,0,0.3,0.2c0.1,0.1,0.1-0.1,0-0.4c0.1,0.1,0.2,0.3,0.3,0.2c0-0.1-0.1-0.1-0.1-0.1
						c0-0.2,0.4,0.2,0.3-0.1c0-0.1-0.1-0.1-0.1-0.1C9.8,3.1,9.7,3.2,9.8,3.2C9.6,3,9.7,2.9,9.4,2.6C9.6,2.7,9.9,3,9.9,2.9
						c0,0,0,0,0-0.1l0,0c0,0,0,0,0.1,0c0-0.1,0-0.1,0-0.1C9.9,2.5,10,2.5,10,2.5c0.2,0.2,0.2,0.2,0.3,0.4c0,0,0,0-0.1,0c0,0,0,0,0,0
						l0,0c0,0-0.1,0-0.1,0c0.1,0.1,0.2,0.2,0.2,0c0.1,0.1,0.2,0.3,0.3,0.3c-0.2-0.4-0.2-0.6-0.3-0.8c0.2,0.1,0.3-0.1,0.7,0.3
						c0.1,0,0-0.2-0.1-0.2c0,0-0.1,0-0.1-0.1c0.1,0.1,0.2-0.1,0.5,0.2c0-0.2-0.2-0.2-0.1-0.3L11,2.3C10.9,1.6,12,2.8,11.8,2
						c0,0.1,0,0.1,0,0.1c0.1-0.5,0.8-0.2,0.7-0.8c0-0.1,0.2,0,0.3,0.2l-0.2-0.3L13,1.5c0.3,0.1-0.2-0.7,0.2-0.5l0.1,0.2
						c0-0.1,0.2,0,0.1-0.2c0,0,0.1,0.2,0.1,0.1l-0.1-0.1L13.7,1c0-0.2-0.4-0.5-0.3-0.6c0.1,0,0.4,0.3,0.5,0.4c0,0,0,0.1,0.1,0.2
						l0.1,0c0.3,0.4,0.6,0.7,0.7,1.1l-0.3-0.2l0.1,0.2l0.1,0c0.1,0.2-0.1,0.1-0.2,0c0.1,0.1,0.1,0.2,0.1,0.2L14.3,2
						c0.1,0.2,0.3,0.3,0.3,0.4C14.4,2.3,14.4,2,14.2,2c0.1,0.2,0.2,0.3,0,0.2c0.1,0.1,0.1,0.2,0.2,0.2c-0.1-0.1-0.2,0-0.3-0.1
						c0.1,0.2-0.2,0.1,0.1,0.4c-0.1-0.1-0.3-0.2-0.3-0.2c0.4,0.4-0.1,0.1,0.2,0.6c-0.3-0.3-0.3,0-0.6-0.2c0,0,0.1,0.1,0.1,0.1
						c0,0.1,0,0.2,0.1,0.3c-0.2-0.3-0.4-0.3-0.6-0.5c0.2,0.4,0.3,0.3,0.5,0.7c-0.2-0.3-0.3-0.2-0.4-0.4c0.1,0.2,0,0.1,0.2,0.4
						C13,3,13.2,3.3,13,3.1c0.1,0.2,0.2,0.4,0.1,0.3C13.1,3.6,13.3,3.7,13.3,3.7z M10.9,4.3L10.9,4.3C10.9,4.3,10.9,4.3,10.9,4.3
						C10.9,4.3,10.9,4.3,10.9,4.3z M10.7,4.4C10.7,4.4,10.7,4.4,10.7,4.4c0-0.1,0-0.2-0.1-0.2C10.7,4.3,10.7,4.3,10.7,4.4z M10,2.6
						C9.9,2.6,9.9,2.6,10,2.6C10,2.7,10,2.7,10,2.6l0.1,0.1C10,2.6,10,2.6,10,2.6z"/>
					<path fill="#FFFFFF" d="M10.2,2.9C10.2,2.9,10.2,2.9,10.2,2.9C10.3,2.9,10.3,2.9,10.2,2.9L10.2,2.9L10.2,2.9z"/>
					<path fill="#FFFFFF" d="M10.3,12.7L10.3,12.7C10.3,12.7,10.3,12.7,10.3,12.7C10.3,12.7,10.3,12.7,10.3,12.7z"/>
					<polygon fill="#FFFFFF" points="8.7,6.4 8.6,6.3 8.7,6.3 					"/>
					<path fill="#FFFFFF" d="M11.7,12.8C11.7,12.8,11.8,12.8,11.7,12.8C11.8,12.8,11.7,12.8,11.7,12.8z"/>
					<path fill="#FFFFFF" d="M12.1,13.1l0.1,0C12.2,13.1,12.1,13.1,12.1,13.1z"/>
					<path fill="#FFFFFF" d="M12.5,13.3C12.4,13.4,12.4,13.4,12.5,13.3L12.5,13.3L12.5,13.3z"/>
					<path fill="#FFFFFF" d="M8,9.3C8,9.3,8,9.3,8,9.3C7.9,9.2,8,9.2,8,9.3z"/>
					<path fill="#FFFFFF" d="M9.1,10.8c0-0.1,0-0.1,0-0.1C9.2,10.6,9.2,10.6,9.1,10.8z"/>
					<polygon fill="#FFFFFF" points="6.5,8.2 6.5,8.2 6.5,8.2 					"/>
					<path fill="#FFFFFF" d="M9.1,10.6C9.2,10.6,9.2,10.6,9.1,10.6C9.1,10.6,9.1,10.6,9.1,10.6z"/>
					<path fill="#FFFFFF" d="M13.5,14.5L13.5,14.5C13.5,14.6,13.5,14.6,13.5,14.5L13.5,14.5z"/>
					<path fill="#FFFFFF" d="M13.5,14.6L13.5,14.6C13.5,14.6,13.5,14.6,13.5,14.6z"/>
					<path fill="#FFFFFF" d="M13.5,14.7L13.5,14.7C13.5,14.6,13.5,14.6,13.5,14.7z"/>
					<path fill="#FFFFFF" d="M13.1,14.2L13.1,14.2C13.2,14.2,13.2,14.2,13.1,14.2z"/>
					<path fill="#FFFFFF" d="M13.1,14.1c0,0,0.2-0.1,0.2,0l-0.1,0.1C13.3,14,13,14.2,13.1,14.1z"/>
					<path fill="#FFFFFF" d="M11.7,14.4l0.1,0c-0.1,0.1-0.2,0.1-0.2,0.2C11.3,14.7,11.8,14.5,11.7,14.4z"/>
					<path fill="#FFFFFF" d="M11.4,14.2c0,0.1-0.1,0.1-0.2,0.1C11.2,14.2,11.3,14.2,11.4,14.2z"/>
					<path fill="#FFFFFF" d="M9.5,12.4l-0.2,0.2C9.3,12.5,9.4,12.5,9.5,12.4z"/>
					<polygon fill="#FFFFFF" points="9.9,11 10.1,10.9 9.9,11.1 					"/>
					<polygon fill="#FFFFFF" points="8.6,12.3 8.6,12.3 8.6,12.2 					"/>
					<path fill="#FFFFFF" d="M4.4,10l0.3-0.2C4.7,9.8,4.4,10.1,4.4,10z"/>
					<path fill="#FFFFFF" d="M2.1,8.6c-0.3,0-0.6,0-0.4,0C1.8,8.6,2.1,8.6,2.1,8.6z"/>
					<polygon fill="#FFFFFF" points="6.9,4.5 6.8,4.4 6.9,4.4 					"/>
				</g>
			</g>
		</g>
	</g>
</g>
</svg>
