<?xml version="1.0" encoding="utf-8"?>
<!-- Generator: Adobe Illustrator 17.1.0, SVG Export Plug-In . SVG Version: 6.00 Build 0)  -->
<!DOCTYPE svg PUBLIC "-//W3C//DTD SVG 1.1//EN" "http://www.w3.org/Graphics/SVG/1.1/DTD/svg11.dtd">
<svg version="1.1" id="Layer_1" xmlns="http://www.w3.org/2000/svg" xmlns:xlink="http://www.w3.org/1999/xlink" x="0px" y="0px"
	 viewBox="0 0 24.8 16.8" enable-background="new 0 0 24.8 16.8" xml:space="preserve">
<g>
	<g>
		<g>
			<g>
				<g>
					<path fill="#FFFDFD" d="M2.5,15.8c0.1,0.1,0.2,0.2,0.2,0.1L2.5,15.8L2.5,15.8z"/>
					<path fill="#FFFDFD" d="M3.2,15.9c-0.1-0.1-0.3-0.3-0.6-0.5c0.2,0.2,0.1,0.2,0.4,0.4c0,0.1-0.1,0-0.2-0.1
						c0.1,0.1-0.1,0,0.1,0.1C3.1,16,3.1,16,3,15.8C3.1,15.8,3.1,15.9,3.2,15.9z"/>
					<path fill="#FFFDFD" d="M5.9,13.5L5.9,13.5C5.9,13.5,5.9,13.5,5.9,13.5z"/>
					<path fill="#FFFDFD" d="M7.8,12.3C7.8,12.3,7.8,12.3,7.8,12.3C7.8,12.3,7.8,12.3,7.8,12.3z"/>
					<path fill="#FFFDFD" d="M8.3,12.4C8.3,12.4,8.3,12.4,8.3,12.4C8.3,12.4,8.3,12.4,8.3,12.4z"/>
					<path fill="#FFFDFD" d="M5.9,13.5l0.1,0C6,13.5,6,13.5,5.9,13.5z"/>
					<path fill="#FFFDFD" d="M2.8,15C2.9,15.1,2.9,15.1,2.8,15C2.9,15.1,2.9,15.1,2.8,15L2.8,15z"/>
					<path fill="#FFFDFD" d="M5.4,14.4L5.4,14.4c0,0,0,0.1,0.1,0.1L5.4,14.4z"/>
					<path fill="#FFFDFD" d="M5,15c0,0-0.2-0.2-0.3-0.3c0.1,0.1,0.1,0.1,0.1,0.2C4.9,14.9,4.9,14.9,5,15z"/>
					<path fill="#FFFDFD" d="M3.9,15.6L3.9,15.6C3.9,15.6,3.9,15.6,3.9,15.6z"/>
					<path fill="#FFFDFD" d="M5.8,14C5.9,14.1,5.9,14.1,5.8,14C5.9,14.1,5.9,14.1,5.8,14z"/>
					<path fill="#FFFDFD" d="M1.9,3.4C2,3.4,2,3.4,1.9,3.4C2,3.4,1.9,3.4,1.9,3.4z"/>
					<polygon fill="#FFFDFD" points="2,1.8 2.1,1.8 2.2,1.7 					"/>
					<path fill="#FFFDFD" d="M9,12.4L9,12.4C9,12.4,9,12.4,9,12.4z"/>
					<path fill="#FFFDFD" d="M14.1,8.1c-0.3,0.1-0.7,0-1,0.1C13.3,8.2,13.9,8.2,14.1,8.1z"/>
					<path fill="#FFFDFD" d="M2.9,15C2.9,15,2.9,15,2.9,15C2.9,15,2.9,15,2.9,15z"/>
					<path fill="#FFFDFD" d="M13.1,8.2L13.1,8.2L13.1,8.2C13.1,8.2,13.1,8.2,13.1,8.2z"/>
					<path fill="#FFFDFD" d="M10.3,11.5c0,0,0-0.1-0.1-0.1C10.3,11.5,10.3,11.5,10.3,11.5z"/>
					<path fill="#FFFDFD" d="M9.1,11.7L9.1,11.7C9.1,11.7,9.1,11.7,9.1,11.7z"/>
					<path fill="#FFFDFD" d="M10.9,10.9C10.9,10.9,10.9,10.9,10.9,10.9C10.9,10.8,10.9,10.8,10.9,10.9
						C10.9,10.9,10.9,10.9,10.9,10.9z"/>
					<path fill="#FFFDFD" d="M11.7,10.5C11.7,10.5,11.7,10.4,11.7,10.5L11.7,10.5L11.7,10.5z"/>
					<path fill="#FFFDFD" d="M3.7,4.5c0-0.1,0.1-0.2,0.1-0.2C3.7,4.4,3.6,4.5,3.7,4.5z"/>
					<path fill="#FFFDFD" d="M3,15.1C2.9,15.1,2.9,15.1,3,15.1L3,15.1C2.9,15.1,3,15.1,3,15.1z"/>
					<path fill="#FFFDFD" d="M9.6,9L9.6,9C9.6,9,9.6,9,9.6,9z"/>
					<path fill="#FFFDFD" d="M7.7,7.1L7.7,7.1C7.7,7.1,7.7,7.1,7.7,7.1z"/>
					<path fill="#FFFDFD" d="M9.7,8.9C9.8,9,9.8,9.1,9.9,9.1c0,0,0,0-0.1-0.1L9.7,8.9z"/>
					<path fill="#FFFDFD" d="M3.8,4.3L3.8,4.3L3.8,4.3z"/>
					<path fill="#FFFDFD" d="M2.9,4.4C2.9,4.5,3.1,4.2,3.2,4c0.2,0-0.1,0.3-0.2,0.4c0.1,0,0.4-0.3,0.4-0.2c0,0.1,0,0.1-0.1,0.1
						c0.2-0.2,0.2,0.1,0.5-0.1c0,0,0,0.1,0,0.1C3.9,4.1,4,4,4.1,3.9c0,0,0.2-0.1,0.1,0.1C4.2,3.9,4.1,4,4,4L4.1,4C4,4.3,4,4,3.9,4.2
						C4,4.2,4.3,4,4.3,4.1C4.1,4.4,4.1,4.1,4,4.4l0-0.2c-0.2,0.5,0-0.1-0.3,0.4c0.1,0.2,0.2,0,0.3,0.1c0.1-0.1,0.1-0.2,0.3-0.4
						c0.4-0.2-0.3,0.8,0,0.5c0.2-0.2,0.4-0.5,0.4-0.3L4.4,5c0.1,0.1,0.4-0.4,0.4-0.1C4.6,5,4.6,4.9,4.6,5C4.5,5.3,4.8,4.8,4.8,4.9
						L4.6,5.2c0.2,0,0.4-0.1,0.6,0C5.2,5.2,5.1,5.3,5.1,5.4c0.3,0,0.4,0.3,0.4,0.6l0.2-0.2c0,0,0,0.1-0.1,0.2c0,0.1,0.1-0.2,0.2-0.2
						c0,0,0,0.2-0.1,0.2C5.9,5.8,6.3,5.7,6.3,6L6.2,6.1c0,0.2,0.4-0.4,0.4-0.2l0,0C6.7,6.2,7,6.1,7,6.6c0.3-0.3,0.1,0.3,0.4-0.2
						c0,0.3-0.1,0.4-0.1,0.7c0,0.1,0.3-0.3,0.3-0.3L7.5,7l0.2-0.2L7.6,7.2l0.1,0c0,0,0-0.1,0.1-0.2c0.2-0.1,0.1,0.3,0,0.4l0.3-0.1
						C8,7.3,8,7.4,7.9,7.4C8.2,7.2,7.8,7.7,8,7.5c0-0.1,0.1-0.2,0.1-0.2C8.1,7.5,8.2,7.6,8.3,7.6L8.2,7.7c0.1,0.1,0.4,0.1,0.5,0.2
						c0-0.1,0.2-0.4,0.3-0.4L8.8,7.8C9,7.6,8.9,7.6,9,7.5c0,0.1-0.1,0.3-0.2,0.4l0.1-0.1c0,0.1-0.1,0.1-0.2,0.2
						c0.1-0.2,0,0.4,0.2,0.1l0,0.1c0.2,0.1,0.3,0,0.4,0.1C9.5,8.1,9.5,8.2,9.7,8c0,0.1,0.1,0.4,0.1,0.4c0.1-0.1,0.1-0.2,0.2-0.3
						C9.9,8.3,10,8.3,9.9,8.4c0.1,0,0.1,0,0.3-0.1c0.1-0.1,0.1-0.1,0.2-0.2c0.1,0,0,0.1-0.2,0.2l0,0c0.2-0.1,0.1,0.1,0,0.2
						c-0.1,0.1-0.3,0.2,0,0.1l0,0c0,0,0.4-0.1,0.4-0.1c0,0-0.3,0.1-0.5,0.1c0.6-0.1,0,0.1,0.4,0C9.9,8.7,9.9,8.7,10,8.7
						c0.1,0,0.3,0-0.2,0l0.3,0c0.3,0-0.2,0-0.3,0c0.3,0,0.3,0,0.5,0c0.2,0,0.2,0.1-0.1,0.1c-0.3,0-0.6,0-0.8,0
						c-0.1,0,1.6,0.3,0.8,0.2L9.9,8.8c0.3,0.1,0.3,0.1,0.2,0.1c0,0-0.1,0,0.1,0.1C10.1,9,10,8.9,10,8.9c-0.3-0.1-0.1,0,0.2,0.1
						c0,0-0.2-0.1-0.3-0.2c-0.2-0.1,0.3,0.2,0,0.1c0,0-0.1-0.1-0.1-0.1C9.9,9,9.7,8.9,10,9.1c-0.2-0.1,0,0.1-0.1,0
						C10.1,9.3,9.7,9,10,9.3C9.7,9,9.7,9.1,9.8,9.3C9.7,9.1,9.7,9.1,9.6,9c0,0,0,0.1,0.1,0.3c-0.2-0.2-0.1-0.1-0.1,0
						c0,0.1,0,0.2-0.2-0.1C9.3,9.5,9.2,9.7,9,9.9C8.8,9.5,9.2,9.8,9,9.3C8.9,9.6,9,10,8.7,10c-0.1,0-0.1-0.2-0.1-0.3
						C8.6,10,8.3,9.9,8.2,10.2c0,0,0-0.1,0-0.1c0,0-0.1,0,0,0.2l0-0.1c0.2,0.2,0.2,0.6,0.2,0.8c-0.2-0.5-0.2,0-0.5-0.7
						c0,0,0,0.1,0.1,0.3c0,0-0.1-0.1-0.1-0.2c-0.1,0.2,0.1,0.3,0,0.4c0-0.1,0-0.1-0.1-0.2c0,0.2,0.1,0.4,0,0.4c0-0.1-0.1-0.1,0-0.1
						c-0.1,0.1,0,0.6-0.2,0.5c-0.2-0.4-0.1-0.1-0.3-0.4l0,0.1L7.2,11c-0.1,0,0,0.3-0.1,0.3l0-0.2L7,11.2l0.2,0.1
						c0,0.2,0.3,0.4,0.1,0.4c0,0-0.1,0-0.2-0.1l0,0c0,0.1,0.1,0.3,0,0.2c-0.1-0.1-0.2-0.3-0.3-0.4c0.1,0.3-0.1,0.2,0,0.5
						c0-0.1-0.1-0.2-0.2-0.3l0.1,0.2c-0.1,0-0.1-0.1-0.2-0.2c-0.1,0,0.3,0.4,0.1,0.3c0,0,0-0.1,0-0.1c-0.2,0-0.1,0.3-0.3,0.3
						c-0.3-0.3,0-0.1-0.2-0.4c-0.1,0.2,0,0.6-0.2,0.7l0.1,0c0.3,0.4-0.3-0.1-0.2,0.1c0,0-0.2-0.2-0.1-0.2c-0.2,0-0.1,0.3-0.1,0.5
						l-0.1-0.1c-0.1,0-0.2,0.1-0.3,0.1c0.1,0.1,0,0.1,0.2,0.3c-0.7-0.4,0,0.6-0.6,0.3c0,0,0-0.1-0.1-0.1l0,0.2
						c0.2,0.1,0.1,0.1,0.3,0.2c0.1,0.1,0.1,0.2,0.1,0.3c-0.1-0.2-0.3-0.3-0.4-0.3c0.1,0,0.1,0.1,0.2,0.2c-0.4-0.2,0.3,0.3,0,0.2
						l-0.1-0.1c0,0.1,0.1,0.2,0,0.2C4.4,14,4.5,14,4.4,13.8c0,0.1,0.3,0.4,0,0.3c0-0.1,0-0.1,0-0.2c-0.3-0.2-0.2-0.1-0.3-0.1l0,0
						l-0.2,0l0.1,0c0.5,0.5,0,0.2,0.2,0.6C4,14.2,4,14.4,3.8,14.2c-0.1,0-0.2-0.1-0.2-0.1c0.2,0.2-0.2,0,0,0.3c-0.1-0.1,0,0-0.2-0.1
						c0,0.1,0.1,0.1,0.2,0.2c0.2,0.3-0.5,0-0.2,0.4c0.1,0.2,0.3,0.5,0.4,0.7c-0.2-0.1-0.3-0.2-0.3-0.2c-0.2,0-0.2,0-0.1,0.2
						c-0.1-0.1-0.1-0.1-0.2-0.1c0,0.1,0.3,0.2,0.1,0.2c-0.1-0.1-0.2-0.2-0.3-0.3c0,0.1,0.1,0.3,0.2,0.4c-0.1-0.1-0.2-0.2-0.3-0.3
						c0,0.1,0,0.3,0.2,0.4l0.1,0c0,0-0.2-0.1-0.2-0.2c-0.1-0.2,0.1,0,0.2,0l0,0.1c0.5,0.3,0-0.2,0.1-0.3l0.3,0.3l-0.2-0.3
						c0.1,0,0.3,0.2,0.3,0.3c0.2,0.1-0.1-0.1,0.1,0c0,0,0,0,0.1,0l-0.1-0.1C3.9,15.5,4,15.6,4,15.6c0.3,0.1-0.1-0.3,0.1-0.2l0,0
						c0-0.2-0.2-0.2-0.4-0.5l0.6,0.4l-0.2-0.2c0,0,0.1,0,0.1,0.1C4.1,15,4.1,15.1,4,15c0.3,0.1,0-0.3,0.4,0
						c-0.2-0.2-0.2-0.1-0.3-0.2c0.4,0.3,0-0.1,0.2,0c0.2,0.2,0,0.2,0.3,0.2c-0.3-0.3,0.2,0,0.1-0.1c-0.3-0.2,0-0.2,0-0.4
						c0.1,0.1,0.3,0,0.4,0l0,0c-0.3-0.3-0.1-0.3-0.1-0.4c0.2,0.2,0.2,0.2,0.3,0.3l0-0.1c-0.1-0.1-0.1-0.2-0.1-0.2l0.2,0.2
						c0-0.1-0.1-0.4,0.1-0.3C5.4,13.9,5,13.6,5,13.4c0.1,0.1,0.3,0.3,0.3,0.3c0,0-0.1-0.1,0-0.1l0.1,0.2c0.1,0-0.1-0.2-0.1-0.2
						c0.1,0.1,0.1,0.1,0.2,0.2c0,0-0.1,0,0,0c0.1,0,0.2,0,0.3,0.1c-0.1-0.1-0.2-0.2-0.2-0.2C5.7,13.7,5.9,13.9,6,14
						c-0.1-0.1,0.1,0-0.1-0.3c0,0,0.1,0.1,0.2,0.1c-0.1-0.1,0.1-0.2-0.1-0.4l0,0c0,0,0,0,0,0l0,0l0,0c-0.1-0.3,0.4-0.1,0.4-0.3
						l0.1,0.1c0-0.1,0.1-0.2,0-0.4c0,0,0.2,0.1,0.2,0.2c0-0.1-0.1-0.2,0.1-0.1c0.1,0.2,0.1,0.1,0,0.1c0.1,0,0.2,0.1,0.1-0.2
						C7,13.1,7.1,13.1,7.1,13l-0.2-0.1c0-0.1,0.1-0.1,0.1-0.1l0.2,0.3c0.4,0.2-0.1-0.7,0.4-0.3c-0.1-0.2-0.2-0.1-0.3-0.3
						c0.1,0,0.4,0.3,0.5,0.3c0.2,0.1-0.2-0.5,0-0.4c-0.1-0.1-0.3-0.3-0.3-0.5c0.1,0,0.4,0.4,0.4,0.5c0,0,0,0-0.1,0
						c0,0.1,0,0.1,0.1,0.2l-0.1-0.1c0.1,0.1,0.2,0,0.3,0.2c0-0.1-0.1-0.2-0.2-0.2c0.2,0.1,0.1-0.1,0.3,0c0,0-0.1-0.2-0.1-0.2
						c0.2,0-0.1-0.2,0-0.3c0.1,0.1,0.2,0.4,0.2,0.2c0.1,0.1,0.2,0.3,0.2,0.4c0-0.2,0.2,0,0.3,0l0,0.1c0-0.1,0-0.1,0-0.1l-0.1-0.2
						c0,0,0.1,0,0.1,0.1c0-0.2-0.2-0.3-0.3-0.5c0.1,0.1,0-0.2,0.2,0.1c-0.2,0,0.2,0.3,0.1,0.4c0,0,0-0.1,0.1,0c0,0,0,0.1,0,0.1
						c0.2,0.2-0.1-0.3,0-0.4c0.1,0.2,0.2,0.3,0.2,0.2c0,0-0.2-0.2-0.2-0.4c0.1,0.1,0-0.1,0.1-0.1l-0.1,0c-0.1-0.2,0-0.2,0-0.2
						c0.1,0.1,0,0.1,0,0.2c-0.1-0.3,0.3,0.2,0.3,0c0.1,0.1,0.2,0.3,0.2,0.4c0-0.3,0.2,0.2,0.2,0c-0.1-0.2-0.1-0.1-0.1-0.4l-0.1,0.2
						l-0.1-0.4c-0.1,0,0,0.2-0.1,0.2c0-0.2,0-0.1-0.1-0.3c0.2,0.3,0-0.3,0.2-0.1l0.3,0.5c0.2,0.2,0.1-0.4,0.3-0.3L10,11.3
						c-0.1-0.2,0.1-0.1,0.1-0.2c0.1,0.2,0.1,0.2,0.2,0.3c-0.1-0.1,0.1,0,0-0.4l0.2,0.2c0.2,0-0.1-0.6,0.1-0.6
						c0.1,0.2,0.2,0.3,0.2,0.5c0.1,0,0.1,0,0.1-0.1c0.1,0.1,0-0.3,0.2-0.2c0-0.1-0.1-0.3-0.1-0.3c0,0,0.1,0.1,0.1,0.1
						c-0.1-0.1,0-0.1-0.2-0.3c0.3,0.2,0.4,0.2,0.5,0.1c0.1-0.1,0.2-0.1,0.5,0c0.1-0.1,0.1-0.2,0.2-0.3c0.1,0,0.1,0.1,0.1,0.1
						c0.4,0-0.5-0.4-0.1-0.3c0.4,0.2,0.1,0.1,0.3,0.2c0.8,0.4,0.1-0.1,0.7,0l0,0c0.4,0.1-0.1-0.2,0.1-0.3c0,0,0.1,0,0.1,0
						c-0.4-0.2-0.4-0.3-0.4-0.4c0.4,0.1,0.2,0.1,0.6,0.2c0,0-0.7-0.2-0.7-0.2c0.3,0,0.5,0,1,0.1l-0.1,0.1c0.7,0.1,0.2-0.1,0.3-0.1
						l0.3,0.1c0.1-0.1-0.6-0.2-0.4-0.3l-0.2,0c-0.7-0.1,0.5,0,0-0.1l0.8,0.1c-0.1-0.1-0.5-0.2-0.6-0.2c0.6,0.1,0.7,0.2,1,0.2
						c0.1,0,0.2-0.1-0.2-0.2c0.1,0,0.2,0,0.1,0.1c-0.3,0-0.5-0.1-0.6-0.1C14,9,14,9,14,9c0,0-0.1,0-0.1,0C15.6,9,14,8.7,15.1,8.7
						c-0.8-0.1-0.3-0.3-0.8-0.5c-0.9,0.2-0.1-0.1-1.1,0.1c-0.1,0-0.1,0-0.1-0.1c0,0,0.4-0.2,0.4-0.2c0.2-0.1,0.3,0,0.5,0
						c-0.1-0.1,0.3-0.1,0.4-0.2c-0.3,0.1-0.5,0.1-0.5,0l-0.3,0.2c-0.7,0,0.5-0.3-0.2-0.3l0.3,0c-0.3,0-0.5-0.3-1.2-0.1
						c0.1,0,0.2-0.2,0.3-0.1c-0.3-0.2-1.2-0.1-1.1-0.4l0.1-0.1c-0.1,0-0.3,0.1-0.3,0c0,0,0.1-0.1,0.1-0.1c-0.1,0-0.3,0.1-0.3,0
						l0.2-0.1c-0.2-0.3-0.7,0.1-0.9,0.1c0.2-0.4,0.2-0.6,0.1-0.7l0-0.1c-0.2-0.2-0.5,0.1-0.8,0.2c0.1-0.5-0.3-0.4-0.3-0.7
						c0,0.1-0.2,0.3-0.2,0.3c0-0.1-0.3,0.2-0.1-0.2l0,0c0.2-0.4,0-0.3,0-0.4L9.1,5.6c0.2-0.8-0.6-0.1-0.3-0.7C8.7,5,8.6,5,8.5,5.1
						l0.2-0.2C8.6,4.7,8.6,4.6,8.4,4.6l0.1-0.2C8.4,4.4,8,5.1,7.9,5l0.2-0.4C7.9,4.6,8,4.2,7.7,4.4c0-0.1,0.1-0.2,0.1-0.2
						C7.7,4.2,7.7,3.9,7.4,4.4c0.2-0.3-0.1-0.1-0.3,0l0.2-0.2C7,4.4,7,4.4,6.8,4.5c0,0,0.1-0.2,0.1-0.1c0-0.2-0.2,0.2-0.2,0l0.1-0.1
						c-0.1-0.1-0.1,0-0.3,0.2C6.5,4.4,6.5,4.2,6.6,4C6.5,4.1,6.4,4.3,6.4,4.2c0-0.1,0.1-0.1,0.1-0.1c0-0.2-0.4,0.2-0.3-0.1
						c0-0.1,0.1-0.1,0.1-0.1c0.1,0.1,0.2,0.1,0.1,0.1c0.1-0.2,0.1-0.3,0.3-0.6C6.6,3.5,6.2,3.8,6.2,3.6c0,0,0,0,0-0.1l0,0
						c0,0,0,0-0.1,0c0-0.1,0-0.1,0-0.1c0.1-0.2,0-0.2-0.1-0.2C6,3.5,6,3.4,5.9,3.6c0,0,0,0,0.1,0c0,0,0,0,0,0l0,0c0,0,0.1,0,0.1,0
						C6,3.8,5.9,3.8,5.9,3.7C5.8,3.8,5.6,3.9,5.6,4c0.2-0.4,0.2-0.6,0.3-0.8C5.7,3.2,5.6,3.1,5.2,3.5c-0.1,0,0-0.2,0.1-0.2
						c0,0,0.1,0,0.1-0.1C5.3,3.3,5.2,3.1,4.9,3.4C5,3.2,5.2,3.1,5,3.1L5.1,3c0.1-0.6-0.9,0.5-0.7-0.3c0,0.1,0,0.1,0,0.1
						C4.3,2.4,3.6,2.7,3.6,2.1c0-0.1-0.2,0-0.3,0.2L3.4,2L3.2,2.2C2.9,2.3,3.4,1.5,3,1.8L2.9,1.9c0-0.1-0.2,0-0.1-0.2
						c0,0-0.1,0.2-0.1,0.1l0.1-0.1L2.5,1.8c0-0.2,0.4-0.5,0.3-0.6c-0.1,0-0.4,0.3-0.5,0.4c0,0,0,0.1-0.1,0.2l-0.1,0
						C1.8,2.2,1.4,2.5,1.4,2.9l0.3-0.2L1.5,2.9l-0.1,0c-0.1,0.2,0.1,0.1,0.2,0C1.5,2.9,1.5,3,1.5,3.1l0.4-0.3C1.7,2.9,1.6,3,1.6,3.2
						C1.8,3,1.8,2.8,1.9,2.7C1.9,2.9,1.7,3.1,1.9,3C1.8,3.1,1.8,3.1,1.7,3.1c0.1-0.1,0.2,0,0.3-0.1C1.9,3.2,2.2,3,2,3.4
						c0.1-0.1,0.3-0.2,0.3-0.2C1.9,3.6,2.4,3.3,2.1,3.8c0.3-0.3,0.3,0,0.6-0.2c0,0-0.1,0.1-0.1,0.1c0,0.1,0,0.2-0.1,0.3
						c0.2-0.3,0.4-0.3,0.6-0.5C2.9,3.8,2.8,3.8,2.6,4.1C2.8,3.8,2.9,3.9,3,3.7C2.9,3.9,3,3.8,2.8,4.1c0.3-0.4,0.1,0,0.3-0.3
						C3.1,4.1,2.9,4.2,3.1,4.2C3,4.3,2.9,4.4,2.9,4.4z M5.3,5.1L5.3,5.1C5.3,5.1,5.2,5.1,5.3,5.1C5.2,5.1,5.3,5.1,5.3,5.1z M5.5,5.2
						C5.4,5.1,5.4,5.1,5.5,5.2C5.4,5,5.5,5,5.5,5C5.5,5,5.5,5.1,5.5,5.2z M6.2,3.3C6.2,3.3,6.2,3.4,6.2,3.3C6.2,3.4,6.2,3.4,6.2,3.3
						L6.1,3.4C6.1,3.4,6.2,3.4,6.2,3.3z"/>
					<path fill="#FFFDFD" d="M5.9,3.6C5.9,3.6,5.9,3.6,5.9,3.6C5.9,3.6,5.9,3.7,5.9,3.6L5.9,3.6L5.9,3.6z"/>
					<path fill="#FFFDFD" d="M5.9,13.5L5.9,13.5C5.9,13.5,5.9,13.5,5.9,13.5C5.9,13.5,5.9,13.5,5.9,13.5z"/>
					<polygon fill="#FFFDFD" points="7.5,7.1 7.5,7 7.5,7.1 					"/>
					<path fill="#FFFDFD" d="M4.4,13.6C4.4,13.6,4.4,13.6,4.4,13.6C4.4,13.6,4.4,13.6,4.4,13.6z"/>
					<path fill="#FFFDFD" d="M4.1,13.9l-0.1,0C4,13.9,4,13.9,4.1,13.9z"/>
					<path fill="#FFFDFD" d="M3.7,14.1C3.7,14.1,3.8,14.1,3.7,14.1L3.7,14.1L3.7,14.1z"/>
					<path fill="#FFFDFD" d="M8.2,10C8.2,10,8.2,10,8.2,10C8.2,10,8.2,10,8.2,10z"/>
					<path fill="#FFFDFD" d="M7,11.5c0-0.1,0-0.1,0-0.1C6.9,11.4,6.9,11.4,7,11.5z"/>
					<polygon fill="#FFFDFD" points="9.6,9 9.6,9 9.6,9 					"/>
					<path fill="#FFFDFD" d="M7.1,11.3C7,11.3,7,11.3,7.1,11.3C7,11.4,7.1,11.4,7.1,11.3z"/>
					<path fill="#FFFDFD" d="M2.6,15.3L2.6,15.3C2.6,15.3,2.6,15.3,2.6,15.3L2.6,15.3z"/>
					<path fill="#FFFDFD" d="M2.6,15.3L2.6,15.3C2.7,15.3,2.7,15.3,2.6,15.3z"/>
					<path fill="#FFFDFD" d="M2.7,15.4L2.7,15.4C2.6,15.4,2.6,15.4,2.7,15.4z"/>
					<path fill="#FFFDFD" d="M3,15L3,15C3,14.9,3,14.9,3,15z"/>
					<path fill="#FFFDFD" d="M3.1,14.8c0,0-0.2-0.1-0.2,0L3,14.9C2.8,14.8,3.2,15,3.1,14.8z"/>
					<path fill="#FFFDFD" d="M4.5,15.1l-0.1,0c0.1,0.1,0.2,0.1,0.2,0.2C4.9,15.4,4.3,15.2,4.5,15.1z"/>
					<path fill="#FFFDFD" d="M4.8,14.9C4.8,15,4.9,15,5,15.1C4.9,15,4.9,15,4.8,14.9z"/>
					<path fill="#FFFDFD" d="M6.6,13.1l0.2,0.2C6.8,13.3,6.7,13.2,6.6,13.1z"/>
					<polygon fill="#FFFDFD" points="6.2,11.8 6.1,11.7 6.2,11.9 					"/>
					<polygon fill="#FFFDFD" points="7.6,13 7.6,13.1 7.6,13 					"/>
					<path fill="#FFFDFD" d="M11.8,10.7l-0.3-0.2C11.5,10.6,11.8,10.8,11.8,10.7z"/>
					<path fill="#FFFDFD" d="M14.1,9.3c0.3,0,0.6,0,0.4,0C14.3,9.3,14,9.3,14.1,9.3z"/>
					<polygon fill="#FFFDFD" points="9.3,5.2 9.3,5.2 9.2,5.2 					"/>
				</g>
			</g>
		</g>
	</g>
</g>
<g>
	<g>
		<g>
			<g>
				<g>
					<path fill="#FFFDFD" d="M11.5,15.8c0.1,0.1,0.2,0.2,0.2,0.1L11.5,15.8L11.5,15.8z"/>
					<path fill="#FFFDFD" d="M12.1,15.9c-0.1-0.1-0.3-0.3-0.6-0.5c0.2,0.2,0.1,0.2,0.4,0.4c0,0.1-0.1,0-0.2-0.1
						c0.1,0.1-0.1,0,0.1,0.1c0.2,0.1,0.3,0.1,0.2-0.1C12,15.8,12.1,15.9,12.1,15.9z"/>
					<path fill="#FFFDFD" d="M14.9,13.5L14.9,13.5C14.9,13.5,14.9,13.5,14.9,13.5z"/>
					<path fill="#FFFDFD" d="M16.7,12.3C16.7,12.3,16.7,12.3,16.7,12.3C16.8,12.3,16.8,12.3,16.7,12.3z"/>
					<path fill="#FFFDFD" d="M17.2,12.4C17.2,12.4,17.2,12.4,17.2,12.4C17.2,12.4,17.2,12.4,17.2,12.4z"/>
					<path fill="#FFFDFD" d="M14.9,13.5l0.1,0C14.9,13.5,14.9,13.5,14.9,13.5z"/>
					<path fill="#FFFDFD" d="M11.8,15C11.8,15.1,11.8,15.1,11.8,15C11.9,15.1,11.9,15.1,11.8,15L11.8,15z"/>
					<path fill="#FFFDFD" d="M14.4,14.4L14.4,14.4c0,0,0,0.1,0.1,0.1L14.4,14.4z"/>
					<path fill="#FFFDFD" d="M14,15c0,0-0.2-0.2-0.3-0.3c0.1,0.1,0.1,0.1,0.1,0.2C13.8,14.9,13.9,14.9,14,15z"/>
					<path fill="#FFFDFD" d="M12.8,15.6L12.8,15.6C12.8,15.6,12.8,15.6,12.8,15.6z"/>
					<path fill="#FFFDFD" d="M14.8,14C14.8,14.1,14.9,14.1,14.8,14C14.9,14.1,14.8,14.1,14.8,14z"/>
					<path fill="#FFFDFD" d="M10.9,3.4C10.9,3.4,10.9,3.4,10.9,3.4C10.9,3.4,10.9,3.4,10.9,3.4z"/>
					<polygon fill="#FFFDFD" points="11,1.8 11,1.8 11.1,1.7 					"/>
					<path fill="#FFFDFD" d="M18,12.4L18,12.4C18,12.4,18,12.4,18,12.4z"/>
					<path fill="#FFFDFD" d="M23,8.1c-0.3,0.1-0.7,0-1,0.1C22.2,8.2,22.9,8.2,23,8.1z"/>
					<path fill="#FFFDFD" d="M11.9,15C11.9,15,11.9,15,11.9,15C11.9,15,11.9,15,11.9,15z"/>
					<path fill="#FFFDFD" d="M22.1,8.2L22.1,8.2L22.1,8.2C22,8.2,22.1,8.2,22.1,8.2z"/>
					<path fill="#FFFDFD" d="M19.3,11.5c0,0,0-0.1-0.1-0.1C19.3,11.5,19.3,11.5,19.3,11.5z"/>
					<path fill="#FFFDFD" d="M18.1,11.7L18.1,11.7C18.1,11.7,18.1,11.7,18.1,11.7z"/>
					<path fill="#FFFDFD" d="M19.8,10.9C19.9,10.9,19.9,10.9,19.8,10.9C19.9,10.8,19.9,10.8,19.8,10.9
						C19.9,10.9,19.9,10.9,19.8,10.9z"/>
					<path fill="#FFFDFD" d="M20.7,10.5C20.7,10.5,20.7,10.4,20.7,10.5L20.7,10.5L20.7,10.5z"/>
					<path fill="#FFFDFD" d="M12.7,4.5c0-0.1,0.1-0.2,0.1-0.2C12.7,4.4,12.6,4.5,12.7,4.5z"/>
					<path fill="#FFFDFD" d="M11.9,15.1C11.9,15.1,11.9,15.1,11.9,15.1L11.9,15.1C11.9,15.1,11.9,15.1,11.9,15.1z"/>
					<path fill="#FFFDFD" d="M18.6,9L18.6,9C18.6,9,18.6,9,18.6,9z"/>
					<path fill="#FFFDFD" d="M16.7,7.1L16.7,7.1C16.7,7.1,16.7,7.1,16.7,7.1z"/>
					<path fill="#FFFDFD" d="M18.7,8.9c0.1,0.1,0.1,0.1,0.2,0.1c0,0,0,0-0.1-0.1L18.7,8.9z"/>
					<path fill="#FFFDFD" d="M12.8,4.3L12.8,4.3L12.8,4.3z"/>
					<path fill="#FFFDFD" d="M11.8,4.4c0.1,0.1,0.2-0.3,0.4-0.4c0.2,0-0.1,0.3-0.2,0.4c0.1,0,0.4-0.3,0.4-0.2c0,0.1,0,0.1-0.1,0.1
						c0.2-0.2,0.2,0.1,0.5-0.1c0,0,0,0.1,0,0.1C12.9,4.1,13,4,13.1,3.9c0,0,0.2-0.1,0.1,0.1c0,0-0.1,0.1-0.1,0.1L13.1,4
						C12.9,4.3,13,4,12.8,4.2c0.1,0,0.4-0.2,0.4-0.1c-0.2,0.3-0.2,0-0.3,0.3l0-0.2c-0.2,0.5,0-0.1-0.3,0.4c0.1,0.2,0.2,0,0.3,0.1
						c0.1-0.1,0.1-0.2,0.3-0.4c0.4-0.2-0.3,0.8,0,0.5c0.2-0.2,0.4-0.5,0.4-0.3L13.4,5c0.1,0.1,0.4-0.4,0.4-0.1
						c-0.1,0.1-0.2,0-0.2,0.1c-0.1,0.3,0.2-0.1,0.2-0.1l-0.2,0.3c0.2,0,0.4-0.1,0.6,0c-0.1,0.1-0.1,0.2-0.2,0.3
						c0.3,0,0.4,0.3,0.4,0.6l0.2-0.2c0,0,0,0.1-0.1,0.2c0,0.1,0.1-0.2,0.2-0.2c0,0,0,0.2-0.1,0.2c0.3-0.1,0.6-0.2,0.6,0.1l-0.1,0.1
						c0,0.2,0.4-0.4,0.4-0.2l0,0c0.1,0.2,0.5,0.2,0.4,0.6c0.3-0.3,0.1,0.3,0.4-0.2c0,0.3-0.1,0.4-0.1,0.7c0,0.1,0.3-0.3,0.3-0.3
						L16.5,7l0.2-0.2l-0.2,0.3l0.1,0c0,0,0-0.1,0.1-0.2c0.2-0.1,0.1,0.3,0,0.4l0.3-0.1C17,7.3,17,7.4,16.9,7.4
						c0.3-0.2-0.2,0.3,0.1,0.1c0-0.1,0.1-0.2,0.1-0.2c-0.1,0.2,0.1,0.3,0.2,0.2l-0.1,0.2c0.1,0.1,0.4,0.1,0.5,0.2
						c0-0.1,0.2-0.4,0.3-0.4l-0.1,0.3c0.1-0.2,0-0.1,0.2-0.3c0,0.1-0.1,0.3-0.2,0.4l0.1-0.1c0,0.1-0.1,0.1-0.2,0.2
						c0.1-0.2,0,0.4,0.2,0.1l0,0.1c0.2,0.1,0.3,0,0.4,0.1c0.1-0.2,0.2-0.2,0.3-0.3c0,0.1,0.1,0.4,0.1,0.4c0.1-0.1,0.1-0.2,0.2-0.3
						c-0.1,0.2-0.1,0.2-0.2,0.4c0.1,0,0.1,0,0.3-0.1c0.1-0.1,0.1-0.1,0.2-0.2c0.1,0,0,0.1-0.2,0.2l0,0c0.2-0.1,0.1,0.1,0,0.2
						c-0.1,0.1-0.3,0.2,0,0.1l0,0c0,0,0.4-0.1,0.4-0.1c0,0-0.3,0.1-0.5,0.1c0.6-0.1,0,0.1,0.4,0c-0.6,0.1-0.6,0.1-0.5,0.1
						c0.1,0,0.3,0-0.2,0l0.3,0c0.3,0-0.2,0-0.3,0c0.3,0,0.3,0,0.5,0c0.2,0,0.2,0.1-0.1,0.1c-0.3,0-0.6,0-0.8,0
						c-0.1,0,1.6,0.3,0.8,0.2l-0.6-0.1c0.3,0.1,0.3,0.1,0.2,0.1c0,0-0.1,0,0.1,0.1C19.1,9,19,8.9,19,8.9c-0.3-0.1-0.1,0,0.2,0.1
						c0,0-0.2-0.1-0.3-0.2c-0.2-0.1,0.3,0.2,0,0.1c0,0-0.1-0.1-0.1-0.1c0.1,0.1-0.1,0,0.2,0.2c-0.2-0.1,0,0.1-0.1,0
						C19.1,9.3,18.7,9,19,9.3c-0.3-0.3-0.3-0.3-0.2-0.1c-0.1-0.1-0.1-0.1-0.2-0.3c0,0,0,0.1,0.1,0.3c-0.2-0.2-0.1-0.1-0.1,0
						c0,0.1,0,0.2-0.2-0.1c-0.1,0.3-0.2,0.6-0.4,0.8c-0.2-0.4,0.2-0.1,0-0.6c-0.1,0.3,0,0.7-0.3,0.6c-0.1,0-0.1-0.2-0.1-0.3
						c-0.1,0.3-0.4,0.1-0.4,0.4c0,0,0-0.1,0-0.1c0,0-0.1,0,0,0.2l0-0.1c0.2,0.2,0.2,0.6,0.2,0.8c-0.2-0.5-0.2,0-0.5-0.7
						c0,0,0,0.1,0.1,0.3c0,0-0.1-0.1-0.1-0.2c-0.1,0.2,0.1,0.3,0,0.4c0-0.1,0-0.1-0.1-0.2c0,0.2,0.1,0.4,0,0.4c0-0.1-0.1-0.1,0-0.1
						c-0.1,0.1,0,0.6-0.2,0.5c-0.2-0.4-0.1-0.1-0.3-0.4l0,0.1l0.1,0.1c-0.1,0,0,0.3-0.1,0.3l0-0.2l-0.1,0.2l0.2,0.1
						c0,0.2,0.3,0.4,0.1,0.4c0,0-0.1,0-0.2-0.1l0,0c0,0.1,0.1,0.3,0,0.2c-0.1-0.1-0.2-0.3-0.3-0.4c0.1,0.3-0.1,0.2,0,0.5
						c0-0.1-0.1-0.2-0.2-0.3l0.1,0.2c-0.1,0-0.1-0.1-0.2-0.2c-0.1,0,0.3,0.4,0.1,0.3c0,0,0-0.1,0-0.1c-0.2,0-0.1,0.3-0.3,0.3
						c-0.3-0.3,0-0.1-0.2-0.4c-0.1,0.2,0,0.6-0.2,0.7l0.1,0c0.3,0.4-0.3-0.1-0.2,0.1c0,0-0.2-0.2-0.1-0.2c-0.2,0-0.1,0.3-0.1,0.5
						l-0.1-0.1c-0.1,0-0.2,0.1-0.3,0.1c0.1,0.1,0,0.1,0.2,0.3c-0.7-0.4,0,0.6-0.6,0.3c0,0,0-0.1-0.1-0.1l0,0.2
						c0.2,0.1,0.1,0.1,0.3,0.2c0.1,0.1,0.1,0.2,0.1,0.3c-0.1-0.2-0.3-0.3-0.4-0.3c0.1,0,0.1,0.1,0.2,0.2c-0.4-0.2,0.3,0.3,0,0.2
						l-0.1-0.1c0,0.1,0.1,0.2,0,0.2c-0.2-0.2-0.1-0.1-0.2-0.3c0,0.1,0.3,0.4,0,0.3c0-0.1,0-0.1,0-0.2c-0.3-0.2-0.2-0.1-0.3-0.1l0,0
						l-0.2,0l0.1,0c0.5,0.5,0,0.2,0.2,0.6c-0.2-0.4-0.2-0.2-0.4-0.4c-0.1,0-0.2-0.1-0.2-0.1c0.2,0.2-0.2,0,0,0.3
						c-0.1-0.1,0,0-0.2-0.1c0,0.1,0.1,0.1,0.2,0.2c0.2,0.3-0.5,0-0.2,0.4c0.1,0.2,0.3,0.5,0.4,0.7c-0.2-0.1-0.3-0.2-0.3-0.2
						c-0.2,0-0.2,0-0.1,0.2c-0.1-0.1-0.1-0.1-0.2-0.1c0,0.1,0.3,0.2,0.1,0.2c-0.1-0.1-0.2-0.2-0.3-0.3c0,0.1,0.1,0.3,0.2,0.4
						c-0.1-0.1-0.2-0.2-0.3-0.3c0,0.1,0,0.3,0.2,0.4l0.1,0c0,0-0.2-0.1-0.2-0.2c-0.1-0.2,0.1,0,0.2,0l0,0.1c0.5,0.3,0-0.2,0.1-0.3
						l0.3,0.3l-0.2-0.3c0.1,0,0.3,0.2,0.3,0.3c0.2,0.1-0.1-0.1,0.1,0c0,0,0,0,0.1,0l-0.1-0.1c0.1,0.1,0.2,0.2,0.2,0.2
						c0.3,0.1-0.1-0.3,0.1-0.2l0,0c0-0.2-0.2-0.2-0.4-0.5l0.6,0.4l-0.2-0.2c0,0,0.1,0,0.1,0.1C13.1,15,13.1,15.1,13,15
						c0.3,0.1,0-0.3,0.4,0c-0.2-0.2-0.2-0.1-0.3-0.2c0.4,0.3,0-0.1,0.2,0c0.2,0.2,0,0.2,0.3,0.2c-0.3-0.3,0.2,0,0.1-0.1
						c-0.3-0.2,0-0.2,0-0.4c0.1,0.1,0.3,0,0.4,0l0,0c-0.3-0.3-0.1-0.3-0.1-0.4c0.2,0.2,0.2,0.2,0.3,0.3l0-0.1
						c-0.1-0.1-0.1-0.2-0.1-0.2l0.2,0.2c0-0.1-0.1-0.4,0.1-0.3c-0.2-0.2-0.6-0.4-0.6-0.6c0.1,0.1,0.3,0.3,0.3,0.3c0,0-0.1-0.1,0-0.1
						l0.1,0.2c0.1,0-0.1-0.2-0.1-0.2c0.1,0.1,0.1,0.1,0.2,0.2c0,0-0.1,0,0,0c0.1,0,0.2,0,0.3,0.1c-0.1-0.1-0.2-0.2-0.2-0.2
						c0.1-0.1,0.2,0.1,0.3,0.2c-0.1-0.1,0.1,0-0.1-0.3c0,0,0.1,0.1,0.2,0.1c-0.1-0.1,0.1-0.2-0.1-0.4l0,0c0,0,0,0,0,0l0,0l0,0
						c-0.1-0.3,0.4-0.1,0.4-0.3l0.1,0.1c0-0.1,0.1-0.2,0-0.4c0,0,0.2,0.1,0.2,0.2c0-0.1-0.1-0.2,0.1-0.1c0.1,0.2,0.1,0.1,0,0.1
						c0.1,0,0.2,0.1,0.1-0.2c0.1,0.2,0.3,0.2,0.2,0.1l-0.2-0.1c0-0.1,0.1-0.1,0.1-0.1l0.2,0.3c0.4,0.2-0.1-0.7,0.4-0.3
						c-0.1-0.2-0.2-0.1-0.3-0.3c0.1,0,0.4,0.3,0.5,0.3c0.2,0.1-0.2-0.5,0-0.4c-0.1-0.1-0.3-0.3-0.3-0.5c0.1,0,0.4,0.4,0.4,0.5
						c0,0,0,0-0.1,0c0,0.1,0,0.1,0.1,0.2l-0.1-0.1c0.1,0.1,0.2,0,0.3,0.2c0-0.1-0.1-0.2-0.2-0.2c0.2,0.1,0.1-0.1,0.3,0
						c0,0-0.1-0.2-0.1-0.2c0.2,0-0.1-0.2,0-0.3c0.1,0.1,0.2,0.4,0.2,0.2c0.1,0.1,0.2,0.3,0.2,0.4c0-0.2,0.2,0,0.3,0l0,0.1
						c0-0.1,0-0.1,0-0.1l-0.1-0.2c0,0,0.1,0,0.1,0.1c0-0.2-0.2-0.3-0.3-0.5c0.1,0.1,0-0.2,0.2,0.1c-0.2,0,0.2,0.3,0.1,0.4
						c0,0,0-0.1,0.1,0c0,0,0,0.1,0,0.1c0.2,0.2-0.1-0.3,0-0.4c0.1,0.2,0.2,0.3,0.2,0.2c0,0-0.2-0.2-0.2-0.4c0.1,0.1,0-0.1,0.1-0.1
						l-0.1,0c-0.1-0.2,0-0.2,0-0.2c0.1,0.1,0,0.1,0,0.2c-0.1-0.3,0.3,0.2,0.3,0c0.1,0.1,0.2,0.3,0.2,0.4c0-0.3,0.2,0.2,0.2,0
						c-0.1-0.2-0.1-0.1-0.1-0.4l-0.1,0.2l-0.1-0.4c-0.1,0,0,0.2-0.1,0.2c0-0.2,0-0.1-0.1-0.3c0.2,0.3,0-0.3,0.2-0.1l0.3,0.5
						c0.2,0.2,0.1-0.4,0.3-0.3l-0.1-0.1c-0.1-0.2,0.1-0.1,0.1-0.2c0.1,0.2,0.1,0.2,0.2,0.3c-0.1-0.1,0.1,0,0-0.4l0.2,0.2
						c0.2,0-0.1-0.6,0.1-0.6c0.1,0.2,0.2,0.3,0.2,0.5c0.1,0,0.1,0,0.1-0.1c0.1,0.1,0-0.3,0.2-0.2c0-0.1-0.1-0.3-0.1-0.3
						c0,0,0.1,0.1,0.1,0.1c-0.1-0.1,0-0.1-0.2-0.3c0.3,0.2,0.4,0.2,0.5,0.1c0.1-0.1,0.2-0.1,0.5,0c0.1-0.1,0.1-0.2,0.2-0.3
						c0.1,0,0.1,0.1,0.1,0.1c0.4,0-0.5-0.4-0.1-0.3c0.4,0.2,0.1,0.1,0.3,0.2c0.8,0.4,0.1-0.1,0.7,0l0,0c0.4,0.1-0.1-0.2,0.1-0.3
						c0,0,0.1,0,0.1,0c-0.4-0.2-0.4-0.3-0.4-0.4c0.4,0.1,0.2,0.1,0.6,0.2c0,0-0.7-0.2-0.7-0.2c0.3,0,0.5,0,1,0.1l-0.1,0.1
						c0.7,0.1,0.2-0.1,0.3-0.1l0.3,0.1c0.1-0.1-0.6-0.2-0.4-0.3l-0.2,0c-0.7-0.1,0.5,0,0-0.1l0.8,0.1c-0.1-0.1-0.5-0.2-0.6-0.2
						c0.6,0.1,0.7,0.2,1,0.2c0.1,0,0.2-0.1-0.2-0.2c0.1,0,0.2,0,0.1,0.1C23.4,9.1,23.2,9,23,9C23,9,23,9,22.9,9c0,0-0.1,0-0.1,0
						C24.5,9,22.9,8.7,24,8.7c-0.8-0.1-0.3-0.3-0.8-0.5c-0.9,0.2-0.1-0.1-1.1,0.1c-0.1,0-0.1,0-0.1-0.1c0,0,0.4-0.2,0.4-0.2
						c0.2-0.1,0.3,0,0.5,0c-0.1-0.1,0.3-0.1,0.4-0.2c-0.3,0.1-0.5,0.1-0.5,0l-0.3,0.2c-0.7,0,0.5-0.3-0.2-0.3l0.3,0
						c-0.3,0-0.5-0.3-1.2-0.1c0.1,0,0.2-0.2,0.3-0.1c-0.3-0.2-1.2-0.1-1.1-0.4l0.1-0.1c-0.1,0-0.3,0.1-0.3,0c0,0,0.1-0.1,0.1-0.1
						c-0.1,0-0.3,0.1-0.3,0l0.2-0.1c-0.2-0.3-0.7,0.1-0.9,0.1c0.2-0.4,0.2-0.6,0.1-0.7l0-0.1c-0.2-0.2-0.5,0.1-0.8,0.2
						c0.1-0.5-0.3-0.4-0.3-0.7c0,0.1-0.2,0.3-0.2,0.3c0-0.1-0.3,0.2-0.1-0.2l0,0c0.2-0.4,0-0.3,0-0.4l-0.3,0.4
						c0.2-0.8-0.6-0.1-0.3-0.7C17.6,5,17.6,5,17.5,5.1l0.2-0.2c-0.1-0.1-0.1-0.2-0.3-0.2l0.1-0.2c-0.1-0.1-0.5,0.6-0.6,0.6l0.2-0.4
						c-0.1-0.1-0.1-0.5-0.4-0.3c0-0.1,0.1-0.2,0.1-0.2c-0.1-0.1-0.1-0.4-0.4,0.1c0.2-0.3-0.1-0.1-0.3,0l0.2-0.2
						c-0.3,0.3-0.3,0.3-0.5,0.4c0,0,0.1-0.2,0.1-0.1c0-0.2-0.2,0.2-0.2,0l0.1-0.1c-0.1-0.1-0.1,0-0.3,0.2c-0.1,0.1-0.1-0.1,0-0.4
						c-0.1,0.1-0.2,0.3-0.3,0.2c0-0.1,0.1-0.1,0.1-0.1c0-0.2-0.4,0.2-0.3-0.1c0-0.1,0.1-0.1,0.1-0.1c0.1,0.1,0.2,0.1,0.1,0.1
						c0.1-0.2,0.1-0.3,0.3-0.6c-0.2,0.1-0.5,0.4-0.5,0.3c0,0,0,0,0-0.1l0,0c0,0,0,0-0.1,0c0-0.1,0-0.1,0-0.1c0.1-0.2,0-0.2-0.1-0.2
						c-0.2,0.2-0.2,0.2-0.3,0.4c0,0,0,0,0.1,0c0,0,0,0,0,0l0,0c0,0,0.1,0,0.1,0c-0.1,0.1-0.2,0.2-0.2,0c-0.1,0.1-0.2,0.3-0.3,0.3
						c0.2-0.4,0.2-0.6,0.3-0.8c-0.2,0.1-0.3-0.1-0.7,0.3c-0.1,0,0-0.2,0.1-0.2c0,0,0.1,0,0.1-0.1c-0.1,0.1-0.2-0.1-0.5,0.2
						c0-0.2,0.2-0.2,0.1-0.3L14.1,3c0.1-0.6-0.9,0.5-0.7-0.3c0,0.1,0,0.1,0,0.1c-0.1-0.5-0.8-0.2-0.7-0.8c0-0.1-0.2,0-0.3,0.2
						L12.4,2l-0.3,0.2c-0.3,0.1,0.2-0.7-0.2-0.5l-0.1,0.2c0-0.1-0.2,0-0.1-0.2c0,0-0.1,0.2-0.1,0.1l0.1-0.1l-0.3,0.1
						c0-0.2,0.4-0.5,0.3-0.6c-0.1,0-0.4,0.3-0.5,0.4c0,0,0,0.1-0.1,0.2l-0.1,0c-0.3,0.4-0.6,0.7-0.7,1.1l0.3-0.2l-0.1,0.2l-0.1,0
						c-0.1,0.2,0.1,0.1,0.2,0c-0.1,0.1-0.1,0.2-0.1,0.2l0.4-0.3c-0.1,0.2-0.3,0.3-0.3,0.4c0.2-0.1,0.2-0.4,0.4-0.4
						c-0.1,0.2-0.2,0.3,0,0.2c-0.1,0.1-0.1,0.2-0.2,0.2c0.1-0.1,0.2,0,0.3-0.1c-0.1,0.2,0.2,0.1-0.1,0.4c0.1-0.1,0.3-0.2,0.3-0.2
						c-0.4,0.4,0.1,0.1-0.2,0.6c0.3-0.3,0.3,0,0.6-0.2c0,0-0.1,0.1-0.1,0.1c0,0.1,0,0.2-0.1,0.3c0.2-0.3,0.4-0.3,0.6-0.5
						c-0.2,0.4-0.3,0.3-0.5,0.7c0.2-0.3,0.3-0.2,0.4-0.4c-0.1,0.2,0,0.1-0.2,0.4c0.3-0.4,0.1,0,0.3-0.3c-0.1,0.2-0.2,0.4-0.1,0.3
						C12,4.3,11.8,4.4,11.8,4.4z M14.3,5.1L14.3,5.1C14.2,5.1,14.2,5.1,14.3,5.1C14.2,5.1,14.2,5.1,14.3,5.1z M14.4,5.2
						C14.4,5.1,14.4,5.1,14.4,5.2c0-0.1,0-0.2,0.1-0.2C14.4,5,14.4,5.1,14.4,5.2z M15.2,3.3C15.2,3.3,15.2,3.4,15.2,3.3
						C15.1,3.4,15.1,3.4,15.2,3.3l-0.1,0.1C15.1,3.4,15.1,3.4,15.2,3.3z"/>
					<path fill="#FFFDFD" d="M14.9,3.6C14.9,3.6,14.9,3.6,14.9,3.6C14.9,3.6,14.9,3.7,14.9,3.6L14.9,3.6L14.9,3.6z"/>
					<path fill="#FFFDFD" d="M14.9,13.5L14.9,13.5C14.8,13.5,14.8,13.5,14.9,13.5C14.8,13.5,14.8,13.5,14.9,13.5z"/>
					<polygon fill="#FFFDFD" points="16.4,7.1 16.5,7 16.4,7.1 					"/>
					<path fill="#FFFDFD" d="M13.4,13.6C13.4,13.6,13.4,13.6,13.4,13.6C13.4,13.6,13.4,13.6,13.4,13.6z"/>
					<path fill="#FFFDFD" d="M13,13.9l-0.1,0C13,13.9,13,13.9,13,13.9z"/>
					<path fill="#FFFDFD" d="M12.7,14.1C12.7,14.1,12.7,14.1,12.7,14.1L12.7,14.1L12.7,14.1z"/>
					<path fill="#FFFDFD" d="M17.2,10C17.2,10,17.2,10,17.2,10C17.2,10,17.2,10,17.2,10z"/>
					<path fill="#FFFDFD" d="M16,11.5c0-0.1,0-0.1,0-0.1C15.9,11.4,15.9,11.4,16,11.5z"/>
					<polygon fill="#FFFDFD" points="18.6,9 18.6,9 18.6,9 					"/>
					<path fill="#FFFDFD" d="M16,11.3C16,11.3,16,11.3,16,11.3C16,11.4,16,11.4,16,11.3z"/>
					<path fill="#FFFDFD" d="M11.6,15.3L11.6,15.3C11.6,15.3,11.6,15.3,11.6,15.3L11.6,15.3z"/>
					<path fill="#FFFDFD" d="M11.6,15.3L11.6,15.3C11.6,15.3,11.6,15.3,11.6,15.3z"/>
					<path fill="#FFFDFD" d="M11.7,15.4L11.7,15.4C11.6,15.4,11.6,15.4,11.7,15.4z"/>
					<path fill="#FFFDFD" d="M12,15L12,15C11.9,14.9,12,14.9,12,15z"/>
					<path fill="#FFFDFD" d="M12.1,14.8c0,0-0.2-0.1-0.2,0l0.1,0.1C11.8,14.8,12.2,15,12.1,14.8z"/>
					<path fill="#FFFDFD" d="M13.4,15.1l-0.1,0c0.1,0.1,0.2,0.1,0.2,0.2C13.8,15.4,13.3,15.2,13.4,15.1z"/>
					<path fill="#FFFDFD" d="M13.8,14.9c0,0.1,0.1,0.1,0.2,0.1C13.9,15,13.9,15,13.8,14.9z"/>
					<path fill="#FFFDFD" d="M15.6,13.1l0.2,0.2C15.8,13.3,15.7,13.2,15.6,13.1z"/>
					<polygon fill="#FFFDFD" points="15.2,11.8 15.1,11.7 15.2,11.9 					"/>
					<polygon fill="#FFFDFD" points="16.5,13 16.5,13.1 16.5,13 					"/>
					<path fill="#FFFDFD" d="M20.7,10.7l-0.3-0.2C20.5,10.6,20.7,10.8,20.7,10.7z"/>
					<path fill="#FFFDFD" d="M23.1,9.3c0.3,0,0.6,0,0.4,0C23.3,9.3,23,9.3,23.1,9.3z"/>
					<polygon fill="#FFFDFD" points="18.2,5.2 18.3,5.2 18.2,5.2 					"/>
				</g>
			</g>
		</g>
	</g>
</g>
</svg>
