<?xml version="1.0" encoding="utf-8"?>
<!-- Generator: Adobe Illustrator 18.0.0, SVG Export Plug-In . SVG Version: 6.00 Build 0)  -->
<!DOCTYPE svg PUBLIC "-//W3C//DTD SVG 1.1//EN" "http://www.w3.org/Graphics/SVG/1.1/DTD/svg11.dtd">
<svg version="1.1" id="Layer_1" xmlns="http://www.w3.org/2000/svg" xmlns:xlink="http://www.w3.org/1999/xlink" x="0px" y="0px"
	 viewBox="0 0 16 16" enable-background="new 0 0 16 16" xml:space="preserve">
<g>
	<path fill="#FFFFFF" d="M8,15.7c-4.3,0-7.7-3.5-7.7-7.7S3.7,0.3,8,0.3s7.7,3.5,7.7,7.7S12.3,15.7,8,15.7z M11.6,9.8L9.8,8l1.8-1.8
		c0.1-0.1,0.2-0.3,0.2-0.5c0-0.2-0.1-0.3-0.2-0.5l-0.9-0.9c-0.1-0.1-0.3-0.2-0.5-0.2c-0.2,0-0.3,0.1-0.5,0.2L8,6.2L6.2,4.4
		C6.1,4.2,5.9,4.2,5.7,4.2c-0.2,0-0.3,0.1-0.5,0.2L4.4,5.3C4.2,5.4,4.2,5.6,4.2,5.7c0,0.2,0.1,0.3,0.2,0.5L6.2,8L4.4,9.8
		c-0.1,0.1-0.2,0.3-0.2,0.5c0,0.2,0.1,0.3,0.2,0.5l0.9,0.9c0.1,0.1,0.3,0.2,0.5,0.2c0.2,0,0.3-0.1,0.5-0.2L8,9.8l1.8,1.8
		c0.1,0.1,0.3,0.2,0.5,0.2c0.2,0,0.3-0.1,0.5-0.2l0.9-0.9c0.1-0.1,0.2-0.3,0.2-0.5C11.8,10.1,11.8,9.9,11.6,9.8z"/>
</g>
</svg>
