<?xml version="1.0" encoding="utf-8"?>
<!-- Generator: Adobe Illustrator 18.0.0, SVG Export Plug-In . SVG Version: 6.00 Build 0)  -->
<!DOCTYPE svg PUBLIC "-//W3C//DTD SVG 1.1//EN" "http://www.w3.org/Graphics/SVG/1.1/DTD/svg11.dtd">
<svg version="1.1" id="Layer_1" xmlns="http://www.w3.org/2000/svg" xmlns:xlink="http://www.w3.org/1999/xlink" x="0px" y="0px"
	 viewBox="0 0 30.1 30.1" enable-background="new 0 0 30.1 30.1" xml:space="preserve">
<g>
	<g>
		<path fill="none" d="M9.6,1.3C23.2-2,28.8,9.6,28.7,16.6c-0.1,7-6.3,12.7-14,12.6C7.1,29.1,1,23.3,1.1,16.3
			c0.1-7,6.1-12.7,13.7-12.6 M9.8,22.8l3.6-4.5c0.1-0.2,1.2-0.5,1.5-1c0.2,0.3-0.4,0.6-0.2,0.9l4.4,4.7l1.5,0L15.3,16l5.1-6l-1.3,0
			l-2.9,3.4c-0.5,0.5-0.8,1-1.2,1.5c-0.2-0.4-1.3-0.9-1.9-1.6l-2.6-3.3l-1.4,0l5.6,6.3l-6.5,6.7L9.8,22.8z"/>
		<g>
			<g>
				<g>
					<path fill="#FFFFFF" d="M9.8,23.3c0-0.1,0-0.2-0.1-0.2l-0.1,0.2L9.8,23.3z"/>
					<path fill="#FFFFFF" d="M9.1,22.8c-0.1,0.1-0.3,0.3-0.2,0.6c0.1-0.2,0.1-0.1,0.3-0.4c0.1,0,0.2,0.1,0.2,0.2
						c0-0.1,0.2,0.1,0.2-0.1c-0.1-0.2-0.3-0.2-0.5,0C9.1,22.9,9.1,22.9,9.1,22.8z"/>
					<path fill="#FFFFFF" d="M14.6,16.7L14.6,16.7C14.5,16.7,14.6,16.7,14.6,16.7z"/>
					<path fill="#FFFFFF" d="M11.4,11.7C11.5,11.7,11.5,11.7,11.4,11.7C11.5,11.7,11.4,11.7,11.4,11.7z"/>
					<path fill="#FFFFFF" d="M10.9,10.7C11,10.8,11,10.8,10.9,10.7C11,10.8,11,10.7,10.9,10.7z"/>
					<path fill="#FFFFFF" d="M14.6,16.7l0.2-0.1C14.7,16.6,14.6,16.7,14.6,16.7z"/>
					<path fill="#FFFFFF" d="M8.1,22c0,0,0,0.1,0,0.1C8.1,22.1,8.1,22.1,8.1,22L8.1,22z"/>
					<path fill="#FFFFFF" d="M12.9,18.7L12.9,18.7c0,0.1,0,0.1,0,0.1L12.9,18.7z"/>
					<path fill="#FFFFFF" d="M11.5,20.2c0,0-0.1-0.2-0.2-0.3c0,0.1,0,0.1,0,0.2C11.4,20.1,11.5,20.2,11.5,20.2z"/>
					<path fill="#FFFFFF" d="M9,22.3L9,22.3C9,22.3,9,22.3,9,22.3z"/>
					<path fill="#FFFFFF" d="M13.9,17.7C14,17.7,14,17.8,13.9,17.7C14,17.7,14,17.7,13.9,17.7z"/>
					<path fill="#FFFFFF" d="M12,21.6C12,21.6,12,21.6,12,21.6C12,21.6,12,21.6,12,21.6z"/>
					<polygon fill="#FFFFFF" points="9.7,22.7 9.7,22.7 9.7,22.6 					"/>
					<path fill="#FFFFFF" d="M9.9,9.2L9.9,9.2C10,9.2,9.9,9.2,9.9,9.2z"/>
					<path fill="#FFFFFF" d="M18.8,10.5c0.3,0,0,0.4,0.3,0.3C19.1,10.7,19.1,10.4,18.8,10.5z"/>
					<path fill="#FFFFFF" d="M8.2,22C8.2,22,8.2,21.9,8.2,22C8.2,21.9,8.2,22,8.2,22z"/>
					<path fill="#FFFFFF" d="M19.1,10.8L19.1,10.8L19.1,10.8C19.2,10.8,19.2,10.8,19.1,10.8z"/>
					<path fill="#FFFFFF" d="M11.6,12.7C11.6,12.6,11.6,12.6,11.6,12.7C11.6,12.6,11.6,12.6,11.6,12.7z"/>
					<path fill="#FFFFFF" d="M10.2,10.4L10.2,10.4C10.3,10.4,10.2,10.4,10.2,10.4z"/>
					<path fill="#FFFFFF" d="M12.9,13.9c0,0,0,0.1,0.1,0.1C13,13.9,13,13.9,12.9,13.9C13,13.9,12.9,13.9,12.9,13.9z"/>
					<polygon fill="#FFFFFF" points="14.3,15 14.3,14.9 14.3,14.9 					"/>
					<path fill="#FFFFFF" d="M14.2,17.8C14.2,17.8,14.2,17.8,14.2,17.8c0.6,0,1,0,1.5,0c-0.1,0-0.2,0-0.2,0c0.1,0-0.1,0.5,0.2,0
						C15.4,17.9,15.2,17.9,14.2,17.8C14.2,17.8,14.2,17.8,14.2,17.8z"/>
					<path fill="#FFFFFF" d="M8.2,22.1C8.2,22,8.1,22,8.2,22.1L8.2,22.1C8.1,22.1,8.2,22.1,8.2,22.1z"/>
					<path fill="#FFFFFF" d="M14.1,12.7c0,0,0.1,0.2,0.1,0.2C14.2,12.8,14.2,12.8,14.1,12.7z"/>
					<path fill="#FFFFFF" d="M19.1,19.6L19.1,19.6C19.1,19.6,19.1,19.6,19.1,19.6z"/>
					<path fill="#FFFFFF" d="M14.9,13.3c0,0.1,0,0.2,0,0.2c0,0,0,0,0.1,0L14.9,13.3z"/>
					<path fill="#FFFFFF" d="M15.4,17.9L15.4,17.9L15.4,17.9z"/>
					<path fill="#FFFFFF" d="M14.3,19.1c0,0.1-0.2,0.1-0.3,0c0-0.1-0.1-0.2-0.1-0.2C14,18.7,14.1,19,14.3,19.1
						c0-0.1,0.1-0.4,0.2-0.5c0,0,0.1,0,0.1,0.1c0.1-0.3,0.7-0.4,0.8-0.9c0,0,0.1,0,0.1,0c-0.2,0-0.3-0.1-0.3-0.2c0,0,0-0.1,0.1-0.1
						c-0.2,0-0.3,0-0.5,0c0,0,0.1,0,0,0c0,0-0.1,0-0.1,0.1c0,0,0.1-0.1,0.1-0.1c-0.1,0-0.2,0-0.2,0c0,0,0,0.1,0,0.1c0,0,0,0,0,0l0,0
						l0,0l0,0c0.3,0,0.7,0,1,0l0,0l0,0l0,0l0,0l-1.1,0l0,0l0,0l0,0l0,0l0,0l0,0l0-0.1c0-0.1,0-0.1,0-0.1c0-0.1,0.1,0,0.1,0
						c0,0.1-0.1,0.2-0.2,0.3c-0.1,0,0-0.2,0-0.3c0-0.1,0-0.1-0.1-0.1c0,0,0.1,0,0.1,0c0,0,0,0,0,0c-0.2-0.1-0.2-0.1-0.2-0.1
						c0,0,0,0.1-0.2-0.1c0-0.1,0-0.1,0-0.1c0,0.1-0.1,0.1-0.1,0.2c0,0.1-0.1,0.2-0.2,0.4c0,0.1-0.1,0.3,0,0.5c0,0.2,0.1,0.4,0.2,0.6
						l0.1,0.1c0,0,0,0,0,0.1c0.2,0,0.1-0.2,0.3-0.2c0.5,0.2-0.2,0.7,0.3,0.8c0.2,0,0.4-0.2,0.5,0.1l-0.3,0.1
						c0.2,0.3,0.4-0.1,0.6,0.3c-0.1,0-0.3-0.1-0.3-0.1c0,0.3,0.2,0,0.4,0.2l-0.2,0.2c0.3,0.3,0.7,0.4,1,0.7c-0.1,0-0.2,0-0.2,0.2
						c0.5,0.3,0.8,0.9,1,1.3l0.3,0c0,0,0,0.1-0.1,0.1c0.1,0.2,0.1-0.1,0.2-0.1c0.1,0.1,0,0.2-0.1,0.2c0.3,0.1,0.7,0.3,0.9,0.6
						l0.2,0.2l0.3,0c0.1,0,0.3,0,0.4,0.1l-0.1,0.1c0.3,0.1,0.3-0.4,0.6-0.2l-0.1,0c0.2,0,0.4,0,0.7,0l1.3,0l-0.8-1
						c-0.3-0.3-0.5-0.7-0.6-1c-0.3,0.1-0.3-0.6-0.6-0.4c-0.1-0.4,0.1-0.4-0.1-0.9c-0.1-0.1-0.3,0-0.5-0.1l0.2-0.1l-0.3,0l0.1-0.3
						l-0.1-0.1c0,0.1,0,0.2-0.1,0.2c-0.2-0.1-0.2-0.6-0.2-0.7l-0.5-0.3c0.1,0,0.2,0,0.3,0c-0.4-0.1,0.2-0.2-0.2-0.3
						c0,0.1-0.1,0.1-0.2,0.1c0-0.2-0.2-0.5-0.4-0.6l0.2-0.1c-0.2-0.4-0.6-0.7-0.9-1.1c0,0.2-0.2,0.3-0.3,0.2l0.2-0.2
						c-0.2,0,0,0.2-0.2,0.1c-0.1-0.2,0.1-0.3,0.3-0.2l-0.2-0.1c0-0.1,0.1,0,0.2-0.1c-0.2,0,0-0.5-0.3-0.4l0-0.1
						c-0.3-0.4-0.5-0.5-0.7-0.8c0,0.3,0,0.6,0,1.3c0,0,0,0,0,0c-0.2-0.1,0-0.2-0.1-0.4c0.2-0.2,0.6-0.3,0.8-0.6
						c0.1-0.3-0.1-0.2-0.1-0.3c0.2,0.1,0.4-0.2,0.4,0.1c0.2-0.3,0.3-0.4,0.5-0.9c-0.1,0-0.2,0-0.2,0c0-0.1,0.2-0.1,0.3,0l0,0
						c0.2-0.6,1.3-0.7,1.3-1.3l0,0l0.2-0.5c0.2-0.2,0,0.2,0.2,0.1c0.1-0.6,0.6-0.6,0.7-1.1c0.5,0.1,0.7-0.6,1.1-0.9l1.5-1.2L20.4,9
						c-0.1,0-0.2-0.1-0.2-0.1l0,0.1C20,9.1,20,8.9,19.9,8.9C19.9,9,20.1,9,20,9.1c-0.3,0-0.6,0-0.9,0l-0.3,0l-0.3,0.3
						c-0.5,0.5-1.2,1-1.7,1.5c-0.3,0.3,0.4,0.6-0.2,0.8l-0.1-0.3c-0.1,0.4-0.4,0.7-0.7,1c-0.1,0.2-0.2,0.3-0.4,0.5
						c-0.1,0.2-0.2,0.3-0.3,0.5c0-0.1-0.1-0.1,0-0.2c-0.2,0-0.4,0.5-0.3,0.5c-0.1,0.1-0.1-0.1-0.2,0c-0.2,0.1-0.1,0.5-0.3,0.4
						c0,0,0-0.1,0-0.1c0,0.1-0.1,0.2-0.2,0.3c0.6,0,1.2,0.1,1.7,0.1c-0.1-0.2-0.2-0.2-0.2-0.1c-0.3-0.5-0.6-0.4-0.7-0.7
						c-0.3,0.1-0.3-0.4-0.5-0.1c0.2-0.3-0.2-0.5-0.4-0.5c0.1,0,0-0.2,0.1-0.2c-0.1-0.1-0.2-0.1-0.3,0c0.1-0.5-0.7-0.4-0.4-0.9
						c-0.5-0.4-0.9-0.7-1.3-1.1c0.3-0.2,0.4,0.5,0.7,0.2c-0.4-0.3-0.8-0.4-1.1-0.8c0-0.1,0.2,0,0.2,0c-0.3-0.2-0.4-0.5-0.6-0.7
						L10.9,9l-0.4,0c-0.2,0-0.3,0-0.5,0.1c0,0,0.1-0.1,0.1-0.1C10.1,9.1,10,9,10,9.1l0.1,0c0.1,0.2-0.4,0.5-0.4,0.6
						C9.8,9.2,9.2,9.6,9.5,9C9.4,9,9.3,9.1,9.4,9.2c-0.1,0-0.1-0.1,0-0.2C9.2,9,9.2,9.1,9.1,9.1l-1.3,1.1l0.8,0.2
						c0.1,0,0.2,0,0.3,0.1c-0.1,0-0.1,0-0.2,0.1c0.2,0,0.4,0,0.5,0.3c0,0-0.1,0.1-0.1,0c0.3,0.3,0.8,0.3,1,0.7
						c-0.3,0.1,0,0.2-0.2,0.4l0.2,0.1l0-0.2c0.1,0.2,0.4,0.2,0.5,0.4l-0.2,0l0.3,0.3l-0.1-0.2c0.3,0.1,0.2-0.2,0.4,0
						c-0.1,0,0.1,0.2,0.1,0.4l0,0c0.1,0,0.3,0,0.3,0.2c0,0.1-0.3,0.2-0.3,0.2c0.2-0.1,0.4,0.3,0.7,0.3c-0.1,0-0.2,0.1-0.2,0.1
						l0.2-0.1c0,0.1,0,0.1-0.1,0.2c0.2,0.3,0.2-0.3,0.3,0.1c0,0,0,0-0.1,0c0.2,0.3,0.6,0.4,0.7,0.8c-0.1,0.3-0.2-0.2-0.3,0.1
						c0.4,0.3,0.9,0.5,1.2,0.9l0-0.1c0.3-0.2,0.1,0.4,0.4,0.4c-0.1,0-0.2,0.1-0.2,0.1c0.1,0.2,0.4,0.3,0.6,0.5c0-0.2,0-0.3,0-0.6
						c0,0.1-0.1,0.2-0.2,0.3l0-0.1c-0.2,0.1-0.4,0.3-0.6,0.4c0,0.1-0.1,0.2,0.1,0.2c-0.8,0-0.6,1.1-1.3,1.1c0,0,0-0.2,0-0.1
						l-0.3,0.4c0.1,0.1,0.1,0,0.3,0c0,0.1,0,0.3-0.1,0.3c0.1-0.2-0.2-0.2-0.3-0.2c0,0,0.1,0.1,0.1,0.1c-0.4,0,0.2,0.3-0.2,0.4
						l-0.1-0.1c-0.1,0.1-0.1,0.3-0.2,0.4c-0.2-0.1,0-0.2-0.1-0.3c-0.1,0.1,0,0.5-0.3,0.5c0-0.1,0.1-0.2,0.1-0.3
						c-0.3,0-0.3,0-0.4,0.1l0,0l-0.3,0.2l0.1,0c0.2,0.5-0.3,0.4-0.3,0.9c0-0.4-0.1-0.2-0.2-0.3c-0.1,0-0.2,0.1-0.3,0
						c0,0.2-0.3,0.1-0.2,0.4c-0.1,0-0.1,0.1-0.2,0c-0.1,0.2,0.1,0.1,0.2,0.1c0,0.4-0.7,0.3-0.8,0.9c-0.2,0.4,0,0.6-0.2,0.9
						c-0.2,0-0.1-0.3-0.1-0.3c-0.2,0.1-0.3,0.2-0.4,0.4c0-0.1-0.1-0.1-0.2-0.1c-0.1,0.1,0.1,0.3-0.1,0.3c0-0.1-0.1-0.2-0.1-0.3
						C8,22.2,8,22.4,8,22.5l-0.3,0.9l0.5-0.3c0,0,0.1,0,0.1-0.1c0,0.1-0.1,0.2-0.1,0.2l-0.6,0.6l0.2-1.5c0,0,0,0,0,0l0,0l-0.7,1.2
						l1.1-0.3c0.2-0.1,0.5-0.1,0.6-0.3L8.7,23c0.1,0,0,0.2,0,0.2c-0.2,0.2-0.2-0.1-0.3-0.1l0.1,0c-0.1-0.2-0.2-0.2-0.3-0.2l-0.1,0
						l0.1-0.1c0.1-0.2,0.1-0.4,0.2-0.5l0.1,0.3l0-0.4c0.1,0,0.2,0.1,0.2,0.2c0.2,0,0-0.2,0.3-0.2c0,0,0,0,0,0l0.1-0.2
						c0,0.1,0.2,0.1,0.1,0.2c0.3-0.1,0.2-0.5,0.4-0.5l0,0c0.2-0.4-0.1-0.2-0.1-0.6l0.6,0.2l-0.1-0.2c0,0,0.1-0.1,0.2,0
						c0-0.2-0.1,0-0.1-0.2c0.3,0,0.4-0.5,0.6-0.3c-0.1-0.2-0.2,0.1-0.2-0.2c0.3,0.2,0.1-0.2,0.4-0.3c0.1,0.2-0.1,0.2,0.2,0.2
						c-0.2-0.3,0.3-0.2,0.4-0.4c-0.2-0.2,0.2-0.3,0.3-0.6c0.1,0.1,0.5-0.3,0.7-0.4l0,0c-0.2-0.2,0.1-0.4,0.2-0.6
						c0.1,0.1,0.1,0.2,0.1,0.3l0.1-0.1c0-0.1,0-0.2,0-0.3l0.1,0.2c0.2-0.2,0.2-0.5,0.5-0.7c-0.1-0.1-0.6-0.2-0.4-0.5
						c0.1,0.1,0.2,0.2,0.2,0.3c0,0,0-0.1,0.1-0.1l0,0.2c0.2-0.1-0.1-0.2,0-0.2c0.1,0.1,0.1,0,0.2,0.1c0,0-0.1,0-0.1,0.1
						c0.1-0.1,0.3-0.1,0.4-0.1c-0.1,0-0.1-0.1-0.1-0.2c0.2-0.2,0.2,0.1,0.3,0c0-0.1,0.2-0.2,0-0.3c0.1-0.1,0.1,0,0.2,0
						c0-0.2,0.4-0.4,0.1-0.5l0,0l0,0l0,0l0,0c0.1-0.2,0.2-0.3,0.4-0.5l0.1-0.1l-0.1-0.2c-0.1-0.2-0.2-0.4-0.4-0.6l0.1,0
						c-0.2-0.1-0.4-0.4-0.6-0.4c0-0.1,0-0.2,0.1-0.3c-0.2-0.1-0.2-0.1-0.3-0.4c0.2,0.1,0-0.1,0.2,0.1c-0.1-0.2-0.1-0.3-0.4-0.4
						c0.2-0.1,0.1-0.3-0.1-0.3l0,0.2c-0.1-0.1-0.2-0.2-0.2-0.3l0.2-0.1c-0.1-0.6-1-0.3-0.9-1c-0.2,0,0.1,0.3-0.1,0.3
						c-0.1-0.2,0-0.6-0.1-0.7c-0.1-0.3-0.5,0-0.6-0.3c0,0.1-0.2,0.3-0.4,0.1c-0.1-0.2,0.1-0.5,0.2-0.4c0,0,0,0.1,0,0.1
						c0.1,0,0.2,0.1,0.2,0l-0.1,0c0-0.1-0.2-0.4-0.1-0.4c-0.2-0.1-0.2,0-0.1,0.2c-0.1-0.3-0.3-0.4-0.4-0.6c0,0.1-0.1,0.2-0.1,0.1
						c-0.2-0.4-0.3,0-0.5-0.2c0-0.2,0.3-0.2,0-0.3c-0.1-0.2,0.1-0.2,0.3-0.2c-0.3-0.1-0.3-0.5-0.3-0.6l0.2,0.1
						c-0.1,0-0.1-0.1-0.2-0.1l-0.1,0.2c0-0.1-0.1-0.1,0-0.2C10,9.5,10,9.7,9.8,9.7c0-0.1-0.2-0.2-0.2-0.3c-0.2,0.3-0.3,0.6-0.4,0.9
						c0,0,0.1,0,0.1,0.1c0,0-0.1,0-0.1,0c0.2-0.5,0.5-1,0.5-1.1c0.1,0.2,0.1-0.2,0.3,0c-0.1,0-0.1-0.1-0.1-0.1
						c-0.2,0.4-0.5,1-0.7,1.6l0,0c0,0,0,0,0,0.1c0.2-0.5,0.5-1.1,0.8-1.7l0,0c0,0,0,0,0,0c-0.4,0.8-0.6,1.2-0.8,1.7
						c0.3,0.2,0.2-0.3,0.5-0.3c0,0.1,0.1,0.3,0.1,0.2c-0.1,0-0.1-0.2,0.1-0.3c0.2,0.1,0.3-0.1,0.4-0.1l-0.1,0c0-0.1,0.2-0.1,0.3-0.2
						c0,0.1-0.1,0.1-0.1,0.1c0.1-0.1,0.1-0.1,0.2,0l-0.4-0.2c0,0.1,0,0.3,0.2,0.4c0,0.1-0.2,0.2-0.2,0.3c0.3,0.1,0,0.3,0.3,0.5
						c0.1-0.2,0-0.2,0.3-0.1l-0.4-0.3l0.4,0.1c-0.1-0.1-0.3-0.2-0.3-0.3c0.2,0,0.2,0,0.2-0.1c-0.1,0.3,0.4,0.2,0.4,0.5l-0.4,0.3
						c0.1,0.4,0.6,0.4,0.7,0.8l0-0.2c0.2-0.1,0.2,0.2,0.3,0.3c-0.1,0.1-0.1,0.2-0.1,0.3c0.1-0.1,0.2,0.3,0.4,0.1l0,0.3
						c0.2,0.3,0.6,0.1,0.8,0.4c-0.2,0-0.2,0.2-0.4,0.1c0.1,0.1,0.1,0.2,0.2,0.1c0,0.1,0.4,0.2,0.4,0.3c0.1,0,0.2-0.1,0.3,0
						c0,0,0,0.1,0,0.1c0-0.1,0.2,0.1,0.2-0.1c0,0.6,0.9,0.6,0.8,1.1c0.1,0,0.1,0.1,0.2,0.1l0.1,0c0,0,0,0,0.1,0l0.7,0.1
						c0.1-0.1,0.1-0.2,0.2-0.3c0,0,0.1,0,0,0.1c0.3-0.2-0.2-0.4,0.1-0.6c0.3,0,0,0.2,0.1,0.2c0.4,0.3,0.2-0.4,0.6-0.4l0,0.1
						c0.1,0,0.2-0.1,0.2-0.3l0-0.1c0,0,0-0.1,0-0.1c0-0.1,0.1-0.1,0.1-0.2c0,0,0,0,0.1,0c0-0.3,0.1-0.7,0.3-0.9
						c0.1,0.2,0,0.2,0.2,0.2c0.1-0.1-0.3-0.2-0.1-0.4c0.1,0,0.3-0.1,0.5,0l-0.2,0.2c0.3,0.1,0.2-0.2,0.3-0.3l0.1,0.1
						c0.2-0.3,0-0.5,0.3-0.8l-0.1,0c-0.1-0.4,0.2,0,0.2-0.3l0.3,0.1c0-0.2,0.1-0.6,0.3-0.8c0.1,0.3-0.1,0.6-0.1,0.8
						c0.1-0.1,0.3-0.4,0.2-0.5c0,0.1,0,0.2-0.1,0.2c-0.1-0.3,0-0.5,0.2-0.8c0.1,0.2,0.3,0.1,0.4,0c-0.1,0.1-0.3,0.1-0.4,0.2
						c0.2,0.1,0.6,0,0.7,0.3c0.2-0.1,0.4-0.1,0.6-0.1c-0.2-0.4-0.4-0.8-0.6-1.2c-0.2,0.2-0.5,0.4-0.8,0.7c0.5,0.1-0.1,0.1,0.3,0.4
						c-0.1,0.1-0.1,0.2-0.1,0.2l-0.5,0.1c-0.2,0,0-0.2-0.1-0.2c-0.2,0.2-0.2,0-0.5,0.1c0.2,0.1,0.1,0.2-0.1,0.3l0.3-0.1
						c-0.1,0.5-0.5,0-0.6,0.5l0-0.2c-0.1,0.2-0.5,0.6-0.4,1c-0.1,0-0.2,0-0.2-0.1c-0.4,0.4-0.5,1.1-0.9,1.3l-0.1-0.1
						c0,0.1,0,0.3-0.1,0.3c0,0-0.1-0.1-0.1-0.1c0,0.1,0,0.3-0.2,0.4l0-0.2c-0.4,0.3-0.3,0.8-0.5,1.2c-0.2-0.2-0.6,0-0.8,0.2l0,0
						c0,0-0.1,0.1-0.1,0.1L13.9,16l0.5,0.6c0.3,0.4,0.8,0.5,1.2,0.8c-0.1,0.5,0.6,1,0.8,1.6c0-0.1,0.2-0.1,0.3-0.1
						c0,0.1,0.4,0.1,0.1,0.3l0,0c-0.2,0.3,0.1,0.4,0.2,0.6l0.3-0.2c-0.1,0.8,1,1,0.8,1.5c0.2,0,0.3,0.2,0.4,0.2l-0.2,0.1
						c0.2,0.3,0.3,0.5,0.6,0.8l-0.2,0c0.1,0.2,0.7-0.1,0.8,0.1l-0.2,0.2c0.2,0.2,0.3,0.6,0.5,0.8l0.7-1.5c-0.1,0-0.3,0-0.4,0.1
						c0,0,0-0.1,0.1-0.1c-0.2,0-0.8-0.2-0.7,0.2c0-0.2-0.3-0.1-0.5,0l0.5,0.2c-0.1,0-0.2-0.1-0.2-0.1l0.2-0.1
						c-0.3,0-0.4,0.1-0.6-0.1c0-0.1,0.1-0.2,0.1-0.1c-0.1-0.2-0.3,0-0.4-0.3l0.2,0c-0.1-0.2-0.2-0.1-0.4-0.1c-0.2,0-0.3-0.4-0.1-0.5
						c-0.1,0.1-0.3,0.1-0.4-0.1c0-0.1,0.1-0.1,0.1-0.1c-0.2-0.4-0.6-0.3-0.6-0.6c0-0.1,0.1-0.1,0.1-0.1c0.2,0.2,0.4,0.4,0.3,0.4
						c0.1-0.1,0-0.3,0.3-0.4c-0.2,0-0.7-0.1-0.8-0.3c0,0,0,0,0-0.1l0,0c0-0.1-0.1-0.1-0.1-0.1c0-0.1,0-0.1-0.1-0.2
						c0.1-0.1-0.1-0.3-0.2-0.4c-0.1,0.2-0.2,0-0.3,0.2c0,0,0,0,0.1,0.1c0,0,0,0,0.1,0l0,0c0.1,0.1,0.1,0.1,0.2,0.2
						c-0.1,0-0.3,0-0.3-0.2c-0.1,0-0.3,0.1-0.4,0.1c0.1-0.3,0-0.7,0.1-0.8c-0.3-0.2-0.7-0.6-1.1-0.5c-0.1,0,0-0.2,0-0.2
						c0.1,0,0.1,0.1,0.2,0.1c-0.2-0.1-0.5-0.4-0.7-0.3c0,0,0-0.1,0-0.1c0,0-0.1,0.1-0.1,0.1c0,0,0,0,0,0c0.1-0.1,0.1-0.1,0.2-0.2
						c0,0,0,0,0,0c0,0-0.1,0.1-0.2,0.2c0,0-0.1,0,0,0c0,0-0.1,0,0,0c0,0,0,0,0.1,0c0.1,0,0.1,0,0.1,0.1c0.1,0,0.1,0.1,0.2,0.1
						c0.1,0,0,0,0,0c0,0,0.1-0.1,0.1-0.2c0-0.1,0.1-0.2,0.1-0.4c0-0.2-0.1-0.5-0.2-0.6l-1.6-1.6l0.6,1.6c0.1,0.2-0.2,0.6-0.7,0.5
						c0.1,0,0.1,0,0.1,0c-0.2,0-0.4,0.1-0.7,0.3c0,0-0.1,0.1-0.2,0.1L13.1,18l0,0l-0.1,0.1l-0.2,0.3c-0.3,0.4-0.5,0.8-1,1
						c-0.2,0.1-0.1,0.3-0.1,0.5l-0.2-0.1l0,0.4c-0.1,0.4-0.8,0.2-0.9,0.8l0.2,0c-0.1,0.1-0.3,0.5-0.4,0.3c0,0,0.1,0.1,0,0.1
						l-0.1-0.1l-0.1,0.5c-0.3,0.2-0.3-0.3-0.6,0c-0.1,0.2-0.1,0.6,0,0.6c0-0.1,0.2-0.1,0.3,0l-0.1,0.2c0.2,0.2,0.4,0.6,0.9,0.4
						l0-0.3l0.2,0L10.7,23c0.2,0,0.2-0.2,0.1-0.3c0.1,0,0.2,0,0.2,0L11,22.3c0.1,0.1,0.1,0.3,0.3,0.2c0-0.2-0.3-0.1-0.3-0.3
						c0.2,0,0.3,0.1,0.3-0.1c0.1,0,0.1,0.1,0.1,0.2c0-0.2,0.2-0.3,0.1-0.5c0.2,0,0.3-0.4,0.5-0.2c0-0.1,0-0.4,0-0.5
						c0.2,0.4,0.3-0.4,0.6,0c-0.2-0.4,0.3-0.6,0.3-0.9c0,0,0,0.1,0,0.1c0.1-0.1,0.2-0.1,0.4-0.1c-0.2-0.2-0.1-0.5-0.1-0.7
						c0.4,0,0.2,0.3,0.4,0.4c-0.2-0.1,0.1-0.4-0.1-0.5c0.2,0,0.2-0.1,0.4,0c-0.3-0.3,0-0.2,0-0.4c0.1,0,0.2,0,0.3,0c0,0,0,0,0.1,0
						c0,0,0,0,0,0l0,0l0,0L14.1,19l0,0l0,0l0,0l0,0l0,0c0,0,0,0,0,0C14,19.1,14.1,19.1,14.3,19.1L14.3,19.1L14.3,19.1L14.3,19.1
						L14.3,19.1L14.3,19.1L14.3,19.1L14.3,19.1L14.3,19.1L14.3,19.1C14.3,19.1,14.3,19.1,14.3,19.1z M16.6,21L16.6,21
						C16.5,21,16.5,20.9,16.6,21C16.5,20.9,16.5,20.9,16.6,21z M16.9,21.4c0-0.1-0.1-0.1-0.1-0.2c0-0.1,0.1-0.1,0.1-0.1
						C16.9,21.1,16.9,21.3,16.9,21.4z M17.2,19.6c0.1,0,0.1,0.1,0,0.1C17.2,19.7,17.2,19.7,17.2,19.6L17.2,19.6
						C17.2,19.6,17.2,19.6,17.2,19.6z"/>
					<path fill="#FFFFFF" d="M16.9,19.7C16.9,19.7,16.9,19.7,16.9,19.7C16.9,19.7,16.9,19.7,16.9,19.7L16.9,19.7L16.9,19.7z"/>
					<path fill="#FFFFFF" d="M14.5,16.7L14.5,16.7C14.5,16.7,14.5,16.7,14.5,16.7C14.5,16.7,14.5,16.7,14.5,16.7z"/>
					<polygon fill="#FFFFFF" points="19.5,20 19.5,20 19.6,20 					"/>
					<path fill="#FFFFFF" d="M12,18.3C12,18.3,12,18.3,12,18.3C12,18.3,12,18.3,12,18.3z"/>
					<path fill="#FFFFFF" d="M11.1,19.1L11,19.2C11,19.2,11.1,19.1,11.1,19.1z"/>
					<path fill="#FFFFFF" d="M10.4,19.7C10.4,19.8,10.4,19.8,10.4,19.7L10.4,19.7L10.4,19.7z"/>
					<path fill="#FFFFFF" d="M10.2,9C10.2,9,10.2,9,10.2,9C10.3,9,10.2,9,10.2,9z"/>
					<path fill="#FFFFFF" d="M11.2,12.6c-0.1,0-0.1,0-0.2,0C11.1,12.6,11.1,12.7,11.2,12.6z"/>
					<polygon fill="#FFFFFF" points="14.1,12.7 14.1,12.7 14.1,12.7 					"/>
					<path fill="#FFFFFF" d="M10.9,12.4c0,0.1,0.1,0.1,0.1,0.2C11,12.5,10.9,12.4,10.9,12.4z"/>
					<path fill="#FFFFFF" d="M8.6,23.4L8.6,23.4C8.7,23.4,8.7,23.4,8.6,23.4L8.6,23.4z"/>
					<path fill="#FFFFFF" d="M8.7,23.4L8.7,23.4C8.7,23.4,8.7,23.4,8.7,23.4z"/>
					<path fill="#FFFFFF" d="M8.8,23.3l-0.1,0.1C8.7,23.4,8.8,23.4,8.8,23.3z"/>
					<path fill="#FFFFFF" d="M8.4,21.8L8.4,21.8C8.4,21.7,8.4,21.7,8.4,21.8z"/>
					<path fill="#FFFFFF" d="M8.7,21.5c-0.1,0.1-0.3,0.1-0.3,0.2l0,0.1C8.4,21.6,8.7,21.6,8.7,21.5z"/>
					<path fill="#FFFFFF" d="M10.5,21l-0.3,0.2c0.1,0,0.2,0,0.1,0.2C10.8,21.2,10.1,21.3,10.5,21z"/>
					<path fill="#FFFFFF" d="M11.2,20.4c-0.1,0.1,0.1,0.1,0.1,0.1C11.4,20.3,11.4,20.3,11.2,20.4z"/>
					<path fill="#FFFFFF" d="M14,14.6l0.2-0.1C14,14.4,14.1,14.5,14,14.6z"/>
					<polygon fill="#FFFFFF" points="12.3,14.2 12.3,14.4 12.5,14.3 					"/>
					<polygon fill="#FFFFFF" points="12.8,12.7 12.9,12.7 12.7,12.6 					"/>
					<path fill="#FFFFFF" d="M14,14.9l0.1-0.2C14,14.7,13.8,14.9,14,14.9z"/>
					<path fill="#FFFFFF" d="M18.2,11.8c0.1,0,0.3,0,0.2-0.2C18.4,11.7,18.2,11.7,18.2,11.8z"/>
					<polygon fill="#FFFFFF" points="17.2,20 17.1,20 17.3,20.1 					"/>
				</g>
			</g>
		</g>
		<g>
			<g>
				<g>
					<path fill="#FFFFFF" d="M14.8,4.4c0-0.1,0-0.3-0.1-0.2l-0.1,0.3L14.8,4.4z"/>
					<path fill="#FFFFFF" d="M13.9,3.8c-0.1,0.2-0.3,0.4-0.2,0.7c0.1-0.3,0.2-0.2,0.3-0.6c0.1,0,0.2,0.1,0.2,0.2
						c0-0.1,0.2,0.1,0.3-0.1c-0.2-0.2-0.4-0.3-0.6,0C13.9,4,13.9,3.9,13.9,3.8z"/>
					<path fill="#FFFFFF" d="M2.7,9.5L2.7,9.5C2.8,9.5,2.7,9.5,2.7,9.5z"/>
					<path fill="#FFFFFF" d="M0.5,17.4C0.5,17.4,0.5,17.4,0.5,17.4C0.5,17.4,0.5,17.5,0.5,17.4z"/>
					<path fill="#FFFFFF" d="M0.4,18.9C0.4,18.9,0.4,18.9,0.4,18.9C0.3,18.9,0.3,18.9,0.4,18.9z"/>
					<path fill="#FFFFFF" d="M2.7,9.5L2.5,9.7C2.6,9.7,2.6,9.6,2.7,9.5z"/>
					<path fill="#FFFFFF" d="M12.3,4.8C12.3,4.7,12.4,4.7,12.3,4.8C12.4,4.7,12.3,4.7,12.3,4.8L12.3,4.8z"/>
					<path fill="#FFFFFF" d="M4.9,6.6L4.9,6.6c0-0.1,0-0.1,0-0.2L4.9,6.6z"/>
					<path fill="#FFFFFF" d="M7.2,4.9c-0.1,0,0.1,0.3,0.1,0.4c0-0.1,0-0.2,0-0.2C7.3,5,7.3,5,7.2,4.9z"/>
					<path fill="#FFFFFF" d="M11.5,3.8L11.5,3.8C11.6,3.7,11.5,3.8,11.5,3.8z"/>
					<path fill="#FFFFFF" d="M3.4,8C3.4,8,3.4,8,3.4,8C3.4,8,3.4,8,3.4,8z"/>
					<path fill="#FFFFFF" d="M12.9,2.1C12.9,2.1,12.9,2.1,12.9,2.1C12.9,2.1,12.9,2.1,12.9,2.1z"/>
					<polygon fill="#FFFFFF" points="9.6,1.3 9.7,1.2 9.6,1.1 					"/>
					<path fill="#FFFFFF" d="M0.8,21.7C0.8,21.7,0.8,21.7,0.8,21.7C0.8,21.6,0.8,21.6,0.8,21.7z"/>
					<path fill="#FFFFFF" d="M22.1,28.7c-0.4-0.1,0.2-0.5-0.2-0.5C21.9,28.2,21.7,28.7,22.1,28.7z"/>
					<path fill="#FFFFFF" d="M12.2,4.7l-0.1,0C12.2,4.8,12.2,4.8,12.2,4.7z"/>
					<path fill="#FFFFFF" d="M21.8,28.1L21.8,28.1L21.8,28.1C21.8,28.1,21.8,28.1,21.8,28.1z"/>
					<path fill="#FFFFFF" d="M4.7,26.6c0,0,0-0.1,0-0.1C4.7,26.5,4.7,26.5,4.7,26.6z"/>
					<path fill="#FFFFFF" d="M2.1,22.8l0,0.1C2.1,22.9,2.1,22.9,2.1,22.8z"/>
					<path fill="#FFFFFF" d="M6.8,27.7c0,0,0,0.1,0.1,0.1c0,0,0,0,0,0C6.9,27.8,6.9,27.8,6.8,27.7z"/>
					<path fill="#FFFFFF" d="M9,28.8C9,28.8,9,28.8,9,28.8L9,28.8L9,28.8z"/>
					<path fill="#FFFFFF" d="M19.2,2.9c0-0.1,0-0.2,0-0.3C19.1,2.8,18.8,2.8,19.2,2.9z"/>
					<path fill="#FFFFFF" d="M12.3,4.6c0,0.1,0,0.1,0,0.1l0.1,0C12.3,4.7,12.3,4.6,12.3,4.6z"/>
					<path fill="#FFFFFF" d="M8.1,25.9l0.3,0.2C8.3,26,8.2,25.9,8.1,25.9z"/>
					<path fill="#FFFFFF" d="M27.5,15L27.5,15C27.5,14.9,27.5,15,27.5,15z"/>
					<path fill="#FFFFFF" d="M9.2,26.5c0,0.1,0,0.2,0.1,0.3c0,0,0,0,0.1,0L9.2,26.5z"/>
					<path fill="#FFFFFF" d="M19.2,2.6L19.2,2.6L19.2,2.6z"/>
					<path fill="#FFFFFF" d="M16.9,2.6c0.3,0.1,0.2-0.3,0.3-0.5c0.4,0,0.1,0.3,0.2,0.5c0.2,0,0.5-0.3,0.7-0.3c0,0.1,0,0.1,0,0.2
						c0.3-0.2,0.7,0.3,1.1,0c0,0,0,0.1,0,0.1c0-0.2,0.1-0.4,0.1-0.5c0.1,0,0.4-0.1,0.3,0.1c-0.1,0-0.1,0-0.2,0.1l0.2,0
						c0,0.4-0.2,0-0.3,0.3c0.2,0,0.4,0,0.5,0c0.2,0,0.3,0,0.4,0.1c-0.1,0.3-0.5-0.2-0.4,0.3c0,0-0.3-0.3-0.3-0.3
						c0,0.6-0.2-0.1-0.2,0.5c0.4,0.3,0.5,0.1,0.9,0.4c0.2-0.1,0.1-0.3,0.3-0.4c0.8,0,0,0.9,0.6,0.8c0.2-0.1,0.5-0.4,0.7,0l-0.3,0.2
						c0.3,0.3,0.5-0.3,0.8,0.2c-0.2,0.1-0.4-0.1-0.3,0c0.1,0.4,0.3,0,0.5,0.1l-0.2,0.3c0.4,0.3,0.9,0.5,1.4,0.8
						c-0.1,0-0.2,0.1-0.2,0.2c0.5,0.4,0.9,1.1,1.1,1.8l0.4,0c0,0.1-0.1,0.2-0.1,0.1c0,0.3,0.2-0.1,0.3-0.1c0.1,0.1,0,0.2-0.2,0.2
						c0.5,0.2,1.1,0.8,1.1,1.4l-0.1,0c0.1,0.4,0.7,0.1,0.6,0.5l-0.1,0c0.1,0.4,0.3,0.8,0.4,1.2c0.1,0.4,0.2,0.8,0.1,1.1
						c0.4,0,0.1,0.8,0.6,0.7c-0.2,0.5-0.3,0.4-0.4,1.1c0,0.2,0.4,0.2,0.5,0.4l-0.3,0.1l0.4,0.2l-0.3,0.2l0.1,0.2
						c0-0.1,0.1-0.2,0.2-0.2c0.2,0.3-0.1,0.8-0.3,0.8l0.3,0.7c-0.1,0-0.2-0.1-0.3-0.2c0.3,0.4-0.3,0.1,0,0.4c0.1,0,0.2,0,0.2,0
						c0,0,0,0-0.1,0.1l0,0l0,0l0,0l0,0l0,0l0,0l0,0l0-0.1l0,0l0,0c0,0.1-0.1,0.2-0.1,0.2c0,0.2,0,0.4,0,0.5l-0.2-0.1
						c-0.1,0.6,0,1.1-0.1,1.7c0.1-0.2,0.5-0.1,0.5,0.1l-0.3,0c0.2,0.2,0.2-0.1,0.3,0.1c-0.1,0.2-0.4,0.1-0.5-0.1l0,0.3
						c-0.1,0-0.1-0.1-0.2-0.1c0.2,0.2-0.4,0.3-0.1,0.6l-0.1,0c-0.2,0.5-0.2,0.8-0.4,1.3c0.2,0.1,0.1,0.3,0.2,0.5
						c-0.3,0.3-0.6,0.5-0.8,0.9c-0.1,0.3,0.1,0.2,0.2,0.4c-0.2-0.1-0.4,0.2-0.5,0c-0.3,0.5-0.4,0.5-0.6,1.2c0.1,0,0.2,0,0.2,0.1
						c0,0.1-0.3,0.1-0.3,0l0,0c-0.1,0.4-0.6,0.6-1,0.7c-0.4,0.1-0.8,0.3-0.9,0.6l0,0c0,0-0.3,0.6-0.3,0.6c-0.3,0.1,0-0.3-0.2-0.3
						c-0.3,0.7-0.9,0.5-1.2,1c-0.3-0.2-0.7-0.1-1,0.1c-0.3,0.2-0.7,0.4-1,0.3l0.1,0.2c-0.1,0.2-0.2,0-0.3,0c0.1,0.1,0.2,0.1,0.1,0.2
						c-1.1,0.6-2.6,0.4-3.8,0.2c-0.2,0-0.3,0.2-0.4,0.4c0,0,0,0.1-0.1,0.1c0.1,0,0,0.1,0,0.1c-0.1,0-0.2,0-0.3-0.1l0.2-0.3
						c-0.3,0.1-0.5,0.1-0.8,0.1c-0.3,0-0.5,0-0.7-0.1c-0.4-0.1-0.9-0.1-1.4-0.1c0.1-0.1,0.1-0.2,0.2-0.1c-0.1-0.3-0.7-0.2-0.7,0
						c-0.1-0.1,0-0.2,0-0.3c-0.1-0.2-0.5,0.1-0.6-0.1c0,0,0.1-0.1,0.1-0.1c-0.2,0.1-0.5-0.2-0.5,0.1c-0.3-0.2-0.7-0.1-0.8-0.4
						c-0.3,0.2-0.5-0.4-0.7,0c0.2-0.4-0.3-0.6-0.6-0.5C8.1,26.1,7.9,26,8,25.9c-0.2-0.1-0.4-0.2-0.5,0c-0.1-0.7-1-0.2-0.8-0.9
						c-0.3-0.1-0.7-0.3-1-0.5c-0.3-0.2-0.6-0.4-0.9-0.6c0.3-0.3,0.5,0.5,0.9,0.2c-0.3-0.2-0.6-0.2-0.8-0.3c-0.2-0.1-0.4-0.3-0.6-0.6
						c-0.1-0.2,0.2,0,0.3,0C4.3,23,4.2,22.7,4,22.5c-0.2-0.3-0.3-0.5-0.6-0.7c0,0,0.1,0,0.2,0c-0.1-0.1-0.1-0.3-0.2-0.2l0.1,0.1
						c-0.2,0.3-0.7-0.1-0.9-0.1c0.6-0.1-0.1-0.6,0.7-0.6c-0.1,0-0.2-0.1-0.3,0c0-0.1,0-0.2,0.2-0.1c-0.3-0.3-0.4-0.1-0.5-0.4
						c0.1,0,0.2,0,0.3,0c-0.2-0.1-0.5-0.2-0.5-0.5c0.1,0,0.1-0.1,0.2,0c-0.2-0.5-0.7-0.7-0.7-1.4c0.4,0.1,0.1-0.2,0.5-0.3L2.2,18
						L2,18.2c0-0.3-0.4-0.5-0.2-0.7c0,0,0.2,0.2,0.2,0.2c0,0-0.1-0.5-0.1-0.5l-0.1,0.3c-0.2-0.3-0.5,0.1-0.4-0.3
						c0,0.1,0-0.3,0.2-0.4l0,0c-0.1-0.1-0.3-0.3-0.2-0.5c0.1,0,0.4,0.1,0.5,0c-0.3-0.2,0-0.7-0.4-0.9c0.1,0.1,0.3,0.1,0.3,0.1
						l-0.2-0.1c0.1-0.1,0.1-0.1,0.3-0.1c0.1-0.4-0.5,0.1-0.2-0.4c0,0,0.1,0,0.1,0.1c0.2-0.4,0-0.9,0.2-1.3c0.4,0,0,0.4,0.3,0.3
						c0.1-0.6-0.1-1.3,0.2-1.9l-0.1,0.1c-0.5-0.3,0.4-0.3,0.3-0.7c0,0.1,0.2,0.2,0.2,0.2c0.3-0.3,0.2-0.8,0.4-1.4l0.1,0.1
						C3.6,10.2,3.8,9.9,4,9.7C3.9,9.5,4,9.4,3.8,9.4C4.4,9.3,4.5,9,4.7,8.6C4.8,8.3,5,7.9,5.5,7.9c-0.1,0.1-0.1,0.2,0,0.2
						c0,0,0.1-0.1,0.2-0.3c0.1-0.1,0.2-0.2,0.2-0.2C5.6,7.4,5.7,7.5,5.4,7.5c0-0.2,0-0.3,0.2-0.4C5.5,7.3,5.8,7.3,6,7.3
						C6,7.3,5.9,7.2,5.9,7.1c0.5,0.1-0.2-0.4,0.3-0.5l0.1,0.1c0.1-0.2,0.1-0.4,0.3-0.4c0.2,0.2-0.1,0.2,0,0.4C6.7,6.6,6.7,6,7,6.1
						c0,0.1-0.2,0.2-0.2,0.3c0.4,0.1,0.4,0,0.5,0l0,0c0,0,0.4-0.1,0.4-0.1l-0.1,0c-0.1-0.7,0.5-0.4,0.6-1C8.1,5.9,8.3,5.6,8.4,5.8
						c0.1,0,0.3,0,0.3,0.1c0.1-0.3,0.4,0,0.5-0.4c0,0.1,0.2-0.1,0.2,0.2c0.2-0.2-0.1-0.1-0.1-0.3c0.2-0.5,1,0,1.4-0.6
						C11,4.6,11,4.3,11.5,4c0.2,0.1,0,0.4,0,0.4c0.3,0.1,0.4,0,0.7-0.1c0,0.1,0,0.1,0.1,0.2c0.2,0,0.1-0.4,0.3-0.3
						c0,0.1-0.1,0.3-0.1,0.4c0.2-0.1,0.4-0.3,0.6-0.4c0.1,0.2-0.1,0.3-0.2,0.4c0.2-0.1,0.6-0.2,0.7-0.5L13.4,4c0.1,0,0.1,0.2,0,0.3
						C13.2,4.6,13,4.3,13,4.2l0.2-0.1c-0.2-0.5-0.7,0.2-1,0.2l0.1-0.4c0,0-0.1,0.1-0.1,0.2C12.1,4.1,12,4.2,12,4.2
						c-0.1-0.1-0.2-0.3,0-0.4c-0.3-0.1-0.2,0.2-0.4,0c0,0,0-0.1,0-0.1L11.3,4c0-0.1-0.1-0.3,0.1-0.2c-0.5-0.1-0.6,0.4-0.8,0.2l0,0
						c-0.5,0.3,0,0.3-0.3,0.8L9.7,4l0,0.3c-0.1,0-0.2,0-0.2-0.1c-0.1,0.3,0.1,0.1,0,0.3c-0.4-0.2-0.7,0.4-1,0c0,0.3,0.3,0,0.1,0.3
						C8.5,4.5,8.5,5.1,8.1,5C8.1,4.8,8.4,4.8,8,4.7c0.1,0.5-0.5,0.2-0.7,0.4c0.2,0.3-0.4,0.4-0.6,0.7C6.7,5.6,6,6,5.6,6.1l0-0.1
						c0.2,0.3-0.2,0.5-0.3,0.8C5.1,6.6,5.1,6.5,5.2,6.4L5,6.5c0,0.1,0,0.2-0.1,0.4L4.7,6.7C4.5,6.9,4.5,7.4,4,7.6
						c0.2,0.2,0.7,0.2,0.6,0.7C4.5,8.2,4.3,8,4.3,7.9c0,0,0,0.2-0.1,0.2l0-0.3C4,7.9,4.2,8,4.1,8.1C4,8,3.9,8.1,3.8,8
						c0,0,0.1-0.1,0.1-0.1C3.8,7.9,3.6,8,3.4,8c0.1,0.1,0.2,0.2,0.1,0.3c-0.2,0.3-0.3-0.1-0.5,0c0.1,0.1-0.2,0.2,0,0.4
						c-0.1,0.1-0.2,0-0.3,0c0,0.2-0.4,0.7-0.1,0.7l0,0c0,0,0,0,0,0l0,0l0,0c-0.1,0.6-0.8,0.9-0.9,1.5l-0.1,0c-0.1,0.4-0.2,0.7-0.1,1
						c0,0.1-0.3,0.2-0.3,0.1c0,0.3,0.1,0.3-0.2,0.7c-0.1-0.3-0.2,0,0-0.3c-0.2,0.3-0.3,0.3-0.2,0.8c-0.2-0.2-0.4,0.2-0.3,0.4
						l0.2-0.2c0,0.2-0.1,0.3-0.1,0.5l-0.3-0.2c-0.3,0.3-0.2,0.7-0.1,1c0.1,0.3,0.2,0.6-0.2,0.8c0.2,0.2,0.2-0.4,0.4-0.2
						C0.5,15.7,0,16,0,16.1c-0.2,0.6,0.5,0.5,0.4,0.9C0.5,17,0.8,16.9,1,17.2c0,0.3-0.5,0.4-0.6,0.2c0-0.1,0-0.1,0.1-0.1
						c0-0.1-0.1-0.2-0.2-0.1l0.1,0c-0.1,0.2-0.1,0.6-0.3,0.5c0.1,0.2,0.2,0.1,0.2-0.1c-0.1,0.4,0.1,0.7,0.1,1.1
						c0.1-0.1,0.2-0.2,0.2-0.1c0,0.7,0.3,0.2,0.4,0.6c-0.1,0.3-0.4,0-0.2,0.4c0,0.3-0.3,0.1-0.4,0.1c0.3,0.3,0.1,0.8,0.1,1l-0.2-0.2
						c0.1,0.1,0.1,0.2,0.2,0.3l0.2-0.2c0,0.1,0,0.2,0,0.3C0.8,21.1,1,20.8,1.3,21c-0.1,0.2,0.3,0.4,0,0.6c-0.1-0.5-0.3,0.2-0.5-0.2
						c0.1,0.1,0.1,0.2,0.1,0.3c0,0-0.1,0-0.1,0c-0.1,0.6,0.4,0.1,0.6,0.5c-0.2,0-0.2,0.3-0.2,0.3c-0.1-0.2,0.2-0.2,0.4-0.1
						c0,0.4,0.2,0.3,0.3,0.4c0,0,0-0.2,0-0.2c0.2,0,0.2,0.1,0.4,0.3c-0.1,0.1-0.2-0.1-0.2,0c0.4,0,0,0.7,0.4,0.8
						c0,0.2-0.3,0.2-0.2,0.4c0.4,0.2,0.1,0.5,0.5,0.7c0.1-0.2,0.1-0.2,0.4-0.1l-0.6-0.4l0.5,0.1c-0.1-0.2-0.4-0.2-0.4-0.4
						c0.3,0,0.2,0.1,0.3-0.1c-0.1,0.4,0.5,0.3,0.5,0.7L3.2,25c0.1,0.6,0.8,0.4,1.2,1l-0.1-0.2c0.2-0.1,0.3,0.3,0.5,0.3
						c-0.1,0.1-0.1,0.3-0.1,0.4c0.1-0.1,0.4,0.3,0.6,0.1l0.1,0.4c0.4,0.4,0.8-0.1,1.2,0.2c-0.2,0.1-0.1,0.3-0.5,0.3
						c0.1,0.1,0.2,0.2,0.3,0.1c0,0.2,0.5,0,0.6,0.3c0.1,0,0.2-0.2,0.4-0.1c0,0,0,0.1,0,0.1c0-0.1,0.3,0,0.3-0.2
						c0.1,0.8,1.2,0.6,1.4,1.2c0.4,0.1,0.8,0.1,1.1,0.2c0,0,0,0.1-0.1,0.1c0.4,0.3,0.4-0.4,0.8-0.1c0.2,0.4-0.3,0.1-0.2,0.3
						c-0.1,0.6,0.6,0.1,0.9,0.5l-0.1,0c0.2,0.3,0.7-0.1,1.1,0c0,0,0,0.1,0,0.1c0.3-0.3,0.9-0.3,1.3-0.4c-0.1,0.2-0.2,0.1-0.1,0.4
						c0.2,0,0-0.4,0.3-0.5c0.1,0.1,0.4,0.3,0.4,0.6l-0.3,0c0.1,0.4,0.4,0,0.6,0.1l0,0.2c0.6,0,0.6-0.4,1.1-0.4l-0.1-0.1
						c0.3-0.4,0.3,0.2,0.6-0.1l0.1,0.4c0.2-0.1,0.7-0.5,1-0.6c-0.2,0.3-0.6,0.5-0.8,0.7c0.2,0,0.7-0.1,0.8-0.3
						c-0.1,0-0.2,0.2-0.3,0.1c0.2-0.3,0.5-0.5,0.9-0.6c0.1,0.7,1.1,0,1.5,0.4c0.3-0.2,0.7-0.3,1-0.4c0.4-0.1,0.8-0.2,1.2-0.4
						c-0.5-0.4,0.2-0.1-0.1-0.6c0.2-0.1,0.2-0.2,0.3-0.1l0.7,0c0.2,0.1-0.1,0.2,0,0.3c0.4-0.2,0.3,0.1,0.6,0.1
						c-0.2-0.2,0-0.3,0.2-0.4c0,0-0.1,0-0.2,0c-0.1,0-0.2,0-0.2,0c0.4-0.6,0.7,0.1,1.1-0.5l-0.1,0.3c0.2-0.3,1-0.7,0.9-1.3
						c0.1,0,0.3,0.1,0.2,0.2c0.3-0.2,0.6-0.6,0.8-1c0.2-0.4,0.4-0.7,0.7-0.8l0.1,0.1c0.1-0.1-0.1-0.4,0.2-0.4c0,0,0.1,0.1,0.1,0.1
						c0-0.1,0-0.5,0.2-0.5l0,0.2c0.6-0.5,0.3-1.2,0.6-1.7c0.4,0.2,0.8-0.2,1-0.5l0.1,0c0.2-0.4,0.3-0.8,0.3-1.2c0-0.4,0-0.8,0-1.2
						c0.6-0.3,0.6-1.7,0.9-2.4c-0.1,0.1-0.3,0-0.4-0.2c0.1-0.2-0.3-0.5,0.1-0.4l0,0.1c0.2-0.1,0.3-0.2,0.3-0.3c0,0,0-0.1,0-0.1
						l0-0.1l0,0l0-0.1c0-0.1,0-0.2,0-0.2l-0.5,0c0.4-0.4,0.3-0.9,0.2-1.4c-0.1-0.5-0.3-0.8,0-1.1c-0.1-0.2-0.2-0.4-0.4-0.5l0.3,0
						c0-0.5,0-0.8-0.3-1.4l0.2,0.1c-0.1-0.4-0.9-0.2-1-0.5l0.4-0.2c-0.2-0.6-0.1-1.3-0.7-1.8c0.1,0,0.2,0,0.2,0
						c-0.1-0.1-0.1-0.4-0.2-0.7c-0.1-0.2-0.3-0.3-0.5-0.2c0.3-0.2-0.3-0.6-0.6-0.8l0.3-0.1c-0.4-0.1-0.5-0.1-0.8-0.3
						c0-0.1,0.1-0.2,0.2,0c0-0.3-0.4-0.1-0.4-0.5l0.2,0c-0.2-0.3-0.2-0.2-0.5-0.2c-0.2-0.1-0.3-0.5-0.1-0.7c-0.2,0.1-0.4,0-0.5-0.1
						c0.1-0.1,0.1-0.1,0.2-0.1C25.6,5.2,25,5.3,25,4.8c0.1-0.1,0.1-0.1,0.1-0.2c0.3,0.3,0.5,0.6,0.4,0.6c0.2-0.2,0-0.5,0.5-0.5
						c-0.3-0.1-0.9-0.2-1.1-0.5c0,0,0-0.1,0-0.1l0,0c0-0.1-0.1-0.1-0.2-0.1c0-0.1-0.1-0.2-0.2-0.3c0.1-0.2-0.2-0.4-0.3-0.5
						c-0.2,0.2-0.3,0-0.3,0.3c0,0,0,0,0.1,0.1c0,0,0,0,0.1,0l0,0c0.1,0.1,0.2,0.2,0.3,0.3c-0.2,0-0.4,0-0.4-0.3
						C23.9,3.9,23.7,4,23.6,4c0.1-0.5-0.1-0.9,0-1.1c-0.5-0.2-1.1-0.7-1.6-0.4c-0.2,0-0.1-0.2-0.1-0.3c0.1,0,0.2,0.1,0.3,0
						c-0.3,0-0.8-0.4-1.1-0.1c-0.2-0.3,0.3-0.2-0.1-0.4L21,1.6c-0.2-0.3-0.4-0.4-0.6-0.4c-0.2,0-0.5,0-0.7,0
						c-0.5,0.1-0.9,0.1-1.4-0.5c0.1,0.1,0.1,0.1,0.1,0.2c-0.6-0.3-1.2-0.4-1.9-0.5c-0.7,0-1.3,0-1.9-0.3c-0.4-0.1-0.4,0.1-0.6,0.3
						L14,0l-0.4,0.4c-0.5,0.3-1-0.7-1.6-0.2l0.1,0.2c-0.2,0-0.7,0.2-0.7,0c0,0,0,0.2-0.1,0.1l0-0.2l-0.5,0.4c-0.5,0,0-0.6-0.7-0.5
						C9.8,0.4,9.5,0.8,9.6,0.9c0.1,0,0.3,0.1,0.3,0.2L9.7,1.2c0,0.5,0,1,0.6,1.2l0.3-0.3l0.2,0.2l-0.3,0.1c0.2,0.2,0.3,0,0.4-0.2
						c0.1,0.1,0.1,0.2,0.2,0.2l0.3-0.5c0.1,0.2-0.1,0.4,0.2,0.4c0.1-0.2-0.2-0.4,0-0.6c0.2,0.2,0.2,0.4,0.4,0.1
						c0.1,0.1,0,0.2-0.1,0.3C11.9,2,12.2,2,12.3,1.8c0.2,0.2,0.6-0.1,0.6,0.3c0-0.1,0.3-0.4,0.4-0.4c-0.2,0.5,0.6,0,0.5,0.6
						C13.9,2,14.1,2,14.3,1.9c0.2,0,0.4,0,0.6-0.1c0,0-0.1,0.1-0.1,0.1c0.2,0.1,0.3,0.2,0.4,0.3c0.1-0.4,0.4-0.4,0.6-0.7
						c0.2,0.4-0.2,0.4-0.2,0.8c0-0.3,0.5-0.3,0.4-0.5c0.2,0.2,0.2,0.1,0.2,0.5c0.1-0.5,0.2,0,0.4-0.3c0.2,0.3,0,0.5,0.3,0.4
						C17.2,2.5,16.9,2.6,16.9,2.6z M23.7,5.5L23.7,5.5c-0.1,0-0.1-0.1-0.1-0.1C23.6,5.4,23.6,5.5,23.7,5.5z M24.1,6
						c0-0.1-0.1-0.1-0.2-0.2c0.1-0.1,0.1-0.1,0.2-0.1C24.1,5.7,24.1,5.9,24.1,6z M24.5,3.6c0.1,0.1,0.1,0.1,0.1,0.2
						C24.5,3.8,24.5,3.7,24.5,3.6l-0.1,0.1C24.4,3.7,24.5,3.6,24.5,3.6z"/>
					<path fill="#FFFFFF" d="M24.1,3.7C24.1,3.7,24.1,3.7,24.1,3.7C24,3.8,24,3.8,24.1,3.7L24.1,3.7L24.1,3.7z"/>
					<path fill="#FFFFFF" d="M2.8,9.5L2.8,9.5C2.8,9.5,2.8,9.5,2.8,9.5C2.8,9.5,2.8,9.5,2.8,9.5z"/>
					<polygon fill="#FFFFFF" points="27.3,14.3 27.4,14.3 27.3,14.2 					"/>
					<path fill="#FFFFFF" d="M6,7.3C6,7.3,6.1,7.3,6,7.3C6.1,7.3,6,7.3,6,7.3z"/>
					<path fill="#FFFFFF" d="M7.3,6.4l0.2,0C7.4,6.4,7.4,6.4,7.3,6.4z"/>
					<path fill="#FFFFFF" d="M8.4,6c0-0.1,0-0.1,0-0.1l0,0L8.4,6z"/>
					<path fill="#FFFFFF" d="M3.6,21.8C3.6,21.8,3.6,21.9,3.6,21.8C3.8,21.9,3.7,21.9,3.6,21.8z"/>
					<path fill="#FFFFFF" d="M1.5,16.7c0.1,0.1,0.1,0.1,0.1,0.2C1.7,16.7,1.7,16.7,1.5,16.7z"/>
					<polygon fill="#FFFFFF" points="8,25.9 8,25.9 8.1,25.9 					"/>
					<path fill="#FFFFFF" d="M1.7,17.1c0.1-0.1,0-0.2,0-0.3C1.7,16.9,1.6,17,1.7,17.1z"/>
					<path fill="#FFFFFF" d="M13.4,4.7L13.4,4.7C13.4,4.6,13.4,4.6,13.4,4.7L13.4,4.7z"/>
					<path fill="#FFFFFF" d="M13.4,4.6L13.4,4.6C13.5,4.6,13.4,4.6,13.4,4.6z"/>
					<path fill="#FFFFFF" d="M13.6,4.5l-0.1,0.1C13.5,4.6,13.6,4.6,13.6,4.5z"/>
					<path fill="#FFFFFF" d="M11.8,4.8l0,0.1C11.8,4.9,11.8,4.8,11.8,4.8z"/>
					<path fill="#FFFFFF" d="M11.3,4.9c0.1,0,0.3,0.1,0.5,0.1l0-0.1C11.8,5,11.4,4.7,11.3,4.9z"/>
					<path fill="#FFFFFF" d="M9,4.4c0,0,0.4-0.1,0.4-0.1C9.3,4.2,9.1,4.1,9.3,4C8.7,3.9,9.5,4.2,9,4.4z"/>
					<path fill="#FFFFFF" d="M7.6,4.8c0.2-0.2-0.1-0.1-0.1-0.2C7.5,4.8,7.4,4.8,7.6,4.8z"/>
					<path fill="#FFFFFF" d="M1.2,12.1L1,12C1,12.2,1.1,12.1,1.2,12.1z"/>
					<polygon fill="#FFFFFF" points="2,14.2 2.2,14.1 2,14 					"/>
					<polygon fill="#FFFFFF" points="0.1,15.1 0,15 0.1,15.3 					"/>
					<path fill="#FFFFFF" d="M8.5,28.9l0.1-0.3C8.5,28.6,8.3,28.9,8.5,28.9z"/>
					<path fill="#FFFFFF" d="M15.7,29.9c0.1,0.2,0.3,0.2,0.4,0.1C15.9,30,15.8,29.8,15.7,29.9z"/>
					<polygon fill="#FFFFFF" points="29.9,15.9 30.1,16 30,15.7 					"/>
				</g>
			</g>
		</g>
	</g>
</g>
</svg>
