<?xml version="1.0" encoding="utf-8"?>
<!-- Generator: Adobe Illustrator 18.1.1, SVG Export Plug-In . SVG Version: 6.00 Build 0)  -->
<svg version="1.1" id="Layer_1" xmlns="http://www.w3.org/2000/svg" xmlns:xlink="http://www.w3.org/1999/xlink" x="0px" y="0px"
	 viewBox="0 0 200 200" enable-background="new 0 0 200 200" xml:space="preserve">
<g>
	<path d="M100,196.2c-53.8,0-96.2-43.8-96.2-96.2S46.2,3.8,100,3.8s96.2,43.8,96.2,96.2S153.8,196.2,100,196.2z M145,122.5
		L122.5,100L145,77.5c1.3-1.2,2.5-3.8,2.5-6.2c0-2.5-1.2-3.8-2.5-6.2l-11.2-11.3c-1.3-1.2-3.8-2.5-6.3-2.5s-3.8,1.2-6.2,2.5
		L100,77.5L77.5,55c-1.2-2.5-3.8-2.5-6.2-2.5S67.5,53.7,65,55L55,66.2c-2.5,1.2-2.5,3.8-2.5,5c0,2.5,1.2,3.8,2.5,6.2L77.5,100
		L55,122.5c-1.2,1.3-2.5,3.8-2.5,6.2c0,2.5,1.2,3.8,2.5,6.2l11.2,11.2c1.2,1.2,3.8,2.5,6.2,2.5c2.5,0,3.8-1.3,6.2-2.5l21.2-23.8
		l22.5,22.5c1.3,1.3,3.8,2.5,6.2,2.5c2.5,0,3.8-1.2,6.2-2.5l11.2-11.2c1.2-1.3,2.5-3.8,2.5-6.3C147.5,126.3,147.5,123.7,145,122.5z"
		/>
</g>
</svg>
