<?xml version="1.0" encoding="utf-8"?>
<!-- Generator: Adobe Illustrator 18.0.0, SVG Export Plug-In . SVG Version: 6.00 Build 0)  -->
<!DOCTYPE svg PUBLIC "-//W3C//DTD SVG 1.1//EN" "http://www.w3.org/Graphics/SVG/1.1/DTD/svg11.dtd">
<svg version="1.1" id="Layer_1" xmlns="http://www.w3.org/2000/svg" xmlns:xlink="http://www.w3.org/1999/xlink" x="0px" y="0px"
	 viewBox="0 0 65.9 31.5" enable-background="new 0 0 65.9 31.5" xml:space="preserve">
<g>
	<g>
		<path fill="none" d="M41.5,0.3c6.9,9.9,12.1,11.2,22.2,15.8c-12.1,6.1-24.5,15.4-24.5,15.4 M0.8,0.3c9.8,14.4,28.1,19.9,60.3,16.2
			"/>
		<g>
			<g>
				<g>
					<path fill="#FFFFFF" d="M61.2,17.2c0-0.1,0-0.3-0.1-0.2l0,0.3L61.2,17.2z"/>
					<path fill="#FFFFFF" d="M60.4,16.6c-0.1,0.2-0.2,0.5-0.1,0.8c0.1-0.3,0.1-0.2,0.2-0.6c0.1,0,0.2,0.1,0.2,0.2
						c0-0.1,0.2,0.1,0.2-0.2c-0.2-0.2-0.3-0.2-0.5,0C60.4,16.8,60.4,16.7,60.4,16.6z"/>
					<path fill="#FFFFFF" d="M51.1,16.9L51.1,16.9C51.2,16.9,51.2,16.9,51.1,16.9z"/>
					<path fill="#FFFFFF" d="M45.4,16.9C45.4,16.9,45.4,16.9,45.4,16.9C45.4,16.9,45.4,16.9,45.4,16.9z"/>
					<path fill="#FFFFFF" d="M44.4,16.6C44.4,16.6,44.4,16.6,44.4,16.6C44.4,16.6,44.4,16.6,44.4,16.6z"/>
					<path fill="#FFFFFF" d="M51.1,16.9L51,16.8C51,16.9,51.1,16.9,51.1,16.9z"/>
					<path fill="#FFFFFF" d="M59.2,17.6C59.3,17.5,59.3,17.5,59.2,17.6C59.3,17.5,59.3,17.5,59.2,17.6L59.2,17.6z"/>
					<path fill="#FFFFFF" d="M53.6,16.5L53.6,16.5c0.1,0,0.1-0.1,0.1-0.1L53.6,16.5z"/>
					<path fill="#FFFFFF" d="M55.6,16.3c0,0,0,0.3,0,0.4c0-0.1,0-0.2,0.1-0.2C55.6,16.4,55.6,16.4,55.6,16.3z"/>
					<path fill="#FFFFFF" d="M58.7,16.5L58.7,16.5C58.7,16.4,58.7,16.4,58.7,16.5z"/>
					<path fill="#FFFFFF" d="M52.2,16.5C52.2,16.5,52.2,16.4,52.2,16.5C52.2,16.4,52.2,16.5,52.2,16.5z"/>
					<path fill="#FFFFFF" d="M1.1,2.9C1.1,2.9,1.1,2.9,1.1,2.9C1.1,2.9,1.1,2.9,1.1,2.9z"/>
					<polygon fill="#FFFFFF" points="0.9,0.3 0.9,0.3 1,0.2 					"/>
					<path fill="#FFFFFF" d="M42.6,16.2L42.6,16.2C42.7,16.2,42.6,16.2,42.6,16.2z"/>
					<path fill="#FFFFFF" d="M26.4,14.9c0.1,0.3-0.4,0.2-0.1,0.6C26.2,15.4,26.6,15.1,26.4,14.9z"/>
					<path fill="#FFFFFF" d="M59.2,17.5C59.2,17.5,59.1,17.5,59.2,17.5C59.2,17.5,59.2,17.5,59.2,17.5z"/>
					<path fill="#FFFFFF" d="M26.2,15.5L26.2,15.5L26.2,15.5C26.2,15.5,26.2,15.5,26.2,15.5z"/>
					<path fill="#FFFFFF" d="M38.5,16.3c0,0,0,0.1,0,0.1C38.5,16.4,38.5,16.4,38.5,16.3z"/>
					<path fill="#FFFFFF" d="M41.6,16.8L41.6,16.8C41.5,16.8,41.5,16.8,41.6,16.8z"/>
					<path fill="#FFFFFF" d="M36.9,16.6c0,0-0.1-0.1-0.1,0C36.8,16.6,36.8,16.6,36.9,16.6C36.8,16.6,36.8,16.5,36.9,16.6z"/>
					<polygon fill="#FFFFFF" points="35.2,16.5 35.3,16.6 35.3,16.5 					"/>
					<path fill="#FFFFFF" d="M4.7,6.8c0-0.1,0.1-0.2,0.1-0.2C4.7,6.7,4.5,6.6,4.7,6.8z"/>
					<path fill="#FFFFFF" d="M59.2,17.4c0,0.1,0,0.1,0,0.1c0,0,0,0,0.1,0C59.2,17.5,59.2,17.4,59.2,17.4z"/>
					<path fill="#FFFFFF" d="M36.7,18.8l-0.3-0.1C36.5,18.8,36.6,18.8,36.7,18.8z"/>
					<path fill="#FFFFFF" d="M15,13.6L15,13.6C14.9,13.7,14.9,13.7,15,13.6z"/>
					<path fill="#FFFFFF" d="M35.6,18.7c0-0.1-0.1-0.2-0.1-0.2c0,0,0,0,0,0.1L35.6,18.7z"/>
					<path fill="#FFFFFF" d="M4.8,6.5L4.8,6.5L4.8,6.5z"/>
					<path fill="#FFFFFF" d="M3.1,5.7c0.2,0.2,0.3-0.2,0.5-0.3c0.3,0.2-0.1,0.3-0.2,0.5C3.7,6,4,5.9,4.1,6c0,0.1,0,0.1-0.1,0.1
						c0.4-0.1,0.5,0.4,0.9,0.3c0,0,0,0.1,0,0.1c0.1-0.2,0.2-0.3,0.3-0.4c0.1,0.1,0.3,0,0.2,0.2c0-0.1-0.1,0-0.2,0l0.2,0
						c-0.2,0.3-0.2,0-0.4,0.2c0.3,0.1,0.7,0.1,0.7,0.3C5.5,7,5.3,6.6,5.2,7L5.1,6.7C4.9,7.2,5,6.5,4.8,7.1C5,7.4,5.2,7.2,5.4,7.6
						c0.2-0.1,0.2-0.2,0.4-0.3c0.6,0.1-0.3,0.9,0.3,0.8c0.2-0.1,0.5-0.4,0.6,0L6.4,8.3C6.6,8.6,6.9,8,7,8.4c-0.1,0.1-0.3-0.1-0.3,0
						c0,0.4,0.3-0.1,0.4,0.1L6.9,8.8C7.3,9,7.8,9,8.2,9.2C8.1,9.3,7.9,9.3,8,9.5c0.5,0.2,0.9,0.7,1.2,1.2l0.3-0.1c0,0,0,0.2-0.1,0.2
						c0.1,0.2,0.1-0.1,0.3-0.2c0.1,0,0,0.2-0.1,0.3c0.4,0,1.1,0.1,1.3,0.6l-0.1,0c0.2,0.3,0.6-0.3,0.7,0l-0.1,0
						c0.2,0.2,0.5,0.4,0.8,0.5c0.3,0.1,0.5,0.3,0.6,0.6c0.3-0.3,0.5,0.5,0.8-0.1c0.2,0.4,0,0.5,0.4,0.9c0.1,0.1,0.3-0.2,0.5-0.2
						l-0.1,0.3l0.3-0.2l0,0.4l0.2,0c0,0-0.1-0.2,0-0.3c0.3,0,0.4,0.5,0.4,0.6l0.6,0c-0.1,0.1-0.2,0.1-0.3,0.2
						c0.4-0.2-0.1,0.3,0.3,0.2c0-0.1,0.1-0.2,0.1-0.2c0.1,0.2,0.4,0.3,0.6,0.4l-0.1,0.2c0.4,0.2,0.9,0.2,1.3,0.4
						c-0.1-0.2,0-0.5,0.2-0.5L18,14.9c0.2-0.2-0.1-0.2,0.2-0.3c0.2,0.1,0,0.4-0.2,0.5l0.2,0c0,0.1-0.1,0.1-0.1,0.2
						c0.2-0.2,0.2,0.5,0.5,0.2l0,0.1c0.5,0.1,0.7,0.1,1.1,0.2c0.1-0.3,0.2-0.2,0.4-0.3c0.2,0.2,0.5,0.5,0.8,0.6
						c0.3-0.1,0.1-0.2,0.3-0.3c-0.1,0.3,0.3,0.3,0.1,0.5c0.4,0.1,0.5,0.1,1.1,0.1c0-0.1-0.1-0.2,0-0.3c0.1,0,0.2,0.2,0.1,0.3l0,0
						c0.7-0.2,1.1,1,1.7,0.6l0,0l0.5-0.2c0.2,0.1-0.2,0.2,0,0.3c0.6-0.3,0.8,0.3,1.3,0.1c0.2,0.8,1.2,0.2,1.5,0.7l0-0.2
						c0.1-0.2,0.1,0.1,0.2,0.2c0-0.1-0.1-0.2,0-0.3c1-0.1,2,0.6,3,0.9c0.4,0.1,0.3-0.9,0.7-0.4l-0.2,0.3c0.8-0.3,1.5,0.2,2.3-0.1
						c-0.1,0.1-0.1,0.2-0.1,0.2c0.1,0.3,0.6,0.1,0.6-0.1c0.1,0,0,0.2,0.1,0.3c0.1,0.2,0.4-0.3,0.5,0c0,0-0.1,0.1-0.1,0.1
						c0.1-0.1,0.5,0.1,0.4-0.2c0.3,0.1,0.5-0.1,0.7,0.1c0.2-0.3,0.5,0.2,0.5-0.3c-0.1,0.5,0.5,0.4,0.6,0.2c-0.1,0.1,0.1,0.2,0.1,0.3
						c0.2,0,0.4-0.1,0.4-0.3c0.3,0.6,0.8-0.4,0.9,0.3c0.6-0.2,1.1-0.3,1.7-0.4c0,0.5-0.6,0-0.6,0.5c0.5-0.1,0.8-0.6,1.3-0.4
						c0.1,0.1-0.1,0.2-0.1,0.3c0.5-0.2,1,0.1,1.4-0.2c0,0-0.1,0.1-0.1,0.1c0.1,0,0.2,0.1,0.2-0.1l-0.1,0.1c-0.1-0.3,0.4-0.6,0.4-0.8
						c-0.2,0.6,0.4,0.2,0.2,0.9c0.1,0,0.1-0.1,0.1-0.3c0.1,0,0.1,0.1,0,0.3c0.3-0.1,0.2-0.3,0.5-0.3c0,0.1-0.1,0.1-0.1,0.3
						c0.1-0.2,0.3-0.4,0.5-0.3c0,0.1,0,0.1-0.1,0.1c0.4,0,0.7-0.5,1.1-0.3c-0.1,0.4,0.2,0.1,0.2,0.5l0.2-0.1l-0.1-0.2
						c0.2,0,0.4-0.3,0.6-0.2l-0.2,0.2l0.4-0.1l-0.2-0.1c0.2-0.2,0-0.5,0.3-0.4c-0.1,0,0.2,0,0.3,0.2l0,0c0.1-0.1,0.2-0.2,0.4-0.2
						c0,0.1,0,0.4,0,0.5c0.1-0.3,0.5-0.1,0.6-0.4c0,0.1,0,0.3,0,0.3l0.1-0.3c0.1,0.1,0.1,0.1,0.1,0.3c0.3,0-0.1-0.5,0.2-0.3
						c0,0,0,0.1-0.1,0.1c0.4,0.1,0.7-0.2,1-0.1c0.1,0.4-0.3,0.1-0.2,0.4c0.5-0.1,0.9-0.5,1.4-0.4l-0.1,0c0-0.5,0.3,0.3,0.6,0
						c-0.1,0-0.1,0.3,0,0.2c0.3,0.1,0.6-0.2,1.1-0.4l-0.1,0.1c0.2,0.1,0.5,0,0.7,0.1c0.1-0.1,0.2-0.1,0.1-0.3
						c0.7,0.7,1.1-0.5,1.7,0.1c-0.1,0-0.1,0.1-0.1,0.1l0.4-0.2c-0.1-0.2-0.1-0.1-0.2-0.3c0-0.1,0.2-0.3,0.3-0.3
						c-0.2,0.2,0,0.4,0.1,0.5c0-0.1,0-0.1,0-0.2c0.3,0.4,0-0.5,0.4-0.2l0,0.1c0.1-0.1,0.2-0.2,0.4-0.2c0.1,0.3-0.1,0.1-0.1,0.4
						c0.2,0,0.3-0.5,0.5-0.3c-0.1,0.1-0.2,0.1-0.3,0.2c0.2,0.3,0.2,0.2,0.4,0.3l0,0l0.3,0.1l-0.1-0.1c0.2-0.7,0.5-0.2,0.7-0.7
						c-0.3,0.5,0,0.3,0,0.6c0.1,0.1,0.2,0.2,0.2,0.2c0.1-0.3,0.3,0.2,0.4-0.2c0,0.1,0.2,0,0.1,0.2c0.2-0.1-0.1-0.2-0.1-0.3
						c0.3-0.4,0.7,0.3,1.1-0.2c0.3-0.2,0.4-0.6,0.7-0.8c0.1,0.1-0.1,0.4-0.1,0.4c0.2,0.1,0.3,0.1,0.5,0c0,0.1,0,0.2,0.1,0.3
						c0.1,0,0.1-0.4,0.3-0.2c0,0.1,0,0.3-0.1,0.4c0.2-0.1,0.3-0.3,0.5-0.4c0.1,0.2-0.1,0.3-0.1,0.4c0.2-0.1,0.5-0.2,0.5-0.5L60,16.9
						c0.1,0,0.1,0.2,0,0.3c-0.1,0.2-0.2-0.1-0.3-0.2l0.1-0.1c-0.2-0.6-0.5,0.1-0.7,0.1l0.1-0.4L59,17c-0.1-0.1-0.1-0.3,0-0.4
						c-0.2-0.2-0.1,0.2-0.3-0.1c0,0,0-0.1,0-0.1l-0.2,0.1c0-0.1-0.1-0.3,0.1-0.2c-0.3-0.2-0.5,0.4-0.6,0.1l0,0
						c-0.4,0.2,0,0.3-0.3,0.7l-0.3-0.7l0,0.3c0,0-0.1,0-0.1-0.1c-0.1,0.2,0,0.1,0,0.3c-0.2-0.3-0.6,0.2-0.7-0.3
						c-0.1,0.2,0.2,0.2,0,0.3c-0.1-0.5-0.3,0.1-0.5-0.1c0-0.3,0.2-0.2,0-0.4c-0.1,0.5-0.4-0.1-0.5,0c0,0.4-0.3,0.2-0.6,0.3
						c0-0.1-0.5-0.2-0.8-0.3l0-0.1c0,0.4-0.3,0.3-0.5,0.4c0-0.2,0-0.3,0.1-0.4l-0.2,0c0,0.1-0.1,0.2-0.2,0.2l0-0.3
						c-0.2,0-0.5,0.4-0.8,0.2c0,0.3,0.3,0.7,0,0.9c0-0.1,0-0.4,0-0.4c0,0-0.1,0.1-0.2,0.1l0.1-0.2c-0.1-0.1-0.1,0.2-0.2,0.2
						c0-0.2-0.1-0.1-0.1-0.3c0,0,0.1,0.1,0.1,0c-0.1,0-0.3-0.1-0.3-0.3c0,0.1,0,0.3-0.1,0.3c-0.2,0-0.1-0.2-0.2-0.3
						c0,0.1-0.2,0-0.2,0.3c-0.1,0-0.1-0.1-0.1-0.2c-0.1,0.1-0.6,0.1-0.4,0.4l0,0l0,0l0,0l0,0c-0.4,0.3-0.8-0.1-1.2,0l0-0.1
						c-0.2,0.1-0.5,0.1-0.7,0.3c-0.1,0-0.2-0.2-0.2-0.3c-0.2,0.1-0.2,0.2-0.5,0c0.2-0.2-0.1-0.2,0.2-0.1c-0.2-0.1-0.3-0.2-0.5,0
						c0.1-0.3-0.2-0.3-0.3-0.2l0.2,0.2c-0.1,0-0.2,0-0.4,0l0-0.3c-0.5-0.4-0.9,0.7-1.2,0c-0.1,0.2,0.3,0.2,0.2,0.4
						c-0.2,0-0.5-0.5-0.5-0.5c-0.3-0.2-0.3,0.5-0.6,0.4c0,0.1,0.1,0.4-0.2,0.6c-0.2,0-0.3-0.5-0.1-0.6c0.1,0,0.1,0,0.1,0.1
						c0.1,0,0.2-0.1,0.1-0.2l0,0.1c-0.1-0.1-0.4-0.1-0.4-0.3c-0.2,0.1-0.1,0.2,0.1,0.3c-0.3-0.2-0.4,0-0.7-0.1c0,0.1,0.1,0.2,0,0.2
						c-0.4-0.1-0.2,0.2-0.5,0.3c-0.2-0.2,0.1-0.4-0.2-0.3c-0.2-0.1,0-0.3,0-0.4c-0.3,0.2-0.5-0.2-0.7-0.2l0.1-0.1
						c-0.1,0.1-0.2,0.1-0.2,0.1l0.1,0.2c-0.1,0-0.2,0-0.2-0.1c-0.1,0.2,0.1,0.4-0.1,0.6c-0.1-0.1-0.3,0.1-0.4-0.2
						c0.3,0.1,0-0.3,0.3-0.4c-0.1,0-0.1,0-0.2,0c0,0,0-0.1,0-0.1c-0.3-0.3-0.2,0.4-0.5,0.3c0-0.2-0.1-0.3-0.1-0.3
						c0.1,0,0.1,0.3-0.1,0.4c-0.2-0.1-0.2,0.1-0.4,0.1l0.1,0.1c0,0.2-0.2,0.2-0.3,0.2c0-0.1,0.1-0.1,0.1-0.2
						c-0.2,0.3-0.4-0.3-0.6-0.1c-0.1-0.1,0-0.3-0.1-0.4c-0.3,0.2-0.3-0.2-0.6-0.1c0.1,0.2,0.1,0.2-0.1,0.4l0.5-0.2l-0.3,0.3
						c0.1,0,0.3-0.1,0.4-0.1c-0.1,0.2-0.1,0.1-0.1,0.3c-0.2-0.4-0.4,0.2-0.6,0l0-0.6c-0.3-0.3-0.6,0.3-1,0.1l0.1,0.1
						c-0.1,0.2-0.3,0-0.4,0.1c0-0.2-0.1-0.3-0.1-0.4c0,0.1-0.3,0-0.4,0.4L38,16.5c-0.3-0.1-0.4,0.5-0.8,0.5c0.1-0.2,0-0.4,0.2-0.5
						c-0.1,0-0.2-0.1-0.2,0.1c-0.1-0.1-0.3,0.2-0.4,0.1c-0.1,0.1-0.1,0.3-0.2,0.3c0,0,0-0.1,0-0.1c0,0.1-0.2,0.1-0.1,0.3
						c-0.3-0.6-1,0-1.2-0.6c-0.2,0.1-0.5,0.1-0.8,0.1c0-0.1,0-0.1,0-0.1c-0.3-0.2-0.2,0.5-0.6,0.3c-0.1-0.3,0.2-0.2,0.1-0.3
						c0-0.7-0.4,0-0.6-0.4l0.1,0c-0.2-0.2-0.5,0.2-0.7,0.1c0,0,0-0.1,0-0.1c-0.2,0.3-0.6,0.4-0.9,0.4c0.1-0.2,0.1-0.1,0.1-0.4
						c-0.1,0,0,0.4-0.3,0.5c-0.1-0.1-0.2-0.3-0.2-0.6l0.2,0c-0.1-0.4-0.3,0-0.4-0.1l0-0.2c-0.4,0-0.4,0.4-0.8,0.3l0,0.1
						c-0.3,0.4-0.1-0.2-0.4,0l0-0.4c-0.2,0.1-0.5,0.3-0.8,0.3c0.2-0.3,0.5-0.4,0.7-0.5c-0.1,0-0.5-0.1-0.6,0.1c0.1,0,0.1-0.1,0.2,0
						c-0.2,0.3-0.5,0.4-0.7,0.3c0.2-0.7-0.7-0.3-0.8-0.9c-0.5,0.2-0.9-0.3-1.5-0.3c0.1,0.6-0.2,0-0.3,0.6c-0.1,0-0.2,0-0.2-0.1
						L25.9,15c-0.1-0.2,0.2-0.1,0.2-0.2c-0.3-0.1-0.1-0.3-0.2-0.5c0,0.2-0.2,0.3-0.3,0.2l0.2,0.3c-0.5,0.2-0.2-0.6-0.7-0.4l0.2-0.2
						c-0.2,0.1-0.7-0.2-1.1,0.2c0-0.1,0-0.3,0.1-0.3c-0.5-0.2-1.2,0.3-1.5-0.1l0.1-0.1c-0.1,0-0.2,0.2-0.3,0c0-0.1,0.1-0.1,0-0.2
						c-0.1,0-0.3,0.2-0.4,0.1l0.1-0.1C21.9,13.5,21.4,14,21,14c0.1-0.4-0.2-0.7-0.3-0.8l0-0.1c-0.5-0.2-1,0.1-1.6,0
						c-0.1-0.6-0.9-0.6-1.3-1c0,0.1-0.1,0.3-0.2,0.3c-0.1-0.1-0.4,0.2-0.3-0.2l0,0c0.1-0.4-0.2-0.4-0.4-0.5l-0.2,0.5
						c-0.2-0.9-1.3-0.3-1.3-1c-0.2,0.1-0.3,0-0.5,0.1l0.1-0.3c-0.3-0.2-0.4-0.3-0.8-0.5l0.2-0.1c-0.2-0.1-0.6,0.6-0.9,0.5l0.1-0.4
						c-0.4-0.2-0.6-0.7-1.1-0.6c0,0,0.1-0.1,0.2-0.1c-0.2-0.1-0.5-0.6-0.7-0.1c0.2-0.3-0.3-0.3-0.6-0.2l0.2-0.2
						c-0.4,0.2-0.4,0.3-0.7,0.2c0-0.1,0.1-0.2,0.1-0.1c-0.1-0.2-0.3,0.1-0.4-0.1l0.2-0.1c-0.2-0.1-0.2,0-0.4,0.1
						c-0.2,0-0.3-0.3-0.2-0.5c-0.1,0.1-0.3,0.2-0.4,0.1c0-0.1,0.1-0.1,0.1-0.1C9.8,8.2,9.3,8.5,9.3,8.2C9.3,8.1,9.4,8,9.4,8
						c0.2,0.2,0.4,0.3,0.4,0.3c0.1-0.2,0-0.4,0.3-0.6c-0.3,0-0.8,0.2-0.9,0c0,0,0-0.1,0-0.1l0,0c0-0.1-0.1-0.1-0.1-0.1
						c0-0.1,0-0.1-0.1-0.2c0.1-0.2-0.1-0.2-0.2-0.3C8.6,7.3,8.5,7.2,8.5,7.4c0,0,0,0,0.1,0c0,0,0,0,0.1,0l0,0c0.1,0,0.1,0.1,0.2,0.2
						C8.7,7.7,8.6,7.7,8.6,7.5C8.4,7.7,8.3,7.8,8.2,7.8c0.1-0.4,0-0.8,0.1-1C7.9,6.8,7.6,6.4,7.1,6.6c-0.1,0,0-0.2,0-0.3
						c0.1,0,0.1,0.1,0.2,0C7.1,6.3,6.9,6,6.6,6.2C6.5,6,6.9,6.1,6.6,5.9l0.1-0.1C6.6,5,5.2,5.8,5.2,4.7c0,0.1,0,0.1,0,0.2
						C4.9,4,3.8,3.7,3.6,2.7C3.5,2.5,3.3,2.6,3.1,2.6l0.2-0.2l-0.4,0c-0.4-0.1,0.2-1-0.4-1L2.3,1.6C2.2,1.4,1.9,1.2,2.1,1.1
						c0,0-0.2,0.1-0.2,0L2.1,1L1.6,0.8C1.5,0.5,2.1,0.5,1.9,0.1C1.7,0,1.2,0,1.2,0.1c0,0.1,0,0.2-0.1,0.3L0.9,0.3
						C0.5,0.5,0,0.7,0,1.2l0.4,0.1L0.3,1.5L0.1,1.3C0,1.5,0.2,1.5,0.4,1.5C0.3,1.5,0.3,1.6,0.3,1.7l0.5,0C0.7,1.8,0.4,1.8,0.4,2
						c0.2,0,0.3-0.3,0.5-0.2C0.8,2,0.7,2,0.9,2C0.8,2.1,0.8,2.2,0.7,2.1c0.2,0,0.3,0.3,0.5,0.2c-0.1,0.3,0.3,0.3,0,0.6
						c0.1,0,0.4,0,0.5,0.1C1.1,3.1,1.9,3.4,1.5,3.7C1.9,3.5,2,4,2.4,4.1c0,0-0.1,0-0.1,0c0.1,0.2,0,0.3,0,0.4
						c0.3-0.2,0.6-0.1,0.8-0.2C3,4.8,2.7,4.6,2.5,4.9C2.7,4.6,3,4.9,3.1,4.7C3.1,5,3.1,4.9,3,5.2c0.4-0.3,0.2,0.1,0.5,0
						c0,0.3-0.3,0.4,0,0.4C3.4,5.7,3.1,5.7,3.1,5.7z M8.2,9.1L8.2,9.1c0,0-0.1,0-0.1-0.1C8.1,9.1,8.2,9.1,8.2,9.1z M8.6,9.5
						c0,0-0.1-0.1-0.2-0.1c0-0.1,0.1-0.2,0.2-0.1C8.5,9.2,8.6,9.3,8.6,9.5z M9,7.3C9,7.3,9,7.3,9,7.4C9,7.4,8.9,7.4,9,7.3L8.8,7.4
						C8.9,7.3,8.9,7.3,9,7.3z"/>
					<path fill="#FFFFFF" d="M8.6,7.5C8.6,7.5,8.6,7.5,8.6,7.5C8.6,7.5,8.6,7.5,8.6,7.5L8.6,7.5L8.6,7.5z"/>
					<path fill="#FFFFFF" d="M51.2,16.9L51.2,16.9C51.2,16.9,51.2,17,51.2,16.9C51.2,17,51.2,17,51.2,16.9z"/>
					<polygon fill="#FFFFFF" points="14.4,13.5 14.4,13.5 14.4,13.5 					"/>
					<path fill="#FFFFFF" d="M54,17.7C54,17.7,54,17.8,54,17.7C54,17.8,54,17.7,54,17.7z"/>
					<path fill="#FFFFFF" d="M55.2,17.7l0.2,0.1C55.3,17.7,55.2,17.7,55.2,17.7z"/>
					<path fill="#FFFFFF" d="M56.1,17.8c0-0.1,0-0.1,0-0.1l0,0L56.1,17.8z"/>
					<path fill="#FFFFFF" d="M41.6,18.7C41.6,18.7,41.6,18.7,41.6,18.7C41.5,18.7,41.5,18.7,41.6,18.7z"/>
					<path fill="#FFFFFF" d="M45.9,18c0,0.1-0.1,0.1-0.1,0.1C45.9,18.1,45.9,18.2,45.9,18z"/>
					<polygon fill="#FFFFFF" points="36.7,18.8 36.7,18.8 36.7,18.8 					"/>
					<path fill="#FFFFFF" d="M45.6,18.1c0.1,0.1,0.1,0,0.2,0C45.7,18.1,45.6,18.1,45.6,18.1z"/>
					<path fill="#FFFFFF" d="M60.1,17.5L60.1,17.5C60.1,17.5,60.1,17.5,60.1,17.5L60.1,17.5z"/>
					<path fill="#FFFFFF" d="M60.1,17.5L60.1,17.5C60.1,17.4,60.1,17.4,60.1,17.5z"/>
					<path fill="#FFFFFF" d="M60.2,17.3L60.2,17.3C60.2,17.4,60.2,17.4,60.2,17.3z"/>
					<path fill="#FFFFFF" d="M58.8,17.5l0,0.1C58.8,17.6,58.8,17.5,58.8,17.5z"/>
					<path fill="#FFFFFF" d="M58.5,17.6c0.1,0,0.2,0.2,0.4,0.1l0-0.1C58.8,17.7,58.5,17.4,58.5,17.6z"/>
					<path fill="#FFFFFF" d="M56.8,16.4l0.3,0.1c-0.1-0.1-0.1-0.2,0-0.3C56.7,15.9,57.2,16.5,56.8,16.4z"/>
					<path fill="#FFFFFF" d="M55.9,16.4c0.2-0.1,0-0.2,0-0.2C55.8,16.3,55.8,16.3,55.9,16.4z"/>
					<path fill="#FFFFFF" d="M49.1,16.8l0-0.3C48.9,16.6,49.1,16.7,49.1,16.8z"/>
					<polygon fill="#FFFFFF" points="47.8,18.2 47.9,18.3 48,18.1 					"/>
					<polygon fill="#FFFFFF" points="47,16.4 47,16.4 46.8,16.5 					"/>
					<path fill="#FFFFFF" d="M35.5,16.3l0,0.3C35.7,16.5,35.7,16.2,35.5,16.3z"/>
					<path fill="#FFFFFF" d="M30.6,16.1c0-0.2-0.2-0.3-0.3-0.1C30.5,16,30.6,16.1,30.6,16.1z"/>
					<polygon fill="#FFFFFF" points="16.6,11.8 16.8,11.7 16.6,11.7 					"/>
				</g>
			</g>
		</g>
		<g>
			<g>
				<g>
					<path fill="#FFFFFF" d="M38.7,31c0,0.1,0.2,0.2,0.2,0.2l-0.2-0.3L38.7,31z"/>
					<path fill="#FFFFFF" d="M39.6,31.2c0-0.2-0.1-0.5-0.3-0.7c0.1,0.3,0,0.2,0.2,0.6c0,0.1-0.2,0-0.2-0.1c0,0.1-0.1,0-0.1,0.2
						c0.2,0.1,0.4,0.1,0.3-0.2C39.5,31,39.5,31.1,39.6,31.2z"/>
					<path fill="#FFFFFF" d="M46.4,27L46.4,27C46.4,27,46.4,27,46.4,27z"/>
					<path fill="#FFFFFF" d="M50.7,24.4C50.6,24.4,50.6,24.4,50.7,24.4C50.7,24.4,50.7,24.4,50.7,24.4z"/>
					<path fill="#FFFFFF" d="M51.6,24.2C51.6,24.2,51.5,24.2,51.6,24.2C51.6,24.2,51.6,24.2,51.6,24.2z"/>
					<path fill="#FFFFFF" d="M46.4,27l0.2,0C46.5,26.9,46.5,26.9,46.4,27z"/>
					<path fill="#FFFFFF" d="M40,29.9c0,0,0,0.1,0,0.1C40,29.9,40,29.9,40,29.9L40,29.9z"/>
					<path fill="#FFFFFF" d="M44.8,28.4L44.8,28.4c0,0.1,0,0.1,0,0.2L44.8,28.4z"/>
					<path fill="#FFFFFF" d="M43.4,29.4c0,0-0.1-0.2-0.2-0.4c0,0.1,0.1,0.2,0,0.2C43.3,29.3,43.4,29.4,43.4,29.4z"/>
					<path fill="#FFFFFF" d="M41,30.6L41,30.6C40.9,30.6,41,30.6,41,30.6z"/>
					<path fill="#FFFFFF" d="M45.8,27.8C45.8,27.8,45.8,27.8,45.8,27.8C45.8,27.8,45.8,27.8,45.8,27.8z"/>
					<path fill="#FFFFFF" d="M41.6,2.7C41.6,2.7,41.6,2.7,41.6,2.7C41.6,2.7,41.6,2.7,41.6,2.7z"/>
					<polygon fill="#FFFFFF" points="41.5,0.3 41.6,0.3 41.7,0.2 					"/>
					<path fill="#FFFFFF" d="M53.1,23.7L53.1,23.7C53,23.7,53.1,23.7,53.1,23.7z"/>
					<path fill="#FFFFFF" d="M64.3,15.1c-0.2,0.2-0.9,0-1,0.2C63.4,15.3,64.3,15.3,64.3,15.1z"/>
					<path fill="#FFFFFF" d="M40,29.9C40.1,29.8,40.1,29.8,40,29.9C40.1,29.8,40,29.8,40,29.9z"/>
					<path fill="#FFFFFF" d="M63.3,15.4L63.3,15.4L63.3,15.4C63.3,15.4,63.3,15.4,63.3,15.4z"/>
					<path fill="#FFFFFF" d="M56,21.7C56,21.7,56,21.6,56,21.7C55.9,21.6,56,21.7,56,21.7z"/>
					<path fill="#FFFFFF" d="M53.5,22.7L53.5,22.7C53.6,22.7,53.6,22.7,53.5,22.7z"/>
					<path fill="#FFFFFF" d="M57,20.7C57,20.7,57.1,20.7,57,20.7C57.1,20.6,57.1,20.6,57,20.7C57.1,20.6,57.1,20.7,57,20.7z"/>
					<polygon fill="#FFFFFF" points="58.3,19.9 58.2,19.9 58.2,19.9 					"/>
					<path fill="#FFFFFF" d="M44.6,6.1c0-0.1,0.1-0.2,0.1-0.2C44.6,6,44.4,5.9,44.6,6.1z"/>
					<path fill="#FFFFFF" d="M40.1,30c0-0.1,0-0.1,0-0.1L40.1,30C40,29.9,40.1,30,40.1,30z"/>
					<path fill="#FFFFFF" d="M55.9,18.7l0.2-0.1C56.1,18.6,56,18.7,55.9,18.7z"/>
					<path fill="#FFFFFF" d="M53.1,12.5L53.1,12.5C53.1,12.5,53.1,12.5,53.1,12.5z"/>
					<path fill="#FFFFFF" d="M56.7,18.3c0.1,0.1,0.2,0.1,0.2,0.1c0,0,0,0,0-0.1L56.7,18.3z"/>
					<path fill="#FFFFFF" d="M44.7,5.9L44.7,5.9L44.7,5.9z"/>
					<path fill="#FFFFFF" d="M43.2,5.2c0.1,0.2,0.3-0.2,0.5-0.3C44,5,43.6,5.2,43.5,5.4c0.2,0.1,0.5-0.1,0.6,0c0,0,0,0.1-0.1,0.1
						c0.3-0.1,0.4,0.4,0.8,0.3c0,0,0,0.1,0,0.1c0.1-0.2,0.2-0.3,0.3-0.4c0.1,0.1,0.3,0,0.1,0.2c0,0-0.1,0-0.2,0l0.1,0
						C45,6,45,5.7,44.8,5.9c0.2,0.1,0.6,0,0.6,0.2c-0.2,0.3-0.3-0.2-0.4,0.2L44.9,6c-0.3,0.5-0.1-0.1-0.4,0.4
						c0.2,0.3,0.4,0.1,0.5,0.4c0.2-0.1,0.2-0.2,0.4-0.3c0.6,0.1-0.4,0.9,0.2,0.8c0.2-0.1,0.5-0.4,0.6-0.1l-0.3,0.2
						c0.2,0.2,0.5-0.3,0.6,0.1c-0.1,0.1-0.3-0.1-0.3,0c-0.1,0.4,0.3-0.1,0.4,0.1l-0.2,0.3c0.3,0.2,0.7,0.3,1,0.4
						c-0.1,0.1-0.2,0.1-0.2,0.2c0.5,0.2,0.7,0.7,1,1.1l0.3-0.1c0,0,0,0.1-0.1,0.2c0.1,0.2,0.1-0.1,0.3-0.2c0.1,0,0,0.2-0.1,0.2
						c0.4,0,1,0.1,1.1,0.5l-0.1,0c0.1,0.2,0.6-0.3,0.6,0l-0.1,0c0.4,0.4,1,0.5,1.2,1.1c0.3-0.3,0.4,0.4,0.7-0.1
						c0.1,0.4,0,0.5,0.3,0.8c0.1,0.1,0.3-0.2,0.5-0.2l-0.1,0.3l0.3-0.2l-0.1,0.4l0.2,0c0,0,0-0.2,0-0.3c0.3,0,0.4,0.4,0.3,0.6l0.6,0
						C53.8,13,53.7,13,53.7,13c0.4-0.2-0.1,0.3,0.2,0.2c0-0.1,0.1-0.2,0.1-0.2c0,0.2,0.3,0.3,0.5,0.4l-0.1,0.2
						c0.3,0.2,0.7,0.3,1.1,0.4c-0.1-0.2,0.1-0.5,0.2-0.5l-0.1,0.3c0.2-0.1-0.1-0.2,0.2-0.3c0.1,0.1-0.1,0.4-0.2,0.4l0.2,0
						c0,0.1-0.1,0.1-0.2,0.2c0.2-0.2,0.2,0.4,0.4,0.2l0,0.1c0.4,0.2,0.6,0.1,0.9,0.3c0.1-0.3,0.2-0.1,0.4-0.3
						c0.2,0.2,0.3,0.5,0.6,0.6c0.2,0,0.2-0.2,0.3-0.3c-0.1,0.2,0.2,0.3,0,0.4c0.3,0.1,0.4,0.1,0.9,0.1c0-0.1,0-0.2,0-0.2
						c0.1,0,0.1,0.2,0.1,0.3l0,0c0.3-0.1,0.5,0.2,0.7,0.5c0,0.1,0.1,0.1,0.1,0.2c0,0,0,0.1,0,0.1c0,0,0,0,0.2-0.1l0,0
						c0,0,0.3-0.2,0.4-0.1c0,0.1-0.2,0.1-0.3,0.2c0.3-0.1,0.3-0.1,0.3,0c0,0,0,0.1,0.2,0c-0.5,0.2-0.5,0.2-0.4,0.2
						c0.1,0,0.4,0-0.2,0.1l0.4,0c0.4,0-0.2,0-0.3,0c0.3,0,0.3,0,0.6,0c0.1,0.1-0.2,0.1-0.4,0.1c-0.3,0-0.5-0.1-0.5-0.1
						c0,0,0.6,0.7,0.2,0.5c0,0,0-0.1,0-0.2c0-0.1-0.1-0.1-0.1-0.1c-0.3,0.6-1.1,0.6-1.5,1.2c0-0.1-0.1-0.2,0-0.2
						c-0.2-0.1-0.4,0.2-0.3,0.4c-0.1,0-0.1-0.1-0.2-0.2c-0.2-0.1-0.1,0.4-0.3,0.3c0,0,0-0.1,0-0.1c0,0.1-0.4,0.2-0.2,0.4
						c-0.3,0-0.3,0.3-0.6,0.3c0,0.3-0.4,0.1-0.2,0.5c-0.2-0.4-0.5-0.1-0.6,0.1c0-0.1-0.2-0.1-0.2-0.2c-0.1,0.1-0.2,0.2-0.1,0.4
						c-0.5-0.3-0.3,0.7-0.8,0.2c-0.3,0.5-0.6,0.8-1,1.2c-0.2-0.4,0.4-0.3,0.1-0.7c-0.3,0.4-0.3,0.8-0.7,1c-0.1,0,0-0.2-0.1-0.3
						c-0.3,0.4-0.7,0.4-0.9,0.8c0,0,0-0.1,0-0.1c-0.1,0.1-0.2,0-0.1,0.2l0-0.1c0.3,0.2,0.1,0.7,0.1,0.8c-0.2-0.6-0.4,0.1-0.6-0.7
						c0,0.1,0,0.2,0.1,0.3c-0.1,0-0.1-0.1-0.2-0.2c-0.2,0.2,0,0.4-0.2,0.5c-0.1-0.1,0-0.1-0.1-0.3c0,0.2,0,0.5-0.2,0.5
						c0-0.1-0.1-0.1,0-0.1c-0.3,0.2-0.2,0.8-0.7,0.8c-0.1-0.4-0.2,0-0.4-0.4l-0.1,0.2l0.2,0.1c-0.2,0.1-0.1,0.4-0.3,0.4l0-0.2
						l-0.2,0.2l0.2,0c-0.1,0.3,0.3,0.4,0,0.4c0-0.1-0.2,0.1-0.4,0l0,0c0,0.1,0,0.3-0.2,0.3c-0.1-0.1-0.2-0.4-0.3-0.4
						c0.1,0.3-0.3,0.3-0.2,0.6c0-0.1-0.1-0.3-0.1-0.3l0.1,0.3c-0.1,0-0.1,0-0.2-0.2c-0.2,0.1,0.3,0.4,0,0.3c0,0,0-0.1,0-0.1
						c-0.3,0.1-0.4,0.5-0.7,0.5c-0.3-0.3,0.2-0.2-0.1-0.4c-0.3,0.3-0.4,0.8-0.8,1l0.1,0c0.2,0.5-0.4-0.1-0.4,0.3
						c0-0.1-0.1-0.3-0.1-0.2c-0.3,0.1-0.4,0.4-0.6,0.8l0-0.1c-0.2,0-0.4,0.2-0.6,0.2c0,0.1-0.1,0.2,0.1,0.3
						c-0.9-0.3-0.6,0.9-1.3,0.6c0,0,0-0.2,0-0.1L44,27.3c0.2,0.2,0.1,0.1,0.3,0.2c0,0.1,0,0.3-0.1,0.3c0.1-0.2-0.2-0.3-0.3-0.4
						c0.1,0.1,0.1,0.1,0.1,0.2c-0.4-0.2,0.2,0.4-0.2,0.3l-0.1-0.1c-0.1,0.1,0,0.3-0.2,0.3c-0.2-0.2,0-0.2-0.1-0.4
						c-0.1,0.1,0,0.6-0.2,0.5c0-0.1,0.1-0.2,0.1-0.3C43.1,27.9,43.1,28,43,28l0,0l-0.3,0l0.1,0c0.2,0.7-0.3,0.3-0.2,0.9
						c0-0.5-0.1-0.2-0.3-0.5c-0.1,0-0.2,0-0.3-0.1c0,0.3-0.3,0-0.2,0.4c-0.1-0.1-0.1,0.1-0.2-0.1c-0.1,0.2,0.1,0.1,0.2,0.2
						c0,0.4-0.7,0-0.8,0.6c-0.1,0.3,0,0.6-0.1,0.9c-0.2-0.1-0.1-0.3-0.1-0.3c-0.2,0-0.3,0.1-0.4,0.2c0-0.1-0.1-0.1-0.2-0.2
						c-0.1,0.1,0.1,0.3-0.1,0.3c0-0.1-0.1-0.3-0.1-0.4c-0.1,0.2-0.1,0.4-0.1,0.5c-0.1-0.1-0.1-0.3-0.1-0.4c-0.1,0.2-0.3,0.4-0.1,0.6
						l0.1,0c0,0-0.2-0.2-0.2-0.2c0-0.3,0.2,0,0.3,0l0,0.1c0.4,0.4,0.3-0.3,0.5-0.4l0.2,0.4l0-0.4c0.1,0.1,0.3,0.2,0.2,0.3
						c0.2,0.1,0-0.2,0.3-0.1c0,0,0,0,0,0.1l0-0.2c0,0.1,0.2,0.2,0.1,0.2c0.4,0,0.2-0.5,0.4-0.3l0,0c0.2-0.3-0.1-0.3-0.1-0.7l0.6,0.5
						l-0.1-0.3c0,0,0.1,0,0.2,0.1c0-0.3-0.1-0.1-0.1-0.3c0.3,0.1,0.3-0.4,0.6,0c-0.1-0.2-0.2,0-0.2-0.3c0.3,0.4,0.1-0.2,0.4-0.1
						c0.1,0.2-0.1,0.2,0.2,0.3c-0.2-0.4,0.3-0.1,0.4-0.3c-0.2-0.3,0.2-0.3,0.3-0.5c0.1,0.1,0.5-0.1,0.7-0.1l0,0.1
						c-0.2-0.3,0.1-0.4,0.1-0.6c0.1,0.2,0.1,0.3,0.1,0.4l0.1-0.1c0-0.1,0-0.2,0-0.3l0.1,0.2c0.2-0.1,0.2-0.5,0.5-0.5
						c-0.1-0.2-0.6-0.5-0.4-0.8c0.1,0.1,0.2,0.3,0.2,0.4c0,0,0-0.1,0.1-0.1l0,0.3c0.2,0-0.1-0.2,0-0.2c0.1,0.2,0.1,0.1,0.2,0.2
						c0,0-0.1,0-0.1,0.1c0.1,0,0.3,0,0.4,0.1c-0.1-0.1-0.1-0.2-0.1-0.3c0.2-0.1,0.2,0.2,0.3,0.2c0-0.1,0.2-0.1,0-0.3
						c0.1,0,0.1,0.1,0.2,0.1c0-0.2,0.4-0.3,0.1-0.5l0,0c0,0,0,0,0,0l0,0l0,0c0.1-0.4,0.7-0.3,0.9-0.6l0.1,0.1
						c0.1-0.2,0.3-0.3,0.4-0.6c0.1,0,0.2,0.1,0.3,0.2c0.1-0.1,0-0.3,0.3-0.2c0,0.2,0.1,0.1-0.1,0.2c0.2,0,0.3,0.1,0.4-0.3
						c0.1,0.3,0.3,0.2,0.3,0.1l-0.2-0.1c0.1-0.1,0.2-0.1,0.3-0.2l0.1,0.3c0.6,0.1,0.3-1,0.9-0.6c0-0.3-0.3,0-0.3-0.3
						c0.2-0.1,0.6,0.2,0.7,0.2c0.3,0-0.1-0.5,0.2-0.6c-0.1-0.1-0.3-0.3-0.2-0.5c0.2-0.1,0.5,0.3,0.4,0.4c0,0-0.1,0-0.1,0
						c0,0.1-0.1,0.2,0.1,0.2l0-0.1c0.1,0,0.4-0.1,0.4,0.1c0.1-0.2-0.1-0.2-0.2-0.2c0.3,0,0.3-0.2,0.6-0.2c-0.1,0-0.2-0.1-0.1-0.2
						c0.4-0.1,0-0.3,0.2-0.5c0.2,0.1,0.2,0.4,0.3,0.1c0.2,0,0.2,0.2,0.2,0.4c0.1-0.3,0.4-0.1,0.6-0.1l-0.1,0.1
						c0-0.1,0.1-0.1,0.1-0.1l-0.2-0.2c0.1,0,0.1,0,0.2,0c0-0.2-0.3-0.3-0.2-0.6c0.1,0.1,0.2-0.3,0.4,0c-0.3,0.1,0.2,0.3,0,0.4
						c0-0.1,0.1-0.1,0.2-0.1c0,0,0,0.1,0,0.1c0.4,0.1-0.1-0.4,0.2-0.5c0.1,0.2,0.2,0.2,0.3,0.2c-0.1,0.1-0.2-0.2-0.2-0.4
						c0.2,0,0.1-0.2,0.2-0.2l-0.1,0c-0.1-0.2,0-0.2,0.1-0.3c0.1,0.1-0.1,0.1,0,0.2c0-0.3,0.5,0.1,0.5-0.2c0.1,0.1,0.2,0.3,0.3,0.3
						c0.1-0.3,0.3,0.1,0.4-0.2c-0.2-0.2-0.2-0.1-0.1-0.4l-0.3,0.4l0-0.4c-0.1,0.1-0.1,0.3-0.2,0.3c0-0.2,0-0.2-0.1-0.3
						c0.3,0.2,0.2-0.3,0.5-0.2l0.3,0.5c0.4,0.1,0.3-0.5,0.7-0.6l-0.2,0c-0.1-0.2,0.2-0.1,0.2-0.3c0.1,0.2,0.2,0.2,0.3,0.3
						c-0.1-0.1,0.2-0.1,0.1-0.5l0.3,0.1c0.3-0.1,0-0.7,0.3-0.7c0,0.2,0.2,0.3,0.1,0.5c0.1,0,0.2-0.1,0.1-0.2
						c0.1,0.1,0.1-0.4,0.3-0.2c0-0.1-0.1-0.3,0-0.3c0,0,0,0.1,0,0.1c0-0.1,0.1-0.2-0.1-0.3c0.6,0.4,0.7-0.5,1.2-0.1
						c0.2-0.2,0.3-0.3,0.5-0.5c0,0.1,0,0.1,0,0.1c0.3,0-0.1-0.6,0.2-0.5c0.3,0.2-0.1,0.2,0.1,0.3c0.4,0.5,0.3-0.3,0.6,0l0,0.1
						c0.2,0.1,0.2-0.4,0.5-0.5c0,0,0,0.1,0,0.1c0-0.4,0.2-0.6,0.4-0.8c0.1,0.3,0,0.2,0.1,0.4c0.1-0.1-0.2-0.3-0.1-0.5
						c0.1,0.1,0.3,0.1,0.5,0.4l-0.2,0.1c0.1,0.1,0.2,0.1,0.2,0c0-0.1,0.1-0.2,0.2-0.2l0.1,0.1c0.4-0.3,0.1-0.6,0.6-0.8l-0.1-0.1
						c-0.2-0.3,0.4,0,0.3-0.2l0.5,0.2c0.1-0.1,0.1-0.5,0.2-0.6c0.3,0.2,0.2,0.4,0.2,0.6c0.2-0.1,0.5-0.3,0.3-0.4c0,0,0,0.1-0.1,0.1
						c-0.2-0.2-0.3-0.4,0-0.5c0.6,0.1,0.9,0,1.2-0.1c0.3-0.1,0.6-0.3,1.3-0.3c0-0.1,0.1-0.2,0.2-0.2c-0.1-0.1-0.3-0.1-0.4-0.2
						c-0.2-0.2-0.4-0.3-0.8-0.5c-0.8,0.3-0.2-0.1-1.2,0.1c-0.2,0-0.2-0.1-0.2-0.1c0,0,0.1-0.4,0.1-0.4c0.1-0.1,0.3,0,0.5-0.1
						c-0.3-0.2,0.2-0.2,0.1-0.4c-0.2,0.1-0.5,0.1-0.7-0.1c0,0,0,0.3,0,0.3c-0.9,0,0.1-0.5-0.9-0.6l0.4,0c-0.4-0.1-1.2-0.5-1.7-0.2
						c0-0.1,0-0.3,0.1-0.2l-0.1-0.1c0,0-0.1,0-0.1,0c-0.1,0-0.1,0-0.2,0c-0.1,0-0.3,0-0.4,0c-0.3,0-0.5,0-0.6-0.2l0.1-0.1
						c-0.1,0-0.2,0.2-0.3,0c0-0.1,0.1-0.1,0.1-0.1c-0.1,0-0.3,0.2-0.4,0l0.2-0.1c-0.3-0.4-0.8,0.1-1.1,0.1c0.2-0.4-0.1-0.7-0.2-0.8
						l0-0.1c-0.4-0.3-0.9,0-1.4,0c-0.1-0.6-0.8-0.6-1.1-1c0,0.1-0.2,0.3-0.3,0.3c-0.1-0.1-0.4,0.1-0.2-0.2l0,0
						c0.1-0.4-0.1-0.4-0.3-0.5l-0.3,0.5c-0.1-0.9-1.2-0.3-1.1-1c-0.2,0.1-0.3,0-0.4,0.1l0.1-0.2c-0.2-0.2-0.3-0.3-0.7-0.4L53,9.4
						c-0.2-0.1-0.6,0.6-0.8,0.5l0.2-0.4c-0.3-0.2-0.4-0.7-0.9-0.6c0,0,0.1-0.1,0.2-0.1c-0.1-0.1-0.4-0.6-0.7-0.1
						c0.2-0.3-0.3-0.2-0.5-0.2l0.2-0.2c-0.3,0.2-0.4,0.3-0.6,0.2c0-0.1,0.1-0.2,0.1-0.1c-0.1-0.2-0.3,0.1-0.4-0.1l0.2-0.1
						c-0.1-0.1-0.2,0-0.4,0.1c-0.2,0-0.2-0.3-0.1-0.5C49.3,7.9,49,8,49,7.9c0-0.1,0.1-0.1,0.1-0.1c-0.1-0.3-0.6,0-0.6-0.4
						c0.1-0.1,0.1-0.1,0.1-0.2C48.9,7.4,49,7.5,49,7.5c0.2-0.2,0-0.4,0.4-0.5c-0.2,0.1-0.7,0.2-0.8,0c0,0,0,0,0-0.1l0,0
						c0,0-0.1-0.1-0.1,0c0-0.1,0-0.1-0.1-0.2c0.1-0.2-0.1-0.2-0.2-0.3c-0.2,0.2-0.2,0.1-0.3,0.3c0,0,0,0,0.1,0c0,0,0,0,0.1,0l0,0
						c0.1,0,0.1,0.1,0.2,0.1C48.2,6.9,48,7,48,6.8C47.9,6.9,47.7,7,47.6,7c0.2-0.4,0.1-0.7,0.2-0.9c-0.3-0.1-0.6-0.4-1.1-0.2
						c-0.1,0,0-0.2,0.1-0.3c0.1,0,0.1,0,0.2,0c-0.2,0-0.4-0.3-0.7-0.1c0-0.3,0.3-0.1,0.1-0.3l0.1,0c0-0.8-1.4,0-1.2-1.1
						c0,0.1,0,0.1,0,0.1C45,3.5,44,3.3,44,2.4c0-0.2-0.2-0.1-0.5-0.1l0.2-0.2l-0.4,0c-0.4-0.1,0.3-0.9-0.4-0.9l-0.1,0.2
						c-0.1-0.1-0.4-0.3-0.2-0.4c0,0-0.2,0.1-0.1,0l0.1-0.1l-0.4-0.1c-0.1-0.3,0.5-0.3,0.3-0.7c-0.1-0.1-0.6-0.1-0.7,0
						c0,0.1,0,0.2-0.1,0.3l-0.1-0.1c-0.4,0.2-0.8,0.4-0.9,0.9l0.4,0l-0.1,0.2l-0.1-0.2c-0.1,0.2,0.1,0.2,0.2,0.2
						c-0.1,0.1-0.1,0.2-0.1,0.2l0.5-0.1C41.2,1.7,41,1.7,41,1.9c0.2,0,0.3-0.3,0.5-0.3c-0.1,0.2-0.3,0.3,0,0.3C41.4,2,41.3,2,41.2,2
						c0.2,0,0.2,0.2,0.5,0.1c-0.1,0.3,0.3,0.3-0.1,0.5c0.1,0,0.4,0,0.5,0c-0.5,0.2,0.2,0.3-0.3,0.6c0.5-0.2,0.5,0.3,0.9,0.3
						c0,0-0.1,0-0.1,0c0.1,0.1,0,0.3,0,0.4c0.3-0.2,0.5-0.1,0.8-0.2c-0.2,0.4-0.4,0.2-0.7,0.5c0.2-0.2,0.4,0,0.6-0.2
						c-0.1,0.3,0,0.2-0.2,0.4c0.4-0.3,0.1,0,0.5-0.1c-0.1,0.3-0.3,0.3-0.1,0.4C43.4,5.2,43.2,5.2,43.2,5.2z M47.5,8.3L47.5,8.3
						C47.5,8.3,47.4,8.3,47.5,8.3C47.4,8.3,47.4,8.3,47.5,8.3z M47.8,8.6c0,0-0.1-0.1-0.1-0.1c0.1-0.1,0.1-0.2,0.2-0.1
						C47.8,8.4,47.8,8.5,47.8,8.6z M48.4,6.5c0.1,0,0.1,0.1,0,0.1C48.4,6.6,48.4,6.6,48.4,6.5l-0.1,0.1C48.3,6.6,48.4,6.5,48.4,6.5z
						"/>
					<path fill="#FFFFFF" d="M48.1,6.7C48.1,6.7,48.1,6.7,48.1,6.7C48,6.7,48,6.8,48.1,6.7L48.1,6.7L48.1,6.7z"/>
					<path fill="#FFFFFF" d="M46.3,26.9L46.3,26.9C46.3,26.9,46.3,26.9,46.3,26.9C46.3,26.9,46.3,26.9,46.3,26.9z"/>
					<polygon fill="#FFFFFF" points="52.6,12.4 52.6,12.4 52.6,12.4 					"/>
					<path fill="#FFFFFF" d="M43.9,27.5C43.8,27.5,43.8,27.5,43.9,27.5C43.8,27.5,43.8,27.5,43.9,27.5z"/>
					<path fill="#FFFFFF" d="M43,28l-0.2,0C42.9,28,42.9,28,43,28z"/>
					<path fill="#FFFFFF" d="M42.3,28.4c0,0,0,0.1,0.1,0.1l0,0L42.3,28.4z"/>
					<path fill="#FFFFFF" d="M52.5,21.2C52.5,21.2,52.5,21.2,52.5,21.2C52.6,21.1,52.5,21.1,52.5,21.2z"/>
					<path fill="#FFFFFF" d="M49.7,23.7c0-0.1,0-0.1,0-0.2C49.7,23.6,49.6,23.6,49.7,23.7z"/>
					<polygon fill="#FFFFFF" points="55.9,18.7 55.9,18.7 55.9,18.7 					"/>
					<path fill="#FFFFFF" d="M49.9,23.4c-0.1,0-0.1,0-0.1,0.1C49.8,23.5,49.9,23.5,49.9,23.4z"/>
					<path fill="#FFFFFF" d="M39.4,30.2L39.4,30.2C39.4,30.3,39.4,30.3,39.4,30.2L39.4,30.2z"/>
					<path fill="#FFFFFF" d="M39.4,30.3L39.4,30.3C39.4,30.3,39.4,30.3,39.4,30.3z"/>
					<path fill="#FFFFFF" d="M39.3,30.5l0-0.1C39.3,30.4,39.3,30.4,39.3,30.5z"/>
					<path fill="#FFFFFF" d="M40.3,29.7L40.3,29.7C40.3,29.7,40.3,29.7,40.3,29.7z"/>
					<path fill="#FFFFFF" d="M40.6,29.5c-0.1,0-0.3-0.1-0.3,0l0,0.1C40.2,29.5,40.6,29.7,40.6,29.5z"/>
					<path fill="#FFFFFF" d="M42.4,29.8l-0.3,0.1c0.1,0.1,0.2,0.1,0.2,0.2C42.7,30.2,42.1,29.9,42.4,29.8z"/>
					<path fill="#FFFFFF" d="M43.1,29.4c-0.1,0.1,0.1,0.1,0.1,0.2C43.3,29.5,43.3,29.5,43.1,29.4z"/>
					<path fill="#FFFFFF" d="M48,26.1l0.1,0.2C48.2,26.2,48.1,26.2,48,26.1z"/>
					<polygon fill="#FFFFFF" points="48.2,24.4 48,24.3 48.1,24.5 					"/>
					<polygon fill="#FFFFFF" points="49.8,25.5 49.8,25.6 49.9,25.4 					"/>
					<path fill="#FFFFFF" d="M58.2,20.3L58,20C57.9,20.1,58.1,20.4,58.2,20.3z"/>
					<path fill="#FFFFFF" d="M62,17.8c0.2,0.1,0.5,0,0.4-0.1C62.3,17.7,62.1,17.7,62,17.8z"/>
					<polygon fill="#FFFFFF" points="54.8,10.7 54.9,10.7 54.7,10.7 					"/>
				</g>
			</g>
		</g>
	</g>
</g>
</svg>
