<?xml version="1.0" encoding="utf-8"?>
<!-- Generator: Adobe Illustrator 18.0.0, SVG Export Plug-In . SVG Version: 6.00 Build 0)  -->
<!DOCTYPE svg PUBLIC "-//W3C//DTD SVG 1.1//EN" "http://www.w3.org/Graphics/SVG/1.1/DTD/svg11.dtd">
<svg version="1.1" id="Layer_1" xmlns="http://www.w3.org/2000/svg" xmlns:xlink="http://www.w3.org/1999/xlink" x="0px" y="0px"
	 viewBox="0 0 64.7 31.8" enable-background="new 0 0 64.7 31.8" xml:space="preserve">
<g>
	<g>
		<path fill="none" d="M38.9,0.6c0,0,12.4,9.3,24.5,15.4c-10.1,4.6-15.2,5.9-22.2,15.8 M60.8,15.6c-32.1-3.6-50.5,1.8-60.3,16.2"/>
		<g>
			<g>
				<g>
					<path fill="#FFFFFF" d="M0,31.4c0.1,0.1,0.2,0.2,0.2,0.1L0,31.3L0,31.4z"/>
					<path fill="#FFFFFF" d="M0.9,31.3c-0.1-0.2-0.2-0.5-0.5-0.6c0.2,0.3,0.1,0.2,0.3,0.5c0,0.1-0.2,0.1-0.3,0c0,0.1-0.1,0.1,0,0.2
						c0.3,0,0.4-0.1,0.3-0.3C0.8,31.1,0.8,31.2,0.9,31.3z"/>
					<path fill="#FFFFFF" d="M7.5,24.8L7.5,24.8C7.5,24.8,7.5,24.8,7.5,24.8z"/>
					<path fill="#FFFFFF" d="M12.3,21.7C12.3,21.8,12.3,21.8,12.3,21.7C12.3,21.8,12.3,21.7,12.3,21.7z"/>
					<path fill="#FFFFFF" d="M13.3,21.6C13.3,21.6,13.3,21.6,13.3,21.6C13.3,21.6,13.3,21.6,13.3,21.6z"/>
					<path fill="#FFFFFF" d="M7.5,24.8l0.2,0C7.6,24.7,7.6,24.8,7.5,24.8z"/>
					<path fill="#FFFFFF" d="M1,29.7c0,0,0,0.1,0,0.1C1,29.8,1.1,29.8,1,29.7L1,29.7z"/>
					<path fill="#FFFFFF" d="M5.8,26.7L5.8,26.7c0,0.1,0,0.1,0,0.2L5.8,26.7z"/>
					<path fill="#FFFFFF" d="M4.5,28.1c0,0-0.2-0.2-0.2-0.3c0.1,0.1,0.1,0.2,0.1,0.2C4.4,28,4.5,28,4.5,28.1z"/>
					<path fill="#FFFFFF" d="M2.2,30.1L2.2,30.1C2.2,30.1,2.2,30.1,2.2,30.1z"/>
					<path fill="#FFFFFF" d="M6.9,25.8C6.9,25.8,6.9,25.9,6.9,25.8C6.9,25.8,6.9,25.8,6.9,25.8z"/>
					<path fill="#FFFFFF" d="M58.7,14.1C58.7,14.1,58.7,14.1,58.7,14.1C58.7,14.1,58.7,14.1,58.7,14.1z"/>
					<polygon fill="#FFFFFF" points="60.8,15.7 60.8,15.7 60.8,15.8 					"/>
					<path fill="#FFFFFF" d="M15,21.1L15,21.1C15,21.2,15,21.1,15,21.1z"/>
					<path fill="#FFFFFF" d="M30.4,16.5c-0.2-0.2,0.3-0.4-0.1-0.6C30.4,16,30.2,16.3,30.4,16.5z"/>
					<path fill="#FFFFFF" d="M1.1,29.7C1.1,29.7,1.1,29.7,1.1,29.7C1.1,29.7,1.1,29.7,1.1,29.7z"/>
					<path fill="#FFFFFF" d="M30.4,15.9L30.4,15.9L30.4,15.9C30.4,15.8,30.4,15.8,30.4,15.9z"/>
					<path fill="#FFFFFF" d="M18.7,19.4C18.6,19.3,18.6,19.3,18.7,19.4C18.6,19.3,18.6,19.3,18.7,19.4z"/>
					<path fill="#FFFFFF" d="M15.7,20.1L15.7,20.1C15.8,20.1,15.7,20.1,15.7,20.1z"/>
					<path fill="#FFFFFF" d="M20,18.5c0,0,0.1,0,0.1,0C20.1,18.4,20.1,18.4,20,18.5C20.1,18.5,20.1,18.5,20,18.5z"/>
					<polygon fill="#FFFFFF" points="21.6,18 21.5,17.9 21.5,18 					"/>
					<path fill="#FFFFFF" d="M53.6,13.7c0,0.1,0,0.2,0.1,0.3C53.6,13.8,53.9,13.7,53.6,13.7z"/>
					<path fill="#FFFFFF" d="M1.1,29.8c-0.1-0.1-0.1-0.1-0.1-0.1C1.1,29.7,1.1,29.8,1.1,29.8C1.1,29.8,1.1,29.8,1.1,29.8z"/>
					<path fill="#FFFFFF" d="M19.4,16.3l0.3,0C19.6,16.3,19.5,16.3,19.4,16.3z"/>
					<path fill="#FFFFFF" d="M41.5,13.4L41.5,13.4C41.5,13.3,41.5,13.3,41.5,13.4z"/>
					<path fill="#FFFFFF" d="M20.4,16c0.1,0.1,0.1,0.1,0.2,0.1c0,0,0,0,0-0.1L20.4,16z"/>
					<path fill="#FFFFFF" d="M53.6,14L53.6,14L53.6,14z"/>
					<path fill="#FFFFFF" d="M55.5,13.5c-0.3,0-0.1,0.3-0.2,0.6c-0.3,0.1-0.1-0.3-0.2-0.5c-0.2,0.1-0.4,0.4-0.5,0.4
						c0-0.1,0-0.1,0-0.2c-0.2,0.3-0.6,0-0.9,0.3c0,0,0-0.1,0-0.1c0,0.2,0,0.4,0,0.5c-0.1,0-0.2,0.2-0.3,0c0.1,0,0.1-0.1,0.1-0.2
						l-0.1,0.1c-0.1-0.4,0.2-0.1,0.2-0.4c-0.2,0.1-0.5,0.4-0.7,0.3c0-0.3,0.4-0.1,0.2-0.4l0.3,0.1c-0.2-0.5,0.2,0,0-0.5
						c-0.4-0.1-0.4,0.1-0.8,0c-0.1,0.2,0,0.3-0.1,0.5c-0.5,0.3-0.4-0.9-0.8-0.5c-0.1,0.2-0.2,0.6-0.4,0.4l0.1-0.4
						c-0.4-0.1-0.2,0.5-0.6,0.3c0.1-0.1,0.3-0.1,0.2-0.2c-0.2-0.3-0.2,0.2-0.4,0.2l0-0.3c-0.4,0-0.8,0.2-1.2,0.3
						c0-0.1,0.1-0.2,0-0.3c-0.5,0.2-1.1-0.1-1.6-0.3l-0.2,0.3c0,0-0.1-0.1,0-0.2c-0.2-0.1,0,0.2-0.1,0.3c-0.1,0-0.1-0.2-0.1-0.3
						c-0.4,0.2-1,0.5-1.4,0.2l0.1-0.1c-0.3-0.1-0.3,0.6-0.6,0.3l0.1-0.1c-0.6-0.1-1.3,0.1-1.8-0.3c-0.1,0.4-0.6-0.2-0.7,0.4
						c-0.4-0.3-0.3-0.4-0.8-0.6c-0.1,0-0.2,0.4-0.4,0.4l0-0.3l-0.2,0.3l-0.1-0.4l-0.2,0.1c0.1,0,0.1,0.1,0.1,0.2
						c-0.2,0.1-0.6-0.2-0.6-0.4l-0.6,0.3c0-0.1,0.1-0.2,0.2-0.2c-0.3,0.3-0.1-0.3-0.3,0c0,0.1,0,0.2,0,0.2c-0.1-0.2-0.5-0.2-0.7-0.1
						l0-0.2c-0.4-0.1-0.9,0.1-1.4,0.2c0.2,0.1,0.2,0.5,0,0.5l-0.1-0.3c-0.1,0.2,0.2,0.1,0,0.4c-0.2,0-0.1-0.4,0-0.5L38,13.5
						c0-0.1,0-0.2,0-0.3c-0.1,0.2-0.4-0.3-0.5,0.1l0-0.1c-0.5,0-0.7,0.1-1.1,0.2c0,0.3-0.1,0.2-0.2,0.5c-0.3-0.1-0.6-0.3-1-0.2
						c-0.2,0.2-0.1,0.2-0.1,0.4c0-0.3-0.4-0.2-0.2-0.4c-0.4,0.1-0.5,0.1-1,0.4c0.1,0.1,0.1,0.1,0.1,0.2c-0.1,0.1-0.2-0.1-0.2-0.2
						l0,0c-0.5,0.4-1.4-0.6-1.8,0l0,0l-0.4,0.3c-0.2,0,0.1-0.2-0.1-0.3c-0.5,0.5-0.8,0-1.2,0.4c-0.4-0.7-1.2,0.2-1.7-0.2l0.1,0.2
						c-0.1,0.2-0.2-0.1-0.2-0.1c0,0.1,0.2,0.1,0.1,0.2c-0.9,0.4-2.1,0.1-3.1,0.1c-0.4,0,0,0.9-0.6,0.6l0.1-0.4
						c-0.6,0.6-1.5,0.3-2.1,0.8c0-0.1,0-0.2,0.1-0.2c-0.2-0.2-0.6,0.1-0.5,0.3c-0.1,0-0.1-0.2-0.2-0.2c-0.2-0.1-0.3,0.4-0.4,0.2
						c0,0,0-0.1,0-0.1c-0.1,0.1-0.5,0.1-0.3,0.4c-0.3,0-0.5,0.3-0.7,0.2c0,0.3-0.5,0-0.4,0.4c-0.1-0.4-0.6-0.2-0.7,0.1
						c0-0.1-0.2-0.1-0.2-0.3c-0.2,0.1-0.3,0.2-0.2,0.4c-0.5-0.4-0.6,0.6-1,0.1c-0.5,0.5-0.9,0.8-1.4,1.1c-0.2-0.4,0.5-0.3,0.3-0.7
						c-0.4,0.4-0.5,0.8-1,0.9c-0.1,0,0-0.2,0-0.3c-0.4,0.4-0.9,0.3-1.2,0.7c0,0,0-0.1,0-0.2c-0.1,0.1-0.2,0-0.1,0.2l0.1-0.1
						c0.2,0.2-0.1,0.7,0,0.9c-0.1-0.6-0.5,0.1-0.6-0.7c0,0.1-0.1,0.2,0,0.3c-0.1,0-0.2-0.1-0.1-0.2c-0.2,0.2,0,0.4-0.3,0.5
						c0-0.1,0-0.1,0-0.3c0,0.2-0.1,0.5-0.3,0.5c0-0.1-0.1-0.1,0-0.1c-0.4,0.2-0.4,0.8-0.9,0.8c-0.1-0.4-0.2-0.1-0.4-0.4L12,20.1
						l0.2,0.1c-0.2,0.1-0.2,0.4-0.4,0.4l0.1-0.2l-0.3,0.3l0.3,0c-0.1,0.3,0.3,0.4,0,0.5c0-0.1-0.2,0.1-0.4,0l0,0
						c0,0.2-0.1,0.3-0.2,0.3C11,21.3,10.9,21,10.8,21c0.1,0.3-0.4,0.3-0.3,0.7c0-0.1-0.1-0.3-0.1-0.3l0.1,0.3c-0.1,0-0.2,0-0.2-0.2
						c-0.3,0.1,0.3,0.3-0.1,0.4c0,0,0-0.1,0-0.1c-0.4,0.1-0.5,0.5-0.8,0.6C9,22,9.5,22.1,9.2,21.9c-0.4,0.3-0.5,1-0.9,1.2l0.1,0
						c0.3,0.5-0.4,0-0.5,0.3c0-0.1-0.1-0.3-0.1-0.2c-0.3,0.1-0.4,0.5-0.7,0.9l0-0.1c-0.2,0-0.4,0.2-0.6,0.3c0,0.1-0.1,0.2,0.1,0.3
						c-1-0.2-0.6,1.1-1.4,1c0,0,0-0.2,0-0.2l-0.3,0.4c0.2,0.1,0.1,0.1,0.3,0.1c0.1,0.1,0,0.3-0.1,0.4c0-0.2-0.3-0.3-0.4-0.3
						c0.1,0,0.1,0.1,0.1,0.2c-0.5-0.1,0.3,0.4-0.1,0.4l-0.1-0.1c0,0.1,0,0.3-0.1,0.4c-0.2-0.1,0-0.2-0.1-0.3
						c-0.1,0.1,0.1,0.6-0.2,0.6c0-0.1,0.1-0.2,0.1-0.3c-0.3-0.1-0.3,0-0.4,0.1l0,0l-0.3,0.1l0.1,0c0.4,0.7-0.2,0.4-0.1,1
						c-0.1-0.5-0.2-0.2-0.4-0.4c-0.1,0-0.3,0-0.3-0.1c0.1,0.3-0.3,0.1-0.2,0.5c-0.1-0.1-0.1,0.1-0.3-0.1c-0.1,0.2,0.2,0.1,0.2,0.2
						c0.1,0.4-0.8,0.3-0.7,0.9c-0.1,0.4,0.1,0.7,0.1,1c-0.2,0-0.2-0.3-0.2-0.3c-0.2,0.1-0.3,0.2-0.3,0.4c0-0.1-0.1-0.1-0.2-0.1
						c-0.1,0.1,0.2,0.3,0,0.4C1.2,30.1,1.1,30,1,29.9c0,0.2,0,0.4,0,0.6c-0.2-0.1-0.1-0.2-0.2-0.4c-0.1,0.2-0.2,0.5,0,0.7l0.2,0
						c0,0.1-0.2-0.1-0.2-0.2c-0.1-0.3,0.2-0.1,0.3-0.1l0,0.1c0.5,0.2,0.2-0.4,0.4-0.6l0.3,0.3L1.6,30c0.1,0,0.3,0.1,0.3,0.3
						c0.3,0,0-0.2,0.2-0.2c0,0,0,0,0.1,0l0-0.2c0,0.1,0.2,0.2,0.1,0.2c0.4-0.1,0-0.6,0.4-0.5l0,0c0.1-0.4-0.2-0.2-0.3-0.7l0.7,0.3
						L2.9,29c0,0,0.1-0.1,0.2,0C3.1,28.8,3,29,2.9,28.8c0.4,0,0.3-0.5,0.7-0.2c-0.1-0.2-0.3,0-0.2-0.2c0.4,0.3,0.1-0.3,0.4-0.2
						c0.2,0.2-0.1,0.3,0.2,0.3C3.8,28,4.3,28.1,4.4,28c-0.3-0.3,0.1-0.4,0.2-0.6c0.1,0.1,0.5-0.2,0.8-0.3l0,0
						c-0.2-0.3,0-0.4,0.1-0.6c0.1,0.2,0.2,0.2,0.2,0.4l0.1-0.1c-0.1-0.1-0.1-0.2,0-0.3L6,26.6c0.2-0.2,0.1-0.6,0.5-0.6
						c-0.2-0.2-0.7-0.4-0.5-0.7c0.1,0.1,0.3,0.3,0.2,0.4c0,0,0-0.2,0.1-0.1l0.1,0.3c0.2,0-0.1-0.2,0-0.3c0.1,0.1,0.2,0,0.2,0.2
						c0,0-0.1,0-0.1,0.1c0.1-0.1,0.3-0.1,0.4,0c-0.1-0.1-0.2-0.2-0.1-0.3c0.2-0.2,0.2,0.1,0.4,0.1c0-0.1,0.2-0.1,0-0.4
						c0.1,0,0.2,0.1,0.2,0.1c0-0.2,0.4-0.4,0.1-0.5l0,0l0,0l0,0l0,0c0.1-0.5,0.8-0.4,1-0.7l0.1,0.1c0.1-0.2,0.4-0.4,0.4-0.6
						c0.1,0,0.2,0,0.3,0.2c0.1-0.2,0.1-0.3,0.4-0.3c0,0.3,0.1,0.1-0.1,0.2c0.2-0.1,0.4,0,0.4-0.3c0.1,0.3,0.3,0.2,0.4,0L10,23.2
						c0.1-0.1,0.2-0.1,0.3-0.2l0.1,0.3c0.6,0.1,0.4-1,1-0.7c0-0.3-0.3,0-0.4-0.3c0.2-0.1,0.7,0.2,0.7,0.2c0.3,0,0-0.6,0.3-0.6
						c-0.1-0.1-0.3-0.3-0.1-0.6c0.2-0.1,0.5,0.3,0.4,0.4c0,0-0.1,0-0.1,0c0,0.1-0.1,0.2,0,0.2l0-0.1c0.2,0,0.4-0.1,0.4,0.1
						c0.1-0.2,0-0.2-0.2-0.2c0.3,0,0.4-0.2,0.7-0.2c-0.1,0-0.2-0.1-0.1-0.2c0.5-0.1,0.1-0.3,0.3-0.5c0.2,0.1,0.2,0.4,0.3,0.1
						c0.2,0,0.2,0.3,0.2,0.4c0.1-0.3,0.5-0.1,0.7-0.1l-0.1,0.1c0-0.1,0.1-0.1,0.2-0.1l-0.2-0.2c0.1,0,0.2,0,0.2,0.1
						c0-0.2-0.2-0.3-0.2-0.6c0.2,0.1,0.2-0.3,0.4,0c-0.4,0.1,0.2,0.3-0.1,0.4c0-0.1,0.1-0.1,0.2-0.1c0,0,0,0.1,0,0.1
						c0.4,0.1,0-0.4,0.3-0.5c0,0.2,0.2,0.3,0.2,0.2c-0.1,0.1-0.2-0.2-0.1-0.4c0.3,0,0.2-0.2,0.3-0.2h-0.1c0-0.2,0.1-0.2,0.2-0.3
						c0.1,0.1-0.1,0.1,0,0.2c0-0.3,0.5,0.2,0.6-0.1c0.1,0.1,0.1,0.3,0.3,0.3c0.2-0.3,0.4,0.1,0.5-0.2c-0.2-0.2-0.2-0.1-0.1-0.4
						l-0.4,0.3l0.1-0.4c-0.1,0-0.2,0.2-0.3,0.2c0.1-0.2,0.1-0.2-0.1-0.3c0.3,0.3,0.3-0.3,0.6-0.2l0.2,0.5c0.4,0.1,0.4-0.5,0.9-0.5
						l-0.2,0c0-0.2,0.2-0.1,0.3-0.3c0.1,0.2,0.2,0.2,0.3,0.3c-0.1-0.1,0.3-0.1,0.2-0.5l0.3,0.2c0.4,0,0.2-0.6,0.5-0.7
						c0,0.2,0.2,0.3,0,0.5c0.1,0,0.2,0,0.2-0.2c0.1,0.1,0.2-0.3,0.4-0.2c0-0.1,0-0.3,0.1-0.3c0,0,0,0.1,0,0.1c0-0.1,0.1-0.2,0-0.4
						c0.5,0.5,0.9-0.3,1.3,0.1c0.2-0.1,0.5-0.3,0.7-0.4c0,0.1,0,0.1,0,0.1c0.3,0.1,0-0.6,0.4-0.5c0.3,0.3-0.1,0.2,0,0.3
						c0.2,0.6,0.4-0.2,0.7,0.1l0,0.1c0.2,0.2,0.4-0.3,0.7-0.4c0,0,0,0.1,0,0.1c0.1-0.4,0.5-0.6,0.7-0.7c0,0.3-0.1,0.2,0,0.4
						c0.1-0.1-0.1-0.4,0.1-0.5c0.1,0.1,0.3,0.2,0.4,0.5L25,17.1c0.2,0.3,0.3-0.1,0.4-0.1l0,0.2c0.3-0.1,0.3-0.5,0.6-0.6L26,16.5
						c0.1-0.4,0.2,0.2,0.4-0.1l0.1,0.4c0.1-0.1,0.4-0.5,0.6-0.6c-0.1,0.3-0.3,0.5-0.5,0.7c0.1,0,0.5-0.1,0.5-0.3
						c0,0-0.1,0.2-0.2,0.1c0.1-0.3,0.3-0.5,0.6-0.6c0.1,0.8,0.7,0.1,1,0.6c0.4-0.4,1,0,1.5-0.2c-0.3-0.6,0.2,0,0-0.6
						c0.1-0.1,0.2-0.1,0.2,0l0.5,0.3c0.1,0.2-0.1,0.1-0.1,0.3c0.3,0,0.2,0.2,0.4,0.4c-0.1-0.2,0.1-0.3,0.2-0.3l-0.3-0.3
						c0.4-0.4,0.4,0.5,0.8,0.1l-0.1,0.2c0.2-0.1,0.8-0.1,0.9-0.6c0,0.1,0.1,0.2,0,0.3c0.5,0,1.1-0.6,1.5-0.4l0,0.2
						c0.1-0.1,0.1-0.3,0.3-0.2c0,0.1,0,0.2,0,0.2c0-0.1,0.2-0.3,0.4-0.2l-0.1,0.2c0.5,0.2,0.7-0.5,1.1-0.6c0,0.4,0.4,0.6,0.6,0.6
						l0,0.1c0.6,0,0.9-0.4,1.5-0.6c0.4,0.5,1.1,0.1,1.7,0.4c-0.1-0.1,0-0.3,0.1-0.4c0.1,0.1,0.3-0.3,0.3,0.1l0,0
						c0.1,0.4,0.4,0.3,0.6,0.3l0-0.5c0.5,0.8,1.4-0.3,1.7,0.4c0.1-0.1,0.3-0.1,0.4-0.3l0,0.3c0.3,0.1,0.5,0.1,1,0L43.4,16
						c0.2,0,0.3-0.8,0.5-0.8l0.1,0.4c0.4,0,0.8,0.4,1.3,0c0,0.1,0,0.2-0.1,0.2c0.2,0,0.8,0.3,0.7-0.3c0,0.4,0.4,0,0.7-0.1l0,0.3
						c0.2-0.4,0.2-0.4,0.5-0.5c0.1,0,0,0.2,0,0.2c0.2,0.2,0.2-0.3,0.4-0.1l-0.1,0.2c0.2,0,0.2-0.1,0.3-0.3c0.1-0.1,0.4,0.1,0.4,0.3
						c0-0.2,0.2-0.4,0.3-0.3c0,0.1,0,0.2-0.1,0.2c0.4,0.2,0.6-0.3,0.8,0c0,0.1,0,0.1,0,0.2c-0.3,0-0.5,0-0.5-0.1
						c0,0.3,0.2,0.3,0,0.7c0.2-0.2,0.5-0.6,0.8-0.5c0,0,0,0.1,0,0.1l0,0c0.1,0,0.1,0,0.1,0c0.1,0,0.1,0.1,0.2,0.1
						c0,0.2,0.3,0.1,0.4,0.2c0-0.3,0.2-0.2,0-0.5c0,0,0,0-0.1,0c0,0,0,0-0.1,0l0,0c-0.1,0-0.2,0-0.3,0c0.1-0.1,0.2-0.3,0.3-0.1
						c0.1-0.2,0.1-0.4,0.2-0.4c0.1,0.4,0.4,0.6,0.5,0.9c0.4-0.1,0.8,0,1.1-0.6c0.1-0.1,0.1,0.2,0.1,0.2c-0.1,0-0.1,0-0.2,0.1
						c0.2-0.1,0.6,0,0.7-0.4c0.2,0.2-0.2,0.3,0.2,0.3l-0.1,0.1c0.7,0.6,1.2-0.9,1.9-0.1c0,0-0.1-0.1-0.1-0.1
						c0.9,0.4,1.8-0.1,2.7,0.5c0.2,0.1,0.3-0.1,0.5-0.3l0,0.3l0.3-0.3c0.4-0.2,0.6,0.8,1.1,0.4l0-0.2c0.2,0.1,0.5-0.1,0.5,0.2
						c0,0,0.1-0.2,0.1-0.1l0,0.2l0.4-0.2c0.3,0.1-0.1,0.6,0.3,0.7c0.2,0,0.5-0.4,0.5-0.5c-0.1,0-0.2-0.1-0.2-0.3l0.2-0.1
						c0.1-0.5,0.3-0.9-0.1-1.3l-0.3,0.3l-0.1-0.2l0.2,0c-0.1-0.2-0.2,0-0.3,0.1c0-0.1,0-0.2-0.1-0.3l-0.3,0.4c0-0.2,0.2-0.3,0-0.5
						c-0.1,0.2,0.1,0.4-0.1,0.5c-0.1-0.2-0.1-0.4-0.2-0.2c0-0.1,0-0.2,0.1-0.2c-0.2,0.1-0.4,0-0.5,0.3c-0.1-0.3-0.5,0-0.4-0.4
						c-0.1,0.1-0.3,0.3-0.4,0.3c0.3-0.5-0.5-0.1-0.3-0.6c-0.2,0.5-0.6,0.2-0.9,0.4c0,0,0.1-0.1,0.1-0.1c-0.2-0.1-0.2-0.2-0.3-0.3
						c-0.1,0.4-0.3,0.5-0.5,0.7c-0.2-0.4,0.2-0.4,0.1-0.8c0,0.3-0.4,0.3-0.3,0.6C56,14,56,14.1,55.9,13.8c-0.1,0.5-0.2,0.1-0.3,0.4
						c-0.2-0.3,0-0.5-0.3-0.3C55.2,13.6,55.5,13.5,55.5,13.5z M49.5,13.9L49.5,13.9c0.1,0,0.1,0,0.1,0
						C49.6,13.9,49.5,13.9,49.5,13.9z M49,13.9c0.1,0,0.1,0,0.2,0c0,0.1,0,0.2-0.1,0.2C49.1,14,49,14,49,13.9z M49.9,15.9
						c-0.1,0-0.1,0-0.1-0.1c0,0,0.1,0,0.1,0l0,0C49.9,15.8,49.9,15.8,49.9,15.9z"/>
					<path fill="#FFFFFF" d="M50.1,15.5C50.1,15.5,50.1,15.5,50.1,15.5C50.1,15.5,50.1,15.5,50.1,15.5L50.1,15.5L50.1,15.5z"/>
					<path fill="#FFFFFF" d="M7.4,24.8L7.4,24.8C7.4,24.8,7.4,24.8,7.4,24.8C7.4,24.8,7.4,24.8,7.4,24.8z"/>
					<polygon fill="#FFFFFF" points="42,13.2 42,13.3 42.1,13.2 					"/>
					<path fill="#FFFFFF" d="M4.8,25.9C4.7,25.9,4.7,25.9,4.8,25.9C4.7,25.9,4.7,25.9,4.8,25.9z"/>
					<path fill="#FFFFFF" d="M3.9,26.7l-0.2,0.1C3.8,26.8,3.8,26.8,3.9,26.7z"/>
					<path fill="#FFFFFF" d="M3.1,27.3C3.2,27.4,3.2,27.4,3.1,27.3L3.1,27.3L3.1,27.3z"/>
					<path fill="#FFFFFF" d="M14.9,18.4C14.9,18.4,14.9,18.4,14.9,18.4C15,18.3,14.9,18.4,14.9,18.4z"/>
					<path fill="#FFFFFF" d="M11.3,21.1c0-0.1,0-0.1,0.1-0.2C11.3,20.9,11.2,20.9,11.3,21.1z"/>
					<polygon fill="#FFFFFF" points="19.4,16.4 19.4,16.4 19.4,16.3 					"/>
					<path fill="#FFFFFF" d="M11.5,20.8c-0.1,0-0.1,0-0.2,0.1C11.4,20.9,11.5,20.9,11.5,20.8z"/>
					<path fill="#FFFFFF" d="M0.5,30.4L0.5,30.4C0.5,30.4,0.5,30.4,0.5,30.4L0.5,30.4z"/>
					<path fill="#FFFFFF" d="M0.5,30.5L0.5,30.5C0.5,30.5,0.5,30.5,0.5,30.5z"/>
					<path fill="#FFFFFF" d="M0.5,30.6l0-0.1C0.5,30.5,0.4,30.6,0.5,30.6z"/>
					<path fill="#FFFFFF" d="M1.3,29.5L1.3,29.5C1.3,29.4,1.3,29.5,1.3,29.5z"/>
					<path fill="#FFFFFF" d="M1.5,29.2c-0.1,0.1-0.3,0-0.3,0.2l0.1,0.1C1.2,29.3,1.6,29.3,1.5,29.2z"/>
					<path fill="#FFFFFF" d="M3.5,28.8L3.2,29c0.1,0,0.3,0.1,0.2,0.2C3.9,29.1,3.2,29.1,3.5,28.8z"/>
					<path fill="#FFFFFF" d="M4.2,28.2c-0.1,0.2,0.1,0.1,0.2,0.2C4.4,28.2,4.4,28.2,4.2,28.2z"/>
					<path fill="#FFFFFF" d="M9.3,23.7l0.1,0.2C9.5,23.8,9.3,23.8,9.3,23.7z"/>
					<polygon fill="#FFFFFF" points="9.6,21.9 9.4,21.8 9.4,22 					"/>
					<polygon fill="#FFFFFF" points="11.2,23 11.2,23 11.3,22.9 					"/>
					<path fill="#FFFFFF" d="M21.4,18.3L21.3,18C21.2,18.1,21.3,18.4,21.4,18.3z"/>
					<path fill="#FFFFFF" d="M26,16.8c0.1,0.1,0.2,0.2,0.3,0C26.2,16.8,26.1,16.7,26,16.8z"/>
					<polygon fill="#FFFFFF" points="40.8,15.8 40.7,15.9 40.9,15.8 					"/>
				</g>
			</g>
		</g>
		<g>
			<g>
				<g>
					<path fill="#FFFFFF" d="M40.7,31.4c0.1,0.1,0.2,0.2,0.2,0.1l-0.2-0.2L40.7,31.4z"/>
					<path fill="#FFFFFF" d="M41.5,31.3c-0.1-0.2-0.2-0.4-0.5-0.6c0.2,0.3,0.1,0.2,0.3,0.5c0,0.1-0.2,0.1-0.3,0
						c0.1,0.1-0.1,0.1,0,0.2c0.3,0.1,0.4,0,0.3-0.3C41.4,31.2,41.5,31.2,41.5,31.3z"/>
					<path fill="#FFFFFF" d="M47.1,25.6L47.1,25.6C47,25.6,47.1,25.6,47.1,25.6z"/>
					<path fill="#FFFFFF" d="M51,22.7C51,22.7,51,22.8,51,22.7C51.1,22.8,51.1,22.7,51,22.7z"/>
					<path fill="#FFFFFF" d="M51.9,22.6C51.9,22.6,51.9,22.6,51.9,22.6C51.9,22.6,51.9,22.6,51.9,22.6z"/>
					<path fill="#FFFFFF" d="M47.1,25.6l0.2,0C47.2,25.5,47.2,25.5,47.1,25.6z"/>
					<path fill="#FFFFFF" d="M41.5,29.9c0,0,0,0.1,0,0.1C41.5,30,41.5,30,41.5,29.9L41.5,29.9z"/>
					<path fill="#FFFFFF" d="M45.7,27.3L45.7,27.3c0,0.1,0,0.1,0,0.1L45.7,27.3z"/>
					<path fill="#FFFFFF" d="M44.7,28.5c0,0-0.2-0.2-0.3-0.3c0.1,0.1,0.1,0.1,0.1,0.2C44.6,28.5,44.6,28.5,44.7,28.5z"/>
					<path fill="#FFFFFF" d="M42.6,30.3L42.6,30.3C42.7,30.3,42.7,30.3,42.6,30.3z"/>
					<path fill="#FFFFFF" d="M46.6,26.5C46.6,26.5,46.7,26.5,46.6,26.5C46.7,26.5,46.6,26.5,46.6,26.5z"/>
					<path fill="#FFFFFF" d="M39.7,2.8C39.7,2.8,39.7,2.8,39.7,2.8C39.7,2.8,39.7,2.8,39.7,2.8z"/>
					<polygon fill="#FFFFFF" points="38.9,0.5 39,0.5 39.1,0.4 					"/>
					<path fill="#FFFFFF" d="M53.4,22.1L53.4,22.1C53.4,22.2,53.4,22.2,53.4,22.1z"/>
					<path fill="#FFFFFF" d="M62.2,14c0,0.3-0.6,0-0.6,0.4C61.6,14.3,62.3,14.3,62.2,14z"/>
					<path fill="#FFFFFF" d="M41.6,29.9C41.6,29.9,41.6,29.9,41.6,29.9C41.6,29.9,41.6,29.9,41.6,29.9z"/>
					<path fill="#FFFFFF" d="M61.6,14.4L61.6,14.4L61.6,14.4C61.6,14.5,61.6,14.4,61.6,14.4z"/>
					<path fill="#FFFFFF" d="M56.5,20.4C56.4,20.4,56.4,20.3,56.5,20.4C56.4,20.3,56.4,20.4,56.5,20.4z"/>
					<path fill="#FFFFFF" d="M53.9,21.2L53.9,21.2C54,21.2,53.9,21.2,53.9,21.2z"/>
					<path fill="#FFFFFF" d="M57.5,19.5C57.6,19.5,57.6,19.5,57.5,19.5C57.6,19.4,57.6,19.4,57.5,19.5
						C57.6,19.5,57.6,19.5,57.5,19.5z"/>
					<polygon fill="#FFFFFF" points="58.9,18.9 58.8,18.8 58.8,18.9 					"/>
					<path fill="#FFFFFF" d="M43.4,5.2c0-0.1,0.1-0.2,0.1-0.2C43.4,5.2,43.1,5.1,43.4,5.2z"/>
					<path fill="#FFFFFF" d="M41.6,30c-0.1,0-0.1-0.1-0.1-0.1C41.6,29.9,41.6,29.9,41.6,30C41.6,30,41.6,30,41.6,30z"/>
					<path fill="#FFFFFF" d="M56.7,17.4l0.2-0.1C56.8,17.4,56.8,17.4,56.7,17.4z"/>
					<path fill="#FFFFFF" d="M52.1,10.9L52.1,10.9C52,10.9,52.1,10.9,52.1,10.9z"/>
					<path fill="#FFFFFF" d="M57.5,17c0.1,0.1,0.1,0.1,0.2,0.1c0,0,0,0,0-0.1L57.5,17z"/>
					<path fill="#FFFFFF" d="M43.5,5L43.5,5L43.5,5z"/>
					<path fill="#FFFFFF" d="M41.8,4.7c0.2,0.1,0.3-0.2,0.5-0.4c0.3,0.1-0.1,0.3-0.1,0.5c0.2,0,0.5-0.2,0.6-0.1c0,0.1,0,0.1-0.1,0.1
						c0.3-0.1,0.4,0.3,0.8,0.1c0,0,0,0.1,0,0.1c0.1-0.2,0.2-0.3,0.3-0.4c0.1,0.1,0.3-0.1,0.2,0.1c0,0-0.1,0-0.2,0.1l0.1,0
						c-0.1,0.3-0.2,0-0.3,0.2c0.2,0,0.6-0.1,0.7,0.1c-0.2,0.3-0.4-0.1-0.4,0.3l-0.1-0.2c-0.2,0.5-0.1-0.1-0.3,0.5
						c0.2,0.3,0.4,0.1,0.6,0.3c0.2-0.1,0.1-0.2,0.3-0.4c0.6,0-0.2,0.9,0.3,0.7c0.2-0.1,0.5-0.5,0.5-0.2l-0.3,0.3
						c0.2,0.2,0.5-0.4,0.6,0c-0.1,0.1-0.3,0-0.3,0c0,0.4,0.2-0.1,0.4,0l-0.2,0.3c0.3,0.1,0.7,0.1,1.1,0.3c-0.1,0.1-0.2,0.1-0.2,0.3
						c0.5,0.1,0.8,0.6,1,1L47.7,8c0,0,0,0.2-0.1,0.2c0.1,0.2,0.1-0.2,0.2-0.2c0.1,0,0,0.2-0.1,0.3c0.4,0,1,0,1.1,0.5l-0.1,0
						c0.1,0.2,0.6-0.4,0.6,0l-0.1,0c0.4,0.4,1,0.5,1.1,1.1c0.3-0.3,0.3,0.4,0.7,0c0.1,0.4,0,0.5,0.2,0.8c0.1,0.1,0.3-0.2,0.5-0.2
						l-0.2,0.3l0.3-0.2l-0.1,0.4l0.2,0c0,0,0-0.2,0-0.2c0.3,0,0.3,0.4,0.2,0.6l0.6,0c-0.1,0.1-0.2,0.1-0.3,0.1
						c0.4-0.1-0.1,0.3,0.2,0.2c0-0.1,0.1-0.1,0.1-0.2c0,0.2,0.2,0.4,0.5,0.4L53.3,12c0.3,0.2,0.7,0.3,1.1,0.5
						c-0.1-0.2,0.1-0.5,0.3-0.4l-0.1,0.3c0.2-0.1,0-0.2,0.2-0.3c0.1,0.1-0.1,0.4-0.2,0.4l0.2,0c0,0.1-0.1,0.1-0.2,0.2
						c0.2-0.1,0.1,0.4,0.4,0.2l0,0.1c0.4,0.2,0.6,0.2,0.9,0.4c0.1-0.2,0.2-0.1,0.4-0.3c0.2,0.2,0.3,0.5,0.6,0.7
						c0.3,0,0.2-0.2,0.3-0.3c-0.1,0.2,0.2,0.4-0.1,0.4c0.3,0.1,0.4,0.2,0.9,0.2c0-0.1,0-0.2,0.1-0.2c0.1,0,0.1,0.2,0,0.3l0,0
						c0.6-0.1,0.7,1.2,1.3,0.9l0,0l0.5,0c0.1,0.1-0.2,0.1-0.1,0.3c0.7-0.1,0.3,0.2,0.6,0.1c-0.3,0.3-0.3,0.3-0.2,0.3
						c0.1,0,0.3,0-0.1,0.1l0.3,0c0.3,0-0.1,0-0.2,0c0.2,0,0.3,0,0.4-0.1c0.1,0,0.2,0,0.2,0.1c0,0,0,0.1-0.2,0.1c-0.3,0-0.7,0-0.8,0
						c0,0,1.2,0.5,0.6,0.3c0,0-0.1-0.1-0.2-0.1C60,16,59.9,16,59.9,16c0.2,0.1,0.1,0.2,0,0.2c-0.1,0,0,0-0.1,0.1
						c-0.1,0.1-0.3,0.2-0.4,0.3c0-0.1,0-0.2,0-0.2c-0.2-0.2-0.4,0.2-0.4,0.4c-0.1,0-0.1-0.2-0.2-0.2c-0.2-0.1-0.2,0.4-0.3,0.2
						c0,0,0-0.1,0-0.1c0,0.1-0.4,0.1-0.2,0.4c-0.3,0-0.4,0.3-0.6,0.2c0,0.3-0.4,0-0.3,0.4c-0.2-0.4-0.5-0.2-0.6,0.1
						c0-0.1-0.2-0.1-0.2-0.3c-0.2,0.1-0.3,0.2-0.1,0.4c-0.5-0.4-0.4,0.7-0.8,0.1c-0.4,0.4-0.7,0.8-1.1,1.1c-0.2-0.4,0.4-0.3,0.2-0.7
						c-0.3,0.4-0.4,0.8-0.8,0.9c-0.1,0,0-0.2,0-0.3c-0.3,0.4-0.8,0.3-1,0.7c0,0,0-0.1,0-0.1c-0.1,0-0.2,0-0.1,0.2l0-0.1
						c0.2,0.2,0,0.7,0.1,0.8c-0.2-0.6-0.4,0.1-0.6-0.7c0,0.1,0,0.2,0,0.3c-0.1,0-0.1-0.1-0.2-0.2c-0.2,0.2,0,0.4-0.2,0.5
						c0-0.1,0-0.1-0.1-0.3c0,0.2,0,0.5-0.3,0.5c0-0.1-0.1-0.1,0-0.1c-0.3,0.2-0.3,0.8-0.7,0.8c-0.1-0.4-0.2-0.1-0.4-0.4l-0.1,0.2
						l0.2,0.1c-0.2,0.1-0.2,0.4-0.4,0.4l0-0.2l-0.3,0.3l0.2,0c-0.1,0.3,0.3,0.4,0,0.4c0-0.1-0.2,0.1-0.4,0l0,0c0,0.1,0,0.3-0.2,0.3
						c-0.1-0.1-0.2-0.4-0.3-0.4c0.1,0.3-0.3,0.3-0.2,0.7c0-0.1-0.1-0.2-0.2-0.3l0.1,0.3c-0.1,0-0.1,0-0.2-0.2
						c-0.2,0.1,0.3,0.3,0,0.4c0,0,0-0.1,0-0.1c-0.3,0.1-0.4,0.5-0.7,0.5c-0.3-0.2,0.1-0.2-0.1-0.4c-0.3,0.3-0.4,0.9-0.7,1.1l0.1,0
						c0.3,0.4-0.4,0-0.4,0.3c0-0.1-0.1-0.3-0.1-0.2c-0.3,0.1-0.3,0.5-0.5,0.9l-0.1-0.1c-0.2,0-0.4,0.2-0.5,0.3
						c0.1,0.1,0,0.2,0.1,0.3c-0.9-0.2-0.4,1-1.2,0.9c0,0,0-0.2,0-0.1l-0.2,0.4c0.2,0.1,0.1,0.1,0.3,0.1c0.1,0.1,0.1,0.3,0,0.4
						c0-0.2-0.3-0.3-0.4-0.3c0.1,0,0.1,0.1,0.2,0.2c-0.4-0.1,0.3,0.3-0.1,0.4L44.7,27c0,0.1,0,0.3-0.1,0.4c-0.2-0.1,0-0.2-0.2-0.3
						c-0.1,0.1,0.2,0.6-0.1,0.5c0-0.1,0.1-0.2,0-0.3c-0.3-0.1-0.3,0-0.4,0l0,0l-0.3,0.1l0.1,0c0.4,0.6-0.2,0.4,0,0.9
						c-0.2-0.5-0.2-0.2-0.4-0.4c-0.1,0-0.3,0-0.3-0.1c0.1,0.3-0.3,0-0.1,0.4c-0.1-0.1-0.1,0.1-0.3-0.1c0,0.2,0.2,0.1,0.2,0.2
						c0.1,0.4-0.7,0.2-0.6,0.8c0,0.4,0.2,0.6,0.1,0.9c-0.2,0-0.2-0.3-0.2-0.3C42,29.8,42,30,42,30.2c-0.1-0.1-0.1-0.1-0.2-0.1
						c-0.1,0.1,0.2,0.3,0,0.3c-0.1-0.1-0.2-0.2-0.2-0.3c0,0.2,0.1,0.4,0,0.6c-0.2-0.1-0.2-0.2-0.2-0.3c0,0.2-0.1,0.4,0.1,0.6l0.1,0
						c0,0.1-0.2-0.1-0.2-0.2c-0.1-0.2,0.2-0.1,0.3-0.1l0,0.1c0.5,0.3,0.2-0.4,0.3-0.5l0.3,0.3l-0.1-0.4c0.1,0,0.3,0.1,0.3,0.3
						c0.3,0,0-0.2,0.2-0.2c0,0,0,0,0.1,0l0-0.2c0.1,0.1,0.2,0.2,0.1,0.2c0.4-0.1,0-0.5,0.3-0.4l0,0c0.1-0.4-0.2-0.2-0.3-0.7l0.7,0.3
						l-0.2-0.2c0,0,0.1-0.1,0.2,0c-0.1-0.2-0.1-0.1-0.2-0.3c0.3,0,0.2-0.5,0.6-0.2c-0.1-0.2-0.2,0-0.3-0.2c0.4,0.3,0.1-0.2,0.4-0.2
						c0.2,0.2,0,0.2,0.3,0.3c-0.3-0.4,0.3-0.2,0.3-0.3c-0.3-0.2,0.1-0.3,0.1-0.6c0.1,0.1,0.4-0.2,0.7-0.3l0,0c-0.2-0.3,0-0.4,0-0.6
						c0.2,0.2,0.2,0.2,0.2,0.4l0.1-0.1c-0.1-0.1-0.1-0.2,0-0.3l0.2,0.2c0.1-0.2,0-0.5,0.4-0.6c-0.2-0.2-0.7-0.3-0.6-0.7
						c0.1,0.1,0.3,0.2,0.3,0.3c0,0,0-0.1,0.1-0.1l0.1,0.2c0.2,0-0.1-0.2,0-0.2c0.1,0.1,0.1,0,0.3,0.2c0,0-0.1,0-0.1,0.1
						c0.1-0.1,0.3-0.1,0.4,0c-0.1-0.1-0.2-0.2-0.2-0.3c0.1-0.2,0.2,0.1,0.4,0.1c-0.1-0.1,0.1-0.1-0.1-0.3c0,0,0.1,0.1,0.2,0.1
						c0-0.2,0.3-0.4,0-0.5l0,0c0,0,0,0,0,0l0,0l0,0c0.1-0.4,0.6-0.4,0.8-0.7l0.1,0.1c0.1-0.2,0.3-0.3,0.3-0.6c0,0,0.2,0,0.3,0.2
						c0.1-0.2,0-0.3,0.3-0.3c0,0.2,0.1,0.1,0,0.2c0.2-0.1,0.3,0,0.3-0.3c0.1,0.2,0.3,0.2,0.3,0l-0.2-0.1c0.1-0.1,0.2-0.1,0.2-0.2
						l0.2,0.3c0.6,0.1,0.2-1,0.8-0.6c0-0.3-0.3,0-0.4-0.3c0.2-0.1,0.6,0.2,0.7,0.2c0.3,0-0.1-0.5,0.2-0.6c-0.1-0.1-0.3-0.3-0.2-0.5
						c0.2-0.1,0.5,0.3,0.4,0.4c0,0-0.1,0-0.1,0c0,0.1-0.1,0.2,0.1,0.2l0-0.1c0.1,0,0.4-0.1,0.4,0.1c0.1-0.2-0.1-0.2-0.2-0.2
						c0.3,0,0.3-0.2,0.6-0.2c-0.1,0-0.2-0.1-0.1-0.2c0.4-0.1,0-0.3,0.2-0.4c0.2,0.1,0.2,0.4,0.3,0.1c0.2,0,0.2,0.3,0.2,0.4
						c0.1-0.3,0.4-0.1,0.6-0.1L53,22.5c0-0.1,0.1-0.1,0.1-0.1l-0.2-0.2c0.1,0,0.1,0,0.2,0.1c0-0.2-0.2-0.3-0.2-0.6
						c0.1,0.1,0.2-0.2,0.4,0c-0.3,0,0.2,0.3,0,0.4c0-0.1,0.1-0.1,0.2-0.1c0,0,0,0.1,0,0.1c0.4,0.1-0.1-0.4,0.2-0.5
						c0.1,0.2,0.2,0.3,0.2,0.2c-0.1,0.1-0.2-0.2-0.2-0.4c0.2,0,0.1-0.2,0.2-0.2l-0.1,0c0-0.2,0-0.2,0.1-0.3c0.1,0.1-0.1,0.1,0,0.2
						c0-0.3,0.4,0.1,0.5-0.1c0.1,0.1,0.2,0.3,0.3,0.3c0.1-0.3,0.3,0.1,0.5-0.2C55,20.9,55,21,55.1,20.7L54.8,21l0.1-0.4
						c-0.1,0.1-0.2,0.2-0.2,0.2c0-0.2,0-0.2-0.1-0.3c0.3,0.2,0.2-0.3,0.5-0.2l0.3,0.5c0.4,0.1,0.3-0.5,0.7-0.5l-0.2,0
						C55.8,20,56,20.1,56.1,20c0.1,0.2,0.2,0.2,0.3,0.3c-0.1-0.1,0.3-0.1,0.1-0.5l0.3,0.2c0.3,0,0.1-0.7,0.4-0.7
						c0,0.2,0.2,0.3,0.1,0.5c0.1,0,0.2,0,0.1-0.2c0.1,0.1,0.1-0.4,0.3-0.2c0-0.1-0.1-0.3,0-0.3c0,0,0,0.1,0,0.1
						c0-0.1,0.1-0.2-0.1-0.4c0.5,0.4,0.7-0.4,1.2,0c0.2-0.1,0.4-0.3,0.5-0.4c0,0.1,0,0.1,0,0.1c0.3,0.1-0.1-0.6,0.3-0.5
						c0.3,0.2-0.1,0.2,0.1,0.3c0.3,0.6,0.3-0.2,0.6,0l0,0.1c0.1,0.1,0.2,0,0.2-0.1c0-0.1,0.1-0.1,0.1-0.2c0.1-0.1,0.1-0.1,0.2-0.1
						c0,0,0,0.1,0,0.1c0.1-0.4,0.4-0.6,0.5-0.8c0.1,0.2,0,0.2,0.3,0.3c0.1-0.1-0.4-0.3-0.2-0.4c0.2,0.1,0.5,0.1,0.9,0.2l-0.3,0.1
						c0.5,0.2,0.4-0.2,0.6-0.2l0.2,0.1c0.4-0.2-0.1-0.4,0.3-0.6l-0.2,0c-0.4-0.2,0.5,0,0.3-0.2l0.8,0.1c0-0.1-0.2-0.3-0.1-0.4
						c0.5,0.1,0.5,0.3,0.6,0.4c0.2-0.1,0.5-0.3,0.2-0.3c0,0,0.1,0.1-0.1,0.1c-0.2-0.1-0.4-0.1-0.4-0.2c0,0,0-0.1,0-0.1
						c0,0,0,0-0.1,0c0,0-0.1,0-0.1,0c0.9,0,0.8-0.1,0.6-0.2c-0.2-0.1-0.4-0.3,0-0.4c-0.6-0.1-0.8-0.3-1-0.5
						c-0.2-0.2-0.5-0.4-0.9-0.6c-0.4,0.5-0.2-0.1-0.8,0.3c-0.2,0-0.2-0.1-0.2-0.1c0,0-0.1-0.5-0.2-0.5c0-0.2,0.3,0,0.3-0.1
						c-0.4-0.2,0-0.3-0.2-0.6c-0.1,0.2-0.3,0.2-0.5,0c0,0,0.2,0.4,0.2,0.4c-0.4,0-0.3-0.2-0.4-0.3c0-0.1,0-0.3-0.2-0.2l0.2-0.1
						c-0.2,0-0.6-0.3-1,0c0-0.1,0-0.2,0.1-0.2c-0.3-0.3-1.1,0-1.2-0.4l0.1-0.1c-0.1,0-0.3,0.2-0.3,0c0-0.1,0.1-0.1,0.1-0.1
						c-0.1,0-0.3,0.1-0.4,0l0.2-0.1c-0.3-0.4-0.8,0-1.1-0.1c0.2-0.4,0-0.7-0.1-0.8l0-0.1c-0.4-0.3-0.9-0.1-1.4-0.2
						c0-0.6-0.7-0.7-1-1.1c0,0.1-0.2,0.3-0.3,0.3c0-0.1-0.4,0.1-0.2-0.2l0,0c0.1-0.4-0.1-0.4-0.2-0.5l-0.3,0.4c0-0.9-1.2-0.4-1-1.1
						c-0.2,0.1-0.3,0-0.4,0l0.2-0.2c-0.2-0.2-0.3-0.3-0.7-0.5l0.2-0.1c-0.2-0.1-0.7,0.5-0.8,0.5l0.2-0.4c-0.3-0.2-0.4-0.7-0.9-0.6
						c0,0,0.1-0.1,0.2-0.1C50.5,7,50.3,6.5,50,7.1c0.2-0.3-0.3-0.2-0.6-0.2l0.2-0.2c-0.3,0.2-0.4,0.3-0.6,0.2c0-0.1,0.1-0.2,0.1-0.1
						c-0.1-0.2-0.3,0.1-0.4-0.1l0.2-0.1c-0.1-0.1-0.2,0-0.4,0.1c-0.2,0-0.3-0.3-0.1-0.5c-0.1,0.1-0.3,0.2-0.4,0.1
						c0-0.1,0.1-0.1,0.1-0.1c-0.2-0.3-0.6,0-0.6-0.3c0-0.1,0.1-0.1,0.1-0.2c0.2,0.1,0.4,0.3,0.3,0.3c0.1-0.2,0-0.4,0.3-0.6
						c-0.2,0.1-0.7,0.3-0.8,0.1c0,0,0-0.1,0-0.1l0,0c0,0-0.1,0-0.1,0c0-0.1,0-0.1-0.1-0.2c0.1-0.2-0.1-0.2-0.2-0.3
						c-0.1,0.2-0.2,0.1-0.3,0.4c0,0,0,0,0.1,0c0,0,0,0,0.1,0l0,0c0.1,0,0.1,0.1,0.2,0.1c-0.1,0.1-0.3,0.1-0.3-0.1
						c-0.1,0.1-0.3,0.2-0.4,0.3c0.1-0.4,0-0.7,0.1-1c-0.3,0-0.7-0.3-1.1,0c-0.1,0,0-0.2,0-0.3c0.1,0,0.1,0,0.2,0
						c-0.2,0-0.5-0.3-0.7,0c-0.1-0.3,0.3-0.2,0-0.3L45.1,4c-0.2-0.8-1.3,0.2-1.5-0.8c0,0.1,0,0.1,0,0.2c-0.4-0.7-1.5-0.6-1.8-1.5
						c-0.1-0.2-0.3,0-0.5,0l0.1-0.3l-0.4,0.2c-0.4,0,0-0.9-0.6-0.8l-0.1,0.2C40.4,1.1,40,1,40.2,0.8c0,0-0.2,0.1-0.1,0l0.1-0.1
						l-0.4,0c-0.2-0.3,0.4-0.5,0.1-0.7c-0.2,0-0.6,0.1-0.6,0.2c0,0,0.1,0.2,0,0.3l-0.2,0c-0.3,0.4-0.7,0.7-0.6,1.1l0.4-0.1l-0.1,0.2
						l-0.2-0.1c0,0.2,0.1,0.1,0.3,0.1C38.7,1.9,38.7,2,38.7,2l0.4-0.2C39.1,2,38.8,2,38.9,2.2c0.2-0.1,0.2-0.4,0.4-0.4
						c0,0.2-0.2,0.4,0.1,0.3c-0.1,0.1-0.1,0.2-0.2,0.2c0.2,0,0.3,0.1,0.5,0c-0.1,0.3,0.4,0.2,0.1,0.5c0.1-0.1,0.4-0.2,0.5-0.1
						c-0.5,0.3,0.3,0.3-0.1,0.7C40.5,3,40.7,3.5,41,3.4c0,0-0.1,0.1-0.1,0C41,3.6,41,3.7,41,3.8c0.2-0.3,0.5-0.3,0.7-0.4
						c-0.1,0.4-0.4,0.3-0.5,0.6c0.2-0.3,0.4-0.1,0.5-0.3c0,0.3,0,0.2-0.1,0.5c0.3-0.4,0.2,0,0.4-0.2c0,0.3-0.2,0.4,0,0.4
						C42.1,4.6,41.8,4.7,41.8,4.7z M46.5,6.9L46.5,6.9c0,0-0.1,0-0.1,0C46.5,6.8,46.5,6.8,46.5,6.9z M46.9,7.1c0,0-0.1-0.1-0.1-0.1
						c0-0.1,0.1-0.2,0.1-0.1C46.8,6.9,46.9,7,46.9,7.1z M47.2,5c0.1,0,0.1,0.1,0,0.1C47.2,5.1,47.2,5.1,47.2,5l-0.1,0.1
						C47.2,5,47.2,5,47.2,5z"/>
					<path fill="#FFFFFF" d="M46.9,5.2C46.9,5.2,46.9,5.2,46.9,5.2C46.9,5.3,46.9,5.3,46.9,5.2L46.9,5.2L46.9,5.2z"/>
					<path fill="#FFFFFF" d="M47,25.6L47,25.6C47,25.6,47,25.6,47,25.6C47,25.6,47,25.6,47,25.6z"/>
					<polygon fill="#FFFFFF" points="51.6,10.8 51.7,10.7 51.6,10.8 					"/>
					<path fill="#FFFFFF" d="M44.7,26.6C44.6,26.6,44.6,26.5,44.7,26.6C44.6,26.6,44.6,26.6,44.7,26.6z"/>
					<path fill="#FFFFFF" d="M43.9,27.3l-0.2,0C43.8,27.3,43.9,27.3,43.9,27.3z"/>
					<path fill="#FFFFFF" d="M43.3,27.8C43.3,27.9,43.4,27.9,43.3,27.8L43.3,27.8L43.3,27.8z"/>
					<path fill="#FFFFFF" d="M53,19.6C53,19.6,53,19.6,53,19.6C53.1,19.5,53,19.5,53,19.6z"/>
					<path fill="#FFFFFF" d="M50.1,22.1c0-0.1,0-0.1,0-0.2C50,21.9,50,21.9,50.1,22.1z"/>
					<polygon fill="#FFFFFF" points="56.7,17.4 56.7,17.4 56.7,17.4 					"/>
					<path fill="#FFFFFF" d="M50.3,21.8c-0.1,0-0.1,0-0.1,0.1C50.2,21.9,50.2,21.9,50.3,21.8z"/>
					<path fill="#FFFFFF" d="M41.1,30.5L41.1,30.5C41.1,30.5,41.1,30.5,41.1,30.5L41.1,30.5z"/>
					<path fill="#FFFFFF" d="M41.1,30.5L41.1,30.5C41.1,30.6,41.1,30.5,41.1,30.5z"/>
					<path fill="#FFFFFF" d="M41.1,30.7l0-0.1C41.1,30.6,41,30.6,41.1,30.7z"/>
					<path fill="#FFFFFF" d="M41.8,29.7L41.8,29.7C41.7,29.6,41.8,29.7,41.8,29.7z"/>
					<path fill="#FFFFFF" d="M42,29.4c-0.1,0-0.3,0-0.3,0.1l0.1,0.1C41.6,29.5,42.1,29.6,42,29.4z"/>
					<path fill="#FFFFFF" d="M43.8,29.2l-0.2,0.2c0.1,0,0.3,0.1,0.2,0.2C44.2,29.5,43.5,29.4,43.8,29.2z"/>
					<path fill="#FFFFFF" d="M44.4,28.6c-0.1,0.1,0.1,0.1,0.2,0.1C44.6,28.7,44.6,28.6,44.4,28.6z"/>
					<path fill="#FFFFFF" d="M48.5,24.5l0.2,0.2C48.7,24.7,48.6,24.7,48.5,24.5z"/>
					<polygon fill="#FFFFFF" points="48.6,22.8 48.4,22.7 48.5,23 					"/>
					<polygon fill="#FFFFFF" points="50.2,23.9 50.2,23.9 50.3,23.8 					"/>
					<path fill="#FFFFFF" d="M58.7,19.2l-0.2-0.3C58.5,19,58.6,19.3,58.7,19.2z"/>
					<path fill="#FFFFFF" d="M63.4,16.8c0.3,0,0.7,0,0.5-0.1C63.7,16.7,63.4,16.8,63.4,16.8z"/>
					<polygon fill="#FFFFFF" points="53.9,9.2 54,9.2 53.9,9.2 					"/>
				</g>
			</g>
		</g>
	</g>
</g>
</svg>
