<?xml version="1.0" encoding="utf-8"?>
<!-- Generator: Adobe Illustrator 18.0.0, SVG Export Plug-In . SVG Version: 6.00 Build 0)  -->
<!DOCTYPE svg PUBLIC "-//W3C//DTD SVG 1.1//EN" "http://www.w3.org/Graphics/SVG/1.1/DTD/svg11.dtd">
<svg version="1.1" id="Layer_1" xmlns="http://www.w3.org/2000/svg" xmlns:xlink="http://www.w3.org/1999/xlink" x="0px" y="0px"
	 viewBox="0 0 57 36" enable-background="new 0 0 57 36" xml:space="preserve">
<g>
	<g>
		<path fill="none" d="M28.1,30.2c-11.9-2.1-16.5,0.6-26.8,4.5C5.5,21.9,7.7,6.5,7.7,6.5 M56.8,1.5C39.7-1.8,22.9,7.4,2.8,32.7"/>
		<g>
			<g>
				<g>
					<path fill="#FFFFFF" d="M57,0.9c0,0.1,0,0.3-0.1,0.2l0-0.3L57,0.9z"/>
					<path fill="#FFFFFF" d="M56.2,1.4c-0.1-0.2-0.2-0.5,0-0.8c0.1,0.3,0.1,0.2,0.2,0.6c0.1,0.1,0.2-0.1,0.2-0.2
						c0,0.1,0.2,0,0.2,0.2c-0.2,0.2-0.3,0.2-0.5,0C56.2,1.2,56.2,1.3,56.2,1.4z"/>
					<path fill="#FFFFFF" d="M47,1.5L47,1.5C47,1.5,47,1.5,47,1.5z"/>
					<path fill="#FFFFFF" d="M41.4,2.7C41.5,2.7,41.5,2.7,41.4,2.7C41.5,2.7,41.4,2.7,41.4,2.7z"/>
					<path fill="#FFFFFF" d="M40.6,3.3C40.6,3.3,40.6,3.3,40.6,3.3C40.6,3.3,40.6,3.3,40.6,3.3z"/>
					<path fill="#FFFFFF" d="M47,1.5l-0.1,0.1C46.8,1.5,46.9,1.5,47,1.5z"/>
					<path fill="#FFFFFF" d="M55.1,0.4C55.1,0.4,55.1,0.4,55.1,0.4C55.1,0.5,55.1,0.4,55.1,0.4L55.1,0.4z"/>
					<path fill="#FFFFFF" d="M49.5,1.6L49.5,1.6c0.1,0,0.1,0.1,0.1,0.1L49.5,1.6z"/>
					<path fill="#FFFFFF" d="M51.4,1.7c0,0,0-0.3-0.1-0.4c0,0.1,0.1,0.2,0.1,0.2C51.4,1.6,51.4,1.6,51.4,1.7z"/>
					<path fill="#FFFFFF" d="M54.5,1.5L54.5,1.5C54.5,1.5,54.5,1.5,54.5,1.5z"/>
					<path fill="#FFFFFF" d="M48.1,1.7c0,0,0,0.1,0,0.1C48.1,1.8,48.1,1.8,48.1,1.7z"/>
					<path fill="#FFFFFF" d="M3.2,30.1C3.2,30.1,3.2,30.1,3.2,30.1C3.2,30.1,3.2,30.1,3.2,30.1z"/>
					<polygon fill="#FFFFFF" points="2.8,32.7 2.9,32.7 3,32.8 					"/>
					<path fill="#FFFFFF" d="M39,4.2L39,4.2C39.1,4.2,39.1,4.2,39,4.2z"/>
					<path fill="#FFFFFF" d="M24.9,11.8c0-0.3-0.4-0.1-0.4-0.5C24.5,11.4,24.9,11.5,24.9,11.8z"/>
					<path fill="#FFFFFF" d="M55,0.4C55,0.4,55,0.4,55,0.4C55,0.4,55,0.4,55,0.4z"/>
					<path fill="#FFFFFF" d="M24.5,11.3L24.5,11.3L24.5,11.3C24.5,11.3,24.5,11.3,24.5,11.3z"/>
					<path fill="#FFFFFF" d="M35.2,5.5c0,0,0-0.1,0-0.1C35.2,5.4,35.2,5.5,35.2,5.5z"/>
					<path fill="#FFFFFF" d="M37.9,4L37.9,4C37.8,4,37.9,4,37.9,4z"/>
					<path fill="#FFFFFF" d="M33.7,5.9C33.6,5.9,33.6,5.9,33.7,5.9C33.6,5.9,33.6,5.9,33.7,5.9C33.6,5.9,33.6,5.9,33.7,5.9z"/>
					<path fill="#FFFFFF" d="M32.2,6.6C32.2,6.6,32.2,6.6,32.2,6.6L32.2,6.6L32.2,6.6z"/>
					<path fill="#FFFFFF" d="M6.6,26.2c0,0.1,0.1,0.2,0.1,0.2C6.6,26.3,6.4,26.4,6.6,26.2z"/>
					<path fill="#FFFFFF" d="M55,0.5c0-0.1,0-0.1,0-0.1c0,0,0,0,0.1,0C55.1,0.5,55.1,0.5,55,0.5z"/>
					<path fill="#FFFFFF" d="M32.6,3.9l-0.2,0.2C32.4,4,32.5,3.9,32.6,3.9z"/>
					<path fill="#FFFFFF" d="M14.9,17.4L14.9,17.4C14.8,17.4,14.8,17.4,14.9,17.4z"/>
					<path fill="#FFFFFF" d="M31.6,4.4c0,0.1,0,0.2,0,0.2c0,0,0,0-0.1,0L31.6,4.4z"/>
					<path fill="#FFFFFF" d="M6.7,26.5L6.7,26.5L6.7,26.5z"/>
					<path fill="#FFFFFF" d="M5.1,27.4c0.2-0.2,0.4,0.1,0.5,0.2c0.3-0.2-0.1-0.3-0.2-0.5C5.6,27,6,27.1,6,27c0,0,0-0.1-0.1-0.1
						c0.4,0,0.4-0.4,0.8-0.4c0,0,0-0.1,0-0.1c0.1,0.1,0.3,0.3,0.4,0.4c0.1-0.1,0.3,0,0.2-0.2c0,0.1-0.1,0-0.2,0l0.2,0
						c-0.2-0.3-0.2,0-0.4-0.1c0.2-0.1,0.6-0.1,0.7-0.3c-0.2-0.3-0.4,0.2-0.4-0.1L7,26.3c-0.3-0.5-0.1,0.2-0.4-0.4
						c0.2-0.3,0.4-0.2,0.6-0.5c0.2,0.1,0.2,0.2,0.4,0.3c0.6-0.2-0.4-0.9,0.2-0.9c0.2,0.1,0.6,0.3,0.6,0L8,24.6
						c0.2-0.3,0.5,0.2,0.6-0.2c-0.2-0.1-0.3,0.1-0.3,0.1c-0.1-0.4,0.3,0,0.4-0.1L8.5,24c0.3-0.2,0.7-0.4,1.1-0.7
						c-0.1-0.1-0.2-0.1-0.2-0.2c0.5-0.3,0.7-0.8,0.9-1.4l0.3,0.1c0,0,0-0.2-0.1-0.2c0.1-0.2,0.1,0.1,0.3,0.1c0.1-0.1,0-0.2-0.1-0.2
						c0.4-0.1,1.1-0.4,1.1-0.8l-0.1,0c0.1-0.3,0.7,0.2,0.6-0.2l-0.1,0c0.3-0.5,1-0.9,1-1.5c0.4,0.2,0.3-0.6,0.8-0.2
						c0-0.5-0.1-0.5,0.1-0.9c0.1-0.1,0.4,0.1,0.6,0.1l-0.2-0.2l0.4,0.1l-0.2-0.3l0.2-0.1c0,0.1,0,0.2,0.1,0.2
						c0.3-0.1,0.3-0.6,0.2-0.7l0.6-0.2c-0.1-0.1-0.2,0-0.3,0c0.4,0-0.2-0.3,0.2-0.3c0,0.1,0.1,0.1,0.2,0.2c0-0.2,0.2-0.5,0.4-0.6
						L16,16c0.3-0.3,0.7-0.5,1.1-0.9c-0.1,0.2,0.2,0.4,0.3,0.4l-0.2-0.3c0.2,0.1,0,0.2,0.3,0.2c0.1-0.1-0.2-0.4-0.3-0.4l0.2-0.1
						c-0.1-0.1-0.1-0.1-0.2-0.2c0.2,0.1,0.1-0.5,0.4-0.3l-0.1-0.1c0.4-0.3,0.6-0.4,0.9-0.6c0.2,0.2,0.3,0.1,0.5,0.2
						c0.2-0.3,0.2-0.6,0.5-0.8c0.3-0.1,0.2,0.1,0.4,0.2c-0.2-0.2,0.1-0.4-0.1-0.4c0.3-0.2,0.4-0.3,1-0.5c0,0.1,0,0.2,0.1,0.2
						c0.1,0,0.1-0.2,0-0.3l0,0c0.7-0.1,0.6-1.4,1.3-1.3l0,0l0.6-0.1c0.1-0.2-0.2-0.1-0.2-0.3c0.7,0,0.6-0.6,1.1-0.6
						c-0.2-0.8,1-0.6,1.1-1.3l0.1,0.2c0.2,0.1,0.1-0.2,0.1-0.2c0.1,0.1,0,0.2,0.1,0.2c0.9-0.4,1.5-1.4,2.3-2.1
						c0.3-0.2,0.7,0.7,0.8,0.1l-0.3-0.2c0.9-0.1,1.3-0.8,2.1-0.9c-0.1,0-0.1-0.1-0.2-0.1c0-0.3,0.5-0.3,0.6-0.1
						c0.1-0.1-0.1-0.2-0.1-0.3C30.2,5,30.7,5.3,30.6,5c0,0-0.1,0-0.1-0.1C30.6,5,30.9,4.7,31,5c0.2-0.2,0.5-0.1,0.6-0.4
						c0.3,0.2,0.4-0.4,0.6,0c-0.2-0.4,0.3-0.5,0.5-0.4c-0.1-0.1,0.1-0.2-0.1-0.3C32.8,3.8,33,3.8,33.1,4c0.1-0.7,0.8,0,0.7-0.7
						c0.7,0,1.2-0.1,1.8-0.2c-0.2-0.4-0.6,0.2-0.7-0.3c0.5,0,1,0.2,1.4-0.1c0.1-0.1-0.1-0.2-0.2-0.2c0.5,0,0.9-0.4,1.4-0.3
						c0,0-0.1-0.1-0.1-0.1c0.1,0,0.2-0.1,0.2,0.1l-0.1,0c0,0.3,0.5,0.5,0.6,0.6c-0.3-0.5,0.4-0.3-0.1-0.9C38,2,38.1,2,38.1,2.2
						c0.1-0.1,0.1-0.1-0.1-0.3c0.3,0,0.3,0.2,0.6,0.2c0-0.1-0.1-0.1-0.2-0.2C38.7,2,38.9,2.1,39.1,2c0-0.1,0-0.1-0.1-0.1
						c0.4-0.1,0.8,0.3,1.2,0c-0.2-0.4,0.1-0.2,0-0.6l0.3,0l0,0.2c0.2-0.1,0.5,0.2,0.6,0l-0.2-0.1l0.4,0l-0.2,0.2
						c0.3,0.1,0.1,0.5,0.3,0.3c-0.1,0,0.2-0.1,0.3-0.3l0,0c0.1,0.1,0.3,0.2,0.4,0.1c0-0.1-0.1-0.4-0.1-0.5c0.2,0.3,0.5,0,0.7,0.3
						c-0.1-0.1-0.1-0.3-0.1-0.3l0.1,0.2c0.1-0.1,0.1-0.1,0-0.3c0.3-0.1,0,0.5,0.3,0.2c0,0,0-0.1-0.1-0.1c0.3-0.2,0.7,0,1-0.2
						c0-0.4-0.3,0-0.2-0.4c0.5,0,1,0.3,1.5,0.1l-0.1,0.1c0.1,0.5,0.3-0.3,0.6-0.1c-0.1,0-0.1-0.3-0.1-0.2c0.3-0.1,0.7,0,1.1,0.1
						l-0.1-0.1c0.2-0.1,0.5-0.1,0.7-0.2c0.1,0.1,0.2,0.1,0.1,0.3C48-0.2,48.6,1,49.1,0.3c-0.1,0-0.2-0.1-0.1-0.1l0.5,0.1
						c0,0.2-0.1,0.1-0.2,0.3c0.1,0.1,0.2,0.2,0.3,0.2c-0.2-0.1,0-0.4,0.1-0.5c0,0.1,0,0.1,0,0.2c0.2-0.4,0,0.5,0.4,0.2l0-0.1
						c0.1,0.1,0.2,0.2,0.4,0.2c0.1-0.3-0.1-0.1-0.1-0.3c0.2,0,0.4,0.5,0.5,0.3c-0.1-0.1-0.2-0.1-0.3-0.2c0.2-0.3,0.2-0.2,0.3-0.3
						l0,0l0.3-0.1l-0.1,0.1c0.2,0.7,0.5,0.2,0.8,0.6c-0.3-0.4,0-0.3,0-0.6c0.1-0.1,0.2-0.2,0.2-0.3c0.1,0.3,0.3-0.2,0.5,0.2
						c0-0.1,0.2,0,0.1-0.2c0.2,0.1-0.1,0.2-0.1,0.3c0.3,0.3,0.7-0.4,1.1,0.1c0.3,0.2,0.4,0.6,0.7,0.8c0.1-0.1,0-0.4,0-0.4
						c0.2-0.1,0.3-0.1,0.5,0.1c0-0.1,0-0.2,0.1-0.3c0.1,0,0,0.4,0.2,0.3c0-0.1,0-0.3-0.1-0.4c0.2,0.1,0.3,0.3,0.4,0.4
						c0.1-0.2-0.1-0.3-0.1-0.4C55.7,0.6,55.9,0.8,56,1l-0.1,0.1c0.1,0,0.1-0.2,0-0.3c-0.1-0.2-0.3,0.1-0.3,0.2l0.1,0.1
						c-0.2,0.5-0.5-0.2-0.7-0.2l0,0.4l-0.2-0.4c-0.1,0.1-0.1,0.3,0,0.4c-0.2,0.2-0.1-0.2-0.3,0c0,0,0,0.1,0,0.1l-0.2-0.1
						c0,0.1-0.1,0.3,0,0.2c-0.3,0.2-0.4-0.4-0.6-0.1l0,0c-0.4-0.2,0-0.3-0.3-0.7l-0.3,0.7l0-0.3c0,0-0.1,0-0.1,0.1
						c-0.1-0.2,0-0.1,0-0.3c-0.2,0.3-0.6-0.2-0.7,0.3c-0.1-0.2,0.2-0.2,0-0.3c-0.1,0.5-0.3-0.1-0.5,0.1c0,0.3,0.2,0.1,0,0.4
						c-0.1-0.5-0.4,0.1-0.5,0c0-0.4-0.3-0.2-0.6-0.3c0,0.1-0.5,0.2-0.8,0.3l0,0.1c0-0.4-0.3-0.3-0.5-0.4c0,0.2,0,0.3,0.1,0.4l-0.2,0
						c0-0.1-0.1-0.2-0.2-0.2l0.1,0.3c-0.2,0-0.5-0.3-0.8-0.1c0-0.3,0.2-0.7-0.1-0.9c0,0.1,0,0.4,0.1,0.4c0,0-0.1-0.1-0.2,0l0.1,0.2
						c-0.1,0.1-0.1-0.2-0.2-0.2c0,0.2-0.1,0.1,0,0.3c0,0,0.1-0.1,0.1,0c-0.1,0-0.3,0.2-0.3,0.3c0-0.1,0-0.3-0.1-0.3
						c-0.2,0-0.1,0.2-0.2,0.3c-0.1-0.1-0.2,0-0.2-0.3c-0.1,0-0.1,0.1-0.1,0.2c-0.1-0.1-0.6,0-0.5-0.3l0,0l0,0l0,0l0,0
						c-0.4-0.2-0.8,0.3-1.2,0.2l0,0.1c-0.2-0.1-0.5,0-0.7-0.2c-0.1,0-0.1,0.2-0.1,0.3c-0.2,0-0.2-0.2-0.5,0C44.8,2,44.5,2,44.8,2
						c-0.2,0.1-0.2,0.3-0.5,0c0.1,0.2-0.1,0.3-0.2,0.3l0.1-0.2c-0.1,0-0.2,0-0.3,0.1l0.1,0.3c-0.4,0.5-1-0.5-1.2,0.3
						c-0.2-0.2,0.2-0.2,0-0.5c-0.2,0.1-0.3,0.6-0.4,0.6c-0.2,0.2-0.4-0.4-0.7-0.2c0-0.1,0-0.4-0.3-0.5c-0.2,0.1-0.1,0.5,0,0.6
						c0.1,0,0.1,0,0.1-0.1c0.1,0,0.2,0.1,0.1,0.2l-0.1-0.1C41.5,3,41.2,3,41.3,3.2c-0.2-0.1-0.1-0.2,0-0.3c-0.2,0.2-0.4,0.1-0.7,0.3
						c0-0.1,0-0.2,0-0.2c-0.4,0.3-0.2-0.2-0.5-0.1C40,3.2,40.3,3.3,40,3.3c-0.1,0.2,0.1,0.3,0.2,0.4C39.8,3.5,39.7,4,39.6,4l0.2,0
						c-0.1,0-0.2,0-0.2,0l0-0.2c-0.1,0.1-0.1,0.1-0.1,0.2c-0.1-0.1-0.1-0.4-0.3-0.5c-0.1,0.1-0.4,0-0.3,0.3c0.3-0.2,0.1,0.3,0.4,0.3
						c-0.1,0-0.1,0-0.2,0.1c0,0,0,0.1,0.1,0.1c-0.2,0.4-0.3-0.3-0.6-0.2c0.1,0.2,0,0.3,0,0.3c0.1,0,0-0.3-0.2-0.4
						c-0.2,0.2-0.3,0-0.4,0L38,3.9c-0.1-0.1-0.2-0.1-0.4-0.1c0,0.1,0.2,0,0.1,0.1c-0.3-0.2-0.2,0.5-0.5,0.3
						c-0.1,0.2,0.1,0.3,0.1,0.4c-0.3-0.1-0.2,0.3-0.5,0.3c0-0.3,0-0.2-0.3-0.3l0.5,0l-0.4-0.2c0.1-0.1,0.3,0,0.4,0
						c-0.2-0.1-0.2-0.1-0.2-0.3c0,0.4-0.4,0-0.5,0.3l0.2,0.5c-0.2,0.4-0.7-0.1-1,0.3l0.1-0.1c-0.1-0.2-0.3,0.1-0.4,0
						c0.1,0.2,0,0.3,0,0.4c-0.1-0.1-0.3,0.1-0.5-0.2l-0.1,0.3c-0.3,0.3-0.6-0.3-0.9-0.1c0.2,0.1,0.1,0.3,0.4,0.4
						c-0.1,0.1-0.2,0.1-0.2,0c0,0.1-0.4-0.1-0.4,0.1c-0.1-0.1-0.2-0.2-0.3-0.2c0,0,0,0.1,0,0.1c0-0.1-0.2,0-0.2-0.3
						c0,0.7-0.9,0.4-0.9,1c-0.2,0.1-0.5,0.1-0.7,0.2c0,0,0,0.1,0.1,0c-0.2,0.3-0.4-0.4-0.6-0.1c0,0.4,0.2,0.1,0.2,0.2
						c0.3,0.6-0.4,0.1-0.4,0.6l0.1,0c0,0.3-0.5,0-0.7,0.2c0,0,0,0,0.1,0.1c-0.3-0.2-0.7-0.1-1,0c0.2,0.2,0.2,0,0.3,0.3
						c-0.1,0-0.2-0.4-0.4-0.3c0,0.2-0.1,0.4,0,0.6l0.2-0.1c0.1,0.4-0.3,0.1-0.3,0.3l0.1,0.1c-0.3,0.1-0.6-0.2-0.9,0l0-0.1
						c-0.4-0.2,0,0.3-0.4,0.2l0.2,0.4c-0.2,0-0.6,0-0.9,0.1c0.3,0.2,0.6,0.1,0.9,0.2c-0.1,0.1-0.4,0.2-0.6,0.1c0.1,0,0.2,0,0.2,0
						c-0.3-0.2-0.6-0.2-0.8,0c0.5,0.6-0.5,0.6-0.3,1.2c-0.6,0.1-0.7,0.7-1.2,0.9c-0.2-0.6-0.1,0.1-0.5-0.4c-0.1,0-0.2,0.1-0.2,0.1
						l-0.1,0.5c0,0.2,0.2,0,0.3,0.1c-0.2,0.2,0.1,0.3,0,0.5c-0.1-0.2-0.3-0.2-0.3,0l0-0.4c-0.5,0,0,0.6-0.5,0.6l0.2,0.1
						c-0.2,0-0.6,0.5-1.1,0.2c0,0.1,0.1,0.2,0.2,0.2c-0.3,0.4-1.2,0.3-1.3,0.8l0.1,0.1c-0.1,0-0.3-0.1-0.3,0.1c0,0,0.1,0.1,0.1,0.1
						c-0.1,0-0.4,0-0.4,0.1l0.2,0.1c-0.2,0.5-0.8,0.2-1.2,0.4c0.3,0.3,0.1,0.7,0,0.9l0,0c-0.4,0.4-1,0.4-1.5,0.6
						c0.1,0.6-0.7,0.9-0.9,1.4c0-0.1-0.2-0.2-0.3-0.2c0,0.2-0.5,0-0.2,0.3l0,0c0.2,0.4,0,0.5-0.2,0.6L17,18.2
						c0.2,0.9-1.2,0.8-0.9,1.4c-0.2,0-0.3,0.1-0.5,0.1l0.2,0.2c-0.2,0.3-0.3,0.4-0.7,0.7l0.2,0.1c-0.2,0.2-0.8-0.4-1-0.2l0.3,0.3
						c-0.3,0.3-0.3,0.9-0.9,0.9c0,0,0.1,0.1,0.2,0.1c-0.1,0.2-0.3,0.8-0.7,0.3c0.3,0.3-0.3,0.3-0.6,0.4l0.2,0.2
						c-0.4-0.1-0.5-0.2-0.7,0c0,0.1,0.1,0.2,0.1,0.1c0,0.3-0.3-0.1-0.4,0.2l0.2,0.1c-0.1,0.2-0.2,0.1-0.4,0c-0.2,0-0.2,0.4-0.1,0.5
						c-0.1-0.1-0.4-0.1-0.4,0c0.1,0.1,0.1,0.1,0.2,0.1c-0.1,0.4-0.6,0.2-0.6,0.5c0.1,0.1,0.1,0.1,0.1,0.1c0.2-0.2,0.3-0.4,0.3-0.4
						c0.2,0.2,0.1,0.4,0.5,0.5c-0.3,0-0.8,0-0.9,0.2c0,0,0,0,0,0.1l0,0c0,0.1-0.1,0.1-0.1,0.1c0,0.1,0,0.1-0.1,0.2
						c0.1,0.2-0.1,0.3-0.2,0.4c-0.2-0.2-0.3,0-0.3-0.3c0,0,0,0,0.1,0c0,0,0,0,0.1,0l0,0c0.1-0.1,0.1-0.1,0.2-0.2
						c-0.2,0-0.3,0-0.3,0.2c-0.2-0.1-0.4-0.1-0.4-0.2c0.2,0.4,0.1,0.8,0.3,1c-0.4,0.2-0.6,0.6-1.2,0.4c-0.1,0,0,0.2,0.1,0.3
						c0.1,0,0.1-0.1,0.2,0c-0.2,0.1-0.4,0.4-0.7,0.2c0,0.3,0.4,0.1,0.1,0.3l0.1,0c0,0.9-1.5,0.2-1.4,1.3c0-0.1,0-0.1,0-0.2
						c-0.3,0.9-1.4,1.2-1.6,2.2c-0.1,0.3-0.3,0.1-0.5,0.1l0.2,0.2l-0.4,0c-0.4,0.1,0.2,1-0.5,1l-0.1-0.2c-0.1,0.2-0.4,0.3-0.2,0.5
						c0,0-0.2-0.1-0.2,0L4,32.1l-0.5,0.1c-0.1,0.3,0.5,0.4,0.3,0.7c-0.2,0.1-0.7,0.1-0.7,0c0-0.1,0-0.2-0.1-0.3l-0.2,0.1
						c-0.4-0.3-0.8-0.5-0.8-1l0.4,0l-0.1-0.2l-0.2,0.2c-0.1-0.2,0.1-0.2,0.3-0.2c-0.1-0.1-0.1-0.2-0.1-0.2l0.5,0.1
						c-0.1-0.1-0.4-0.1-0.3-0.3c0.2,0,0.2,0.3,0.5,0.3c-0.1-0.2-0.2-0.3,0-0.3c-0.1-0.1-0.2-0.1-0.2-0.1c0.2,0,0.3-0.2,0.5-0.1
						c-0.1-0.3,0.3-0.3,0-0.6c0.1,0,0.4,0,0.5-0.1c-0.6-0.2,0.3-0.4-0.2-0.7C4,29.5,4.1,29,4.5,29c0,0-0.1,0-0.1,0
						c0.1-0.2,0-0.3,0-0.4c0.3,0.2,0.5,0.1,0.8,0.1c-0.2-0.4-0.4-0.2-0.7-0.5c0.2,0.2,0.5-0.1,0.6,0.2c-0.1-0.3,0-0.2-0.2-0.4
						c0.4,0.3,0.2-0.1,0.5,0c0-0.3-0.3-0.3,0-0.4C5.3,27.3,5.1,27.4,5.1,27.4z M9.6,23.4L9.6,23.4C9.6,23.5,9.5,23.5,9.6,23.4
						C9.5,23.5,9.6,23.5,9.6,23.4z M10,23.1c0,0.1-0.1,0.1-0.1,0.2c0.1,0.1,0.1,0.1,0.2,0.1C9.9,23.3,10,23.2,10,23.1z M10.7,25.2
						c0.1,0,0.1-0.1,0-0.1C10.7,25,10.7,25.1,10.7,25.2l-0.1-0.1C10.6,25.1,10.7,25.1,10.7,25.2z"/>
					<path fill="#FFFFFF" d="M10.3,25C10.3,25,10.3,25,10.3,25C10.3,25,10.3,25,10.3,25L10.3,25L10.3,25z"/>
					<path fill="#FFFFFF" d="M47,1.4L47,1.4C47,1.4,47,1.4,47,1.4C47,1.4,47,1.4,47,1.4z"/>
					<polygon fill="#FFFFFF" points="14.4,17.7 14.4,17.8 14.4,17.8 					"/>
					<path fill="#FFFFFF" d="M49.7,0.3C49.7,0.3,49.7,0.3,49.7,0.3C49.8,0.3,49.8,0.3,49.7,0.3z"/>
					<path fill="#FFFFFF" d="M50.9,0.3l0.2-0.1C51,0.2,51,0.3,50.9,0.3z"/>
					<path fill="#FFFFFF" d="M51.9,0.2c0,0,0,0.1,0,0.1l0,0L51.9,0.2z"/>
					<path fill="#FFFFFF" d="M37.3,2.2C37.3,2.2,37.2,2.2,37.3,2.2C37.1,2.2,37.2,2.2,37.3,2.2z"/>
					<path fill="#FFFFFF" d="M41.7,1.5c-0.1,0-0.1-0.1-0.2-0.1C41.6,1.4,41.6,1.4,41.7,1.5z"/>
					<polygon fill="#FFFFFF" points="32.6,3.9 32.6,3.9 32.6,3.9 					"/>
					<path fill="#FFFFFF" d="M41.3,1.5c0.1-0.1,0.1-0.1,0.2-0.1C41.4,1.5,41.4,1.5,41.3,1.5z"/>
					<path fill="#FFFFFF" d="M55.9,0.5L55.9,0.5C55.9,0.5,55.9,0.5,55.9,0.5L55.9,0.5z"/>
					<path fill="#FFFFFF" d="M55.9,0.5L55.9,0.5C56,0.6,55.9,0.6,55.9,0.5z"/>
					<path fill="#FFFFFF" d="M56.1,0.6L56.1,0.6C56,0.6,56.1,0.6,56.1,0.6z"/>
					<path fill="#FFFFFF" d="M54.6,0.4l0-0.1C54.7,0.3,54.7,0.4,54.6,0.4z"/>
					<path fill="#FFFFFF" d="M54.3,0.3c0.1,0,0.2-0.2,0.4-0.1l0,0.1C54.6,0.2,54.3,0.5,54.3,0.3z"/>
					<path fill="#FFFFFF" d="M52.6,1.5l0.3-0.1c-0.1,0.1-0.1,0.2,0,0.3C52.5,2,53,1.4,52.6,1.5z"/>
					<path fill="#FFFFFF" d="M51.7,1.6c0.2,0.1,0,0.2,0,0.2C51.6,1.7,51.6,1.7,51.7,1.6z"/>
					<path fill="#FFFFFF" d="M45,1.9L45,2.2C44.9,2.2,45,2.1,45,1.9z"/>
					<polygon fill="#FFFFFF" points="43.5,0.9 43.5,0.7 43.6,0.9 					"/>
					<polygon fill="#FFFFFF" points="43.1,2.8 43.1,2.8 42.9,2.8 					"/>
					<path fill="#FFFFFF" d="M32.6,6.7l-0.1-0.3C32.6,6.4,32.7,6.7,32.6,6.7z"/>
					<path fill="#FFFFFF" d="M28.2,8.9c0,0.2,0,0.3-0.2,0.2C28.1,9.1,28.1,8.9,28.2,8.9z"/>
					<polygon fill="#FFFFFF" points="17.1,18.6 17.2,18.6 17,18.7 					"/>
				</g>
			</g>
		</g>
		<g>
			<g>
				<g>
					<path fill="#FFFFFF" d="M28.2,29.6c0,0.1,0,0.3-0.1,0.2l0-0.3L28.2,29.6z"/>
					<path fill="#FFFFFF" d="M27.5,30.1c-0.1-0.2-0.1-0.5,0-0.8c0,0.3,0.1,0.2,0.1,0.6c0.1,0.1,0.2-0.1,0.2-0.2
						c0,0.1,0.1-0.1,0.1,0.2c-0.1,0.2-0.3,0.2-0.4,0C27.5,29.9,27.5,30,27.5,30.1z"/>
					<path fill="#FFFFFF" d="M19.5,30L19.5,30C19.6,30,19.6,30,19.5,30z"/>
					<path fill="#FFFFFF" d="M14.7,30.8C14.8,30.8,14.8,30.8,14.7,30.8C14.7,30.8,14.7,30.8,14.7,30.8z"/>
					<path fill="#FFFFFF" d="M14,31.3C14,31.3,14,31.3,14,31.3C14,31.3,14,31.3,14,31.3z"/>
					<path fill="#FFFFFF" d="M19.5,30l-0.1,0.1C19.4,30,19.5,30,19.5,30z"/>
					<path fill="#FFFFFF" d="M26.5,29.1C26.6,29.2,26.6,29.2,26.5,29.1C26.6,29.2,26.6,29.2,26.5,29.1L26.5,29.1z"/>
					<path fill="#FFFFFF" d="M21.7,30.3L21.7,30.3c0,0,0.1,0.1,0.1,0.1L21.7,30.3z"/>
					<path fill="#FFFFFF" d="M23.3,30.4c0,0,0-0.3,0-0.4c0,0.1,0,0.2,0.1,0.2C23.4,30.3,23.4,30.3,23.3,30.4z"/>
					<path fill="#FFFFFF" d="M26,30.2L26,30.2C26,30.2,26,30.2,26,30.2z"/>
					<path fill="#FFFFFF" d="M20.5,30.3c0,0,0,0.1,0,0.1C20.5,30.4,20.5,30.3,20.5,30.3z"/>
					<path fill="#FFFFFF" d="M8.7,8.7C8.7,8.7,8.6,8.7,8.7,8.7C8.7,8.7,8.7,8.7,8.7,8.7z"/>
					<polygon fill="#FFFFFF" points="7.6,6.5 7.6,6.6 7.4,6.5 					"/>
					<path fill="#FFFFFF" d="M12.6,32.1L12.6,32.1C12.7,32.1,12.7,32.1,12.6,32.1z"/>
					<path fill="#FFFFFF" d="M0.7,32.5c0.2,0.2,0.5-0.4,0.7-0.1C1.3,32.4,0.8,32.8,0.7,32.5z"/>
					<path fill="#FFFFFF" d="M26.5,29.2C26.5,29.2,26.5,29.2,26.5,29.2C26.5,29.1,26.5,29.2,26.5,29.2z"/>
					<path fill="#FFFFFF" d="M1.4,32.4L1.4,32.4L1.4,32.4C1.4,32.4,1.4,32.4,1.4,32.4z"/>
					<path fill="#FFFFFF" d="M9.3,33c0,0,0-0.1,0-0.1C9.3,32.9,9.3,32.9,9.3,33z"/>
					<path fill="#FFFFFF" d="M11.6,31.8L11.6,31.8C11.6,31.8,11.6,31.8,11.6,31.8z"/>
					<path fill="#FFFFFF" d="M7.8,33.1C7.8,33.1,7.8,33.2,7.8,33.1C7.7,33.1,7.7,33.1,7.8,33.1C7.8,33.1,7.8,33.1,7.8,33.1z"/>
					<path fill="#FFFFFF" d="M6.5,33.6C6.5,33.6,6.5,33.6,6.5,33.6L6.5,33.6L6.5,33.6z"/>
					<path fill="#FFFFFF" d="M7.8,13c-0.1,0-0.2-0.1-0.2-0.1C7.7,13,7.9,12.8,7.8,13z"/>
					<path fill="#FFFFFF" d="M26.5,29.3c0-0.1,0-0.1,0-0.1c0,0,0,0,0,0C26.5,29.2,26.5,29.3,26.5,29.3z"/>
					<path fill="#FFFFFF" d="M7,31l-0.2,0.1C6.8,31.1,6.9,31.1,7,31z"/>
					<path fill="#FFFFFF" d="M5.6,23.2L5.6,23.2C5.7,23.2,5.7,23.2,5.6,23.2z"/>
					<path fill="#FFFFFF" d="M6.1,31.4c0,0.1,0,0.2-0.1,0.2c0,0,0,0-0.1-0.1L6.1,31.4z"/>
					<path fill="#FFFFFF" d="M7.6,12.9L7.6,12.9L7.6,12.9z"/>
					<path fill="#FFFFFF" d="M8.5,11.5c0,0.2-0.4,0-0.6,0c-0.1,0.2,0.2,0.2,0.4,0.3c-0.1,0.1-0.5,0.2-0.5,0.3c0.1,0,0.1,0,0.2,0
						c-0.3,0.1-0.1,0.5-0.5,0.6c0,0,0.1,0,0.1,0c-0.2-0.1-0.4-0.1-0.5-0.1c0,0.1-0.3,0.1,0,0.2c0-0.1,0.1,0,0.2-0.1L7.1,13
						c0.3,0.2,0.1-0.1,0.4-0.1c-0.1,0.2-0.5,0.4-0.4,0.5c0.3,0.1,0.2-0.3,0.4-0.1l-0.1-0.3c0.5,0.3,0-0.1,0.5,0.1
						c0,0.3-0.2,0.3-0.2,0.6c-0.2,0-0.3-0.1-0.5,0c-0.4,0.4,0.8,0.5,0.3,0.7c-0.2,0-0.7,0-0.5,0.3l0.4,0c0,0.3-0.6,0.1-0.4,0.4
						c0.2,0,0.2-0.2,0.2-0.2C7.5,15.4,7,15.2,7,15.4l0.3,0.1c-0.1,0.3-0.4,0.6-0.6,0.9c0.1,0,0.2,0,0.3,0.1c-0.3,0.4-0.2,1,0,1.4
						L6.7,18c0,0,0.1,0.1,0.2,0.1c0.1,0.2-0.2,0-0.3,0c0,0.1,0.1,0.2,0.2,0.1c-0.3,0.2-0.7,0.7-0.5,1.1l0.1,0
						c0.1,0.3-0.6,0.1-0.4,0.4l0.1,0c0,0.5-0.4,1.1,0,1.6c-0.4,0,0.1,0.6-0.5,0.5C5.8,22.1,5.9,22,6,22.5c0,0.1-0.4,0.1-0.5,0.2
						l0.3,0.1l-0.4,0.1L5.8,23l-0.1,0.1c0-0.1-0.1-0.1-0.2-0.2c-0.2,0.2,0.1,0.5,0.2,0.6L5.4,24c0.1,0,0.2-0.1,0.3-0.1
						c-0.4,0.2,0.3,0.1,0,0.3c-0.1,0-0.2,0-0.2,0c0.2,0.2,0.1,0.4,0,0.6l0.2,0c0,0.4-0.3,0.7-0.4,1.1c-0.1-0.2-0.4-0.2-0.5-0.1
						L5,25.9c-0.2,0-0.1-0.2-0.4-0.1C4.6,26,4.9,26,5.1,26l-0.2,0.2c0.1,0,0.2,0,0.3,0c-0.2,0,0.2,0.4-0.1,0.4l0.1,0
						c-0.1,0.4-0.3,0.6-0.4,0.9c-0.3-0.1-0.2,0.1-0.5,0.1c0,0.3,0.2,0.6,0.1,0.9c-0.2,0.2-0.2,0-0.4,0c0.2,0.1,0.1,0.4,0.4,0.3
						c-0.1,0.3-0.2,0.4-0.5,0.8c-0.1-0.1-0.1-0.1-0.2-0.1c-0.1,0.1,0.1,0.2,0.2,0.2l0,0C3.3,30,4.2,31,3.6,31.2l0,0l-0.4,0.3
						c0,0.2,0.2-0.1,0.3,0.1c-0.6,0.4,0,0.3-0.4,0.5c0.4,0,0.4,0,0.3,0c-0.1,0.1-0.2,0.2,0.1,0l-0.2,0.2c-0.2,0.2,0.1-0.1,0.2-0.1
						c-0.2,0.1-0.2,0.1-0.3,0.3c-0.1,0.1-0.1,0.2-0.1,0.2c0,0,0,0.1,0.2-0.1c0.3-0.2,0.5-0.5,0.5-0.6c0-0.1-0.5,1.2-0.2,0.6
						c0,0,0-0.1,0-0.2c0-0.1,0.1-0.2,0.1-0.2c0,0.2,0.1,0.2,0.1,0.2c0.1,0,0,0,0.2-0.1c0.2,0,0.3-0.1,0.5,0
						c-0.1-0.1-0.1-0.1-0.2-0.1c0-0.3,0.4-0.2,0.5,0c0.1-0.1,0-0.2,0-0.3c0.1-0.2,0.4,0.2,0.4-0.1c0,0-0.1-0.1-0.1-0.1
						c0.1,0.1,0.4-0.2,0.4,0.1c0.2-0.2,0.5,0,0.6-0.3c0.2,0.2,0.3-0.3,0.5,0.1c-0.2-0.4,0.3-0.5,0.5-0.3C7,31.3,7.1,31.2,7,31
						c0.2-0.1,0.3,0,0.4,0.2c0.1-0.6,0.7,0.2,0.7-0.5c0.6,0.1,1.1,0,1.5,0c-0.2-0.4-0.5,0.1-0.6-0.3c0.5,0,0.8,0.3,1.2,0.1
						c0.1-0.1-0.1-0.2-0.2-0.2c0.5,0,0.8-0.3,1.2-0.2c0,0-0.1-0.1-0.1-0.1c0.1,0,0.2-0.1,0.2,0.1l-0.1,0c0,0.3,0.5,0.5,0.5,0.7
						c-0.3-0.5,0.3-0.3-0.1-0.9c0.1,0,0.1,0.1,0.2,0.2c0.1-0.1,0.1-0.1-0.1-0.3c0.3,0,0.3,0.3,0.5,0.2c0-0.1-0.1-0.1-0.1-0.2
						c0.2,0.1,0.3,0.3,0.5,0.2c0-0.1,0-0.1-0.1-0.1c0.4-0.1,0.7,0.3,1.1,0.1c-0.2-0.4,0.1-0.2,0-0.5l0.2,0.1l0,0.2
						c0.2,0,0.4,0.2,0.5,0l-0.2-0.1l0.4,0l-0.2,0.2c0.2,0.2,0.1,0.5,0.3,0.3c-0.1,0,0.2,0,0.2-0.3l0,0c0.1,0.1,0.2,0.2,0.3,0.1
						c0-0.1-0.1-0.4-0.1-0.5c0.1,0.3,0.4,0,0.6,0.3c-0.1-0.1-0.1-0.3-0.1-0.3l0.1,0.2c0.1-0.1,0.1-0.1,0-0.3c0.2-0.1,0,0.5,0.3,0.2
						c0,0,0-0.1-0.1-0.1c0.3-0.2,0.6,0.1,0.9-0.1c0-0.4-0.3-0.1-0.2-0.4c0.4,0,0.9,0.4,1.3,0.2l-0.1,0c0.1,0.5,0.3-0.3,0.5-0.1
						c-0.1,0-0.1-0.3-0.1-0.2c0.3-0.1,0.6,0.1,1,0.2L19.3,29c0.2-0.1,0.4-0.1,0.6-0.2c0.1,0.1,0.2,0.1,0.1,0.3
						c0.5-0.8,1,0.4,1.5-0.2c-0.1,0-0.1-0.1-0.1-0.1l0.4,0.1c0,0.2-0.1,0.1-0.1,0.3c0,0.1,0.2,0.2,0.3,0.2c-0.2-0.2,0-0.4,0.1-0.5
						c0,0.1,0,0.1,0,0.2c0.2-0.4,0,0.5,0.3,0.2l0-0.1c0.1,0.1,0.2,0.2,0.3,0.2c0.1-0.3-0.1-0.1-0.1-0.4c0.2,0,0.3,0.5,0.4,0.3
						c-0.1-0.1-0.2-0.1-0.2-0.2C22.9,29,22.9,29,23,29l0,0l0.3-0.1L23.2,29c0.1,0.7,0.4,0.2,0.6,0.6c-0.2-0.4,0-0.3,0-0.6
						c0.1-0.1,0.2-0.2,0.2-0.3c0.1,0.3,0.2-0.2,0.4,0.2c0-0.1,0.1,0,0.1-0.2c0.2,0.1-0.1,0.2-0.1,0.3c0.2,0.4,0.6-0.3,1,0.2
						c0.3,0.2,0.3,0.6,0.6,0.8c0.1-0.1,0-0.4,0-0.4c0.2-0.1,0.3-0.1,0.4,0.1c0-0.1,0-0.2,0.1-0.3c0.1,0,0,0.4,0.2,0.2
						c0-0.1,0-0.3-0.1-0.4c0.1,0.1,0.2,0.3,0.4,0.4c0.1-0.2,0-0.3-0.1-0.4c0.2,0.1,0.4,0.2,0.4,0.5l-0.1,0.1c0.1,0,0.1-0.2,0-0.3
						c-0.1-0.2-0.2,0.1-0.2,0.2l0.1,0.1c-0.2,0.5-0.4-0.2-0.6-0.2l0,0.4l-0.2-0.4c-0.1,0.1-0.1,0.3,0,0.4c-0.2,0.2-0.1-0.2-0.3,0
						c0,0,0,0.1,0,0.1l-0.1-0.1c0,0.1-0.1,0.3,0,0.2c-0.3,0.2-0.4-0.4-0.5-0.1l0,0c-0.3-0.2,0-0.3-0.2-0.7l-0.3,0.7l0-0.3
						c0,0-0.1,0-0.1,0.1c-0.1-0.2,0-0.1,0-0.3c-0.2,0.3-0.5-0.2-0.6,0.3c0-0.2,0.2-0.2,0-0.3c-0.1,0.5-0.2-0.1-0.4,0.1
						c0,0.3,0.2,0.1,0,0.4c-0.1-0.5-0.3,0.1-0.5,0c0-0.4-0.3-0.2-0.5-0.3c0,0.1-0.5,0.2-0.7,0.3l0,0.1c0-0.4-0.3-0.3-0.4-0.4
						c0,0.2,0,0.3,0.1,0.4l-0.2,0c0-0.1-0.1-0.2-0.2-0.2l0,0.3c-0.2,0-0.4-0.3-0.7-0.2c0-0.3,0.2-0.7-0.1-0.9c0,0.1,0,0.4,0,0.4
						c0,0-0.1-0.1-0.1-0.1l0.1,0.2c-0.1,0.1-0.1-0.2-0.2-0.2c0,0.2-0.1,0.1-0.1,0.3c0,0,0.1-0.1,0.1,0c-0.1,0-0.2,0.1-0.3,0.3
						c0-0.1,0-0.3-0.1-0.3c-0.2,0-0.1,0.2-0.2,0.3c-0.1-0.1-0.2,0-0.2-0.3c-0.1,0-0.1,0.1-0.1,0.2c-0.1-0.1-0.5,0-0.4-0.3l0,0l0,0
						l0,0l0,0c-0.4-0.3-0.7,0.2-1.1,0.1l0,0.1c-0.2-0.1-0.5,0-0.6-0.2c-0.1,0-0.1,0.2-0.1,0.3c-0.2-0.1-0.2-0.2-0.4,0
						c0.2,0.2,0,0.2,0.2,0.1c-0.2,0.1-0.2,0.3-0.5,0c0.1,0.2-0.1,0.3-0.2,0.3l0.1-0.2c-0.1,0-0.2,0-0.3,0.1l0.1,0.3
						c-0.3,0.5-0.8-0.6-1,0.1c-0.1-0.2,0.2-0.2,0.1-0.4c-0.2,0.1-0.3,0.6-0.3,0.6c-0.2,0.2-0.3-0.4-0.6-0.3c0-0.1,0-0.4-0.2-0.5
						c-0.2,0.1-0.1,0.5,0,0.6c0,0,0.1,0,0-0.1c0.1,0,0.2,0.1,0.1,0.2l0-0.1c-0.1,0.1-0.3,0.2-0.2,0.4c-0.2-0.1-0.1-0.2,0-0.3
						c-0.2,0.2-0.4,0.1-0.6,0.3c0-0.1,0-0.2,0-0.2c-0.3,0.2-0.2-0.2-0.5-0.2c-0.1,0.2,0.2,0.4-0.1,0.3c-0.1,0.2,0,0.3,0.1,0.4
						c-0.3-0.2-0.4,0.2-0.5,0.3l0.1,0.1c-0.1,0-0.1,0-0.2,0l0-0.2c-0.1,0.1-0.1,0.1-0.1,0.2c-0.1-0.1-0.1-0.4-0.2-0.6
						c-0.1,0.1-0.3,0-0.3,0.3c0.3-0.2,0.1,0.3,0.3,0.3c-0.1,0-0.1,0-0.2,0.1c0,0,0,0.1,0.1,0.1c-0.2,0.4-0.2-0.3-0.5-0.2
						c0.1,0.2,0,0.3,0,0.3c0.1,0,0-0.3-0.2-0.4c-0.1,0.2-0.2,0-0.3,0l0.1-0.1c-0.1-0.2-0.2-0.1-0.3-0.1c0,0.1,0.1,0.1,0.1,0.1
						c-0.2-0.3-0.2,0.4-0.5,0.3c-0.1,0.1,0.1,0.3,0,0.4c-0.3-0.1-0.2,0.3-0.4,0.2c0-0.2,0-0.2-0.2-0.4l0.4,0L10.5,32
						c0.1,0,0.3,0.1,0.3,0c-0.2-0.1-0.1-0.1-0.2-0.3c0,0.4-0.4-0.1-0.5,0.2l0.2,0.6c-0.2,0.3-0.6-0.1-0.9,0.1l0.1-0.1
						c-0.1-0.2-0.2,0-0.4,0c0.1,0.2,0,0.3,0,0.4c0-0.1-0.2,0.1-0.4-0.3l-0.1,0.3c-0.2,0.2-0.5-0.4-0.8-0.2c0.2,0.2,0.1,0.3,0.3,0.4
						c-0.1,0-0.2,0.1-0.2,0c0,0.1-0.3-0.2-0.4,0.1c-0.1-0.1-0.2-0.3-0.2-0.2c0,0,0,0.1,0,0.1c0-0.1-0.2-0.1-0.2-0.3
						c-0.1,0.7-0.8,0.3-0.8,0.8c-0.2,0-0.5,0-0.7,0.1c0,0.1,0,0.1,0.1,0.1c-0.2,0.3-0.4-0.5-0.6-0.2c0,0.4,0.2,0.1,0.2,0.3
						c0.2,0.6-0.4,0-0.4,0.5l0.1,0c0,0.1-0.1,0.1-0.3,0.1c-0.1,0-0.1,0-0.2-0.1c-0.1,0-0.2,0-0.3,0.1c0,0,0,0,0,0.1
						c-0.3-0.2-0.7-0.2-1-0.2c0,0.3,0.1,0.1,0,0.4c-0.1,0,0.1-0.5-0.1-0.5c-0.1,0.2-0.3,0.4-0.5,0.8l0.3-0.1
						c-0.3,0.5-0.4,0.1-0.5,0.3l-0.1,0.2c-0.5,0.1-0.2-0.4-0.6-0.2l0.1-0.2c0.1-0.5-0.4,0.4-0.3,0.1l-0.5,0.6
						c-0.1-0.1-0.1-0.4-0.2-0.4c-0.3,0.4-0.1,0.5-0.1,0.7c-0.2,0.1-0.6,0.2-0.4-0.1c0,0,0,0.2,0.1,0c0.1-0.2,0.2-0.3,0.1-0.4
						c0,0,0-0.1-0.1-0.1c0,0,0,0,0-0.1c0,0,0-0.1,0-0.1c-0.6,0.6-0.6,0.5-0.6,0.3c0-0.2,0.1-0.5-0.2-0.3c0.3-0.5,0.4-0.8,0.4-1.1
						c0-0.3,0-0.6,0.2-1.1c0.6,0.1,0.1-0.2,0.8-0.3c0.1-0.2,0.1-0.2,0.1-0.2c0,0-0.2-0.5-0.2-0.5C1,31.8,1,32.1,0.8,32.1
						c0.1-0.4-0.2-0.2-0.3-0.5c0.2,0.1,0.4-0.1,0.3-0.4c0,0,0.2,0.4,0.2,0.4c0.3-0.3,0.1-0.4,0-0.5c-0.1-0.1-0.2-0.2,0-0.3l-0.2,0.1
						c0.2-0.1,0.2-0.6,0.7-0.7c-0.1-0.1-0.2-0.1-0.3-0.1c0.1-0.4,0.8-0.8,0.6-1.2l-0.2,0c0.1-0.1,0.3-0.1,0.2-0.2
						c-0.1,0-0.2,0-0.2,0c0.1,0,0.3-0.1,0.3-0.3l-0.2,0c-0.1-0.5,0.6-0.5,0.8-0.8c-0.4-0.1-0.5-0.5-0.5-0.7l-0.1,0
						c0.1-0.5,0.6-0.7,0.8-1.1c-0.4-0.4,0-1-0.1-1.5c0.1,0.1,0.3,0.1,0.4,0c-0.1-0.1,0.4-0.2,0-0.3l0,0c-0.4-0.2-0.2-0.4-0.2-0.5
						l0.5,0.1C2.9,23,4,22.5,3.4,22.1c0.2-0.1,0.2-0.2,0.3-0.3l-0.3-0.1c0-0.3,0-0.5,0.1-0.8l-0.2,0c0-0.2,0.9-0.1,0.9-0.3l-0.4-0.1
						c0.1-0.4-0.2-0.8,0.3-1.1c-0.1,0-0.2,0-0.2,0c0-0.2-0.1-0.7,0.4-0.5c-0.4-0.1,0-0.4,0.2-0.5l-0.3,0c0.4-0.1,0.5-0.1,0.6-0.3
						c0-0.1-0.2-0.1-0.2,0c-0.1-0.2,0.3-0.1,0.2-0.3l-0.2,0c0-0.2,0.1-0.2,0.3-0.2c0.1-0.1,0-0.4-0.2-0.4c0.2,0,0.4-0.1,0.3-0.2
						c-0.1,0-0.2,0-0.2,0c-0.1-0.3,0.4-0.4,0.2-0.7c-0.1,0-0.1,0-0.2-0.1c0,0.2-0.1,0.5,0,0.4c-0.3-0.1-0.3-0.3-0.6-0.2
						C4.6,16.4,5.1,16.2,5,16c0,0,0,0-0.1,0l0,0c0,0,0-0.1,0.1-0.1c0-0.1-0.1-0.1,0-0.2c-0.2-0.1-0.1-0.3-0.1-0.4
						c0.3,0.1,0.3-0.1,0.5,0.1c0,0,0,0-0.1,0.1c0,0,0,0,0,0l0,0c0,0.1,0,0.1-0.1,0.2c0.2-0.1,0.3-0.1,0.2-0.3c0.2,0,0.4,0,0.5-0.1
						c-0.4-0.2-0.5-0.5-0.7-0.6c0.2-0.3,0.2-0.7,0.8-0.8C5.9,14,5.7,14,5.7,13.9C5.6,14,5.6,14,5.5,14c0.2-0.1,0.1-0.5,0.5-0.5
						c-0.1-0.2-0.4,0.1-0.2-0.2l-0.1,0c-0.5-0.7,1.1-0.8,0.5-1.6c0,0.1,0.1,0.1,0.1,0.1c-0.2-0.8,0.6-1.5,0.2-2.3
						C6.4,9.3,6.6,9.3,6.8,9.2L6.5,9.1L6.9,9c0.3-0.3-0.6-0.7-0.1-1L7,8.1c0-0.1,0.2-0.4,0-0.4c0,0,0.2,0,0.1-0.1l-0.2,0l0.3-0.3
						C7.2,6.9,6.6,7.2,6.6,6.8c0.1-0.1,0.5-0.3,0.6-0.3c0,0.1,0.1,0.2,0.2,0.2l0.1-0.1c0.5,0,1,0,1.2,0.4L8.5,7.1l0.2,0.1l0-0.2
						c0.2,0.1,0,0.2-0.1,0.2c0.1,0,0.2,0.1,0.2,0.1L8.4,7.6c0.2,0.1,0.4,0,0.4,0.1c-0.2,0.1-0.4-0.2-0.5,0c0.2,0.1,0.4,0.1,0.2,0.2
						c0.1,0,0.2,0,0.3,0C8.5,8,8.6,8.2,8.3,8.2c0.2,0.2-0.1,0.4,0.3,0.4c-0.1,0-0.4,0.1-0.4,0.3c0.6-0.1,0,0.4,0.5,0.4
						c-0.5,0.1-0.3,0.5-0.6,0.7c0,0,0.1,0,0.1,0c0,0.1,0.1,0.2,0.2,0.3c-0.4,0-0.5,0.2-0.8,0.2c0.3,0.2,0.5,0,0.8,0.1
						c-0.3-0.1-0.4,0.3-0.6,0.1C8.1,11,8,10.9,8.3,11.1c-0.5-0.1-0.1,0.1-0.4,0.2c0.2,0.2,0.4,0.1,0.3,0.3
						C8.3,11.7,8.5,11.5,8.5,11.5z M6.7,16.4L6.7,16.4C6.7,16.4,6.7,16.3,6.7,16.4C6.7,16.3,6.7,16.4,6.7,16.4z M6.6,16.8
						c0-0.1,0-0.1,0-0.2c-0.1,0-0.2,0-0.2,0C6.5,16.6,6.5,16.7,6.6,16.8z M4.9,15.6c-0.1,0.1,0,0.1,0.1,0.1c0,0,0-0.1,0.1-0.1l0,0
						C5,15.6,4.9,15.5,4.9,15.6z"/>
					<path fill="#FFFFFF" d="M5.3,15.5C5.3,15.5,5.3,15.5,5.3,15.5C5.3,15.5,5.3,15.5,5.3,15.5L5.3,15.5L5.3,15.5z"/>
					<path fill="#FFFFFF" d="M19.6,30L19.6,30C19.6,30,19.6,29.9,19.6,30C19.6,29.9,19.6,29.9,19.6,30z"/>
					<polygon fill="#FFFFFF" points="5.9,22.8 5.8,22.7 5.9,22.7 					"/>
					<path fill="#FFFFFF" d="M22,29C22,29,22,28.9,22,29C22,28.9,22,29,22,29z"/>
					<path fill="#FFFFFF" d="M23,29l0.2-0.1C23.1,29,23,29,23,29z"/>
					<path fill="#FFFFFF" d="M23.8,28.9c0,0,0,0.1,0,0.1l0,0L23.8,28.9z"/>
					<path fill="#FFFFFF" d="M11.1,30C11.1,30,11.1,30,11.1,30C11,29.9,11,29.9,11.1,30z"/>
					<path fill="#FFFFFF" d="M14.9,29.6c0,0-0.1-0.1-0.1-0.1C14.9,29.5,14.9,29.5,14.9,29.6z"/>
					<polygon fill="#FFFFFF" points="7,31 7,31 7,31 					"/>
					<path fill="#FFFFFF" d="M14.6,29.6c0.1-0.1,0.1-0.1,0.2,0C14.7,29.6,14.7,29.6,14.6,29.6z"/>
					<path fill="#FFFFFF" d="M27.3,29.2L27.3,29.2C27.3,29.2,27.3,29.2,27.3,29.2L27.3,29.2z"/>
					<path fill="#FFFFFF" d="M27.3,29.3L27.3,29.3C27.3,29.3,27.3,29.3,27.3,29.3z"/>
					<path fill="#FFFFFF" d="M27.4,29.4L27.4,29.4C27.4,29.3,27.4,29.3,27.4,29.4z"/>
					<path fill="#FFFFFF" d="M26.2,29.2l0-0.1C26.2,29.1,26.2,29.1,26.2,29.2z"/>
					<path fill="#FFFFFF" d="M25.9,29.1c0.1,0,0.2-0.2,0.3-0.1l0,0.1C26.2,28.9,25.9,29.3,25.9,29.1z"/>
					<path fill="#FFFFFF" d="M24.4,30.2l0.3-0.1c-0.1,0.1-0.1,0.2,0,0.3C24.3,30.7,24.8,30.2,24.4,30.2z"/>
					<path fill="#FFFFFF" d="M23.6,30.3c0.1,0.1,0,0.2,0,0.2C23.5,30.4,23.5,30.4,23.6,30.3z"/>
					<path fill="#FFFFFF" d="M17.8,30.3l0,0.3C17.7,30.5,17.8,30.5,17.8,30.3z"/>
					<polygon fill="#FFFFFF" points="16.5,29.1 16.6,28.9 16.7,29.2 					"/>
					<polygon fill="#FFFFFF" points="16.1,31 16.2,31 16,31 					"/>
					<path fill="#FFFFFF" d="M6.8,33.7l-0.1-0.3C6.8,33.5,7,33.8,6.8,33.7z"/>
					<path fill="#FFFFFF" d="M1.8,35.3c-0.2,0.2-0.5,0.5-0.4,0.3C1.6,35.5,1.8,35.3,1.8,35.3z"/>
					<polygon fill="#FFFFFF" points="3.2,23.3 3,23.3 3.2,23.2 					"/>
				</g>
			</g>
		</g>
	</g>
</g>
</svg>
