<?xml version="1.0" encoding="utf-8"?>
<!-- Generator: Adobe Illustrator 18.0.0, SVG Export Plug-In . SVG Version: 6.00 Build 0)  -->
<!DOCTYPE svg PUBLIC "-//W3C//DTD SVG 1.1//EN" "http://www.w3.org/Graphics/SVG/1.1/DTD/svg11.dtd">
<svg version="1.1" id="Layer_1" xmlns="http://www.w3.org/2000/svg" xmlns:xlink="http://www.w3.org/1999/xlink" x="0px" y="0px"
	 viewBox="0 0 64.7 31.8" enable-background="new 0 0 64.7 31.8" xml:space="preserve">
<g>
	<g>
		<path fill="none" d="M25.8,31.2c0,0-12.4-9.3-24.5-15.4C11.4,11.2,16.6,9.9,23.5,0 M3.9,16.2C36.1,19.9,54.4,14.4,64.2,0"/>
		<g>
			<g>
				<g>
					<path fill="#FFFFFF" d="M64.7,0.4c-0.1-0.1-0.2-0.2-0.2-0.1l0.2,0.2L64.7,0.4z"/>
					<path fill="#FFFFFF" d="M63.8,0.5c0.1,0.2,0.2,0.5,0.5,0.6c-0.2-0.3-0.1-0.2-0.3-0.5c0-0.1,0.2-0.1,0.3,0c0-0.1,0.1-0.1,0-0.2
						c-0.3,0-0.4,0.1-0.3,0.3C63.9,0.7,63.9,0.6,63.8,0.5z"/>
					<path fill="#FFFFFF" d="M57.2,7L57.2,7C57.3,7,57.2,7,57.2,7z"/>
					<path fill="#FFFFFF" d="M52.4,10.1C52.5,10,52.5,10,52.4,10.1C52.4,10,52.4,10.1,52.4,10.1z"/>
					<path fill="#FFFFFF" d="M51.4,10.2C51.5,10.2,51.5,10.2,51.4,10.2C51.5,10.2,51.4,10.2,51.4,10.2z"/>
					<path fill="#FFFFFF" d="M57.2,7L57,7C57.1,7.1,57.1,7,57.2,7z"/>
					<path fill="#FFFFFF" d="M63.7,2.1c0,0,0-0.1,0-0.1C63.7,2,63.7,2,63.7,2.1L63.7,2.1z"/>
					<path fill="#FFFFFF" d="M58.9,5.1L58.9,5.1c0-0.1,0-0.1,0-0.2L58.9,5.1z"/>
					<path fill="#FFFFFF" d="M60.2,3.7c0,0,0.2,0.2,0.2,0.3c-0.1-0.1-0.1-0.2-0.1-0.2C60.3,3.8,60.3,3.8,60.2,3.7z"/>
					<path fill="#FFFFFF" d="M62.5,1.7L62.5,1.7C62.5,1.7,62.5,1.7,62.5,1.7z"/>
					<path fill="#FFFFFF" d="M57.8,6C57.8,6,57.8,5.9,57.8,6C57.8,6,57.8,6,57.8,6z"/>
					<path fill="#FFFFFF" d="M6,17.7C6,17.7,6,17.7,6,17.7C6,17.7,6,17.7,6,17.7z"/>
					<polygon fill="#FFFFFF" points="3.9,16.1 4,16.1 4,16 					"/>
					<path fill="#FFFFFF" d="M49.7,10.7L49.7,10.7C49.7,10.6,49.7,10.7,49.7,10.7z"/>
					<path fill="#FFFFFF" d="M34.3,15.3c0.2,0.2-0.3,0.4,0.1,0.6C34.3,15.8,34.6,15.5,34.3,15.3z"/>
					<path fill="#FFFFFF" d="M63.7,2.1C63.6,2.1,63.6,2.1,63.7,2.1C63.6,2.1,63.6,2.1,63.7,2.1z"/>
					<path fill="#FFFFFF" d="M34.4,15.9L34.4,15.9L34.4,15.9C34.4,16,34.4,16,34.4,15.9z"/>
					<path fill="#FFFFFF" d="M46.1,12.4C46.1,12.5,46.1,12.5,46.1,12.4C46.1,12.5,46.1,12.5,46.1,12.4z"/>
					<path fill="#FFFFFF" d="M49,11.7L49,11.7C49,11.7,49,11.7,49,11.7z"/>
					<path fill="#FFFFFF" d="M44.7,13.3c0,0-0.1,0-0.1,0C44.6,13.4,44.6,13.4,44.7,13.3C44.6,13.3,44.7,13.3,44.7,13.3z"/>
					<polygon fill="#FFFFFF" points="43.1,13.8 43.2,13.9 43.2,13.8 					"/>
					<path fill="#FFFFFF" d="M11.2,18.1c0-0.1,0-0.2-0.1-0.3C11.1,18,10.9,18.1,11.2,18.1z"/>
					<path fill="#FFFFFF" d="M63.6,2C63.6,2,63.7,2,63.7,2.1C63.7,2.1,63.7,2,63.6,2C63.6,2,63.6,2,63.6,2z"/>
					<path fill="#FFFFFF" d="M45.3,15.5l-0.3,0C45.2,15.5,45.3,15.5,45.3,15.5z"/>
					<path fill="#FFFFFF" d="M23.2,18.4L23.2,18.4C23.2,18.5,23.2,18.5,23.2,18.4z"/>
					<path fill="#FFFFFF" d="M44.3,15.8c-0.1-0.1-0.1-0.1-0.2-0.1c0,0,0,0,0,0.1L44.3,15.8z"/>
					<path fill="#FFFFFF" d="M11.1,17.8L11.1,17.8L11.1,17.8z"/>
					<path fill="#FFFFFF" d="M9.3,18.3c0.3,0,0.1-0.3,0.2-0.6c0.3-0.1,0.1,0.3,0.2,0.5c0.2-0.1,0.4-0.4,0.5-0.4c0,0.1,0,0.1,0,0.2
						c0.2-0.3,0.6,0,0.9-0.3c0,0,0,0.1,0,0.1c0-0.2,0-0.4,0-0.5c0.1,0,0.2-0.2,0.3,0c-0.1,0-0.1,0.1-0.1,0.2l0.1-0.1
						c0.1,0.4-0.2,0.1-0.2,0.4c0.2-0.1,0.5-0.4,0.7-0.3c0,0.3-0.4,0.1-0.2,0.4l-0.3-0.1c0.2,0.5-0.2,0,0,0.5c0.4,0.1,0.4-0.1,0.8,0
						c0.1-0.2,0-0.3,0.1-0.5c0.5-0.3,0.4,0.9,0.8,0.5c0.1-0.2,0.2-0.6,0.4-0.4l-0.1,0.4c0.4,0.1,0.2-0.5,0.6-0.3
						c-0.1,0.1-0.3,0.1-0.2,0.2c0.2,0.3,0.2-0.2,0.4-0.2l0,0.3c0.4,0,0.8-0.2,1.2-0.3c0,0.1-0.1,0.2,0,0.3c0.5-0.2,1.1,0.1,1.6,0.3
						l0.2-0.3c0,0,0.1,0.1,0,0.2c0.2,0.1,0-0.2,0.1-0.3c0.1,0,0.1,0.2,0.1,0.3c0.4-0.2,1-0.5,1.4-0.2l-0.1,0.1
						c0.3,0.1,0.3-0.6,0.6-0.3l-0.1,0.1c0.6,0.1,1.3-0.1,1.8,0.3c0.1-0.4,0.6,0.2,0.7-0.4c0.4,0.3,0.3,0.4,0.8,0.6
						c0.1,0,0.2-0.4,0.4-0.4l0,0.3l0.2-0.3l0.1,0.4l0.2-0.1c-0.1,0-0.1-0.1-0.1-0.2c0.2-0.1,0.6,0.2,0.6,0.4l0.6-0.3
						c0,0.1-0.1,0.2-0.2,0.2c0.3-0.3,0.1,0.3,0.3,0c0-0.1,0-0.2,0-0.2c0.1,0.2,0.5,0.2,0.7,0.1l0,0.2c0.4,0.1,0.9-0.1,1.4-0.2
						c-0.2-0.1-0.2-0.5,0-0.5l0.1,0.3c0.1-0.2-0.2-0.1,0-0.4c0.2,0,0.1,0.4,0,0.5l0.2-0.1c0,0.1,0,0.2,0,0.3
						c0.1-0.2,0.4,0.3,0.5-0.1l0,0.1c0.5,0,0.7-0.1,1.1-0.2c0-0.3,0.1-0.2,0.2-0.5c0.3,0.1,0.6,0.3,1,0.2c0.2-0.2,0.1-0.2,0.1-0.4
						c0,0.3,0.4,0.2,0.2,0.4c0.4-0.1,0.5-0.1,1-0.4c-0.1-0.1-0.1-0.1-0.1-0.2c0.1-0.1,0.2,0.1,0.2,0.2l0,0c0.5-0.4,1.4,0.6,1.8,0
						l0,0l0.4-0.3c0.2,0-0.1,0.2,0.1,0.3c0.5-0.5,0.8,0,1.2-0.4c0.4,0.7,1.2-0.2,1.7,0.2l-0.1-0.2c0.1-0.2,0.2,0.1,0.2,0.1
						c0-0.1-0.2-0.1-0.1-0.2c0.9-0.4,2.1-0.1,3.1-0.1c0.4,0,0-0.9,0.6-0.6L39.9,17c0.6-0.6,1.5-0.3,2.1-0.8c0,0.1,0,0.2-0.1,0.2
						c0.2,0.2,0.6-0.1,0.5-0.3c0.1,0,0.1,0.2,0.2,0.2c0.2,0.1,0.3-0.4,0.4-0.2c0,0,0,0.1,0,0.1c0.1-0.1,0.5-0.1,0.3-0.4
						c0.3,0,0.5-0.3,0.7-0.2c0-0.3,0.5,0,0.4-0.4c0.1,0.4,0.6,0.2,0.7-0.1c0,0.1,0.2,0.1,0.2,0.3c0.2-0.1,0.3-0.2,0.2-0.4
						c0.5,0.4,0.6-0.6,1-0.1c0.5-0.5,0.9-0.8,1.4-1.1c0.2,0.4-0.5,0.3-0.3,0.7c0.4-0.4,0.5-0.8,1-0.9c0.1,0,0,0.2,0,0.3
						c0.4-0.4,0.9-0.3,1.2-0.7c0,0,0,0.1,0,0.2c0.1-0.1,0.2,0,0.1-0.2l-0.1,0.1c-0.2-0.2,0.1-0.7,0-0.9c0.1,0.6,0.5-0.1,0.6,0.7
						c0-0.1,0.1-0.2,0-0.3c0.1,0,0.2,0.1,0.1,0.2c0.2-0.2,0-0.4,0.3-0.5c0,0.1,0,0.1,0,0.3c0-0.2,0.1-0.5,0.3-0.5
						c0,0.1,0.1,0.1,0,0.1c0.4-0.2,0.4-0.8,0.9-0.8c0.1,0.4,0.2,0.1,0.4,0.4l0.2-0.2l-0.2-0.1c0.2-0.1,0.2-0.4,0.4-0.4L53,11.4
						l0.3-0.3l-0.3,0c0.1-0.3-0.3-0.4,0-0.5c0,0.1,0.2-0.1,0.4,0l0,0c0-0.2,0.1-0.3,0.2-0.3c0.1,0.1,0.2,0.4,0.3,0.4
						c-0.1-0.3,0.4-0.3,0.3-0.7c0,0.1,0.1,0.3,0.1,0.3l-0.1-0.3c0.1,0,0.2,0,0.2,0.2c0.3-0.1-0.3-0.3,0.1-0.4c0,0,0,0.1,0,0.1
						c0.4-0.1,0.5-0.5,0.8-0.6c0.3,0.3-0.2,0.2,0.1,0.4c0.4-0.3,0.5-1,0.9-1.2l-0.1,0c-0.3-0.5,0.4,0,0.5-0.3c0,0.1,0.1,0.3,0.1,0.2
						c0.3-0.1,0.4-0.5,0.7-0.9l0,0.1c0.2,0,0.4-0.2,0.6-0.3c0-0.1,0.1-0.2-0.1-0.3c1,0.2,0.6-1.1,1.4-1c0,0,0,0.2,0,0.2l0.3-0.4
						c-0.2-0.1-0.1-0.1-0.3-0.1c-0.1-0.1,0-0.3,0.1-0.4c0,0.2,0.3,0.3,0.4,0.3c-0.1,0-0.1-0.1-0.1-0.2c0.5,0.1-0.3-0.4,0.1-0.4
						L60,5.4c0-0.1,0-0.3,0.1-0.4c0.2,0.1,0,0.2,0.1,0.3c0.1-0.1-0.1-0.6,0.2-0.6c0,0.1-0.1,0.2-0.1,0.3c0.3,0.1,0.3,0,0.4-0.1l0,0
						l0.3-0.1l-0.1,0c-0.4-0.7,0.2-0.4,0.1-1c0.1,0.5,0.2,0.2,0.4,0.4c0.1,0,0.3,0,0.3,0.1C61.7,4.1,62.1,4.4,62,4
						C62.1,4,62.1,3.8,62.3,4C62.4,3.8,62.1,4,62,3.9C62,3.4,62.8,3.6,62.8,3c0.1-0.4-0.1-0.7-0.1-1c0.2,0,0.2,0.3,0.2,0.3
						c0.2-0.1,0.3-0.2,0.3-0.4c0,0.1,0.1,0.1,0.2,0.1c0.1-0.1-0.2-0.3,0-0.4c0.1,0.1,0.2,0.2,0.2,0.3c0-0.2,0-0.4,0-0.6
						c0.2,0.1,0.1,0.2,0.2,0.4c0.1-0.2,0.2-0.5,0-0.7l-0.2,0c0-0.1,0.2,0.1,0.2,0.2c0.1,0.3-0.2,0.1-0.3,0.1l0-0.1
						c-0.5-0.2-0.2,0.4-0.4,0.6L63,1.4l0.1,0.4c-0.1,0-0.3-0.1-0.3-0.3c-0.3,0,0,0.2-0.2,0.2c0,0,0,0-0.1,0l0,0.2
						c0-0.1-0.2-0.2-0.1-0.2c-0.4,0.1,0,0.6-0.4,0.5l0,0c-0.1,0.4,0.2,0.2,0.3,0.7l-0.7-0.3l0.2,0.2c0,0-0.1,0.1-0.2,0
						C61.7,3,61.7,2.8,61.8,3c-0.4,0-0.3,0.5-0.7,0.2c0.1,0.2,0.3,0,0.2,0.2c-0.4-0.3-0.1,0.3-0.4,0.2c-0.2-0.2,0.1-0.3-0.2-0.3
						c0.3,0.4-0.3,0.2-0.4,0.4c0.3,0.3-0.1,0.4-0.2,0.6c-0.1-0.1-0.5,0.2-0.8,0.3l0,0c0.2,0.3,0,0.4-0.1,0.6C59.1,5.2,59,5.1,59.1,5
						l-0.1,0.1c0.1,0.1,0.1,0.2,0,0.3l-0.2-0.2c-0.2,0.2-0.1,0.6-0.5,0.6C58.5,6,59,6.1,58.8,6.5c-0.1-0.1-0.3-0.3-0.2-0.4
						c0,0,0,0.2-0.1,0.1L58.4,6c-0.2,0,0.1,0.2,0,0.3c-0.1-0.1-0.2,0-0.2-0.2c0,0,0.1,0,0.1-0.1c-0.1,0.1-0.3,0.1-0.4,0
						C57.9,6.1,58,6.2,58,6.3c-0.2,0.2-0.2-0.1-0.4-0.1c0,0.1-0.2,0.1,0,0.4c-0.1,0-0.2-0.1-0.2-0.1c0,0.2-0.4,0.4-0.1,0.5l0,0l0,0
						l0,0l0,0c-0.1,0.5-0.8,0.4-1,0.7l-0.1-0.1c-0.1,0.2-0.4,0.4-0.4,0.6c-0.1,0-0.2,0-0.3-0.2c-0.1,0.2-0.1,0.3-0.4,0.3
						c0-0.3-0.1-0.1,0.1-0.2c-0.2,0.1-0.4,0-0.4,0.3c-0.1-0.3-0.3-0.2-0.4,0l0.2,0.1c-0.1,0.1-0.2,0.1-0.3,0.2l-0.1-0.3
						c-0.6-0.1-0.4,1-1,0.7c0,0.3,0.3,0,0.4,0.3C53.5,9.5,53,9.2,53,9.2c-0.3,0,0,0.6-0.3,0.6c0.1,0.1,0.3,0.3,0.1,0.6
						c-0.2,0.1-0.5-0.3-0.4-0.4c0,0,0.1,0,0.1,0c0-0.1,0.1-0.2,0-0.2l0,0.1c-0.2,0-0.4,0.1-0.4-0.1c-0.1,0.2,0,0.2,0.2,0.2
						c-0.3,0-0.4,0.2-0.7,0.2c0.1,0,0.2,0.1,0.1,0.2c-0.5,0.1-0.1,0.3-0.3,0.5c-0.2-0.1-0.2-0.4-0.3-0.1c-0.2,0-0.2-0.3-0.2-0.4
						c-0.1,0.3-0.5,0.1-0.7,0.1l0.1-0.1c0,0.1-0.1,0.1-0.2,0.1l0.2,0.2c-0.1,0-0.2,0-0.2-0.1c0,0.2,0.2,0.3,0.2,0.6
						c-0.2-0.1-0.2,0.3-0.4,0c0.4-0.1-0.2-0.3,0.1-0.4c0,0.1-0.1,0.1-0.2,0.1c0,0,0-0.1,0-0.1c-0.4-0.1,0,0.4-0.3,0.5
						c0-0.2-0.2-0.3-0.2-0.2c0.1-0.1,0.2,0.2,0.1,0.4c-0.3,0-0.2,0.2-0.3,0.2h0.1c0,0.2-0.1,0.2-0.2,0.3c-0.1-0.1,0.1-0.1,0-0.2
						c0,0.3-0.5-0.2-0.6,0.1c-0.1-0.1-0.1-0.3-0.3-0.3c-0.2,0.3-0.4-0.1-0.5,0.2c0.2,0.2,0.2,0.1,0.1,0.4l0.4-0.3l-0.1,0.4
						c0.1,0,0.2-0.2,0.3-0.2c-0.1,0.2-0.1,0.2,0.1,0.3c-0.3-0.3-0.3,0.3-0.6,0.2L47.4,12c-0.4-0.1-0.4,0.5-0.9,0.5l0.2,0
						c0,0.2-0.2,0.1-0.3,0.3c-0.1-0.2-0.2-0.2-0.3-0.3c0.1,0.1-0.3,0.1-0.2,0.5l-0.3-0.2c-0.4,0-0.2,0.6-0.5,0.7
						c0-0.2-0.2-0.3,0-0.5c-0.1,0-0.2,0-0.2,0.2c-0.1-0.1-0.2,0.3-0.4,0.2c0,0.1,0,0.3-0.1,0.3c0,0,0-0.1,0-0.1c0,0.1-0.1,0.2,0,0.4
						c-0.5-0.5-0.9,0.3-1.3-0.1c-0.2,0.1-0.5,0.3-0.7,0.4c0-0.1,0-0.1,0-0.1c-0.3-0.1,0,0.6-0.4,0.5c-0.3-0.3,0.1-0.2,0-0.3
						c-0.2-0.6-0.4,0.2-0.7-0.1l0-0.1c-0.2-0.2-0.4,0.3-0.7,0.4c0,0,0-0.1,0-0.1c-0.1,0.4-0.5,0.6-0.7,0.7c0-0.3,0.1-0.2,0-0.4
						c-0.1,0.1,0.1,0.4-0.1,0.5c-0.1-0.1-0.3-0.2-0.4-0.5l0.2-0.1c-0.2-0.3-0.3,0.1-0.4,0.1l0-0.2c-0.3,0.1-0.3,0.5-0.6,0.6l0.1,0.1
						c-0.1,0.4-0.2-0.2-0.4,0.1l-0.1-0.4c-0.1,0.1-0.4,0.5-0.6,0.6c0.1-0.3,0.3-0.5,0.5-0.7c-0.1,0-0.5,0.1-0.5,0.3
						c0,0,0.1-0.2,0.2-0.1c-0.1,0.3-0.3,0.5-0.6,0.6c-0.1-0.8-0.7-0.1-1-0.6c-0.4,0.4-1,0-1.5,0.2c0.3,0.6-0.2,0,0,0.6
						c-0.1,0.1-0.2,0.1-0.2,0l-0.5-0.3c-0.1-0.2,0.1-0.1,0.1-0.3c-0.3,0-0.2-0.2-0.4-0.4c0.1,0.2-0.1,0.3-0.2,0.3l0.3,0.3
						c-0.4,0.4-0.4-0.5-0.8-0.1l0.1-0.2c-0.2,0.1-0.8,0.1-0.9,0.6c0-0.1-0.1-0.2,0-0.3c-0.5,0-1.1,0.6-1.5,0.4l0-0.2
						c-0.1,0.1-0.1,0.3-0.3,0.2c0-0.1,0-0.2,0-0.2c0,0.1-0.2,0.3-0.4,0.2l0.1-0.2c-0.5-0.2-0.7,0.5-1.1,0.6c0-0.4-0.4-0.6-0.6-0.6
						l0-0.1c-0.6,0-0.9,0.4-1.5,0.6c-0.4-0.5-1.1-0.1-1.7-0.4c0.1,0.1,0,0.3-0.1,0.4c-0.1-0.1-0.3,0.3-0.3-0.1l0,0
						c-0.1-0.4-0.4-0.3-0.6-0.3l0,0.5c-0.5-0.8-1.4,0.3-1.7-0.4c-0.1,0.1-0.3,0.1-0.4,0.3l0-0.3c-0.3-0.1-0.5-0.1-1,0l0.1-0.2
						c-0.2,0-0.3,0.8-0.5,0.8l-0.1-0.4c-0.4,0-0.8-0.4-1.3,0c0-0.1,0-0.2,0.1-0.2c-0.2,0-0.8-0.3-0.7,0.3c0-0.4-0.4,0-0.7,0.1l0-0.3
						c-0.2,0.4-0.2,0.4-0.5,0.5c-0.1,0,0-0.2,0-0.2c-0.2-0.2-0.2,0.3-0.4,0.1l0.1-0.2c-0.2,0-0.2,0.1-0.3,0.3
						c-0.1,0.1-0.4-0.1-0.4-0.3c0,0.2-0.2,0.4-0.3,0.3c0-0.1,0-0.2,0.1-0.2c-0.4-0.2-0.6,0.3-0.8,0c0-0.1,0-0.1,0-0.2
						c0.3,0,0.5,0,0.5,0.1c0-0.3-0.2-0.3,0-0.7c-0.2,0.2-0.5,0.6-0.8,0.5c0,0,0-0.1,0-0.1l0,0c-0.1,0-0.1,0-0.1,0
						C15.1,16,15,16,15,16c0-0.2-0.3-0.1-0.4-0.2c0,0.3-0.2,0.2,0,0.5c0,0,0,0,0.1,0c0,0,0,0,0.1,0l0,0c0.1,0,0.2,0,0.3,0
						c-0.1,0.1-0.2,0.3-0.3,0.1c-0.1,0.2-0.1,0.4-0.2,0.4c-0.1-0.4-0.4-0.6-0.5-0.9c-0.4,0.1-0.8,0-1.1,0.6
						c-0.1,0.1-0.1-0.2-0.1-0.2c0.1,0,0.1,0,0.2-0.1c-0.2,0.1-0.6,0-0.7,0.4c-0.2-0.2,0.2-0.3-0.2-0.3l0.1-0.1
						c-0.7-0.6-1.2,0.9-1.9,0.1c0,0,0.1,0.1,0.1,0.1c-0.9-0.4-1.8,0.1-2.7-0.5c-0.2-0.1-0.3,0.1-0.5,0.3l0-0.3l-0.3,0.3
						c-0.4,0.2-0.6-0.8-1.1-0.4l0,0.2c-0.2-0.1-0.5,0.1-0.5-0.2c0,0-0.1,0.2-0.1,0.1l0-0.2L4.8,16c-0.3-0.1,0.1-0.6-0.3-0.7
						c-0.2,0-0.5,0.4-0.5,0.5c0.1,0,0.2,0.1,0.2,0.3L4,16.1c-0.1,0.5-0.3,0.9,0.1,1.3l0.3-0.3l0.1,0.2l-0.2,0c0.1,0.2,0.2,0,0.3-0.1
						c0,0.1,0,0.2,0.1,0.3l0.3-0.4c0,0.2-0.2,0.3,0,0.5c0.1-0.2-0.1-0.4,0.1-0.5c0.1,0.2,0.1,0.4,0.2,0.2c0,0.1,0,0.2-0.1,0.2
						c0.2-0.1,0.4,0,0.5-0.3c0.1,0.3,0.5,0,0.4,0.4c0.1-0.1,0.3-0.3,0.4-0.3c-0.3,0.5,0.5,0.1,0.3,0.6c0.2-0.5,0.6-0.2,0.9-0.4
						c0,0-0.1,0.1-0.1,0.1C7.8,17.8,7.9,17.9,8,18c0.1-0.4,0.3-0.5,0.5-0.7c0.2,0.4-0.2,0.4-0.1,0.8c0-0.3,0.4-0.3,0.3-0.6
						c0.1,0.2,0.1,0.1,0.2,0.5C8.9,17.6,9,18,9.1,17.7c0.2,0.3,0,0.5,0.3,0.3C9.5,18.2,9.3,18.3,9.3,18.3z M15.3,17.9L15.3,17.9
						c-0.1,0-0.1,0-0.1,0C15.2,17.9,15.2,17.9,15.3,17.9z M15.8,17.9c-0.1,0-0.1,0-0.2,0c0-0.1,0-0.2,0.1-0.2
						C15.6,17.8,15.7,17.8,15.8,17.9z M14.8,15.9c0.1,0,0.1,0,0.1,0.1c0,0-0.1,0-0.1,0l0,0C14.8,16,14.8,16,14.8,15.9z"/>
					<path fill="#FFFFFF" d="M14.7,16.3C14.7,16.3,14.6,16.3,14.7,16.3C14.6,16.3,14.7,16.3,14.7,16.3L14.7,16.3L14.7,16.3z"/>
					<path fill="#FFFFFF" d="M57.3,7L57.3,7C57.3,7,57.3,7,57.3,7C57.3,7,57.3,7,57.3,7z"/>
					<polygon fill="#FFFFFF" points="22.7,18.6 22.7,18.5 22.6,18.6 					"/>
					<path fill="#FFFFFF" d="M60,5.9C60,5.9,60,5.9,60,5.9C60,5.9,60,5.9,60,5.9z"/>
					<path fill="#FFFFFF" d="M60.9,5.1L61.1,5C61,5,60.9,5,60.9,5.1z"/>
					<path fill="#FFFFFF" d="M61.6,4.5C61.6,4.4,61.5,4.4,61.6,4.5L61.6,4.5L61.6,4.5z"/>
					<path fill="#FFFFFF" d="M49.9,13.4C49.9,13.4,49.8,13.4,49.9,13.4C49.8,13.5,49.8,13.4,49.9,13.4z"/>
					<path fill="#FFFFFF" d="M53.4,10.7c0,0.1,0,0.1-0.1,0.2C53.5,10.9,53.5,10.9,53.4,10.7z"/>
					<polygon fill="#FFFFFF" points="45.4,15.4 45.4,15.4 45.3,15.5 					"/>
					<path fill="#FFFFFF" d="M53.2,11c0.1,0,0.1,0,0.2-0.1C53.3,10.9,53.2,10.9,53.2,11z"/>
					<path fill="#FFFFFF" d="M64.2,1.4L64.2,1.4C64.2,1.4,64.2,1.4,64.2,1.4L64.2,1.4z"/>
					<path fill="#FFFFFF" d="M64.2,1.3L64.2,1.3C64.2,1.3,64.2,1.3,64.2,1.3z"/>
					<path fill="#FFFFFF" d="M64.2,1.2l0,0.1C64.3,1.3,64.3,1.2,64.2,1.2z"/>
					<path fill="#FFFFFF" d="M63.4,2.3L63.4,2.3C63.5,2.4,63.4,2.3,63.4,2.3z"/>
					<path fill="#FFFFFF" d="M63.2,2.6c0.1-0.1,0.3,0,0.3-0.2l-0.1-0.1C63.5,2.5,63.1,2.5,63.2,2.6z"/>
					<path fill="#FFFFFF" d="M61.2,3l0.3-0.2c-0.1,0-0.3-0.1-0.2-0.2C60.8,2.7,61.5,2.7,61.2,3z"/>
					<path fill="#FFFFFF" d="M60.5,3.6c0.1-0.2-0.1-0.1-0.2-0.2C60.3,3.6,60.3,3.6,60.5,3.6z"/>
					<path fill="#FFFFFF" d="M55.5,8.1l-0.1-0.2C55.3,8,55.4,7.9,55.5,8.1z"/>
					<polygon fill="#FFFFFF" points="55.2,9.9 55.4,10 55.3,9.8 					"/>
					<polygon fill="#FFFFFF" points="53.5,8.8 53.5,8.8 53.4,8.9 					"/>
					<path fill="#FFFFFF" d="M43.4,13.5l0.1,0.3C43.5,13.7,43.5,13.4,43.4,13.5z"/>
					<path fill="#FFFFFF" d="M38.7,15c-0.1-0.1-0.2-0.2-0.3,0C38.5,15,38.6,15.1,38.7,15z"/>
					<polygon fill="#FFFFFF" points="24,16 24.1,15.9 23.9,16 					"/>
				</g>
			</g>
		</g>
		<g>
			<g>
				<g>
					<path fill="#FFFFFF" d="M24.1,0.4c-0.1-0.1-0.2-0.2-0.2-0.1l0.2,0.2L24.1,0.4z"/>
					<path fill="#FFFFFF" d="M23.2,0.5c0.1,0.2,0.2,0.4,0.5,0.6c-0.2-0.3-0.1-0.2-0.3-0.5c0-0.1,0.2-0.1,0.3,0
						c-0.1-0.1,0.1-0.1,0-0.2c-0.3-0.1-0.4,0-0.3,0.3C23.3,0.6,23.3,0.6,23.2,0.5z"/>
					<path fill="#FFFFFF" d="M17.6,6.2L17.6,6.2C17.7,6.2,17.7,6.2,17.6,6.2z"/>
					<path fill="#FFFFFF" d="M13.7,9.1C13.7,9.1,13.7,9,13.7,9.1C13.7,9,13.7,9.1,13.7,9.1z"/>
					<path fill="#FFFFFF" d="M12.8,9.2C12.8,9.2,12.8,9.2,12.8,9.2C12.8,9.2,12.8,9.2,12.8,9.2z"/>
					<path fill="#FFFFFF" d="M17.6,6.2l-0.2,0C17.5,6.3,17.6,6.3,17.6,6.2z"/>
					<path fill="#FFFFFF" d="M23.2,1.9c0,0,0-0.1,0-0.1C23.2,1.8,23.2,1.8,23.2,1.9L23.2,1.9z"/>
					<path fill="#FFFFFF" d="M19,4.5L19,4.5c0-0.1,0-0.1,0-0.1L19,4.5z"/>
					<path fill="#FFFFFF" d="M20,3.3c0,0,0.2,0.2,0.3,0.3c-0.1-0.1-0.1-0.1-0.1-0.2C20.2,3.3,20.1,3.3,20,3.3z"/>
					<path fill="#FFFFFF" d="M22.1,1.5L22.1,1.5C22.1,1.5,22.1,1.5,22.1,1.5z"/>
					<path fill="#FFFFFF" d="M18.1,5.3C18.1,5.3,18.1,5.3,18.1,5.3C18.1,5.3,18.1,5.3,18.1,5.3z"/>
					<path fill="#FFFFFF" d="M25,29C25,29,25,29,25,29C25,29,25.1,29,25,29z"/>
					<polygon fill="#FFFFFF" points="25.8,31.3 25.8,31.3 25.7,31.4 					"/>
					<path fill="#FFFFFF" d="M11.3,9.7L11.3,9.7C11.3,9.6,11.3,9.6,11.3,9.7z"/>
					<path fill="#FFFFFF" d="M2.6,17.8c0-0.3,0.6,0,0.6-0.4C3.1,17.5,2.4,17.5,2.6,17.8z"/>
					<path fill="#FFFFFF" d="M23.2,1.9C23.2,1.9,23.1,1.9,23.2,1.9C23.2,1.9,23.2,1.9,23.2,1.9z"/>
					<path fill="#FFFFFF" d="M3.1,17.4L3.1,17.4L3.1,17.4C3.1,17.3,3.1,17.4,3.1,17.4z"/>
					<path fill="#FFFFFF" d="M8.3,11.4C8.3,11.4,8.3,11.5,8.3,11.4C8.3,11.5,8.3,11.4,8.3,11.4z"/>
					<path fill="#FFFFFF" d="M10.8,10.6L10.8,10.6C10.8,10.6,10.8,10.6,10.8,10.6z"/>
					<path fill="#FFFFFF" d="M7.2,12.3C7.2,12.3,7.1,12.3,7.2,12.3C7.1,12.4,7.1,12.4,7.2,12.3C7.1,12.3,7.1,12.3,7.2,12.3z"/>
					<polygon fill="#FFFFFF" points="5.9,12.9 5.9,13 6,12.9 					"/>
					<path fill="#FFFFFF" d="M21.4,26.6c0,0.1-0.1,0.2-0.1,0.2C21.4,26.6,21.6,26.7,21.4,26.6z"/>
					<path fill="#FFFFFF" d="M23.1,1.8c0.1,0,0.1,0.1,0.1,0.1C23.2,1.9,23.2,1.9,23.1,1.8C23.1,1.8,23.1,1.8,23.1,1.8z"/>
					<path fill="#FFFFFF" d="M8.1,14.4l-0.2,0.1C7.9,14.4,8,14.4,8.1,14.4z"/>
					<path fill="#FFFFFF" d="M12.6,20.9L12.6,20.9C12.7,20.9,12.7,20.9,12.6,20.9z"/>
					<path fill="#FFFFFF" d="M7.2,14.8c-0.1-0.1-0.1-0.1-0.2-0.1c0,0,0,0,0,0.1L7.2,14.8z"/>
					<path fill="#FFFFFF" d="M21.3,26.8L21.3,26.8L21.3,26.8z"/>
					<path fill="#FFFFFF" d="M22.9,27.1c-0.2-0.1-0.3,0.2-0.5,0.4c-0.3-0.1,0.1-0.3,0.1-0.5c-0.2,0-0.5,0.2-0.6,0.1
						c0-0.1,0-0.1,0.1-0.1c-0.3,0.1-0.4-0.3-0.8-0.1c0,0,0-0.1,0-0.1c-0.1,0.2-0.2,0.3-0.3,0.4c-0.1-0.1-0.3,0.1-0.2-0.1
						c0,0,0.1,0,0.2-0.1l-0.1,0c0.1-0.3,0.2,0,0.3-0.2c-0.2,0-0.6,0.1-0.7-0.1c0.2-0.3,0.4,0.1,0.4-0.3l0.1,0.2
						c0.2-0.5,0.1,0.1,0.3-0.5c-0.2-0.3-0.4-0.1-0.6-0.3c-0.2,0.1-0.1,0.2-0.3,0.4c-0.6,0,0.2-0.9-0.3-0.7c-0.2,0.1-0.5,0.5-0.5,0.2
						l0.3-0.3c-0.2-0.2-0.5,0.4-0.6,0c0.1-0.1,0.3,0,0.3,0c0-0.4-0.2,0.1-0.4,0l0.2-0.3C19,25,18.6,25,18.2,24.9
						c0.1-0.1,0.2-0.1,0.2-0.3c-0.5-0.1-0.8-0.6-1-1l-0.3,0.2c0,0,0-0.2,0.1-0.2c-0.1-0.2-0.1,0.2-0.2,0.2c-0.1,0,0-0.2,0.1-0.3
						c-0.4,0-1,0-1.1-0.5l0.1,0c-0.1-0.2-0.6,0.4-0.6,0l0.1,0c-0.4-0.4-1-0.5-1.1-1.1c-0.3,0.3-0.3-0.4-0.7,0
						c-0.1-0.4,0-0.5-0.2-0.8c-0.1-0.1-0.3,0.2-0.5,0.2l0.2-0.3l-0.3,0.2l0.1-0.4l-0.2,0c0,0,0,0.2,0,0.2c-0.3,0-0.3-0.4-0.2-0.6
						l-0.6,0c0.1-0.1,0.2-0.1,0.3-0.1c-0.4,0.1,0.1-0.3-0.2-0.2c0,0.1-0.1,0.1-0.1,0.2c0-0.2-0.2-0.4-0.5-0.4l0.1-0.2
						c-0.3-0.2-0.7-0.3-1.1-0.5c0.1,0.2-0.1,0.5-0.3,0.4l0.1-0.3c-0.2,0.1,0,0.2-0.2,0.3c-0.1-0.1,0.1-0.4,0.2-0.4l-0.2,0
						c0-0.1,0.1-0.1,0.2-0.2c-0.2,0.1-0.1-0.4-0.4-0.2l0-0.1c-0.4-0.2-0.6-0.2-0.9-0.4c-0.1,0.2-0.2,0.1-0.4,0.3
						c-0.2-0.2-0.3-0.5-0.6-0.7c-0.3,0-0.2,0.2-0.3,0.3c0.1-0.2-0.2-0.4,0.1-0.4c-0.3-0.1-0.4-0.2-0.9-0.2c0,0.1,0,0.2-0.1,0.2
						c-0.1,0-0.1-0.2,0-0.3l0,0c-0.6,0.1-0.7-1.2-1.3-0.9l0,0l-0.5,0c-0.1-0.1,0.2-0.1,0.1-0.3c-0.7,0.1-0.3-0.2-0.6-0.1
						C4.9,16,4.9,16,4.8,16c-0.1,0-0.3,0,0.1-0.1l-0.3,0c-0.3,0,0.1,0,0.2,0c-0.2,0-0.3,0-0.4,0.1c-0.1,0-0.2,0-0.2-0.1
						c0,0,0-0.1,0.2-0.1c0.3,0,0.7,0,0.8,0c0,0-1.2-0.5-0.6-0.3c0,0,0.1,0.1,0.2,0.1c0.1,0,0.2,0.1,0.2,0.1c-0.2-0.1-0.1-0.2,0-0.2
						c0.1,0,0,0,0.1-0.1c0.1-0.1,0.3-0.2,0.4-0.3c0,0.1,0,0.2,0,0.2c0.2,0.2,0.4-0.2,0.4-0.4c0.1,0,0.1,0.2,0.2,0.2
						c0.2,0.1,0.2-0.4,0.3-0.2c0,0,0,0.1,0,0.1c0-0.1,0.4-0.1,0.2-0.4c0.3,0,0.4-0.3,0.6-0.2c0-0.3,0.4,0,0.3-0.4
						c0.2,0.4,0.5,0.2,0.6-0.1c0,0.1,0.2,0.1,0.2,0.3c0.2-0.1,0.3-0.2,0.1-0.4c0.5,0.4,0.4-0.7,0.8-0.1c0.4-0.4,0.7-0.8,1.1-1.1
						c0.2,0.4-0.4,0.3-0.2,0.7c0.3-0.4,0.4-0.8,0.8-0.9c0.1,0,0,0.2,0,0.3c0.3-0.4,0.8-0.3,1-0.7c0,0,0,0.1,0,0.1
						c0.1,0,0.2,0,0.1-0.2l0,0.1c-0.2-0.2,0-0.7-0.1-0.8c0.2,0.6,0.4-0.1,0.6,0.7c0-0.1,0-0.2,0-0.3c0.1,0,0.1,0.1,0.2,0.2
						c0.2-0.2,0-0.4,0.2-0.5c0,0.1,0,0.1,0.1,0.3c0-0.2,0-0.5,0.3-0.5c0,0.1,0.1,0.1,0,0.1c0.3-0.2,0.3-0.8,0.7-0.8
						c0.1,0.4,0.2,0.1,0.4,0.4l0.1-0.2L14,10.6c0.2-0.1,0.2-0.4,0.4-0.4l0,0.2l0.3-0.3l-0.2,0c0.1-0.3-0.3-0.4,0-0.4
						c0,0.1,0.2-0.1,0.4,0l0,0c0-0.1,0-0.3,0.2-0.3c0.1,0.1,0.2,0.4,0.3,0.4c-0.1-0.3,0.3-0.3,0.2-0.7c0,0.1,0.1,0.2,0.2,0.3
						l-0.1-0.3c0.1,0,0.1,0,0.2,0.2c0.2-0.1-0.3-0.3,0-0.4c0,0,0,0.1,0,0.1C16,9,16,8.7,16.3,8.6c0.3,0.2-0.1,0.2,0.1,0.4
						c0.3-0.3,0.4-0.9,0.7-1.1l-0.1,0c-0.3-0.4,0.4,0,0.4-0.3c0,0.1,0.1,0.3,0.1,0.2c0.3-0.1,0.3-0.5,0.5-0.9l0.1,0.1
						c0.2,0,0.4-0.2,0.5-0.3c-0.1-0.1,0-0.2-0.1-0.3c0.9,0.2,0.4-1,1.2-0.9c0,0,0,0.2,0,0.1L20,5.4c-0.2-0.1-0.1-0.1-0.3-0.1
						c-0.1-0.1-0.1-0.3,0-0.4c0,0.2,0.3,0.3,0.4,0.3c-0.1,0-0.1-0.1-0.2-0.2c0.4,0.1-0.3-0.3,0.1-0.4l0.1,0.1c0-0.1,0-0.3,0.1-0.4
						c0.2,0.1,0,0.2,0.2,0.3c0.1-0.1-0.2-0.6,0.1-0.5c0,0.1-0.1,0.2,0,0.3c0.3,0.1,0.3,0,0.4,0l0,0l0.3-0.1l-0.1,0
						c-0.4-0.6,0.2-0.4,0-0.9c0.2,0.5,0.2,0.2,0.4,0.4c0.1,0,0.3,0,0.3,0.1c-0.1-0.3,0.3,0,0.1-0.4c0.1,0.1,0.1-0.1,0.3,0.1
						c0-0.2-0.2-0.1-0.2-0.2c-0.1-0.4,0.7-0.2,0.6-0.8c0-0.4-0.2-0.6-0.1-0.9c0.2,0,0.2,0.3,0.2,0.3c0.2,0,0.3-0.2,0.3-0.3
						c0.1,0.1,0.1,0.1,0.2,0.1c0.1-0.1-0.2-0.3,0-0.3c0.1,0.1,0.2,0.2,0.2,0.3c0-0.2-0.1-0.4,0-0.6c0.2,0.1,0.2,0.2,0.2,0.3
						c0-0.2,0.1-0.4-0.1-0.6l-0.1,0c0-0.1,0.2,0.1,0.2,0.2c0.1,0.2-0.2,0.1-0.3,0.1l0-0.1c-0.5-0.3-0.2,0.4-0.3,0.5l-0.3-0.3
						l0.1,0.4c-0.1,0-0.3-0.1-0.3-0.3c-0.3,0,0,0.2-0.2,0.2c0,0,0,0-0.1,0l0,0.2C22,1.6,21.8,1.5,22,1.5c-0.4,0.1,0,0.5-0.3,0.4l0,0
						c-0.1,0.4,0.2,0.2,0.3,0.7l-0.7-0.3l0.2,0.2c0,0-0.1,0.1-0.2,0c0.1,0.2,0.1,0.1,0.2,0.3c-0.3,0-0.2,0.5-0.6,0.2
						c0.1,0.2,0.2,0,0.3,0.2c-0.4-0.3-0.1,0.2-0.4,0.2c-0.2-0.2,0-0.2-0.3-0.3c0.3,0.4-0.3,0.2-0.3,0.3c0.3,0.2-0.1,0.3-0.1,0.6
						c-0.1-0.1-0.4,0.2-0.7,0.3l0,0c0.2,0.3,0,0.4,0,0.6c-0.2-0.2-0.2-0.2-0.2-0.4L19,4.5c0.1,0.1,0.1,0.2,0,0.3l-0.2-0.2
						c-0.1,0.2,0,0.5-0.4,0.6c0.2,0.2,0.7,0.3,0.6,0.7c-0.1-0.1-0.3-0.2-0.3-0.3c0,0,0,0.1-0.1,0.1l-0.1-0.2c-0.2,0,0.1,0.2,0,0.2
						c-0.1-0.1-0.1,0-0.3-0.2c0,0,0.1,0,0.1-0.1c-0.1,0.1-0.3,0.1-0.4,0c0.1,0.1,0.2,0.2,0.2,0.3c-0.1,0.2-0.2-0.1-0.4-0.1
						C18,5.6,17.8,5.6,18,5.8c0,0-0.1-0.1-0.2-0.1c0,0.2-0.3,0.4,0,0.5l0,0c0,0,0,0,0,0l0,0l0,0c-0.1,0.4-0.6,0.4-0.8,0.7l-0.1-0.1
						c-0.1,0.2-0.3,0.3-0.3,0.6c0,0-0.2,0-0.3-0.2c-0.1,0.2,0,0.3-0.3,0.3c0-0.2-0.1-0.1,0-0.2c-0.2,0.1-0.3,0-0.3,0.3
						c-0.1-0.2-0.3-0.2-0.3,0l0.2,0.1c-0.1,0.1-0.2,0.1-0.2,0.2l-0.2-0.3c-0.6-0.1-0.2,1-0.8,0.6c0,0.3,0.3,0,0.4,0.3
						c-0.2,0.1-0.6-0.2-0.7-0.2c-0.3,0,0.1,0.5-0.2,0.6C13.9,9,14.1,9.2,14,9.4c-0.2,0.1-0.5-0.3-0.4-0.4c0,0,0.1,0,0.1,0
						c0-0.1,0.1-0.2-0.1-0.2l0,0.1c-0.1,0-0.4,0.1-0.4-0.1C13.2,9,13.3,9,13.4,9c-0.3,0-0.3,0.2-0.6,0.2c0.1,0,0.2,0.1,0.1,0.2
						c-0.4,0.1,0,0.3-0.2,0.4c-0.2-0.1-0.2-0.4-0.3-0.1c-0.2,0-0.2-0.3-0.2-0.4c-0.1,0.3-0.4,0.1-0.6,0.1l0.1-0.1
						c0,0.1-0.1,0.1-0.1,0.1l0.2,0.2c-0.1,0-0.1,0-0.2-0.1c0,0.2,0.2,0.3,0.2,0.6c-0.1-0.1-0.2,0.2-0.4,0c0.3,0-0.2-0.3,0-0.4
						c0,0.1-0.1,0.1-0.2,0.1c0,0,0-0.1,0-0.1c-0.4-0.1,0.1,0.4-0.2,0.5c-0.1-0.2-0.2-0.3-0.2-0.2c0.1-0.1,0.2,0.2,0.2,0.4
						c-0.2,0-0.1,0.2-0.2,0.2l0.1,0c0,0.2,0,0.2-0.1,0.3c-0.1-0.1,0.1-0.1,0-0.2c0,0.3-0.4-0.1-0.5,0.1c-0.1-0.1-0.2-0.3-0.3-0.3
						c-0.1,0.3-0.3-0.1-0.5,0.2c0.2,0.2,0.2,0.1,0.1,0.4l0.3-0.3l-0.1,0.4C10,11.2,10,11,10.1,11c0,0.2,0,0.2,0.1,0.3
						c-0.3-0.2-0.2,0.3-0.5,0.2L9.5,11c-0.4-0.1-0.3,0.5-0.7,0.5l0.2,0c0.1,0.2-0.2,0.1-0.3,0.3c-0.1-0.2-0.2-0.2-0.3-0.3
						c0.1,0.1-0.3,0.1-0.1,0.5L8,11.8c-0.3,0-0.1,0.7-0.4,0.7c0-0.2-0.2-0.3-0.1-0.5c-0.1,0-0.2,0-0.1,0.2c-0.1-0.1-0.1,0.4-0.3,0.2
						c0,0.1,0.1,0.3,0,0.3c0,0,0-0.1,0-0.1c0,0.1-0.1,0.2,0.1,0.4c-0.5-0.4-0.7,0.4-1.2,0c-0.2,0.1-0.4,0.3-0.5,0.4
						c0-0.1,0-0.1,0-0.1c-0.3-0.1,0.1,0.6-0.3,0.5c-0.3-0.2,0.1-0.2-0.1-0.3c-0.3-0.6-0.3,0.2-0.6,0l0-0.1c-0.1-0.1-0.2,0-0.2,0.1
						c0,0.1-0.1,0.1-0.1,0.2C4,13.8,4,13.8,3.9,13.9c0,0,0-0.1,0-0.1c-0.1,0.4-0.4,0.6-0.5,0.8c-0.1-0.2,0-0.2-0.3-0.3
						c-0.1,0.1,0.4,0.3,0.2,0.4c-0.2-0.1-0.5-0.1-0.9-0.2l0.3-0.1c-0.5-0.2-0.4,0.2-0.6,0.2l-0.2-0.1c-0.4,0.2,0.1,0.4-0.3,0.6
						l0.2,0c0.4,0.2-0.5,0-0.3,0.2l-0.8-0.1c0,0.1,0.2,0.3,0.1,0.4c-0.5-0.1-0.5-0.3-0.6-0.4c-0.2,0.1-0.5,0.3-0.2,0.3
						c0,0-0.1-0.1,0.1-0.1c0.2,0.1,0.4,0.1,0.4,0.2c0,0,0,0.1,0,0.1c0,0,0,0,0.1,0c0,0,0.1,0,0.1,0c-0.9,0-0.8,0.1-0.6,0.2
						c0.2,0.1,0.4,0.3,0,0.4c0.6,0.1,0.8,0.3,1,0.5c0.2,0.2,0.5,0.4,0.9,0.6c0.4-0.5,0.2,0.1,0.8-0.3c0.2,0,0.2,0.1,0.2,0.1
						c0,0,0.1,0.5,0.2,0.5c0,0.2-0.3,0-0.3,0.1c0.4,0.2,0,0.3,0.2,0.6c0.1-0.2,0.3-0.2,0.5,0c0,0-0.2-0.4-0.2-0.4
						c0.4,0,0.3,0.2,0.4,0.3c0,0.1,0,0.3,0.2,0.2l-0.2,0.1c0.2,0,0.6,0.3,1,0c0,0.1,0,0.2-0.1,0.2c0.3,0.3,1.1,0,1.2,0.4l-0.1,0.1
						c0.1,0,0.3-0.2,0.3,0c0,0.1-0.1,0.1-0.1,0.1c0.1,0,0.3-0.1,0.4,0l-0.2,0.1c0.3,0.4,0.8,0,1.1,0.1c-0.2,0.4,0,0.7,0.1,0.8l0,0.1
						c0.4,0.3,0.9,0.1,1.4,0.2c0,0.6,0.7,0.7,1,1.1c0-0.1,0.2-0.3,0.3-0.3c0,0.1,0.4-0.1,0.2,0.2l0,0c-0.1,0.4,0.1,0.4,0.2,0.5
						l0.3-0.4c0,0.9,1.2,0.4,1,1.1c0.2-0.1,0.3,0,0.4,0l-0.2,0.2c0.2,0.2,0.3,0.3,0.7,0.5L12.6,24c0.2,0.1,0.7-0.5,0.8-0.5l-0.2,0.4
						c0.3,0.2,0.4,0.7,0.9,0.6c0,0-0.1,0.1-0.2,0.1c0.1,0.1,0.4,0.6,0.7,0.1c-0.2,0.3,0.3,0.2,0.6,0.2l-0.2,0.2
						c0.3-0.2,0.4-0.3,0.6-0.2c0,0.1-0.1,0.2-0.1,0.1c0.1,0.2,0.3-0.1,0.4,0.1l-0.2,0.1c0.1,0.1,0.2,0,0.4-0.1
						c0.2,0,0.3,0.3,0.1,0.5c0.1-0.1,0.3-0.2,0.4-0.1c0,0.1-0.1,0.1-0.1,0.1c0.2,0.3,0.6,0,0.6,0.3c0,0.1-0.1,0.1-0.1,0.2
						c-0.2-0.1-0.4-0.3-0.3-0.3c-0.1,0.2,0,0.4-0.3,0.6c0.2-0.1,0.7-0.3,0.8-0.1c0,0,0,0.1,0,0.1l0,0c0,0,0.1,0,0.1,0
						c0,0.1,0,0.1,0.1,0.2c-0.1,0.2,0.1,0.2,0.2,0.3c0.1-0.2,0.2-0.1,0.3-0.4c0,0,0,0-0.1,0c0,0,0,0-0.1,0l0,0
						c-0.1,0-0.1-0.1-0.2-0.1c0.1-0.1,0.3-0.1,0.3,0.1c0.1-0.1,0.3-0.2,0.4-0.3c-0.1,0.4,0,0.7-0.1,1c0.3,0,0.7,0.3,1.1,0
						c0.1,0,0,0.2,0,0.3c-0.1,0-0.1,0-0.2,0c0.2,0,0.5,0.3,0.7,0c0.1,0.3-0.3,0.2,0,0.3l-0.1,0.1c0.2,0.8,1.3-0.2,1.5,0.8
						c0-0.1,0-0.1,0-0.2c0.4,0.7,1.5,0.6,1.8,1.5c0.1,0.2,0.3,0,0.5,0l-0.1,0.3l0.4-0.2c0.4,0,0,0.9,0.6,0.8l0.1-0.2
						c0.1,0.1,0.4,0.2,0.3,0.3c0,0,0.2-0.1,0.1,0l-0.1,0.1l0.4,0c0.2,0.3-0.4,0.5-0.1,0.7c0.2,0,0.6-0.1,0.6-0.2c0,0-0.1-0.2,0-0.3
						l0.2,0c0.3-0.4,0.7-0.7,0.6-1.1L26,30.2l0.1-0.2l0.2,0.1c0-0.2-0.1-0.1-0.3-0.1c0.1-0.1,0.1-0.2,0.1-0.3L25.6,30
						c0.1-0.2,0.3-0.2,0.2-0.4c-0.2,0.1-0.2,0.4-0.4,0.4c0-0.2,0.2-0.4-0.1-0.3c0.1-0.1,0.1-0.2,0.2-0.2c-0.2,0-0.3-0.1-0.5,0
						c0.1-0.3-0.4-0.2-0.1-0.5c-0.1,0.1-0.4,0.2-0.5,0.1c0.5-0.3-0.3-0.3,0.1-0.7c-0.4,0.3-0.6-0.1-0.9-0.1c0,0,0.1-0.1,0.1,0
						c-0.1-0.1,0-0.3-0.1-0.4c-0.2,0.3-0.5,0.3-0.7,0.4c0.1-0.4,0.4-0.3,0.5-0.6C23.4,28,23.1,27.8,23,28c0-0.3,0-0.2,0.1-0.5
						c-0.3,0.4-0.2,0-0.4,0.2c0-0.3,0.2-0.4,0-0.4C22.6,27.2,22.9,27.1,22.9,27.1z M18.2,24.9L18.2,24.9c0,0,0.1,0,0.1,0
						C18.3,25,18.2,24.9,18.2,24.9z M17.8,24.7c0,0,0.1,0.1,0.1,0.1c0,0.1-0.1,0.2-0.1,0.1C17.9,24.9,17.8,24.8,17.8,24.7z
						 M17.5,26.8c-0.1,0-0.1-0.1,0-0.1C17.5,26.7,17.5,26.7,17.5,26.8l0.1-0.1C17.6,26.8,17.5,26.8,17.5,26.8z"/>
					<path fill="#FFFFFF" d="M17.8,26.6C17.8,26.6,17.8,26.6,17.8,26.6C17.8,26.5,17.8,26.5,17.8,26.6L17.8,26.6L17.8,26.6z"/>
					<path fill="#FFFFFF" d="M17.7,6.2L17.7,6.2C17.7,6.2,17.7,6.2,17.7,6.2C17.7,6.2,17.7,6.2,17.7,6.2z"/>
					<polygon fill="#FFFFFF" points="13.1,21 13.1,21.1 13.1,21 					"/>
					<path fill="#FFFFFF" d="M20.1,5.2C20.1,5.2,20.1,5.3,20.1,5.2C20.1,5.2,20.1,5.2,20.1,5.2z"/>
					<path fill="#FFFFFF" d="M20.8,4.5l0.2,0C20.9,4.5,20.8,4.5,20.8,4.5z"/>
					<path fill="#FFFFFF" d="M21.4,4C21.4,3.9,21.4,3.9,21.4,4L21.4,4L21.4,4z"/>
					<path fill="#FFFFFF" d="M11.7,12.2C11.7,12.2,11.7,12.2,11.7,12.2C11.7,12.3,11.7,12.3,11.7,12.2z"/>
					<path fill="#FFFFFF" d="M14.7,9.7c0,0.1,0,0.1,0,0.2C14.7,9.9,14.7,9.9,14.7,9.7z"/>
					<polygon fill="#FFFFFF" points="8.1,14.4 8.1,14.4 8.1,14.4 					"/>
					<path fill="#FFFFFF" d="M14.5,10c0.1,0,0.1,0,0.1-0.1C14.6,9.9,14.5,9.9,14.5,10z"/>
					<path fill="#FFFFFF" d="M23.7,1.3L23.7,1.3C23.7,1.3,23.7,1.3,23.7,1.3L23.7,1.3z"/>
					<path fill="#FFFFFF" d="M23.7,1.3L23.7,1.3C23.6,1.2,23.6,1.3,23.7,1.3z"/>
					<path fill="#FFFFFF" d="M23.7,1.1l0,0.1C23.7,1.2,23.7,1.2,23.7,1.1z"/>
					<path fill="#FFFFFF" d="M22.9,2.1L22.9,2.1C23,2.2,23,2.1,22.9,2.1z"/>
					<path fill="#FFFFFF" d="M22.8,2.4c0.1,0,0.3,0,0.3-0.1L23,2.2C23.1,2.3,22.7,2.2,22.8,2.4z"/>
					<path fill="#FFFFFF" d="M21,2.6l0.2-0.2c-0.1,0-0.3-0.1-0.2-0.2C20.5,2.3,21.2,2.4,21,2.6z"/>
					<path fill="#FFFFFF" d="M20.3,3.2C20.4,3,20.2,3.1,20.2,3C20.2,3.1,20.2,3.2,20.3,3.2z"/>
					<path fill="#FFFFFF" d="M16.2,7.3L16.1,7C16,7.1,16.1,7.1,16.2,7.3z"/>
					<polygon fill="#FFFFFF" points="16.1,9 16.3,9.1 16.2,8.8 					"/>
					<polygon fill="#FFFFFF" points="14.5,7.9 14.5,7.9 14.5,8 					"/>
					<path fill="#FFFFFF" d="M6,12.6l0.2,0.3C6.2,12.8,6.1,12.5,6,12.6z"/>
					<path fill="#FFFFFF" d="M1.4,15c-0.3,0-0.7,0-0.5,0.1C1,15.1,1.4,15,1.4,15z"/>
					<polygon fill="#FFFFFF" points="10.8,22.6 10.7,22.6 10.9,22.6 					"/>
				</g>
			</g>
		</g>
	</g>
</g>
</svg>
