<?xml version="1.0" encoding="utf-8"?>
<!-- Generator: Adobe Illustrator 18.0.0, SVG Export Plug-In . SVG Version: 6.00 Build 0)  -->
<!DOCTYPE svg PUBLIC "-//W3C//DTD SVG 1.1//EN" "http://www.w3.org/Graphics/SVG/1.1/DTD/svg11.dtd">
<svg version="1.1" id="Layer_1" xmlns="http://www.w3.org/2000/svg" xmlns:xlink="http://www.w3.org/1999/xlink" x="0px" y="0px"
	 viewBox="0 0 31.8 64.7" enable-background="new 0 0 31.8 64.7" xml:space="preserve">
<g>
	<g>
		<path fill="none" d="M0.6,25.8c0,0,9.3-12.4,15.4-24.5c4.6,10.1,5.9,15.2,15.8,22.2 M15.6,3.9c-3.6,32.1,1.8,50.5,16.2,60.3"/>
		<g>
			<g>
				<g>
					<path fill="#FFFFFF" d="M31.4,64.7c0.1-0.1,0.2-0.2,0.1-0.2l-0.2,0.2L31.4,64.7z"/>
					<path fill="#FFFFFF" d="M31.3,63.8c-0.2,0.1-0.5,0.2-0.6,0.5c0.3-0.2,0.2-0.1,0.5-0.3c0.1,0,0.1,0.2,0,0.3c0.1,0,0.1,0.1,0.2,0
						c0-0.3-0.1-0.4-0.3-0.3C31.1,63.9,31.2,63.9,31.3,63.8z"/>
					<path fill="#FFFFFF" d="M24.8,57.2L24.8,57.2C24.8,57.3,24.8,57.2,24.8,57.2z"/>
					<path fill="#FFFFFF" d="M21.7,52.4C21.8,52.5,21.8,52.5,21.7,52.4C21.8,52.4,21.7,52.4,21.7,52.4z"/>
					<path fill="#FFFFFF" d="M21.6,51.4C21.6,51.5,21.6,51.5,21.6,51.4C21.6,51.5,21.6,51.4,21.6,51.4z"/>
					<path fill="#FFFFFF" d="M24.8,57.2l0-0.2C24.7,57.1,24.8,57.1,24.8,57.2z"/>
					<path fill="#FFFFFF" d="M29.7,63.7c0,0,0.1,0,0.1,0C29.8,63.7,29.8,63.7,29.7,63.7L29.7,63.7z"/>
					<path fill="#FFFFFF" d="M26.7,58.9L26.7,58.9c0.1,0,0.1,0,0.2,0L26.7,58.9z"/>
					<path fill="#FFFFFF" d="M28.1,60.2c0,0-0.2,0.2-0.3,0.2c0.1-0.1,0.2-0.1,0.2-0.1C28,60.3,28,60.3,28.1,60.2z"/>
					<path fill="#FFFFFF" d="M30.1,62.5L30.1,62.5C30.1,62.5,30.1,62.5,30.1,62.5z"/>
					<path fill="#FFFFFF" d="M25.8,57.8C25.8,57.8,25.9,57.8,25.8,57.8C25.8,57.8,25.8,57.8,25.8,57.8z"/>
					<path fill="#FFFFFF" d="M14.1,6C14.1,6,14.1,6,14.1,6C14.1,6,14.1,6,14.1,6z"/>
					<polygon fill="#FFFFFF" points="15.7,3.9 15.7,4 15.8,4 					"/>
					<path fill="#FFFFFF" d="M21.1,49.7L21.1,49.7C21.2,49.7,21.1,49.7,21.1,49.7z"/>
					<path fill="#FFFFFF" d="M16.5,34.3c-0.2,0.2-0.4-0.3-0.6,0.1C16,34.3,16.3,34.6,16.5,34.3z"/>
					<path fill="#FFFFFF" d="M29.7,63.7C29.7,63.6,29.7,63.6,29.7,63.7C29.7,63.6,29.7,63.6,29.7,63.7z"/>
					<path fill="#FFFFFF" d="M15.9,34.4L15.9,34.4L15.9,34.4C15.8,34.4,15.8,34.4,15.9,34.4z"/>
					<path fill="#FFFFFF" d="M19.4,46.1C19.3,46.1,19.3,46.1,19.4,46.1C19.3,46.1,19.3,46.1,19.4,46.1z"/>
					<path fill="#FFFFFF" d="M20.1,49L20.1,49C20.1,49,20.1,49,20.1,49z"/>
					<path fill="#FFFFFF" d="M18.5,44.7c0,0,0-0.1,0-0.1C18.4,44.6,18.4,44.6,18.5,44.7C18.5,44.6,18.5,44.7,18.5,44.7z"/>
					<polygon fill="#FFFFFF" points="18,43.1 17.9,43.2 18,43.2 					"/>
					<path fill="#FFFFFF" d="M13.7,11.2c0.1,0,0.2,0,0.3-0.1C13.8,11.1,13.7,10.9,13.7,11.2z"/>
					<path fill="#FFFFFF" d="M29.8,63.6c-0.1,0.1-0.1,0.1-0.1,0.1C29.7,63.7,29.8,63.7,29.8,63.6C29.8,63.6,29.8,63.6,29.8,63.6z"/>
					<path fill="#FFFFFF" d="M16.3,45.3l0-0.3C16.3,45.2,16.3,45.3,16.3,45.3z"/>
					<path fill="#FFFFFF" d="M13.4,23.2L13.4,23.2C13.3,23.2,13.3,23.2,13.4,23.2z"/>
					<path fill="#FFFFFF" d="M16,44.3c0.1-0.1,0.1-0.1,0.1-0.2c0,0,0,0-0.1,0L16,44.3z"/>
					<path fill="#FFFFFF" d="M14,11.1L14,11.1L14,11.1z"/>
					<path fill="#FFFFFF" d="M13.5,9.3c0,0.3,0.3,0.1,0.6,0.2c0.1,0.3-0.3,0.1-0.5,0.2c0.1,0.2,0.4,0.4,0.4,0.5c-0.1,0-0.1,0-0.2,0
						c0.3,0.2,0,0.6,0.3,0.9c0,0-0.1,0-0.1,0c0.2,0,0.4,0,0.5,0c0,0.1,0.2,0.2,0,0.3c0-0.1-0.1-0.1-0.2-0.1l0.1,0.1
						c-0.4,0.1-0.1-0.2-0.4-0.2c0.1,0.2,0.4,0.5,0.3,0.7c-0.3,0-0.1-0.4-0.4-0.2l0.1-0.3c-0.5,0.2,0-0.2-0.5,0
						c-0.1,0.4,0.1,0.4,0,0.8c0.2,0.1,0.3,0,0.5,0.1c0.3,0.5-0.9,0.4-0.5,0.8c0.2,0.1,0.6,0.2,0.4,0.4l-0.4-0.1
						c-0.1,0.4,0.5,0.2,0.3,0.6c-0.1-0.1-0.1-0.3-0.2-0.2c-0.3,0.2,0.2,0.2,0.2,0.4l-0.3,0c0,0.4,0.2,0.8,0.3,1.2
						c-0.1,0-0.2-0.1-0.3,0c0.2,0.5-0.1,1.1-0.3,1.6l0.3,0.2c0,0-0.1,0.1-0.2,0c-0.1,0.2,0.2,0,0.3,0.1c0,0.1-0.2,0.1-0.3,0.1
						c0.2,0.4,0.5,1,0.2,1.4l-0.1-0.1c-0.1,0.3,0.6,0.3,0.3,0.6l-0.1-0.1c-0.1,0.6,0.1,1.3-0.3,1.8c0.4,0.1-0.2,0.6,0.4,0.7
						c-0.3,0.4-0.4,0.3-0.6,0.8c0,0.1,0.4,0.2,0.4,0.4l-0.3,0l0.3,0.2L13.3,23l0.1,0.2c0-0.1,0.1-0.1,0.2-0.1
						c0.1,0.2-0.2,0.6-0.4,0.6l0.3,0.6c-0.1,0-0.2-0.1-0.2-0.2c0.3,0.3-0.3,0.1,0,0.3c0.1,0,0.2,0,0.2,0c-0.2,0.1-0.2,0.5-0.1,0.7
						l-0.2,0c-0.1,0.4,0.1,0.9,0.2,1.4c0.1-0.2,0.5-0.2,0.5,0l-0.3,0.1c0.2,0.1,0.1-0.2,0.4,0c0,0.2-0.4,0.1-0.5,0l0.1,0.2
						c-0.1,0-0.2,0-0.3,0c0.2,0.1-0.3,0.4,0.1,0.5l-0.1,0c0,0.5,0.1,0.7,0.2,1.1c0.3,0,0.2,0.1,0.5,0.2c-0.1,0.3-0.3,0.6-0.2,1
						c0.2,0.2,0.2,0.1,0.4,0.1c-0.3,0-0.2,0.4-0.4,0.2c0.1,0.4,0.1,0.5,0.4,1c0.1-0.1,0.1-0.1,0.2-0.1c0.1,0.1-0.1,0.2-0.2,0.2l0,0
						c0.4,0.5-0.6,1.4,0,1.8l0,0l0.3,0.4c0,0.2-0.2-0.1-0.3,0.1c0.5,0.5,0,0.8,0.4,1.2c-0.7,0.4,0.2,1.2-0.2,1.7l0.2-0.1
						c0.2,0.1-0.1,0.2-0.1,0.2c0.1,0,0.1-0.2,0.2-0.1c0.4,0.9,0.1,2.1,0.1,3.1c0,0.4,0.9,0,0.6,0.6l-0.4-0.1
						c0.6,0.6,0.3,1.5,0.8,2.1c-0.1,0-0.2,0-0.2-0.1c-0.2,0.2,0.1,0.6,0.3,0.5c0,0.1-0.2,0.1-0.2,0.2c-0.1,0.2,0.4,0.3,0.2,0.4
						c0,0-0.1,0-0.1,0c0.1,0.1,0.1,0.5,0.4,0.3c0,0.3,0.3,0.5,0.2,0.7c0.3,0,0,0.5,0.4,0.4c-0.4,0.1-0.2,0.6,0.1,0.7
						c-0.1,0-0.1,0.2-0.3,0.2c0.1,0.2,0.2,0.3,0.4,0.2c-0.4,0.5,0.6,0.6,0.1,1c0.5,0.5,0.8,0.9,1.1,1.4c-0.4,0.2-0.3-0.5-0.7-0.3
						c0.4,0.4,0.8,0.5,0.9,1c0,0.1-0.2,0-0.3,0c0.4,0.4,0.3,0.9,0.7,1.2c0,0-0.1,0-0.2,0c0.1,0.1,0,0.2,0.2,0.1l-0.1-0.1
						c0.2-0.2,0.7,0.1,0.9,0c-0.6,0.1,0.1,0.5-0.7,0.6c0.1,0,0.2,0.1,0.3,0c0,0.1-0.1,0.2-0.2,0.1c0.2,0.2,0.4,0,0.5,0.3
						c-0.1,0-0.1,0-0.3,0c0.2,0,0.5,0.1,0.5,0.3c-0.1,0-0.1,0.1-0.1,0c0.2,0.4,0.8,0.4,0.8,0.9c-0.4,0.1-0.1,0.2-0.4,0.4l0.2,0.2
						l0.1-0.2c0.1,0.2,0.4,0.2,0.4,0.4L20.4,53l0.3,0.3l0-0.3c0.3,0.1,0.4-0.3,0.5,0c-0.1,0,0.1,0.2,0,0.4l0,0
						c0.2,0,0.3,0.1,0.3,0.2c-0.1,0.1-0.4,0.2-0.4,0.3c0.3-0.1,0.3,0.4,0.7,0.3c-0.1,0-0.3,0.1-0.3,0.1l0.3-0.1c0,0.1,0,0.2-0.2,0.2
						c0.1,0.3,0.3-0.3,0.4,0.1c0,0-0.1,0-0.1,0c0.1,0.4,0.5,0.5,0.6,0.8c-0.3,0.3-0.2-0.2-0.4,0.1c0.3,0.4,1,0.5,1.2,0.9l0-0.1
						c0.5-0.3,0,0.4,0.3,0.5c-0.1,0-0.3,0.1-0.2,0.1c0.1,0.3,0.5,0.4,0.9,0.7l-0.1,0c0,0.2,0.2,0.4,0.3,0.6c0.1,0,0.2,0.1,0.3-0.1
						c-0.2,1,1.1,0.6,1,1.4c0,0-0.2,0-0.2,0l0.4,0.3c0.1-0.2,0.1-0.1,0.1-0.3c0.1-0.1,0.3,0,0.4,0.1c-0.2,0-0.3,0.3-0.3,0.4
						c0-0.1,0.1-0.1,0.2-0.1c-0.1,0.5,0.4-0.3,0.4,0.1L26.4,60c0.1,0,0.3,0,0.4,0.1c-0.1,0.2-0.2,0-0.3,0.1c0.1,0.1,0.6-0.1,0.6,0.2
						c-0.1,0-0.2-0.1-0.3-0.1c-0.1,0.3,0,0.3,0.1,0.4l0,0l0.1,0.3l0-0.1c0.7-0.4,0.4,0.2,1,0.1c-0.5,0.1-0.2,0.2-0.4,0.4
						c0,0.1,0,0.3-0.1,0.3c0.3-0.1,0.1,0.3,0.5,0.2c-0.1,0.1,0.1,0.1-0.1,0.3c0.2,0.1,0.1-0.2,0.2-0.2c0.4-0.1,0.3,0.8,0.9,0.7
						c0.4,0.1,0.7-0.1,1-0.1c0,0.2-0.3,0.2-0.3,0.2c0.1,0.2,0.2,0.3,0.4,0.3c-0.1,0-0.1,0.1-0.1,0.2c0.1,0.1,0.3-0.2,0.4,0
						c-0.1,0.1-0.2,0.2-0.3,0.2c0.2,0,0.4,0,0.6,0c-0.1,0.2-0.2,0.1-0.4,0.2c0.2,0.1,0.5,0.2,0.7,0l0-0.2c0.1,0-0.1,0.2-0.2,0.2
						c-0.3,0.1-0.1-0.2-0.1-0.3l0.1,0c0.2-0.5-0.4-0.2-0.6-0.4l0.3-0.3L30,63.1c0-0.1,0.1-0.3,0.3-0.3c0-0.3-0.2,0-0.2-0.2
						c0,0,0,0,0-0.1l-0.2,0c0.1,0,0.2-0.2,0.2-0.1c-0.1-0.4-0.6,0-0.5-0.4l0,0c-0.4-0.1-0.2,0.2-0.7,0.3l0.3-0.7L29,61.8
						c0,0-0.1-0.1,0-0.2c-0.3,0.1-0.1,0.1-0.3,0.2c0-0.4-0.5-0.3-0.2-0.7c-0.2,0.1,0,0.3-0.2,0.2c0.3-0.4-0.3-0.1-0.2-0.4
						c0.2-0.2,0.3,0.1,0.3-0.2C28,61,28.1,60.4,28,60.4c-0.3,0.3-0.4-0.1-0.6-0.2c0.1-0.1-0.2-0.5-0.3-0.8l0,0
						c-0.3,0.2-0.4,0-0.6-0.1c0.2-0.1,0.2-0.2,0.4-0.2l-0.1-0.1c-0.1,0.1-0.2,0.1-0.3,0l0.2-0.2c-0.2-0.2-0.6-0.1-0.6-0.5
						c-0.2,0.2-0.4,0.7-0.7,0.5c0.1-0.1,0.3-0.3,0.4-0.2c0,0-0.2,0-0.1-0.1l0.3-0.1c0-0.2-0.2,0.1-0.3,0c0.1-0.1,0-0.2,0.2-0.2
						c0,0,0,0.1,0.1,0.1c-0.1-0.1-0.1-0.3,0-0.4c-0.1,0.1-0.2,0.2-0.3,0.1c-0.2-0.2,0.1-0.2,0.1-0.4c-0.1,0-0.1-0.2-0.4,0
						c0-0.1,0.1-0.2,0.1-0.2c-0.2,0-0.4-0.4-0.5-0.1l0,0l0,0l0,0l0,0c-0.5-0.1-0.4-0.8-0.7-1l0.1-0.1c-0.2-0.1-0.4-0.4-0.6-0.4
						c0-0.1,0-0.2,0.2-0.3c-0.2-0.1-0.3-0.1-0.3-0.4c0.3,0,0.1-0.1,0.2,0.1c-0.1-0.2,0-0.4-0.3-0.4c0.3-0.1,0.2-0.3,0-0.4l-0.1,0.2
						c-0.1-0.1-0.1-0.2-0.2-0.3l0.3-0.1c0.1-0.6-1-0.4-0.7-1c-0.3,0,0,0.3-0.3,0.4c-0.1-0.2,0.2-0.7,0.2-0.7c0-0.3-0.6,0-0.6-0.3
						c-0.1,0.1-0.3,0.3-0.6,0.1c-0.1-0.2,0.3-0.5,0.4-0.4c0,0,0,0.1,0,0.1c0.1,0,0.2,0.1,0.2,0l-0.1,0c0-0.2-0.1-0.4,0.1-0.4
						c-0.2-0.1-0.2,0-0.2,0.2c0-0.3-0.2-0.4-0.2-0.7c0,0.1-0.1,0.2-0.2,0.1c-0.1-0.5-0.3-0.1-0.5-0.3c0.1-0.2,0.4-0.2,0.1-0.3
						c0-0.2,0.3-0.2,0.4-0.2c-0.3-0.1-0.1-0.5-0.1-0.7l0.1,0.1c-0.1,0-0.1-0.1-0.1-0.2l-0.2,0.2c0-0.1,0-0.2,0.1-0.2
						c-0.2,0-0.3,0.2-0.6,0.2c0.1-0.2-0.3-0.2,0-0.4c0.1,0.4,0.3-0.2,0.4,0.1c-0.1,0-0.1-0.1-0.1-0.2c0,0,0.1,0,0.1,0
						c0.1-0.4-0.4,0-0.5-0.3c0.2,0,0.3-0.2,0.2-0.2c0.1,0.1-0.2,0.2-0.4,0.1c0-0.3-0.2-0.2-0.2-0.3v0.1c-0.2,0-0.2-0.1-0.3-0.2
						c0.1-0.1,0.1,0.1,0.2,0c-0.3,0,0.2-0.5-0.1-0.6c0.1-0.1,0.3-0.1,0.3-0.3c-0.3-0.2,0.1-0.4-0.2-0.5c-0.2,0.2-0.1,0.2-0.4,0.1
						l0.3,0.4l-0.4-0.1c0,0.1,0.2,0.2,0.2,0.3c-0.2-0.1-0.2-0.1-0.3,0.1c0.3-0.3-0.3-0.3-0.2-0.6l0.5-0.2c0.1-0.4-0.5-0.4-0.5-0.9
						l0,0.2c-0.2,0-0.1-0.2-0.3-0.3c0.2-0.1,0.2-0.2,0.3-0.3c-0.1,0.1-0.1-0.3-0.5-0.2l0.2-0.3c0-0.4-0.6-0.2-0.7-0.5
						c0.2,0,0.3-0.2,0.5,0c0-0.1,0-0.2-0.2-0.2c0.1-0.1-0.3-0.2-0.2-0.4c-0.1,0-0.3,0-0.3-0.1c0,0,0.1,0,0.1,0c-0.1,0-0.2-0.1-0.4,0
						c0.5-0.5-0.3-0.9,0.1-1.3c-0.1-0.2-0.3-0.5-0.4-0.7c0.1,0,0.1,0,0.1,0c0.1-0.3-0.6,0-0.5-0.4c0.3-0.3,0.2,0.1,0.3,0
						c0.6-0.2-0.2-0.4,0.1-0.7l0.1,0c0.2-0.2-0.3-0.4-0.4-0.7c0,0,0.1,0,0.1,0c-0.4-0.1-0.6-0.5-0.7-0.7c0.3,0,0.2,0.1,0.4,0
						c-0.1-0.1-0.4,0.1-0.5-0.1c0.1-0.1,0.2-0.3,0.5-0.4l0.1,0.2c0.3-0.2-0.1-0.3-0.1-0.4l0.2,0c-0.1-0.3-0.5-0.3-0.6-0.6l-0.1,0.1
						c-0.4-0.1,0.2-0.2-0.1-0.4l0.4-0.1c-0.1-0.1-0.5-0.4-0.6-0.6c0.3,0.1,0.5,0.3,0.7,0.5c0-0.1-0.1-0.5-0.3-0.5
						c0,0,0.2,0.1,0.1,0.2c-0.3-0.1-0.5-0.3-0.6-0.6c0.8-0.1,0.1-0.7,0.6-1c-0.4-0.4,0-1-0.2-1.5c-0.6,0.3,0-0.2-0.6,0
						c-0.1-0.1-0.1-0.2,0-0.2l0.3-0.5c0.2-0.1,0.1,0.1,0.3,0.1c0-0.3,0.2-0.2,0.4-0.4c-0.2,0.1-0.3-0.1-0.3-0.2l-0.3,0.3
						c-0.4-0.4,0.5-0.4,0.1-0.8l0.2,0.1c-0.1-0.2-0.1-0.8-0.6-0.9c0.1,0,0.2-0.1,0.3,0c0-0.5-0.6-1.1-0.4-1.5l0.2,0
						c-0.1-0.1-0.3-0.1-0.2-0.3c0.1,0,0.2,0,0.2,0c-0.1,0-0.3-0.2-0.2-0.4l0.2,0.1c0.2-0.5-0.5-0.7-0.6-1.1c0.4,0,0.6-0.4,0.6-0.6
						l0.1,0c0-0.6-0.4-0.9-0.6-1.5c0.5-0.4,0.1-1.1,0.4-1.7c-0.1,0.1-0.3,0-0.4-0.1c0.1-0.1-0.3-0.3,0.1-0.3l0,0
						c0.4-0.1,0.3-0.4,0.3-0.6l-0.5,0c0.8-0.5-0.3-1.4,0.4-1.7c-0.1-0.1-0.1-0.3-0.3-0.4l0.3,0c0.1-0.3,0.1-0.5,0-1l0.2,0.1
						c0-0.2-0.8-0.3-0.8-0.5l0.4-0.1c0-0.4,0.4-0.8,0-1.3c0.1,0,0.2,0,0.2,0.1c0-0.2,0.3-0.8-0.3-0.7c0.4,0,0-0.4-0.1-0.7l0.3,0
						c-0.4-0.2-0.4-0.2-0.5-0.5c0-0.1,0.2,0,0.2,0c0.2-0.2-0.3-0.2-0.1-0.4l0.2,0.1c0-0.2-0.1-0.2-0.3-0.3c-0.1-0.1,0.1-0.4,0.3-0.4
						c-0.2,0-0.4-0.2-0.3-0.3c0.1,0,0.2,0,0.2,0.1c0.2-0.4-0.3-0.6,0-0.8c0.1,0,0.1,0,0.2,0c0,0.3,0,0.5-0.1,0.5
						c0.3,0,0.3-0.2,0.7,0c-0.2-0.2-0.6-0.5-0.5-0.8c0,0,0.1,0,0.1,0l0,0c0-0.1,0-0.1,0-0.1c0-0.1,0.1-0.1,0.1-0.2
						c0.2,0,0.1-0.3,0.2-0.4c-0.3,0-0.2-0.2-0.5,0c0,0,0,0,0,0.1c0,0,0,0,0,0.1l0,0c0,0.1,0,0.2,0,0.3c-0.1-0.1-0.3-0.2-0.1-0.3
						c-0.2-0.1-0.4-0.1-0.4-0.2c0.4-0.1,0.6-0.4,0.9-0.5c-0.1-0.4,0-0.8-0.6-1.1c-0.1-0.1,0.2-0.1,0.2-0.1c0,0.1,0,0.1,0.1,0.2
						c-0.1-0.2,0-0.6-0.4-0.7c0.2-0.2,0.3,0.2,0.3-0.2l0.1,0.1c0.6-0.7-0.9-1.2-0.1-1.9c0,0-0.1,0.1-0.1,0.1
						c0.4-0.9-0.1-1.8,0.5-2.7c0.1-0.2-0.1-0.3-0.3-0.5l0.3,0l-0.3-0.3c-0.2-0.4,0.8-0.6,0.4-1.1l-0.2,0c0.1-0.2-0.1-0.5,0.2-0.5
						c0,0-0.2-0.1-0.1-0.1l0.2,0l-0.2-0.4c0.1-0.3,0.6,0.1,0.7-0.3c0-0.2-0.4-0.5-0.5-0.5c0,0.1-0.1,0.2-0.3,0.2L15.7,4
						c-0.5-0.1-0.9-0.3-1.3,0.1l0.3,0.3l-0.2,0.1l0-0.2c-0.2,0.1,0,0.2,0.1,0.3c-0.1,0-0.2,0-0.3,0.1l0.4,0.3c-0.2,0-0.3-0.2-0.5,0
						c0.2,0.1,0.4-0.1,0.5,0.1c-0.2,0.1-0.4,0.1-0.2,0.2c-0.1,0-0.2,0-0.2-0.1c0.1,0.2,0,0.4,0.3,0.5c-0.3,0.1,0,0.5-0.4,0.4
						c0.1,0.1,0.3,0.3,0.3,0.4c-0.5-0.3-0.1,0.5-0.6,0.3c0.5,0.2,0.2,0.6,0.4,0.9c0,0-0.1-0.1-0.1-0.1C14,7.8,13.9,7.9,13.8,8
						c0.4,0.1,0.5,0.3,0.7,0.5c-0.4,0.2-0.4-0.2-0.8-0.1c0.3,0,0.3,0.4,0.6,0.3c-0.2,0.1-0.1,0.1-0.5,0.2c0.5,0.1,0.1,0.2,0.4,0.3
						c-0.3,0.2-0.5,0-0.3,0.3C13.6,9.5,13.5,9.3,13.5,9.3z M13.9,15.3L13.9,15.3c0-0.1,0-0.1,0-0.1C13.9,15.2,13.9,15.2,13.9,15.3z
						 M13.9,15.8c0-0.1,0-0.1,0-0.2c0.1,0,0.2,0,0.2,0.1C14,15.6,14,15.7,13.9,15.8z M15.9,14.8c0,0.1,0,0.1-0.1,0.1
						c0,0,0-0.1,0-0.1l0,0C15.8,14.8,15.8,14.8,15.9,14.8z"/>
					<path fill="#FFFFFF" d="M15.5,14.7C15.5,14.7,15.5,14.6,15.5,14.7C15.5,14.6,15.5,14.7,15.5,14.7L15.5,14.7L15.5,14.7z"/>
					<path fill="#FFFFFF" d="M24.8,57.3L24.8,57.3C24.8,57.3,24.8,57.3,24.8,57.3C24.8,57.3,24.8,57.3,24.8,57.3z"/>
					<polygon fill="#FFFFFF" points="13.2,22.7 13.3,22.7 13.2,22.6 					"/>
					<path fill="#FFFFFF" d="M25.9,60C25.9,60,25.9,60,25.9,60C25.9,60,25.9,60,25.9,60z"/>
					<path fill="#FFFFFF" d="M26.7,60.9l0.1,0.2C26.8,61,26.8,60.9,26.7,60.9z"/>
					<path fill="#FFFFFF" d="M27.3,61.6C27.4,61.6,27.4,61.5,27.3,61.6L27.3,61.6L27.3,61.6z"/>
					<path fill="#FFFFFF" d="M18.4,49.9C18.4,49.9,18.4,49.8,18.4,49.9C18.3,49.8,18.4,49.8,18.4,49.9z"/>
					<path fill="#FFFFFF" d="M21.1,53.4c-0.1,0-0.1,0-0.2-0.1C20.9,53.5,20.9,53.5,21.1,53.4z"/>
					<polygon fill="#FFFFFF" points="16.4,45.4 16.4,45.4 16.3,45.3 					"/>
					<path fill="#FFFFFF" d="M20.8,53.2c0,0.1,0,0.1,0.1,0.2C20.9,53.3,20.9,53.2,20.8,53.2z"/>
					<path fill="#FFFFFF" d="M30.4,64.2L30.4,64.2C30.4,64.2,30.4,64.2,30.4,64.2L30.4,64.2z"/>
					<path fill="#FFFFFF" d="M30.4,64.2L30.4,64.2C30.5,64.2,30.5,64.2,30.4,64.2z"/>
					<path fill="#FFFFFF" d="M30.6,64.2l-0.1,0C30.5,64.3,30.6,64.3,30.6,64.2z"/>
					<path fill="#FFFFFF" d="M29.5,63.4L29.5,63.4C29.4,63.5,29.5,63.4,29.5,63.4z"/>
					<path fill="#FFFFFF" d="M29.2,63.2c0.1,0.1,0,0.3,0.2,0.3l0.1-0.1C29.3,63.5,29.3,63.1,29.2,63.2z"/>
					<path fill="#FFFFFF" d="M28.8,61.2l0.2,0.3c0-0.1,0.1-0.3,0.2-0.2C29.1,60.8,29.1,61.5,28.8,61.2z"/>
					<path fill="#FFFFFF" d="M28.2,60.5c0.2,0.1,0.1-0.1,0.2-0.2C28.2,60.3,28.2,60.3,28.2,60.5z"/>
					<path fill="#FFFFFF" d="M23.7,55.5l0.2-0.1C23.8,55.3,23.8,55.4,23.7,55.5z"/>
					<polygon fill="#FFFFFF" points="21.9,55.2 21.8,55.4 22,55.3 					"/>
					<polygon fill="#FFFFFF" points="23,53.5 23,53.5 22.9,53.4 					"/>
					<path fill="#FFFFFF" d="M18.3,43.4L18,43.5C18.1,43.5,18.4,43.5,18.3,43.4z"/>
					<path fill="#FFFFFF" d="M16.8,38.7c0.1-0.1,0.2-0.2,0-0.3C16.8,38.5,16.7,38.6,16.8,38.7z"/>
					<polygon fill="#FFFFFF" points="15.8,24 15.9,24.1 15.8,23.9 					"/>
				</g>
			</g>
		</g>
		<g>
			<g>
				<g>
					<path fill="#FFFFFF" d="M31.4,24.1c0.1-0.1,0.2-0.2,0.1-0.2l-0.2,0.2L31.4,24.1z"/>
					<path fill="#FFFFFF" d="M31.3,23.2c-0.2,0.1-0.4,0.2-0.6,0.5c0.3-0.2,0.2-0.1,0.5-0.3c0.1,0,0.1,0.2,0,0.3
						c0.1-0.1,0.1,0.1,0.2,0c0.1-0.3,0-0.4-0.3-0.3C31.2,23.3,31.2,23.3,31.3,23.2z"/>
					<path fill="#FFFFFF" d="M25.6,17.6L25.6,17.6C25.6,17.7,25.6,17.7,25.6,17.6z"/>
					<path fill="#FFFFFF" d="M22.7,13.7C22.7,13.7,22.8,13.7,22.7,13.7C22.8,13.7,22.7,13.7,22.7,13.7z"/>
					<path fill="#FFFFFF" d="M22.6,12.8C22.6,12.8,22.6,12.8,22.6,12.8C22.6,12.8,22.6,12.8,22.6,12.8z"/>
					<path fill="#FFFFFF" d="M25.6,17.6l0-0.2C25.5,17.5,25.5,17.6,25.6,17.6z"/>
					<path fill="#FFFFFF" d="M29.9,23.2c0,0,0.1,0,0.1,0C30,23.2,30,23.2,29.9,23.2L29.9,23.2z"/>
					<path fill="#FFFFFF" d="M27.3,19L27.3,19c0.1,0,0.1,0,0.1,0L27.3,19z"/>
					<path fill="#FFFFFF" d="M28.5,20c0,0-0.2,0.2-0.3,0.3c0.1-0.1,0.1-0.1,0.2-0.1C28.5,20.2,28.5,20.1,28.5,20z"/>
					<path fill="#FFFFFF" d="M30.3,22.1L30.3,22.1C30.3,22.1,30.3,22.1,30.3,22.1z"/>
					<path fill="#FFFFFF" d="M26.5,18.1C26.5,18.1,26.5,18.1,26.5,18.1C26.5,18.1,26.5,18.1,26.5,18.1z"/>
					<path fill="#FFFFFF" d="M2.8,25C2.8,25,2.8,25,2.8,25C2.8,25,2.8,25.1,2.8,25z"/>
					<polygon fill="#FFFFFF" points="0.5,25.8 0.5,25.8 0.4,25.7 					"/>
					<path fill="#FFFFFF" d="M22.1,11.3L22.1,11.3C22.2,11.3,22.2,11.3,22.1,11.3z"/>
					<path fill="#FFFFFF" d="M14,2.6c0.3,0,0,0.6,0.4,0.6C14.3,3.1,14.3,2.4,14,2.6z"/>
					<path fill="#FFFFFF" d="M29.9,23.2C29.9,23.2,29.9,23.1,29.9,23.2C29.9,23.2,29.9,23.2,29.9,23.2z"/>
					<path fill="#FFFFFF" d="M14.4,3.1L14.4,3.1L14.4,3.1C14.5,3.1,14.4,3.1,14.4,3.1z"/>
					<path fill="#FFFFFF" d="M20.4,8.3C20.4,8.3,20.3,8.3,20.4,8.3C20.3,8.3,20.4,8.3,20.4,8.3z"/>
					<path fill="#FFFFFF" d="M21.2,10.8L21.2,10.8C21.2,10.8,21.2,10.8,21.2,10.8z"/>
					<path fill="#FFFFFF" d="M19.5,7.2C19.5,7.2,19.5,7.1,19.5,7.2C19.4,7.1,19.4,7.1,19.5,7.2C19.5,7.1,19.5,7.1,19.5,7.2z"/>
					<polygon fill="#FFFFFF" points="18.9,5.9 18.8,5.9 18.9,6 					"/>
					<path fill="#FFFFFF" d="M5.2,21.4c-0.1,0-0.2-0.1-0.2-0.1C5.2,21.4,5.1,21.6,5.2,21.4z"/>
					<path fill="#FFFFFF" d="M30,23.1c0,0.1-0.1,0.1-0.1,0.1C29.9,23.2,29.9,23.2,30,23.1C30,23.1,30,23.1,30,23.1z"/>
					<path fill="#FFFFFF" d="M17.4,8.1l-0.1-0.2C17.4,7.9,17.4,8,17.4,8.1z"/>
					<path fill="#FFFFFF" d="M10.9,12.6L10.9,12.6C10.9,12.7,10.9,12.7,10.9,12.6z"/>
					<path fill="#FFFFFF" d="M17,7.2c0.1-0.1,0.1-0.1,0.1-0.2c0,0,0,0-0.1,0L17,7.2z"/>
					<path fill="#FFFFFF" d="M5,21.3L5,21.3L5,21.3z"/>
					<path fill="#FFFFFF" d="M4.7,22.9c0.1-0.2-0.2-0.3-0.4-0.5c0.1-0.3,0.3,0.1,0.5,0.1c0-0.2-0.2-0.5-0.1-0.6c0.1,0,0.1,0,0.1,0.1
						c-0.1-0.3,0.3-0.4,0.1-0.8c0,0,0.1,0,0.1,0c-0.2-0.1-0.3-0.2-0.4-0.3c0.1-0.1-0.1-0.3,0.1-0.2c0,0,0,0.1,0.1,0.2l0-0.1
						C5.1,21,4.8,21,5,21.2c0-0.2-0.1-0.6,0.1-0.7c0.3,0.2-0.1,0.4,0.3,0.4L5.1,21c0.5,0.2-0.1,0.1,0.5,0.3c0.3-0.2,0.1-0.4,0.3-0.6
						c-0.1-0.2-0.2-0.1-0.4-0.3c0-0.6,0.9,0.2,0.7-0.3c-0.1-0.2-0.5-0.5-0.2-0.5l0.3,0.3c0.2-0.2-0.4-0.5,0-0.6c0.1,0.1,0,0.3,0,0.3
						c0.4,0-0.1-0.2,0-0.4l0.3,0.2c0.1-0.3,0.1-0.7,0.3-1.1c0.1,0.1,0.1,0.2,0.3,0.2c0.1-0.5,0.6-0.8,1-1L8,17.1c0,0,0.2,0,0.2,0.1
						c0.2-0.1-0.2-0.1-0.2-0.2c0-0.1,0.2,0,0.3,0.1c0-0.4,0-1,0.5-1.1l0,0.1c0.2-0.1-0.4-0.6,0-0.6l0,0.1c0.4-0.4,0.5-1,1.1-1.1
						c-0.3-0.3,0.4-0.3,0-0.7c0.4-0.1,0.5,0,0.8-0.2c0.1-0.1-0.2-0.3-0.2-0.5l0.3,0.2l-0.2-0.3l0.4,0.1l0-0.2c0,0-0.2,0-0.2,0
						c0-0.3,0.4-0.3,0.6-0.2l0-0.6c0.1,0.1,0.1,0.2,0.1,0.3c-0.1-0.4,0.3,0.1,0.2-0.2c-0.1,0-0.1-0.1-0.2-0.1c0.2,0,0.4-0.2,0.4-0.5
						l0.2,0.1c0.2-0.3,0.3-0.7,0.5-1.1c-0.2,0.1-0.5-0.1-0.4-0.3l0.3,0.1c-0.1-0.2-0.2,0-0.3-0.2c0.1-0.1,0.4,0.1,0.4,0.2l0-0.2
						c0.1,0,0.1,0.1,0.2,0.2c-0.1-0.2,0.4-0.1,0.2-0.4l0.1,0c0.2-0.4,0.2-0.6,0.4-0.9c-0.2-0.1-0.1-0.2-0.3-0.4
						c0.2-0.2,0.5-0.3,0.7-0.6c0-0.3-0.2-0.2-0.3-0.3c0.2,0.1,0.4-0.2,0.4,0.1c0.1-0.3,0.2-0.4,0.2-0.9c-0.1,0-0.2,0-0.2-0.1
						c0-0.1,0.2-0.1,0.3,0l0,0c-0.1-0.6,1.2-0.7,0.9-1.3l0,0l0-0.5c0.1-0.1,0.1,0.2,0.3,0.1c-0.1-0.7,0.2-0.3,0.1-0.6
						c0.3,0.3,0.3,0.3,0.3,0.2c0-0.1,0-0.3,0.1,0.1l0-0.3c0-0.3,0,0.1,0,0.2c0-0.2,0-0.3-0.1-0.4c0-0.1,0-0.2,0.1-0.2
						c0,0,0.1,0,0.1,0.2c0,0.3,0,0.7,0,0.8c0,0,0.5-1.2,0.3-0.6c0,0-0.1,0.1-0.1,0.2C16,4.8,16,4.9,16,4.9c0.1-0.2,0.2-0.1,0.2,0
						c0,0.1,0,0,0.1,0.1c0.1,0.1,0.2,0.3,0.3,0.4c-0.1,0-0.2,0-0.2,0c-0.2,0.2,0.2,0.4,0.4,0.4c0,0.1-0.2,0.1-0.2,0.2
						c-0.1,0.2,0.4,0.2,0.2,0.3c0,0-0.1,0-0.1,0c0.1,0,0.1,0.4,0.4,0.2c0,0.3,0.3,0.4,0.2,0.6c0.3,0,0,0.4,0.4,0.3
						c-0.4,0.2-0.2,0.5,0.1,0.6c-0.1,0-0.1,0.2-0.3,0.2c0.1,0.2,0.2,0.3,0.4,0.1c-0.4,0.5,0.7,0.4,0.1,0.8c0.4,0.4,0.8,0.7,1.1,1.1
						c-0.4,0.2-0.3-0.4-0.7-0.2c0.4,0.3,0.8,0.4,0.9,0.8c0,0.1-0.2,0-0.3,0c0.4,0.3,0.3,0.8,0.7,1c0,0-0.1,0-0.1,0
						c0,0.1,0,0.2,0.2,0.1l-0.1,0c0.2-0.2,0.7,0,0.8-0.1c-0.6,0.2,0.1,0.4-0.7,0.6c0.1,0,0.2,0,0.3,0c0,0.1-0.1,0.1-0.2,0.2
						c0.2,0.2,0.4,0,0.5,0.2c-0.1,0-0.1,0-0.3,0.1c0.2,0,0.5,0,0.5,0.3c-0.1,0-0.1,0.1-0.1,0c0.2,0.3,0.8,0.3,0.8,0.7
						c-0.4,0.1-0.1,0.2-0.4,0.4l0.2,0.1l0.1-0.2c0.1,0.2,0.4,0.2,0.4,0.4l-0.2,0l0.3,0.3l0-0.2c0.3,0.1,0.4-0.3,0.4,0
						c-0.1,0,0.1,0.2,0,0.4l0,0c0.1,0,0.3,0,0.3,0.2C22.3,14.9,22,15,22,15.1c0.3-0.1,0.3,0.3,0.7,0.2c-0.1,0-0.2,0.1-0.3,0.2
						l0.3-0.1c0,0.1,0,0.1-0.2,0.2c0.1,0.2,0.3-0.3,0.4,0c0,0-0.1,0-0.1,0c0.1,0.3,0.5,0.4,0.5,0.7c-0.2,0.3-0.2-0.1-0.4,0.1
						c0.3,0.3,0.9,0.4,1.1,0.7l0-0.1c0.4-0.3,0,0.4,0.3,0.4c-0.1,0-0.3,0.1-0.2,0.1c0.1,0.3,0.5,0.3,0.9,0.5l-0.1,0.1
						c0,0.2,0.2,0.4,0.3,0.5c0.1-0.1,0.2,0,0.3-0.1c-0.2,0.9,1,0.4,0.9,1.2c0,0-0.2,0-0.1,0l0.4,0.2c0.1-0.2,0.1-0.1,0.1-0.3
						c0.1-0.1,0.3-0.1,0.4,0c-0.2,0-0.3,0.3-0.3,0.4c0-0.1,0.1-0.1,0.2-0.2c-0.1,0.4,0.3-0.3,0.4,0.1L27,20.1c0.1,0,0.3,0,0.4,0.1
						c-0.1,0.2-0.2,0-0.3,0.2c0.1,0.1,0.6-0.2,0.5,0.1c-0.1,0-0.2-0.1-0.3,0c-0.1,0.3,0,0.3,0,0.4l0,0l0.1,0.3l0-0.1
						c0.6-0.4,0.4,0.2,0.9,0c-0.5,0.2-0.2,0.2-0.4,0.4c0,0.1,0,0.3-0.1,0.3c0.3-0.1,0,0.3,0.4,0.1c-0.1,0.1,0.1,0.1-0.1,0.3
						c0.2,0,0.1-0.2,0.2-0.2c0.4-0.1,0.2,0.7,0.8,0.6c0.4,0,0.6-0.2,0.9-0.1c0,0.2-0.3,0.2-0.3,0.2c0,0.2,0.2,0.3,0.3,0.3
						c-0.1,0.1-0.1,0.1-0.1,0.2c0.1,0.1,0.3-0.2,0.3,0c-0.1,0.1-0.2,0.2-0.3,0.2c0.2,0,0.4-0.1,0.6,0c-0.1,0.2-0.2,0.2-0.3,0.2
						c0.2,0,0.4,0.1,0.6-0.1l0-0.1c0.1,0-0.1,0.2-0.2,0.2c-0.2,0.1-0.1-0.2-0.1-0.3l0.1,0c0.3-0.5-0.4-0.2-0.5-0.3l0.3-0.3l-0.4,0.1
						c0-0.1,0.1-0.3,0.3-0.3c0-0.3-0.2,0-0.2-0.2c0,0,0,0,0-0.1l-0.2,0c0.1-0.1,0.2-0.2,0.2-0.1c-0.1-0.4-0.5,0-0.4-0.3l0,0
						c-0.4-0.1-0.2,0.2-0.7,0.3l0.3-0.7l-0.2,0.2c0,0-0.1-0.1,0-0.2c-0.2,0.1-0.1,0.1-0.3,0.2c0-0.3-0.5-0.2-0.2-0.6
						c-0.2,0.1,0,0.2-0.2,0.3c0.3-0.4-0.2-0.1-0.2-0.4c0.2-0.2,0.2,0,0.3-0.3c-0.4,0.3-0.2-0.3-0.3-0.3c-0.2,0.3-0.3-0.1-0.6-0.1
						c0.1-0.1-0.2-0.4-0.3-0.7l0,0c-0.3,0.2-0.4,0-0.6,0c0.2-0.2,0.2-0.2,0.4-0.2L27.3,19c-0.1,0.1-0.2,0.1-0.3,0l0.2-0.2
						c-0.2-0.1-0.5,0-0.6-0.4c-0.2,0.2-0.3,0.7-0.7,0.6c0.1-0.1,0.2-0.3,0.3-0.3c0,0-0.1,0-0.1-0.1l0.2-0.1c0-0.2-0.2,0.1-0.2,0
						c0.1-0.1,0-0.1,0.2-0.3c0,0,0,0.1,0.1,0.1c-0.1-0.1-0.1-0.3,0-0.4c-0.1,0.1-0.2,0.2-0.3,0.2c-0.2-0.1,0.1-0.2,0.1-0.4
						C26.2,18,26.2,17.8,26,18c0,0,0.1-0.1,0.1-0.2c-0.2,0-0.4-0.3-0.5,0l0,0c0,0,0,0,0,0l0,0l0,0c-0.4-0.1-0.4-0.6-0.7-0.8l0.1-0.1
						c-0.2-0.1-0.3-0.3-0.6-0.3c0,0,0-0.2,0.2-0.3c-0.2-0.1-0.3,0-0.3-0.3c0.2,0,0.1-0.1,0.2,0c-0.1-0.2,0-0.3-0.3-0.3
						c0.2-0.1,0.2-0.3,0-0.3l-0.1,0.2c-0.1-0.1-0.1-0.2-0.2-0.2l0.3-0.2c0.1-0.6-1-0.2-0.6-0.8c-0.3,0,0,0.3-0.3,0.4
						c-0.1-0.2,0.2-0.6,0.2-0.7c0-0.3-0.5,0.1-0.6-0.2c-0.1,0.1-0.3,0.3-0.5,0.2c-0.1-0.2,0.3-0.5,0.4-0.4c0,0,0,0.1,0,0.1
						c0.1,0,0.2,0.1,0.2-0.1l-0.1,0c0-0.1-0.1-0.4,0.1-0.4c-0.2-0.1-0.2,0.1-0.2,0.2c0-0.3-0.2-0.3-0.2-0.6c0,0.1-0.1,0.2-0.2,0.1
						c-0.1-0.4-0.3,0-0.4-0.2c0.1-0.2,0.4-0.2,0.1-0.3c0-0.2,0.3-0.2,0.4-0.2c-0.3-0.1-0.1-0.4-0.1-0.6l0.1,0.1
						c-0.1,0-0.1-0.1-0.1-0.1l-0.2,0.2c0-0.1,0-0.1,0.1-0.2c-0.2,0-0.3,0.2-0.6,0.2c0.1-0.1-0.2-0.2,0-0.4c0,0.3,0.3-0.2,0.4,0
						c-0.1,0-0.1-0.1-0.1-0.2c0,0,0.1,0,0.1,0c0.1-0.4-0.4,0.1-0.5-0.2c0.2-0.1,0.3-0.2,0.2-0.2c0.1,0.1-0.2,0.2-0.4,0.2
						c0-0.2-0.2-0.1-0.2-0.2l0,0.1c-0.2,0-0.2,0-0.3-0.1c0.1-0.1,0.1,0.1,0.2,0c-0.3,0,0.1-0.4-0.1-0.5c0.1-0.1,0.3-0.2,0.3-0.3
						c-0.3-0.1,0.1-0.3-0.2-0.5c-0.2,0.2-0.1,0.2-0.4,0.1L21,9.9l-0.4-0.1c0.1,0.1,0.2,0.2,0.2,0.2c-0.2,0-0.2,0-0.3,0.1
						c0.2-0.3-0.3-0.2-0.2-0.5l0.5-0.3c0.1-0.4-0.5-0.3-0.5-0.7l0,0.2C20,8.9,20.1,8.7,20,8.6c0.2-0.1,0.2-0.2,0.3-0.3
						c-0.1,0.1-0.1-0.3-0.5-0.1L20,8c0-0.3-0.7-0.1-0.7-0.4c0.2,0,0.3-0.2,0.5-0.1c0-0.1,0-0.2-0.2-0.1c0.1-0.1-0.4-0.1-0.2-0.3
						c-0.1,0-0.3,0.1-0.3,0c0,0,0.1,0,0.1,0c-0.1,0-0.2-0.1-0.4,0.1c0.4-0.5-0.4-0.7,0-1.2c-0.1-0.2-0.3-0.4-0.4-0.5
						c0.1,0,0.1,0,0.1,0c0.1-0.3-0.6,0.1-0.5-0.3c0.2-0.3,0.2,0.1,0.3-0.1c0.6-0.3-0.2-0.3,0-0.6l0.1,0c0.1-0.1,0-0.2-0.1-0.2
						c-0.1,0-0.1-0.1-0.2-0.1C18,4,17.9,4,17.9,3.9c0,0,0.1,0,0.1,0c-0.4-0.1-0.6-0.4-0.8-0.5c0.2-0.1,0.2,0,0.3-0.3
						c-0.1-0.1-0.3,0.4-0.4,0.2c0.1-0.2,0.1-0.5,0.2-0.9l0.1,0.3c0.2-0.5-0.2-0.4-0.2-0.6l0.1-0.2c-0.2-0.4-0.4,0.1-0.6-0.3l0,0.2
						c-0.2,0.4,0-0.5-0.2-0.3l0.1-0.8c-0.1,0-0.3,0.2-0.4,0.1c0.1-0.5,0.3-0.5,0.4-0.6c-0.1-0.2-0.3-0.5-0.3-0.2
						c0,0,0.1-0.1,0.1,0.1c-0.1,0.2-0.1,0.4-0.2,0.4c0,0-0.1,0-0.1,0c0,0,0,0,0,0.1c0,0,0,0.1,0,0.1c0-0.9-0.1-0.8-0.2-0.6
						c-0.1,0.2-0.3,0.4-0.4,0c-0.1,0.6-0.3,0.8-0.5,1c-0.2,0.2-0.4,0.5-0.6,0.9c0.5,0.4-0.1,0.2,0.3,0.8c0,0.2-0.1,0.2-0.1,0.2
						c0,0-0.5,0.1-0.5,0.2c-0.2,0,0-0.3-0.1-0.3c-0.2,0.4-0.3,0-0.6,0.2c0.2,0.1,0.2,0.3,0,0.5c0,0,0.4-0.2,0.4-0.2
						c0,0.4-0.2,0.3-0.3,0.4c-0.1,0-0.3,0-0.2,0.2L13,3.9c0,0.2-0.3,0.6,0,1c-0.1,0-0.2,0-0.2-0.1c-0.3,0.3,0,1.1-0.4,1.2l-0.1-0.1
						c0,0.1,0.2,0.3,0,0.3c-0.1,0-0.1-0.1-0.1-0.1c0,0.1,0.1,0.3,0,0.4l-0.1-0.2c-0.4,0.3,0,0.8-0.1,1.1c-0.4-0.2-0.7,0-0.8,0.1
						l-0.1,0c-0.3,0.4-0.1,0.9-0.2,1.4c-0.6,0-0.7,0.7-1.1,1c0.1,0,0.3,0.2,0.3,0.3c-0.1,0,0.1,0.4-0.2,0.2l0,0
						c-0.4-0.1-0.4,0.1-0.5,0.2l0.4,0.3c-0.9,0-0.4,1.2-1.1,1c0.1,0.2,0,0.3,0,0.4l-0.2-0.2c-0.2,0.2-0.3,0.3-0.5,0.7l-0.1-0.2
						c-0.1,0.2,0.5,0.7,0.5,0.8l-0.4-0.2c-0.2,0.3-0.7,0.4-0.6,0.9c0,0-0.1-0.1-0.1-0.2c-0.1,0.1-0.6,0.4-0.1,0.7
						c-0.3-0.2-0.2,0.3-0.2,0.6l-0.2-0.2c0.2,0.3,0.3,0.4,0.2,0.6c-0.1,0-0.2-0.1-0.1-0.1c-0.2,0.1,0.1,0.3-0.1,0.4l-0.1-0.2
						c-0.1,0.1,0,0.2,0.1,0.4c0,0.2-0.3,0.3-0.5,0.1c0.1,0.1,0.2,0.3,0.1,0.4c-0.1,0-0.1-0.1-0.1-0.1c-0.3,0.2,0,0.6-0.3,0.6
						c-0.1,0-0.1-0.1-0.2-0.1c0.1-0.2,0.3-0.4,0.3-0.3c-0.2-0.1-0.4,0-0.6-0.3c0.1,0.2,0.3,0.7,0.1,0.8c0,0-0.1,0-0.1,0l0,0
						c0,0,0,0.1,0,0.1c-0.1,0-0.1,0-0.2,0.1c-0.2-0.1-0.2,0.1-0.3,0.2c0.2,0.1,0.1,0.2,0.4,0.3c0,0,0,0,0-0.1c0,0,0,0,0-0.1l0,0
						c0-0.1,0.1-0.1,0.1-0.2c0.1,0.1,0.1,0.3-0.1,0.3c0.1,0.1,0.2,0.3,0.3,0.4c-0.4-0.1-0.7,0-1-0.1c0,0.3-0.3,0.7,0,1.1
						c0,0.1-0.2,0-0.3,0c0-0.1,0-0.1,0-0.2c0,0.2-0.3,0.5,0,0.7c-0.3,0.1-0.2-0.3-0.3,0L4,19.6c-0.8,0.2,0.2,1.3-0.8,1.5
						c0.1,0,0.1,0,0.2,0c-0.7,0.4-0.6,1.5-1.5,1.8c-0.2,0.1,0,0.3,0,0.5l-0.3-0.1l0.2,0.4c0,0.4-0.9,0-0.8,0.6l0.2,0.1
						c-0.1,0.1-0.2,0.4-0.3,0.3c0,0,0.1,0.2,0,0.1l-0.1-0.1l0,0.4C0.5,25.2,0.3,24.7,0,25c0,0.2,0.1,0.6,0.2,0.6c0,0,0.2-0.1,0.3,0
						l0,0.2c0.4,0.3,0.7,0.7,1.1,0.6L1.6,26l0.2,0.1l-0.1,0.2c0.2,0,0.1-0.1,0.1-0.3C1.9,26,2,26.1,2,26l-0.2-0.4
						C2,25.7,2,25.9,2.2,25.8c-0.1-0.2-0.4-0.2-0.4-0.4c0.2,0,0.4,0.2,0.3-0.1c0.1,0.1,0.2,0.1,0.2,0.2c0-0.2,0.1-0.3,0-0.5
						c0.3,0.1,0.2-0.4,0.5-0.1c-0.1-0.1-0.2-0.4-0.1-0.5C3,25,2.9,24.2,3.3,24.6c-0.3-0.4,0.1-0.6,0.1-0.9c0,0,0.1,0.1,0,0.1
						c0.1-0.1,0.3,0,0.4-0.1c-0.3-0.2-0.3-0.5-0.4-0.7c0.4,0.1,0.3,0.4,0.6,0.5C3.8,23.4,4,23.1,3.8,23c0.3,0,0.2,0,0.5,0.1
						c-0.4-0.3,0-0.2-0.2-0.4c0.3,0,0.4,0.2,0.4,0C4.6,22.6,4.7,22.9,4.7,22.9z M6.9,18.2L6.9,18.2c0,0,0,0.1,0,0.1
						C6.8,18.3,6.8,18.2,6.9,18.2z M7.1,17.8c0,0-0.1,0.1-0.1,0.1c-0.1,0-0.2-0.1-0.1-0.1C6.9,17.9,7,17.8,7.1,17.8z M5,17.5
						c0-0.1,0.1-0.1,0.1,0C5.1,17.5,5.1,17.5,5,17.5l0.1,0.1C5,17.6,5,17.5,5,17.5z"/>
					<path fill="#FFFFFF" d="M5.2,17.8C5.2,17.8,5.2,17.8,5.2,17.8C5.3,17.8,5.3,17.8,5.2,17.8L5.2,17.8L5.2,17.8z"/>
					<path fill="#FFFFFF" d="M25.6,17.7L25.6,17.7C25.6,17.7,25.6,17.7,25.6,17.7C25.6,17.7,25.6,17.7,25.6,17.7z"/>
					<polygon fill="#FFFFFF" points="10.8,13.1 10.7,13.1 10.8,13.1 					"/>
					<path fill="#FFFFFF" d="M26.6,20.1C26.6,20.1,26.5,20.1,26.6,20.1C26.6,20.1,26.6,20.1,26.6,20.1z"/>
					<path fill="#FFFFFF" d="M27.3,20.8l0,0.2C27.3,20.9,27.3,20.8,27.3,20.8z"/>
					<path fill="#FFFFFF" d="M27.8,21.4C27.9,21.4,27.9,21.4,27.8,21.4L27.8,21.4L27.8,21.4z"/>
					<path fill="#FFFFFF" d="M19.6,11.7C19.6,11.7,19.6,11.7,19.6,11.7C19.5,11.7,19.5,11.7,19.6,11.7z"/>
					<path fill="#FFFFFF" d="M22.1,14.7c-0.1,0-0.1,0-0.2,0C21.9,14.7,21.9,14.7,22.1,14.7z"/>
					<polygon fill="#FFFFFF" points="17.4,8.1 17.4,8.1 17.4,8.1 					"/>
					<path fill="#FFFFFF" d="M21.8,14.5c0,0.1,0,0.1,0.1,0.1C21.9,14.6,21.9,14.5,21.8,14.5z"/>
					<path fill="#FFFFFF" d="M30.5,23.7L30.5,23.7C30.5,23.7,30.5,23.7,30.5,23.7L30.5,23.7z"/>
					<path fill="#FFFFFF" d="M30.5,23.7L30.5,23.7C30.6,23.6,30.5,23.6,30.5,23.7z"/>
					<path fill="#FFFFFF" d="M30.7,23.7l-0.1,0C30.6,23.7,30.6,23.7,30.7,23.7z"/>
					<path fill="#FFFFFF" d="M29.7,22.9L29.7,22.9C29.6,23,29.7,23,29.7,22.9z"/>
					<path fill="#FFFFFF" d="M29.4,22.8c0,0.1,0,0.3,0.1,0.3l0.1-0.1C29.5,23.1,29.6,22.7,29.4,22.8z"/>
					<path fill="#FFFFFF" d="M29.2,21l0.2,0.2c0-0.1,0.1-0.3,0.2-0.2C29.5,20.5,29.4,21.2,29.2,21z"/>
					<path fill="#FFFFFF" d="M28.6,20.3c0.1,0.1,0.1-0.1,0.1-0.2C28.7,20.2,28.6,20.2,28.6,20.3z"/>
					<path fill="#FFFFFF" d="M24.5,16.2l0.2-0.2C24.7,16,24.7,16.1,24.5,16.2z"/>
					<polygon fill="#FFFFFF" points="22.8,16.1 22.7,16.3 23,16.2 					"/>
					<polygon fill="#FFFFFF" points="23.9,14.5 23.9,14.5 23.8,14.5 					"/>
					<path fill="#FFFFFF" d="M19.2,6l-0.3,0.2C19,6.2,19.3,6.1,19.2,6z"/>
					<path fill="#FFFFFF" d="M16.8,1.4c0-0.3,0-0.7-0.1-0.5C16.7,1,16.8,1.4,16.8,1.4z"/>
					<polygon fill="#FFFFFF" points="9.2,10.8 9.2,10.7 9.2,10.9 					"/>
				</g>
			</g>
		</g>
	</g>
</g>
</svg>
