<?xml version="1.0" encoding="utf-8"?>
<!-- Generator: Adobe Illustrator 18.0.0, SVG Export Plug-In . SVG Version: 6.00 Build 0)  -->
<!DOCTYPE svg PUBLIC "-//W3C//DTD SVG 1.1//EN" "http://www.w3.org/Graphics/SVG/1.1/DTD/svg11.dtd">
<svg version="1.1" id="Layer_1" xmlns="http://www.w3.org/2000/svg" xmlns:xlink="http://www.w3.org/1999/xlink" x="0px" y="0px"
	 viewBox="0 0 64.7 31.8" enable-background="new 0 0 64.7 31.8" xml:space="preserve">
<g>
	<g>
		<path fill="none" d="M23.5,31.8C16.6,21.9,11.4,20.5,1.4,16C13.5,9.9,25.8,0.6,25.8,0.6 M64.2,31.8C54.4,17.4,36.1,11.9,3.9,15.6"
			/>
		<g>
			<g>
				<g>
					<path fill="#FFFFFF" d="M64.7,31.4c-0.1,0.1-0.2,0.2-0.2,0.1l0.2-0.2L64.7,31.4z"/>
					<path fill="#FFFFFF" d="M63.8,31.3c0.1-0.2,0.2-0.5,0.5-0.6c-0.2,0.3-0.1,0.2-0.3,0.5c0,0.1,0.2,0.1,0.3,0c0,0.1,0.1,0.1,0,0.2
						c-0.3,0-0.4-0.1-0.3-0.3C63.9,31.1,63.9,31.2,63.8,31.3z"/>
					<path fill="#FFFFFF" d="M57.2,24.8L57.2,24.8C57.3,24.8,57.2,24.8,57.2,24.8z"/>
					<path fill="#FFFFFF" d="M52.4,21.7C52.5,21.8,52.5,21.8,52.4,21.7C52.4,21.8,52.4,21.7,52.4,21.7z"/>
					<path fill="#FFFFFF" d="M51.4,21.6C51.5,21.6,51.5,21.6,51.4,21.6C51.5,21.6,51.4,21.6,51.4,21.6z"/>
					<path fill="#FFFFFF" d="M57.2,24.8l-0.2,0C57.1,24.7,57.1,24.8,57.2,24.8z"/>
					<path fill="#FFFFFF" d="M63.7,29.7c0,0,0,0.1,0,0.1C63.7,29.8,63.7,29.8,63.7,29.7L63.7,29.7z"/>
					<path fill="#FFFFFF" d="M58.9,26.7L58.9,26.7c0,0.1,0,0.1,0,0.2L58.9,26.7z"/>
					<path fill="#FFFFFF" d="M60.2,28.1c0,0,0.2-0.2,0.2-0.3c-0.1,0.1-0.1,0.2-0.1,0.2C60.3,28,60.3,28,60.2,28.1z"/>
					<path fill="#FFFFFF" d="M62.5,30.1L62.5,30.1C62.5,30.1,62.5,30.1,62.5,30.1z"/>
					<path fill="#FFFFFF" d="M57.8,25.8C57.8,25.8,57.8,25.9,57.8,25.8C57.8,25.8,57.8,25.8,57.8,25.8z"/>
					<path fill="#FFFFFF" d="M6,14.1C6,14.1,6,14.1,6,14.1C6,14.1,6,14.1,6,14.1z"/>
					<polygon fill="#FFFFFF" points="3.9,15.7 4,15.7 4,15.8 					"/>
					<path fill="#FFFFFF" d="M49.7,21.1L49.7,21.1C49.7,21.2,49.7,21.1,49.7,21.1z"/>
					<path fill="#FFFFFF" d="M34.3,16.5c0.2-0.2-0.3-0.4,0.1-0.6C34.3,16,34.6,16.3,34.3,16.5z"/>
					<path fill="#FFFFFF" d="M63.7,29.7C63.6,29.7,63.6,29.7,63.7,29.7C63.6,29.7,63.6,29.7,63.7,29.7z"/>
					<path fill="#FFFFFF" d="M34.4,15.9L34.4,15.9L34.4,15.9C34.4,15.8,34.4,15.8,34.4,15.9z"/>
					<path fill="#FFFFFF" d="M46.1,19.4C46.1,19.3,46.1,19.3,46.1,19.4C46.1,19.3,46.1,19.3,46.1,19.4z"/>
					<path fill="#FFFFFF" d="M49,20.1L49,20.1C49,20.1,49,20.1,49,20.1z"/>
					<path fill="#FFFFFF" d="M44.7,18.5c0,0-0.1,0-0.1,0C44.6,18.4,44.6,18.4,44.7,18.5C44.6,18.5,44.7,18.5,44.7,18.5z"/>
					<polygon fill="#FFFFFF" points="43.1,18 43.2,17.9 43.2,18 					"/>
					<path fill="#FFFFFF" d="M11.2,13.7c0,0.1,0,0.2-0.1,0.3C11.1,13.8,10.9,13.7,11.2,13.7z"/>
					<path fill="#FFFFFF" d="M63.6,29.8c0.1-0.1,0.1-0.1,0.1-0.1C63.7,29.7,63.7,29.8,63.6,29.8C63.6,29.8,63.6,29.8,63.6,29.8z"/>
					<path fill="#FFFFFF" d="M45.3,16.3l-0.3,0C45.2,16.3,45.3,16.3,45.3,16.3z"/>
					<path fill="#FFFFFF" d="M23.2,13.4L23.2,13.4C23.2,13.3,23.2,13.3,23.2,13.4z"/>
					<path fill="#FFFFFF" d="M44.3,16c-0.1,0.1-0.1,0.1-0.2,0.1c0,0,0,0,0-0.1L44.3,16z"/>
					<path fill="#FFFFFF" d="M11.1,14L11.1,14L11.1,14z"/>
					<path fill="#FFFFFF" d="M9.3,13.5c0.3,0,0.1,0.3,0.2,0.6c0.3,0.1,0.1-0.3,0.2-0.5c0.2,0.1,0.4,0.4,0.5,0.4c0-0.1,0-0.1,0-0.2
						c0.2,0.3,0.6,0,0.9,0.3c0,0,0-0.1,0-0.1c0,0.2,0,0.4,0,0.5c0.1,0,0.2,0.2,0.3,0c-0.1,0-0.1-0.1-0.1-0.2l0.1,0.1
						c0.1-0.4-0.2-0.1-0.2-0.4c0.2,0.1,0.5,0.4,0.7,0.3c0-0.3-0.4-0.1-0.2-0.4L11.4,14c0.2-0.5-0.2,0,0-0.5c0.4-0.1,0.4,0.1,0.8,0
						c0.1,0.2,0,0.3,0.1,0.5c0.5,0.3,0.4-0.9,0.8-0.5c0.1,0.2,0.2,0.6,0.4,0.4l-0.1-0.4c0.4-0.1,0.2,0.5,0.6,0.3
						c-0.1-0.1-0.3-0.1-0.2-0.2c0.2-0.3,0.2,0.2,0.4,0.2l0-0.3c0.4,0,0.8,0.2,1.2,0.3c0-0.1-0.1-0.2,0-0.3c0.5,0.2,1.1-0.1,1.6-0.3
						l0.2,0.3c0,0,0.1-0.1,0-0.2c0.2-0.1,0,0.2,0.1,0.3c0.1,0,0.1-0.2,0.1-0.3c0.4,0.2,1,0.5,1.4,0.2l-0.1-0.1
						c0.3-0.1,0.3,0.6,0.6,0.3l-0.1-0.1c0.6-0.1,1.3,0.1,1.8-0.3c0.1,0.4,0.6-0.2,0.7,0.4c0.4-0.3,0.3-0.4,0.8-0.6
						c0.1,0,0.2,0.4,0.4,0.4l0-0.3l0.2,0.3l0.1-0.4l0.2,0.1c-0.1,0-0.1,0.1-0.1,0.2c0.2,0.1,0.6-0.2,0.6-0.4l0.6,0.3
						c0-0.1-0.1-0.2-0.2-0.2c0.3,0.3,0.1-0.3,0.3,0c0,0.1,0,0.2,0,0.2c0.1-0.2,0.5-0.2,0.7-0.1l0-0.2c0.4-0.1,0.9,0.1,1.4,0.2
						c-0.2,0.1-0.2,0.5,0,0.5l0.1-0.3c0.1,0.2-0.2,0.1,0,0.4c0.2,0,0.1-0.4,0-0.5l0.2,0.1c0-0.1,0-0.2,0-0.3
						c0.1,0.2,0.4-0.3,0.5,0.1l0-0.1c0.5,0,0.7,0.1,1.1,0.2c0,0.3,0.1,0.2,0.2,0.5c0.3-0.1,0.6-0.3,1-0.2c0.2,0.2,0.1,0.2,0.1,0.4
						c0-0.3,0.4-0.2,0.2-0.4c0.4,0.1,0.5,0.1,1,0.4c-0.1,0.1-0.1,0.1-0.1,0.2c0.1,0.1,0.2-0.1,0.2-0.2l0,0c0.5,0.4,1.4-0.6,1.8,0
						l0,0l0.4,0.3c0.2,0-0.1-0.2,0.1-0.3c0.5,0.5,0.8,0,1.2,0.4c0.4-0.7,1.2,0.2,1.7-0.2l-0.1,0.2c0.1,0.2,0.2-0.1,0.2-0.1
						c0,0.1-0.2,0.1-0.1,0.2c0.9,0.4,2.1,0.1,3.1,0.1c0.4,0,0,0.9,0.6,0.6l-0.1-0.4c0.6,0.6,1.5,0.3,2.1,0.8c0-0.1,0-0.2-0.1-0.2
						c0.2-0.2,0.6,0.1,0.5,0.3c0.1,0,0.1-0.2,0.2-0.2c0.2-0.1,0.3,0.4,0.4,0.2c0,0,0-0.1,0-0.1c0.1,0.1,0.5,0.1,0.3,0.4
						c0.3,0,0.5,0.3,0.7,0.2c0,0.3,0.5,0,0.4,0.4c0.1-0.4,0.6-0.2,0.7,0.1c0-0.1,0.2-0.1,0.2-0.3c0.2,0.1,0.3,0.2,0.2,0.4
						c0.5-0.4,0.6,0.6,1,0.1c0.5,0.5,0.9,0.8,1.4,1.1c0.2-0.4-0.5-0.3-0.3-0.7c0.4,0.4,0.5,0.8,1,0.9c0.1,0,0-0.2,0-0.3
						c0.4,0.4,0.9,0.3,1.2,0.7c0,0,0-0.1,0-0.2c0.1,0.1,0.2,0,0.1,0.2l-0.1-0.1c-0.2,0.2,0.1,0.7,0,0.9c0.1-0.6,0.5,0.1,0.6-0.7
						c0,0.1,0.1,0.2,0,0.3c0.1,0,0.2-0.1,0.1-0.2c0.2,0.2,0,0.4,0.3,0.5c0-0.1,0-0.1,0-0.3c0,0.2,0.1,0.5,0.3,0.5
						c0-0.1,0.1-0.1,0-0.1c0.4,0.2,0.4,0.8,0.9,0.8c0.1-0.4,0.2-0.1,0.4-0.4l0.2,0.2l-0.2,0.1c0.2,0.1,0.2,0.4,0.4,0.4L53,20.4
						l0.3,0.3l-0.3,0c0.1,0.3-0.3,0.4,0,0.5c0-0.1,0.2,0.1,0.4,0l0,0c0,0.2,0.1,0.3,0.2,0.3c0.1-0.1,0.2-0.4,0.3-0.4
						c-0.1,0.3,0.4,0.3,0.3,0.7c0-0.1,0.1-0.3,0.1-0.3l-0.1,0.3c0.1,0,0.2,0,0.2-0.2c0.3,0.1-0.3,0.3,0.1,0.4c0,0,0-0.1,0-0.1
						c0.4,0.1,0.5,0.5,0.8,0.6c0.3-0.3-0.2-0.2,0.1-0.4c0.4,0.3,0.5,1,0.9,1.2l-0.1,0c-0.3,0.5,0.4,0,0.5,0.3c0-0.1,0.1-0.3,0.1-0.2
						c0.3,0.1,0.4,0.5,0.7,0.9l0-0.1c0.2,0,0.4,0.2,0.6,0.3c0,0.1,0.1,0.2-0.1,0.3c1-0.2,0.6,1.1,1.4,1c0,0,0-0.2,0-0.2l0.3,0.4
						c-0.2,0.1-0.1,0.1-0.3,0.1c-0.1,0.1,0,0.3,0.1,0.4c0-0.2,0.3-0.3,0.4-0.3c-0.1,0-0.1,0.1-0.1,0.2c0.5-0.1-0.3,0.4,0.1,0.4
						l0.1-0.1c0,0.1,0,0.3,0.1,0.4c0.2-0.1,0-0.2,0.1-0.3c0.1,0.1-0.1,0.6,0.2,0.6c0-0.1-0.1-0.2-0.1-0.3c0.3-0.1,0.3,0,0.4,0.1l0,0
						l0.3,0.1l-0.1,0c-0.4,0.7,0.2,0.4,0.1,1c0.1-0.5,0.2-0.2,0.4-0.4c0.1,0,0.3,0,0.3-0.1c-0.1,0.3,0.3,0.1,0.2,0.5
						c0.1-0.1,0.1,0.1,0.3-0.1c0.1,0.2-0.2,0.1-0.2,0.2c-0.1,0.4,0.8,0.3,0.7,0.9c0.1,0.4-0.1,0.7-0.1,1c0.2,0,0.2-0.3,0.2-0.3
						c0.2,0.1,0.3,0.2,0.3,0.4c0-0.1,0.1-0.1,0.2-0.1c0.1,0.1-0.2,0.3,0,0.4c0.1-0.1,0.2-0.2,0.2-0.3c0,0.2,0,0.4,0,0.6
						c0.2-0.1,0.1-0.2,0.2-0.4c0.1,0.2,0.2,0.5,0,0.7l-0.2,0c0,0.1,0.2-0.1,0.2-0.2c0.1-0.3-0.2-0.1-0.3-0.1l0,0.1
						c-0.5,0.2-0.2-0.4-0.4-0.6L63,30.4l0.1-0.4c-0.1,0-0.3,0.1-0.3,0.3c-0.3,0,0-0.2-0.2-0.2c0,0,0,0-0.1,0l0-0.2
						c0,0.1-0.2,0.2-0.1,0.2c-0.4-0.1,0-0.6-0.4-0.5l0,0c-0.1-0.4,0.2-0.2,0.3-0.7l-0.7,0.3l0.2-0.2c0,0-0.1-0.1-0.2,0
						c0.1-0.3,0.1-0.1,0.2-0.3c-0.4,0-0.3-0.5-0.7-0.2c0.1-0.2,0.3,0,0.2-0.2c-0.4,0.3-0.1-0.3-0.4-0.2c-0.2,0.2,0.1,0.3-0.2,0.3
						c0.3-0.4-0.3-0.2-0.4-0.4c0.3-0.3-0.1-0.4-0.2-0.6c-0.1,0.1-0.5-0.2-0.8-0.3l0,0c0.2-0.3,0-0.4-0.1-0.6
						c-0.1,0.2-0.2,0.2-0.2,0.4l-0.1-0.1c0.1-0.1,0.1-0.2,0-0.3l-0.2,0.2c-0.2-0.2-0.1-0.6-0.5-0.6c0.2-0.2,0.7-0.4,0.5-0.7
						c-0.1,0.1-0.3,0.3-0.2,0.4c0,0,0-0.2-0.1-0.1l-0.1,0.3c-0.2,0,0.1-0.2,0-0.3c-0.1,0.1-0.2,0-0.2,0.2c0,0,0.1,0,0.1,0.1
						c-0.1-0.1-0.3-0.1-0.4,0c0.1-0.1,0.2-0.2,0.1-0.3c-0.2-0.2-0.2,0.1-0.4,0.1c0-0.1-0.2-0.1,0-0.4c-0.1,0-0.2,0.1-0.2,0.1
						c0-0.2-0.4-0.4-0.1-0.5l0,0l0,0l0,0l0,0c-0.1-0.5-0.8-0.4-1-0.7l-0.1,0.1c-0.1-0.2-0.4-0.4-0.4-0.6c-0.1,0-0.2,0-0.3,0.2
						c-0.1-0.2-0.1-0.3-0.4-0.3c0,0.3-0.1,0.1,0.1,0.2c-0.2-0.1-0.4,0-0.4-0.3c-0.1,0.3-0.3,0.2-0.4,0l0.2-0.1
						c-0.1-0.1-0.2-0.1-0.3-0.2l-0.1,0.3c-0.6,0.1-0.4-1-1-0.7c0-0.3,0.3,0,0.4-0.3c-0.2-0.1-0.7,0.2-0.7,0.2c-0.3,0,0-0.6-0.3-0.6
						c0.1-0.1,0.3-0.3,0.1-0.6c-0.2-0.1-0.5,0.3-0.4,0.4c0,0,0.1,0,0.1,0c0,0.1,0.1,0.2,0,0.2l0-0.1c-0.2,0-0.4-0.1-0.4,0.1
						c-0.1-0.2,0-0.2,0.2-0.2c-0.3,0-0.4-0.2-0.7-0.2c0.1,0,0.2-0.1,0.1-0.2c-0.5-0.1-0.1-0.3-0.3-0.5c-0.2,0.1-0.2,0.4-0.3,0.1
						c-0.2,0-0.2,0.3-0.2,0.4c-0.1-0.3-0.5-0.1-0.7-0.1l0.1,0.1c0-0.1-0.1-0.1-0.2-0.1l0.2-0.2c-0.1,0-0.2,0-0.2,0.1
						c0-0.2,0.2-0.3,0.2-0.6c-0.2,0.1-0.2-0.3-0.4,0c0.4,0.1-0.2,0.3,0.1,0.4c0-0.1-0.1-0.1-0.2-0.1c0,0,0,0.1,0,0.1
						c-0.4,0.1,0-0.4-0.3-0.5c0,0.2-0.2,0.3-0.2,0.2c0.1,0.1,0.2-0.2,0.1-0.4c-0.3,0-0.2-0.2-0.3-0.2h0.1c0-0.2-0.1-0.2-0.2-0.3
						c-0.1,0.1,0.1,0.1,0,0.2c0-0.3-0.5,0.2-0.6-0.1c-0.1,0.1-0.1,0.3-0.3,0.3c-0.2-0.3-0.4,0.1-0.5-0.2c0.2-0.2,0.2-0.1,0.1-0.4
						l0.4,0.3l-0.1-0.4c0.1,0,0.2,0.2,0.3,0.2c-0.1-0.2-0.1-0.2,0.1-0.3c-0.3,0.3-0.3-0.3-0.6-0.2l-0.2,0.5
						c-0.4,0.1-0.4-0.5-0.9-0.5l0.2,0c0-0.2-0.2-0.1-0.3-0.3c-0.1,0.2-0.2,0.2-0.3,0.3c0.1-0.1-0.3-0.1-0.2-0.5l-0.3,0.2
						c-0.4,0-0.2-0.6-0.5-0.7c0,0.2-0.2,0.3,0,0.5c-0.1,0-0.2,0-0.2-0.2c-0.1,0.1-0.2-0.3-0.4-0.2c0-0.1,0-0.3-0.1-0.3
						c0,0,0,0.1,0,0.1c0-0.1-0.1-0.2,0-0.4c-0.5,0.5-0.9-0.3-1.3,0.1c-0.2-0.1-0.5-0.3-0.7-0.4c0,0.1,0,0.1,0,0.1
						c-0.3,0.1,0-0.6-0.4-0.5c-0.3,0.3,0.1,0.2,0,0.3c-0.2,0.6-0.4-0.2-0.7,0.1l0,0.1c-0.2,0.2-0.4-0.3-0.7-0.4c0,0,0,0.1,0,0.1
						c-0.1-0.4-0.5-0.6-0.7-0.7c0,0.3,0.1,0.2,0,0.4c-0.1-0.1,0.1-0.4-0.1-0.5c-0.1,0.1-0.3,0.2-0.4,0.5l0.2,0.1
						c-0.2,0.3-0.3-0.1-0.4-0.1l0,0.2c-0.3-0.1-0.3-0.5-0.6-0.6l0.1-0.1c-0.1-0.4-0.2,0.2-0.4-0.1l-0.1,0.4
						c-0.1-0.1-0.4-0.5-0.6-0.6c0.1,0.3,0.3,0.5,0.5,0.7c-0.1,0-0.5-0.1-0.5-0.3c0,0,0.1,0.2,0.2,0.1c-0.1-0.3-0.3-0.5-0.6-0.6
						c-0.1,0.8-0.7,0.1-1,0.6c-0.4-0.4-1,0-1.5-0.2c0.3-0.6-0.2,0,0-0.6c-0.1-0.1-0.2-0.1-0.2,0l-0.5,0.3c-0.1,0.2,0.1,0.1,0.1,0.3
						c-0.3,0-0.2,0.2-0.4,0.4c0.1-0.2-0.1-0.3-0.2-0.3l0.3-0.3c-0.4-0.4-0.4,0.5-0.8,0.1l0.1,0.2c-0.2-0.1-0.8-0.1-0.9-0.6
						c0,0.1-0.1,0.2,0,0.3c-0.5,0-1.1-0.6-1.5-0.4l0,0.2c-0.1-0.1-0.1-0.3-0.3-0.2c0,0.1,0,0.2,0,0.2c0-0.1-0.2-0.3-0.4-0.2l0.1,0.2
						c-0.5,0.2-0.7-0.5-1.1-0.6c0,0.4-0.4,0.6-0.6,0.6l0,0.1c-0.6,0-0.9-0.4-1.5-0.6c-0.4,0.5-1.1,0.1-1.7,0.4
						c0.1-0.1,0-0.3-0.1-0.4c-0.1,0.1-0.3-0.3-0.3,0.1l0,0c-0.1,0.4-0.4,0.3-0.6,0.3l0-0.5c-0.5,0.8-1.4-0.3-1.7,0.4
						c-0.1-0.1-0.3-0.1-0.4-0.3l0,0.3c-0.3,0.1-0.5,0.1-1,0l0.1,0.2c-0.2,0-0.3-0.8-0.5-0.8l-0.1,0.4c-0.4,0-0.8,0.4-1.3,0
						c0,0.1,0,0.2,0.1,0.2c-0.2,0-0.8,0.3-0.7-0.3c0,0.4-0.4,0-0.7-0.1l0,0.3c-0.2-0.4-0.2-0.4-0.5-0.5c-0.1,0,0,0.2,0,0.2
						c-0.2,0.2-0.2-0.3-0.4-0.1l0.1,0.2c-0.2,0-0.2-0.1-0.3-0.3c-0.1-0.1-0.4,0.1-0.4,0.3c0-0.2-0.2-0.4-0.3-0.3
						c0,0.1,0,0.2,0.1,0.2c-0.4,0.2-0.6-0.3-0.8,0c0,0.1,0,0.1,0,0.2c0.3,0,0.5,0,0.5-0.1c0,0.3-0.2,0.3,0,0.7
						c-0.2-0.2-0.5-0.6-0.8-0.5c0,0,0,0.1,0,0.1l0,0c-0.1,0-0.1,0-0.1,0c-0.1,0-0.1,0.1-0.2,0.1c0,0.2-0.3,0.1-0.4,0.2
						c0-0.3-0.2-0.2,0-0.5c0,0,0,0,0.1,0c0,0,0,0,0.1,0l0,0c0.1,0,0.2,0,0.3,0c-0.1-0.1-0.2-0.3-0.3-0.1c-0.1-0.2-0.1-0.4-0.2-0.4
						c-0.1,0.4-0.4,0.6-0.5,0.9c-0.4-0.1-0.8,0-1.1-0.6c-0.1-0.1-0.1,0.2-0.1,0.2c0.1,0,0.1,0,0.2,0.1c-0.2-0.1-0.6,0-0.7-0.4
						c-0.2,0.2,0.2,0.3-0.2,0.3l0.1,0.1c-0.7,0.6-1.2-0.9-1.9-0.1c0,0,0.1-0.1,0.1-0.1c-0.9,0.4-1.8-0.1-2.7,0.5
						c-0.2,0.1-0.3-0.1-0.5-0.3l0,0.3l-0.3-0.3c-0.4-0.2-0.6,0.8-1.1,0.4l0-0.2c-0.2,0.1-0.5-0.1-0.5,0.2c0,0-0.1-0.2-0.1-0.1l0,0.2
						l-0.4-0.2c-0.3,0.1,0.1,0.6-0.3,0.7c-0.2,0-0.5-0.4-0.5-0.5c0.1,0,0.2-0.1,0.2-0.3L4,15.7c-0.1-0.5-0.3-0.9,0.1-1.3l0.3,0.3
						l0.1-0.2l-0.2,0c0.1-0.2,0.2,0,0.3,0.1c0-0.1,0-0.2,0.1-0.3l0.3,0.4c0-0.2-0.2-0.3,0-0.5c0.1,0.2-0.1,0.4,0.1,0.5
						c0.1-0.2,0.1-0.4,0.2-0.2c0-0.1,0-0.2-0.1-0.2c0.2,0.1,0.4,0,0.5,0.3c0.1-0.3,0.5,0,0.4-0.4c0.1,0.1,0.3,0.3,0.4,0.3
						c-0.3-0.5,0.5-0.1,0.3-0.6c0.2,0.5,0.6,0.2,0.9,0.4c0,0-0.1-0.1-0.1-0.1C7.8,14,7.9,13.9,8,13.8c0.1,0.4,0.3,0.5,0.5,0.7
						c0.2-0.4-0.2-0.4-0.1-0.8c0,0.3,0.4,0.3,0.3,0.6c0.1-0.2,0.1-0.1,0.2-0.5c0.1,0.5,0.2,0.1,0.3,0.4c0.2-0.3,0-0.5,0.3-0.3
						C9.5,13.6,9.3,13.5,9.3,13.5z M15.3,13.9L15.3,13.9c-0.1,0-0.1,0-0.1,0C15.2,13.9,15.2,13.9,15.3,13.9z M15.8,13.9
						c-0.1,0-0.1,0-0.2,0c0,0.1,0,0.2,0.1,0.2C15.6,14,15.7,14,15.8,13.9z M14.8,15.9c0.1,0,0.1,0,0.1-0.1c0,0-0.1,0-0.1,0l0,0
						C14.8,15.8,14.8,15.8,14.8,15.9z"/>
					<path fill="#FFFFFF" d="M14.7,15.5C14.7,15.5,14.6,15.5,14.7,15.5C14.6,15.5,14.7,15.5,14.7,15.5L14.7,15.5L14.7,15.5z"/>
					<path fill="#FFFFFF" d="M57.3,24.8L57.3,24.8C57.3,24.8,57.3,24.8,57.3,24.8C57.3,24.8,57.3,24.8,57.3,24.8z"/>
					<polygon fill="#FFFFFF" points="22.7,13.2 22.7,13.3 22.6,13.2 					"/>
					<path fill="#FFFFFF" d="M60,25.9C60,25.9,60,25.9,60,25.9C60,25.9,60,25.9,60,25.9z"/>
					<path fill="#FFFFFF" d="M60.9,26.7l0.2,0.1C61,26.8,60.9,26.8,60.9,26.7z"/>
					<path fill="#FFFFFF" d="M61.6,27.3C61.6,27.4,61.5,27.4,61.6,27.3L61.6,27.3L61.6,27.3z"/>
					<path fill="#FFFFFF" d="M49.9,18.4C49.9,18.4,49.8,18.4,49.9,18.4C49.8,18.3,49.8,18.4,49.9,18.4z"/>
					<path fill="#FFFFFF" d="M53.4,21.1c0-0.1,0-0.1-0.1-0.2C53.5,20.9,53.5,20.9,53.4,21.1z"/>
					<polygon fill="#FFFFFF" points="45.4,16.4 45.4,16.4 45.3,16.3 					"/>
					<path fill="#FFFFFF" d="M53.2,20.8c0.1,0,0.1,0,0.2,0.1C53.3,20.9,53.2,20.9,53.2,20.8z"/>
					<path fill="#FFFFFF" d="M64.2,30.4L64.2,30.4C64.2,30.4,64.2,30.4,64.2,30.4L64.2,30.4z"/>
					<path fill="#FFFFFF" d="M64.2,30.4L64.2,30.4C64.2,30.5,64.2,30.5,64.2,30.4z"/>
					<path fill="#FFFFFF" d="M64.2,30.6l0-0.1C64.3,30.5,64.3,30.6,64.2,30.6z"/>
					<path fill="#FFFFFF" d="M63.4,29.5L63.4,29.5C63.5,29.4,63.4,29.5,63.4,29.5z"/>
					<path fill="#FFFFFF" d="M63.2,29.2c0.1,0.1,0.3,0,0.3,0.2l-0.1,0.1C63.5,29.3,63.1,29.3,63.2,29.2z"/>
					<path fill="#FFFFFF" d="M61.2,28.8l0.3,0.2c-0.1,0-0.3,0.1-0.2,0.2C60.8,29.1,61.5,29.1,61.2,28.8z"/>
					<path fill="#FFFFFF" d="M60.5,28.2c0.1,0.2-0.1,0.1-0.2,0.2C60.3,28.2,60.3,28.2,60.5,28.2z"/>
					<path fill="#FFFFFF" d="M55.5,23.7l-0.1,0.2C55.3,23.8,55.4,23.8,55.5,23.7z"/>
					<polygon fill="#FFFFFF" points="55.2,21.9 55.4,21.8 55.3,22 					"/>
					<polygon fill="#FFFFFF" points="53.5,23 53.5,23 53.4,22.9 					"/>
					<path fill="#FFFFFF" d="M43.4,18.3l0.1-0.3C43.5,18.1,43.5,18.4,43.4,18.3z"/>
					<path fill="#FFFFFF" d="M38.7,16.8c-0.1,0.1-0.2,0.2-0.3,0C38.5,16.8,38.6,16.7,38.7,16.8z"/>
					<polygon fill="#FFFFFF" points="24,15.8 24.1,15.9 23.9,15.8 					"/>
				</g>
			</g>
		</g>
		<g>
			<g>
				<g>
					<path fill="#FFFFFF" d="M24.1,31.4c-0.1,0.1-0.2,0.2-0.2,0.1l0.2-0.2L24.1,31.4z"/>
					<path fill="#FFFFFF" d="M23.2,31.3c0.1-0.2,0.2-0.4,0.5-0.6c-0.2,0.3-0.1,0.2-0.3,0.5c0,0.1,0.2,0.1,0.3,0
						c-0.1,0.1,0.1,0.1,0,0.2c-0.3,0.1-0.4,0-0.3-0.3C23.3,31.2,23.3,31.2,23.2,31.3z"/>
					<path fill="#FFFFFF" d="M17.6,25.6L17.6,25.6C17.7,25.6,17.7,25.6,17.6,25.6z"/>
					<path fill="#FFFFFF" d="M13.7,22.7C13.7,22.7,13.7,22.8,13.7,22.7C13.7,22.8,13.7,22.7,13.7,22.7z"/>
					<path fill="#FFFFFF" d="M12.8,22.6C12.8,22.6,12.8,22.6,12.8,22.6C12.8,22.6,12.8,22.6,12.8,22.6z"/>
					<path fill="#FFFFFF" d="M17.6,25.6l-0.2,0C17.5,25.5,17.6,25.5,17.6,25.6z"/>
					<path fill="#FFFFFF" d="M23.2,29.9c0,0,0,0.1,0,0.1C23.2,30,23.2,30,23.2,29.9L23.2,29.9z"/>
					<path fill="#FFFFFF" d="M19,27.3L19,27.3c0,0.1,0,0.1,0,0.1L19,27.3z"/>
					<path fill="#FFFFFF" d="M20,28.5c0,0,0.2-0.2,0.3-0.3c-0.1,0.1-0.1,0.1-0.1,0.2C20.2,28.5,20.1,28.5,20,28.5z"/>
					<path fill="#FFFFFF" d="M22.1,30.3L22.1,30.3C22.1,30.3,22.1,30.3,22.1,30.3z"/>
					<path fill="#FFFFFF" d="M18.1,26.5C18.1,26.5,18.1,26.5,18.1,26.5C18.1,26.5,18.1,26.5,18.1,26.5z"/>
					<path fill="#FFFFFF" d="M25,2.8C25,2.8,25,2.8,25,2.8C25,2.8,25.1,2.8,25,2.8z"/>
					<polygon fill="#FFFFFF" points="25.8,0.5 25.8,0.5 25.7,0.4 					"/>
					<path fill="#FFFFFF" d="M11.3,22.1L11.3,22.1C11.3,22.2,11.3,22.2,11.3,22.1z"/>
					<path fill="#FFFFFF" d="M2.6,14c0,0.3,0.6,0,0.6,0.4C3.1,14.3,2.4,14.3,2.6,14z"/>
					<path fill="#FFFFFF" d="M23.2,29.9C23.2,29.9,23.1,29.9,23.2,29.9C23.2,29.9,23.2,29.9,23.2,29.9z"/>
					<path fill="#FFFFFF" d="M3.1,14.4L3.1,14.4L3.1,14.4C3.1,14.5,3.1,14.4,3.1,14.4z"/>
					<path fill="#FFFFFF" d="M8.3,20.4C8.3,20.4,8.3,20.3,8.3,20.4C8.3,20.3,8.3,20.4,8.3,20.4z"/>
					<path fill="#FFFFFF" d="M10.8,21.2L10.8,21.2C10.8,21.2,10.8,21.2,10.8,21.2z"/>
					<path fill="#FFFFFF" d="M7.2,19.5C7.2,19.5,7.1,19.5,7.2,19.5C7.1,19.4,7.1,19.4,7.2,19.5C7.1,19.5,7.1,19.5,7.2,19.5z"/>
					<polygon fill="#FFFFFF" points="5.9,18.9 5.9,18.8 6,18.9 					"/>
					<path fill="#FFFFFF" d="M21.4,5.2c0-0.1-0.1-0.2-0.1-0.2C21.4,5.2,21.6,5.1,21.4,5.2z"/>
					<path fill="#FFFFFF" d="M23.1,30c0.1,0,0.1-0.1,0.1-0.1C23.2,29.9,23.2,29.9,23.1,30C23.1,30,23.1,30,23.1,30z"/>
					<path fill="#FFFFFF" d="M8.1,17.4l-0.2-0.1C7.9,17.4,8,17.4,8.1,17.4z"/>
					<path fill="#FFFFFF" d="M12.6,10.9L12.6,10.9C12.7,10.9,12.7,10.9,12.6,10.9z"/>
					<path fill="#FFFFFF" d="M7.2,17c-0.1,0.1-0.1,0.1-0.2,0.1c0,0,0,0,0-0.1L7.2,17z"/>
					<path fill="#FFFFFF" d="M21.3,5L21.3,5L21.3,5z"/>
					<path fill="#FFFFFF" d="M22.9,4.7c-0.2,0.1-0.3-0.2-0.5-0.4c-0.3,0.1,0.1,0.3,0.1,0.5c-0.2,0-0.5-0.2-0.6-0.1
						c0,0.1,0,0.1,0.1,0.1c-0.3-0.1-0.4,0.3-0.8,0.1c0,0,0,0.1,0,0.1c-0.1-0.2-0.2-0.3-0.3-0.4c-0.1,0.1-0.3-0.1-0.2,0.1
						c0,0,0.1,0,0.2,0.1l-0.1,0C21,5.1,21,4.8,21.2,5c-0.2,0-0.6-0.1-0.7,0.1c0.2,0.3,0.4-0.1,0.4,0.3L21,5.1
						c0.2,0.5,0.1-0.1,0.3,0.5c-0.2,0.3-0.4,0.1-0.6,0.3c-0.2-0.1-0.1-0.2-0.3-0.4c-0.6,0,0.2,0.9-0.3,0.7c-0.2-0.1-0.5-0.5-0.5-0.2
						l0.3,0.3c-0.2,0.2-0.5-0.4-0.6,0c0.1,0.1,0.3,0,0.3,0c0,0.4-0.2-0.1-0.4,0l0.2,0.3c-0.3,0.1-0.7,0.1-1.1,0.3
						c0.1,0.1,0.2,0.1,0.2,0.3c-0.5,0.1-0.8,0.6-1,1L17.1,8c0,0,0,0.2,0.1,0.2c-0.1,0.2-0.1-0.2-0.2-0.2c-0.1,0,0,0.2,0.1,0.3
						c-0.4,0-1,0-1.1,0.5l0.1,0c-0.1,0.2-0.6-0.4-0.6,0l0.1,0c-0.4,0.4-1,0.5-1.1,1.1c-0.3-0.3-0.3,0.4-0.7,0
						c-0.1,0.4,0,0.5-0.2,0.8c-0.1,0.1-0.3-0.2-0.5-0.2l0.2,0.3l-0.3-0.2l0.1,0.4l-0.2,0c0,0,0-0.2,0-0.2c-0.3,0-0.3,0.4-0.2,0.6
						l-0.6,0c0.1,0.1,0.2,0.1,0.3,0.1c-0.4-0.1,0.1,0.3-0.2,0.2c0-0.1-0.1-0.1-0.1-0.2c0,0.2-0.2,0.4-0.5,0.4l0.1,0.2
						c-0.3,0.2-0.7,0.3-1.1,0.5c0.1-0.2-0.1-0.5-0.3-0.4l0.1,0.3c-0.2-0.1,0-0.2-0.2-0.3c-0.1,0.1,0.1,0.4,0.2,0.4l-0.2,0
						c0,0.1,0.1,0.1,0.2,0.2c-0.2-0.1-0.1,0.4-0.4,0.2l0,0.1c-0.4,0.2-0.6,0.2-0.9,0.4c-0.1-0.2-0.2-0.1-0.4-0.3
						c-0.2,0.2-0.3,0.5-0.6,0.7c-0.3,0-0.2-0.2-0.3-0.3c0.1,0.2-0.2,0.4,0.1,0.4c-0.3,0.1-0.4,0.2-0.9,0.2c0-0.1,0-0.2-0.1-0.2
						c-0.1,0-0.1,0.2,0,0.3l0,0c-0.6-0.1-0.7,1.2-1.3,0.9l0,0l-0.5,0c-0.1,0.1,0.2,0.1,0.1,0.3c-0.7-0.1-0.3,0.2-0.6,0.1
						c0.3,0.3,0.3,0.3,0.2,0.3c-0.1,0-0.3,0,0.1,0.1l-0.3,0c-0.3,0,0.1,0,0.2,0c-0.2,0-0.3,0-0.4-0.1c-0.1,0-0.2,0-0.2,0.1
						c0,0,0,0.1,0.2,0.1c0.3,0,0.7,0,0.8,0c0,0-1.2,0.5-0.6,0.3c0,0,0.1-0.1,0.2-0.1C4.8,16,4.9,16,4.9,16c-0.2,0.1-0.1,0.2,0,0.2
						c0.1,0,0,0,0.1,0.1c0.1,0.1,0.3,0.2,0.4,0.3c0-0.1,0-0.2,0-0.2c0.2-0.2,0.4,0.2,0.4,0.4c0.1,0,0.1-0.2,0.2-0.2
						c0.2-0.1,0.2,0.4,0.3,0.2c0,0,0-0.1,0-0.1c0,0.1,0.4,0.1,0.2,0.4c0.3,0,0.4,0.3,0.6,0.2c0,0.3,0.4,0,0.3,0.4
						c0.2-0.4,0.5-0.2,0.6,0.1c0-0.1,0.2-0.1,0.2-0.3c0.2,0.1,0.3,0.2,0.1,0.4c0.5-0.4,0.4,0.7,0.8,0.1c0.4,0.4,0.7,0.8,1.1,1.1
						c0.2-0.4-0.4-0.3-0.2-0.7c0.3,0.4,0.4,0.8,0.8,0.9c0.1,0,0-0.2,0-0.3c0.3,0.4,0.8,0.3,1,0.7c0,0,0-0.1,0-0.1
						c0.1,0,0.2,0,0.1,0.2l0-0.1c-0.2,0.2,0,0.7-0.1,0.8c0.2-0.6,0.4,0.1,0.6-0.7c0,0.1,0,0.2,0,0.3c0.1,0,0.1-0.1,0.2-0.2
						c0.2,0.2,0,0.4,0.2,0.5c0-0.1,0-0.1,0.1-0.3c0,0.2,0,0.5,0.3,0.5c0-0.1,0.1-0.1,0-0.1c0.3,0.2,0.3,0.8,0.7,0.8
						c0.1-0.4,0.2-0.1,0.4-0.4l0.1,0.2L14,21.2c0.2,0.1,0.2,0.4,0.4,0.4l0-0.2l0.3,0.3l-0.2,0c0.1,0.3-0.3,0.4,0,0.4
						c0-0.1,0.2,0.1,0.4,0l0,0c0,0.1,0,0.3,0.2,0.3c0.1-0.1,0.2-0.4,0.3-0.4c-0.1,0.3,0.3,0.3,0.2,0.7c0-0.1,0.1-0.2,0.2-0.3
						l-0.1,0.3c0.1,0,0.1,0,0.2-0.2c0.2,0.1-0.3,0.3,0,0.4c0,0,0-0.1,0-0.1c0.3,0.1,0.4,0.5,0.7,0.5c0.3-0.2-0.1-0.2,0.1-0.4
						c0.3,0.3,0.4,0.9,0.7,1.1l-0.1,0c-0.3,0.4,0.4,0,0.4,0.3c0-0.1,0.1-0.3,0.1-0.2c0.3,0.1,0.3,0.5,0.5,0.9l0.1-0.1
						c0.2,0,0.4,0.2,0.5,0.3c-0.1,0.1,0,0.2-0.1,0.3c0.9-0.2,0.4,1,1.2,0.9c0,0,0-0.2,0-0.1l0.2,0.4c-0.2,0.1-0.1,0.1-0.3,0.1
						c-0.1,0.1-0.1,0.3,0,0.4c0-0.2,0.3-0.3,0.4-0.3c-0.1,0-0.1,0.1-0.2,0.2c0.4-0.1-0.3,0.3,0.1,0.4l0.1-0.1c0,0.1,0,0.3,0.1,0.4
						c0.2-0.1,0-0.2,0.2-0.3c0.1,0.1-0.2,0.6,0.1,0.5c0-0.1-0.1-0.2,0-0.3c0.3-0.1,0.3,0,0.4,0l0,0l0.3,0.1l-0.1,0
						c-0.4,0.6,0.2,0.4,0,0.9c0.2-0.5,0.2-0.2,0.4-0.4c0.1,0,0.3,0,0.3-0.1c-0.1,0.3,0.3,0,0.1,0.4c0.1-0.1,0.1,0.1,0.3-0.1
						c0,0.2-0.2,0.1-0.2,0.2c-0.1,0.4,0.7,0.2,0.6,0.8c0,0.4-0.2,0.6-0.1,0.9c0.2,0,0.2-0.3,0.2-0.3c0.2,0,0.3,0.2,0.3,0.3
						c0.1-0.1,0.1-0.1,0.2-0.1c0.1,0.1-0.2,0.3,0,0.3c0.1-0.1,0.2-0.2,0.2-0.3c0,0.2-0.1,0.4,0,0.6c0.2-0.1,0.2-0.2,0.2-0.3
						c0,0.2,0.1,0.4-0.1,0.6l-0.1,0c0,0.1,0.2-0.1,0.2-0.2c0.1-0.2-0.2-0.1-0.3-0.1l0,0.1c-0.5,0.3-0.2-0.4-0.3-0.5l-0.3,0.3
						l0.1-0.4c-0.1,0-0.3,0.1-0.3,0.3c-0.3,0,0-0.2-0.2-0.2c0,0,0,0-0.1,0l0-0.2c-0.1,0.1-0.2,0.2-0.1,0.2c-0.4-0.1,0-0.5-0.3-0.4
						l0,0c-0.1-0.4,0.2-0.2,0.3-0.7l-0.7,0.3l0.2-0.2c0,0-0.1-0.1-0.2,0c0.1-0.2,0.1-0.1,0.2-0.3c-0.3,0-0.2-0.5-0.6-0.2
						c0.1-0.2,0.2,0,0.3-0.2c-0.4,0.3-0.1-0.2-0.4-0.2c-0.2,0.2,0,0.2-0.3,0.3c0.3-0.4-0.3-0.2-0.3-0.3c0.3-0.2-0.1-0.3-0.1-0.6
						c-0.1,0.1-0.4-0.2-0.7-0.3l0,0c0.2-0.3,0-0.4,0-0.6c-0.2,0.2-0.2,0.2-0.2,0.4L19,27.3c0.1-0.1,0.1-0.2,0-0.3l-0.2,0.2
						c-0.1-0.2,0-0.5-0.4-0.6c0.2-0.2,0.7-0.3,0.6-0.7c-0.1,0.1-0.3,0.2-0.3,0.3c0,0,0-0.1-0.1-0.1l-0.1,0.2c-0.2,0,0.1-0.2,0-0.2
						c-0.1,0.1-0.1,0-0.3,0.2c0,0,0.1,0,0.1,0.1c-0.1-0.1-0.3-0.1-0.4,0c0.1-0.1,0.2-0.2,0.2-0.3c-0.1-0.2-0.2,0.1-0.4,0.1
						c0.1-0.1-0.1-0.1,0.1-0.3c0,0-0.1,0.1-0.2,0.1c0-0.2-0.3-0.4,0-0.5l0,0c0,0,0,0,0,0l0,0l0,0c-0.1-0.4-0.6-0.4-0.8-0.7l-0.1,0.1
						c-0.1-0.2-0.3-0.3-0.3-0.6c0,0-0.2,0-0.3,0.2c-0.1-0.2,0-0.3-0.3-0.3c0,0.2-0.1,0.1,0,0.2c-0.2-0.1-0.3,0-0.3-0.3
						c-0.1,0.2-0.3,0.2-0.3,0l0.2-0.1c-0.1-0.1-0.2-0.1-0.2-0.2l-0.2,0.3c-0.6,0.1-0.2-1-0.8-0.6c0-0.3,0.3,0,0.4-0.3
						c-0.2-0.1-0.6,0.2-0.7,0.2c-0.3,0,0.1-0.5-0.2-0.6c0.1-0.1,0.3-0.3,0.2-0.5c-0.2-0.1-0.5,0.3-0.4,0.4c0,0,0.1,0,0.1,0
						c0,0.1,0.1,0.2-0.1,0.2l0-0.1c-0.1,0-0.4-0.1-0.4,0.1c-0.1-0.2,0.1-0.2,0.2-0.2c-0.3,0-0.3-0.2-0.6-0.2c0.1,0,0.2-0.1,0.1-0.2
						c-0.4-0.1,0-0.3-0.2-0.4c-0.2,0.1-0.2,0.4-0.3,0.1c-0.2,0-0.2,0.3-0.2,0.4c-0.1-0.3-0.4-0.1-0.6-0.1l0.1,0.1
						c0-0.1-0.1-0.1-0.1-0.1l0.2-0.2c-0.1,0-0.1,0-0.2,0.1c0-0.2,0.2-0.3,0.2-0.6c-0.1,0.1-0.2-0.2-0.4,0c0.3,0-0.2,0.3,0,0.4
						c0-0.1-0.1-0.1-0.2-0.1c0,0,0,0.1,0,0.1c-0.4,0.1,0.1-0.4-0.2-0.5c-0.1,0.2-0.2,0.3-0.2,0.2c0.1,0.1,0.2-0.2,0.2-0.4
						c-0.2,0-0.1-0.2-0.2-0.2l0.1,0c0-0.2,0-0.2-0.1-0.3c-0.1,0.1,0.1,0.1,0,0.2c0-0.3-0.4,0.1-0.5-0.1c-0.1,0.1-0.2,0.3-0.3,0.3
						c-0.1-0.3-0.3,0.1-0.5-0.2c0.2-0.2,0.2-0.1,0.1-0.4L9.9,21l-0.1-0.4c0.1,0.1,0.2,0.2,0.2,0.2c0-0.2,0-0.2,0.1-0.3
						c-0.3,0.2-0.2-0.3-0.5-0.2l-0.3,0.5c-0.4,0.1-0.3-0.5-0.7-0.5l0.2,0C8.9,20,8.7,20.1,8.6,20c-0.1,0.2-0.2,0.2-0.3,0.3
						c0.1-0.1-0.3-0.1-0.1-0.5L8,20c-0.3,0-0.1-0.7-0.4-0.7c0,0.2-0.2,0.3-0.1,0.5c-0.1,0-0.2,0-0.1-0.2c-0.1,0.1-0.1-0.4-0.3-0.2
						c0-0.1,0.1-0.3,0-0.3c0,0,0,0.1,0,0.1c0-0.1-0.1-0.2,0.1-0.4c-0.5,0.4-0.7-0.4-1.2,0c-0.2-0.1-0.4-0.3-0.5-0.4
						c0,0.1,0,0.1,0,0.1c-0.3,0.1,0.1-0.6-0.3-0.5c-0.3,0.2,0.1,0.2-0.1,0.3c-0.3,0.6-0.3-0.2-0.6,0l0,0.1c-0.1,0.1-0.2,0-0.2-0.1
						c0-0.1-0.1-0.1-0.1-0.2C4,18,4,17.9,3.9,17.9c0,0,0,0.1,0,0.1c-0.1-0.4-0.4-0.6-0.5-0.8c-0.1,0.2,0,0.2-0.3,0.3
						c-0.1-0.1,0.4-0.3,0.2-0.4c-0.2,0.1-0.5,0.1-0.9,0.2l0.3,0.1c-0.5,0.2-0.4-0.2-0.6-0.2l-0.2,0.1c-0.4-0.2,0.1-0.4-0.3-0.6
						l0.2,0c0.4-0.2-0.5,0-0.3-0.2l-0.8,0.1c0-0.1,0.2-0.3,0.1-0.4c-0.5,0.1-0.5,0.3-0.6,0.4c-0.2-0.1-0.5-0.3-0.2-0.3
						c0,0-0.1,0.1,0.1,0.1c0.2-0.1,0.4-0.1,0.4-0.2c0,0,0-0.1,0-0.1c0,0,0,0,0.1,0c0,0,0.1,0,0.1,0c-0.9,0-0.8-0.1-0.6-0.2
						c0.2-0.1,0.4-0.3,0-0.4c0.6-0.1,0.8-0.3,1-0.5c0.2-0.2,0.5-0.4,0.9-0.6c0.4,0.5,0.2-0.1,0.8,0.3c0.2,0,0.2-0.1,0.2-0.1
						c0,0,0.1-0.5,0.2-0.5c0-0.2-0.3,0-0.3-0.1c0.4-0.2,0-0.3,0.2-0.6c0.1,0.2,0.3,0.2,0.5,0c0,0-0.2,0.4-0.2,0.4
						c0.4,0,0.3-0.2,0.4-0.3c0-0.1,0-0.3,0.2-0.2L3.9,13c0.2,0,0.6-0.3,1,0c0-0.1,0-0.2-0.1-0.2c0.3-0.3,1.1,0,1.2-0.4l-0.1-0.1
						c0.1,0,0.3,0.2,0.3,0c0-0.1-0.1-0.1-0.1-0.1c0.1,0,0.3,0.1,0.4,0l-0.2-0.1c0.3-0.4,0.8,0,1.1-0.1c-0.2-0.4,0-0.7,0.1-0.8l0-0.1
						c0.4-0.3,0.9-0.1,1.4-0.2c0-0.6,0.7-0.7,1-1.1c0,0.1,0.2,0.3,0.3,0.3c0-0.1,0.4,0.1,0.2-0.2l0,0c-0.1-0.4,0.1-0.4,0.2-0.5
						l0.3,0.4c0-0.9,1.2-0.4,1-1.1c0.2,0.1,0.3,0,0.4,0l-0.2-0.2c0.2-0.2,0.3-0.3,0.7-0.5l-0.2-0.1c0.2-0.1,0.7,0.5,0.8,0.5
						l-0.2-0.4c0.3-0.2,0.4-0.7,0.9-0.6c0,0-0.1-0.1-0.2-0.1c0.1-0.1,0.4-0.6,0.7-0.1c-0.2-0.3,0.3-0.2,0.6-0.2l-0.2-0.2
						c0.3,0.2,0.4,0.3,0.6,0.2c0-0.1-0.1-0.2-0.1-0.1c0.1-0.2,0.3,0.1,0.4-0.1l-0.2-0.1c0.1-0.1,0.2,0,0.4,0.1
						c0.2,0,0.3-0.3,0.1-0.5c0.1,0.1,0.3,0.2,0.4,0.1c0-0.1-0.1-0.1-0.1-0.1c0.2-0.3,0.6,0,0.6-0.3c0-0.1-0.1-0.1-0.1-0.2
						c-0.2,0.1-0.4,0.3-0.3,0.3c-0.1-0.2,0-0.4-0.3-0.6c0.2,0.1,0.7,0.3,0.8,0.1c0,0,0-0.1,0-0.1l0,0c0,0,0.1,0,0.1,0
						c0-0.1,0-0.1,0.1-0.2c-0.1-0.2,0.1-0.2,0.2-0.3c0.1,0.2,0.2,0.1,0.3,0.4c0,0,0,0-0.1,0c0,0,0,0-0.1,0l0,0
						c-0.1,0-0.1,0.1-0.2,0.1c0.1,0.1,0.3,0.1,0.3-0.1c0.1,0.1,0.3,0.2,0.4,0.3c-0.1-0.4,0-0.7-0.1-1c0.3,0,0.7-0.3,1.1,0
						c0.1,0,0-0.2,0-0.3c-0.1,0-0.1,0-0.2,0c0.2,0,0.5-0.3,0.7,0c0.1-0.3-0.3-0.2,0-0.3L19.6,4c0.2-0.8,1.3,0.2,1.5-0.8
						c0,0.1,0,0.1,0,0.2c0.4-0.7,1.5-0.6,1.8-1.5c0.1-0.2,0.3,0,0.5,0l-0.1-0.3l0.4,0.2c0.4,0,0-0.9,0.6-0.8l0.1,0.2
						c0.1-0.1,0.4-0.2,0.3-0.3c0,0,0.2,0.1,0.1,0l-0.1-0.1l0.4,0C25.2,0.5,24.7,0.3,25,0c0.2,0,0.6,0.1,0.6,0.2c0,0-0.1,0.2,0,0.3
						l0.2,0c0.3,0.4,0.7,0.7,0.6,1.1L26,1.6l0.1,0.2l0.2-0.1c0,0.2-0.1,0.1-0.3,0.1C26,1.9,26.1,2,26,2l-0.4-0.2
						C25.7,2,25.9,2,25.8,2.2c-0.2-0.1-0.2-0.4-0.4-0.4c0,0.2,0.2,0.4-0.1,0.3c0.1,0.1,0.1,0.2,0.2,0.2c-0.2,0-0.3,0.1-0.5,0
						c0.1,0.3-0.4,0.2-0.1,0.5c-0.1-0.1-0.4-0.2-0.5-0.1C25,3,24.2,2.9,24.6,3.3c-0.4-0.3-0.6,0.1-0.9,0.1c0,0,0.1,0.1,0.1,0
						c-0.1,0.1,0,0.3-0.1,0.4c-0.2-0.3-0.5-0.3-0.7-0.4c0.1,0.4,0.4,0.3,0.5,0.6C23.4,3.8,23.1,4,23,3.8c0,0.3,0,0.2,0.1,0.5
						c-0.3-0.4-0.2,0-0.4-0.2c0,0.3,0.2,0.4,0,0.4C22.6,4.6,22.9,4.7,22.9,4.7z M18.2,6.9L18.2,6.9c0,0,0.1,0,0.1,0
						C18.3,6.8,18.2,6.8,18.2,6.9z M17.8,7.1c0,0,0.1-0.1,0.1-0.1c0-0.1-0.1-0.2-0.1-0.1C17.9,6.9,17.8,7,17.8,7.1z M17.5,5
						c-0.1,0-0.1,0.1,0,0.1C17.5,5.1,17.5,5.1,17.5,5l0.1,0.1C17.6,5,17.5,5,17.5,5z"/>
					<path fill="#FFFFFF" d="M17.8,5.2C17.8,5.2,17.8,5.2,17.8,5.2C17.8,5.3,17.8,5.3,17.8,5.2L17.8,5.2L17.8,5.2z"/>
					<path fill="#FFFFFF" d="M17.7,25.6L17.7,25.6C17.7,25.6,17.7,25.6,17.7,25.6C17.7,25.6,17.7,25.6,17.7,25.6z"/>
					<polygon fill="#FFFFFF" points="13.1,10.8 13.1,10.7 13.1,10.8 					"/>
					<path fill="#FFFFFF" d="M20.1,26.6C20.1,26.6,20.1,26.5,20.1,26.6C20.1,26.6,20.1,26.6,20.1,26.6z"/>
					<path fill="#FFFFFF" d="M20.8,27.3l0.2,0C20.9,27.3,20.8,27.3,20.8,27.3z"/>
					<path fill="#FFFFFF" d="M21.4,27.8C21.4,27.9,21.4,27.9,21.4,27.8L21.4,27.8L21.4,27.8z"/>
					<path fill="#FFFFFF" d="M11.7,19.6C11.7,19.6,11.7,19.6,11.7,19.6C11.7,19.5,11.7,19.5,11.7,19.6z"/>
					<path fill="#FFFFFF" d="M14.7,22.1c0-0.1,0-0.1,0-0.2C14.7,21.9,14.7,21.9,14.7,22.1z"/>
					<polygon fill="#FFFFFF" points="8.1,17.4 8.1,17.4 8.1,17.4 					"/>
					<path fill="#FFFFFF" d="M14.5,21.8c0.1,0,0.1,0,0.1,0.1C14.6,21.9,14.5,21.9,14.5,21.8z"/>
					<path fill="#FFFFFF" d="M23.7,30.5L23.7,30.5C23.7,30.5,23.7,30.5,23.7,30.5L23.7,30.5z"/>
					<path fill="#FFFFFF" d="M23.7,30.5L23.7,30.5C23.6,30.6,23.6,30.5,23.7,30.5z"/>
					<path fill="#FFFFFF" d="M23.7,30.7l0-0.1C23.7,30.6,23.7,30.6,23.7,30.7z"/>
					<path fill="#FFFFFF" d="M22.9,29.7L22.9,29.7C23,29.6,23,29.7,22.9,29.7z"/>
					<path fill="#FFFFFF" d="M22.8,29.4c0.1,0,0.3,0,0.3,0.1L23,29.6C23.1,29.5,22.7,29.6,22.8,29.4z"/>
					<path fill="#FFFFFF" d="M21,29.2l0.2,0.2c-0.1,0-0.3,0.1-0.2,0.2C20.5,29.5,21.2,29.4,21,29.2z"/>
					<path fill="#FFFFFF" d="M20.3,28.6c0.1,0.1-0.1,0.1-0.2,0.1C20.2,28.7,20.2,28.6,20.3,28.6z"/>
					<path fill="#FFFFFF" d="M16.2,24.5l-0.2,0.2C16,24.7,16.1,24.7,16.2,24.5z"/>
					<polygon fill="#FFFFFF" points="16.1,22.8 16.3,22.7 16.2,23 					"/>
					<polygon fill="#FFFFFF" points="14.5,23.9 14.5,23.9 14.5,23.8 					"/>
					<path fill="#FFFFFF" d="M6,19.2l0.2-0.3C6.2,19,6.1,19.3,6,19.2z"/>
					<path fill="#FFFFFF" d="M1.4,16.8c-0.3,0-0.7,0-0.5-0.1C1,16.7,1.4,16.8,1.4,16.8z"/>
					<polygon fill="#FFFFFF" points="10.8,9.2 10.7,9.2 10.9,9.2 					"/>
				</g>
			</g>
		</g>
	</g>
</g>
</svg>
