<?xml version="1.0" encoding="utf-8"?>
<!-- Generator: Adobe Illustrator 18.0.0, SVG Export Plug-In . SVG Version: 6.00 Build 0)  -->
<!DOCTYPE svg PUBLIC "-//W3C//DTD SVG 1.1//EN" "http://www.w3.org/Graphics/SVG/1.1/DTD/svg11.dtd">
<svg version="1.1" id="Layer_1" xmlns="http://www.w3.org/2000/svg" xmlns:xlink="http://www.w3.org/1999/xlink" x="0px" y="0px"
	 viewBox="0 0 32.4 65.6" enable-background="new 0 0 32.4 65.6" xml:space="preserve">
<g>
	<g>
		<path fill="none" d="M31.6,38.3c0,0-9.3,12.4-15.4,24.5c-4.6-10.1-5.9-15.2-15.8-22.2 M16.6,60.3C20.2,28.1,14.8,9.8,0.4,0"/>
		<g>
			<g>
				<g>
					<path fill="#FFFFFF" d="M0,0.6c0-0.1,0.1-0.2,0.2-0.2L0.1,0.7L0,0.6z"/>
					<path fill="#FFFFFF" d="M0.9,0.4c0,0.2-0.1,0.5-0.3,0.7c0.1-0.3,0-0.2,0.1-0.6c-0.1-0.1-0.2,0-0.2,0.1c0-0.1-0.2,0-0.1-0.2
						c0.2-0.1,0.4-0.1,0.4,0.2C0.8,0.6,0.8,0.5,0.9,0.4z"/>
					<path fill="#FFFFFF" d="M8.1,6.4L8.1,6.4C8,6.4,8.1,6.4,8.1,6.4z"/>
					<path fill="#FFFFFF" d="M11.6,11.1C11.5,11,11.6,11,11.6,11.1C11.6,11,11.6,11.1,11.6,11.1z"/>
					<path fill="#FFFFFF" d="M12.4,11.8C12.4,11.8,12.3,11.8,12.4,11.8C12.4,11.8,12.4,11.8,12.4,11.8z"/>
					<path fill="#FFFFFF" d="M8.1,6.4l0.2,0.1C8.2,6.5,8.1,6.4,8.1,6.4z"/>
					<path fill="#FFFFFF" d="M1.4,1.8c0,0,0-0.1,0-0.1C1.4,1.7,1.4,1.8,1.4,1.8L1.4,1.8z"/>
					<path fill="#FFFFFF" d="M6.5,4.3L6.5,4.3c0-0.1,0-0.1,0-0.2L6.5,4.3z"/>
					<path fill="#FFFFFF" d="M5.2,2.8c0,0-0.1,0.2-0.2,0.3C5,3.1,5,3,5,3C5,2.9,5.1,2.9,5.2,2.8z"/>
					<path fill="#FFFFFF" d="M2.4,1.2L2.4,1.2C2.4,1.1,2.4,1.2,2.4,1.2z"/>
					<path fill="#FFFFFF" d="M7.6,5.3C7.6,5.3,7.6,5.2,7.6,5.3C7.6,5.3,7.6,5.3,7.6,5.3z"/>
					<path fill="#FFFFFF" d="M15.5,57.9C15.5,57.9,15.5,57.9,15.5,57.9C15.5,57.9,15.5,57.9,15.5,57.9z"/>
					<polygon fill="#FFFFFF" points="16.7,60.3 16.7,60.2 16.8,60.3 					"/>
					<path fill="#FFFFFF" d="M13.5,13.3L13.5,13.3C13.5,13.2,13.5,13.2,13.5,13.3z"/>
					<path fill="#FFFFFF" d="M18,29.6c-0.3-0.2-0.3,0.4-0.6,0.1C17.5,29.7,17.8,29.3,18,29.6z"/>
					<path fill="#FFFFFF" d="M1.5,1.8C1.5,1.8,1.5,1.9,1.5,1.8C1.5,1.9,1.5,1.8,1.5,1.8z"/>
					<path fill="#FFFFFF" d="M17.4,29.7L17.4,29.7L17.4,29.7C17.4,29.7,17.4,29.7,17.4,29.7z"/>
					<path fill="#FFFFFF" d="M15.1,17.3c0,0-0.1,0-0.1,0C15,17.3,15,17.3,15.1,17.3z"/>
					<path fill="#FFFFFF" d="M13.5,14.5L13.5,14.5C13.5,14.5,13.5,14.5,13.5,14.5z"/>
					<path fill="#FFFFFF" d="M15.2,19c0,0,0.1,0,0.1,0.1C15.3,19.1,15.3,19.1,15.2,19C15.3,19,15.3,19,15.2,19z"/>
					<path fill="#FFFFFF" d="M15.7,20.6C15.7,20.6,15.7,20.6,15.7,20.6L15.7,20.6L15.7,20.6z"/>
					<path fill="#FFFFFF" d="M16.1,52.9c0.1,0,0.2,0.1,0.2,0.1C16.1,52.9,16,53.2,16.1,52.9z"/>
					<path fill="#FFFFFF" d="M1.5,1.7c0,0.1,0,0.1,0,0.1L1.5,1.7C1.5,1.7,1.5,1.7,1.5,1.7z"/>
					<path fill="#FFFFFF" d="M13.1,19.7l0.1,0.2C13.2,19.9,13.2,19.8,13.1,19.7z"/>
					<path fill="#FFFFFF" d="M16.5,41L16.5,41C16.5,41,16.5,41,16.5,41z"/>
					<path fill="#FFFFFF" d="M13.5,20.7c0.1,0,0.2,0,0.2,0.1c0,0,0,0-0.1,0L13.5,20.7z"/>
					<path fill="#FFFFFF" d="M16.3,53L16.3,53L16.3,53z"/>
					<path fill="#FFFFFF" d="M15.5,54.6c0-0.3,0.4-0.1,0.6-0.1c0.1-0.3-0.3-0.2-0.4-0.3c0.1-0.2,0.5-0.3,0.5-0.4c-0.1,0-0.1,0-0.2,0
						c0.3-0.2,0.1-0.6,0.4-0.8c0,0-0.1,0-0.1,0c0.2,0.1,0.4,0.1,0.5,0.1c0-0.1,0.2-0.2,0-0.3c0,0.1-0.1,0.1-0.2,0.1l0.1-0.1
						c-0.3-0.1-0.1,0.2-0.4,0.1c0.1-0.2,0.4-0.5,0.3-0.7c-0.3-0.1-0.1,0.4-0.4,0.1l0.1,0.3c-0.5-0.2,0,0.2-0.5-0.1
						c-0.1-0.4,0.2-0.4,0.1-0.8c0.2-0.1,0.3,0,0.5,0c0.4-0.5-0.8-0.5-0.3-0.8c0.2-0.1,0.7-0.1,0.5-0.4l-0.4,0.1
						c0-0.3,0.6-0.2,0.3-0.5c-0.2,0.1-0.1,0.3-0.2,0.2c-0.3-0.3,0.2-0.2,0.2-0.3L16.2,50c0.1-0.4,0.3-0.8,0.4-1.2
						c-0.1,0-0.2,0.1-0.3,0c0.2-0.5,0-1.1-0.2-1.6l0.3-0.2c0,0-0.1-0.1-0.2,0c-0.1-0.2,0.2,0,0.3-0.1c0-0.1-0.2-0.2-0.3-0.1
						c0.3-0.3,0.6-1,0.3-1.3l-0.1,0.1c-0.1-0.3,0.6-0.3,0.3-0.6l-0.1,0c-0.1-0.6,0.2-1.3-0.3-1.8c0.4-0.1-0.2-0.6,0.4-0.6
						c-0.3-0.3-0.4-0.2-0.6-0.7c0-0.1,0.4-0.2,0.4-0.4l-0.3,0l0.3-0.2l-0.4-0.1l0.1-0.2c0,0.1,0.1,0.1,0.2,0.1
						c0.1-0.2-0.2-0.6-0.4-0.6l0.3-0.6c-0.1,0-0.2,0.1-0.2,0.2c0.3-0.3-0.3,0,0-0.3c0.1,0,0.2,0,0.2,0c-0.2-0.1-0.2-0.4-0.1-0.7
						l-0.2,0.1c-0.1-0.4,0.1-0.9,0-1.3c0.1,0.2,0.5,0.1,0.5,0l-0.3,0c0.2-0.1,0.1,0.1,0.4-0.1c0-0.2-0.4-0.1-0.5,0l0.1-0.2
						c-0.1,0-0.1,0-0.3,0.1c0.2-0.1-0.3-0.3,0-0.5l-0.1,0c0-0.5,0.1-0.7,0.1-1.1c0.3,0,0.2-0.2,0.4-0.3c-0.1-0.3-0.3-0.6-0.3-0.9
						c0.1-0.2,0.2-0.1,0.4-0.2c-0.3,0-0.3-0.3-0.4-0.1c0-0.4,0-0.5,0.2-1c0.1,0,0.2,0.1,0.2,0.1c0-0.1-0.1-0.2-0.3-0.2l0,0
						c0.3-0.6-0.9-1.2-0.4-1.7l0,0l0.2-0.5c-0.1-0.2-0.2,0.2-0.4,0c0.4-0.6-0.1-0.8,0.1-1.2c-0.8-0.2-0.1-1.1-0.7-1.5l0.2,0
						c0.2-0.1-0.1-0.1-0.2-0.2c0.1,0,0.2,0.1,0.3,0c0-1-0.6-1.9-0.9-2.8c-0.1-0.3,0.9-0.4,0.3-0.7l-0.3,0.2c0.2-0.8-0.4-1.4-0.2-2.2
						c-0.1,0.1-0.2,0.1-0.1,0.2c-0.3-0.1-0.1-0.5,0.1-0.6c0-0.1-0.2,0-0.3,0c-0.2-0.1,0.2-0.4-0.1-0.5c0,0-0.1,0.1-0.1,0.1
						c0.1-0.1-0.2-0.4,0.1-0.4c-0.2-0.2,0-0.5-0.3-0.7c0.3-0.2-0.3-0.4,0.1-0.6c-0.4,0.2-0.5-0.3-0.3-0.6c-0.1,0.1-0.2-0.1-0.3,0
						c-0.1-0.2,0-0.4,0.2-0.4c-0.6-0.2,0.2-0.8-0.5-0.8c0-0.6,0-1.1-0.1-1.7c-0.4,0.2,0.2,0.5-0.3,0.7c0-0.5,0.2-0.9,0-1.3
						c-0.1-0.1-0.2,0.1-0.2,0.2c0-0.5-0.4-0.9-0.3-1.3c0,0-0.1,0.1-0.1,0.1c0-0.1-0.1-0.1,0-0.2l0,0.1c0.3,0,0.4-0.6,0.5-0.6
						c-0.5,0.4-0.3-0.3-0.9,0.2c0-0.1,0.1-0.2,0.2-0.2c-0.1-0.1-0.2,0-0.3,0.1c0-0.3,0.2-0.3,0.1-0.6c-0.1,0-0.1,0.1-0.2,0.2
						c0.1-0.2,0.2-0.4,0-0.6c0,0-0.1,0.1-0.1,0.1c-0.2-0.4,0.1-0.8-0.2-1.2c-0.3,0.3-0.2-0.1-0.5,0.1l0-0.3l0.2,0
						c-0.1-0.2,0-0.5-0.2-0.6L10.4,12l-0.1-0.4l0.2,0.1c0.1-0.3,0.4-0.2,0.2-0.4c0,0.1-0.1-0.2-0.4-0.2l0,0c0-0.1,0.1-0.3-0.1-0.4
						c-0.1,0-0.3,0.2-0.4,0.3c0.2-0.2-0.2-0.5,0-0.7c0,0.1-0.2,0.2-0.2,0.2l0.2-0.2c-0.1,0-0.2,0-0.3,0.1C9.4,10.2,10,10.2,9.6,10
						c0,0,0,0,0,0.1C9.3,9.9,9.4,9.5,9.1,9.3C8.8,9.4,9.2,9.6,8.9,9.7c-0.2-0.4-0.2-1-0.5-1.3l0.1,0C8.8,8,8,8.3,8.1,7.9
						c0,0.1-0.2,0.2-0.2,0.2c-0.2-0.2-0.3-0.6-0.4-1L7.4,7.2C7.2,7.2,7.1,6.9,6.9,6.8c0.1-0.1,0-0.2,0.2-0.3c-1,0.1-0.5-1.1-1.3-1.1
						c0,0,0,0.2,0,0.2L5.6,5.2c0.2-0.1,0.1-0.1,0.3-0.1c0.1-0.1,0-0.3,0-0.4c0,0.3-0.3,0.3-0.4,0.3c0.1,0,0.1-0.1,0.2-0.2
						C5.1,4.9,5.9,4.5,5.5,4.4L5.4,4.5c0-0.1,0-0.3-0.1-0.4c-0.2,0.2,0,0.2-0.1,0.3C5,4.3,5.2,3.9,4.9,3.9C4.9,4,5,4.1,5,4.2
						c-0.4,0.1-0.3,0-0.4,0l0,0L4.3,4.1l0.1,0c0.3-0.7-0.3-0.4-0.2-0.9C4.1,3.7,4.1,3.4,3.9,3.6c-0.1,0-0.3,0-0.3,0.1
						c0.1-0.3-0.3,0-0.2-0.4C3.3,3.3,3.3,3.2,3.1,3.4C3,3.2,3.3,3.3,3.3,3.2c0-0.4-0.8-0.1-0.8-0.8c-0.2-0.4,0-0.7-0.2-1
						C2.2,1.5,2.2,1.8,2.2,1.8C2,1.8,1.9,1.7,1.8,1.5c0,0.1-0.1,0.1-0.2,0.2C1.5,1.5,1.7,1.3,1.5,1.3c0,0.1-0.1,0.3-0.1,0.4
						C1.3,1.5,1.3,1.3,1.2,1.1C1.1,1.2,1.1,1.4,1.1,1.5C1,1.3,0.8,1.1,0.9,0.9l0.2,0C1,0.8,0.9,1,0.9,1.1c0,0.3,0.2,0.1,0.3,0L1.2,1
						c0.4-0.4,0.3,0.4,0.5,0.5L1.9,1l0,0.4C2,1.4,2.2,1.2,2.1,1.1c0.3-0.1,0,0.2,0.3,0.1c0,0,0,0,0-0.1l0.1,0.2
						c0-0.1,0.2-0.2,0.1-0.2c0.4,0,0.2,0.5,0.5,0.4l0,0c0.3,0.4-0.2,0.3-0.1,0.7l0.6-0.4L3.4,2.1c0,0,0.1,0.1,0.2,0
						c0,0.3-0.1,0.1-0.2,0.3c0.3-0.1,0.3,0.5,0.7,0.2c-0.1,0.2-0.3,0-0.2,0.3C4.3,2.4,4.1,3,4.4,2.9c0.1-0.2-0.1-0.3,0.2-0.3
						C4.4,3,4.9,2.8,5,3C4.8,3.2,5.2,3.3,5.3,3.6c0.1-0.1,0.5,0.2,0.8,0.3l0,0c-0.2,0.3,0,0.4,0.1,0.6c0.2-0.2,0.2-0.2,0.2-0.4
						l0.1,0.1c-0.1,0.1-0.1,0.2,0,0.3l0.2-0.2C6.8,4.5,6.8,4.9,7.1,5C6.9,5.2,6.4,5.3,6.5,5.7c0.1-0.1,0.3-0.2,0.3-0.3
						c0,0,0,0.2,0.1,0.2l0.1-0.3c0.2,0-0.1,0.2,0,0.3c0.1-0.1,0.2,0,0.3-0.1c0,0-0.1,0-0.1-0.1c0.1,0.1,0.3,0.1,0.5,0
						C7.5,5.4,7.4,5.5,7.4,5.5c0.2,0.2,0.2-0.1,0.4-0.1C7.7,5.6,8,5.6,7.7,5.8c0,0.1,0.2,0,0.2-0.1C8,6,8.3,6.3,8,6.3l0,0
						c0,0,0,0,0,0l0,0l0,0c0,0.5,0.6,0.6,0.8,1l0.1-0.1C8.9,7.5,9.1,7.7,9,8c0,0.1,0.2,0,0.3-0.1c0.1,0.2,0,0.3,0.3,0.4
						c0-0.2,0.2,0,0-0.2C9.8,8.3,10,8.2,9.9,8.6c0.2-0.2,0.4,0,0.4,0.1l-0.2,0c0,0.1,0.1,0.2,0.2,0.3l0.2-0.2
						c0.6,0.2-0.1,1.1,0.7,1.1c-0.1,0.2-0.3-0.1-0.4,0.1c0.2,0.2,0.7,0.1,0.7,0.2c0.3,0.2-0.3,0.5,0,0.7c-0.1,0-0.4,0.2-0.4,0.4
						c0.2,0.2,0.6,0,0.6-0.2c0-0.1-0.1-0.1-0.1,0c0-0.1,0-0.2,0.1-0.2l-0.1,0.1c0.2,0,0.3,0.3,0.5,0.2c0,0.2-0.1,0.2-0.3,0.1
						c0.3,0.2,0.2,0.4,0.5,0.6c-0.1,0-0.2,0-0.2,0.1c0.3,0.3-0.1,0.3,0,0.6c0.2,0.1,0.4-0.3,0.4,0.1c0.2,0.1,0.3-0.1,0.3-0.2
						c-0.1,0.4,0.4,0.4,0.5,0.5l0-0.2c0,0.1,0,0.2,0.1,0.2l-0.2,0c0.1,0.1,0.1,0.1,0.2,0.1c-0.1,0.1-0.4,0.1-0.5,0.4
						c0.2,0,0,0.4,0.3,0.3c-0.3-0.3,0.3-0.1,0.2-0.4c0,0.1,0,0.1,0.1,0.2c0,0,0.1,0,0.1-0.1c0.4,0.2-0.2,0.3-0.1,0.6
						c0.1-0.1,0.3-0.1,0.3,0c-0.1-0.1-0.3,0.1-0.4,0.2c0.2,0.1,0,0.3,0.1,0.4l-0.1-0.1c-0.1,0.1-0.1,0.2-0.1,0.4
						c0.1,0,0-0.2,0.1-0.1c-0.2,0.3,0.4,0.2,0.3,0.5c0.2,0.1,0.3-0.1,0.4-0.1c-0.1,0.3,0.3,0.2,0.3,0.5c-0.3,0-0.2,0-0.3,0.3l0-0.5
						l-0.2,0.4c-0.1-0.1,0-0.3,0-0.4c-0.1,0.2-0.1,0.2-0.3,0.2c0.4,0,0,0.4,0.3,0.6l0.5-0.2c0.4,0.2-0.1,0.7,0.2,1l-0.1-0.1
						c-0.2,0.1,0.1,0.3,0,0.4c0.2-0.1,0.3,0,0.4,0c-0.1,0,0.1,0.3-0.2,0.5l0.3,0.1c0.2,0.3-0.4,0.6-0.2,0.9c0.2-0.2,0.4-0.1,0.4-0.3
						c0,0.1,0.1,0.2,0,0.2c0.1,0-0.2,0.4,0.1,0.4c-0.1,0.1-0.3,0.2-0.2,0.3c0,0,0.1,0,0.1,0c-0.1,0-0.1,0.2-0.3,0.2
						c0.7,0.1,0.2,0.9,0.8,1.1c0,0.3,0,0.6,0.1,0.8c0.1,0,0.1,0,0.1-0.1c0.3,0.2-0.5,0.3-0.2,0.6c0.3,0.1,0.1-0.2,0.3-0.1
						c0.6-0.1,0,0.4,0.4,0.6l0-0.1c0.3,0.1-0.1,0.5,0,0.8c0,0,0.1,0,0.1,0c-0.3,0.3-0.3,0.7-0.3,1c0.2-0.1,0.1-0.2,0.4-0.2
						c0,0.1-0.4,0.1-0.4,0.3c0.2,0,0.3,0.2,0.6,0.2l0-0.2c0.4,0,0.1,0.3,0.2,0.4l0.1,0c0,0.4-0.3,0.5-0.2,0.8l-0.1,0
						c-0.3,0.3,0.3,0.1,0,0.4l0.4,0c-0.1,0.2-0.3,0.6-0.3,0.8c0.3-0.2,0.4-0.5,0.5-0.7c0,0.1,0.1,0.5-0.1,0.6c0-0.1,0.1-0.2,0-0.2
						c-0.3,0.2-0.4,0.5-0.3,0.8c0.7-0.2,0.3,0.7,0.9,0.8c-0.2,0.5,0.3,1,0.3,1.6c-0.6-0.1,0,0.2-0.6,0.2c0,0.1,0,0.2,0,0.2l0.4,0.4
						c0.2,0.1,0.1-0.1,0.3-0.2c0.1,0.3,0.3,0.1,0.5,0.3c-0.2,0-0.3,0.1-0.2,0.3L18,30.2c-0.3,0.5,0.5,0.3,0.3,0.8l0.2-0.2
						c-0.1,0.2,0.1,0.8-0.4,1.1c0.1,0,0.2,0.1,0.3,0c0.1,0.5-0.4,1.2,0,1.6l0.1-0.1c0,0.1-0.3,0.2-0.1,0.3c0.1,0,0.1-0.1,0.2,0
						c0,0.1-0.2,0.3-0.1,0.4l0.2-0.1c0.2,0.5-0.4,0.8-0.4,1.2c0.4,0,0.6,0.4,0.7,0.5l0.1,0c0.1,0.6-0.3,1-0.4,1.6
						c0.5,0.3,0.3,1.1,0.6,1.7c-0.1-0.1-0.3,0-0.4,0.1c0.1,0.1-0.3,0.4,0.1,0.3l0,0c0.4,0.1,0.3,0.3,0.3,0.6l-0.5,0
						c0.8,0.5-0.3,1.4,0.4,1.7c-0.1,0.1-0.1,0.3-0.3,0.4l0.3,0c0.1,0.4,0.1,0.5,0.1,1l0.2-0.1c0,0.2-0.8,0.3-0.8,0.5l0.4,0.1
						c0,0.4,0.3,0.9-0.1,1.3c0.1,0,0.2,0,0.2-0.1c0,0.2,0.3,0.8-0.3,0.7c0.4,0,0,0.4-0.1,0.7l0.3,0c-0.4,0.2-0.5,0.2-0.6,0.5
						c0,0.1,0.2,0.1,0.2,0c0.1,0.2-0.3,0.2-0.1,0.4l0.2-0.1c0,0.2-0.1,0.2-0.3,0.3c-0.1,0.1,0.1,0.4,0.3,0.5c-0.2,0-0.4,0.1-0.3,0.3
						c0.1,0,0.2,0,0.2,0c0.2,0.4-0.3,0.5-0.1,0.8c0.1,0,0.1,0,0.2,0.1c0-0.3,0-0.5,0-0.5c0.3,0,0.3,0.3,0.7,0.1
						c-0.2,0.2-0.6,0.5-0.5,0.7c0,0,0,0,0.1,0l0,0c0,0.1,0,0.1-0.1,0.1c0,0.1,0.1,0.1,0.1,0.2c0.2,0,0.1,0.3,0.1,0.4
						c-0.3,0-0.2,0.1-0.5,0c0,0,0,0,0.1-0.1c0,0,0,0,0,0l0,0c0-0.1,0-0.2,0-0.3c-0.1,0.1-0.3,0.2-0.1,0.3c-0.2,0.1-0.4,0.1-0.5,0.1
						c0.4,0.2,0.6,0.5,0.8,0.6c-0.2,0.4-0.2,0.8-0.7,1c-0.1,0.1,0.1,0.1,0.2,0.2c0.1-0.1,0.1-0.1,0.1-0.2c-0.1,0.2-0.1,0.6-0.5,0.6
						c0.1,0.3,0.3-0.1,0.3,0.2l0.1,0c0.5,0.7-1,1.1-0.3,1.9c0-0.1-0.1-0.1-0.1-0.1c0.3,0.9-0.5,1.8,0,2.7c0.1,0.3-0.2,0.3-0.3,0.4
						l0.3,0.1l-0.4,0.2c-0.3,0.3,0.7,0.7,0.1,1.1l-0.2-0.1c0,0.2-0.2,0.5,0.1,0.5c0,0-0.2,0-0.1,0.1l0.2,0L17,59.5
						c0.1,0.3,0.6,0,0.6,0.5c-0.1,0.2-0.5,0.4-0.6,0.4c0-0.1-0.1-0.2-0.2-0.2l-0.1,0.1c-0.5,0-1,0-1.2-0.4l0.3-0.2l-0.2-0.1l0,0.2
						c-0.2-0.2,0-0.2,0.1-0.3c-0.1,0-0.2-0.1-0.2-0.1l0.5-0.2c-0.2-0.1-0.4,0.1-0.5-0.1c0.2-0.1,0.4,0.2,0.5,0
						c-0.2-0.2-0.4-0.1-0.2-0.3c-0.1,0-0.2,0-0.3,0c0.2-0.1,0.1-0.3,0.3-0.4c-0.2-0.2,0.1-0.4-0.3-0.5c0.1,0,0.4-0.2,0.4-0.3
						c-0.5,0.2,0-0.5-0.6-0.5c0.5-0.1,0.3-0.6,0.6-0.8c0,0-0.1,0-0.1,0.1c0-0.2-0.2-0.2-0.2-0.3c0.4,0,0.5-0.2,0.8-0.4
						c-0.4-0.2-0.5,0.1-0.8,0c0.3,0,0.4-0.3,0.6-0.2c-0.2-0.2-0.1-0.1-0.4-0.3c0.5,0,0.1-0.1,0.4-0.2c-0.2-0.2-0.5-0.1-0.3-0.3
						C15.7,54.4,15.5,54.6,15.5,54.6z M16.8,48.8L16.8,48.8c0,0,0,0.1,0,0.1C16.8,48.9,16.8,48.9,16.8,48.8z M16.8,48.3
						c0,0.1,0,0.1,0,0.2c0.1,0,0.2,0,0.2,0C16.9,48.5,16.9,48.4,16.8,48.3z M18.7,49.5c0-0.1,0-0.1-0.1-0.1c0,0,0,0.1,0,0.1l0,0
						C18.6,49.5,18.7,49.5,18.7,49.5z"/>
					<path fill="#FFFFFF" d="M18.3,49.6C18.3,49.6,18.3,49.6,18.3,49.6C18.3,49.6,18.2,49.6,18.3,49.6L18.3,49.6L18.3,49.6z"/>
					<path fill="#FFFFFF" d="M8,6.3L8,6.3C8,6.4,8,6.4,8,6.3C8,6.4,8,6.4,8,6.3z"/>
					<polygon fill="#FFFFFF" points="16.4,41.5 16.4,41.5 16.4,41.6 					"/>
					<path fill="#FFFFFF" d="M5.4,5C5.4,5,5.4,5,5.4,5C5.4,5,5.4,5,5.4,5z"/>
					<path fill="#FFFFFF" d="M4.6,4.2l-0.2,0C4.5,4.2,4.5,4.2,4.6,4.2z"/>
					<path fill="#FFFFFF" d="M3.8,3.7c0,0,0-0.1,0.1-0.1l0,0L3.8,3.7z"/>
					<path fill="#FFFFFF" d="M11.8,15.2C11.8,15.2,11.8,15.2,11.8,15.2C11.8,15.3,11.8,15.3,11.8,15.2z"/>
					<path fill="#FFFFFF" d="M10.4,11.2c0,0.1,0,0.1,0,0.2C10.3,11.3,10.2,11.3,10.4,11.2z"/>
					<polygon fill="#FFFFFF" points="13.1,19.7 13.1,19.7 13.1,19.7 					"/>
					<path fill="#FFFFFF" d="M10.4,11.5c-0.1,0-0.1-0.1-0.1-0.2C10.4,11.4,10.4,11.5,10.4,11.5z"/>
					<path fill="#FFFFFF" d="M0.8,1.4L0.8,1.4C0.7,1.3,0.7,1.3,0.8,1.4L0.8,1.4z"/>
					<path fill="#FFFFFF" d="M0.7,1.3L0.7,1.3C0.7,1.3,0.7,1.3,0.7,1.3z"/>
					<path fill="#FFFFFF" d="M0.7,1.1l0,0.1C0.7,1.2,0.6,1.2,0.7,1.1z"/>
					<path fill="#FFFFFF" d="M1.8,2L1.8,2C1.7,2,1.7,2,1.8,2z"/>
					<path fill="#FFFFFF" d="M2,2.2c-0.1,0-0.3,0-0.4-0.1l0-0.1C1.7,2.2,2.1,2,2,2.2z"/>
					<path fill="#FFFFFF" d="M4,2.2L3.7,2.1C3.8,2,4,2,3.9,1.8C4.4,1.9,3.7,2,4,2.2z"/>
					<path fill="#FFFFFF" d="M4.8,2.7C4.7,2.6,4.9,2.6,5,2.6C5,2.7,5,2.8,4.8,2.7z"/>
					<path fill="#FFFFFF" d="M9.5,7.9l0.2-0.2C9.7,7.9,9.6,7.8,9.5,7.9z"/>
					<polygon fill="#FFFFFF" points="9.2,9.8 9,9.8 9.1,9.6 					"/>
					<polygon fill="#FFFFFF" points="11.1,9.4 11.1,9.4 11.1,9.6 					"/>
					<path fill="#FFFFFF" d="M15.9,20.2l-0.3,0.1C15.6,20.2,15.9,20.1,15.9,20.2z"/>
					<path fill="#FFFFFF" d="M16.8,25.2c0.2,0,0.3,0.1,0.2,0.3C17,25.3,16.8,25.3,16.8,25.2z"/>
					<polygon fill="#FFFFFF" points="18.9,40.2 19,40.1 18.9,40.3 					"/>
				</g>
			</g>
		</g>
		<g>
			<g>
				<g>
					<path fill="#FFFFFF" d="M0,41.2c0-0.1,0.2-0.2,0.2-0.2l-0.1,0.3L0,41.2z"/>
					<path fill="#FFFFFF" d="M0.8,41c0,0.2-0.1,0.5-0.3,0.7c0.1-0.3,0-0.2,0.2-0.6c0-0.1-0.2,0-0.2,0.1c0-0.1-0.1,0-0.1-0.2
						c0.2-0.1,0.3-0.1,0.3,0.2C0.8,41.2,0.8,41.1,0.8,41z"/>
					<path fill="#FFFFFF" d="M7.3,45.9L7.3,45.9C7.2,45.9,7.3,45.9,7.3,45.9z"/>
					<path fill="#FFFFFF" d="M10.5,49.8C10.5,49.8,10.5,49.7,10.5,49.8C10.6,49.7,10.6,49.8,10.5,49.8z"/>
					<path fill="#FFFFFF" d="M11.3,50.3C11.3,50.3,11.3,50.3,11.3,50.3C11.3,50.3,11.3,50.3,11.3,50.3z"/>
					<path fill="#FFFFFF" d="M7.3,45.9l0.2,0C7.4,46,7.3,45.9,7.3,45.9z"/>
					<path fill="#FFFFFF" d="M1.2,42.3c0,0,0-0.1,0-0.1C1.3,42.2,1.3,42.3,1.2,42.3L1.2,42.3z"/>
					<path fill="#FFFFFF" d="M5.9,44.1L5.9,44.1c0-0.1,0-0.1,0-0.2L5.9,44.1z"/>
					<path fill="#FFFFFF" d="M4.6,42.9c0,0-0.1,0.2-0.2,0.3c0.1-0.1,0.1-0.2,0.1-0.2C4.5,43,4.6,43,4.6,42.9z"/>
					<path fill="#FFFFFF" d="M2.2,41.6L2.2,41.6C2.2,41.6,2.2,41.6,2.2,41.6z"/>
					<path fill="#FFFFFF" d="M6.8,44.9C6.9,44.9,6.9,44.9,6.8,44.9C6.9,44.9,6.9,44.9,6.8,44.9z"/>
					<path fill="#FFFFFF" d="M31.5,40.7C31.5,40.7,31.5,40.7,31.5,40.7C31.5,40.7,31.5,40.7,31.5,40.7z"/>
					<polygon fill="#FFFFFF" points="31.5,38.3 31.5,38.3 31.4,38.2 					"/>
					<path fill="#FFFFFF" d="M12.4,51.5L12.4,51.5C12.4,51.5,12.4,51.5,12.4,51.5z"/>
					<path fill="#FFFFFF" d="M16.6,59.5c0.1,0.3,0.3,0.2,0.4,0.5C16.9,60,16.7,59.7,16.6,59.5z"/>
					<path fill="#FFFFFF" d="M1.3,42.3C1.3,42.3,1.3,42.4,1.3,42.3C1.3,42.4,1.3,42.3,1.3,42.3z"/>
					<path fill="#FFFFFF" d="M17,60L17,60L17,60C17,60.1,17,60.1,17,60z"/>
					<path fill="#FFFFFF" d="M13.9,54.9c0,0-0.1,0-0.1,0C13.8,54.9,13.9,54.9,13.9,54.9z"/>
					<path fill="#FFFFFF" d="M12.4,52.6L12.4,52.6C12.4,52.7,12.4,52.6,12.4,52.6z"/>
					<path fill="#FFFFFF" d="M14.2,56.3C14.2,56.4,14.2,56.3,14.2,56.3C14.2,56.4,14.2,56.4,14.2,56.3
						C14.2,56.4,14.2,56.3,14.2,56.3z"/>
					<path fill="#FFFFFF" d="M14.8,57.7C14.7,57.7,14.7,57.7,14.8,57.7L14.8,57.7L14.8,57.7z"/>
					<path fill="#FFFFFF" d="M28.9,44.2c0-0.1-0.1-0.1-0.2-0.2C28.9,44.1,29,44,28.9,44.2z"/>
					<path fill="#FFFFFF" d="M1.3,42.2c0,0.1,0,0.1,0,0.1L1.3,42.2C1.3,42.2,1.3,42.2,1.3,42.2z"/>
					<path fill="#FFFFFF" d="M12.2,57.3l0.1,0.2C12.3,57.4,12.2,57.4,12.2,57.3z"/>
					<path fill="#FFFFFF" d="M23.2,52.8L23.2,52.8C23.2,52.7,23.2,52.8,23.2,52.8z"/>
					<path fill="#FFFFFF" d="M12.5,58.1c0.1,0,0.2,0,0.2,0c0,0,0,0-0.1,0.1L12.5,58.1z"/>
					<path fill="#FFFFFF" d="M28.7,44L28.7,44L28.7,44z"/>
					<path fill="#FFFFFF" d="M30.1,43.1c-0.1,0.2-0.4-0.1-0.6-0.2c-0.2,0.2,0.2,0.3,0.3,0.4c-0.2,0.1-0.5,0-0.6,0.1
						c0,0,0,0.1,0.1,0.1c-0.3,0-0.3,0.4-0.7,0.4c0,0,0,0.1,0.1,0.1c-0.1-0.1-0.3-0.2-0.4-0.3c-0.1,0.1-0.3,0-0.1,0.2
						c0-0.1,0.1,0,0.2,0l-0.1,0c0.2,0.3,0.2,0,0.4,0.1c-0.2,0.1-0.6,0.1-0.6,0.3c0.3,0.2,0.3-0.2,0.4,0.1l0-0.3
						c0.3,0.5,0.1-0.1,0.4,0.3c-0.1,0.3-0.3,0.2-0.4,0.5c-0.2,0-0.2-0.2-0.4-0.2c-0.5,0.2,0.5,0.8,0,0.8c-0.2-0.1-0.6-0.3-0.5,0
						l0.4,0.2c-0.1,0.3-0.6-0.2-0.5,0.2c0.2,0,0.2-0.1,0.3-0.1c0.1,0.3-0.3,0-0.3,0.1l0.3,0.2c-0.2,0.2-0.6,0.4-0.9,0.7
						c0.1,0,0.2,0,0.3,0.2c-0.4,0.3-0.5,0.8-0.6,1.3l-0.3,0c0,0,0.1,0.1,0.1,0.1c0,0.2-0.2-0.1-0.3-0.1c-0.1,0.1,0.1,0.2,0.2,0.2
						c-0.4,0.1-0.9,0.4-0.8,0.8l0.1,0c0,0.3-0.7-0.1-0.5,0.2l0.1,0c-0.2,0.5-0.7,0.9-0.6,1.4c-0.4-0.2-0.1,0.5-0.6,0.3
						c0.1,0.4,0.2,0.4,0.2,0.9c0,0.1-0.4-0.1-0.5,0l0.3,0.2l-0.4,0l0.3,0.3l-0.1,0.1c0-0.1-0.1-0.2-0.1-0.2
						c-0.2,0.1-0.1,0.5,0.1,0.6l-0.5,0.3c0.1,0.1,0.2,0,0.3,0c-0.4,0.1,0.3,0.2-0.1,0.3c0-0.1-0.2-0.1-0.2-0.1
						c0.1,0.2,0,0.4-0.2,0.6l0.2,0.1c-0.1,0.3-0.5,0.6-0.7,0.9c0-0.2-0.3-0.3-0.4-0.3l0.3,0.2c-0.2,0,0-0.2-0.3-0.2
						c0,0.1,0.3,0.3,0.4,0.3l-0.2,0.1c0.1,0.1,0.1,0,0.3,0.1c-0.2,0,0.1,0.4-0.2,0.4l0.1,0.1c-0.2,0.3-0.4,0.4-0.6,0.7
						c-0.2-0.1-0.3,0-0.5,0c0,0.3,0,0.6-0.1,0.8c-0.2,0.1-0.2-0.1-0.4-0.1c0.2,0.1,0,0.4,0.3,0.3c-0.2,0.3-0.3,0.4-0.7,0.6
						c-0.1-0.1-0.1-0.2-0.2-0.2c-0.1,0,0,0.2,0.1,0.3l0,0c-0.6,0.2,0.1,1.4-0.6,1.4l0,0L18.7,60c-0.1,0.2,0.2,0,0.3,0.2
						c-0.5,0.1-0.5,1-0.9,1.3c0.1,0.5-0.1,1-0.4,1.4c-0.3,0.4-0.5,0.7-0.6,1.4l0-0.3C17,63.7,17,64.2,17,64.4c0-0.3,0.1-0.4,0-0.5
						c-0.2,0.2-0.3,0.5-0.5,0.9c-0.1,0.2-0.2,0.4-0.3,0.6l-0.1,0.2c0,0,0,0.1,0,0.1l0,0l-0.1-0.2c-0.3-0.5-0.7-0.9-1.1-1.6
						c-0.3-0.5,0.3-1.5-0.2-1.6l-0.1,0.6c-0.1-0.8-0.3-1.3-0.6-1.8c-0.1-0.2-0.3-0.6-0.3-0.7c-0.1-0.2-0.1-0.3-0.1-0.5
						c-0.1,0.1-0.1,0.1-0.1,0.2c-0.3,0-0.2-0.4,0-0.5c-0.1-0.1-0.2,0.1-0.3,0C12.9,59.3,13.3,59,13,59c0,0-0.1,0.1-0.1,0.1
						c0.1-0.1-0.2-0.4,0.1-0.4c-0.2-0.2-0.1-0.5-0.3-0.6c0.2-0.2-0.3-0.3,0.1-0.5c-0.4,0.2-0.5-0.2-0.4-0.4
						c-0.1,0.1-0.2-0.1-0.3,0.1c-0.1-0.2,0-0.3,0.2-0.4c-0.6-0.1,0.1-0.7-0.6-0.6c0-0.5,0-1-0.1-1.5c-0.4,0.2,0.2,0.5-0.3,0.6
						c0-0.5,0.2-0.8-0.1-1.2c-0.1-0.1-0.1,0.1-0.2,0.2c0-0.5-0.4-0.7-0.4-1.1c0,0-0.1,0.1-0.1,0.1c0-0.1-0.1-0.1,0-0.2l0,0.1
						c0.3,0,0.4-0.5,0.5-0.6c-0.5,0.4-0.3-0.3-0.9,0.3c0-0.1,0.1-0.2,0.2-0.2c-0.1,0-0.1,0-0.3,0.1c0-0.3,0.2-0.3,0.1-0.5
						c-0.1,0-0.1,0.1-0.2,0.2c0.1-0.2,0.2-0.4,0-0.5c0,0-0.1,0.1-0.1,0.1c-0.1-0.3,0.1-0.8-0.2-1c-0.3,0.3-0.2,0-0.5,0.1l0-0.2
						l0.2,0c-0.1-0.1,0-0.4-0.1-0.5l-0.1,0.2l-0.1-0.3l0.2,0.1c0.1-0.3,0.4-0.2,0.2-0.4c0,0.1-0.1-0.1-0.3-0.1l0,0
						c0-0.1,0.1-0.3,0-0.3c-0.1,0-0.3,0.3-0.4,0.3c0.2-0.3-0.2-0.4,0-0.7c0,0.1-0.2,0.2-0.2,0.2l0.2-0.2c-0.1,0-0.2,0-0.3,0.1
						c-0.2-0.2,0.4-0.2,0.1-0.3c0,0,0,0,0,0.1c-0.3-0.2-0.2-0.6-0.5-0.7c-0.3,0.2,0.1,0.2-0.2,0.4c-0.2-0.4-0.2-0.9-0.5-1.1l0.1,0
						c0.4-0.4-0.4,0-0.3-0.4c0,0.1-0.2,0.2-0.1,0.2c-0.2-0.1-0.3-0.5-0.4-0.9l-0.1,0.1c-0.2,0-0.3-0.2-0.5-0.3
						c0.1-0.1,0-0.2,0.2-0.3c-0.9,0.2-0.4-1-1.2-0.8c0,0,0,0.2,0,0.1L5,45.1C5.1,44.9,5.1,45,5.3,45c0.1-0.1,0.1-0.3,0-0.4
						c0,0.2-0.3,0.3-0.4,0.3c0.1,0,0.1-0.1,0.1-0.2c-0.4,0.2,0.3-0.4-0.1-0.3l-0.1,0.1c0-0.1,0-0.3-0.1-0.3c-0.2,0.2,0,0.2-0.1,0.3
						c-0.1-0.1,0.1-0.6-0.2-0.5c0,0.1,0.1,0.2,0.1,0.3c-0.3,0.1-0.3,0.1-0.4,0l0,0l-0.3-0.1l0.1,0c0.3-0.7-0.2-0.4-0.1-0.9
						c-0.1,0.5-0.1,0.2-0.3,0.5c-0.1,0-0.2,0-0.3,0.1c0.1-0.3-0.3,0-0.2-0.4c-0.1,0.1-0.1-0.1-0.2,0.1c-0.1-0.2,0.1-0.1,0.2-0.2
						c0-0.4-0.7,0-0.7-0.6c-0.1-0.3,0-0.6-0.1-0.9C2,41.9,2,42.2,2,42.2c-0.2,0-0.3-0.1-0.3-0.2c0,0.1-0.1,0.1-0.2,0.2
						c-0.1-0.1,0.1-0.3-0.1-0.3c0,0.1-0.1,0.3-0.1,0.4c-0.1-0.2-0.1-0.4-0.1-0.5C1,41.8,1,41.9,1,42.1c-0.1-0.2-0.2-0.4-0.1-0.6
						l0.1,0c0,0-0.2,0.2-0.2,0.2c0,0.3,0.2,0,0.3,0l0-0.1c0.4-0.4,0.3,0.3,0.5,0.4l0.2-0.4l0,0.4c0.1-0.1,0.3-0.2,0.2-0.3
						c0.2-0.1,0,0.2,0.3,0.1c0,0,0,0,0-0.1l0,0.2c0-0.1,0.2-0.2,0.1-0.2c0.4,0,0.1,0.5,0.4,0.3l0,0c0.2,0.3-0.2,0.3-0.2,0.7l0.6-0.5
						l-0.2,0.3c0,0,0.1,0,0.2-0.1c0,0.3-0.1,0.1-0.2,0.3c0.3-0.1,0.3,0.4,0.7,0.1c-0.1,0.2-0.3,0-0.2,0.3c0.4-0.4,0.1,0.2,0.4,0.1
						c0.1-0.2-0.1-0.2,0.2-0.3c-0.2,0.4,0.3,0.1,0.4,0.3c-0.2,0.3,0.1,0.3,0.2,0.6c0.1-0.1,0.5,0.1,0.7,0.2l0,0
						c-0.2,0.3,0,0.4,0.1,0.6c0.1-0.2,0.2-0.2,0.2-0.4l0.1,0.1c-0.1,0.1-0.1,0.2,0,0.3L6,44.2c0.1,0.2,0.1,0.5,0.4,0.6
						c-0.2,0.2-0.7,0.4-0.6,0.7c0.1-0.1,0.3-0.3,0.3-0.3c0,0,0,0.1,0.1,0.1L6.3,45c0.2,0-0.1,0.2,0,0.2c0.1-0.1,0.2,0,0.3-0.2
						c0,0-0.1,0-0.1-0.1c0.1,0.1,0.3,0.1,0.4,0c-0.1,0.1-0.2,0.2-0.1,0.3c0.1,0.2,0.2-0.1,0.4-0.1C7,45.2,7.2,45.2,7,45.4
						c0,0,0.1,0,0.2-0.1c0,0.2,0.3,0.4,0,0.5l0,0c0,0,0,0,0,0l0,0l0,0c0,0.5,0.6,0.4,0.8,0.8L8,46.6c0,0.2,0.2,0.4,0.2,0.7
						c0,0,0.2,0,0.3-0.1c0,0.2,0,0.3,0.2,0.3c0-0.2,0.2-0.1,0-0.2c0.2,0.1,0.4,0,0.3,0.4c0.2-0.2,0.3-0.1,0.3,0.1l-0.2,0
						c0,0.1,0.1,0.2,0.2,0.2l0.2-0.2c0.6,0.1-0.1,1,0.7,0.9c-0.1,0.2-0.3-0.1-0.4,0.1c0.2,0.1,0.7,0,0.7,0.1c0.3,0.1-0.3,0.5,0,0.7
						c-0.1,0-0.4,0.2-0.4,0.4c0.1,0.1,0.6-0.1,0.6-0.2c0,0-0.1,0-0.1,0c0-0.1,0-0.2,0.1-0.2l-0.1,0.1c0.2,0,0.3,0.3,0.4,0.1
						c0,0.2-0.1,0.2-0.2,0.1c0.3,0.1,0.2,0.3,0.5,0.5c-0.1,0-0.2,0-0.2,0.1c0.3,0.3-0.1,0.3,0,0.5c0.2,0,0.3-0.3,0.3,0
						c0.2,0.1,0.3-0.1,0.3-0.2c-0.1,0.3,0.4,0.3,0.5,0.4l0-0.2c0,0.1,0,0.1,0.1,0.2L12,51.2c0.1,0,0.1,0.1,0.2,0
						c-0.1,0.1-0.4,0.1-0.5,0.4c0.2,0,0,0.3,0.3,0.2c-0.2-0.2,0.3-0.1,0.2-0.4c0,0.1,0,0.1,0.1,0.2c0,0,0.1,0,0.1-0.1
						c0.4,0.1-0.2,0.3-0.1,0.6c0.1-0.1,0.3-0.1,0.3,0c-0.1-0.1-0.3,0.1-0.4,0.3c0.2,0.1,0,0.2,0.1,0.3l-0.1-0.1
						c-0.1,0.1-0.1,0.2-0.1,0.3c0.1-0.1,0-0.2,0.1-0.1c-0.2,0.3,0.4,0.2,0.4,0.4c0.2,0,0.3-0.1,0.4-0.1c-0.1,0.3,0.3,0.1,0.3,0.4
						c-0.2,0-0.2,0-0.3,0.3l0-0.4l-0.2,0.4c-0.1-0.1,0-0.3-0.1-0.3c-0.1,0.2-0.1,0.2-0.3,0.2c0.4,0,0,0.4,0.3,0.5l0.5-0.3
						c0.4,0.1,0,0.6,0.3,0.9l-0.1-0.1c-0.2,0.1,0.1,0.2,0,0.4c0.2-0.1,0.3-0.1,0.4-0.1c-0.1,0.1,0.1,0.2-0.2,0.4l0.3,0
						c0.2,0.2-0.4,0.6-0.2,0.8c0.2-0.2,0.3-0.1,0.4-0.3c0,0.1,0.1,0.2,0,0.2c0.1,0-0.1,0.4,0.1,0.4c-0.1,0.1-0.2,0.2-0.2,0.3
						c0,0,0.1,0,0.1,0c-0.1,0-0.1,0.2-0.3,0.2c0.7,0,0.3,0.8,0.9,0.8c0,0.2,0.1,0.5,0.1,0.7c0,0,0.1,0,0.1-0.1
						c0.3,0.2-0.5,0.4-0.1,0.6c0.4,0,0.1-0.2,0.2-0.2c0.6-0.2,0.1,0.4,0.5,0.4l0-0.1c0.1,0,0.1,0.1,0.1,0.3c0,0.1,0,0.1,0,0.2
						c0,0,0,0.1,0,0.1c0,0,0,0,0.1-0.1c-0.3,0.2-0.2,0.6-0.2,0.8c0.2-0.3,0.1-0.2,0.3-0.4c0,0.1-0.3,0.3-0.3,0.6
						c0.1-0.1,0.2-0.1,0.4-0.4l0-0.1c0.2-0.3,0,0.1,0.1,0.1l0.1-0.2c0,0.2-0.2,0.7-0.1,0.9L15.8,61c-0.1,0.8,0.1-0.3,0.1,0.4
						l0.1-0.7c0,0.2,0,1,0.1,1.3c0-0.7,0-1.2,0-1.5c0,0,0.1,0.2,0.1,0.7c0-0.1,0-0.3,0-0.2c0,0.4,0,0.7,0,0.9c0,0.1,0,0.2,0,0.3
						c0,0.1,0,0,0.1,0c0-0.8,0.1-1,0.1-1.2c0-0.1,0.1-0.3,0.1-0.8c0.1,0.2,0.1,0,0.1-0.1c0-0.2,0-0.3,0-0.3c0.3,0.7,0,0,0.4,0.6
						c0.1,0,0.1-0.1,0-0.1c0,0-0.2-0.5-0.2-0.5c-0.1-0.1-0.1-0.1-0.2-0.2c0-0.1-0.2-0.2-0.3-0.3c0.2,0.1,0.3,0.2,0.2,0.1
						c0,0,0.2,0.2,0.2,0.2c0.2,0.1,0.1-0.1,0-0.2c-0.1-0.1-0.2-0.3,0.1-0.3l-0.2,0c0.2-0.1,0.3-0.6,0.8-0.5c0-0.1-0.2-0.2-0.2-0.1
						c0.1-0.4,0.9-0.6,0.8-1.1l-0.1,0c0.1-0.1,0.3,0,0.2-0.2c-0.1,0-0.1,0-0.1-0.1c0.1,0,0.3-0.1,0.3-0.2l-0.2,0
						c0-0.5,0.7-0.4,1-0.6c-0.4-0.2-0.3-0.6-0.3-0.8l-0.1,0c0.2-0.5,0.8-0.5,1.1-0.9c-0.3-0.5,0.3-0.9,0.3-1.5
						c0,0.1,0.3,0.2,0.4,0.1c0-0.1,0.4-0.1,0.1-0.3l0,0c-0.3-0.3-0.1-0.4,0-0.6l0.5,0.3c-0.4-0.8,0.9-0.9,0.4-1.4
						c0.2,0,0.2-0.1,0.4-0.2l-0.2-0.1c0.1-0.3,0.2-0.4,0.4-0.7l-0.2,0c0.1-0.2,0.8,0.2,1,0.1l-0.3-0.3c0.2-0.3,0.1-0.8,0.6-0.9
						c-0.1,0-0.2-0.1-0.2,0c0.1-0.2,0.1-0.7,0.6-0.4c-0.3-0.2,0.2-0.3,0.4-0.4l-0.3-0.1c0.4,0.1,0.5,0.1,0.7,0
						c0-0.1-0.2-0.2-0.1-0.1c0-0.2,0.3,0,0.3-0.2l-0.2,0c0.1-0.2,0.2-0.1,0.4-0.1c0.2,0,0.1-0.3-0.1-0.5c0.1,0.1,0.4,0.1,0.4,0
						c-0.1-0.1-0.1-0.1-0.2-0.1c0-0.4,0.5-0.2,0.4-0.6c-0.1-0.1-0.1-0.1-0.1-0.1c-0.1,0.2-0.2,0.4-0.2,0.4c-0.2-0.1-0.1-0.3-0.5-0.4
						c0.3,0,0.8,0,0.8-0.3c0,0,0,0-0.1-0.1l0,0c0-0.1,0-0.1,0.1-0.1c0-0.1,0-0.1,0-0.2c-0.2-0.1,0-0.3,0.1-0.4
						c0.2,0.2,0.3,0,0.4,0.3c0,0,0,0-0.1,0c0,0,0,0,0,0l0,0c0,0.1-0.1,0.1-0.2,0.2c0.2,0,0.3,0,0.2-0.2c0.2,0.1,0.4,0.1,0.5,0.1
						c-0.2-0.3-0.3-0.7-0.5-0.8c0.3-0.2,0.5-0.6,1-0.4c0.1,0-0.1-0.2-0.1-0.2c-0.1,0-0.1,0.1-0.2,0c0.2-0.1,0.3-0.4,0.7-0.2
						c0-0.3-0.4-0.1-0.1-0.3l-0.1,0c-0.1-0.8,1.3-0.3,1.1-1.3c0,0.1,0,0.1,0.1,0.1c0.2-0.8,1.2-1.1,1.2-2c0-0.2,0.2-0.1,0.5-0.1
						l-0.2-0.2l0.4,0c0.4-0.1-0.3-0.9,0.3-0.9l0.1,0.2c0.1-0.1,0.4-0.3,0.2-0.4c0,0,0.2,0.1,0.1,0l-0.1-0.1l0.4-0.1
						c0.1-0.3-0.5-0.3-0.3-0.7c0.1-0.1,0.6-0.1,0.7,0c0,0.1,0,0.2,0.1,0.3l0.1-0.1c0.4,0.3,0.8,0.5,0.9,0.9l-0.4,0l0.1,0.2l0.1-0.1
						c0.1,0.2-0.1,0.2-0.2,0.1c0.1,0.1,0.1,0.2,0.1,0.2l-0.5-0.1c0.1,0.1,0.4,0.1,0.3,0.3c-0.2,0-0.3-0.3-0.5-0.3
						c0.1,0.2,0.3,0.3,0,0.3c0.1,0.1,0.2,0.1,0.2,0.1c-0.2,0-0.2,0.2-0.5,0.1c0.1,0.2-0.3,0.3,0.1,0.5c-0.1,0-0.4,0-0.5,0
						c0.5,0.2-0.2,0.3,0.3,0.6c-0.5-0.2-0.5,0.3-0.8,0.4c0,0,0.1,0,0.1,0c-0.1,0.1,0,0.3,0.1,0.4c-0.3-0.2-0.5-0.1-0.8-0.1
						c0.2,0.4,0.4,0.2,0.7,0.4c-0.3-0.2-0.4,0.1-0.6-0.1c0.1,0.2,0,0.2,0.3,0.4c-0.4-0.3-0.1,0.1-0.4,0c0.1,0.3,0.3,0.3,0.1,0.4
						C29.9,43.2,30.1,43.1,30.1,43.1z M26.5,46.8L26.5,46.8C26.6,46.8,26.6,46.8,26.5,46.8C26.6,46.8,26.6,46.8,26.5,46.8z
						 M26.3,47.2c0,0,0.1-0.1,0.1-0.2c-0.1-0.1-0.2-0.1-0.2-0.1C26.3,47,26.3,47.1,26.3,47.2z M25.2,45.3c-0.1,0,0,0.1,0,0.1
						C25.2,45.4,25.2,45.4,25.2,45.3l0.1,0.1C25.3,45.4,25.2,45.3,25.2,45.3z"/>
					<path fill="#FFFFFF" d="M25.6,45.4C25.6,45.4,25.6,45.4,25.6,45.4C25.6,45.5,25.6,45.5,25.6,45.4L25.6,45.4L25.6,45.4z"/>
					<path fill="#FFFFFF" d="M7.2,45.9L7.2,45.9C7.2,45.9,7.2,45.9,7.2,45.9C7.2,45.9,7.2,45.9,7.2,45.9z"/>
					<polygon fill="#FFFFFF" points="23.6,52.4 23.5,52.4 23.6,52.4 					"/>
					<path fill="#FFFFFF" d="M4.9,44.9C4.8,44.9,4.8,44.9,4.9,44.9C4.8,44.9,4.8,44.9,4.9,44.9z"/>
					<path fill="#FFFFFF" d="M4.1,44.3l-0.2,0C4,44.3,4,44.3,4.1,44.3z"/>
					<path fill="#FFFFFF" d="M3.4,43.9c0,0,0-0.1,0.1-0.1l0,0L3.4,43.9z"/>
					<path fill="#FFFFFF" d="M10.7,53.5C10.7,53.5,10.7,53.5,10.7,53.5C10.7,53.6,10.7,53.5,10.7,53.5z"/>
					<path fill="#FFFFFF" d="M9.4,50c0,0.1,0,0.1,0,0.2C9.3,50.1,9.3,50.1,9.4,50z"/>
					<polygon fill="#FFFFFF" points="12.2,57.3 12.2,57.3 12.2,57.3 					"/>
					<path fill="#FFFFFF" d="M9.5,50.3c-0.1,0-0.1-0.1-0.1-0.1C9.4,50.2,9.5,50.2,9.5,50.3z"/>
					<path fill="#FFFFFF" d="M0.7,41.9L0.7,41.9C0.6,41.9,0.7,41.9,0.7,41.9L0.7,41.9z"/>
					<path fill="#FFFFFF" d="M0.7,41.9L0.7,41.9C0.7,41.9,0.7,41.9,0.7,41.9z"/>
					<path fill="#FFFFFF" d="M0.6,41.7l0,0.1C0.6,41.8,0.6,41.8,0.6,41.7z"/>
					<path fill="#FFFFFF" d="M1.6,42.4L1.6,42.4C1.5,42.5,1.6,42.5,1.6,42.4z"/>
					<path fill="#FFFFFF" d="M1.8,42.7c-0.1,0-0.3,0.1-0.3-0.1l0-0.1C1.5,42.7,1.9,42.5,1.8,42.7z"/>
					<path fill="#FFFFFF" d="M3.6,42.5l-0.3-0.1c0.1-0.1,0.2-0.1,0.2-0.2C4,42.1,3.3,42.3,3.6,42.5z"/>
					<path fill="#FFFFFF" d="M4.4,42.9c-0.1-0.1,0.1-0.1,0.1-0.2C4.5,42.9,4.5,42.9,4.4,42.9z"/>
					<path fill="#FFFFFF" d="M8.6,47.2L8.8,47C8.9,47.1,8.7,47,8.6,47.2z"/>
					<polygon fill="#FFFFFF" points="8.3,48.9 8.1,48.9 8.3,48.7 					"/>
					<polygon fill="#FFFFFF" points="10.2,48.3 10.2,48.3 10.2,48.5 					"/>
					<path fill="#FFFFFF" d="M14.9,57.3l-0.3,0.1C14.6,57.3,14.9,57.2,14.9,57.3z"/>
					<path fill="#FFFFFF" d="M15.9,60.5C16,60.3,16.1,60.2,15.9,60.5C16,60.5,15.9,60.6,15.9,60.5z"/>
					<polygon fill="#FFFFFF" points="20.8,52.1 20.7,52.1 20.8,52 					"/>
				</g>
			</g>
		</g>
	</g>
</g>
</svg>
