<?xml version="1.0" encoding="utf-8"?>
<!-- Generator: Adobe Illustrator 18.0.0, SVG Export Plug-In . SVG Version: 6.00 Build 0)  -->
<!DOCTYPE svg PUBLIC "-//W3C//DTD SVG 1.1//EN" "http://www.w3.org/Graphics/SVG/1.1/DTD/svg11.dtd">
<svg version="1.1" id="Layer_1" xmlns="http://www.w3.org/2000/svg" xmlns:xlink="http://www.w3.org/1999/xlink" x="0px" y="0px"
	 viewBox="0 0 57 36" enable-background="new 0 0 57 36" xml:space="preserve">
<g>
	<g>
		<path fill="none" d="M49.3,6.5c0,0,2.2,15.3,6.4,28.2c-10.3-3.9-14.9-6.6-26.8-4.5 M54.2,32.7C34.1,7.4,17.3-1.8,0.1,1.5"/>
		<g>
			<g>
				<g>
					<path fill="#FFFFFF" d="M0,0.9c0,0.1,0,0.3,0.1,0.2l0-0.3L0,0.9z"/>
					<path fill="#FFFFFF" d="M0.8,1.4c0.1-0.2,0.2-0.5,0-0.8C0.7,0.9,0.7,0.8,0.6,1.2C0.5,1.2,0.5,1.1,0.4,1c0,0.1-0.2,0-0.2,0.2
						c0.2,0.2,0.3,0.2,0.5,0C0.8,1.2,0.8,1.3,0.8,1.4z"/>
					<path fill="#FFFFFF" d="M10,1.5L10,1.5C10,1.5,10,1.5,10,1.5z"/>
					<path fill="#FFFFFF" d="M15.6,2.7C15.5,2.7,15.5,2.7,15.6,2.7C15.5,2.7,15.6,2.7,15.6,2.7z"/>
					<path fill="#FFFFFF" d="M16.4,3.3C16.4,3.3,16.3,3.3,16.4,3.3C16.3,3.3,16.4,3.3,16.4,3.3z"/>
					<path fill="#FFFFFF" d="M10,1.5l0.1,0.1C10.2,1.5,10.1,1.5,10,1.5z"/>
					<path fill="#FFFFFF" d="M1.9,0.4C1.9,0.4,1.9,0.4,1.9,0.4C1.9,0.5,1.9,0.4,1.9,0.4L1.9,0.4z"/>
					<path fill="#FFFFFF" d="M7.5,1.6L7.5,1.6c-0.1,0-0.1,0.1-0.1,0.1L7.5,1.6z"/>
					<path fill="#FFFFFF" d="M5.6,1.7c0,0,0-0.3,0.1-0.4c0,0.1-0.1,0.2-0.1,0.2C5.6,1.6,5.6,1.6,5.6,1.7z"/>
					<path fill="#FFFFFF" d="M2.5,1.5L2.5,1.5C2.5,1.5,2.5,1.5,2.5,1.5z"/>
					<path fill="#FFFFFF" d="M8.8,1.7c0,0,0,0.1,0,0.1C8.9,1.8,8.9,1.8,8.8,1.7z"/>
					<path fill="#FFFFFF" d="M53.8,30.1C53.8,30.1,53.8,30.1,53.8,30.1C53.8,30.1,53.8,30.1,53.8,30.1z"/>
					<polygon fill="#FFFFFF" points="54.1,32.7 54.1,32.7 54,32.8 					"/>
					<path fill="#FFFFFF" d="M17.9,4.2L17.9,4.2C17.9,4.2,17.9,4.2,17.9,4.2z"/>
					<path fill="#FFFFFF" d="M32.1,11.8c0-0.3,0.4-0.1,0.4-0.5C32.4,11.4,32,11.5,32.1,11.8z"/>
					<path fill="#FFFFFF" d="M2,0.4C2,0.4,2,0.4,2,0.4C2,0.4,2,0.4,2,0.4z"/>
					<path fill="#FFFFFF" d="M32.5,11.3L32.5,11.3L32.5,11.3C32.5,11.3,32.5,11.3,32.5,11.3z"/>
					<path fill="#FFFFFF" d="M21.7,5.5c0,0,0-0.1,0-0.1C21.7,5.4,21.7,5.5,21.7,5.5z"/>
					<path fill="#FFFFFF" d="M19.1,4L19.1,4C19.1,4,19.1,4,19.1,4z"/>
					<path fill="#FFFFFF" d="M23.3,5.9C23.3,5.9,23.3,5.9,23.3,5.9C23.4,5.9,23.4,5.9,23.3,5.9C23.4,5.9,23.3,5.9,23.3,5.9z"/>
					<path fill="#FFFFFF" d="M24.8,6.6C24.8,6.6,24.8,6.6,24.8,6.6L24.8,6.6L24.8,6.6z"/>
					<path fill="#FFFFFF" d="M50.4,26.2c0,0.1-0.1,0.2-0.1,0.2C50.4,26.3,50.6,26.4,50.4,26.2z"/>
					<path fill="#FFFFFF" d="M1.9,0.5c0-0.1,0-0.1,0-0.1c0,0,0,0-0.1,0C1.9,0.5,1.9,0.5,1.9,0.5z"/>
					<path fill="#FFFFFF" d="M24.4,3.9l0.2,0.2C24.5,4,24.5,3.9,24.4,3.9z"/>
					<path fill="#FFFFFF" d="M42.1,17.4L42.1,17.4C42.2,17.4,42.1,17.4,42.1,17.4z"/>
					<path fill="#FFFFFF" d="M25.3,4.4c0,0.1,0,0.2,0,0.2c0,0,0,0,0.1,0L25.3,4.4z"/>
					<path fill="#FFFFFF" d="M50.3,26.5L50.3,26.5L50.3,26.5z"/>
					<path fill="#FFFFFF" d="M51.9,27.4c-0.2-0.2-0.4,0.1-0.5,0.2c-0.3-0.2,0.1-0.3,0.2-0.5c-0.2-0.1-0.6,0-0.6-0.1
						c0,0,0-0.1,0.1-0.1c-0.4,0-0.4-0.4-0.8-0.4c0,0,0-0.1,0-0.1c-0.1,0.1-0.3,0.3-0.4,0.4c-0.1-0.1-0.3,0-0.2-0.2
						c0,0.1,0.1,0,0.2,0l-0.2,0c0.2-0.3,0.2,0,0.4-0.1c-0.2-0.1-0.6-0.1-0.7-0.3c0.2-0.3,0.4,0.2,0.4-0.1l0.1,0.3
						c0.3-0.5,0.1,0.2,0.4-0.4c-0.2-0.3-0.4-0.2-0.6-0.5c-0.2,0.1-0.2,0.2-0.4,0.3c-0.6-0.2,0.4-0.9-0.2-0.9c-0.2,0.1-0.6,0.3-0.6,0
						l0.3-0.2c-0.2-0.3-0.5,0.2-0.6-0.2c0.2-0.1,0.3,0.1,0.3,0.1c0.1-0.4-0.3,0-0.4-0.1l0.2-0.3c-0.3-0.2-0.7-0.4-1.1-0.7
						c0.1-0.1,0.2-0.1,0.2-0.2c-0.5-0.3-0.7-0.8-0.9-1.4l-0.3,0.1c0,0,0-0.2,0.1-0.2c-0.1-0.2-0.1,0.1-0.3,0.1
						c-0.1-0.1,0-0.2,0.1-0.2c-0.4-0.1-1.1-0.4-1.1-0.8l0.1,0c-0.1-0.3-0.7,0.2-0.6-0.2l0.1,0c-0.3-0.5-1-0.9-1-1.5
						c-0.4,0.2-0.3-0.6-0.8-0.2c0-0.5,0.1-0.5-0.1-0.9c-0.1-0.1-0.4,0.1-0.6,0.1l0.2-0.2l-0.4,0.1l0.2-0.3l-0.2-0.1
						c0,0.1,0,0.2-0.1,0.2c-0.3-0.1-0.3-0.6-0.2-0.7l-0.6-0.2c0.1-0.1,0.2,0,0.3,0c-0.4,0,0.2-0.3-0.2-0.3c0,0.1-0.1,0.1-0.2,0.2
						c0-0.2-0.2-0.5-0.4-0.6L41,16c-0.3-0.3-0.7-0.5-1.1-0.9c0.1,0.2-0.2,0.4-0.3,0.4l0.2-0.3c-0.2,0.1,0,0.2-0.3,0.2
						c-0.1-0.1,0.2-0.4,0.3-0.4L39.5,15c0.1-0.1,0.1-0.1,0.2-0.2c-0.2,0.1-0.1-0.5-0.4-0.3l0.1-0.1c-0.4-0.3-0.6-0.4-0.9-0.6
						C38.3,14,38.3,13.9,38,14c-0.2-0.3-0.2-0.6-0.5-0.8c-0.3-0.1-0.2,0.1-0.4,0.2c0.2-0.2-0.1-0.4,0.1-0.4c-0.3-0.2-0.4-0.3-1-0.5
						c0,0.1,0,0.2-0.1,0.2c-0.1,0-0.1-0.2,0-0.3l0,0c-0.7-0.1-0.6-1.4-1.3-1.3l0,0l-0.6-0.1c-0.1-0.2,0.2-0.1,0.2-0.3
						c-0.7,0-0.6-0.6-1.1-0.6c0.2-0.8-1-0.6-1.1-1.3l-0.1,0.2c-0.2,0.1-0.1-0.2-0.1-0.2c-0.1,0.1,0,0.2-0.1,0.2
						c-0.9-0.4-1.5-1.4-2.3-2.1c-0.3-0.2-0.7,0.7-0.8,0.1l0.3-0.2c-0.9-0.1-1.3-0.8-2.1-0.9c0.1,0,0.1-0.1,0.2-0.1
						c0-0.3-0.5-0.3-0.6-0.1c-0.1-0.1,0.1-0.2,0.1-0.3C26.8,5,26.3,5.3,26.4,5c0,0,0.1,0,0.1-0.1C26.3,5,26.1,4.7,26,5
						c-0.2-0.2-0.5-0.1-0.6-0.4c-0.3,0.2-0.4-0.4-0.6,0c0.2-0.4-0.3-0.5-0.5-0.4c0.1-0.1-0.1-0.2,0.1-0.3C24.2,3.8,24,3.8,23.9,4
						c-0.1-0.7-0.8,0-0.7-0.7c-0.7,0-1.2-0.1-1.8-0.2c0.2-0.4,0.6,0.2,0.7-0.3c-0.5,0-1,0.2-1.4-0.1c-0.1-0.1,0.1-0.2,0.2-0.2
						c-0.5,0-0.9-0.4-1.4-0.3c0,0,0.1-0.1,0.1-0.1c-0.1,0-0.2-0.1-0.2,0.1l0.1,0c0,0.3-0.5,0.5-0.6,0.6c0.3-0.5-0.4-0.3,0.1-0.9
						C19,2,18.9,2,18.9,2.2c-0.1-0.1-0.1-0.1,0.1-0.3c-0.3,0-0.3,0.2-0.6,0.2c0-0.1,0.1-0.1,0.2-0.2C18.3,2,18.1,2.1,17.9,2
						c0-0.1,0-0.1,0.1-0.1c-0.4-0.1-0.8,0.3-1.2,0c0.2-0.4-0.1-0.2,0-0.6l-0.3,0l0,0.2c-0.2-0.1-0.5,0.2-0.6,0l0.2-0.1l-0.4,0
						l0.2,0.2c-0.3,0.1-0.1,0.5-0.3,0.3c0.1,0-0.2-0.1-0.3-0.3l0,0c-0.1,0.1-0.3,0.2-0.4,0.1c0-0.1,0.1-0.4,0.1-0.5
						c-0.2,0.3-0.5,0-0.7,0.3c0.1-0.1,0.1-0.3,0.1-0.3l-0.1,0.2c-0.1-0.1-0.1-0.1,0-0.3c-0.3-0.1,0,0.5-0.3,0.2c0,0,0-0.1,0.1-0.1
						c-0.3-0.2-0.7,0-1-0.2c0-0.4,0.3,0,0.2-0.4c-0.5,0-1,0.3-1.5,0.1l0.1,0.1c-0.1,0.5-0.3-0.3-0.6-0.1c0.1,0,0.1-0.3,0.1-0.2
						c-0.3-0.1-0.7,0-1.1,0.1l0.1-0.1c-0.2-0.1-0.5-0.1-0.7-0.2C9.6,0.4,9.5,0.4,9.5,0.6C9-0.2,8.4,1,7.8,0.3C7.9,0.3,8,0.2,8,0.2
						L7.5,0.3c0,0.2,0.1,0.1,0.2,0.3C7.6,0.8,7.4,0.9,7.3,0.8c0.2-0.1,0-0.4-0.1-0.5c0,0.1,0,0.1,0,0.2C7,0.1,7.2,1,6.9,0.7l0-0.1
						C6.8,0.7,6.6,0.8,6.5,0.8C6.5,0.5,6.6,0.7,6.7,0.5C6.5,0.5,6.3,1,6.1,0.7c0.1-0.1,0.2-0.1,0.3-0.2C6.2,0.2,6.2,0.3,6,0.3l0,0
						L5.7,0.2l0.1,0.1C5.6,1,5.3,0.4,5.1,0.9c0.3-0.4,0-0.3,0-0.6C5,0.2,4.9,0.1,4.9,0.1C4.8,0.3,4.7-0.1,4.5,0.2
						c0-0.1-0.2,0-0.1-0.2C4.1,0.1,4.4,0.2,4.4,0.3C4.1,0.6,3.6-0.1,3.2,0.4C2.9,0.6,2.9,1,2.5,1.2C2.4,1.1,2.6,0.8,2.6,0.8
						C2.4,0.7,2.3,0.8,2.1,0.9c0-0.1,0-0.2-0.1-0.3C1.9,0.7,2,1,1.8,0.9c0-0.1,0-0.3,0.1-0.4C1.7,0.6,1.6,0.8,1.4,0.9
						C1.3,0.8,1.5,0.6,1.5,0.5C1.3,0.6,1,0.8,1,1l0.1,0.1c-0.1,0-0.1-0.2,0-0.3C1.3,0.6,1.4,0.9,1.4,1L1.3,1.1
						C1.5,1.6,1.8,0.9,2,0.9l0,0.4l0.2-0.4c0.1,0.1,0.1,0.3,0,0.4c0.2,0.2,0.1-0.2,0.3,0c0,0,0,0.1,0,0.1l0.2-0.1
						c0,0.1,0.1,0.3,0,0.2c0.3,0.2,0.4-0.4,0.6-0.1l0,0c0.4-0.2,0-0.3,0.3-0.7l0.3,0.7l0-0.3c0,0,0.1,0,0.1,0.1c0.1-0.2,0-0.1,0-0.3
						c0.2,0.3,0.6-0.2,0.7,0.3c0.1-0.2-0.2-0.2,0-0.3c0.1,0.5,0.3-0.1,0.5,0.1c0,0.3-0.2,0.1,0,0.4c0.1-0.5,0.4,0.1,0.5,0
						c0-0.4,0.3-0.2,0.6-0.3c0,0.1,0.5,0.2,0.8,0.3l0,0.1c0-0.4,0.3-0.3,0.5-0.4c0,0.2,0,0.3-0.1,0.4l0.2,0c0-0.1,0.1-0.2,0.2-0.2
						L7.6,1.7c0.2,0,0.5-0.3,0.8-0.1c0-0.3-0.2-0.7,0.1-0.9c0,0.1,0,0.4-0.1,0.4c0,0,0.1-0.1,0.2,0L8.4,1.3c0.1,0.1,0.1-0.2,0.2-0.2
						c0,0.2,0.1,0.1,0,0.3c0,0-0.1-0.1-0.1,0c0.1,0,0.3,0.2,0.3,0.3c0-0.1,0-0.3,0.1-0.3c0.2,0,0.1,0.2,0.2,0.3
						c0.1-0.1,0.2,0,0.2-0.3c0.1,0,0.1,0.1,0.1,0.2c0.1-0.1,0.6,0,0.5-0.3l0,0l0,0l0,0l0,0c0.4-0.2,0.8,0.3,1.2,0.2l0,0.1
						c0.2-0.1,0.5,0,0.7-0.2c0.1,0,0.1,0.2,0.1,0.3c0.2,0,0.2-0.2,0.5,0C12.2,2,12.4,2,12.2,2c0.2,0.1,0.2,0.3,0.5,0
						c-0.1,0.2,0.1,0.3,0.2,0.3l-0.1-0.2c0.1,0,0.2,0,0.3,0.1l-0.1,0.3C13.4,3,14,2,14.3,2.8c0.2-0.2-0.2-0.2,0-0.5
						c0.2,0.1,0.3,0.6,0.4,0.6c0.2,0.2,0.4-0.4,0.7-0.2c0-0.1,0-0.4,0.3-0.5c0.2,0.1,0.1,0.5,0,0.6c-0.1,0-0.1,0-0.1-0.1
						c-0.1,0-0.2,0.1-0.1,0.2l0.1-0.1C15.5,3,15.8,3,15.6,3.2c0.2-0.1,0.1-0.2,0-0.3c0.2,0.2,0.4,0.1,0.7,0.3c0-0.1,0-0.2,0-0.2
						c0.4,0.3,0.2-0.2,0.5-0.1C17,3.2,16.7,3.3,17,3.3c0.1,0.2-0.1,0.3-0.2,0.4C17.2,3.5,17.3,4,17.4,4l-0.2,0c0.1,0,0.2,0,0.2,0
						l0-0.2c0.1,0.1,0.1,0.1,0.1,0.2c0.1-0.1,0.1-0.4,0.3-0.5c0.1,0.1,0.4,0,0.3,0.3c-0.3-0.2-0.1,0.3-0.4,0.3c0.1,0,0.1,0,0.2,0.1
						c0,0,0,0.1-0.1,0.1c0.2,0.4,0.3-0.3,0.6-0.2c-0.1,0.2,0,0.3,0,0.3c-0.1,0,0-0.3,0.2-0.4c0.2,0.2,0.3,0,0.4,0L19,3.9
						c0.1-0.1,0.2-0.1,0.4-0.1c0,0.1-0.2,0-0.1,0.1c0.3-0.2,0.2,0.5,0.5,0.3c0.1,0.2-0.1,0.3-0.1,0.4C20,4.6,19.9,5,20.2,4.9
						c0-0.3,0-0.2,0.3-0.3l-0.5,0l0.4-0.2c-0.1-0.1-0.3,0-0.4,0c0.2-0.1,0.2-0.1,0.2-0.3c0,0.4,0.4,0,0.5,0.3l-0.2,0.5
						c0.2,0.4,0.7-0.1,1,0.3l-0.1-0.1c0.1-0.2,0.3,0.1,0.4,0c-0.1,0.2,0,0.3,0,0.4c0.1-0.1,0.3,0.1,0.5-0.2l0.1,0.3
						c0.3,0.3,0.6-0.3,0.9-0.1C23,5.5,23,5.7,22.8,5.8c0.1,0.1,0.2,0.1,0.2,0c0,0.1,0.4-0.1,0.4,0.1c0.1-0.1,0.2-0.2,0.3-0.2
						c0,0,0,0.1,0,0.1c0-0.1,0.2,0,0.2-0.3c0,0.7,0.9,0.4,0.9,1c0.2,0.1,0.5,0.1,0.7,0.2c0,0,0,0.1-0.1,0c0.2,0.3,0.4-0.4,0.6-0.1
						c0,0.4-0.2,0.1-0.2,0.2c-0.3,0.6,0.4,0.1,0.4,0.6l-0.1,0c0,0.3,0.5,0,0.7,0.2c0,0,0,0-0.1,0.1c0.3-0.2,0.7-0.1,1,0
						c-0.2,0.2-0.2,0-0.3,0.3c0.1,0,0.2-0.4,0.4-0.3c0,0.2,0.1,0.4,0,0.6l-0.2-0.1c-0.1,0.4,0.3,0.1,0.3,0.3l-0.1,0.1
						c0.3,0.1,0.6-0.2,0.9,0l0-0.1c0.4-0.2,0,0.3,0.4,0.2l-0.2,0.4c0.2,0,0.6,0,0.9,0.1c-0.3,0.2-0.6,0.1-0.9,0.2
						c0.1,0.1,0.4,0.2,0.6,0.1c-0.1,0-0.2,0-0.2,0c0.3-0.2,0.6-0.2,0.8,0c-0.5,0.6,0.5,0.6,0.3,1.2c0.6,0.1,0.7,0.7,1.2,0.9
						c0.2-0.6,0.1,0.1,0.5-0.4c0.1,0,0.2,0.1,0.2,0.1l0.1,0.5c0,0.2-0.2,0-0.3,0.1c0.2,0.2-0.1,0.3,0,0.5c0.1-0.2,0.3-0.2,0.3,0
						l0-0.4c0.5,0,0,0.6,0.5,0.6l-0.2,0.1c0.2,0,0.6,0.5,1.1,0.2c0,0.1-0.1,0.2-0.2,0.2c0.3,0.4,1.2,0.3,1.3,0.8L35,14.2
						c0.1,0,0.3-0.1,0.3,0.1c0,0-0.1,0.1-0.1,0.1c0.1,0,0.4,0,0.4,0.1l-0.2,0.1c0.2,0.5,0.8,0.2,1.2,0.4c-0.3,0.3-0.1,0.7,0,0.9l0,0
						c0.4,0.4,1,0.4,1.5,0.6c-0.1,0.6,0.7,0.9,0.9,1.4c0-0.1,0.2-0.2,0.3-0.2c0,0.2,0.5,0,0.2,0.3l0,0c-0.2,0.4,0,0.5,0.2,0.6
						l0.4-0.4c-0.2,0.9,1.2,0.8,0.9,1.4c0.2,0,0.3,0.1,0.5,0.1l-0.2,0.2c0.2,0.3,0.3,0.4,0.7,0.7l-0.2,0.1c0.2,0.2,0.8-0.4,1-0.2
						l-0.3,0.3c0.3,0.3,0.3,0.9,0.9,0.9c0,0-0.1,0.1-0.2,0.1c0.1,0.2,0.3,0.8,0.7,0.3c-0.3,0.3,0.3,0.3,0.6,0.4L44,22.6
						c0.4-0.1,0.5-0.2,0.7,0c0,0.1-0.1,0.2-0.1,0.1c0,0.3,0.3-0.1,0.4,0.2L44.8,23c0.1,0.2,0.2,0.1,0.4,0c0.2,0,0.2,0.4,0.1,0.5
						c0.1-0.1,0.4-0.1,0.4,0c-0.1,0.1-0.1,0.1-0.2,0.1c0.1,0.4,0.6,0.2,0.6,0.5c-0.1,0.1-0.1,0.1-0.1,0.1c-0.2-0.2-0.3-0.4-0.3-0.4
						c-0.2,0.2-0.1,0.4-0.5,0.5c0.3,0,0.8,0,0.9,0.2c0,0,0,0,0,0.1l0,0c0,0.1,0.1,0.1,0.1,0.1c0,0.1,0,0.1,0.1,0.2
						c-0.1,0.2,0.1,0.3,0.2,0.4c0.2-0.2,0.3,0,0.3-0.3c0,0,0,0-0.1,0c0,0,0,0-0.1,0l0,0c-0.1-0.1-0.1-0.1-0.2-0.2
						c0.2,0,0.3,0,0.3,0.2c0.2-0.1,0.4-0.1,0.4-0.2c-0.2,0.4-0.1,0.8-0.3,1c0.4,0.2,0.6,0.6,1.2,0.4c0.1,0,0,0.2-0.1,0.3
						c-0.1,0-0.1-0.1-0.2,0c0.2,0.1,0.4,0.4,0.7,0.2c0,0.3-0.4,0.1-0.1,0.3l-0.1,0c0,0.9,1.5,0.2,1.4,1.3c0-0.1,0-0.1,0-0.2
						c0.3,0.9,1.4,1.2,1.6,2.2c0.1,0.3,0.3,0.1,0.5,0.1l-0.2,0.2l0.4,0c0.4,0.1-0.2,1,0.5,1l0.1-0.2c0.1,0.2,0.4,0.3,0.2,0.5
						c0,0,0.2-0.1,0.2,0l-0.1,0.1l0.5,0.1c0.1,0.3-0.5,0.4-0.3,0.7c0.2,0.1,0.7,0.1,0.7,0c0-0.1,0-0.2,0.1-0.3l0.2,0.1
						c0.4-0.3,0.8-0.5,0.8-1l-0.4,0l0.1-0.2l0.2,0.2c0.1-0.2-0.1-0.2-0.3-0.2c0.1-0.1,0.1-0.2,0.1-0.2l-0.5,0.1
						c0.1-0.1,0.4-0.1,0.3-0.3c-0.2,0-0.2,0.3-0.5,0.3c0.1-0.2,0.2-0.3,0-0.3c0.1-0.1,0.2-0.1,0.2-0.1c-0.2,0-0.3-0.2-0.5-0.1
						c0.1-0.3-0.3-0.3,0-0.6c-0.1,0-0.4,0-0.5-0.1c0.6-0.2-0.3-0.4,0.2-0.7C53,29.5,52.9,29,52.5,29c0,0,0.1,0,0.1,0
						c-0.1-0.2,0-0.3,0-0.4c-0.3,0.2-0.5,0.1-0.8,0.1c0.2-0.4,0.4-0.2,0.7-0.5c-0.2,0.2-0.5-0.1-0.6,0.2c0.1-0.3,0-0.2,0.2-0.4
						c-0.4,0.3-0.2-0.1-0.5,0c0-0.3,0.3-0.3,0-0.4C51.6,27.3,51.9,27.4,51.9,27.4z M47.4,23.4L47.4,23.4
						C47.4,23.5,47.4,23.5,47.4,23.4C47.4,23.5,47.4,23.5,47.4,23.4z M47,23.1c0,0.1,0.1,0.1,0.1,0.2c-0.1,0.1-0.1,0.1-0.2,0.1
						C47.1,23.3,47,23.2,47,23.1z M46.3,25.2c-0.1,0-0.1-0.1,0-0.1C46.3,25,46.3,25.1,46.3,25.2l0.1-0.1
						C46.4,25.1,46.3,25.1,46.3,25.2z"/>
					<path fill="#FFFFFF" d="M46.7,25C46.7,25,46.7,25,46.7,25C46.7,25,46.7,25,46.7,25L46.7,25L46.7,25z"/>
					<path fill="#FFFFFF" d="M9.9,1.4L9.9,1.4C9.9,1.4,9.9,1.4,9.9,1.4C9.9,1.4,9.9,1.4,9.9,1.4z"/>
					<polygon fill="#FFFFFF" points="42.6,17.7 42.5,17.8 42.6,17.8 					"/>
					<path fill="#FFFFFF" d="M7.2,0.3C7.2,0.3,7.2,0.3,7.2,0.3C7.2,0.3,7.2,0.3,7.2,0.3z"/>
					<path fill="#FFFFFF" d="M6,0.3L5.9,0.2C5.9,0.2,6,0.3,6,0.3z"/>
					<path fill="#FFFFFF" d="M5.1,0.2c0,0,0,0.1,0,0.1l0,0L5.1,0.2z"/>
					<path fill="#FFFFFF" d="M19.7,2.2C19.7,2.2,19.7,2.2,19.7,2.2C19.8,2.2,19.8,2.2,19.7,2.2z"/>
					<path fill="#FFFFFF" d="M15.3,1.5c0.1,0,0.1-0.1,0.2-0.1C15.4,1.4,15.4,1.4,15.3,1.5z"/>
					<polygon fill="#FFFFFF" points="24.3,3.9 24.3,3.9 24.4,3.9 					"/>
					<path fill="#FFFFFF" d="M15.7,1.5c-0.1-0.1-0.1-0.1-0.2-0.1C15.5,1.5,15.6,1.5,15.7,1.5z"/>
					<path fill="#FFFFFF" d="M1.1,0.5L1.1,0.5C1.1,0.5,1.1,0.5,1.1,0.5L1.1,0.5z"/>
					<path fill="#FFFFFF" d="M1,0.5L1,0.5C1,0.6,1,0.6,1,0.5z"/>
					<path fill="#FFFFFF" d="M0.9,0.6L0.9,0.6C1,0.6,0.9,0.6,0.9,0.6z"/>
					<path fill="#FFFFFF" d="M2.3,0.4l0-0.1C2.3,0.3,2.3,0.4,2.3,0.4z"/>
					<path fill="#FFFFFF" d="M2.7,0.3c-0.1,0-0.2-0.2-0.4-0.1l0,0.1C2.4,0.2,2.6,0.5,2.7,0.3z"/>
					<path fill="#FFFFFF" d="M4.3,1.5L4,1.4c0.1,0.1,0.1,0.2,0,0.3C4.4,2,3.9,1.4,4.3,1.5z"/>
					<path fill="#FFFFFF" d="M5.3,1.6c-0.2,0.1,0,0.2,0,0.2C5.4,1.7,5.4,1.7,5.3,1.6z"/>
					<path fill="#FFFFFF" d="M12,1.9l-0.1,0.3C12.1,2.2,12,2.1,12,1.9z"/>
					<polygon fill="#FFFFFF" points="13.5,0.9 13.4,0.7 13.3,0.9 					"/>
					<polygon fill="#FFFFFF" points="13.9,2.8 13.8,2.8 14.1,2.8 					"/>
					<path fill="#FFFFFF" d="M24.4,6.7l0.1-0.3C24.4,6.4,24.2,6.7,24.4,6.7z"/>
					<path fill="#FFFFFF" d="M28.8,8.9c0,0.2,0,0.3,0.2,0.2C28.9,9.1,28.9,8.9,28.8,8.9z"/>
					<polygon fill="#FFFFFF" points="39.9,18.6 39.7,18.6 39.9,18.7 					"/>
				</g>
			</g>
		</g>
		<g>
			<g>
				<g>
					<path fill="#FFFFFF" d="M28.8,29.6c0,0.1,0,0.3,0.1,0.2l0-0.3L28.8,29.6z"/>
					<path fill="#FFFFFF" d="M29.5,30.1c0.1-0.2,0.1-0.5,0-0.8c0,0.3-0.1,0.2-0.1,0.6c-0.1,0.1-0.2-0.1-0.2-0.2
						c0,0.1-0.1-0.1-0.1,0.2c0.1,0.2,0.3,0.2,0.4,0C29.5,29.9,29.4,30,29.5,30.1z"/>
					<path fill="#FFFFFF" d="M37.4,30L37.4,30C37.4,30,37.4,30,37.4,30z"/>
					<path fill="#FFFFFF" d="M42.3,30.8C42.2,30.8,42.2,30.8,42.3,30.8C42.2,30.8,42.3,30.8,42.3,30.8z"/>
					<path fill="#FFFFFF" d="M43,31.3C43,31.3,43,31.3,43,31.3C43,31.3,43,31.3,43,31.3z"/>
					<path fill="#FFFFFF" d="M37.4,30l0.1,0.1C37.6,30,37.5,30,37.4,30z"/>
					<path fill="#FFFFFF" d="M30.4,29.1C30.4,29.2,30.4,29.2,30.4,29.1C30.4,29.2,30.4,29.2,30.4,29.1L30.4,29.1z"/>
					<path fill="#FFFFFF" d="M35.3,30.3L35.3,30.3c0,0-0.1,0.1-0.1,0.1L35.3,30.3z"/>
					<path fill="#FFFFFF" d="M33.6,30.4c0,0,0-0.3,0-0.4c0,0.1,0,0.2-0.1,0.2C33.6,30.3,33.6,30.3,33.6,30.4z"/>
					<path fill="#FFFFFF" d="M31,30.2L31,30.2C30.9,30.2,31,30.2,31,30.2z"/>
					<path fill="#FFFFFF" d="M36.5,30.3c0,0,0,0.1,0,0.1C36.5,30.4,36.5,30.3,36.5,30.3z"/>
					<path fill="#FFFFFF" d="M48.3,8.7C48.3,8.7,48.3,8.7,48.3,8.7C48.3,8.7,48.3,8.7,48.3,8.7z"/>
					<polygon fill="#FFFFFF" points="49.4,6.5 49.4,6.6 49.6,6.5 					"/>
					<path fill="#FFFFFF" d="M44.3,32.1L44.3,32.1C44.3,32.1,44.3,32.1,44.3,32.1z"/>
					<path fill="#FFFFFF" d="M56.2,32.5c-0.2,0.2-0.5-0.4-0.7-0.1C55.7,32.4,56.2,32.8,56.2,32.5z"/>
					<path fill="#FFFFFF" d="M30.5,29.2C30.5,29.2,30.5,29.2,30.5,29.2C30.5,29.1,30.5,29.2,30.5,29.2z"/>
					<path fill="#FFFFFF" d="M55.6,32.4L55.6,32.4L55.6,32.4C55.6,32.4,55.6,32.4,55.6,32.4z"/>
					<path fill="#FFFFFF" d="M47.7,33c0,0,0-0.1,0-0.1C47.7,32.9,47.7,32.9,47.7,33z"/>
					<path fill="#FFFFFF" d="M45.4,31.8L45.4,31.8C45.4,31.8,45.4,31.8,45.4,31.8z"/>
					<path fill="#FFFFFF" d="M49.1,33.1C49.2,33.1,49.2,33.2,49.1,33.1C49.2,33.1,49.2,33.1,49.1,33.1
						C49.2,33.1,49.2,33.1,49.1,33.1z"/>
					<path fill="#FFFFFF" d="M50.5,33.6C50.5,33.6,50.5,33.6,50.5,33.6L50.5,33.6L50.5,33.6z"/>
					<path fill="#FFFFFF" d="M49.2,13c0.1,0,0.2-0.1,0.2-0.1C49.2,13,49.1,12.8,49.2,13z"/>
					<path fill="#FFFFFF" d="M30.5,29.3c0-0.1,0-0.1,0-0.1c0,0,0,0,0,0C30.4,29.2,30.4,29.3,30.5,29.3z"/>
					<path fill="#FFFFFF" d="M50,31l0.2,0.1C50.1,31.1,50.1,31.1,50,31z"/>
					<path fill="#FFFFFF" d="M51.3,23.2L51.3,23.2C51.3,23.2,51.3,23.2,51.3,23.2z"/>
					<path fill="#FFFFFF" d="M50.8,31.4c0,0.1,0,0.2,0.1,0.2c0,0,0,0,0.1-0.1L50.8,31.4z"/>
					<path fill="#FFFFFF" d="M49.4,12.9L49.4,12.9L49.4,12.9z"/>
					<path fill="#FFFFFF" d="M48.5,11.5c0,0.2,0.4,0,0.6,0c0.1,0.2-0.2,0.2-0.4,0.3c0.1,0.1,0.5,0.2,0.5,0.3c-0.1,0-0.1,0-0.2,0
						c0.3,0.1,0.1,0.5,0.5,0.6c0,0-0.1,0-0.1,0c0.2-0.1,0.4-0.1,0.5-0.1c0,0.1,0.3,0.1,0,0.2c0-0.1-0.1,0-0.2-0.1l0.1,0.1
						c-0.3,0.2-0.1-0.1-0.4-0.1c0.1,0.2,0.5,0.4,0.4,0.5c-0.3,0.1-0.2-0.3-0.4-0.1l0.1-0.3c-0.5,0.3,0-0.1-0.5,0.1
						c0,0.3,0.2,0.3,0.2,0.6c0.2,0,0.3-0.1,0.5,0c0.4,0.4-0.8,0.5-0.3,0.7c0.2,0,0.7,0,0.5,0.3l-0.4,0c0,0.3,0.6,0.1,0.4,0.4
						c-0.2,0-0.2-0.2-0.2-0.2c-0.3,0.3,0.2,0.1,0.3,0.3l-0.3,0.1c0.1,0.3,0.4,0.6,0.6,0.9c-0.1,0-0.2,0-0.3,0.1c0.3,0.4,0.2,1,0,1.4
						l0.3,0.1c0,0-0.1,0.1-0.2,0.1c-0.1,0.2,0.2,0,0.3,0c0,0.1-0.1,0.2-0.2,0.1c0.3,0.2,0.7,0.7,0.5,1.1l-0.1,0
						c-0.1,0.3,0.6,0.1,0.4,0.4l-0.1,0c0,0.5,0.4,1.1,0,1.6c0.4,0-0.1,0.6,0.5,0.5c-0.2,0.4-0.3,0.3-0.4,0.8c0,0.1,0.4,0.1,0.5,0.2
						l-0.3,0.1l0.4,0.1L51.2,23l0.1,0.1c0-0.1,0.1-0.1,0.2-0.2c0.2,0.2-0.1,0.5-0.2,0.6l0.4,0.4c-0.1,0-0.2-0.1-0.3-0.1
						c0.4,0.2-0.3,0.1,0,0.3c0.1,0,0.2,0,0.2,0c-0.2,0.2-0.1,0.4,0,0.6l-0.2,0c0,0.4,0.3,0.7,0.4,1.1c0.1-0.2,0.4-0.2,0.5-0.1
						L52,25.9c0.2,0,0.1-0.2,0.4-0.1c0,0.2-0.3,0.2-0.5,0.1l0.2,0.2c-0.1,0-0.2,0-0.3,0c0.2,0-0.2,0.4,0.1,0.4l-0.1,0
						c0.1,0.4,0.3,0.6,0.4,0.9c0.3-0.1,0.2,0.1,0.5,0.1c0,0.3-0.2,0.6-0.1,0.9c0.2,0.2,0.2,0,0.4,0c-0.2,0.1-0.1,0.4-0.4,0.3
						c0.1,0.3,0.2,0.4,0.5,0.8c0.1-0.1,0.1-0.1,0.2-0.1c0.1,0.1-0.1,0.2-0.2,0.2l0,0c0.5,0.4-0.4,1.3,0.2,1.6l0,0l0.4,0.3
						c0,0.2-0.2-0.1-0.3,0.1c0.6,0.4,0,0.3,0.4,0.5c-0.4,0-0.4,0-0.3,0c0.1,0.1,0.2,0.2-0.1,0l0.2,0.2c0.2,0.2-0.1-0.1-0.2-0.1
						c0.2,0.1,0.2,0.1,0.3,0.3c0.1,0.1,0.1,0.2,0.1,0.2c0,0,0,0.1-0.2-0.1c-0.3-0.2-0.5-0.5-0.5-0.6c0-0.1,0.5,1.2,0.2,0.6
						c0,0,0-0.1,0-0.2c0-0.1-0.1-0.2-0.1-0.2c0,0.2-0.1,0.2-0.1,0.2c-0.1,0,0,0-0.2-0.1c-0.2,0-0.3-0.1-0.5,0
						c0.1-0.1,0.1-0.1,0.2-0.1c0-0.3-0.4-0.2-0.5,0c-0.1-0.1,0-0.2,0-0.3c-0.1-0.2-0.4,0.2-0.4-0.1c0,0,0.1-0.1,0.1-0.1
						c-0.1,0.1-0.4-0.2-0.4,0.1c-0.2-0.2-0.5,0-0.6-0.3c-0.2,0.2-0.3-0.3-0.5,0.1c0.2-0.4-0.3-0.5-0.5-0.3c0.1-0.1-0.1-0.2,0.1-0.3
						c-0.2-0.1-0.3,0-0.4,0.2c-0.1-0.6-0.7,0.2-0.7-0.5c-0.6,0.1-1.1,0-1.5,0c0.2-0.4,0.5,0.1,0.6-0.3c-0.5,0-0.8,0.3-1.2,0.1
						c-0.1-0.1,0.1-0.2,0.2-0.2c-0.5,0-0.8-0.3-1.2-0.2c0,0,0.1-0.1,0.1-0.1c-0.1,0-0.2-0.1-0.2,0.1l0.1,0c0,0.3-0.5,0.5-0.5,0.7
						c0.3-0.5-0.3-0.3,0.1-0.9c-0.1,0-0.1,0.1-0.2,0.2c-0.1-0.1-0.1-0.1,0.1-0.3c-0.3,0-0.3,0.3-0.5,0.2c0-0.1,0.1-0.1,0.1-0.2
						c-0.2,0.1-0.3,0.3-0.5,0.2c0-0.1,0-0.1,0.1-0.1c-0.4-0.1-0.7,0.3-1.1,0.1c0.2-0.4-0.1-0.2,0-0.5l-0.2,0.1l0,0.2
						c-0.2,0-0.4,0.2-0.5,0l0.2-0.1l-0.4,0l0.2,0.2c-0.2,0.2-0.1,0.5-0.3,0.3c0.1,0-0.2,0-0.2-0.3l0,0c-0.1,0.1-0.2,0.2-0.3,0.1
						c0-0.1,0.1-0.4,0.1-0.5c-0.1,0.3-0.4,0-0.6,0.3c0.1-0.1,0.1-0.3,0.1-0.3l-0.1,0.2c-0.1-0.1-0.1-0.1,0-0.3
						c-0.2-0.1,0,0.5-0.3,0.2c0,0,0-0.1,0.1-0.1c-0.3-0.2-0.6,0.1-0.9-0.1c0-0.4,0.3-0.1,0.2-0.4c-0.4,0-0.9,0.4-1.3,0.2l0.1,0
						c-0.1,0.5-0.3-0.3-0.5-0.1c0.1,0,0.1-0.3,0.1-0.2c-0.3-0.1-0.6,0.1-1,0.2l0.1-0.1c-0.2-0.1-0.4-0.1-0.6-0.2
						C37,29,37,28.9,37,29.1c-0.5-0.8-1,0.4-1.5-0.2c0.1,0,0.1-0.1,0.1-0.1l-0.4,0.1c0,0.2,0.1,0.1,0.1,0.3c0,0.1-0.2,0.2-0.3,0.2
						c0.2-0.2,0-0.4-0.1-0.5c0,0.1,0,0.1,0,0.2c-0.2-0.4,0,0.5-0.3,0.2l0-0.1c-0.1,0.1-0.2,0.2-0.3,0.2c-0.1-0.3,0.1-0.1,0.1-0.4
						c-0.2,0-0.3,0.5-0.4,0.3c0.1-0.1,0.2-0.1,0.2-0.2C34.1,29,34.1,29,34,29l0,0l-0.3-0.1l0.1,0.1c-0.1,0.7-0.4,0.2-0.6,0.6
						c0.2-0.4,0-0.3,0-0.6C33.1,29,33,28.9,33,28.8c-0.1,0.3-0.2-0.2-0.4,0.2c0-0.1-0.1,0-0.1-0.2c-0.2,0.1,0.1,0.2,0.1,0.3
						c-0.2,0.4-0.6-0.3-1,0.2c-0.3,0.2-0.3,0.6-0.6,0.8c-0.1-0.1,0-0.4,0-0.4c-0.2-0.1-0.3-0.1-0.4,0.1c0-0.1,0-0.2-0.1-0.3
						c-0.1,0,0,0.4-0.2,0.2c0-0.1,0-0.3,0.1-0.4c-0.1,0.1-0.2,0.3-0.4,0.4c-0.1-0.2,0-0.3,0.1-0.4c-0.2,0.1-0.4,0.2-0.4,0.5l0.1,0.1
						c-0.1,0-0.1-0.2,0-0.3c0.1-0.2,0.2,0.1,0.2,0.2l-0.1,0.1c0.2,0.5,0.4-0.2,0.6-0.2l0,0.4l0.2-0.4c0.1,0.1,0.1,0.3,0,0.4
						c0.2,0.2,0.1-0.2,0.3,0c0,0,0,0.1,0,0.1l0.1-0.1c0,0.1,0.1,0.3,0,0.2c0.3,0.2,0.4-0.4,0.5-0.1l0,0c0.3-0.2,0-0.3,0.2-0.7
						l0.3,0.7l0-0.3c0,0,0.1,0,0.1,0.1c0.1-0.2,0-0.1,0-0.3c0.2,0.3,0.5-0.2,0.6,0.3c0-0.2-0.2-0.2,0-0.3c0.1,0.5,0.2-0.1,0.4,0.1
						c0,0.3-0.2,0.1,0,0.4c0.1-0.5,0.3,0.1,0.5,0c0-0.4,0.3-0.2,0.5-0.3c0,0.1,0.5,0.2,0.7,0.3l0,0.1c0-0.4,0.3-0.3,0.4-0.4
						c0,0.2,0,0.3-0.1,0.4l0.2,0c0-0.1,0.1-0.2,0.2-0.2l0,0.3c0.2,0,0.4-0.3,0.7-0.2c0-0.3-0.2-0.7,0.1-0.9c0,0.1,0,0.4,0,0.4
						c0,0,0.1-0.1,0.1-0.1l-0.1,0.2c0.1,0.1,0.1-0.2,0.2-0.2c0,0.2,0.1,0.1,0.1,0.3c0,0-0.1-0.1-0.1,0c0.1,0,0.2,0.1,0.3,0.3
						c0-0.1,0-0.3,0.1-0.3c0.2,0,0.1,0.2,0.2,0.3c0.1-0.1,0.2,0,0.2-0.3c0.1,0,0.1,0.1,0.1,0.2c0.1-0.1,0.5,0,0.4-0.3l0,0l0,0l0,0
						l0,0c0.4-0.3,0.7,0.2,1.1,0.1l0,0.1c0.2-0.1,0.5,0,0.6-0.2c0.1,0,0.1,0.2,0.1,0.3c0.2-0.1,0.2-0.2,0.4,0
						c-0.2,0.2,0,0.2-0.2,0.1c0.2,0.1,0.2,0.3,0.5,0c-0.1,0.2,0.1,0.3,0.2,0.3l-0.1-0.2c0.1,0,0.2,0,0.3,0.1l-0.1,0.3
						c0.3,0.5,0.8-0.6,1,0.1c0.1-0.2-0.2-0.2-0.1-0.4c0.2,0.1,0.3,0.6,0.3,0.6c0.2,0.2,0.3-0.4,0.6-0.3c0-0.1,0-0.4,0.2-0.5
						c0.2,0.1,0.1,0.5,0,0.6c0,0-0.1,0,0-0.1c-0.1,0-0.2,0.1-0.1,0.2l0-0.1c0.1,0.1,0.3,0.2,0.2,0.4c0.2-0.1,0.1-0.2,0-0.3
						c0.2,0.2,0.4,0.1,0.6,0.3c0-0.1,0-0.2,0-0.2c0.3,0.2,0.2-0.2,0.5-0.2c0.1,0.2-0.2,0.4,0.1,0.3c0.1,0.2,0,0.3-0.1,0.4
						c0.3-0.2,0.4,0.2,0.5,0.3L43.8,32c0.1,0,0.1,0,0.2,0l0-0.2c0.1,0.1,0.1,0.1,0.1,0.2c0.1-0.1,0.1-0.4,0.2-0.6
						c0.1,0.1,0.3,0,0.3,0.3c-0.3-0.2-0.1,0.3-0.3,0.3c0.1,0,0.1,0,0.2,0.1c0,0,0,0.1-0.1,0.1c0.2,0.4,0.2-0.3,0.5-0.2
						c-0.1,0.2,0,0.3,0,0.3c-0.1,0,0-0.3,0.2-0.4c0.1,0.2,0.2,0,0.3,0l-0.1-0.1c0.1-0.2,0.2-0.1,0.3-0.1c0,0.1-0.1,0.1-0.1,0.1
						c0.2-0.3,0.2,0.4,0.5,0.3c0.1,0.1-0.1,0.3,0,0.4c0.3-0.1,0.2,0.3,0.4,0.2c0-0.2,0-0.2,0.2-0.4l-0.4,0l0.4-0.2
						c-0.1,0-0.3,0.1-0.3,0c0.2-0.1,0.1-0.1,0.2-0.3c0,0.4,0.4-0.1,0.5,0.2l-0.2,0.6c0.2,0.3,0.6-0.1,0.9,0.1l-0.1-0.1
						c0.1-0.2,0.2,0,0.4,0c-0.1,0.2,0,0.3,0,0.4c0-0.1,0.2,0.1,0.4-0.3l0.1,0.3c0.2,0.2,0.5-0.4,0.8-0.2c-0.2,0.2-0.1,0.3-0.3,0.4
						c0.1,0,0.2,0.1,0.2,0c0,0.1,0.3-0.2,0.4,0.1c0.1-0.1,0.2-0.3,0.2-0.2c0,0,0,0.1,0,0.1c0-0.1,0.2-0.1,0.2-0.3
						c0.1,0.7,0.8,0.3,0.8,0.8c0.2,0,0.5,0,0.7,0.1c0,0.1,0,0.1-0.1,0.1c0.2,0.3,0.4-0.5,0.6-0.2c0,0.4-0.2,0.1-0.2,0.3
						c-0.2,0.6,0.4,0,0.4,0.5l-0.1,0c0,0.1,0.1,0.1,0.3,0.1c0.1,0,0.1,0,0.2-0.1c0.1,0,0.2,0,0.3,0.1c0,0,0,0,0,0.1
						c0.3-0.2,0.7-0.2,1-0.2c0,0.3-0.1,0.1,0,0.4c0.1,0-0.1-0.5,0.1-0.5c0.1,0.2,0.3,0.4,0.5,0.8l-0.3-0.1c0.3,0.5,0.4,0.1,0.5,0.3
						l0.1,0.2c0.5,0.1,0.2-0.4,0.6-0.2l-0.1-0.2c-0.1-0.5,0.4,0.4,0.3,0.1l0.5,0.6c0.1-0.1,0.1-0.4,0.2-0.4c0.3,0.4,0.1,0.5,0.1,0.7
						c0.2,0.1,0.6,0.2,0.4-0.1c0,0,0,0.2-0.1,0c-0.1-0.2-0.2-0.3-0.1-0.4c0,0,0-0.1,0.1-0.1c0,0,0,0,0-0.1c0,0,0-0.1,0-0.1
						c0.6,0.6,0.6,0.5,0.6,0.3c0-0.2-0.1-0.5,0.2-0.3c-0.3-0.5-0.4-0.8-0.4-1.1c0-0.3,0-0.6-0.2-1.1c-0.6,0.1-0.1-0.2-0.8-0.3
						c-0.1-0.2-0.1-0.2-0.1-0.2c0,0,0.2-0.5,0.2-0.5c0.1-0.1,0.2,0.2,0.3,0.2c-0.1-0.4,0.2-0.2,0.3-0.5c-0.2,0.1-0.4-0.1-0.3-0.4
						c0,0-0.2,0.4-0.2,0.4c-0.3-0.3-0.1-0.4,0-0.5c0.1-0.1,0.2-0.2,0-0.3l0.2,0.1c-0.2-0.1-0.2-0.6-0.7-0.7c0.1-0.1,0.2-0.1,0.3-0.1
						c-0.1-0.4-0.8-0.8-0.6-1.2l0.2,0c-0.1-0.1-0.3-0.1-0.2-0.2c0.1,0,0.2,0,0.2,0c-0.1,0-0.3-0.1-0.3-0.3l0.2,0
						c0.1-0.5-0.6-0.5-0.8-0.8c0.4-0.1,0.5-0.5,0.5-0.7l0.1,0c-0.1-0.5-0.6-0.7-0.8-1.1c0.4-0.4,0-1,0.1-1.5c-0.1,0.1-0.3,0.1-0.4,0
						c0.1-0.1-0.4-0.2,0-0.3l0,0c0.4-0.2,0.2-0.4,0.2-0.5l-0.5,0.1c0.6-0.6-0.6-1.1,0.1-1.5c-0.2-0.1-0.2-0.2-0.3-0.3l0.3-0.1
						c0-0.3,0-0.5-0.1-0.8l0.2,0c0-0.2-0.9-0.1-0.9-0.3l0.4-0.1c-0.1-0.4,0.2-0.8-0.3-1.1c0.1,0,0.2,0,0.2,0c0-0.2,0.1-0.7-0.4-0.5
						c0.4-0.1,0-0.4-0.2-0.5l0.3,0c-0.4-0.1-0.5-0.1-0.6-0.3c0-0.1,0.2-0.1,0.2,0c0.1-0.2-0.3-0.1-0.2-0.3l0.2,0
						c0-0.2-0.1-0.2-0.3-0.2c-0.1-0.1,0-0.4,0.2-0.4c-0.2,0-0.4-0.1-0.3-0.2c0.1,0,0.2,0,0.2,0c0.1-0.3-0.4-0.4-0.2-0.7
						c0.1,0,0.1,0,0.2-0.1c0,0.2,0.1,0.5,0,0.4c0.3-0.1,0.3-0.3,0.6-0.2c-0.2-0.1-0.7-0.3-0.6-0.5c0,0,0,0,0.1,0l0,0
						c0,0,0-0.1-0.1-0.1c0-0.1,0.1-0.1,0-0.2c0.2-0.1,0.1-0.3,0.1-0.4c-0.3,0.1-0.3-0.1-0.5,0.1c0,0,0,0,0.1,0.1c0,0,0,0,0,0l0,0
						c0,0.1,0,0.1,0.1,0.2c-0.2-0.1-0.3-0.1-0.2-0.3c-0.2,0-0.4,0-0.5-0.1c0.4-0.2,0.5-0.5,0.7-0.6c-0.2-0.3-0.2-0.7-0.8-0.8
						C51,14,51.2,14,51.3,13.9c0.1,0,0.1,0.1,0.1,0.1c-0.2-0.1-0.1-0.5-0.5-0.5c0.1-0.2,0.4,0.1,0.2-0.2l0.1,0
						c0.5-0.7-1.1-0.8-0.5-1.6c0,0.1-0.1,0.1-0.1,0.1c0.2-0.8-0.6-1.5-0.2-2.3c0.1-0.2-0.2-0.2-0.4-0.3l0.3-0.1L50.1,9
						c-0.3-0.3,0.6-0.7,0.1-1L50,8.1c0-0.1-0.2-0.4,0-0.4c0,0-0.2,0-0.1-0.1l0.2,0l-0.3-0.3c0.1-0.3,0.6-0.1,0.6-0.4
						c-0.1-0.1-0.5-0.3-0.6-0.3c0,0.1-0.1,0.2-0.2,0.2l-0.1-0.1c-0.5,0-1,0-1.2,0.4l0.3,0.2l-0.2,0.1l0-0.2c-0.2,0.1,0,0.2,0.1,0.2
						c-0.1,0-0.2,0.1-0.2,0.1l0.5,0.2c-0.2,0.1-0.4,0-0.4,0.1c0.2,0.1,0.4-0.2,0.5,0c-0.2,0.1-0.4,0.1-0.2,0.2c-0.1,0-0.2,0-0.3,0
						c0.2,0.1,0.1,0.3,0.4,0.3c-0.2,0.2,0.1,0.4-0.3,0.4c0.1,0,0.4,0.1,0.4,0.3c-0.6-0.1,0,0.4-0.5,0.4c0.5,0.1,0.3,0.5,0.6,0.7
						c0,0-0.1,0-0.1,0c0,0.1-0.1,0.2-0.2,0.3c0.4,0,0.5,0.2,0.8,0.2c-0.3,0.2-0.5,0-0.8,0.1c0.3-0.1,0.4,0.3,0.6,0.1
						c-0.2,0.2-0.1,0.1-0.4,0.3c0.5-0.1,0.1,0.1,0.4,0.2c-0.2,0.2-0.4,0.1-0.3,0.3C48.7,11.7,48.5,11.5,48.5,11.5z M50.3,16.4
						L50.3,16.4C50.3,16.4,50.2,16.3,50.3,16.4C50.2,16.3,50.3,16.4,50.3,16.4z M50.4,16.8c0-0.1,0-0.1,0-0.2c0.1,0,0.2,0,0.2,0
						C50.5,16.6,50.4,16.7,50.4,16.8z M52.1,15.6c0.1,0.1,0,0.1-0.1,0.1c0,0,0-0.1-0.1-0.1l0,0C52,15.6,52.1,15.5,52.1,15.6z"/>
					<path fill="#FFFFFF" d="M51.7,15.5C51.7,15.5,51.7,15.5,51.7,15.5C51.7,15.5,51.6,15.5,51.7,15.5L51.7,15.5L51.7,15.5z"/>
					<path fill="#FFFFFF" d="M37.4,30L37.4,30C37.4,30,37.4,29.9,37.4,30C37.4,29.9,37.4,29.9,37.4,30z"/>
					<polygon fill="#FFFFFF" points="51.1,22.8 51.2,22.7 51.1,22.7 					"/>
					<path fill="#FFFFFF" d="M35,29C35,29,35,28.9,35,29C35,28.9,35,29,35,29z"/>
					<path fill="#FFFFFF" d="M34,29l-0.2-0.1C33.9,29,33.9,29,34,29z"/>
					<path fill="#FFFFFF" d="M33.2,28.9c0,0,0,0.1,0,0.1l0,0L33.2,28.9z"/>
					<path fill="#FFFFFF" d="M45.9,30C45.9,30,45.9,30,45.9,30C46,29.9,45.9,29.9,45.9,30z"/>
					<path fill="#FFFFFF" d="M42,29.6c0,0,0.1-0.1,0.1-0.1C42.1,29.5,42.1,29.5,42,29.6z"/>
					<polygon fill="#FFFFFF" points="50,31 50,31 50,31 					"/>
					<path fill="#FFFFFF" d="M42.4,29.6c-0.1-0.1-0.1-0.1-0.2,0C42.2,29.6,42.3,29.6,42.4,29.6z"/>
					<path fill="#FFFFFF" d="M29.7,29.2L29.7,29.2C29.7,29.2,29.7,29.2,29.7,29.2L29.7,29.2z"/>
					<path fill="#FFFFFF" d="M29.7,29.3L29.7,29.3C29.7,29.3,29.7,29.3,29.7,29.3z"/>
					<path fill="#FFFFFF" d="M29.6,29.4L29.6,29.4C29.6,29.3,29.6,29.3,29.6,29.4z"/>
					<path fill="#FFFFFF" d="M30.8,29.2l0-0.1C30.8,29.1,30.8,29.1,30.8,29.2z"/>
					<path fill="#FFFFFF" d="M31.1,29.1c-0.1,0-0.2-0.2-0.3-0.1l0,0.1C30.8,28.9,31.1,29.3,31.1,29.1z"/>
					<path fill="#FFFFFF" d="M32.6,30.2l-0.3-0.1c0.1,0.1,0.1,0.2,0,0.3C32.7,30.7,32.2,30.2,32.6,30.2z"/>
					<path fill="#FFFFFF" d="M33.4,30.3c-0.1,0.1,0,0.2,0,0.2C33.5,30.4,33.5,30.4,33.4,30.3z"/>
					<path fill="#FFFFFF" d="M39.2,30.3l0,0.3C39.3,30.5,39.2,30.5,39.2,30.3z"/>
					<polygon fill="#FFFFFF" points="40.5,29.1 40.4,28.9 40.3,29.2 					"/>
					<polygon fill="#FFFFFF" points="40.8,31 40.8,31 41,31 					"/>
					<path fill="#FFFFFF" d="M50.2,33.7l0.1-0.3C50.2,33.5,50,33.8,50.2,33.7z"/>
					<path fill="#FFFFFF" d="M55.2,35.3c0.2,0.2,0.5,0.5,0.4,0.3C55.4,35.5,55.2,35.3,55.2,35.3z"/>
					<polygon fill="#FFFFFF" points="53.8,23.3 53.9,23.3 53.8,23.2 					"/>
				</g>
			</g>
		</g>
	</g>
</g>
</svg>
