<?xml version="1.0" encoding="utf-8"?>
<!-- Generator: Adobe Illustrator 18.0.0, SVG Export Plug-In . SVG Version: 6.00 Build 0)  -->
<!DOCTYPE svg PUBLIC "-//W3C//DTD SVG 1.1//EN" "http://www.w3.org/Graphics/SVG/1.1/DTD/svg11.dtd">
<svg version="1.1" id="Layer_1" xmlns="http://www.w3.org/2000/svg" xmlns:xlink="http://www.w3.org/1999/xlink" x="0px" y="0px"
	 viewBox="0 0 57.5 36.8" enable-background="new 0 0 57.5 36.8" xml:space="preserve">
<g>
	<g>
		<path fill="none" d="M28.8,6.5C40.7,8.6,45.3,5.9,55.6,2c-4.3,12.9-6.4,28.2-6.4,28.2 M0,35.3c17.1,3.3,33.9-5.8,54.1-31.1"/>
		<g>
			<g>
				<g>
					<path fill="#FFFFFF" d="M0.1,34.6c-0.1,0.1-0.1,0.3,0,0.2l0.1-0.3L0.1,34.6z"/>
					<path fill="#FFFFFF" d="M0.6,35.3c0.1-0.1,0.3-0.4,0.3-0.7c-0.2,0.3-0.2,0.2-0.3,0.5c-0.1,0-0.1-0.1-0.1-0.2
						c0,0.1-0.1-0.1-0.2,0.1c0.1,0.3,0.2,0.3,0.4,0.1C0.7,35.2,0.7,35.3,0.6,35.3z"/>
					<path fill="#FFFFFF" d="M10,36.2L10,36.2C9.9,36.2,9.9,36.2,10,36.2z"/>
					<path fill="#FFFFFF" d="M15.8,35.3C15.7,35.4,15.7,35.4,15.8,35.3C15.7,35.4,15.8,35.4,15.8,35.3z"/>
					<path fill="#FFFFFF" d="M16.8,35.4C16.8,35.4,16.8,35.4,16.8,35.4C16.8,35.4,16.8,35.5,16.8,35.4z"/>
					<path fill="#FFFFFF" d="M10,36.2l0.2,0.1C10.1,36.2,10,36.2,10,36.2z"/>
					<path fill="#FFFFFF" d="M2,34.7C2,34.7,2,34.8,2,34.7C2,34.8,2,34.8,2,34.7L2,34.7z"/>
					<path fill="#FFFFFF" d="M7.4,36.6L7.4,36.6c-0.1,0-0.1,0.1-0.1,0.1L7.4,36.6z"/>
					<path fill="#FFFFFF" d="M5.4,36.7c0,0,0.1-0.3,0.1-0.4c0,0.1-0.1,0.2-0.1,0.2C5.4,36.5,5.4,36.6,5.4,36.7z"/>
					<path fill="#FFFFFF" d="M2.3,35.9L2.3,35.9C2.3,35.9,2.3,35.9,2.3,35.9z"/>
					<path fill="#FFFFFF" d="M8.8,36.6C8.8,36.7,8.8,36.7,8.8,36.6C8.8,36.7,8.8,36.7,8.8,36.6z"/>
					<path fill="#FFFFFF" d="M51.6,5C51.6,5.1,51.6,5.1,51.6,5C51.6,5,51.6,5,51.6,5z"/>
					<polygon fill="#FFFFFF" points="54.1,4.2 54.1,4.2 54.2,4.3 					"/>
					<path fill="#FFFFFF" d="M18.7,35.2L18.7,35.2C18.6,35.2,18.7,35.2,18.7,35.2z"/>
					<path fill="#FFFFFF" d="M33.4,26.9c-0.3-0.1,0-0.4-0.3-0.5C33.1,26.4,33.1,26.9,33.4,26.9z"/>
					<path fill="#FFFFFF" d="M2.1,34.8C2.1,34.8,2.1,34.8,2.1,34.8C2.1,34.8,2.1,34.7,2.1,34.8z"/>
					<path fill="#FFFFFF" d="M33,26.4L33,26.4L33,26.4C33,26.4,33,26.4,33,26.4z"/>
					<path fill="#FFFFFF" d="M22.6,33.5C22.6,33.4,22.5,33.4,22.6,33.5C22.5,33.4,22.6,33.4,22.6,33.5z"/>
					<path fill="#FFFFFF" d="M19.5,34.3L19.5,34.3C19.6,34.3,19.6,34.3,19.5,34.3z"/>
					<path fill="#FFFFFF" d="M23.9,32.4c0,0,0.1,0,0.1,0C24,32.3,24,32.3,23.9,32.4C24,32.4,24,32.4,23.9,32.4z"/>
					<polygon fill="#FFFFFF" points="25.4,31.6 25.4,31.6 25.3,31.6 					"/>
					<path fill="#FFFFFF" d="M48.5,9c0.1,0,0.2,0.1,0.2,0.1C48.6,9,48.7,8.8,48.5,9z"/>
					<path fill="#FFFFFF" d="M2,34.9c0-0.1,0-0.1,0.1-0.1c0,0,0,0-0.1,0C2,34.8,2,34.8,2,34.9z"/>
					<path fill="#FFFFFF" d="M23,30.4l0.2-0.1C23.1,30.3,23.1,30.3,23,30.4z"/>
					<path fill="#FFFFFF" d="M40.4,17.7L40.4,17.7C40.4,17.7,40.4,17.7,40.4,17.7z"/>
					<path fill="#FFFFFF" d="M23.9,29.9C24,30,24,30,24.1,30c0,0,0,0,0-0.1L23.9,29.9z"/>
					<path fill="#FFFFFF" d="M48.7,9.1L48.7,9.1L48.7,9.1z"/>
					<path fill="#FFFFFF" d="M49.4,7.4c-0.2,0.2,0.2,0.3,0.3,0.5c-0.1,0.3-0.3-0.1-0.5-0.1c0,0.2,0.1,0.5,0,0.6
						c-0.1,0-0.1,0-0.1-0.1c0.1,0.3-0.4,0.5-0.2,0.9c0,0-0.1,0-0.1,0c0.2,0.1,0.3,0.2,0.4,0.3c-0.1,0.1,0,0.3-0.2,0.2
						c0.1,0,0-0.1-0.1-0.2l0,0.2c-0.3-0.1,0-0.2-0.2-0.4c-0.1,0.2,0,0.6-0.2,0.7c-0.3-0.2,0.2-0.4-0.2-0.4l0.3-0.1
						c-0.5-0.2,0.1-0.1-0.4-0.3c-0.3,0.2-0.1,0.4-0.4,0.6C47.8,9.9,48,9.8,48,10c-0.1,0.6-0.9-0.3-0.8,0.3c0.1,0.2,0.4,0.5,0.1,0.6
						l-0.2-0.3c-0.3,0.2,0.3,0.5-0.2,0.6c-0.1-0.1,0.1-0.3,0-0.3c-0.4,0,0.1,0.3-0.1,0.4l-0.3-0.2c-0.2,0.3-0.3,0.8-0.5,1.1
						c-0.1-0.1-0.1-0.2-0.2-0.2c-0.2,0.5-0.8,0.8-1.3,1l0.1,0.3c0,0-0.2,0-0.2-0.1c-0.2,0.1,0.1,0.1,0.1,0.3c-0.1,0.1-0.2,0-0.2-0.1
						c-0.1,0.4-0.3,1.1-0.8,1.1l0-0.1c-0.3,0.1,0.2,0.6-0.2,0.6l0-0.1c-0.5,0.4-0.8,1-1.4,1.1c0.2,0.4-0.6,0.3-0.2,0.7
						c-0.5,0-0.5-0.1-0.9,0.1c-0.1,0.1,0.1,0.4,0,0.6l-0.2-0.2l0.1,0.4l-0.3-0.2l-0.1,0.2c0.1,0,0.2,0,0.2,0.1
						C40.6,18,40.1,18,40,17.9l-0.2,0.6c-0.1-0.1,0-0.2,0-0.3c0,0.4-0.3-0.2-0.3,0.2c0.1,0,0.1,0.1,0.2,0.2c-0.2,0-0.4,0.2-0.6,0.4
						l-0.1-0.2c-0.3,0.3-0.6,0.7-0.9,1c0.2,0,0.4,0.3,0.3,0.4l-0.3-0.2c0.1,0.2,0.2,0,0.2,0.3C38.1,20.3,38,20,38,19.9l-0.1,0.2
						c-0.1-0.1-0.1-0.1-0.1-0.2c0.1,0.2-0.5,0-0.3,0.3l-0.1-0.1c-0.3,0.3-0.4,0.5-0.7,0.8c0.2,0.2,0,0.3,0.1,0.5
						c-0.3,0.1-0.6,0.2-0.9,0.4c-0.1,0.3,0.1,0.2,0.1,0.4c-0.2-0.2-0.4,0.1-0.4-0.2c-0.3,0.3-0.4,0.4-0.6,0.9c0.1,0,0.2,0,0.2,0.1
						c0,0.1-0.2,0-0.3-0.1l0,0c-0.2,0.7-1.5,0.2-1.5,0.9l0,0l-0.2,0.5c-0.2,0.1,0-0.2-0.2-0.3c-0.1,0.7-0.7,0.5-0.8,0.9
						c-0.7-0.4-0.9,0.7-1.5,0.6l0.1,0.1c0,0.2-0.2,0-0.3,0c0.1,0.1,0.2,0.1,0.2,0.2c-0.7,0.7-1.7,1-2.7,1.3
						c-0.3,0.1,0.3,0.9-0.3,0.8l-0.1-0.3c-0.4,0.7-1.3,0.8-1.7,1.4c0-0.1-0.1-0.2,0-0.2c-0.2-0.1-0.5,0.3-0.4,0.4
						c-0.1,0-0.1-0.1-0.2-0.2c-0.2,0-0.2,0.4-0.4,0.3c0,0,0-0.1,0-0.1c0,0.1-0.4,0.2-0.2,0.4c-0.3,0-0.4,0.3-0.7,0.3
						c0,0.3-0.5,0.1-0.3,0.5c-0.2-0.4-0.6-0.1-0.6,0.2c0-0.1-0.2-0.1-0.2-0.3c-0.2,0.1-0.3,0.2-0.2,0.4c-0.5-0.3-0.4,0.7-0.9,0.2
						c-0.4,0.4-0.8,0.8-1.3,1.1c-0.2-0.4,0.5-0.3,0.3-0.7c-0.4,0.4-0.5,0.8-1,0.9c-0.1,0,0-0.2,0-0.3c-0.4,0.4-0.9,0.3-1.2,0.7
						c0,0,0-0.1,0-0.1c-0.1,0-0.2,0-0.1,0.2l0.1-0.1c0.2,0.2-0.1,0.7-0.1,0.8c-0.1-0.6-0.5,0-0.5-0.8c0,0.1-0.1,0.2,0,0.3
						c-0.1,0-0.1-0.1-0.1-0.3c-0.2,0.2-0.1,0.4-0.3,0.5c0-0.1,0-0.1,0-0.3c-0.1,0.2-0.1,0.5-0.4,0.4c0-0.1-0.1-0.1,0-0.1
						c-0.4,0.2-0.5,0.7-1,0.7c0-0.5-0.2-0.1-0.3-0.4l-0.2,0.2l0.1,0.1c-0.2,0.1-0.3,0.4-0.5,0.3l0.1-0.2l-0.4,0.2l0.3,0.1
						c-0.2,0.2,0.1,0.5-0.2,0.4c0,0-0.2,0-0.4-0.1l0,0c-0.1,0.1-0.1,0.3-0.3,0.2c-0.1-0.1-0.1-0.4-0.1-0.5c0,0.3-0.5,0.2-0.5,0.5
						c0-0.1,0-0.3,0-0.3l0,0.3c-0.1-0.1-0.1-0.1-0.2-0.2c-0.3,0,0.2,0.4-0.2,0.3c0,0,0-0.1,0-0.1c-0.4,0-0.6,0.3-1,0.3
						c-0.2-0.3,0.3-0.2,0.1-0.4C12.4,34.6,12,35,11.5,35l0.1,0c0,0.5-0.4-0.2-0.6,0.1c0,0,0-0.3,0-0.2c-0.3,0-0.6,0.2-1,0.4l0-0.1
						c-0.2-0.1-0.5,0-0.7-0.1c0,0.1-0.2,0.1-0.1,0.3c-0.6-0.8-1.1,0.5-1.7-0.2c0.1,0,0.1-0.1,0.1-0.1l-0.4,0.1
						c0,0.2,0.1,0.1,0.2,0.3c-0.1,0.1-0.2,0.3-0.3,0.3c0.2-0.2,0-0.4-0.1-0.5c0,0.1,0,0.1,0,0.2c-0.2-0.4,0,0.5-0.4,0.2l0-0.1
						c-0.1,0.1-0.2,0.2-0.4,0.2c-0.1-0.3,0.1-0.1,0.1-0.3c-0.2,0-0.4,0.5-0.5,0.2c0.1-0.1,0.2-0.1,0.3-0.1c-0.2-0.3-0.2-0.2-0.3-0.3
						l0,0l-0.3-0.2l0.1,0.1c-0.2,0.7-0.5,0.1-0.8,0.5C5.3,35.4,5,35.5,5,35.2C5,35.1,4.8,35,4.9,34.9c-0.2,0.2-0.2-0.2-0.5,0.1
						c0-0.1-0.2,0-0.1-0.3c-0.2,0.1,0,0.2,0,0.3c-0.3,0.3-0.6-0.4-1.1,0c-0.4,0.1-0.5,0.5-0.8,0.6c-0.1-0.2,0.1-0.3,0.1-0.3
						c-0.2-0.2-0.3-0.2-0.5-0.1c0-0.1,0-0.2,0-0.3c-0.1,0-0.1,0.3-0.3,0.2c0-0.1,0.1-0.3,0.2-0.4c-0.2,0.1-0.4,0.2-0.5,0.3
						c0-0.2,0.1-0.2,0.2-0.3c-0.2,0-0.5,0.1-0.6,0.3l0.1,0.1c-0.1,0,0-0.2,0.1-0.3c0.2-0.2,0.2,0.1,0.2,0.2l-0.1,0
						c0,0.6,0.5,0,0.7,0l-0.2,0.4l0.3-0.3c0,0.1,0,0.4-0.1,0.4c0.1,0.2,0.2-0.1,0.3,0.1c0,0,0,0.1,0,0.1l0.2-0.1
						c0,0.1,0,0.3-0.1,0.2c0.3,0.3,0.5-0.2,0.6,0.1l0,0c0.4-0.1,0.1-0.3,0.4-0.6l0.1,0.8L3.6,36c0,0,0.1,0,0.1,0.2
						c0.2-0.2,0-0.1,0.1-0.3c0.2,0.3,0.6-0.1,0.6,0.4c0.1-0.2-0.2-0.2,0-0.3c0,0.5,0.3-0.1,0.4,0.2c-0.1,0.3-0.3,0.1-0.1,0.4
						c0.1-0.4,0.4,0.1,0.5,0c0-0.4,0.4-0.1,0.6-0.2c0,0.1,0.5,0.2,0.8,0.3l0,0.1c0-0.4,0.3-0.3,0.5-0.4c0,0.2,0,0.3-0.1,0.4l0.2,0
						c0-0.1,0.1-0.2,0.2-0.2l0,0.3c0.2,0,0.5-0.3,0.8-0.2c0-0.3-0.3-0.7,0-0.9c0,0.1,0,0.4,0,0.4c0,0,0.1-0.1,0.2-0.1l-0.1,0.2
						C8.5,36.3,8.4,36,8.5,36c0,0.2,0.1,0.1,0.1,0.3c0,0-0.1-0.1-0.1,0c0.1,0,0.3,0.1,0.4,0.3c0-0.1,0-0.3,0.1-0.3
						c0.2,0,0.1,0.2,0.2,0.3c0-0.1,0.2,0,0.2-0.3c0.1,0,0.1,0.1,0.1,0.2c0.1-0.1,0.6-0.1,0.4-0.4l0,0l0,0l0,0l0,0
						c0.4-0.3,0.9,0.1,1.3-0.1l0,0.1c0.2-0.1,0.5-0.1,0.7-0.4c0.1,0,0.2,0.2,0.2,0.3c0.2-0.1,0.2-0.2,0.5-0.1
						c-0.2,0.2,0.1,0.1-0.2,0.2c0.3,0.1,0.3,0.2,0.5-0.1c0,0.3,0.2,0.3,0.3,0.2L13,36c0.1-0.1,0.2-0.1,0.4-0.1l0,0.3
						c0.6,0.3,0.7-0.9,1.3-0.3c0.1-0.3-0.3-0.1-0.2-0.4c0.2,0,0.6,0.4,0.6,0.4c0.4,0.1,0.2-0.5,0.5-0.5c-0.1-0.1-0.2-0.4,0-0.6
						c0.2,0,0.4,0.4,0.3,0.5c-0.1,0-0.1,0-0.1,0c-0.1,0.1-0.1,0.1,0,0.2l0-0.1c0.1,0.1,0.4,0,0.4,0.2c0.1-0.1,0-0.2-0.1-0.2
						c0.3,0.1,0.4-0.1,0.8-0.1c-0.1,0-0.1-0.2-0.1-0.2c0.5,0,0.1-0.3,0.4-0.4c0.2,0.1,0.1,0.4,0.3,0.2c0.2,0.1,0.1,0.3,0.1,0.4
						c0.2-0.3,0.5,0,0.7,0L18,35.5c0.1-0.1,0.1-0.1,0.2-0.1l-0.2-0.2c0.1,0,0.2,0,0.2,0.1c0-0.2-0.2-0.4-0.1-0.6
						c0.1,0.1,0.3-0.2,0.4,0.1c-0.4,0,0.1,0.3-0.1,0.4c0-0.1,0.1-0.1,0.2-0.1c0,0,0,0.1,0,0.1c0.4,0.2,0-0.4,0.4-0.5
						c0,0.2,0.2,0.3,0.2,0.2c-0.1,0-0.2-0.3-0.1-0.4c0.3,0.1,0.2-0.2,0.3-0.2l-0.2,0c0-0.2,0.1-0.2,0.2-0.3c0.1,0.1-0.1,0.1,0,0.2
						c0-0.4,0.5,0.1,0.6-0.1c0.1,0.1,0.1,0.3,0.3,0.3c0.2-0.3,0.4,0.1,0.6-0.2c-0.2-0.2-0.2-0.1-0.1-0.4l-0.4,0.3l0.1-0.4
						c-0.1,0.1-0.2,0.3-0.3,0.3c0.1-0.2,0.1-0.2-0.1-0.3c0.3,0.3,0.3-0.3,0.6-0.2l0.2,0.5c0.4,0.1,0.4-0.5,0.9-0.6l-0.2,0
						c0-0.2,0.2-0.1,0.3-0.3c0.1,0.2,0.2,0.2,0.3,0.3c-0.1-0.1,0.3-0.1,0.2-0.5L23,33c0.4-0.1,0.1-0.7,0.4-0.8
						c0,0.2,0.2,0.3,0.1,0.5c0.1-0.1,0.2-0.1,0.2-0.2c0.1,0.1,0.2-0.4,0.3-0.3c0-0.1-0.1-0.3,0-0.3c0,0,0,0.1,0,0.1
						c0-0.1,0.1-0.2-0.1-0.4c0.6,0.4,0.8-0.5,1.4-0.2c0.2-0.2,0.4-0.4,0.6-0.5c0,0.1,0,0.1,0,0.1c0.4,0-0.1-0.6,0.3-0.6
						c0.3,0.2-0.1,0.2,0.1,0.3c0.4,0.5,0.3-0.3,0.7-0.1l0,0.1c0.3,0.1,0.3-0.4,0.5-0.6c0,0,0,0.1,0,0.1c0-0.4,0.3-0.7,0.5-0.9
						c0.1,0.3,0,0.2,0.1,0.4c0.1-0.1-0.3-0.3-0.1-0.5c0.1,0.1,0.4,0.1,0.5,0.3l-0.2,0.1c0.3,0.2,0.3-0.2,0.4-0.2l0.1,0.1
						c0.3-0.2,0.1-0.6,0.4-0.8l-0.1-0.1c0-0.4,0.3,0.1,0.3-0.3l0.3,0.3c0.1-0.2,0.2-0.6,0.4-0.8c0,0.3-0.1,0.6-0.2,0.9
						c0.1-0.1,0.4-0.3,0.3-0.5c0,0.1,0,0.2-0.1,0.2c0-0.4,0.1-0.6,0.3-0.8c0.4,0.7,0.7-0.3,1.2,0.1c0.2-0.5,0.9-0.5,1.3-0.9
						c-0.5-0.4,0.1-0.1-0.3-0.6c0.1-0.1,0.1-0.1,0.2-0.1l0.5,0c0.2,0.1,0,0.2,0.1,0.3c0.3-0.1,0.3,0.1,0.5,0.1
						c-0.2-0.1-0.1-0.3,0.1-0.4l-0.4-0.1c0.1-0.5,0.6,0.2,0.7-0.3l0,0.2c0.1-0.2,0.6-0.5,0.5-1c0.1,0,0.2,0.1,0.2,0.2
						c0.5-0.3,0.6-1.1,1.1-1.1l0.1,0.1c0-0.1,0-0.3,0.1-0.3c0,0.1,0.1,0.1,0.1,0.1c0-0.1,0-0.4,0.2-0.4l0,0.2
						c0.5-0.2,0.3-0.8,0.6-1.2c0.3,0.3,0.7,0.2,0.9,0.1l0,0.1c0.5-0.3,0.5-0.9,0.8-1.4c0.6,0.1,1-0.6,1.6-0.8
						c-0.1,0-0.2-0.3-0.2-0.4c0.2,0,0-0.5,0.3-0.2l0,0c0.3,0.2,0.5,0,0.6-0.2L41,19.9c0.9,0.2,0.8-1.2,1.5-0.9
						c0-0.2,0.1-0.3,0.1-0.5l0.2,0.2c0.3-0.2,0.5-0.3,0.7-0.7l0.1,0.2c0.2-0.2-0.4-0.8-0.2-1l0.4,0.2c0.3-0.3,0.9-0.4,0.9-1
						c0,0,0.1,0.1,0.1,0.2c0.1-0.1,0.7-0.4,0.3-0.7c0.3,0.3,0.3-0.3,0.4-0.6l0.2,0.2c-0.1-0.4-0.2-0.5-0.1-0.7
						c0.1,0,0.2,0.1,0.1,0.1c0.3-0.1-0.1-0.3,0.2-0.4l0.1,0.2c0.2-0.1,0.1-0.2,0-0.4c0-0.2,0.3-0.3,0.5-0.1c-0.1-0.1-0.2-0.4,0-0.4
						c0.1,0.1,0.1,0.1,0.1,0.2c0.4-0.1,0.1-0.6,0.5-0.6c0.1,0.1,0.1,0.1,0.2,0.1c-0.2,0.2-0.4,0.4-0.4,0.3c0.2,0.2,0.4,0,0.5,0.4
						c0-0.3-0.1-0.8,0.2-0.9c0,0,0.1,0,0.1,0l0,0c0.1,0,0.1-0.1,0.1-0.1c0.1,0,0.1,0,0.2-0.1c0.2,0.1,0.3-0.1,0.4-0.2
						c-0.2-0.2-0.1-0.3-0.3-0.3c0,0,0,0,0,0.1c0,0,0,0,0,0.1l0,0c0,0.1-0.1,0.1-0.2,0.2c0-0.2-0.1-0.3,0.1-0.3
						c-0.1-0.2-0.2-0.3-0.2-0.4c0.4,0.1,0.8,0,1,0.2c0.1-0.4,0.5-0.7,0.2-1.2c0-0.1,0.2,0,0.3,0c0,0.1-0.1,0.1,0,0.2
						c0-0.2,0.4-0.5,0.1-0.8c0.3-0.1,0.2,0.3,0.3,0l0.1,0.1c0.9-0.1,0-1.5,1.1-1.6c-0.1,0-0.1,0-0.2,0c0.8-0.5,0.9-1.6,1.9-1.9
						c0.2-0.1,0.1-0.3,0-0.5l0.3,0.2l-0.1-0.4c0-0.4,1,0,0.9-0.7l-0.2-0.1c0.1-0.1,0.2-0.5,0.4-0.3c0,0-0.1-0.2,0-0.2l0.1,0.1l0-0.5
						c0.3-0.2,0.5,0.4,0.8,0.1c0.1-0.2,0-0.7-0.2-0.7c-0.1,0-0.2,0.1-0.3,0l0-0.2c-0.3-0.3-0.6-0.7-1.1-0.6L53,4l-0.2-0.1l0.1-0.2
						c-0.2,0-0.2,0.1-0.1,0.3C52.7,4,52.6,3.9,52.6,4l0.2,0.5c-0.2-0.1-0.2-0.3-0.4-0.2c0.1,0.2,0.4,0.2,0.4,0.4
						c-0.2,0-0.4-0.2-0.3,0.1c-0.1-0.1-0.1-0.1-0.1-0.2c0,0.2-0.2,0.3,0,0.5c-0.3-0.1-0.2,0.4-0.6,0.1c0.1,0.1,0.1,0.4,0.1,0.5
						c-0.3-0.5-0.3,0.3-0.7-0.1c0.3,0.4-0.2,0.6-0.2,1c0,0-0.1-0.1,0-0.1c-0.1,0.1-0.3,0-0.4,0.1c0.3,0.3,0.2,0.5,0.3,0.8
						c-0.4-0.1-0.3-0.4-0.6-0.6c0.3,0.2,0,0.5,0.3,0.6c-0.3,0-0.2,0-0.5-0.1c0.4,0.3,0,0.2,0.1,0.5c-0.3,0-0.4-0.3-0.4,0
						C49.3,7.6,49.4,7.4,49.4,7.4z M46.1,12.3L46.1,12.3c0,0,0-0.1,0.1-0.1C46.2,12.3,46.2,12.3,46.1,12.3z M45.8,12.7
						c0,0,0.1-0.1,0.2-0.1c0.1,0.1,0.1,0.1,0.1,0.2C46,12.7,45.9,12.7,45.8,12.7z M47.9,13.2c0,0.1-0.1,0.1-0.1,0
						C47.8,13.2,47.9,13.2,47.9,13.2l-0.1-0.1C47.9,13.2,47.9,13.2,47.9,13.2z"/>
					<path fill="#FFFFFF" d="M47.8,12.9C47.8,12.9,47.8,12.9,47.8,12.9C47.7,12.8,47.7,12.8,47.8,12.9L47.8,12.9L47.8,12.9z"/>
					<path fill="#FFFFFF" d="M9.9,36.2L9.9,36.2C9.9,36.2,9.9,36.2,9.9,36.2C9.9,36.2,9.9,36.2,9.9,36.2z"/>
					<polygon fill="#FFFFFF" points="40.7,17.2 40.7,17.3 40.7,17.2 					"/>
					<path fill="#FFFFFF" d="M7.1,35.3C7.1,35.3,7.1,35.3,7.1,35.3C7.1,35.3,7.1,35.3,7.1,35.3z"/>
					<path fill="#FFFFFF" d="M5.9,35.3l-0.2-0.1C5.8,35.2,5.9,35.3,5.9,35.3z"/>
					<path fill="#FFFFFF" d="M5.1,35.1c0,0,0,0.1,0,0.1l0,0L5.1,35.1z"/>
					<path fill="#FFFFFF" d="M18.8,32.6C18.8,32.6,18.8,32.6,18.8,32.6C18.9,32.5,18.9,32.5,18.8,32.6z"/>
					<path fill="#FFFFFF" d="M15,34.4c0-0.1,0.1-0.1,0.1-0.2C15,34.3,14.9,34.3,15,34.4z"/>
					<polygon fill="#FFFFFF" points="23,30.4 23,30.4 23,30.4 					"/>
					<path fill="#FFFFFF" d="M15.3,34.2c-0.1,0-0.1,0-0.2,0C15.1,34.3,15.2,34.3,15.3,34.2z"/>
					<path fill="#FFFFFF" d="M1.2,34.6L1.2,34.6C1.2,34.6,1.2,34.6,1.2,34.6L1.2,34.6z"/>
					<path fill="#FFFFFF" d="M1.2,34.6L1.2,34.6C1.2,34.6,1.2,34.6,1.2,34.6z"/>
					<path fill="#FFFFFF" d="M1,34.7l0.1-0.1C1.1,34.6,1.1,34.6,1,34.7z"/>
					<path fill="#FFFFFF" d="M2.4,34.9L2.4,34.9C2.4,34.8,2.4,34.8,2.4,34.9z"/>
					<path fill="#FFFFFF" d="M2.7,34.9c-0.1,0-0.2-0.2-0.3-0.2l0,0.1C2.5,34.6,2.6,35.1,2.7,34.9z"/>
					<path fill="#FFFFFF" d="M4.1,36.3l-0.3-0.1c0,0.1,0.1,0.3,0,0.3C4.2,36.8,3.7,36.2,4.1,36.3z"/>
					<path fill="#FFFFFF" d="M5.1,36.5c-0.2,0,0,0.2,0,0.2C5.2,36.6,5.2,36.6,5.1,36.5z"/>
					<path fill="#FFFFFF" d="M12.1,36.1l0,0.3C12.2,36.3,12.1,36.3,12.1,36.1z"/>
					<polygon fill="#FFFFFF" points="13.1,34.6 13,34.5 13,34.7 					"/>
					<polygon fill="#FFFFFF" points="14.3,36.2 14.2,36.3 14.4,36.1 					"/>
					<path fill="#FFFFFF" d="M25.3,31.9l-0.2-0.3C25,31.8,25.2,32.1,25.3,31.9z"/>
					<path fill="#FFFFFF" d="M29.5,29.1c0.1,0.1,0.3,0.1,0.3-0.1C29.7,29.1,29.5,29,29.5,29.1z"/>
					<polygon fill="#FFFFFF" points="41.5,20 41.5,20.1 41.6,19.9 					"/>
				</g>
			</g>
		</g>
		<g>
			<g>
				<g>
					<path fill="#FFFFFF" d="M28.9,5.9c0,0.1-0.1,0.3,0,0.2L29,5.8L28.9,5.9z"/>
					<path fill="#FFFFFF" d="M29.3,6.6c0.1-0.1,0.3-0.4,0.3-0.7c-0.1,0.3-0.1,0.2-0.3,0.5c-0.1,0-0.1-0.1-0.1-0.2
						c0,0.1-0.1-0.1-0.2,0.1c0.1,0.3,0.2,0.3,0.4,0.1C29.4,6.4,29.4,6.5,29.3,6.6z"/>
					<path fill="#FFFFFF" d="M37.3,7.7L37.3,7.7C37.3,7.7,37.3,7.7,37.3,7.7z"/>
					<path fill="#FFFFFF" d="M42.4,7.3C42.4,7.3,42.4,7.3,42.4,7.3C42.4,7.3,42.4,7.3,42.4,7.3z"/>
					<path fill="#FFFFFF" d="M43.3,7.4C43.3,7.4,43.3,7.4,43.3,7.4C43.3,7.4,43.3,7.5,43.3,7.4z"/>
					<path fill="#FFFFFF" d="M37.3,7.7l0.1,0.1C37.5,7.7,37.4,7.7,37.3,7.7z"/>
					<path fill="#FFFFFF" d="M30.5,6C30.5,6,30.5,6,30.5,6C30.5,6,30.5,6,30.5,6L30.5,6z"/>
					<path fill="#FFFFFF" d="M35.1,8L35.1,8C35.1,8,35,8.1,35,8.1L35.1,8z"/>
					<path fill="#FFFFFF" d="M33.4,7.9c0,0,0.1-0.3,0.1-0.4c0,0.1-0.1,0.2-0.1,0.2C33.4,7.8,33.4,7.8,33.4,7.9z"/>
					<path fill="#FFFFFF" d="M30.8,7.2L30.8,7.2C30.7,7.2,30.7,7.2,30.8,7.2z"/>
					<path fill="#FFFFFF" d="M36.3,8.1c0,0,0,0.1,0,0.1C36.4,8.1,36.4,8.1,36.3,8.1z"/>
					<path fill="#FFFFFF" d="M50.8,28.5C50.8,28.5,50.7,28.5,50.8,28.5C50.8,28.5,50.8,28.5,50.8,28.5z"/>
					<polygon fill="#FFFFFF" points="49.1,30.2 49.1,30.2 48.9,30.2 					"/>
					<path fill="#FFFFFF" d="M45,7.4L45,7.4C44.9,7.4,45,7.4,45,7.4z"/>
					<path fill="#FFFFFF" d="M53.6,4.7c0.3-0.1,0.3,0.1,0.7-0.1C54.1,4.6,53.8,4.6,53.6,4.7z"/>
					<path fill="#FFFFFF" d="M30.6,6C30.6,6,30.6,6,30.6,6C30.6,6,30.6,6,30.6,6z"/>
					<path fill="#FFFFFF" d="M54.2,4.6L54.2,4.6L54.2,4.6C54.2,4.6,54.2,4.6,54.2,4.6z"/>
					<path fill="#FFFFFF" d="M48.4,6.1c0,0-0.1-0.1-0.1-0.1C48.3,6,48.4,6,48.4,6.1z"/>
					<path fill="#FFFFFF" d="M45.7,6.6L45.7,6.6C45.8,6.6,45.7,6.6,45.7,6.6z"/>
					<path fill="#FFFFFF" d="M49.6,5.2C49.6,5.2,49.7,5.2,49.6,5.2C49.7,5.2,49.7,5.2,49.6,5.2C49.7,5.2,49.6,5.2,49.6,5.2z"/>
					<polygon fill="#FFFFFF" points="50.9,4.7 50.9,4.6 50.9,4.7 					"/>
					<path fill="#FFFFFF" d="M51.4,24.2c-0.1,0-0.2,0-0.3,0C51.3,24.2,51.4,24.5,51.4,24.2z"/>
					<path fill="#FFFFFF" d="M30.5,6.1c0-0.1,0-0.1,0.1-0.1c0,0,0,0,0,0C30.5,6.1,30.5,6.1,30.5,6.1z"/>
					<path fill="#FFFFFF" d="M48.9,3.1l0.2,0C49,3.1,48.9,3.1,48.9,3.1z"/>
					<path fill="#FFFFFF" d="M53.4,14.1L53.4,14.1C53.5,14.2,53.5,14.1,53.4,14.1z"/>
					<path fill="#FFFFFF" d="M49.7,2.8c0.1,0.1,0.1,0.1,0.2,0.1c0,0,0,0,0-0.1L49.7,2.8z"/>
					<path fill="#FFFFFF" d="M51.1,24.2L51.1,24.2L51.1,24.2z"/>
					<path fill="#FFFFFF" d="M51.5,25.8c0-0.2-0.3-0.2-0.5-0.2c-0.1-0.3,0.3-0.1,0.5-0.1c-0.1-0.2-0.4-0.4-0.3-0.5
						c0.1,0,0.1,0,0.2,0c-0.3-0.2,0.1-0.5-0.2-0.8c0,0,0.1,0,0.1,0c-0.2,0-0.4,0-0.5-0.1c0-0.1-0.2-0.2,0-0.2c0,0.1,0.1,0.1,0.1,0.1
						L50.7,24c0.4,0,0.1,0.2,0.3,0.2c-0.1-0.2-0.3-0.5-0.2-0.6c0.3,0,0,0.4,0.4,0.2L51.1,24c0.6-0.1-0.1,0.1,0.5,0.1
						c0.2-0.3-0.1-0.4,0-0.7c-0.2-0.1-0.3,0-0.5-0.1c-0.3-0.5,0.9-0.2,0.5-0.6c-0.2-0.1-0.6-0.2-0.4-0.4l0.4,0.1
						c0.1-0.3-0.5-0.3-0.2-0.5c0.1,0.1,0.1,0.3,0.1,0.2c0.3-0.1-0.2-0.2-0.2-0.3l0.3,0c0-0.3-0.2-0.7-0.2-1.1c0.1,0,0.2,0.1,0.3,0.1
						c-0.1-0.5,0.2-0.9,0.5-1.3l-0.3-0.2c0,0,0.1,0,0.2,0c0.1-0.1-0.2,0-0.3-0.1c0-0.1,0.2-0.1,0.3,0c-0.2-0.3-0.3-0.9,0-1.2
						l0.1,0.1c0.2-0.2-0.5-0.4-0.2-0.6l0,0.1c0.2-0.5,0.1-1.1,0.6-1.4c-0.4-0.2,0.3-0.5-0.3-0.6c0.4-0.2,0.4-0.1,0.7-0.5
						c0.1-0.1-0.3-0.2-0.4-0.4l0.3,0.1l-0.3-0.3l0.4,0l0-0.1c0,0-0.2,0.1-0.2,0c-0.1-0.2,0.3-0.4,0.5-0.4l-0.1-0.5
						c0.1,0,0.1,0.1,0.2,0.2c-0.2-0.3,0.3,0,0.1-0.3c-0.1,0-0.2-0.1-0.2-0.1c0.2-0.1,0.3-0.3,0.2-0.5l0.2,0.1
						c0.1-0.3,0.1-0.8,0.2-1.2c-0.1,0.1-0.5,0-0.5-0.1l0.3,0c-0.2-0.1-0.1,0.1-0.4-0.1c0.1-0.1,0.4,0,0.5,0.1l-0.1-0.2
						c0.1,0,0.1,0.1,0.3,0.1c-0.2-0.1,0.4-0.2,0.1-0.4l0.1,0c0.1-0.4,0-0.6,0.1-0.9c-0.3-0.1-0.2-0.2-0.4-0.3
						c0.2-0.2,0.4-0.4,0.5-0.7c-0.1-0.2-0.2-0.1-0.4-0.3c0.3,0.1,0.3-0.2,0.4,0c0.1-0.3,0.1-0.4,0-0.9c-0.1,0-0.2,0.1-0.2,0
						c0-0.1,0.2-0.1,0.3-0.1l0,0c-0.2-0.6,1-0.9,0.6-1.4l0,0l-0.2-0.5c0.1-0.2,0.2,0.2,0.3,0.1c-0.3-0.4,0.4-1,0.2-1.5
						c0.5-0.3,0.6-0.8,0.7-1.2c0.1-0.4,0.1-0.8,0.6-1.4L57,2c-0.2,0,0.2-0.3,0.3-0.5c-0.2,0.2-0.3,0.4-0.4,0.3c0-0.3,0.1-0.6,0.3-1
						c0.1-0.2,0.2-0.4,0.2-0.6l0.1-0.2c0,0,0-0.1,0-0.1l-0.1,0l-0.2,0c-0.6,0.1-1.2,0.2-1.9,0.4c-0.6,0.2-0.8,1.3-1.3,1l0.3-0.5
						c-0.6,0.5-1.1,0.6-1.7,0.8C52.5,1.9,52.1,2,52,2.1c-0.1,0.1-0.3,0.2-0.4,0.3c0-0.1,0-0.2,0-0.2c-0.2-0.2-0.5,0.2-0.4,0.3
						c-0.1,0-0.1-0.2-0.2-0.2c-0.2-0.1-0.2,0.4-0.3,0.2c0,0,0-0.1,0-0.1c0,0.1-0.4,0.1-0.2,0.3c-0.3,0-0.4,0.3-0.6,0.2
						c0,0.3-0.4,0-0.3,0.4c-0.1-0.4-0.5-0.2-0.6,0.1c0-0.1-0.2-0.1-0.2-0.3c-0.2,0.1-0.3,0.2-0.2,0.4c-0.5-0.4-0.4,0.6-0.8,0
						c-0.4,0.4-0.8,0.7-1.1,1c-0.1-0.4,0.4-0.2,0.3-0.6c-0.3,0.3-0.4,0.8-0.9,0.8c-0.1,0,0-0.2,0-0.3c-0.3,0.3-0.8,0.2-1.1,0.6
						c0,0,0-0.1,0-0.1c-0.1,0-0.2,0-0.1,0.2L45,4.9c0.2,0.3-0.1,0.7-0.1,0.8c0-0.6-0.4,0-0.4-0.8c0,0.1-0.1,0.2,0,0.3
						c-0.1,0-0.1-0.1-0.1-0.3c-0.2,0.2-0.1,0.4-0.3,0.4c0-0.1,0-0.1,0-0.3c-0.1,0.2-0.1,0.4-0.3,0.4c0-0.1,0-0.1,0-0.1
						C43.5,5.5,43.4,6,43,5.9c0-0.4-0.2-0.1-0.3-0.5l-0.2,0.2l0.1,0.2c-0.2,0-0.3,0.3-0.4,0.2l0.1-0.2L42,6l0.2,0.1
						c-0.1,0.2,0.1,0.5-0.1,0.4c0,0-0.2,0-0.3-0.2l0,0c-0.1,0.1-0.1,0.3-0.3,0.2c-0.1-0.1,0-0.4-0.1-0.5c0,0.3-0.4,0.2-0.4,0.5
						c0-0.1,0-0.3,0-0.3l0,0.3c-0.1-0.1-0.1-0.1-0.1-0.3c-0.3,0,0.2,0.5-0.2,0.3c0,0,0-0.1,0-0.1c-0.3-0.1-0.5,0.2-0.8,0.2
						c-0.1-0.4,0.2-0.1,0.1-0.4c-0.4,0.1-0.8,0.5-1.1,0.5l0.1,0c0,0.5-0.3-0.2-0.5,0c0,0,0-0.3,0-0.2c-0.3-0.1-0.5,0.2-0.9,0.3
						l0-0.1c-0.2-0.1-0.4-0.1-0.6-0.1c0,0.1-0.1,0.1-0.1,0.3c-0.5-0.7-1,0.4-1.4-0.2c0.1,0,0.1-0.1,0.1-0.1l-0.4,0.1
						c0,0.2,0,0.1,0.1,0.3c-0.1,0.1-0.2,0.2-0.3,0.2c0.2-0.2,0-0.4-0.1-0.5c0,0.1,0,0.1,0,0.2c-0.2-0.4-0.1,0.5-0.3,0.2l0-0.1
						c-0.1,0.1-0.2,0.2-0.3,0.2c0-0.3,0.1-0.1,0.1-0.3c-0.2,0-0.3,0.5-0.5,0.2c0.1-0.1,0.2-0.1,0.2-0.1c-0.1-0.3-0.2-0.2-0.3-0.3
						l0,0l-0.3-0.2l0.1,0.1C33.5,7.2,33.3,6.6,33,7c0.3-0.4,0.1-0.2,0.1-0.5C33.1,6.4,33,6.3,33,6.2c-0.1,0.2-0.2-0.2-0.4,0.1
						c0-0.1-0.1,0-0.1-0.3c-0.2,0.1,0,0.2,0,0.3c-0.3,0.3-0.5-0.5-0.9-0.1c-0.3,0.2-0.4,0.5-0.7,0.6C30.8,6.7,31,6.6,31,6.6
						c-0.1-0.2-0.3-0.2-0.4-0.1c0-0.1,0-0.2,0-0.3c-0.1,0-0.1,0.3-0.3,0.2c0-0.1,0.1-0.3,0.2-0.4c-0.2,0.1-0.3,0.2-0.5,0.3
						c0-0.2,0.1-0.2,0.2-0.3C30,6,29.7,6.1,29.7,6.3l0.1,0.1c-0.1,0,0-0.2,0.1-0.3C30,6,30,6.3,30,6.4l-0.1,0c0,0.6,0.4,0,0.6,0
						l-0.1,0.4l0.3-0.3c0,0.1,0,0.3-0.1,0.4c0.1,0.2,0.2-0.1,0.2,0.1c0,0,0,0.1,0,0.1l0.2-0.1c0,0.1,0,0.3-0.1,0.2
						c0.2,0.3,0.5-0.3,0.5,0.1l0,0c0.4-0.1,0.1-0.3,0.4-0.6l0.1,0.8l0.1-0.3c0,0,0.1,0,0.1,0.2c0.2-0.2,0-0.1,0.1-0.3
						c0.2,0.3,0.5-0.1,0.5,0.4c0.1-0.2-0.2-0.2,0.1-0.3c0,0.5,0.2-0.1,0.4,0.2c-0.1,0.3-0.2,0.1-0.1,0.4c0.1-0.4,0.3,0.1,0.5,0
						c0-0.4,0.3-0.1,0.6-0.2c0,0.1,0.4,0.2,0.7,0.4l0,0.1c0.1-0.4,0.3-0.3,0.5-0.4c0,0.2,0,0.3-0.1,0.4l0.2,0c0-0.1,0.1-0.2,0.2-0.2
						l0,0.3c0.2,0,0.4-0.3,0.7-0.1c0-0.3-0.2-0.7,0.1-0.9c0,0.1,0,0.4-0.1,0.4c0,0,0.1-0.1,0.1-0.1L36,7.6c0.1,0.1,0.1-0.2,0.2-0.2
						c0,0.2,0.1,0.1,0.1,0.3c0,0-0.1-0.1-0.1,0c0.1,0,0.2,0.2,0.3,0.3c0-0.1,0-0.3,0.1-0.3c0.2,0,0.1,0.2,0.2,0.3
						c0-0.1,0.2,0,0.2-0.3c0.1,0,0.1,0.1,0.1,0.2C37,7.9,37.4,8,37.3,7.7l0,0l0,0l0,0l0,0c0.3-0.3,0.7,0.1,1.1,0l0,0.1
						c0.2-0.1,0.5-0.1,0.6-0.3c0.1,0,0.2,0.2,0.1,0.3c0.2-0.1,0.2-0.2,0.4-0.1c-0.1,0.2,0.1,0.1-0.2,0.1c0.2,0.1,0.3,0.2,0.5-0.1
						c0,0.3,0.2,0.3,0.3,0.2L40,7.7c0.1-0.1,0.2,0,0.3,0l0,0.3c0.5,0.3,0.7-0.8,1.1-0.2c0.1-0.2-0.3-0.1-0.2-0.4
						c0.2,0,0.5,0.4,0.6,0.4C42,8,41.9,7.3,42.2,7.4c-0.1-0.1-0.2-0.4,0-0.6c0.2,0,0.3,0.4,0.2,0.6c0,0-0.1,0-0.1-0.1
						c-0.1,0.1-0.1,0.1,0,0.2l0-0.1c0.1,0.1,0.4,0,0.4,0.2c0.1-0.1,0-0.2-0.1-0.2c0.3,0.1,0.4-0.1,0.7,0c-0.1-0.1-0.1-0.2-0.1-0.2
						c0.4,0,0.1-0.3,0.3-0.4c0.2,0.1,0.1,0.4,0.3,0.2c0.2,0.1,0.1,0.3,0.1,0.4c0.2-0.3,0.5,0,0.6,0l-0.1,0.1
						c0.1-0.1,0.1-0.1,0.2-0.1l-0.1-0.2c0.1,0,0.1,0,0.2,0.1c0-0.2-0.2-0.4-0.1-0.6c0.1,0.1,0.2-0.2,0.4,0.1c-0.3,0,0.1,0.3-0.1,0.4
						c0-0.1,0.1-0.1,0.2,0c0,0,0,0.1,0,0.1c0.4,0.2,0-0.4,0.3-0.5c0,0.2,0.2,0.3,0.2,0.3c-0.1,0-0.1-0.3-0.1-0.4
						c0.2,0.1,0.2-0.2,0.3-0.2l-0.1,0c0-0.2,0.1-0.2,0.2-0.3c0.1,0.1-0.1,0.1,0,0.2c0.1-0.3,0.4,0.2,0.6-0.1
						c0.1,0.1,0.1,0.3,0.2,0.4c0.2-0.3,0.3,0.1,0.5-0.1c-0.1-0.2-0.1-0.1,0-0.4l-0.3,0.3l0.1-0.4c-0.1,0-0.2,0.2-0.3,0.2
						c0.1-0.2,0.1-0.2-0.1-0.3c0.3,0.3,0.2-0.3,0.5-0.1l0.2,0.6c0.4,0.2,0.4-0.5,0.8-0.4l-0.1-0.1c0-0.2,0.2-0.1,0.3-0.2
						c0.1,0.2,0.2,0.2,0.2,0.3c-0.1-0.1,0.3-0.1,0.2-0.5l0.2,0.2c0.3,0,0.1-0.6,0.4-0.7c0,0.2,0.2,0.3,0,0.5c0.1,0,0.2,0,0.1-0.2
						c0.1,0.1,0.2-0.3,0.3-0.2c0-0.1-0.1-0.3,0.1-0.3c0,0,0,0.1,0,0.1c0-0.1,0.1-0.2-0.1-0.4c0.5,0.5,0.8-0.3,1.2,0.1
						c0.2-0.1,0.4-0.3,0.6-0.4c0,0.1,0,0.1,0,0.1c0.3,0.1-0.1-0.6,0.3-0.5c0.3,0.2-0.1,0.2,0,0.3c0.3,0.6,0.3-0.2,0.6,0.1l0,0.1
						c0.1,0.1,0.2,0,0.2-0.1c0-0.1,0.1-0.1,0.1-0.2c0,0,0-0.1,0.1-0.1c0,0,0,0.1,0,0.1c0-0.4,0.2-0.6,0.4-0.7
						c-0.1,0.3-0.1,0.2-0.1,0.5c0.1-0.1,0-0.5,0.2-0.6c0,0.1,0.1,0.2,0,0.6l-0.1,0.1c-0.1,0.4,0.1-0.1,0.2,0l-0.1,0.2
						c0.1-0.1,0.4-0.6,0.6-0.7l0.1-0.2c0.5-0.6-0.1,0.3,0.3-0.2L54,3.5c0.1-0.2,0.7-0.7,1-0.9c-0.5,0.5-0.8,0.8-1.1,1.1
						c0,0,0.2-0.1,0.5-0.4c-0.1,0.1-0.2,0.2-0.2,0.1c0.2-0.3,0.5-0.5,0.6-0.6C54.9,2.7,55,2.6,55,2.6c0.1-0.1,0,0,0,0.1
						c-0.6,0.6-0.7,0.8-0.8,0.9c-0.1,0.1-0.1,0.3-0.5,0.6c0.2-0.1,0.1,0,0,0.2c-0.1,0.1-0.2,0.2-0.2,0.3c0.7-0.3,0,0,0.7-0.1
						c0,0.1,0,0.1,0,0.1c0,0-0.4,0.2-0.4,0.2c-0.2,0-0.1,0-0.3,0c-0.1,0.1-0.3,0-0.4,0c0.2,0,0.3,0,0.2,0.1c0,0,0.3,0,0.3,0
						c0.2,0.1,0,0.1-0.1,0.2c-0.1,0-0.3,0.1-0.2,0.3l-0.2-0.2c0.1,0.2-0.2,0.7,0.2,1c-0.1,0-0.2,0-0.3-0.1c-0.2,0.4,0.2,1.1-0.1,1.3
						l-0.1-0.1c0,0.1,0.2,0.2,0.1,0.3c-0.1,0-0.1-0.1-0.2,0c0,0.1,0.2,0.3,0.1,0.4l-0.1-0.1c-0.3,0.4,0.2,0.7,0.2,1.1
						c-0.4-0.1-0.7,0.2-0.8,0.3l-0.1,0c-0.2,0.5,0.1,0.9,0.2,1.4c-0.5,0.2-0.4,0.9-0.8,1.3c0.1,0,0.3,0.1,0.4,0.2
						c-0.1,0.1,0.2,0.4-0.2,0.3l0,0c-0.4,0-0.4,0.2-0.4,0.4l0.5,0.2c-0.9,0.3,0,1.2-0.7,1.3c0.1,0.1,0.1,0.3,0.2,0.4l-0.3-0.1
						c-0.1,0.3-0.2,0.4-0.2,0.8l-0.2-0.1c-0.1,0.2,0.7,0.4,0.7,0.6l-0.4,0c-0.1,0.4-0.5,0.7-0.2,1.1c-0.1,0-0.2-0.1-0.2-0.1
						c0,0.2-0.4,0.6,0.2,0.7c-0.4-0.1-0.1,0.4,0,0.6l-0.3-0.1c0.3,0.2,0.4,0.3,0.5,0.5c0,0-0.2,0-0.1-0.1c-0.2,0.2,0.2,0.2,0,0.4
						l-0.2-0.1c-0.1,0.2,0,0.2,0.2,0.3c0.1,0.1-0.1,0.3-0.4,0.3c0.1,0.1,0.3,0.2,0.2,0.3c-0.1,0-0.1-0.1-0.2-0.1
						c-0.2,0.3,0.2,0.5-0.1,0.7c-0.1,0-0.1,0-0.2,0c0.1-0.2,0.1-0.4,0.1-0.4c-0.3-0.1-0.3,0.1-0.7-0.1c0.2,0.2,0.5,0.6,0.4,0.7
						c0,0-0.1,0-0.1,0l0,0c0,0,0,0.1,0,0.1c-0.1,0.1-0.1,0.1-0.1,0.1c-0.2,0-0.2,0.2-0.2,0.3c0.3,0,0.2,0.2,0.5,0.1c0,0,0,0,0-0.1
						c0,0,0,0,0,0l0,0c0-0.1,0-0.2,0-0.3c0.1,0.1,0.2,0.2,0.1,0.3c0.2,0.1,0.3,0.2,0.4,0.2c-0.4,0.1-0.7,0.3-0.9,0.3
						c0.1,0.3,0,0.7,0.4,1c0,0.1-0.2,0.1-0.3,0.1c0-0.1,0-0.1-0.1-0.2c0.1,0.2,0,0.5,0.3,0.6c-0.2,0.2-0.3-0.2-0.3,0.1l-0.1-0.1
						c-0.7,0.5,0.7,1.1-0.1,1.7c0.1,0,0.1-0.1,0.1-0.1c-0.5,0.7,0,1.6-0.6,2.3c-0.1,0.2,0.1,0.3,0.2,0.4l-0.3,0l0.3,0.3
						c0.2,0.4-0.8,0.4-0.4,0.9l0.2,0c-0.1,0.1,0,0.5-0.2,0.4c0,0,0.2,0.1,0.1,0.1l-0.2,0l0.2,0.4c-0.2,0.3-0.6-0.1-0.7,0.3
						c0,0.2,0.4,0.5,0.5,0.4c0-0.1,0.1-0.1,0.3-0.1l0.1,0.1c0.5,0.1,0.9,0.3,1.3,0l-0.2-0.3l0.2,0l0,0.2c0.2-0.1,0.1-0.2-0.1-0.3
						c0.1,0,0.2,0,0.3-0.1l-0.4-0.3c0.2,0,0.3,0.2,0.5,0c-0.2-0.1-0.4,0-0.5-0.2c0.2-0.1,0.4,0,0.2-0.2c0.1,0,0.2,0,0.2,0.1
						c-0.1-0.1,0-0.3-0.2-0.4c0.3-0.1,0-0.4,0.4-0.3c-0.1-0.1-0.3-0.3-0.3-0.4c0.5,0.3,0.1-0.4,0.6-0.2c-0.4-0.2-0.1-0.5-0.3-0.8
						c0,0,0.1,0.1,0.1,0.1c0.1-0.1,0.2-0.2,0.3-0.2c-0.4-0.1-0.4-0.3-0.7-0.5c0.4-0.1,0.4,0.2,0.8,0.2c-0.3,0-0.3-0.4-0.5-0.3
						c0.3-0.1,0.1-0.1,0.5-0.1c-0.5-0.1-0.1-0.1-0.3-0.3c0.3-0.1,0.5,0,0.4-0.2C51.4,25.6,51.5,25.8,51.5,25.8z M51.6,20.7
						L51.6,20.7c0,0,0,0.1,0,0.1C51.6,20.8,51.6,20.7,51.6,20.7z M51.7,20.3c0,0,0,0.1,0,0.2c-0.1,0-0.2,0-0.2-0.1
						C51.5,20.4,51.6,20.3,51.7,20.3z M49.6,20.8C49.6,20.7,49.6,20.7,49.6,20.8c0.1-0.1,0.1,0,0.1,0l0,0
						C49.7,20.8,49.6,20.8,49.6,20.8z"/>
					<path fill="#FFFFFF" d="M49.9,21C50,21,50,21,49.9,21C50,21,50,21,49.9,21L49.9,21L49.9,21z"/>
					<path fill="#FFFFFF" d="M37.3,7.7L37.3,7.7C37.3,7.7,37.3,7.6,37.3,7.7C37.3,7.6,37.3,7.7,37.3,7.7z"/>
					<polygon fill="#FFFFFF" points="53.5,14.6 53.4,14.6 53.4,14.6 					"/>
					<path fill="#FFFFFF" d="M34.9,6.7C34.9,6.7,34.9,6.6,34.9,6.7C34.9,6.6,34.9,6.7,34.9,6.7z"/>
					<path fill="#FFFFFF" d="M33.9,6.6l-0.1-0.1C33.9,6.5,33.9,6.6,33.9,6.6z"/>
					<path fill="#FFFFFF" d="M33.2,6.4c0,0,0,0.1,0,0.1l0,0L33.2,6.4z"/>
					<path fill="#FFFFFF" d="M45.1,4.8C45.1,4.8,45.1,4.8,45.1,4.8C45.2,4.7,45.1,4.7,45.1,4.8z"/>
					<path fill="#FFFFFF" d="M41.7,6.3c0-0.1,0.1-0.1,0.1-0.2C41.8,6.1,41.7,6.2,41.7,6.3z"/>
					<polygon fill="#FFFFFF" points="48.8,3.1 48.8,3.1 48.9,3.1 					"/>
					<path fill="#FFFFFF" d="M42,6.1c-0.1,0-0.1,0-0.2,0C41.9,6.2,42,6.2,42,6.1z"/>
					<path fill="#FFFFFF" d="M29.9,5.8L29.9,5.8C29.8,5.8,29.8,5.8,29.9,5.8L29.9,5.8z"/>
					<path fill="#FFFFFF" d="M29.8,5.9L29.8,5.9C29.8,5.9,29.8,5.9,29.8,5.9z"/>
					<path fill="#FFFFFF" d="M29.7,5.9L29.7,5.9C29.7,5.9,29.7,5.9,29.7,5.9z"/>
					<path fill="#FFFFFF" d="M30.9,6.1L30.9,6.1C30.9,6,30.9,6.1,30.9,6.1z"/>
					<path fill="#FFFFFF" d="M31.2,6.1c-0.1,0-0.2-0.2-0.3-0.2l0,0.1C31,5.9,31.1,6.3,31.2,6.1z"/>
					<path fill="#FFFFFF" d="M32.3,7.5l-0.3-0.1c0,0.1,0.1,0.3,0,0.3C32.3,8.1,32,7.5,32.3,7.5z"/>
					<path fill="#FFFFFF" d="M33.1,7.8c-0.1,0,0,0.2,0,0.2C33.2,7.9,33.2,7.9,33.1,7.8z"/>
					<path fill="#FFFFFF" d="M39.2,7.8l0,0.3C39.3,8,39.2,7.9,39.2,7.8z"/>
					<polygon fill="#FFFFFF" points="40.1,6.3 40,6.2 40,6.4 					"/>
					<polygon fill="#FFFFFF" points="41.1,8 41,8.1 41.2,7.9 					"/>
					<path fill="#FFFFFF" d="M50.8,5l-0.1-0.3C50.6,4.8,50.7,5.1,50.8,5z"/>
					<path fill="#FFFFFF" d="M53.8,3.5c-0.1,0.2-0.2,0.3,0,0.1C53.8,3.6,53.9,3.4,53.8,3.5z"/>
					<polygon fill="#FFFFFF" points="51.3,12.9 51.2,12.8 51.2,13 					"/>
				</g>
			</g>
		</g>
	</g>
</g>
</svg>
