<?xml version="1.0" encoding="utf-8"?>
<!-- Generator: Adobe Illustrator 18.1.1, SVG Export Plug-In . SVG Version: 6.00 Build 0)  -->
<svg version="1.1" id="Layer_1" xmlns="http://www.w3.org/2000/svg" xmlns:xlink="http://www.w3.org/1999/xlink" x="0px" y="0px"
	 viewBox="0 0 200 200" enable-background="new 0 0 200 200" xml:space="preserve">
<path fill-rule="evenodd" clip-rule="evenodd" d="M135.4,68.7c1.1,1.3,1.5,2.9,1.3,4.6c-0.2,1.7-1,3.1-2.4,4.2
	c-1.3,1.1-2.9,1.5-4.6,1.3c-1.7-0.2-3.1-1-4.2-2.4c-7.8-10.1-15.8-18.8-19-28.3c15.1,44.8-0.2,112.9-32.1,142.7
	c-1.1,1.5-2.5,2.3-4.2,2.5c-1.7,0.2-3.3-0.2-4.6-1.3c-1.4-1-2.2-2.4-2.4-4.1c-0.2-1.7,1.2-4.5,1.2-4.5
	C94.9,155.9,109.7,86.1,94,47.5c-4.7,9.8-11.4,18.7-20.1,26.7c-1.3,1.2-2.8,1.7-4.5,1.7c-1.7-0.1-3.2-0.7-4.4-2
	c-1.2-1.3-1.7-2.8-1.7-4.5c0.1-1.8,0.7-3.2,2-4.4c11.2-10.3,18.7-22.7,22.7-37c0.6-2.5,1.3-5.7,2.1-9.7l-0.4-2.2
	c-0.2-1.5,0-2.9,0.4-4c0.8-2.9,2.7-4.7,5.7-5.3c3.1-0.7,5.6,0.4,7.5,3.1c0.7,1,1.2,2.3,1.4,4c0.1,0.2,0.2,0.7,0.3,1.4l0.1,0.8
	c0.1,0.1,0.1,0.2,0.1,0.4c1.2,2.6,4.2,8.8,9,18.6C119,45.6,126.1,56.8,135.4,68.7L135.4,68.7z"/>
</svg>
