<?xml version="1.0" encoding="utf-8"?>
<!-- Generator: Adobe Illustrator 18.0.0, SVG Export Plug-In . SVG Version: 6.00 Build 0)  -->
<!DOCTYPE svg PUBLIC "-//W3C//DTD SVG 1.1//EN" "http://www.w3.org/Graphics/SVG/1.1/DTD/svg11.dtd">
<svg version="1.1" id="Layer_1" xmlns="http://www.w3.org/2000/svg" xmlns:xlink="http://www.w3.org/1999/xlink" x="0px" y="0px"
	 viewBox="0 0 57 36" enable-background="new 0 0 57 36" xml:space="preserve">
<g>
	<g>
		<path fill="none" d="M7.7,29.4c0,0-2.2-15.3-6.4-28.2c10.3,3.9,14.9,6.6,26.8,4.5 M2.8,3.3c20.2,25.3,36.9,34.4,54.1,31.1"/>
		<g>
			<g>
				<g>
					<path fill="#FFFFFF" d="M57,35.1c0-0.1,0-0.3-0.1-0.2l0,0.3L57,35.1z"/>
					<path fill="#FFFFFF" d="M56.2,34.6c-0.1,0.2-0.2,0.5,0,0.8c0.1-0.3,0.1-0.2,0.2-0.6c0.1-0.1,0.2,0.1,0.2,0.2
						c0-0.1,0.2,0,0.2-0.2c-0.2-0.2-0.3-0.2-0.5,0C56.2,34.7,56.2,34.7,56.2,34.6z"/>
					<path fill="#FFFFFF" d="M47,34.5L47,34.5C47,34.5,47,34.5,47,34.5z"/>
					<path fill="#FFFFFF" d="M41.4,33.3C41.5,33.3,41.5,33.2,41.4,33.3C41.5,33.2,41.4,33.2,41.4,33.3z"/>
					<path fill="#FFFFFF" d="M40.6,32.7C40.6,32.7,40.6,32.7,40.6,32.7C40.6,32.7,40.6,32.6,40.6,32.7z"/>
					<path fill="#FFFFFF" d="M47,34.5l-0.1-0.1C46.8,34.4,46.9,34.4,47,34.5z"/>
					<path fill="#FFFFFF" d="M55.1,35.6C55.1,35.5,55.1,35.5,55.1,35.6C55.1,35.5,55.1,35.5,55.1,35.6L55.1,35.6z"/>
					<path fill="#FFFFFF" d="M49.5,34.3L49.5,34.3c0.1,0,0.1-0.1,0.1-0.1L49.5,34.3z"/>
					<path fill="#FFFFFF" d="M51.4,34.3c0,0,0,0.3-0.1,0.4c0-0.1,0.1-0.2,0.1-0.2C51.4,34.4,51.4,34.3,51.4,34.3z"/>
					<path fill="#FFFFFF" d="M54.5,34.5L54.5,34.5C54.5,34.5,54.5,34.5,54.5,34.5z"/>
					<path fill="#FFFFFF" d="M48.1,34.2c0,0,0-0.1,0-0.1C48.1,34.1,48.1,34.2,48.1,34.2z"/>
					<path fill="#FFFFFF" d="M3.2,5.9C3.2,5.9,3.2,5.9,3.2,5.9C3.2,5.9,3.2,5.9,3.2,5.9z"/>
					<polygon fill="#FFFFFF" points="2.8,3.3 2.9,3.3 3,3.2 					"/>
					<path fill="#FFFFFF" d="M39,31.8L39,31.8C39.1,31.8,39.1,31.8,39,31.8z"/>
					<path fill="#FFFFFF" d="M24.9,24.2c0,0.3-0.4,0.1-0.4,0.5C24.5,24.5,24.9,24.4,24.9,24.2z"/>
					<path fill="#FFFFFF" d="M55,35.5C55,35.5,55,35.6,55,35.5C55,35.6,55,35.6,55,35.5z"/>
					<path fill="#FFFFFF" d="M24.5,24.6L24.5,24.6L24.5,24.6C24.5,24.7,24.5,24.6,24.5,24.6z"/>
					<path fill="#FFFFFF" d="M35.2,30.4c0,0,0,0.1,0,0.1C35.2,30.5,35.2,30.5,35.2,30.4z"/>
					<path fill="#FFFFFF" d="M37.9,32L37.9,32C37.8,32,37.9,32,37.9,32z"/>
					<path fill="#FFFFFF" d="M33.7,30.1C33.6,30.1,33.6,30,33.7,30.1C33.6,30,33.6,30.1,33.7,30.1C33.6,30,33.6,30,33.7,30.1z"/>
					<path fill="#FFFFFF" d="M32.2,29.3C32.2,29.4,32.2,29.4,32.2,29.3L32.2,29.3L32.2,29.3z"/>
					<path fill="#FFFFFF" d="M6.6,9.7c0-0.1,0.1-0.2,0.1-0.2C6.6,9.6,6.4,9.5,6.6,9.7z"/>
					<path fill="#FFFFFF" d="M55,35.4c0,0.1,0,0.1,0,0.1c0,0,0,0,0.1,0C55.1,35.5,55.1,35.4,55,35.4z"/>
					<path fill="#FFFFFF" d="M32.6,32.1l-0.2-0.2C32.4,31.9,32.5,32,32.6,32.1z"/>
					<path fill="#FFFFFF" d="M14.9,18.5L14.9,18.5C14.8,18.5,14.8,18.5,14.9,18.5z"/>
					<path fill="#FFFFFF" d="M31.6,31.6c0-0.1,0-0.2,0-0.2c0,0,0,0-0.1,0L31.6,31.6z"/>
					<path fill="#FFFFFF" d="M6.7,9.5L6.7,9.5L6.7,9.5z"/>
					<path fill="#FFFFFF" d="M5.1,8.6c0.2,0.2,0.4-0.1,0.5-0.2c0.3,0.2-0.1,0.3-0.2,0.5C5.6,8.9,6,8.8,6,8.9C6,9,6,9,5.9,9
						c0.4,0,0.4,0.4,0.8,0.4c0,0,0,0.1,0,0.1C6.8,9.3,7,9.2,7.1,9.1c0.1,0.1,0.3,0,0.2,0.2c0-0.1-0.1,0-0.2,0l0.2,0
						C7,9.7,7,9.3,6.8,9.5C7,9.6,7.4,9.6,7.5,9.8C7.3,10.1,7.1,9.6,7.1,10L7,9.7C6.7,10.2,6.9,9.5,6.6,10c0.2,0.3,0.4,0.2,0.6,0.5
						c0.2-0.1,0.2-0.2,0.4-0.3c0.6,0.2-0.4,0.9,0.2,0.9c0.2-0.1,0.6-0.3,0.6,0L8,11.4c0.2,0.3,0.5-0.2,0.6,0.2
						c-0.2,0.1-0.3-0.1-0.3-0.1c-0.1,0.4,0.3,0,0.4,0.1l-0.2,0.3c0.3,0.2,0.7,0.4,1.1,0.7c-0.1,0.1-0.2,0.1-0.2,0.2
						c0.5,0.3,0.7,0.8,0.9,1.4l0.3-0.1c0,0,0,0.2-0.1,0.2c0.1,0.2,0.1-0.1,0.3-0.1c0.1,0.1,0,0.2-0.1,0.2c0.4,0.1,1.1,0.4,1.1,0.8
						l-0.1,0c0.1,0.3,0.7-0.2,0.6,0.2l-0.1,0c0.3,0.5,1,0.9,1,1.5c0.4-0.2,0.3,0.6,0.8,0.2c0,0.5-0.1,0.5,0.1,0.9
						c0.1,0.1,0.4-0.1,0.6-0.1l-0.2,0.2l0.4-0.1l-0.2,0.3l0.2,0.1c0-0.1,0-0.2,0.1-0.2c0.3,0.1,0.3,0.6,0.2,0.7l0.6,0.2
						c-0.1,0.1-0.2,0-0.3,0c0.4,0-0.2,0.3,0.2,0.3c0-0.1,0.1-0.1,0.2-0.2c0,0.2,0.2,0.5,0.4,0.6L16,20c0.3,0.3,0.7,0.5,1.1,0.9
						c-0.1-0.2,0.2-0.4,0.3-0.4l-0.2,0.3c0.2-0.1,0-0.2,0.3-0.2c0.1,0.1-0.2,0.4-0.3,0.4l0.2,0.1c-0.1,0.1-0.1,0.1-0.2,0.2
						c0.2-0.1,0.1,0.5,0.4,0.3l-0.1,0.1c0.4,0.3,0.6,0.4,0.9,0.6c0.2-0.2,0.3-0.1,0.5-0.2c0.2,0.3,0.2,0.6,0.5,0.8
						c0.3,0.1,0.2-0.1,0.4-0.2c-0.2,0.2,0.1,0.4-0.1,0.4c0.3,0.2,0.4,0.3,1,0.5c0-0.1,0-0.2,0.1-0.2c0.1,0,0.1,0.2,0,0.3l0,0
						c0.7,0.1,0.6,1.4,1.3,1.3l0,0l0.6,0.1c0.1,0.2-0.2,0.1-0.2,0.3c0.7,0,0.6,0.6,1.1,0.6c-0.2,0.8,1,0.6,1.1,1.3l0.1-0.2
						c0.2-0.1,0.1,0.2,0.1,0.2c0.1-0.1,0-0.2,0.1-0.2c0.9,0.4,1.5,1.4,2.3,2.1c0.3,0.2,0.7-0.7,0.8-0.1l-0.3,0.2
						c0.9,0.1,1.3,0.8,2.1,0.9c-0.1,0-0.1,0.1-0.2,0.1c0,0.3,0.5,0.3,0.6,0.1c0.1,0.1-0.1,0.2-0.1,0.3c0.1,0.2,0.5-0.1,0.5,0.2
						c0,0-0.1,0-0.1,0.1c0.1-0.1,0.4,0.2,0.5,0c0.2,0.2,0.5,0.1,0.6,0.4c0.3-0.2,0.4,0.4,0.6,0c-0.2,0.4,0.3,0.5,0.5,0.4
						c-0.1,0.1,0.1,0.2-0.1,0.3c0.2,0.1,0.4,0.1,0.5-0.1c0.1,0.7,0.8,0,0.7,0.7c0.7,0,1.2,0.1,1.8,0.2c-0.2,0.4-0.6-0.2-0.7,0.3
						c0.5,0,1-0.2,1.4,0.1c0.1,0.1-0.1,0.2-0.2,0.2c0.5,0,0.9,0.4,1.4,0.3c0,0-0.1,0.1-0.1,0.1c0.1,0,0.2,0.1,0.2-0.1l-0.1,0
						c0-0.3,0.5-0.5,0.6-0.6c-0.3,0.5,0.4,0.3-0.1,0.9c0.1,0,0.2-0.1,0.2-0.2c0.1,0.1,0.1,0.1-0.1,0.3c0.3,0,0.3-0.2,0.6-0.2
						c0,0.1-0.1,0.1-0.2,0.2c0.2-0.1,0.4-0.3,0.6-0.1c0,0.1,0,0.1-0.1,0.1c0.4,0.1,0.8-0.3,1.2,0c-0.2,0.4,0.1,0.2,0,0.6l0.3,0
						l0-0.2c0.2,0.1,0.5-0.2,0.6,0l-0.2,0.1l0.4,0l-0.2-0.2c0.3-0.1,0.1-0.5,0.3-0.3c-0.1,0,0.2,0.1,0.3,0.3l0,0
						c0.1-0.1,0.3-0.2,0.4-0.1c0,0.1-0.1,0.4-0.1,0.5c0.2-0.3,0.5,0,0.7-0.3c-0.1,0.1-0.1,0.3-0.1,0.3l0.1-0.2
						c0.1,0.1,0.1,0.1,0,0.3c0.3,0.1,0-0.5,0.3-0.2c0,0,0,0.1-0.1,0.1c0.3,0.2,0.7,0,1,0.2c0,0.4-0.3,0-0.2,0.4c0.5,0,1-0.3,1.5-0.1
						l-0.1-0.1c0.1-0.5,0.3,0.3,0.6,0.1c-0.1,0-0.1,0.3-0.1,0.2c0.3,0.1,0.7,0,1.1-0.1l-0.1,0.1c0.2,0.1,0.5,0.1,0.7,0.2
						c0.1-0.1,0.2-0.1,0.1-0.3c0.6,0.8,1.2-0.4,1.7,0.3c-0.1,0-0.2,0.1-0.1,0.1l0.5-0.1c0-0.2-0.1-0.1-0.2-0.3
						c0.1-0.1,0.2-0.2,0.3-0.2c-0.2,0.1,0,0.4,0.1,0.5c0-0.1,0-0.1,0-0.2c0.2,0.4,0-0.5,0.4-0.2l0,0.1c0.1-0.1,0.2-0.2,0.4-0.2
						c0.1,0.3-0.1,0.1-0.1,0.3c0.2,0,0.4-0.5,0.5-0.3c-0.1,0.1-0.2,0.1-0.3,0.2c0.2,0.3,0.2,0.2,0.3,0.3l0,0l0.3,0.1l-0.1-0.1
						c0.2-0.7,0.5-0.2,0.8-0.6c-0.3,0.4,0,0.3,0,0.6c0.1,0.1,0.2,0.2,0.2,0.3c0.1-0.3,0.3,0.2,0.5-0.2c0,0.1,0.2,0,0.1,0.2
						c0.2-0.1-0.1-0.2-0.1-0.3c0.3-0.3,0.7,0.4,1.1-0.1c0.3-0.2,0.4-0.6,0.7-0.8c0.1,0.1-0.1,0.4-0.1,0.4c0.2,0.1,0.3,0.1,0.5-0.1
						c0,0.1,0,0.2,0.1,0.3c0.1,0,0-0.4,0.2-0.3c0,0.1,0,0.3-0.1,0.4c0.2-0.1,0.3-0.3,0.4-0.4c0.1,0.2-0.1,0.3-0.1,0.4
						c0.2-0.1,0.5-0.2,0.5-0.5l-0.1-0.1c0.1,0,0.1,0.2,0,0.3c-0.1,0.2-0.3-0.1-0.3-0.2l0.1-0.1c-0.2-0.5-0.5,0.2-0.7,0.2l0-0.4
						L54.8,35c-0.1-0.1-0.1-0.3,0-0.4c-0.2-0.2-0.1,0.2-0.3,0c0,0,0-0.1,0-0.1l-0.2,0.1c0-0.1-0.1-0.3,0-0.2
						c-0.3-0.2-0.4,0.4-0.6,0.1l0,0c-0.4,0.2,0,0.3-0.3,0.7l-0.3-0.7l0,0.3c0,0-0.1,0-0.1-0.1c-0.1,0.2,0,0.1,0,0.3
						c-0.2-0.3-0.6,0.2-0.7-0.3c-0.1,0.2,0.2,0.2,0,0.3c-0.1-0.5-0.3,0.1-0.5-0.1c0-0.3,0.2-0.1,0-0.4c-0.1,0.5-0.4-0.1-0.5,0
						c0,0.4-0.3,0.2-0.6,0.3c0-0.1-0.5-0.2-0.8-0.3l0-0.1c0,0.4-0.3,0.3-0.5,0.4c0-0.2,0-0.3,0.1-0.4l-0.2,0c0,0.1-0.1,0.2-0.2,0.2
						l0.1-0.3c-0.2,0-0.5,0.3-0.8,0.1c0,0.3,0.2,0.7-0.1,0.9c0-0.1,0-0.4,0.1-0.4c0,0-0.1,0.1-0.2,0l0.1-0.2
						c-0.1-0.1-0.1,0.2-0.2,0.2c0-0.2-0.1-0.1,0-0.3c0,0,0.1,0.1,0.1,0c-0.1,0-0.3-0.2-0.3-0.3c0,0.1,0,0.3-0.1,0.3
						c-0.2,0-0.1-0.2-0.2-0.3c-0.1,0.1-0.2,0-0.2,0.3c-0.1,0-0.1-0.1-0.1-0.2c-0.1,0.1-0.6,0-0.5,0.3l0,0l0,0l0,0l0,0
						c-0.4,0.2-0.8-0.3-1.2-0.2l0-0.1c-0.2,0.1-0.5,0-0.7,0.2c-0.1,0-0.1-0.2-0.1-0.3c-0.2,0-0.2,0.2-0.5,0c0.2-0.1,0-0.2,0.2-0.1
						c-0.2-0.1-0.2-0.3-0.5,0c0.1-0.2-0.1-0.3-0.2-0.3l0.1,0.2c-0.1,0-0.2,0-0.3-0.1l0.1-0.3c-0.4-0.5-1,0.5-1.2-0.3
						c-0.2,0.2,0.2,0.2,0,0.5c-0.2-0.1-0.3-0.6-0.4-0.6c-0.2-0.2-0.4,0.4-0.7,0.2c0,0.1,0,0.4-0.3,0.5c-0.2-0.1-0.1-0.5,0-0.6
						c0.1,0,0.1,0,0.1,0.1c0.1,0,0.2-0.1,0.1-0.2l-0.1,0.1c-0.1-0.1-0.4-0.2-0.3-0.4c-0.2,0.1-0.1,0.2,0,0.3
						c-0.2-0.2-0.4-0.1-0.7-0.3c0,0.1,0,0.2,0,0.2c-0.4-0.3-0.2,0.2-0.5,0.1c-0.1-0.2,0.2-0.4-0.1-0.3c-0.1-0.2,0.1-0.3,0.2-0.4
						c-0.3,0.1-0.4-0.3-0.5-0.4l0.2,0c-0.1,0-0.2,0-0.2,0l0,0.2c-0.1-0.1-0.1-0.1-0.1-0.2c-0.1,0.1-0.1,0.4-0.3,0.5
						c-0.1-0.1-0.4,0-0.3-0.3c0.3,0.2,0.1-0.3,0.4-0.3c-0.1,0-0.1,0-0.2-0.1c0,0,0-0.1,0.1-0.1c-0.2-0.4-0.3,0.3-0.6,0.2
						c0.1-0.2,0-0.3,0-0.3c0.1,0,0,0.3-0.2,0.4c-0.2-0.2-0.3,0-0.4,0l0.1,0.1c-0.1,0.1-0.2,0.1-0.4,0.1c0-0.1,0.2,0,0.1-0.1
						c-0.3,0.2-0.2-0.5-0.5-0.3c-0.1-0.2,0.1-0.3,0.1-0.4c-0.3,0.1-0.2-0.3-0.5-0.3c0,0.3,0,0.2-0.3,0.3l0.5,0l-0.4,0.2
						c0.1,0.1,0.3,0,0.4,0c-0.2,0.1-0.2,0.1-0.2,0.3c0-0.4-0.4,0-0.5-0.3l0.2-0.5c-0.2-0.4-0.7,0.1-1-0.3l0.1,0.1
						c-0.1,0.2-0.3-0.1-0.4,0c0.1-0.2,0-0.3,0-0.4c-0.1,0.1-0.3-0.1-0.5,0.2l-0.1-0.3c-0.3-0.3-0.6,0.3-0.9,0.1
						c0.2-0.1,0.1-0.3,0.4-0.4c-0.1-0.1-0.2-0.1-0.2,0c0-0.1-0.4,0.1-0.4-0.1c-0.1,0.1-0.2,0.2-0.3,0.2c0,0,0-0.1,0-0.1
						c0,0.1-0.2,0-0.2,0.3c0-0.7-0.9-0.4-0.9-1c-0.2-0.1-0.5-0.1-0.7-0.2c0,0,0-0.1,0.1,0c-0.2-0.3-0.4,0.4-0.6,0.1
						c0-0.4,0.2-0.1,0.2-0.2c0.3-0.6-0.4-0.1-0.4-0.6l0.1,0c0-0.3-0.5,0-0.7-0.2c0,0,0,0,0.1-0.1c-0.3,0.2-0.7,0.1-1,0
						c0.2-0.2,0.2,0,0.3-0.3c-0.1,0-0.2,0.4-0.4,0.3c0-0.2-0.1-0.4,0-0.6l0.2,0.1c0.1-0.4-0.3-0.1-0.3-0.3l0.1-0.1
						c-0.3-0.1-0.6,0.2-0.9,0l0,0.1c-0.4,0.2,0-0.3-0.4-0.2l0.2-0.4c-0.2,0-0.6,0-0.9-0.1c0.3-0.2,0.6-0.1,0.9-0.2
						c-0.1-0.1-0.4-0.2-0.6-0.1c0.1,0,0.2,0,0.2,0c-0.3,0.2-0.6,0.2-0.8,0c0.5-0.6-0.5-0.6-0.3-1.2c-0.6-0.1-0.7-0.7-1.2-0.9
						c-0.2,0.6-0.1-0.1-0.5,0.4c-0.1,0-0.2-0.1-0.2-0.1l-0.1-0.5c0-0.2,0.2,0,0.3-0.1c-0.2-0.2,0.1-0.3,0-0.5
						c-0.1,0.2-0.3,0.2-0.3,0l0,0.4c-0.5,0,0-0.6-0.5-0.6l0.2-0.1c-0.2,0-0.6-0.5-1.1-0.2c0-0.1,0.1-0.2,0.2-0.2
						c-0.3-0.4-1.2-0.3-1.3-0.8l0.1-0.1c-0.1,0-0.3,0.1-0.3-0.1c0,0,0.1-0.1,0.1-0.1c-0.1,0-0.4,0-0.4-0.1l0.2-0.1
						c-0.2-0.5-0.8-0.2-1.2-0.4c0.3-0.3,0.1-0.7,0-0.9l0,0c-0.4-0.4-1-0.4-1.5-0.6c0.1-0.6-0.7-0.9-0.9-1.4c0,0.1-0.2,0.2-0.3,0.2
						c0-0.2-0.5,0-0.2-0.3l0,0c0.2-0.4,0-0.5-0.2-0.6L17,17.8c0.2-0.9-1.2-0.8-0.9-1.4c-0.2,0-0.3-0.1-0.5-0.1l0.2-0.2
						c-0.2-0.3-0.3-0.4-0.7-0.7l0.2-0.1c-0.2-0.2-0.8,0.4-1,0.2l0.3-0.3c-0.3-0.3-0.3-0.9-0.9-0.9c0,0,0.1-0.1,0.2-0.1
						c-0.1-0.2-0.3-0.8-0.7-0.3c0.3-0.3-0.3-0.3-0.6-0.4l0.2-0.2c-0.4,0.1-0.5,0.2-0.7,0c0-0.1,0.1-0.2,0.1-0.1
						c0-0.3-0.3,0.1-0.4-0.2l0.2-0.1c-0.1-0.2-0.2-0.1-0.4,0c-0.2,0-0.2-0.4-0.1-0.5c-0.1,0.1-0.4,0.1-0.4,0
						c0.1-0.1,0.1-0.1,0.2-0.1c-0.1-0.4-0.6-0.2-0.6-0.5c0.1-0.1,0.1-0.1,0.1-0.1c0.2,0.2,0.3,0.4,0.3,0.4c0.2-0.2,0.1-0.4,0.5-0.5
						c-0.3,0-0.8,0-0.9-0.2c0,0,0,0,0-0.1l0,0c0-0.1-0.1-0.1-0.1-0.1c0-0.1,0-0.1-0.1-0.2c0.1-0.2-0.1-0.3-0.2-0.4
						c-0.2,0.2-0.3,0-0.3,0.3c0,0,0,0,0.1,0c0,0,0,0,0.1,0l0,0c0.1,0.1,0.1,0.1,0.2,0.2c-0.2,0-0.3,0-0.3-0.2
						c-0.2,0.1-0.4,0.1-0.4,0.2c0.2-0.4,0.1-0.8,0.3-1c-0.4-0.2-0.6-0.6-1.2-0.4C8.8,9.8,9,9.7,9,9.6c0.1,0,0.1,0.1,0.2,0
						C9,9.5,8.8,9.2,8.5,9.4c0-0.3,0.4-0.1,0.1-0.3l0.1,0c0-0.9-1.5-0.2-1.4-1.3c0,0.1,0,0.1,0,0.2C6.9,7,5.8,6.7,5.7,5.7
						C5.6,5.4,5.4,5.5,5.2,5.5l0.2-0.2l-0.4,0c-0.4-0.1,0.2-1-0.5-1L4.3,4.5C4.2,4.3,3.9,4.1,4.1,4c0,0-0.2,0.1-0.2,0L4,3.9L3.6,3.7
						C3.5,3.4,4.1,3.4,3.8,3C3.7,2.9,3.2,2.9,3.1,3c0,0.1,0,0.2-0.1,0.3L2.9,3.3C2.5,3.5,2,3.7,2,4.2l0.4,0L2.3,4.5L2.1,4.3
						C2.1,4.5,2.3,4.5,2.4,4.5C2.3,4.6,2.3,4.7,2.3,4.7l0.5-0.1C2.7,4.8,2.4,4.8,2.5,5C2.7,5,2.7,4.6,3,4.7C2.9,4.9,2.7,5,3,5
						C2.9,5.1,2.8,5.1,2.7,5.1c0.2,0,0.3,0.2,0.5,0.1c-0.1,0.3,0.3,0.3,0,0.6c0.1,0,0.4,0,0.5,0.1C3.2,6.1,4,6.3,3.5,6.6
						C4,6.4,4.1,6.9,4.5,7c0,0-0.1,0-0.1,0c0.1,0.2,0,0.3,0,0.4c0.3-0.2,0.5-0.1,0.8-0.1C5,7.7,4.7,7.5,4.5,7.8
						C4.7,7.5,5,7.8,5.1,7.6c-0.1,0.3,0,0.2-0.2,0.4c0.4-0.3,0.2,0.1,0.5,0c0,0.3-0.3,0.3,0,0.4C5.3,8.7,5.1,8.6,5.1,8.6z M9.6,12.5
						L9.6,12.5C9.6,12.5,9.5,12.5,9.6,12.5C9.5,12.5,9.6,12.5,9.6,12.5z M10,12.9c0-0.1-0.1-0.1-0.1-0.2c0.1-0.1,0.1-0.1,0.2-0.1
						C9.9,12.7,10,12.8,10,12.9z M10.7,10.8c0.1,0,0.1,0.1,0,0.1C10.7,10.9,10.7,10.9,10.7,10.8l-0.1,0.1
						C10.6,10.8,10.7,10.8,10.7,10.8z"/>
					<path fill="#FFFFFF" d="M10.3,10.9C10.3,10.9,10.3,10.9,10.3,10.9C10.3,11,10.3,11,10.3,10.9L10.3,10.9L10.3,10.9z"/>
					<path fill="#FFFFFF" d="M47,34.5L47,34.5C47,34.5,47,34.5,47,34.5C47,34.5,47,34.5,47,34.5z"/>
					<polygon fill="#FFFFFF" points="14.4,18.2 14.4,18.2 14.4,18.2 					"/>
					<path fill="#FFFFFF" d="M49.7,35.6C49.7,35.6,49.7,35.7,49.7,35.6C49.8,35.7,49.8,35.6,49.7,35.6z"/>
					<path fill="#FFFFFF" d="M50.9,35.7l0.2,0.1C51,35.7,51,35.7,50.9,35.7z"/>
					<path fill="#FFFFFF" d="M51.9,35.8c0,0,0-0.1,0-0.1l0,0L51.9,35.8z"/>
					<path fill="#FFFFFF" d="M37.3,33.8C37.3,33.8,37.2,33.8,37.3,33.8C37.1,33.8,37.2,33.8,37.3,33.8z"/>
					<path fill="#FFFFFF" d="M41.7,34.4c-0.1,0-0.1,0.1-0.2,0.1C41.6,34.6,41.6,34.6,41.7,34.4z"/>
					<polygon fill="#FFFFFF" points="32.6,32.1 32.6,32.1 32.6,32.1 					"/>
					<path fill="#FFFFFF" d="M41.3,34.5c0.1,0.1,0.1,0.1,0.2,0.1C41.4,34.5,41.4,34.4,41.3,34.5z"/>
					<path fill="#FFFFFF" d="M55.9,35.5L55.9,35.5C55.9,35.5,55.9,35.4,55.9,35.5L55.9,35.5z"/>
					<path fill="#FFFFFF" d="M55.9,35.4L55.9,35.4C56,35.4,55.9,35.4,55.9,35.4z"/>
					<path fill="#FFFFFF" d="M56.1,35.3L56.1,35.3C56,35.4,56.1,35.4,56.1,35.3z"/>
					<path fill="#FFFFFF" d="M54.6,35.5l0,0.1C54.7,35.6,54.7,35.6,54.6,35.5z"/>
					<path fill="#FFFFFF" d="M54.3,35.6c0.1,0,0.2,0.2,0.4,0.1l0-0.1C54.6,35.8,54.3,35.4,54.3,35.6z"/>
					<path fill="#FFFFFF" d="M52.6,34.5l0.3,0.1c-0.1-0.1-0.1-0.2,0-0.3C52.5,34,53,34.5,52.6,34.5z"/>
					<path fill="#FFFFFF" d="M51.7,34.4c0.2-0.1,0-0.2,0-0.2C51.6,34.3,51.6,34.3,51.7,34.4z"/>
					<path fill="#FFFFFF" d="M45,34l0.1-0.3C44.9,33.8,45,33.9,45,34z"/>
					<polygon fill="#FFFFFF" points="43.5,35.1 43.5,35.3 43.6,35.1 					"/>
					<polygon fill="#FFFFFF" points="43.1,33.1 43.1,33.1 42.9,33.2 					"/>
					<path fill="#FFFFFF" d="M32.6,29.3l-0.1,0.3C32.6,29.5,32.7,29.2,32.6,29.3z"/>
					<path fill="#FFFFFF" d="M28.2,27c0-0.2,0-0.3-0.2-0.2C28.1,26.9,28.1,27,28.2,27z"/>
					<polygon fill="#FFFFFF" points="17.1,17.3 17.2,17.3 17,17.3 					"/>
				</g>
			</g>
		</g>
		<g>
			<g>
				<g>
					<path fill="#FFFFFF" d="M28.2,6.4c0-0.1,0-0.3-0.1-0.2l0,0.3L28.2,6.4z"/>
					<path fill="#FFFFFF" d="M27.5,5.9c-0.1,0.2-0.1,0.5,0,0.8c0-0.3,0.1-0.2,0.1-0.6c0.1-0.1,0.2,0.1,0.2,0.2
						c0-0.1,0.1,0.1,0.1-0.2c-0.1-0.2-0.3-0.2-0.4,0C27.5,6,27.5,5.9,27.5,5.9z"/>
					<path fill="#FFFFFF" d="M19.5,5.9L19.5,5.9C19.6,6,19.6,6,19.5,5.9z"/>
					<path fill="#FFFFFF" d="M14.7,5.2C14.8,5.2,14.8,5.1,14.7,5.2C14.7,5.1,14.7,5.1,14.7,5.2z"/>
					<path fill="#FFFFFF" d="M14,4.6C14,4.6,14,4.7,14,4.6C14,4.6,14,4.6,14,4.6z"/>
					<path fill="#FFFFFF" d="M19.5,5.9l-0.1-0.1C19.4,5.9,19.5,5.9,19.5,5.9z"/>
					<path fill="#FFFFFF" d="M26.5,6.8C26.6,6.8,26.6,6.8,26.5,6.8C26.6,6.7,26.6,6.8,26.5,6.8L26.5,6.8z"/>
					<path fill="#FFFFFF" d="M21.7,5.7L21.7,5.7c0,0,0.1-0.1,0.1-0.1L21.7,5.7z"/>
					<path fill="#FFFFFF" d="M23.3,5.5c0,0,0,0.3,0,0.4c0-0.1,0-0.2,0.1-0.2C23.4,5.7,23.4,5.6,23.3,5.5z"/>
					<path fill="#FFFFFF" d="M26,5.7L26,5.7C26,5.7,26,5.7,26,5.7z"/>
					<path fill="#FFFFFF" d="M20.5,5.6c0,0,0-0.1,0-0.1C20.5,5.6,20.5,5.6,20.5,5.6z"/>
					<path fill="#FFFFFF" d="M8.7,27.3C8.7,27.3,8.6,27.3,8.7,27.3C8.7,27.3,8.7,27.3,8.7,27.3z"/>
					<polygon fill="#FFFFFF" points="7.6,29.4 7.6,29.4 7.4,29.4 					"/>
					<path fill="#FFFFFF" d="M12.6,3.9L12.6,3.9C12.7,3.9,12.7,3.9,12.6,3.9z"/>
					<path fill="#FFFFFF" d="M0.7,3.4c0.2-0.2,0.5,0.4,0.7,0.1C1.3,3.6,0.8,3.2,0.7,3.4z"/>
					<path fill="#FFFFFF" d="M26.5,6.8C26.5,6.8,26.5,6.8,26.5,6.8C26.5,6.8,26.5,6.8,26.5,6.8z"/>
					<path fill="#FFFFFF" d="M1.4,3.6L1.4,3.6L1.4,3.6C1.4,3.6,1.4,3.6,1.4,3.6z"/>
					<path fill="#FFFFFF" d="M9.3,3c0,0,0,0.1,0,0.1C9.3,3.1,9.3,3,9.3,3z"/>
					<path fill="#FFFFFF" d="M11.6,4.2L11.6,4.2C11.6,4.2,11.6,4.2,11.6,4.2z"/>
					<path fill="#FFFFFF" d="M7.8,2.9C7.8,2.8,7.8,2.8,7.8,2.9C7.7,2.8,7.7,2.8,7.8,2.9C7.8,2.8,7.8,2.8,7.8,2.9z"/>
					<path fill="#FFFFFF" d="M6.5,2.4C6.5,2.4,6.5,2.4,6.5,2.4L6.5,2.4L6.5,2.4z"/>
					<path fill="#FFFFFF" d="M7.8,22.9c-0.1,0-0.2,0.1-0.2,0.1C7.7,23,7.9,23.2,7.8,22.9z"/>
					<path fill="#FFFFFF" d="M26.5,6.7c0,0.1,0,0.1,0,0.1c0,0,0,0,0,0C26.5,6.7,26.5,6.7,26.5,6.7z"/>
					<path fill="#FFFFFF" d="M7,4.9L6.8,4.8C6.8,4.8,6.9,4.9,7,4.9z"/>
					<path fill="#FFFFFF" d="M5.6,12.8L5.6,12.8C5.7,12.8,5.7,12.8,5.6,12.8z"/>
					<path fill="#FFFFFF" d="M6.1,4.6c0-0.1,0-0.2-0.1-0.2c0,0,0,0-0.1,0.1L6.1,4.6z"/>
					<path fill="#FFFFFF" d="M7.6,23.1L7.6,23.1L7.6,23.1z"/>
					<path fill="#FFFFFF" d="M8.5,24.4c0-0.2-0.4,0-0.6,0c-0.1-0.2,0.2-0.2,0.4-0.3c-0.1-0.1-0.5-0.2-0.5-0.3c0.1,0,0.1,0,0.2,0
						c-0.3-0.1-0.1-0.5-0.5-0.6c0,0,0.1,0,0.1,0c-0.2,0.1-0.4,0.1-0.5,0.1C7,23.1,6.8,23,7,23C7,23,7.1,23,7.2,23l-0.1-0.1
						c0.3-0.2,0.1,0.1,0.4,0.1c-0.1-0.2-0.5-0.4-0.4-0.5c0.3-0.1,0.2,0.3,0.4,0.1l-0.1,0.3c0.5-0.3,0,0.1,0.5-0.1
						c0-0.3-0.2-0.3-0.2-0.6c-0.2,0-0.3,0.1-0.5,0c-0.4-0.4,0.8-0.5,0.3-0.7c-0.2,0-0.7,0-0.5-0.3l0.4,0c0-0.3-0.6-0.1-0.4-0.4
						c0.2,0,0.2,0.2,0.2,0.2C7.5,20.6,7,20.7,7,20.6l0.3-0.1c-0.1-0.3-0.4-0.6-0.6-0.9c0.1,0,0.2,0,0.3-0.1c-0.3-0.4-0.2-1,0-1.4
						l-0.3-0.1c0,0,0.1-0.1,0.2-0.1c0.1-0.2-0.2,0-0.3,0c0-0.1,0.1-0.2,0.2-0.1c-0.3-0.2-0.7-0.7-0.5-1.1l0.1,0
						c0.1-0.3-0.6-0.1-0.4-0.4l0.1,0c0-0.5-0.4-1.1,0-1.6c-0.4,0,0.1-0.6-0.5-0.5C5.8,13.9,5.9,14,6,13.5c0-0.1-0.4-0.1-0.5-0.2
						l0.3-0.1l-0.4-0.1l0.3-0.2l-0.1-0.1c0,0.1-0.1,0.1-0.2,0.2c-0.2-0.2,0.1-0.5,0.2-0.6L5.4,12c0.1,0,0.2,0.1,0.3,0.1
						c-0.4-0.2,0.3-0.1,0-0.3c-0.1,0-0.2,0-0.2,0c0.2-0.2,0.1-0.4,0-0.6l0.2,0c0-0.4-0.3-0.7-0.4-1.1c-0.1,0.2-0.4,0.2-0.5,0.1
						L5,10.1c-0.2,0-0.1,0.2-0.4,0.1c0-0.2,0.3-0.2,0.5-0.1L4.9,9.8c0.1,0,0.2,0,0.3,0C5,9.8,5.4,9.4,5.1,9.4l0.1,0
						C5.1,9,4.9,8.8,4.8,8.5C4.5,8.5,4.6,8.4,4.3,8.4c0-0.3,0.2-0.6,0.1-0.9c-0.2-0.2-0.2,0-0.4,0c0.2-0.1,0.1-0.4,0.4-0.3
						C4.2,6.9,4.1,6.8,3.8,6.4C3.7,6.5,3.7,6.5,3.6,6.5C3.5,6.5,3.7,6.3,3.8,6.3l0,0C3.3,5.9,4.2,5,3.6,4.8l0,0L3.2,4.5
						c0-0.2,0.2,0.1,0.3-0.1C3,3.9,3.5,4,3.2,3.8c0.4,0,0.4,0,0.3,0c-0.1-0.1-0.2-0.2,0.1,0L3.4,3.6C3.1,3.4,3.5,3.7,3.6,3.7
						C3.4,3.6,3.3,3.6,3.2,3.5C3.1,3.4,3.1,3.3,3.1,3.2c0,0,0-0.1,0.2,0.1c0.3,0.2,0.5,0.5,0.5,0.6c0,0.1-0.5-1.2-0.2-0.6
						c0,0,0,0.1,0,0.2c0,0.1,0.1,0.2,0.1,0.2c0-0.2,0.1-0.2,0.1-0.2c0.1,0,0,0,0.2,0.1c0.2,0,0.3,0.1,0.5,0C4.4,3.7,4.4,3.8,4.3,3.8
						c0,0.3,0.4,0.2,0.5,0c0.1,0.1,0,0.2,0,0.3c0.1,0.2,0.4-0.2,0.4,0.1c0,0-0.1,0.1-0.1,0.1c0.1-0.1,0.4,0.2,0.4-0.1
						c0.2,0.2,0.5,0,0.6,0.3c0.2-0.2,0.3,0.3,0.5-0.1C6.4,4.7,6.9,4.7,7.1,4.6C7,4.7,7.1,4.8,7,4.9C7.2,5,7.4,5,7.4,4.7
						c0.1,0.6,0.7-0.2,0.7,0.5c0.6-0.1,1.1,0,1.5,0C9.4,5.7,9.1,5.1,9,5.6c0.5,0,0.8-0.3,1.2-0.1c0.1,0.1-0.1,0.2-0.2,0.2
						c0.5,0,0.8,0.3,1.2,0.2c0,0-0.1,0.1-0.1,0.1c0.1,0,0.2,0.1,0.2-0.1l-0.1,0c0-0.3,0.5-0.5,0.5-0.7c-0.3,0.5,0.3,0.3-0.1,0.9
						c0.1,0,0.1-0.1,0.2-0.2c0.1,0.1,0.1,0.1-0.1,0.3C12.1,6.2,12,6,12.3,6c0,0.1-0.1,0.1-0.1,0.2c0.2-0.1,0.3-0.3,0.5-0.2
						c0,0.1,0,0.1-0.1,0.1c0.4,0.1,0.7-0.3,1.1-0.1c-0.2,0.4,0.1,0.2,0,0.5l0.2-0.1l0-0.2c0.2,0,0.4-0.2,0.5,0l-0.2,0.1l0.4,0
						l-0.2-0.2c0.2-0.2,0.1-0.5,0.3-0.3c-0.1,0,0.2,0,0.2,0.3l0,0c0.1-0.1,0.2-0.2,0.3-0.1c0,0.1-0.1,0.4-0.1,0.5
						c0.1-0.3,0.4,0,0.6-0.3c-0.1,0.1-0.1,0.3-0.1,0.3l0.1-0.2c0.1,0.1,0.1,0.1,0,0.3c0.2,0.1,0-0.5,0.3-0.2c0,0,0,0.1-0.1,0.1
						c0.3,0.2,0.6-0.1,0.9,0.1c0,0.4-0.3,0.1-0.2,0.4c0.4,0,0.9-0.4,1.3-0.2l-0.1,0c0.1-0.5,0.3,0.3,0.5,0.1c-0.1,0-0.1,0.3-0.1,0.2
						c0.3,0.1,0.6-0.1,1-0.2L19.3,7c0.2,0.1,0.4,0.1,0.6,0.2C19.9,7,20,7,20,6.8c0.5,0.8,1-0.4,1.5,0.2c-0.1,0-0.1,0.1-0.1,0.1
						L21.8,7c0-0.2-0.1-0.1-0.1-0.3c0-0.1,0.2-0.2,0.3-0.2c-0.2,0.2,0,0.4,0.1,0.5c0-0.1,0-0.1,0-0.2c0.2,0.4,0-0.5,0.3-0.2l0,0.1
						c0.1-0.1,0.2-0.2,0.3-0.2c0.1,0.3-0.1,0.1-0.1,0.4c0.2,0,0.3-0.5,0.4-0.3c-0.1,0.1-0.2,0.1-0.2,0.2C22.9,7,22.9,6.9,23,7l0,0
						l0.3,0.1L23.2,7c0.1-0.7,0.4-0.2,0.6-0.6c-0.2,0.4,0,0.3,0,0.6C23.9,7,24,7.1,24,7.2c0.1-0.3,0.2,0.2,0.4-0.2
						c0,0.1,0.1,0,0.1,0.2c0.2-0.1-0.1-0.2-0.1-0.3c0.2-0.4,0.6,0.3,1-0.2C25.7,6.5,25.7,6.2,26,6c0.1,0.1,0,0.4,0,0.4
						c0.2,0.1,0.3,0.1,0.4-0.1c0,0.1,0,0.2,0.1,0.3c0.1,0,0-0.4,0.2-0.2c0,0.1,0,0.3-0.1,0.4c0.1-0.1,0.2-0.3,0.4-0.4
						c0.1,0.2,0,0.3-0.1,0.4c0.2-0.1,0.4-0.2,0.4-0.5l-0.1-0.1c0.1,0,0.1,0.2,0,0.3C27.1,6.6,27,6.3,27,6.2l0.1-0.1
						c-0.2-0.5-0.4,0.2-0.6,0.2l0-0.4l-0.2,0.4c-0.1-0.1-0.1-0.3,0-0.4c-0.2-0.2-0.1,0.2-0.3,0c0,0,0-0.1,0-0.1l-0.1,0.1
						c0-0.1-0.1-0.3,0-0.2c-0.3-0.2-0.4,0.4-0.5,0.1l0,0c-0.3,0.2,0,0.3-0.2,0.7l-0.3-0.7l0,0.3c0,0-0.1,0-0.1-0.1
						c-0.1,0.2,0,0.1,0,0.3c-0.2-0.3-0.5,0.2-0.6-0.3c0,0.2,0.2,0.2,0,0.3c-0.1-0.5-0.2,0.1-0.4-0.1c0-0.3,0.2-0.1,0-0.4
						c-0.1,0.5-0.3-0.1-0.5,0c0,0.4-0.3,0.2-0.5,0.3c0-0.1-0.5-0.2-0.7-0.3l0-0.1c0,0.4-0.3,0.3-0.4,0.4c0-0.2,0-0.3,0.1-0.4l-0.2,0
						c0,0.1-0.1,0.2-0.2,0.2l0-0.3c-0.2,0-0.4,0.3-0.7,0.2c0,0.3,0.2,0.7-0.1,0.9c0-0.1,0-0.4,0-0.4c0,0-0.1,0.1-0.1,0.1l0.1-0.2
						c-0.1-0.1-0.1,0.2-0.2,0.2c0-0.2-0.1-0.1-0.1-0.3c0,0,0.1,0.1,0.1,0c-0.1,0-0.2-0.1-0.3-0.3c0,0.1,0,0.3-0.1,0.3
						c-0.2,0-0.1-0.2-0.2-0.3c-0.1,0.1-0.2,0-0.2,0.3C20,5.9,20,5.7,20,5.7c-0.1,0.1-0.5,0-0.4,0.3l0,0l0,0l0,0l0,0
						c-0.4,0.3-0.7-0.2-1.1-0.1l0-0.1c-0.2,0.1-0.5,0-0.6,0.2c-0.1,0-0.1-0.2-0.1-0.3c-0.2,0.1-0.2,0.2-0.4,0c0.2-0.2,0-0.2,0.2-0.1
						c-0.2-0.1-0.2-0.3-0.5,0c0.1-0.2-0.1-0.3-0.2-0.3l0.1,0.2c-0.1,0-0.2,0-0.3-0.1l0.1-0.3c-0.3-0.5-0.8,0.6-1-0.1
						c-0.1,0.2,0.2,0.2,0.1,0.4c-0.2-0.1-0.3-0.6-0.3-0.6c-0.2-0.2-0.3,0.4-0.6,0.3c0,0.1,0,0.4-0.2,0.5c-0.2-0.1-0.1-0.5,0-0.6
						c0,0,0.1,0,0,0.1c0.1,0,0.2-0.1,0.1-0.2l0,0.1c-0.1-0.1-0.3-0.2-0.2-0.4c-0.2,0.1-0.1,0.2,0,0.3c-0.2-0.2-0.4-0.1-0.6-0.3
						c0,0.1,0,0.2,0,0.2c-0.3-0.2-0.2,0.2-0.5,0.2c-0.1-0.2,0.2-0.4-0.1-0.3c-0.1-0.2,0-0.3,0.1-0.4c-0.3,0.2-0.4-0.2-0.5-0.3
						l0.1-0.1c-0.1,0-0.1,0-0.2,0l0,0.2C13,4.1,12.9,4.1,12.9,4c-0.1,0.1-0.1,0.4-0.2,0.6c-0.1-0.1-0.3,0-0.3-0.3
						C12.7,4.5,12.5,4,12.7,4c-0.1,0-0.1,0-0.2-0.1c0,0,0-0.1,0.1-0.1c-0.2-0.4-0.2,0.3-0.5,0.2c0.1-0.2,0-0.3,0-0.3
						c0.1,0,0,0.3-0.2,0.4c-0.1-0.2-0.2,0-0.3,0l0.1,0.1c-0.1,0.2-0.2,0.1-0.3,0.1c0-0.1,0.1-0.1,0.1-0.1C11.3,4.5,11.3,3.9,11,4
						c-0.1-0.1,0.1-0.3,0-0.4c-0.3,0.1-0.2-0.3-0.4-0.2c0,0.2,0,0.2-0.2,0.4l0.4,0L10.5,4c0.1,0,0.3-0.1,0.3,0
						c-0.2,0.1-0.1,0.1-0.2,0.3c0-0.4-0.4,0.1-0.5-0.2l0.2-0.6c-0.2-0.3-0.6,0.1-0.9-0.1l0.1,0.1c-0.1,0.2-0.2,0-0.4,0
						c0.1-0.2,0-0.3,0-0.4C9.2,3.2,9,3,8.8,3.3L8.8,3C8.5,2.8,8.2,3.5,8,3.3c0.2-0.2,0.1-0.3,0.3-0.4c-0.1,0-0.2-0.1-0.2,0
						c0-0.1-0.3,0.2-0.4-0.1C7.7,2.9,7.6,3.1,7.5,3c0,0,0-0.1,0-0.1C7.5,3,7.3,3,7.3,3.3C7.3,2.6,6.5,3,6.5,2.4
						c-0.2,0-0.5,0-0.7-0.1c0-0.1,0-0.1,0.1-0.1C5.7,2,5.5,2.7,5.3,2.4c0-0.4,0.2-0.1,0.2-0.3c0.2-0.6-0.4,0-0.4-0.5l0.1,0
						c0-0.1-0.1-0.1-0.3-0.1c-0.1,0-0.1,0-0.2,0.1c-0.1,0-0.2,0-0.3-0.1c0,0,0,0,0-0.1c-0.3,0.2-0.7,0.2-1,0.2c0-0.3,0.1-0.1,0-0.4
						c-0.1,0,0.1,0.5-0.1,0.5C3.2,1.6,3,1.4,2.9,1l0.3,0.1C2.9,0.6,2.8,1,2.6,0.8L2.5,0.7C2.1,0.5,2.4,1.1,1.9,0.9L2.1,1
						C2.2,1.5,1.7,0.7,1.7,1L1.2,0.4C1.2,0.5,1.1,0.7,1,0.8C0.7,0.4,0.9,0.3,0.9,0.1C0.7,0,0.3-0.1,0.5,0.2c0,0,0-0.2,0.1,0
						c0.1,0.2,0.2,0.3,0.1,0.4c0,0,0,0.1-0.1,0.1c0,0,0,0,0,0.1c0,0,0,0.1,0,0.1C0.2,0.2,0.2,0.3,0.2,0.6c0,0.2,0.1,0.5-0.2,0.3
						c0.3,0.5,0.4,0.8,0.4,1.1c0,0.3,0,0.6,0.2,1.1c0.6-0.1,0.1,0.2,0.8,0.3c0.1,0.2,0.1,0.2,0.1,0.2c0,0-0.2,0.5-0.2,0.5
						C1,4.2,1,3.9,0.8,3.9c0.1,0.4-0.2,0.2-0.3,0.5c0.2-0.1,0.4,0.1,0.3,0.4c0,0,0.2-0.4,0.2-0.4c0.3,0.3,0.1,0.4,0,0.5
						C1,5,0.9,5.1,1.1,5.2L0.9,5.1c0.2,0.1,0.2,0.6,0.7,0.7C1.6,5.9,1.4,6,1.3,5.9c0.1,0.4,0.8,0.8,0.6,1.2l-0.2,0
						c0.1,0.1,0.3,0.1,0.2,0.2c-0.1,0-0.2,0-0.2,0c0.1,0,0.3,0.1,0.3,0.3l-0.2,0C1.8,8,2.4,8.1,2.6,8.4C2.2,8.5,2.1,8.9,2.1,9.1
						l-0.1,0c0.1,0.5,0.6,0.7,0.8,1.1c-0.4,0.4,0,1-0.1,1.5c0.1-0.1,0.3-0.1,0.4,0c-0.1,0.1,0.4,0.2,0,0.3l0,0
						c-0.4,0.2-0.2,0.4-0.2,0.5l0.5-0.1C2.9,13,4,13.5,3.4,13.8c0.2,0.1,0.2,0.2,0.3,0.3l-0.3,0.1c0,0.3,0,0.5,0.1,0.8l-0.2,0
						c0,0.2,0.9,0.1,0.9,0.3l-0.4,0.1c0.1,0.4-0.2,0.8,0.3,1.1c-0.1,0-0.2,0-0.2,0c0,0.2-0.1,0.7,0.4,0.5c-0.4,0.1,0,0.4,0.2,0.5
						l-0.3,0c0.4,0.1,0.5,0.1,0.6,0.3c0,0.1-0.2,0.1-0.2,0C4.7,18,5.1,17.9,5,18.1l-0.2,0c0,0.2,0.1,0.2,0.3,0.2
						c0.1,0.1,0,0.4-0.2,0.4c0.2,0,0.4,0.1,0.3,0.2c-0.1,0-0.2,0-0.2,0c-0.1,0.3,0.4,0.4,0.2,0.7c-0.1,0-0.1,0-0.2,0.1
						c0-0.2-0.1-0.5,0-0.4c-0.3,0.1-0.3,0.3-0.6,0.2c0.2,0.1,0.7,0.3,0.6,0.5c0,0,0,0-0.1,0l0,0c0,0,0,0.1,0.1,0.1
						c0,0.1-0.1,0.1,0,0.2c-0.2,0.1-0.1,0.3-0.1,0.4c0.3-0.1,0.3,0.1,0.5-0.1c0,0,0,0-0.1-0.1c0,0,0,0,0,0l0,0c0-0.1,0-0.1-0.1-0.2
						c0.2,0.1,0.3,0.1,0.2,0.3c0.2,0,0.4,0,0.5,0.1c-0.4,0.2-0.5,0.5-0.7,0.6c0.2,0.3,0.2,0.7,0.8,0.8C5.9,21.9,5.7,22,5.7,22
						c-0.1,0-0.1-0.1-0.1-0.1c0.2,0.1,0.1,0.5,0.5,0.5c-0.1,0.2-0.4-0.1-0.2,0.2l-0.1,0c-0.5,0.7,1.1,0.8,0.5,1.6
						c0-0.1,0.1-0.1,0.1-0.1c-0.2,0.8,0.6,1.5,0.2,2.3c-0.1,0.2,0.2,0.2,0.4,0.3l-0.3,0.1L6.9,27c0.3,0.3-0.6,0.7-0.1,1L7,27.9
						c0,0.1,0.2,0.4,0,0.4c0,0,0.2,0,0.1,0.1l-0.2,0l0.3,0.3c-0.1,0.3-0.6,0.1-0.6,0.4c0.1,0.1,0.5,0.3,0.6,0.3
						c0-0.1,0.1-0.2,0.2-0.2l0.1,0.1c0.5,0,1,0,1.2-0.4l-0.3-0.2l0.2-0.1l0,0.2c0.2-0.1,0-0.2-0.1-0.2c0.1,0,0.2-0.1,0.2-0.1
						l-0.5-0.2c0.2-0.1,0.4,0,0.4-0.1c-0.2-0.1-0.4,0.2-0.5,0c0.2-0.1,0.4-0.1,0.2-0.2c0.1,0,0.2,0,0.3,0c-0.2-0.1-0.1-0.3-0.4-0.3
						c0.2-0.2-0.1-0.4,0.3-0.4c-0.1,0-0.4-0.1-0.4-0.3c0.6,0.1,0-0.4,0.5-0.4c-0.5-0.1-0.3-0.5-0.6-0.7c0,0,0.1,0,0.1,0
						c0-0.1,0.1-0.2,0.2-0.3c-0.4,0-0.5-0.2-0.8-0.2c0.3-0.2,0.5,0,0.8-0.1c-0.3,0.1-0.4-0.3-0.6-0.1C8.1,25,8,25,8.3,24.9
						c-0.5,0.1-0.1-0.1-0.4-0.2c0.2-0.2,0.4-0.1,0.3-0.3C8.3,24.3,8.5,24.4,8.5,24.4z M6.7,19.6L6.7,19.6
						C6.7,19.6,6.7,19.6,6.7,19.6C6.7,19.6,6.7,19.6,6.7,19.6z M6.6,19.1c0,0.1,0,0.1,0,0.2c-0.1,0-0.2,0-0.2,0
						C6.5,19.3,6.5,19.2,6.6,19.1z M4.9,20.4c-0.1-0.1,0-0.1,0.1-0.1c0,0,0,0.1,0.1,0.1l0,0C5,20.4,4.9,20.4,4.9,20.4z"/>
					<path fill="#FFFFFF" d="M5.3,20.4C5.3,20.5,5.3,20.5,5.3,20.4C5.3,20.5,5.3,20.4,5.3,20.4L5.3,20.4L5.3,20.4z"/>
					<path fill="#FFFFFF" d="M19.6,6L19.6,6C19.6,6,19.6,6,19.6,6C19.6,6,19.6,6,19.6,6z"/>
					<polygon fill="#FFFFFF" points="5.9,13.2 5.8,13.2 5.9,13.2 					"/>
					<path fill="#FFFFFF" d="M22,7C22,7,22,7,22,7C22,7,22,7,22,7z"/>
					<path fill="#FFFFFF" d="M23,7L23.2,7C23.1,7,23,7,23,7z"/>
					<path fill="#FFFFFF" d="M23.8,7c0,0,0-0.1,0-0.1l0,0L23.8,7z"/>
					<path fill="#FFFFFF" d="M11.1,6C11.1,6,11.1,6,11.1,6C11,6,11,6,11.1,6z"/>
					<path fill="#FFFFFF" d="M14.9,6.3c0,0-0.1,0.1-0.1,0.1C14.9,6.4,14.9,6.5,14.9,6.3z"/>
					<polygon fill="#FFFFFF" points="7,4.9 7,4.9 7,4.9 					"/>
					<path fill="#FFFFFF" d="M14.6,6.4c0.1,0.1,0.1,0.1,0.2,0C14.7,6.4,14.7,6.3,14.6,6.4z"/>
					<path fill="#FFFFFF" d="M27.3,6.7L27.3,6.7C27.3,6.7,27.3,6.7,27.3,6.7L27.3,6.7z"/>
					<path fill="#FFFFFF" d="M27.3,6.7L27.3,6.7C27.3,6.7,27.3,6.7,27.3,6.7z"/>
					<path fill="#FFFFFF" d="M27.4,6.6L27.4,6.6C27.4,6.6,27.4,6.7,27.4,6.6z"/>
					<path fill="#FFFFFF" d="M26.2,6.8l0,0.1C26.2,6.8,26.2,6.8,26.2,6.8z"/>
					<path fill="#FFFFFF" d="M25.9,6.8C26,6.9,26.1,7,26.2,7l0-0.1C26.2,7,25.9,6.7,25.9,6.8z"/>
					<path fill="#FFFFFF" d="M24.4,5.7l0.3,0.1c-0.1-0.1-0.1-0.2,0-0.3C24.3,5.2,24.8,5.7,24.4,5.7z"/>
					<path fill="#FFFFFF" d="M23.6,5.7c0.1-0.1,0-0.2,0-0.2C23.5,5.5,23.5,5.6,23.6,5.7z"/>
					<path fill="#FFFFFF" d="M17.8,5.7l0-0.3C17.7,5.4,17.8,5.5,17.8,5.7z"/>
					<polygon fill="#FFFFFF" points="16.5,6.8 16.6,7 16.7,6.8 					"/>
					<polygon fill="#FFFFFF" points="16.1,4.9 16.2,4.9 16,5 					"/>
					<path fill="#FFFFFF" d="M6.8,2.2L6.7,2.5C6.8,2.5,7,2.2,6.8,2.2z"/>
					<path fill="#FFFFFF" d="M1.8,0.6C1.6,0.4,1.4,0.2,1.4,0.4C1.6,0.4,1.8,0.7,1.8,0.6z"/>
					<polygon fill="#FFFFFF" points="3.2,12.7 3,12.6 3.2,12.7 					"/>
				</g>
			</g>
		</g>
	</g>
</g>
</svg>
