<?xml version="1.0" encoding="utf-8"?>
<!-- Generator: Adobe Illustrator 18.0.0, SVG Export Plug-In . SVG Version: 6.00 Build 0)  -->
<!DOCTYPE svg PUBLIC "-//W3C//DTD SVG 1.1//EN" "http://www.w3.org/Graphics/SVG/1.1/DTD/svg11.dtd">
<svg version="1.1" id="Layer_1" xmlns="http://www.w3.org/2000/svg" xmlns:xlink="http://www.w3.org/1999/xlink" x="0px" y="0px"
	 viewBox="0 0 31.8 64.7" enable-background="new 0 0 31.8 64.7" xml:space="preserve">
<g>
	<g>
		<path fill="none" d="M0,23.5c9.9-6.9,11.2-12.1,15.8-22.2c6.1,12.1,15.4,24.5,15.4,24.5 M0,64.2c14.4-9.8,19.9-28.1,16.2-60.3"/>
		<g>
			<g>
				<g>
					<path fill="#FFFFFF" d="M0.4,64.7c-0.1-0.1-0.2-0.2-0.1-0.2l0.2,0.2L0.4,64.7z"/>
					<path fill="#FFFFFF" d="M0.5,63.8c0.2,0.1,0.5,0.2,0.6,0.5c-0.3-0.2-0.2-0.1-0.5-0.3c-0.1,0-0.1,0.2,0,0.3
						c-0.1,0-0.1,0.1-0.2,0c0-0.3,0.1-0.4,0.3-0.3C0.7,63.9,0.6,63.9,0.5,63.8z"/>
					<path fill="#FFFFFF" d="M7,57.2L7,57.2C7,57.3,7,57.2,7,57.2z"/>
					<path fill="#FFFFFF" d="M10.1,52.4C10,52.5,10,52.5,10.1,52.4C10,52.4,10.1,52.4,10.1,52.4z"/>
					<path fill="#FFFFFF" d="M10.2,51.4C10.2,51.5,10.2,51.5,10.2,51.4C10.2,51.5,10.2,51.4,10.2,51.4z"/>
					<path fill="#FFFFFF" d="M7,57.2L7,57C7.1,57.1,7,57.1,7,57.2z"/>
					<path fill="#FFFFFF" d="M2.1,63.7c0,0-0.1,0-0.1,0C2,63.7,2,63.7,2.1,63.7L2.1,63.7z"/>
					<path fill="#FFFFFF" d="M5.1,58.9L5.1,58.9c-0.1,0-0.1,0-0.2,0L5.1,58.9z"/>
					<path fill="#FFFFFF" d="M3.7,60.2c0,0,0.2,0.2,0.3,0.2c-0.1-0.1-0.2-0.1-0.2-0.1C3.8,60.3,3.8,60.3,3.7,60.2z"/>
					<path fill="#FFFFFF" d="M1.7,62.5L1.7,62.5C1.7,62.5,1.7,62.5,1.7,62.5z"/>
					<path fill="#FFFFFF" d="M6,57.8C6,57.8,5.9,57.8,6,57.8C6,57.8,6,57.8,6,57.8z"/>
					<path fill="#FFFFFF" d="M17.7,6C17.7,6,17.7,6,17.7,6C17.7,6,17.7,6,17.7,6z"/>
					<polygon fill="#FFFFFF" points="16.1,3.9 16.1,4 16,4 					"/>
					<path fill="#FFFFFF" d="M10.7,49.7L10.7,49.7C10.6,49.7,10.7,49.7,10.7,49.7z"/>
					<path fill="#FFFFFF" d="M15.3,34.3c0.2,0.2,0.4-0.3,0.6,0.1C15.8,34.3,15.5,34.6,15.3,34.3z"/>
					<path fill="#FFFFFF" d="M2.1,63.7C2.1,63.6,2.1,63.6,2.1,63.7C2.1,63.6,2.1,63.6,2.1,63.7z"/>
					<path fill="#FFFFFF" d="M15.9,34.4L15.9,34.4L15.9,34.4C16,34.4,16,34.4,15.9,34.4z"/>
					<path fill="#FFFFFF" d="M12.4,46.1C12.5,46.1,12.5,46.1,12.4,46.1C12.5,46.1,12.5,46.1,12.4,46.1z"/>
					<path fill="#FFFFFF" d="M11.7,49L11.7,49C11.7,49,11.7,49,11.7,49z"/>
					<path fill="#FFFFFF" d="M13.3,44.7c0,0,0-0.1,0-0.1C13.4,44.6,13.4,44.6,13.3,44.7C13.3,44.6,13.3,44.7,13.3,44.7z"/>
					<polygon fill="#FFFFFF" points="13.8,43.1 13.9,43.2 13.8,43.2 					"/>
					<path fill="#FFFFFF" d="M18.1,11.2c-0.1,0-0.2,0-0.3-0.1C18,11.1,18.1,10.9,18.1,11.2z"/>
					<path fill="#FFFFFF" d="M2,63.6C2,63.6,2,63.7,2.1,63.7C2.1,63.7,2,63.7,2,63.6C2,63.6,2,63.6,2,63.6z"/>
					<path fill="#FFFFFF" d="M15.5,45.3l0-0.3C15.5,45.2,15.5,45.3,15.5,45.3z"/>
					<path fill="#FFFFFF" d="M18.4,23.2L18.4,23.2C18.5,23.2,18.5,23.2,18.4,23.2z"/>
					<path fill="#FFFFFF" d="M15.8,44.3c-0.1-0.1-0.1-0.1-0.1-0.2c0,0,0,0,0.1,0L15.8,44.3z"/>
					<path fill="#FFFFFF" d="M17.8,11.1L17.8,11.1L17.8,11.1z"/>
					<path fill="#FFFFFF" d="M18.3,9.3c0,0.3-0.3,0.1-0.6,0.2c-0.1,0.3,0.3,0.1,0.5,0.2c-0.1,0.2-0.4,0.4-0.4,0.5c0.1,0,0.1,0,0.2,0
						c-0.3,0.2,0,0.6-0.3,0.9c0,0,0.1,0,0.1,0c-0.2,0-0.4,0-0.5,0c0,0.1-0.2,0.2,0,0.3c0-0.1,0.1-0.1,0.2-0.1l-0.1,0.1
						c0.4,0.1,0.1-0.2,0.4-0.2c-0.1,0.2-0.4,0.5-0.3,0.7c0.3,0,0.1-0.4,0.4-0.2l-0.1-0.3c0.5,0.2,0-0.2,0.5,0c0.1,0.4-0.1,0.4,0,0.8
						c-0.2,0.1-0.3,0-0.5,0.1c-0.3,0.5,0.9,0.4,0.5,0.8c-0.2,0.1-0.6,0.2-0.4,0.4l0.4-0.1c0.1,0.4-0.5,0.2-0.3,0.6
						c0.1-0.1,0.1-0.3,0.2-0.2c0.3,0.2-0.2,0.2-0.2,0.4l0.3,0c0,0.4-0.2,0.8-0.3,1.2c0.1,0,0.2-0.1,0.3,0c-0.2,0.5,0.1,1.1,0.3,1.6
						l-0.3,0.2c0,0,0.1,0.1,0.2,0c0.1,0.2-0.2,0-0.3,0.1c0,0.1,0.2,0.1,0.3,0.1c-0.2,0.4-0.5,1-0.2,1.4l0.1-0.1
						c0.1,0.3-0.6,0.3-0.3,0.6l0.1-0.1c0.1,0.6-0.1,1.3,0.3,1.8C18,21,18.6,21.5,18,21.6c0.3,0.4,0.4,0.3,0.6,0.8
						c0,0.1-0.4,0.2-0.4,0.4l0.3,0l-0.3,0.2l0.4,0.1l-0.1,0.2c0-0.1-0.1-0.1-0.2-0.1c-0.1,0.2,0.2,0.6,0.4,0.6l-0.3,0.6
						c0.1,0,0.2-0.1,0.2-0.2c-0.3,0.3,0.3,0.1,0,0.3c-0.1,0-0.2,0-0.2,0c0.2,0.1,0.2,0.5,0.1,0.7l0.2,0c0.1,0.4-0.1,0.9-0.2,1.4
						c-0.1-0.2-0.5-0.2-0.5,0l0.3,0.1c-0.2,0.1-0.1-0.2-0.4,0c0,0.2,0.4,0.1,0.5,0l-0.1,0.2c0.1,0,0.2,0,0.3,0
						c-0.2,0.1,0.3,0.4-0.1,0.5l0.1,0c0,0.5-0.1,0.7-0.2,1.1c-0.3,0-0.2,0.1-0.5,0.2c0.1,0.3,0.3,0.6,0.2,1
						c-0.2,0.2-0.2,0.1-0.4,0.1c0.3,0,0.2,0.4,0.4,0.2c-0.1,0.4-0.1,0.5-0.4,1c-0.1-0.1-0.1-0.1-0.2-0.1c-0.1,0.1,0.1,0.2,0.2,0.2
						l0,0c-0.4,0.5,0.6,1.4,0,1.8l0,0l-0.3,0.4c0,0.2,0.2-0.1,0.3,0.1c-0.5,0.5,0,0.8-0.4,1.2c0.7,0.4-0.2,1.2,0.2,1.7l-0.2-0.1
						c-0.2,0.1,0.1,0.2,0.1,0.2c-0.1,0-0.1-0.2-0.2-0.1c-0.4,0.9-0.1,2.1-0.1,3.1c0,0.4-0.9,0-0.6,0.6l0.4-0.1
						c-0.6,0.6-0.3,1.5-0.8,2.1c0.1,0,0.2,0,0.2-0.1c0.2,0.2-0.1,0.6-0.3,0.5c0,0.1,0.2,0.1,0.2,0.2c0.1,0.2-0.4,0.3-0.2,0.4
						c0,0,0.1,0,0.1,0c-0.1,0.1-0.1,0.5-0.4,0.3c0,0.3-0.3,0.5-0.2,0.7c-0.3,0,0,0.5-0.4,0.4c0.4,0.1,0.2,0.6-0.1,0.7
						c0.1,0,0.1,0.2,0.3,0.2c-0.1,0.2-0.2,0.3-0.4,0.2c0.4,0.5-0.6,0.6-0.1,1c-0.5,0.5-0.8,0.9-1.1,1.4c0.4,0.2,0.3-0.5,0.7-0.3
						c-0.4,0.4-0.8,0.5-0.9,1c0,0.1,0.2,0,0.3,0c-0.4,0.4-0.3,0.9-0.7,1.2c0,0,0.1,0,0.2,0c-0.1,0.1,0,0.2-0.2,0.1l0.1-0.1
						c-0.2-0.2-0.7,0.1-0.9,0c0.6,0.1-0.1,0.5,0.7,0.6c-0.1,0-0.2,0.1-0.3,0c0,0.1,0.1,0.2,0.2,0.1c-0.2,0.2-0.4,0-0.5,0.3
						c0.1,0,0.1,0,0.3,0c-0.2,0-0.5,0.1-0.5,0.3c0.1,0,0.1,0.1,0.1,0c-0.2,0.4-0.8,0.4-0.8,0.9c0.4,0.1,0.1,0.2,0.4,0.4l-0.2,0.2
						l-0.1-0.2c-0.1,0.2-0.4,0.2-0.4,0.4l0.2-0.1l-0.3,0.3l0-0.3c-0.3,0.1-0.4-0.3-0.5,0c0.1,0-0.1,0.2,0,0.4l0,0
						c-0.2,0-0.3,0.1-0.3,0.2c0.1,0.1,0.4,0.2,0.4,0.3c-0.3-0.1-0.3,0.4-0.7,0.3c0.1,0,0.3,0.1,0.3,0.1l-0.3-0.1
						c0,0.1,0,0.2,0.2,0.2c-0.1,0.3-0.3-0.3-0.4,0.1c0,0,0.1,0,0.1,0C10,55,9.6,55.1,9.5,55.4c0.3,0.3,0.2-0.2,0.4,0.1
						c-0.3,0.4-1,0.5-1.2,0.9l0-0.1c-0.5-0.3,0,0.4-0.3,0.5c0.1,0,0.3,0.1,0.2,0.1c-0.1,0.3-0.5,0.4-0.9,0.7l0.1,0
						c0,0.2-0.2,0.4-0.3,0.6c-0.1,0-0.2,0.1-0.3-0.1c0.2,1-1.1,0.6-1,1.4c0,0,0.2,0,0.2,0l-0.4,0.3c-0.1-0.2-0.1-0.1-0.1-0.3
						c-0.1-0.1-0.3,0-0.4,0.1c0.2,0,0.3,0.3,0.3,0.4c0-0.1-0.1-0.1-0.2-0.1c0.1,0.5-0.4-0.3-0.4,0.1L5.4,60c-0.1,0-0.3,0-0.4,0.1
						c0.1,0.2,0.2,0,0.3,0.1c-0.1,0.1-0.6-0.1-0.6,0.2c0.1,0,0.2-0.1,0.3-0.1c0.1,0.3,0,0.3-0.1,0.4l0,0l-0.1,0.3l0-0.1
						c-0.7-0.4-0.4,0.2-1,0.1c0.5,0.1,0.2,0.2,0.4,0.4c0,0.1,0,0.3,0.1,0.3C4.1,61.7,4.4,62.1,4,62C4,62.1,3.8,62.1,4,62.3
						C3.8,62.4,4,62.1,3.9,62C3.4,62,3.6,62.8,3,62.8c-0.4,0.1-0.7-0.1-1-0.1c0,0.2,0.3,0.2,0.3,0.2c-0.1,0.2-0.2,0.3-0.4,0.3
						c0.1,0,0.1,0.1,0.1,0.2c-0.1,0.1-0.3-0.2-0.4,0c0.1,0.1,0.2,0.2,0.3,0.2c-0.2,0-0.4,0-0.6,0c0.1,0.2,0.2,0.1,0.4,0.2
						c-0.2,0.1-0.5,0.2-0.7,0l0-0.2c-0.1,0,0.1,0.2,0.2,0.2c0.3,0.1,0.1-0.2,0.1-0.3l-0.1,0c-0.2-0.5,0.4-0.2,0.6-0.4L1.4,63
						l0.4,0.1c0-0.1-0.1-0.3-0.3-0.3c0-0.3,0.2,0,0.2-0.2c0,0,0,0,0-0.1l0.2,0c-0.1,0-0.2-0.2-0.2-0.1c0.1-0.4,0.6,0,0.5-0.4l0,0
						c0.4-0.1,0.2,0.2,0.7,0.3l-0.3-0.7l0.2,0.2c0,0,0.1-0.1,0-0.2C3,61.7,2.8,61.7,3,61.8c0-0.4,0.5-0.3,0.2-0.7
						c0.2,0.1,0,0.3,0.2,0.2c-0.3-0.4,0.3-0.1,0.2-0.4c-0.2-0.2-0.3,0.1-0.3-0.2c0.4,0.3,0.2-0.3,0.4-0.4c0.3,0.3,0.4-0.1,0.6-0.2
						c-0.1-0.1,0.2-0.5,0.3-0.8l0,0c0.3,0.2,0.4,0,0.6-0.1C5.2,59.1,5.1,59,5,59.1l0.1-0.1c0.1,0.1,0.2,0.1,0.3,0l-0.2-0.2
						c0.2-0.2,0.6-0.1,0.6-0.5C6,58.5,6.1,59,6.5,58.8c-0.1-0.1-0.3-0.3-0.4-0.2c0,0,0.2,0,0.1-0.1L6,58.4c0-0.2,0.2,0.1,0.3,0
						c-0.1-0.1,0-0.2-0.2-0.2c0,0,0,0.1-0.1,0.1c0.1-0.1,0.1-0.3,0-0.4C6.1,57.9,6.2,58,6.3,58c0.2-0.2-0.1-0.2-0.1-0.4
						c0.1,0,0.1-0.2,0.4,0c0-0.1-0.1-0.2-0.1-0.2c0.2,0,0.4-0.4,0.5-0.1l0,0l0,0l0,0l0,0c0.5-0.1,0.4-0.8,0.7-1l-0.1-0.1
						c0.2-0.1,0.4-0.4,0.6-0.4c0-0.1,0-0.2-0.2-0.3c0.2-0.1,0.3-0.1,0.3-0.4c-0.3,0-0.1-0.1-0.2,0.1c0.1-0.2,0-0.4,0.3-0.4
						c-0.3-0.1-0.2-0.3,0-0.4l0.1,0.2c0.1-0.1,0.1-0.2,0.2-0.3l-0.3-0.1c-0.1-0.6,1-0.4,0.7-1c0.3,0,0,0.3,0.3,0.4
						C9.5,53.5,9.2,53,9.2,53c0-0.3,0.6,0,0.6-0.3c0.1,0.1,0.3,0.3,0.6,0.1c0.1-0.2-0.3-0.5-0.4-0.4c0,0,0,0.1,0,0.1
						c-0.1,0-0.2,0.1-0.2,0l0.1,0c0-0.2,0.1-0.4-0.1-0.4c0.2-0.1,0.2,0,0.2,0.2c0-0.3,0.2-0.4,0.2-0.7c0,0.1,0.1,0.2,0.2,0.1
						c0.1-0.5,0.3-0.1,0.5-0.3c-0.1-0.2-0.4-0.2-0.1-0.3c0-0.2-0.3-0.2-0.4-0.2c0.3-0.1,0.1-0.5,0.1-0.7l-0.1,0.1
						c0.1,0,0.1-0.1,0.1-0.2l0.2,0.2c0-0.1,0-0.2-0.1-0.2c0.2,0,0.3,0.2,0.6,0.2c-0.1-0.2,0.3-0.2,0-0.4c-0.1,0.4-0.3-0.2-0.4,0.1
						c0.1,0,0.1-0.1,0.1-0.2c0,0-0.1,0-0.1,0c-0.1-0.4,0.4,0,0.5-0.3c-0.2,0-0.3-0.2-0.2-0.2c-0.1,0.1,0.2,0.2,0.4,0.1
						c0-0.3,0.2-0.2,0.2-0.3v0.1c0.2,0,0.2-0.1,0.3-0.2c-0.1-0.1-0.1,0.1-0.2,0c0.3,0-0.2-0.5,0.1-0.6c-0.1-0.1-0.3-0.1-0.3-0.3
						c0.3-0.2-0.1-0.4,0.2-0.5c0.2,0.2,0.1,0.2,0.4,0.1L11.9,48l0.4-0.1c0,0.1-0.2,0.2-0.2,0.3c0.2-0.1,0.2-0.1,0.3,0.1
						c-0.3-0.3,0.3-0.3,0.2-0.6L12,47.4c-0.1-0.4,0.5-0.4,0.5-0.9l0,0.2c0.2,0,0.1-0.2,0.3-0.3c-0.2-0.1-0.2-0.2-0.3-0.3
						c0.1,0.1,0.1-0.3,0.5-0.2l-0.2-0.3c0-0.4,0.6-0.2,0.7-0.5c-0.2,0-0.3-0.2-0.5,0c0-0.1,0-0.2,0.2-0.2c-0.1-0.1,0.3-0.2,0.2-0.4
						c0.1,0,0.3,0,0.3-0.1c0,0-0.1,0-0.1,0c0.1,0,0.2-0.1,0.4,0c-0.5-0.5,0.3-0.9-0.1-1.3c0.1-0.2,0.3-0.5,0.4-0.7
						c-0.1,0-0.1,0-0.1,0c-0.1-0.3,0.6,0,0.5-0.4c-0.3-0.3-0.2,0.1-0.3,0c-0.6-0.2,0.2-0.4-0.1-0.7l-0.1,0c-0.2-0.2,0.3-0.4,0.4-0.7
						c0,0-0.1,0-0.1,0c0.4-0.1,0.6-0.5,0.7-0.7c-0.3,0-0.2,0.1-0.4,0c0.1-0.1,0.4,0.1,0.5-0.1c-0.1-0.1-0.2-0.3-0.5-0.4l-0.1,0.2
						c-0.3-0.2,0.1-0.3,0.1-0.4l-0.2,0c0.1-0.3,0.5-0.3,0.6-0.6l0.1,0.1c0.4-0.1-0.2-0.2,0.1-0.4l-0.4-0.1c0.1-0.1,0.5-0.4,0.6-0.6
						c-0.3,0.1-0.5,0.3-0.7,0.5c0-0.1,0.1-0.5,0.3-0.5c0,0-0.2,0.1-0.1,0.2c0.3-0.1,0.5-0.3,0.6-0.6c-0.8-0.1-0.1-0.7-0.6-1
						c0.4-0.4,0-1,0.2-1.5c0.6,0.3,0-0.2,0.6,0c0.1-0.1,0.1-0.2,0-0.2l-0.3-0.5c-0.2-0.1-0.1,0.1-0.3,0.1c0-0.3-0.2-0.2-0.4-0.4
						c0.2,0.1,0.3-0.1,0.3-0.2l0.3,0.3c0.4-0.4-0.5-0.4-0.1-0.8L15.2,33c0.1-0.2,0.1-0.8,0.6-0.9c-0.1,0-0.2-0.1-0.3,0
						c0-0.5,0.6-1.1,0.4-1.5l-0.2,0c0.1-0.1,0.3-0.1,0.2-0.3c-0.1,0-0.2,0-0.2,0c0.1,0,0.3-0.2,0.2-0.4L15.7,30
						c-0.2-0.5,0.5-0.7,0.6-1.1c-0.4,0-0.6-0.4-0.6-0.6l-0.1,0c0-0.6,0.4-0.9,0.6-1.5c-0.5-0.4-0.1-1.1-0.4-1.7
						c0.1,0.1,0.3,0,0.4-0.1c-0.1-0.1,0.3-0.3-0.1-0.3l0,0c-0.4-0.1-0.3-0.4-0.3-0.6l0.5,0c-0.8-0.5,0.3-1.4-0.4-1.7
						c0.1-0.1,0.1-0.3,0.3-0.4l-0.3,0c-0.1-0.3-0.1-0.5,0-1l-0.2,0.1c0-0.2,0.8-0.3,0.8-0.5l-0.4-0.1c0-0.4-0.4-0.8,0-1.3
						c-0.1,0-0.2,0-0.2,0.1c0-0.2-0.3-0.8,0.3-0.7c-0.4,0,0-0.4,0.1-0.7l-0.3,0c0.4-0.2,0.4-0.2,0.5-0.5c0-0.1-0.2,0-0.2,0
						c-0.2-0.2,0.3-0.2,0.1-0.4l-0.2,0.1c0-0.2,0.1-0.2,0.3-0.3c0.1-0.1-0.1-0.4-0.3-0.4c0.2,0,0.4-0.2,0.3-0.3
						c-0.1,0-0.2,0-0.2,0.1c-0.2-0.4,0.3-0.6,0-0.8c-0.1,0-0.1,0-0.2,0c0,0.3,0,0.5,0.1,0.5c-0.3,0-0.3-0.2-0.7,0
						c0.2-0.2,0.6-0.5,0.5-0.8c0,0-0.1,0-0.1,0l0,0c0-0.1,0-0.1,0-0.1C16,15.1,16,15,16,15c-0.2,0-0.1-0.3-0.2-0.4
						c0.3,0,0.2-0.2,0.5,0c0,0,0,0,0,0.1c0,0,0,0,0,0.1l0,0c0,0.1,0,0.2,0,0.3c0.1-0.1,0.3-0.2,0.1-0.3c0.2-0.1,0.4-0.1,0.4-0.2
						c-0.4-0.1-0.6-0.4-0.9-0.5c0.1-0.4,0-0.8,0.6-1.1c0.1-0.1-0.2-0.1-0.2-0.1c0,0.1,0,0.1-0.1,0.2c0.1-0.2,0-0.6,0.4-0.7
						c-0.2-0.2-0.3,0.2-0.3-0.2l-0.1,0.1c-0.6-0.7,0.9-1.2,0.1-1.9c0,0,0.1,0.1,0.1,0.1c-0.4-0.9,0.1-1.8-0.5-2.7
						c-0.1-0.2,0.1-0.3,0.3-0.5l-0.3,0l0.3-0.3c0.2-0.4-0.8-0.6-0.4-1.1l0.2,0c-0.1-0.2,0.1-0.5-0.2-0.5c0,0,0.2-0.1,0.1-0.1l-0.2,0
						L16,4.8c-0.1-0.3-0.6,0.1-0.7-0.3c0-0.2,0.4-0.5,0.5-0.5c0,0.1,0.1,0.2,0.3,0.2L16.1,4c0.5-0.1,0.9-0.3,1.3,0.1l-0.3,0.3
						l0.2,0.1l0-0.2c0.2,0.1,0,0.2-0.1,0.3c0.1,0,0.2,0,0.3,0.1l-0.4,0.3c0.2,0,0.3-0.2,0.5,0c-0.2,0.1-0.4-0.1-0.5,0.1
						c0.2,0.1,0.4,0.1,0.2,0.2c0.1,0,0.2,0,0.2-0.1c-0.1,0.2,0,0.4-0.3,0.5c0.3,0.1,0,0.5,0.4,0.4c-0.1,0.1-0.3,0.3-0.3,0.4
						c0.5-0.3,0.1,0.5,0.6,0.3c-0.5,0.2-0.2,0.6-0.4,0.9c0,0,0.1-0.1,0.1-0.1C17.8,7.8,17.9,7.9,18,8c-0.4,0.1-0.5,0.3-0.7,0.5
						c0.4,0.2,0.4-0.2,0.8-0.1c-0.3,0-0.3,0.4-0.6,0.3c0.2,0.1,0.1,0.1,0.5,0.2C17.6,8.9,18,9,17.7,9.1c0.3,0.2,0.5,0,0.3,0.3
						C18.2,9.5,18.3,9.3,18.3,9.3z M17.9,15.3L17.9,15.3c0-0.1,0-0.1,0-0.1C17.9,15.2,17.9,15.2,17.9,15.3z M17.9,15.8
						c0-0.1,0-0.1,0-0.2c-0.1,0-0.2,0-0.2,0.1C17.8,15.6,17.8,15.7,17.9,15.8z M15.9,14.8c0,0.1,0,0.1,0.1,0.1c0,0,0-0.1,0-0.1l0,0
						C16,14.8,16,14.8,15.9,14.8z"/>
					<path fill="#FFFFFF" d="M16.3,14.7C16.3,14.7,16.3,14.6,16.3,14.7C16.3,14.6,16.3,14.7,16.3,14.7L16.3,14.7L16.3,14.7z"/>
					<path fill="#FFFFFF" d="M7,57.3L7,57.3C7,57.3,7,57.3,7,57.3C7,57.3,7,57.3,7,57.3z"/>
					<polygon fill="#FFFFFF" points="18.6,22.7 18.5,22.7 18.6,22.6 					"/>
					<path fill="#FFFFFF" d="M5.9,60C5.9,60,5.9,60,5.9,60C5.9,60,5.9,60,5.9,60z"/>
					<path fill="#FFFFFF" d="M5.1,60.9L5,61.1C5,61,5,60.9,5.1,60.9z"/>
					<path fill="#FFFFFF" d="M4.5,61.6C4.4,61.6,4.4,61.5,4.5,61.6L4.5,61.6L4.5,61.6z"/>
					<path fill="#FFFFFF" d="M13.4,49.9C13.4,49.9,13.4,49.8,13.4,49.9C13.5,49.8,13.4,49.8,13.4,49.9z"/>
					<path fill="#FFFFFF" d="M10.7,53.4c0.1,0,0.1,0,0.2-0.1C10.9,53.5,10.9,53.5,10.7,53.4z"/>
					<polygon fill="#FFFFFF" points="15.4,45.4 15.4,45.4 15.5,45.3 					"/>
					<path fill="#FFFFFF" d="M11,53.2c0,0.1,0,0.1-0.1,0.2C10.9,53.3,10.9,53.2,11,53.2z"/>
					<path fill="#FFFFFF" d="M1.4,64.2L1.4,64.2C1.4,64.2,1.4,64.2,1.4,64.2L1.4,64.2z"/>
					<path fill="#FFFFFF" d="M1.3,64.2L1.3,64.2C1.3,64.2,1.3,64.2,1.3,64.2z"/>
					<path fill="#FFFFFF" d="M1.2,64.2l0.1,0C1.3,64.3,1.2,64.3,1.2,64.2z"/>
					<path fill="#FFFFFF" d="M2.3,63.4L2.3,63.4C2.4,63.5,2.3,63.4,2.3,63.4z"/>
					<path fill="#FFFFFF" d="M2.6,63.2c-0.1,0.1,0,0.3-0.2,0.3l-0.1-0.1C2.5,63.5,2.5,63.1,2.6,63.2z"/>
					<path fill="#FFFFFF" d="M3,61.2l-0.2,0.3c0-0.1-0.1-0.3-0.2-0.2C2.7,60.8,2.7,61.5,3,61.2z"/>
					<path fill="#FFFFFF" d="M3.6,60.5c-0.2,0.1-0.1-0.1-0.2-0.2C3.6,60.3,3.6,60.3,3.6,60.5z"/>
					<path fill="#FFFFFF" d="M8.1,55.5l-0.2-0.1C8,55.3,7.9,55.4,8.1,55.5z"/>
					<polygon fill="#FFFFFF" points="9.9,55.2 10,55.4 9.8,55.3 					"/>
					<polygon fill="#FFFFFF" points="8.8,53.5 8.8,53.5 8.9,53.4 					"/>
					<path fill="#FFFFFF" d="M13.5,43.4l0.3,0.1C13.7,43.5,13.4,43.5,13.5,43.4z"/>
					<path fill="#FFFFFF" d="M15,38.7c-0.1-0.1-0.2-0.2,0-0.3C15,38.5,15.1,38.6,15,38.7z"/>
					<polygon fill="#FFFFFF" points="16,24 15.9,24.1 16,23.9 					"/>
				</g>
			</g>
		</g>
		<g>
			<g>
				<g>
					<path fill="#FFFFFF" d="M0.4,24.1c-0.1-0.1-0.2-0.2-0.1-0.2l0.2,0.2L0.4,24.1z"/>
					<path fill="#FFFFFF" d="M0.5,23.2c0.2,0.1,0.4,0.2,0.6,0.5c-0.3-0.2-0.2-0.1-0.5-0.3c-0.1,0-0.1,0.2,0,0.3
						c-0.1-0.1-0.1,0.1-0.2,0c-0.1-0.3,0-0.4,0.3-0.3C0.6,23.3,0.6,23.3,0.5,23.2z"/>
					<path fill="#FFFFFF" d="M6.2,17.6L6.2,17.6C6.2,17.7,6.2,17.7,6.2,17.6z"/>
					<path fill="#FFFFFF" d="M9.1,13.7C9.1,13.7,9,13.7,9.1,13.7C9,13.7,9.1,13.7,9.1,13.7z"/>
					<path fill="#FFFFFF" d="M9.2,12.8C9.2,12.8,9.2,12.8,9.2,12.8C9.2,12.8,9.2,12.8,9.2,12.8z"/>
					<path fill="#FFFFFF" d="M6.2,17.6l0-0.2C6.3,17.5,6.3,17.6,6.2,17.6z"/>
					<path fill="#FFFFFF" d="M1.9,23.2c0,0-0.1,0-0.1,0C1.8,23.2,1.8,23.2,1.9,23.2L1.9,23.2z"/>
					<path fill="#FFFFFF" d="M4.5,19L4.5,19c-0.1,0-0.1,0-0.1,0L4.5,19z"/>
					<path fill="#FFFFFF" d="M3.3,20c0,0,0.2,0.2,0.3,0.3c-0.1-0.1-0.1-0.1-0.2-0.1C3.3,20.2,3.3,20.1,3.3,20z"/>
					<path fill="#FFFFFF" d="M1.5,22.1L1.5,22.1C1.5,22.1,1.5,22.1,1.5,22.1z"/>
					<path fill="#FFFFFF" d="M5.3,18.1C5.3,18.1,5.3,18.1,5.3,18.1C5.3,18.1,5.3,18.1,5.3,18.1z"/>
					<path fill="#FFFFFF" d="M29,25C29,25,29,25,29,25C29,25,29,25.1,29,25z"/>
					<polygon fill="#FFFFFF" points="31.3,25.8 31.3,25.8 31.4,25.7 					"/>
					<path fill="#FFFFFF" d="M9.7,11.3L9.7,11.3C9.6,11.3,9.6,11.3,9.7,11.3z"/>
					<path fill="#FFFFFF" d="M17.8,2.6c-0.3,0,0,0.6-0.4,0.6C17.5,3.1,17.5,2.4,17.8,2.6z"/>
					<path fill="#FFFFFF" d="M1.9,23.2C1.9,23.2,1.9,23.1,1.9,23.2C1.9,23.2,1.9,23.2,1.9,23.2z"/>
					<path fill="#FFFFFF" d="M17.4,3.1L17.4,3.1L17.4,3.1C17.3,3.1,17.4,3.1,17.4,3.1z"/>
					<path fill="#FFFFFF" d="M11.4,8.3C11.4,8.3,11.5,8.3,11.4,8.3C11.5,8.3,11.4,8.3,11.4,8.3z"/>
					<path fill="#FFFFFF" d="M10.6,10.8L10.6,10.8C10.6,10.8,10.6,10.8,10.6,10.8z"/>
					<path fill="#FFFFFF" d="M12.3,7.2C12.3,7.2,12.3,7.1,12.3,7.2C12.4,7.1,12.4,7.1,12.3,7.2C12.3,7.1,12.3,7.1,12.3,7.2z"/>
					<polygon fill="#FFFFFF" points="12.9,5.9 13,5.9 12.9,6 					"/>
					<path fill="#FFFFFF" d="M26.6,21.4c0.1,0,0.2-0.1,0.2-0.1C26.6,21.4,26.7,21.6,26.6,21.4z"/>
					<path fill="#FFFFFF" d="M1.8,23.1c0,0.1,0.1,0.1,0.1,0.1C1.9,23.2,1.9,23.2,1.8,23.1C1.8,23.1,1.8,23.1,1.8,23.1z"/>
					<path fill="#FFFFFF" d="M14.4,8.1l0.1-0.2C14.4,7.9,14.4,8,14.4,8.1z"/>
					<path fill="#FFFFFF" d="M20.9,12.6L20.9,12.6C20.9,12.7,20.9,12.7,20.9,12.6z"/>
					<path fill="#FFFFFF" d="M14.8,7.2c-0.1-0.1-0.1-0.1-0.1-0.2c0,0,0,0,0.1,0L14.8,7.2z"/>
					<path fill="#FFFFFF" d="M26.8,21.3L26.8,21.3L26.8,21.3z"/>
					<path fill="#FFFFFF" d="M27.1,22.9c-0.1-0.2,0.2-0.3,0.4-0.5c-0.1-0.3-0.3,0.1-0.5,0.1c0-0.2,0.2-0.5,0.1-0.6
						c-0.1,0-0.1,0-0.1,0.1c0.1-0.3-0.3-0.4-0.1-0.8c0,0-0.1,0-0.1,0c0.2-0.1,0.3-0.2,0.4-0.3c-0.1-0.1,0.1-0.3-0.1-0.2
						c0,0,0,0.1-0.1,0.2l0-0.1c-0.3,0.1,0,0.2-0.2,0.3c0-0.2,0.1-0.6-0.1-0.7c-0.3,0.2,0.1,0.4-0.3,0.4l0.2,0.1
						c-0.5,0.2,0.1,0.1-0.5,0.3c-0.3-0.2-0.1-0.4-0.3-0.6c0.1-0.2,0.2-0.1,0.4-0.3c0-0.6-0.9,0.2-0.7-0.3c0.1-0.2,0.5-0.5,0.2-0.5
						l-0.3,0.3c-0.2-0.2,0.4-0.5,0-0.6c-0.1,0.1,0,0.3,0,0.3c-0.4,0,0.1-0.2,0-0.4l-0.3,0.2C25,19,25,18.6,24.9,18.2
						c-0.1,0.1-0.1,0.2-0.3,0.2c-0.1-0.5-0.6-0.8-1-1l0.2-0.3c0,0-0.2,0-0.2,0.1c-0.2-0.1,0.2-0.1,0.2-0.2c0-0.1-0.2,0-0.3,0.1
						c0-0.4,0-1-0.5-1.1l0,0.1c-0.2-0.1,0.4-0.6,0-0.6l0,0.1c-0.4-0.4-0.5-1-1.1-1.1c0.3-0.3-0.4-0.3,0-0.7c-0.4-0.1-0.5,0-0.8-0.2
						c-0.1-0.1,0.2-0.3,0.2-0.5l-0.3,0.2l0.2-0.3l-0.4,0.1l0-0.2c0,0,0.2,0,0.2,0c0-0.3-0.4-0.3-0.6-0.2l0-0.6
						c-0.1,0.1-0.1,0.2-0.1,0.3c0.1-0.4-0.3,0.1-0.2-0.2c0.1,0,0.1-0.1,0.2-0.1c-0.2,0-0.4-0.2-0.4-0.5l-0.2,0.1
						c-0.2-0.3-0.3-0.7-0.5-1.1c0.2,0.1,0.5-0.1,0.4-0.3l-0.3,0.1c0.1-0.2,0.2,0,0.3-0.2c-0.1-0.1-0.4,0.1-0.4,0.2l0-0.2
						c-0.1,0-0.1,0.1-0.2,0.2c0.1-0.2-0.4-0.1-0.2-0.4l-0.1,0c-0.2-0.4-0.2-0.6-0.4-0.9c0.2-0.1,0.1-0.2,0.3-0.4
						c-0.2-0.2-0.5-0.3-0.7-0.6c0-0.3,0.2-0.2,0.3-0.3c-0.2,0.1-0.4-0.2-0.4,0.1c-0.1-0.3-0.2-0.4-0.2-0.9c0.1,0,0.2,0,0.2-0.1
						c0-0.1-0.2-0.1-0.3,0l0,0c0.1-0.6-1.2-0.7-0.9-1.3l0,0l0-0.5c-0.1-0.1-0.1,0.2-0.3,0.1c0.1-0.7-0.2-0.3-0.1-0.6
						C16,4.9,16,4.9,16,4.8c0-0.1,0-0.3-0.1,0.1l0-0.3c0-0.3,0,0.1,0,0.2c0-0.2,0-0.3,0.1-0.4c0-0.1,0-0.2-0.1-0.2
						c0,0-0.1,0-0.1,0.2c0,0.3,0,0.7,0,0.8c0,0-0.5-1.2-0.3-0.6c0,0,0.1,0.1,0.1,0.2c0,0.1,0.1,0.2,0.1,0.2c-0.1-0.2-0.2-0.1-0.2,0
						c0,0.1,0,0-0.1,0.1c-0.1,0.1-0.2,0.3-0.3,0.4c0.1,0,0.2,0,0.2,0c0.2,0.2-0.2,0.4-0.4,0.4c0,0.1,0.2,0.1,0.2,0.2
						c0.1,0.2-0.4,0.2-0.2,0.3c0,0,0.1,0,0.1,0c-0.1,0-0.1,0.4-0.4,0.2c0,0.3-0.3,0.4-0.2,0.6c-0.3,0,0,0.4-0.4,0.3
						c0.4,0.2,0.2,0.5-0.1,0.6c0.1,0,0.1,0.2,0.3,0.2c-0.1,0.2-0.2,0.3-0.4,0.1c0.4,0.5-0.7,0.4-0.1,0.8c-0.4,0.4-0.8,0.7-1.1,1.1
						c0.4,0.2,0.3-0.4,0.7-0.2c-0.4,0.3-0.8,0.4-0.9,0.8c0,0.1,0.2,0,0.3,0c-0.4,0.3-0.3,0.8-0.7,1c0,0,0.1,0,0.1,0
						c0,0.1,0,0.2-0.2,0.1l0.1,0c-0.2-0.2-0.7,0-0.8-0.1c0.6,0.2-0.1,0.4,0.7,0.6c-0.1,0-0.2,0-0.3,0c0,0.1,0.1,0.1,0.2,0.2
						c-0.2,0.2-0.4,0-0.5,0.2c0.1,0,0.1,0,0.3,0.1c-0.2,0-0.5,0-0.5,0.3c0.1,0,0.1,0.1,0.1,0c-0.2,0.3-0.8,0.3-0.8,0.7
						c0.4,0.1,0.1,0.2,0.4,0.4l-0.2,0.1L10.6,14c-0.1,0.2-0.4,0.2-0.4,0.4l0.2,0l-0.3,0.3l0-0.2c-0.3,0.1-0.4-0.3-0.4,0
						c0.1,0-0.1,0.2,0,0.4l0,0c-0.1,0-0.3,0-0.3,0.2c0.1,0.1,0.4,0.2,0.4,0.3c-0.3-0.1-0.3,0.3-0.7,0.2c0.1,0,0.2,0.1,0.3,0.2
						l-0.3-0.1c0,0.1,0,0.1,0.2,0.2c-0.1,0.2-0.3-0.3-0.4,0c0,0,0.1,0,0.1,0C9,16,8.7,16,8.6,16.3c0.2,0.3,0.2-0.1,0.4,0.1
						c-0.3,0.3-0.9,0.4-1.1,0.7l0-0.1c-0.4-0.3,0,0.4-0.3,0.4c0.1,0,0.3,0.1,0.2,0.1c-0.1,0.3-0.5,0.3-0.9,0.5l0.1,0.1
						c0,0.2-0.2,0.4-0.3,0.5c-0.1-0.1-0.2,0-0.3-0.1c0.2,0.9-1,0.4-0.9,1.2c0,0,0.2,0,0.1,0L5.4,20c-0.1-0.2-0.1-0.1-0.1-0.3
						c-0.1-0.1-0.3-0.1-0.4,0c0.2,0,0.3,0.3,0.3,0.4c0-0.1-0.1-0.1-0.2-0.2c0.1,0.4-0.3-0.3-0.4,0.1l0.1,0.1c-0.1,0-0.3,0-0.4,0.1
						c0.1,0.2,0.2,0,0.3,0.2c-0.1,0.1-0.6-0.2-0.5,0.1c0.1,0,0.2-0.1,0.3,0c0.1,0.3,0,0.3,0,0.4l0,0l-0.1,0.3l0-0.1
						c-0.6-0.4-0.4,0.2-0.9,0c0.5,0.2,0.2,0.2,0.4,0.4c0,0.1,0,0.3,0.1,0.3c-0.3-0.1,0,0.3-0.4,0.1c0.1,0.1-0.1,0.1,0.1,0.3
						c-0.2,0-0.1-0.2-0.2-0.2c-0.4-0.1-0.2,0.7-0.8,0.6c-0.4,0-0.6-0.2-0.9-0.1c0,0.2,0.3,0.2,0.3,0.2c0,0.2-0.2,0.3-0.3,0.3
						c0.1,0.1,0.1,0.1,0.1,0.2c-0.1,0.1-0.3-0.2-0.3,0c0.1,0.1,0.2,0.2,0.3,0.2c-0.2,0-0.4-0.1-0.6,0c0.1,0.2,0.2,0.2,0.3,0.2
						c-0.2,0-0.4,0.1-0.6-0.1l0-0.1c-0.1,0,0.1,0.2,0.2,0.2c0.2,0.1,0.1-0.2,0.1-0.3l-0.1,0c-0.3-0.5,0.4-0.2,0.5-0.3l-0.3-0.3
						l0.4,0.1c0-0.1-0.1-0.3-0.3-0.3c0-0.3,0.2,0,0.2-0.2c0,0,0,0,0-0.1l0.2,0C1.6,22,1.5,21.8,1.5,22c0.1-0.4,0.5,0,0.4-0.3l0,0
						c0.4-0.1,0.2,0.2,0.7,0.3l-0.3-0.7l0.2,0.2c0,0,0.1-0.1,0-0.2c0.2,0.1,0.1,0.1,0.3,0.2c0-0.3,0.5-0.2,0.2-0.6
						c0.2,0.1,0,0.2,0.2,0.3c-0.3-0.4,0.2-0.1,0.2-0.4c-0.2-0.2-0.2,0-0.3-0.3c0.4,0.3,0.2-0.3,0.3-0.3c0.2,0.3,0.3-0.1,0.6-0.1
						c-0.1-0.1,0.2-0.4,0.3-0.7l0,0c0.3,0.2,0.4,0,0.6,0c-0.2-0.2-0.2-0.2-0.4-0.2L4.5,19c0.1,0.1,0.2,0.1,0.3,0l-0.2-0.2
						c0.2-0.1,0.5,0,0.6-0.4c0.2,0.2,0.3,0.7,0.7,0.6c-0.1-0.1-0.2-0.3-0.3-0.3c0,0,0.1,0,0.1-0.1l-0.2-0.1c0-0.2,0.2,0.1,0.2,0
						c-0.1-0.1,0-0.1-0.2-0.3c0,0,0,0.1-0.1,0.1c0.1-0.1,0.1-0.3,0-0.4c0.1,0.1,0.2,0.2,0.3,0.2c0.2-0.1-0.1-0.2-0.1-0.4
						C5.6,18,5.6,17.8,5.8,18c0,0-0.1-0.1-0.1-0.2c0.2,0,0.4-0.3,0.5,0l0,0c0,0,0,0,0,0l0,0l0,0c0.4-0.1,0.4-0.6,0.7-0.8l-0.1-0.1
						c0.2-0.1,0.3-0.3,0.6-0.3c0,0,0-0.2-0.2-0.3c0.2-0.1,0.3,0,0.3-0.3c-0.2,0-0.1-0.1-0.2,0c0.1-0.2,0-0.3,0.3-0.3
						c-0.2-0.1-0.2-0.3,0-0.3l0.1,0.2c0.1-0.1,0.1-0.2,0.2-0.2l-0.3-0.2c-0.1-0.6,1-0.2,0.6-0.8c0.3,0,0,0.3,0.3,0.4
						c0.1-0.2-0.2-0.6-0.2-0.7c0-0.3,0.5,0.1,0.6-0.2C9,13.9,9.2,14.1,9.4,14c0.1-0.2-0.3-0.5-0.4-0.4c0,0,0,0.1,0,0.1
						c-0.1,0-0.2,0.1-0.2-0.1l0.1,0c0-0.1,0.1-0.4-0.1-0.4C9,13.2,9,13.3,9,13.4c0-0.3,0.2-0.3,0.2-0.6c0,0.1,0.1,0.2,0.2,0.1
						c0.1-0.4,0.3,0,0.4-0.2c-0.1-0.2-0.4-0.2-0.1-0.3c0-0.2-0.3-0.2-0.4-0.2c0.3-0.1,0.1-0.4,0.1-0.6l-0.1,0.1
						c0.1,0,0.1-0.1,0.1-0.1l0.2,0.2c0-0.1,0-0.1-0.1-0.2c0.2,0,0.3,0.2,0.6,0.2c-0.1-0.1,0.2-0.2,0-0.4c0,0.3-0.3-0.2-0.4,0
						c0.1,0,0.1-0.1,0.1-0.2c0,0-0.1,0-0.1,0c-0.1-0.4,0.4,0.1,0.5-0.2c-0.2-0.1-0.3-0.2-0.2-0.2c-0.1,0.1,0.2,0.2,0.4,0.2
						c0-0.2,0.2-0.1,0.2-0.2l0,0.1c0.2,0,0.2,0,0.3-0.1c-0.1-0.1-0.1,0.1-0.2,0c0.3,0-0.1-0.4,0.1-0.5c-0.1-0.1-0.3-0.2-0.3-0.3
						c0.3-0.1-0.1-0.3,0.2-0.5c0.2,0.2,0.1,0.2,0.4,0.1l-0.3,0.3l0.4-0.1C11.2,10,11,10,11,10.1c0.2,0,0.2,0,0.3,0.1
						c-0.2-0.3,0.3-0.2,0.2-0.5L11,9.5c-0.1-0.4,0.5-0.3,0.5-0.7l0,0.2c0.2,0.1,0.1-0.2,0.3-0.3c-0.2-0.1-0.2-0.2-0.3-0.3
						c0.1,0.1,0.1-0.3,0.5-0.1L11.8,8c0-0.3,0.7-0.1,0.7-0.4c-0.2,0-0.3-0.2-0.5-0.1c0-0.1,0-0.2,0.2-0.1c-0.1-0.1,0.4-0.1,0.2-0.3
						c0.1,0,0.3,0.1,0.3,0c0,0-0.1,0-0.1,0c0.1,0,0.2-0.1,0.4,0.1c-0.4-0.5,0.4-0.7,0-1.2c0.1-0.2,0.3-0.4,0.4-0.5
						c-0.1,0-0.1,0-0.1,0c-0.1-0.3,0.6,0.1,0.5-0.3c-0.2-0.3-0.2,0.1-0.3-0.1c-0.6-0.3,0.2-0.3,0-0.6l-0.1,0c-0.1-0.1,0-0.2,0.1-0.2
						c0.1,0,0.1-0.1,0.2-0.1C13.8,4,13.8,4,13.9,3.9c0,0-0.1,0-0.1,0c0.4-0.1,0.6-0.4,0.8-0.5c-0.2-0.1-0.2,0-0.3-0.3
						c0.1-0.1,0.3,0.4,0.4,0.2c-0.1-0.2-0.1-0.5-0.2-0.9l-0.1,0.3c-0.2-0.5,0.2-0.4,0.2-0.6l-0.1-0.2c0.2-0.4,0.4,0.1,0.6-0.3l0,0.2
						c0.2,0.4,0-0.5,0.2-0.3l-0.1-0.8c0.1,0,0.3,0.2,0.4,0.1c-0.1-0.5-0.3-0.5-0.4-0.6c0.1-0.2,0.3-0.5,0.3-0.2c0,0-0.1-0.1-0.1,0.1
						c0.1,0.2,0.1,0.4,0.2,0.4c0,0,0.1,0,0.1,0c0,0,0,0,0,0.1c0,0,0,0.1,0,0.1c0-0.9,0.1-0.8,0.2-0.6c0.1,0.2,0.3,0.4,0.4,0
						c0.1,0.6,0.3,0.8,0.5,1c0.2,0.2,0.4,0.5,0.6,0.9c-0.5,0.4,0.1,0.2-0.3,0.8c0,0.2,0.1,0.2,0.1,0.2c0,0,0.5,0.1,0.5,0.2
						c0.2,0,0-0.3,0.1-0.3c0.2,0.4,0.3,0,0.6,0.2c-0.2,0.1-0.2,0.3,0,0.5c0,0-0.4-0.2-0.4-0.2c0,0.4,0.2,0.3,0.3,0.4
						c0.1,0,0.3,0,0.2,0.2l0.1-0.2c0,0.2,0.3,0.6,0,1c0.1,0,0.2,0,0.2-0.1c0.3,0.3,0,1.1,0.4,1.2l0.1-0.1c0,0.1-0.2,0.3,0,0.3
						c0.1,0,0.1-0.1,0.1-0.1c0,0.1-0.1,0.3,0,0.4l0.1-0.2c0.4,0.3,0,0.8,0.1,1.1c0.4-0.2,0.7,0,0.8,0.1l0.1,0
						c0.3,0.4,0.1,0.9,0.2,1.4c0.6,0,0.7,0.7,1.1,1c-0.1,0-0.3,0.2-0.3,0.3c0.1,0-0.1,0.4,0.2,0.2l0,0c0.4-0.1,0.4,0.1,0.5,0.2
						l-0.4,0.3c0.9,0,0.4,1.2,1.1,1c-0.1,0.2,0,0.3,0,0.4l0.2-0.2c0.2,0.2,0.3,0.3,0.5,0.7l0.1-0.2c0.1,0.2-0.5,0.7-0.5,0.8l0.4-0.2
						c0.2,0.3,0.7,0.4,0.6,0.9c0,0,0.1-0.1,0.1-0.2c0.1,0.1,0.6,0.4,0.1,0.7c0.3-0.2,0.2,0.3,0.2,0.6l0.2-0.2
						c-0.2,0.3-0.3,0.4-0.2,0.6c0.1,0,0.2-0.1,0.1-0.1c0.2,0.1-0.1,0.3,0.1,0.4l0.1-0.2c0.1,0.1,0,0.2-0.1,0.4
						c0,0.2,0.3,0.3,0.5,0.1c-0.1,0.1-0.2,0.3-0.1,0.4c0.1,0,0.1-0.1,0.1-0.1c0.3,0.2,0,0.6,0.3,0.6c0.1,0,0.1-0.1,0.2-0.1
						c-0.1-0.2-0.3-0.4-0.3-0.3c0.2-0.1,0.4,0,0.6-0.3c-0.1,0.2-0.3,0.7-0.1,0.8c0,0,0.1,0,0.1,0l0,0c0,0,0,0.1,0,0.1
						c0.1,0,0.1,0,0.2,0.1c0.2-0.1,0.2,0.1,0.3,0.2c-0.2,0.1-0.1,0.2-0.4,0.3c0,0,0,0,0-0.1c0,0,0,0,0-0.1l0,0
						c0-0.1-0.1-0.1-0.1-0.2c-0.1,0.1-0.1,0.3,0.1,0.3c-0.1,0.1-0.2,0.3-0.3,0.4c0.4-0.1,0.7,0,1-0.1c0,0.3,0.3,0.7,0,1.1
						c0,0.1,0.2,0,0.3,0c0-0.1,0-0.1,0-0.2c0,0.2,0.3,0.5,0,0.7c0.3,0.1,0.2-0.3,0.3,0l0.1-0.1c0.8,0.2-0.2,1.3,0.8,1.5
						c-0.1,0-0.1,0-0.2,0c0.7,0.4,0.6,1.5,1.5,1.8c0.2,0.1,0,0.3,0,0.5l0.3-0.1L30,23.6c0,0.4,0.9,0,0.8,0.6l-0.2,0.1
						c0.1,0.1,0.2,0.4,0.3,0.3c0,0-0.1,0.2,0,0.1l0.1-0.1l0,0.4c0.3,0.2,0.5-0.4,0.7-0.1c0,0.2-0.1,0.6-0.2,0.6c0,0-0.2-0.1-0.3,0
						l0,0.2c-0.4,0.3-0.7,0.7-1.1,0.6l0.1-0.4L30,26.1l0.1,0.2c-0.2,0-0.1-0.1-0.1-0.3c-0.1,0.1-0.2,0.1-0.3,0.1l0.2-0.4
						c-0.2,0.1-0.2,0.3-0.4,0.2c0.1-0.2,0.4-0.2,0.4-0.4c-0.2,0-0.4,0.2-0.3-0.1c-0.1,0.1-0.2,0.1-0.2,0.2c0-0.2-0.1-0.3,0-0.5
						c-0.3,0.1-0.2-0.4-0.5-0.1c0.1-0.1,0.2-0.4,0.1-0.5c-0.3,0.5-0.3-0.3-0.7,0.1c0.3-0.4-0.1-0.6-0.1-0.9c0,0-0.1,0.1,0,0.1
						c-0.1-0.1-0.3,0-0.4-0.1c0.3-0.2,0.3-0.5,0.4-0.7c-0.4,0.1-0.3,0.4-0.6,0.5c0.3-0.2,0.1-0.4,0.3-0.5c-0.3,0-0.2,0-0.5,0.1
						c0.4-0.3,0-0.2,0.2-0.4c-0.3,0-0.4,0.2-0.4,0C27.2,22.6,27.1,22.9,27.1,22.9z M24.9,18.2L24.9,18.2c0,0,0,0.1,0,0.1
						C25,18.3,24.9,18.2,24.9,18.2z M24.7,17.8c0,0,0.1,0.1,0.1,0.1c0.1,0,0.2-0.1,0.1-0.1C24.9,17.9,24.8,17.8,24.7,17.8z
						 M26.8,17.5c0-0.1-0.1-0.1-0.1,0C26.7,17.5,26.7,17.5,26.8,17.5l-0.1,0.1C26.8,17.6,26.8,17.5,26.8,17.5z"/>
					<path fill="#FFFFFF" d="M26.6,17.8C26.6,17.8,26.6,17.8,26.6,17.8C26.5,17.8,26.5,17.8,26.6,17.8L26.6,17.8L26.6,17.8z"/>
					<path fill="#FFFFFF" d="M6.2,17.7L6.2,17.7C6.2,17.7,6.2,17.7,6.2,17.7C6.2,17.7,6.2,17.7,6.2,17.7z"/>
					<polygon fill="#FFFFFF" points="21,13.1 21.1,13.1 21,13.1 					"/>
					<path fill="#FFFFFF" d="M5.2,20.1C5.2,20.1,5.3,20.1,5.2,20.1C5.2,20.1,5.2,20.1,5.2,20.1z"/>
					<path fill="#FFFFFF" d="M4.5,20.8l0,0.2C4.5,20.9,4.5,20.8,4.5,20.8z"/>
					<path fill="#FFFFFF" d="M4,21.4C3.9,21.4,3.9,21.4,4,21.4L4,21.4L4,21.4z"/>
					<path fill="#FFFFFF" d="M12.2,11.7C12.2,11.7,12.2,11.7,12.2,11.7C12.3,11.7,12.3,11.7,12.2,11.7z"/>
					<path fill="#FFFFFF" d="M9.7,14.7c0.1,0,0.1,0,0.2,0C9.9,14.7,9.9,14.7,9.7,14.7z"/>
					<polygon fill="#FFFFFF" points="14.4,8.1 14.4,8.1 14.4,8.1 					"/>
					<path fill="#FFFFFF" d="M10,14.5c0,0.1,0,0.1-0.1,0.1C9.9,14.6,9.9,14.5,10,14.5z"/>
					<path fill="#FFFFFF" d="M1.3,23.7L1.3,23.7C1.3,23.7,1.3,23.7,1.3,23.7L1.3,23.7z"/>
					<path fill="#FFFFFF" d="M1.3,23.7L1.3,23.7C1.2,23.6,1.3,23.6,1.3,23.7z"/>
					<path fill="#FFFFFF" d="M1.1,23.7l0.1,0C1.2,23.7,1.2,23.7,1.1,23.7z"/>
					<path fill="#FFFFFF" d="M2.1,22.9L2.1,22.9C2.2,23,2.1,23,2.1,22.9z"/>
					<path fill="#FFFFFF" d="M2.4,22.8c0,0.1,0,0.3-0.1,0.3L2.2,23C2.3,23.1,2.2,22.7,2.4,22.8z"/>
					<path fill="#FFFFFF" d="M2.6,21l-0.2,0.2c0-0.1-0.1-0.3-0.2-0.2C2.3,20.5,2.4,21.2,2.6,21z"/>
					<path fill="#FFFFFF" d="M3.2,20.3C3,20.4,3.1,20.2,3,20.2C3.1,20.2,3.2,20.2,3.2,20.3z"/>
					<path fill="#FFFFFF" d="M7.3,16.2L7,16.1C7.1,16,7.1,16.1,7.3,16.2z"/>
					<polygon fill="#FFFFFF" points="9,16.1 9.1,16.3 8.8,16.2 					"/>
					<polygon fill="#FFFFFF" points="7.9,14.5 7.9,14.5 8,14.5 					"/>
					<path fill="#FFFFFF" d="M12.6,6l0.3,0.2C12.8,6.2,12.5,6.1,12.6,6z"/>
					<path fill="#FFFFFF" d="M15,1.4c0-0.3,0-0.7,0.1-0.5C15.1,1,15,1.4,15,1.4z"/>
					<polygon fill="#FFFFFF" points="22.6,10.8 22.6,10.7 22.6,10.9 					"/>
				</g>
			</g>
		</g>
	</g>
</g>
</svg>
