<?xml version="1.0" encoding="utf-8"?>
<!-- Generator: Adobe Illustrator 18.0.0, SVG Export Plug-In . SVG Version: 6.00 Build 0)  -->
<!DOCTYPE svg PUBLIC "-//W3C//DTD SVG 1.1//EN" "http://www.w3.org/Graphics/SVG/1.1/DTD/svg11.dtd">
<svg version="1.1" id="Layer_1" xmlns="http://www.w3.org/2000/svg" xmlns:xlink="http://www.w3.org/1999/xlink" x="0px" y="0px"
	 viewBox="0 0 31.8 64.7" enable-background="new 0 0 31.8 64.7" xml:space="preserve">
<g>
	<g>
		<path fill="none" d="M31.8,41.2C21.9,48.1,20.5,53.3,16,63.4C9.9,51.3,0.6,38.9,0.6,38.9 M31.8,0.6c-14.4,9.8-19.9,28.1-16.2,60.3
			"/>
		<g>
			<g>
				<g>
					<path fill="#FFFFFF" d="M31.4,0c0.1,0.1,0.2,0.2,0.1,0.2L31.3,0L31.4,0z"/>
					<path fill="#FFFFFF" d="M31.3,0.9c-0.2-0.1-0.5-0.2-0.6-0.5c0.3,0.2,0.2,0.1,0.5,0.3c0.1,0,0.1-0.2,0-0.3c0.1,0,0.1-0.1,0.2,0
						c0,0.3-0.1,0.4-0.3,0.3C31.1,0.8,31.2,0.8,31.3,0.9z"/>
					<path fill="#FFFFFF" d="M24.8,7.5L24.8,7.5C24.8,7.5,24.8,7.5,24.8,7.5z"/>
					<path fill="#FFFFFF" d="M21.7,12.3C21.8,12.3,21.8,12.3,21.7,12.3C21.8,12.3,21.7,12.3,21.7,12.3z"/>
					<path fill="#FFFFFF" d="M21.6,13.3C21.6,13.3,21.6,13.3,21.6,13.3C21.6,13.3,21.6,13.3,21.6,13.3z"/>
					<path fill="#FFFFFF" d="M24.8,7.5l0,0.2C24.7,7.6,24.8,7.6,24.8,7.5z"/>
					<path fill="#FFFFFF" d="M29.7,1c0,0,0.1,0,0.1,0C29.8,1,29.8,1.1,29.7,1L29.7,1z"/>
					<path fill="#FFFFFF" d="M26.7,5.8L26.7,5.8c0.1,0,0.1,0,0.2,0L26.7,5.8z"/>
					<path fill="#FFFFFF" d="M28.1,4.5c0,0-0.2-0.2-0.3-0.2c0.1,0.1,0.2,0.1,0.2,0.1C28,4.4,28,4.5,28.1,4.5z"/>
					<path fill="#FFFFFF" d="M30.1,2.2L30.1,2.2C30.1,2.2,30.1,2.2,30.1,2.2z"/>
					<path fill="#FFFFFF" d="M25.8,6.9C25.8,6.9,25.9,6.9,25.8,6.9C25.8,6.9,25.8,6.9,25.8,6.9z"/>
					<path fill="#FFFFFF" d="M14.1,58.7C14.1,58.7,14.1,58.7,14.1,58.7C14.1,58.7,14.1,58.7,14.1,58.7z"/>
					<polygon fill="#FFFFFF" points="15.7,60.8 15.7,60.8 15.8,60.8 					"/>
					<path fill="#FFFFFF" d="M21.1,15L21.1,15C21.2,15,21.1,15,21.1,15z"/>
					<path fill="#FFFFFF" d="M16.5,30.4c-0.2-0.2-0.4,0.3-0.6-0.1C16,30.4,16.3,30.2,16.5,30.4z"/>
					<path fill="#FFFFFF" d="M29.7,1.1C29.7,1.1,29.7,1.1,29.7,1.1C29.7,1.1,29.7,1.1,29.7,1.1z"/>
					<path fill="#FFFFFF" d="M15.9,30.4L15.9,30.4L15.9,30.4C15.8,30.4,15.8,30.4,15.9,30.4z"/>
					<path fill="#FFFFFF" d="M19.4,18.7C19.3,18.6,19.3,18.6,19.4,18.7C19.3,18.6,19.3,18.6,19.4,18.7z"/>
					<path fill="#FFFFFF" d="M20.1,15.7L20.1,15.7C20.1,15.8,20.1,15.7,20.1,15.7z"/>
					<path fill="#FFFFFF" d="M18.5,20c0,0,0,0.1,0,0.1C18.4,20.1,18.4,20.1,18.5,20C18.5,20.1,18.5,20.1,18.5,20z"/>
					<polygon fill="#FFFFFF" points="18,21.6 17.9,21.5 18,21.5 					"/>
					<path fill="#FFFFFF" d="M13.7,53.6c0.1,0,0.2,0,0.3,0.1C13.8,53.6,13.7,53.9,13.7,53.6z"/>
					<path fill="#FFFFFF" d="M29.8,1.1c-0.1-0.1-0.1-0.1-0.1-0.1C29.7,1.1,29.8,1.1,29.8,1.1C29.8,1.1,29.8,1.1,29.8,1.1z"/>
					<path fill="#FFFFFF" d="M16.3,19.4l0,0.3C16.3,19.6,16.3,19.5,16.3,19.4z"/>
					<path fill="#FFFFFF" d="M13.4,41.5L13.4,41.5C13.3,41.5,13.3,41.5,13.4,41.5z"/>
					<path fill="#FFFFFF" d="M16,20.4c0.1,0.1,0.1,0.1,0.1,0.2c0,0,0,0-0.1,0L16,20.4z"/>
					<path fill="#FFFFFF" d="M14,53.6L14,53.6L14,53.6z"/>
					<path fill="#FFFFFF" d="M13.5,55.5c0-0.3,0.3-0.1,0.6-0.2c0.1-0.3-0.3-0.1-0.5-0.2c0.1-0.2,0.4-0.4,0.4-0.5c-0.1,0-0.1,0-0.2,0
						c0.3-0.2,0-0.6,0.3-0.9c0,0-0.1,0-0.1,0c0.2,0,0.4,0,0.5,0c0-0.1,0.2-0.2,0-0.3c0,0.1-0.1,0.1-0.2,0.1l0.1-0.1
						c-0.4-0.1-0.1,0.2-0.4,0.2c0.1-0.2,0.4-0.5,0.3-0.7c-0.3,0-0.1,0.4-0.4,0.2l0.1,0.3c-0.5-0.2,0,0.2-0.5,0
						c-0.1-0.4,0.1-0.4,0-0.8c0.2-0.1,0.3,0,0.5-0.1c0.3-0.5-0.9-0.4-0.5-0.8c0.2-0.1,0.6-0.2,0.4-0.4l-0.4,0.1
						c-0.1-0.4,0.5-0.2,0.3-0.6c-0.1,0.1-0.1,0.3-0.2,0.2c-0.3-0.2,0.2-0.2,0.2-0.4l-0.3,0c0-0.4,0.2-0.8,0.3-1.2
						c-0.1,0-0.2,0.1-0.3,0c0.2-0.5-0.1-1.1-0.3-1.6l0.3-0.2c0,0-0.1-0.1-0.2,0c-0.1-0.2,0.2,0,0.3-0.1c0-0.1-0.2-0.1-0.3-0.1
						c0.2-0.4,0.5-1,0.2-1.4l-0.1,0.1c-0.1-0.3,0.6-0.3,0.3-0.6l-0.1,0.1c-0.1-0.6,0.1-1.3-0.3-1.8c0.4-0.1-0.2-0.6,0.4-0.7
						c-0.3-0.4-0.4-0.3-0.6-0.8c0-0.1,0.4-0.2,0.4-0.4l-0.3,0l0.3-0.2l-0.4-0.1l0.1-0.2c0,0.1,0.1,0.1,0.2,0.1
						c0.1-0.2-0.2-0.6-0.4-0.6l0.3-0.6c-0.1,0-0.2,0.1-0.2,0.2c0.3-0.3-0.3-0.1,0-0.3c0.1,0,0.2,0,0.2,0c-0.2-0.1-0.2-0.5-0.1-0.7
						l-0.2,0c-0.1-0.4,0.1-0.9,0.2-1.4c0.1,0.2,0.5,0.2,0.5,0l-0.3-0.1c0.2-0.1,0.1,0.2,0.4,0c0-0.2-0.4-0.1-0.5,0l0.1-0.2
						c-0.1,0-0.2,0-0.3,0c0.2-0.1-0.3-0.4,0.1-0.5l-0.1,0c0-0.5,0.1-0.7,0.2-1.1c0.3,0,0.2-0.1,0.5-0.2c-0.1-0.3-0.3-0.6-0.2-1
						c0.2-0.2,0.2-0.1,0.4-0.1c-0.3,0-0.2-0.4-0.4-0.2c0.1-0.4,0.1-0.5,0.4-1c0.1,0.1,0.1,0.1,0.2,0.1c0.1-0.1-0.1-0.2-0.2-0.2l0,0
						c0.4-0.5-0.6-1.4,0-1.8l0,0l0.3-0.4c0-0.2-0.2,0.1-0.3-0.1c0.5-0.5,0-0.8,0.4-1.2c-0.7-0.4,0.2-1.2-0.2-1.7l0.2,0.1
						c0.2-0.1-0.1-0.2-0.1-0.2c0.1,0,0.1,0.2,0.2,0.1c0.4-0.9,0.1-2.1,0.1-3.1c0-0.4,0.9,0,0.6-0.6l-0.4,0.1
						c0.6-0.6,0.3-1.5,0.8-2.1c-0.1,0-0.2,0-0.2,0.1c-0.2-0.2,0.1-0.6,0.3-0.5c0-0.1-0.2-0.1-0.2-0.2c-0.1-0.2,0.4-0.3,0.2-0.4
						c0,0-0.1,0-0.1,0c0.1-0.1,0.1-0.5,0.4-0.3c0-0.3,0.3-0.5,0.2-0.7c0.3,0,0-0.5,0.4-0.4c-0.4-0.1-0.2-0.6,0.1-0.7
						c-0.1,0-0.1-0.2-0.3-0.2c0.1-0.2,0.2-0.3,0.4-0.2c-0.4-0.5,0.6-0.6,0.1-1c0.5-0.5,0.8-0.9,1.1-1.4c-0.4-0.2-0.3,0.5-0.7,0.3
						c0.4-0.4,0.8-0.5,0.9-1c0-0.1-0.2,0-0.3,0c0.4-0.4,0.3-0.9,0.7-1.2c0,0-0.1,0-0.2,0c0.1-0.1,0-0.2,0.2-0.1l-0.1,0.1
						c0.2,0.2,0.7-0.1,0.9,0c-0.6-0.1,0.1-0.5-0.7-0.6c0.1,0,0.2-0.1,0.3,0c0-0.1-0.1-0.2-0.2-0.1c0.2-0.2,0.4,0,0.5-0.3
						c-0.1,0-0.1,0-0.3,0c0.2,0,0.5-0.1,0.5-0.3c-0.1,0-0.1-0.1-0.1,0c0.2-0.4,0.8-0.4,0.8-0.9c-0.4-0.1-0.1-0.2-0.4-0.4l0.2-0.2
						l0.1,0.2c0.1-0.2,0.4-0.2,0.4-0.4l-0.2,0.1l0.3-0.3l0,0.3c0.3-0.1,0.4,0.3,0.5,0c-0.1,0,0.1-0.2,0-0.4l0,0
						c0.2,0,0.3-0.1,0.3-0.2C21.3,11,21,10.9,21,10.8c0.3,0.1,0.3-0.4,0.7-0.3c-0.1,0-0.3-0.1-0.3-0.1l0.3,0.1c0-0.1,0-0.2-0.2-0.2
						c0.1-0.3,0.3,0.3,0.4-0.1c0,0-0.1,0-0.1,0c0.1-0.4,0.5-0.5,0.6-0.8C22,9,22.1,9.5,21.9,9.2c0.3-0.4,1-0.5,1.2-0.9l0,0.1
						c0.5,0.3,0-0.4,0.3-0.5c-0.1,0-0.3-0.1-0.2-0.1c0.1-0.3,0.5-0.4,0.9-0.7l-0.1,0c0-0.2,0.2-0.4,0.3-0.6c0.1,0,0.2-0.1,0.3,0.1
						c-0.2-1,1.1-0.6,1-1.4c0,0-0.2,0-0.2,0l0.4-0.3c0.1,0.2,0.1,0.1,0.1,0.3c0.1,0.1,0.3,0,0.4-0.1c-0.2,0-0.3-0.3-0.3-0.4
						c0,0.1,0.1,0.1,0.2,0.1c-0.1-0.5,0.4,0.3,0.4-0.1l-0.1-0.1c0.1,0,0.3,0,0.4-0.1c-0.1-0.2-0.2,0-0.3-0.1
						c0.1-0.1,0.6,0.1,0.6-0.2c-0.1,0-0.2,0.1-0.3,0.1c-0.1-0.3,0-0.3,0.1-0.4l0,0l0.1-0.3l0,0.1c0.7,0.4,0.4-0.2,1-0.1
						c-0.5-0.1-0.2-0.2-0.4-0.4c0-0.1,0-0.3-0.1-0.3c0.3,0.1,0.1-0.3,0.5-0.2c-0.1-0.1,0.1-0.1-0.1-0.3c0.2-0.1,0.1,0.2,0.2,0.2
						c0.4,0.1,0.3-0.8,0.9-0.7c0.4-0.1,0.7,0.1,1,0.1c0-0.2-0.3-0.2-0.3-0.2c0.1-0.2,0.2-0.3,0.4-0.3c-0.1,0-0.1-0.1-0.1-0.2
						c0.1-0.1,0.3,0.2,0.4,0C30.1,1.2,30,1.1,29.9,1c0.2,0,0.4,0,0.6,0c-0.1-0.2-0.2-0.1-0.4-0.2c0.2-0.1,0.5-0.2,0.7,0l0,0.2
						c0.1,0-0.1-0.2-0.2-0.2c-0.3-0.1-0.1,0.2-0.1,0.3l0.1,0c0.2,0.5-0.4,0.2-0.6,0.4l0.3,0.3L30,1.6c0,0.1,0.1,0.3,0.3,0.3
						c0,0.3-0.2,0-0.2,0.2c0,0,0,0,0,0.1l-0.2,0c0.1,0,0.2,0.2,0.2,0.1c-0.1,0.4-0.6,0-0.5,0.4l0,0c-0.4,0.1-0.2-0.2-0.7-0.3
						l0.3,0.7L29,2.9c0,0-0.1,0.1,0,0.2C28.8,3.1,29,3,28.8,2.9c0,0.4-0.5,0.3-0.2,0.7c-0.2-0.1,0-0.3-0.2-0.2
						c0.3,0.4-0.3,0.1-0.2,0.4c0.2,0.2,0.3-0.1,0.3,0.2C28,3.8,28.1,4.3,28,4.4c-0.3-0.3-0.4,0.1-0.6,0.2c0.1,0.1-0.2,0.5-0.3,0.8
						l0,0c-0.3-0.2-0.4,0-0.6,0.1c0.2,0.1,0.2,0.2,0.4,0.2l-0.1,0.1c-0.1-0.1-0.2-0.1-0.3,0L26.6,6c-0.2,0.2-0.6,0.1-0.6,0.5
						c-0.2-0.2-0.4-0.7-0.7-0.5c0.1,0.1,0.3,0.3,0.4,0.2c0,0-0.2,0-0.1,0.1l0.3,0.1c0,0.2-0.2-0.1-0.3,0c0.1,0.1,0,0.2,0.2,0.2
						c0,0,0-0.1,0.1-0.1c-0.1,0.1-0.1,0.3,0,0.4c-0.1-0.1-0.2-0.2-0.3-0.1c-0.2,0.2,0.1,0.2,0.1,0.4c-0.1,0-0.1,0.2-0.4,0
						c0,0.1,0.1,0.2,0.1,0.2c-0.2,0-0.4,0.4-0.5,0.1l0,0l0,0l0,0l0,0c-0.5,0.1-0.4,0.8-0.7,1l0.1,0.1c-0.2,0.1-0.4,0.4-0.6,0.4
						c0,0.1,0,0.2,0.2,0.3c-0.2,0.1-0.3,0.1-0.3,0.4c0.3,0,0.1,0.1,0.2-0.1c-0.1,0.2,0,0.4-0.3,0.4c0.3,0.1,0.2,0.3,0,0.4L23.2,10
						c-0.1,0.1-0.1,0.2-0.2,0.3l0.3,0.1c0.1,0.6-1,0.4-0.7,1c-0.3,0,0-0.3-0.3-0.4c-0.1,0.2,0.2,0.7,0.2,0.7c0,0.3-0.6,0-0.6,0.3
						c-0.1-0.1-0.3-0.3-0.6-0.1c-0.1,0.2,0.3,0.5,0.4,0.4c0,0,0-0.1,0-0.1c0.1,0,0.2-0.1,0.2,0l-0.1,0c0,0.2-0.1,0.4,0.1,0.4
						c-0.2,0.1-0.2,0-0.2-0.2c0,0.3-0.2,0.4-0.2,0.7c0-0.1-0.1-0.2-0.2-0.1c-0.1,0.5-0.3,0.1-0.5,0.3c0.1,0.2,0.4,0.2,0.1,0.3
						c0,0.2,0.3,0.2,0.4,0.2c-0.3,0.1-0.1,0.5-0.1,0.7l0.1-0.1c-0.1,0-0.1,0.1-0.1,0.2l-0.2-0.2c0,0.1,0,0.2,0.1,0.2
						c-0.2,0-0.3-0.2-0.6-0.2c0.1,0.2-0.3,0.2,0,0.4c0.1-0.4,0.3,0.2,0.4-0.1C21,14.9,21,14.9,21,15c0,0,0.1,0,0.1,0
						c0.1,0.4-0.4,0-0.5,0.3c0.2,0,0.3,0.2,0.2,0.2c0.1-0.1-0.2-0.2-0.4-0.1c0,0.3-0.2,0.2-0.2,0.3v-0.1c-0.2,0-0.2,0.1-0.3,0.2
						c0.1,0.1,0.1-0.1,0.2,0c-0.3,0,0.2,0.5-0.1,0.6c0.1,0.1,0.3,0.1,0.3,0.3c-0.3,0.2,0.1,0.4-0.2,0.5c-0.2-0.2-0.1-0.2-0.4-0.1
						l0.3-0.4l-0.4,0.1c0-0.1,0.2-0.2,0.2-0.3c-0.2,0.1-0.2,0.1-0.3-0.1c0.3,0.3-0.3,0.3-0.2,0.6l0.5,0.2c0.1,0.4-0.5,0.4-0.5,0.9
						l0-0.2c-0.2,0-0.1,0.2-0.3,0.3c0.2,0.1,0.2,0.2,0.3,0.3c-0.1-0.1-0.1,0.3-0.5,0.2l0.2,0.3c0,0.4-0.6,0.2-0.7,0.5
						c0.2,0,0.3,0.2,0.5,0c0,0.1,0,0.2-0.2,0.2c0.1,0.1-0.3,0.2-0.2,0.4c-0.1,0-0.3,0-0.3,0.1c0,0,0.1,0,0.1,0c-0.1,0-0.2,0.1-0.4,0
						c0.5,0.5-0.3,0.9,0.1,1.3c-0.1,0.2-0.3,0.5-0.4,0.7c0.1,0,0.1,0,0.1,0c0.1,0.3-0.6,0-0.5,0.4c0.3,0.3,0.2-0.1,0.3,0
						c0.6,0.2-0.2,0.4,0.1,0.7l0.1,0c0.2,0.2-0.3,0.4-0.4,0.7c0,0,0.1,0,0.1,0c-0.4,0.1-0.6,0.5-0.7,0.7c0.3,0,0.2-0.1,0.4,0
						c-0.1,0.1-0.4-0.1-0.5,0.1c0.1,0.1,0.2,0.3,0.5,0.4l0.1-0.2c0.3,0.2-0.1,0.3-0.1,0.4l0.2,0c-0.1,0.3-0.5,0.3-0.6,0.6L16.5,26
						c-0.4,0.1,0.2,0.2-0.1,0.4l0.4,0.1c-0.1,0.1-0.5,0.4-0.6,0.6c0.3-0.1,0.5-0.3,0.7-0.5c0,0.1-0.1,0.5-0.3,0.5
						c0,0,0.2-0.1,0.1-0.2c-0.3,0.1-0.5,0.3-0.6,0.6c0.8,0.1,0.1,0.7,0.6,1c-0.4,0.4,0,1-0.2,1.5c-0.6-0.3,0,0.2-0.6,0
						c-0.1,0.1-0.1,0.2,0,0.2l0.3,0.5c0.2,0.1,0.1-0.1,0.3-0.1c0,0.3,0.2,0.2,0.4,0.4c-0.2-0.1-0.3,0.1-0.3,0.2l-0.3-0.3
						c-0.4,0.4,0.5,0.4,0.1,0.8l0.2-0.1c-0.1,0.2-0.1,0.8-0.6,0.9c0.1,0,0.2,0.1,0.3,0c0,0.5-0.6,1.1-0.4,1.5l0.2,0
						c-0.1,0.1-0.3,0.1-0.2,0.3c0.1,0,0.2,0,0.2,0c-0.1,0-0.3,0.2-0.2,0.4l0.2-0.1c0.2,0.5-0.5,0.7-0.6,1.1c0.4,0,0.6,0.4,0.6,0.6
						l0.1,0c0,0.6-0.4,0.9-0.6,1.5c0.5,0.4,0.1,1.1,0.4,1.7c-0.1-0.1-0.3,0-0.4,0.1c0.1,0.1-0.3,0.3,0.1,0.3l0,0
						c0.4,0.1,0.3,0.4,0.3,0.6l-0.5,0c0.8,0.5-0.3,1.4,0.4,1.7c-0.1,0.1-0.1,0.3-0.3,0.4l0.3,0c0.1,0.3,0.1,0.5,0,1l0.2-0.1
						c0,0.2-0.8,0.3-0.8,0.5l0.4,0.1c0,0.4,0.4,0.8,0,1.3c0.1,0,0.2,0,0.2-0.1c0,0.2,0.3,0.8-0.3,0.7c0.4,0,0,0.4-0.1,0.7l0.3,0
						c-0.4,0.2-0.4,0.2-0.5,0.5c0,0.1,0.2,0,0.2,0c0.2,0.2-0.3,0.2-0.1,0.4l0.2-0.1c0,0.2-0.1,0.2-0.3,0.3c-0.1,0.1,0.1,0.4,0.3,0.4
						c-0.2,0-0.4,0.2-0.3,0.3c0.1,0,0.2,0,0.2-0.1c0.2,0.4-0.3,0.6,0,0.8c0.1,0,0.1,0,0.2,0c0-0.3,0-0.5-0.1-0.5
						c0.3,0,0.3,0.2,0.7,0c-0.2,0.2-0.6,0.5-0.5,0.8c0,0,0.1,0,0.1,0l0,0c0,0.1,0,0.1,0,0.1c0,0.1,0.1,0.1,0.1,0.2
						c0.2,0,0.1,0.3,0.2,0.4c-0.3,0-0.2,0.2-0.5,0c0,0,0,0,0-0.1c0,0,0,0,0-0.1l0,0c0-0.1,0-0.2,0-0.3c-0.1,0.1-0.3,0.2-0.1,0.3
						c-0.2,0.1-0.4,0.1-0.4,0.2c0.4,0.1,0.6,0.4,0.9,0.5c-0.1,0.4,0,0.8-0.6,1.1c-0.1,0.1,0.2,0.1,0.2,0.1c0-0.1,0-0.1,0.1-0.2
						c-0.1,0.2,0,0.6-0.4,0.7c0.2,0.2,0.3-0.2,0.3,0.2l0.1-0.1c0.6,0.7-0.9,1.2-0.1,1.9c0,0-0.1-0.1-0.1-0.1
						c0.4,0.9-0.1,1.8,0.5,2.7c0.1,0.2-0.1,0.3-0.3,0.5l0.3,0l-0.3,0.3c-0.2,0.4,0.8,0.6,0.4,1.1l-0.2,0c0.1,0.2-0.1,0.5,0.2,0.5
						c0,0-0.2,0.1-0.1,0.1l0.2,0l-0.2,0.4c0.1,0.3,0.6-0.1,0.7,0.3c0,0.2-0.4,0.5-0.5,0.5c0-0.1-0.1-0.2-0.3-0.2l-0.1,0.2
						c-0.5,0.1-0.9,0.3-1.3-0.1l0.3-0.3l-0.2-0.1l0,0.2c-0.2-0.1,0-0.2,0.1-0.3c-0.1,0-0.2,0-0.3-0.1l0.4-0.3c-0.2,0-0.3,0.2-0.5,0
						c0.2-0.1,0.4,0.1,0.5-0.1c-0.2-0.1-0.4-0.1-0.2-0.2c-0.1,0-0.2,0-0.2,0.1c0.1-0.2,0-0.4,0.3-0.5c-0.3-0.1,0-0.5-0.4-0.4
						c0.1-0.1,0.3-0.3,0.3-0.4c-0.5,0.3-0.1-0.5-0.6-0.3c0.5-0.2,0.2-0.6,0.4-0.9c0,0-0.1,0.1-0.1,0.1c-0.1-0.2-0.2-0.2-0.3-0.3
						c0.4-0.1,0.5-0.3,0.7-0.5c-0.4-0.2-0.4,0.2-0.8,0.1c0.3,0,0.3-0.4,0.6-0.3C14,56,14.1,56,13.8,55.9c0.5-0.1,0.1-0.2,0.4-0.3
						c-0.3-0.2-0.5,0-0.3-0.3C13.6,55.2,13.5,55.5,13.5,55.5z M13.9,49.5L13.9,49.5c0,0.1,0,0.1,0,0.1
						C13.9,49.6,13.9,49.5,13.9,49.5z M13.9,49c0,0.1,0,0.1,0,0.2c0.1,0,0.2,0,0.2-0.1C14,49.1,14,49,13.9,49z M15.9,49.9
						c0-0.1,0-0.1-0.1-0.1c0,0,0,0.1,0,0.1l0,0C15.8,49.9,15.8,49.9,15.9,49.9z"/>
					<path fill="#FFFFFF" d="M15.5,50.1C15.5,50.1,15.5,50.1,15.5,50.1C15.5,50.1,15.5,50.1,15.5,50.1L15.5,50.1L15.5,50.1z"/>
					<path fill="#FFFFFF" d="M24.8,7.4L24.8,7.4C24.8,7.4,24.8,7.4,24.8,7.4C24.8,7.4,24.8,7.4,24.8,7.4z"/>
					<polygon fill="#FFFFFF" points="13.2,42 13.3,42 13.2,42.1 					"/>
					<path fill="#FFFFFF" d="M25.9,4.8C25.9,4.7,25.9,4.7,25.9,4.8C25.9,4.7,25.9,4.7,25.9,4.8z"/>
					<path fill="#FFFFFF" d="M26.7,3.9l0.1-0.2C26.8,3.8,26.8,3.8,26.7,3.9z"/>
					<path fill="#FFFFFF" d="M27.3,3.1C27.4,3.2,27.4,3.2,27.3,3.1L27.3,3.1L27.3,3.1z"/>
					<path fill="#FFFFFF" d="M18.4,14.9C18.4,14.9,18.4,14.9,18.4,14.9C18.3,15,18.4,14.9,18.4,14.9z"/>
					<path fill="#FFFFFF" d="M21.1,11.3c-0.1,0-0.1,0-0.2,0.1C20.9,11.3,20.9,11.2,21.1,11.3z"/>
					<polygon fill="#FFFFFF" points="16.4,19.4 16.4,19.4 16.3,19.4 					"/>
					<path fill="#FFFFFF" d="M20.8,11.5c0-0.1,0-0.1,0.1-0.2C20.9,11.4,20.9,11.5,20.8,11.5z"/>
					<path fill="#FFFFFF" d="M30.4,0.5L30.4,0.5C30.4,0.5,30.4,0.5,30.4,0.5L30.4,0.5z"/>
					<path fill="#FFFFFF" d="M30.4,0.5L30.4,0.5C30.5,0.5,30.5,0.5,30.4,0.5z"/>
					<path fill="#FFFFFF" d="M30.6,0.5l-0.1,0C30.5,0.5,30.6,0.4,30.6,0.5z"/>
					<path fill="#FFFFFF" d="M29.5,1.3L29.5,1.3C29.4,1.3,29.5,1.3,29.5,1.3z"/>
					<path fill="#FFFFFF" d="M29.2,1.5c0.1-0.1,0-0.3,0.2-0.3l0.1,0.1C29.3,1.2,29.3,1.6,29.2,1.5z"/>
					<path fill="#FFFFFF" d="M28.8,3.5L29,3.2c0,0.1,0.1,0.3,0.2,0.2C29.1,3.9,29.1,3.2,28.8,3.5z"/>
					<path fill="#FFFFFF" d="M28.2,4.2c0.2-0.1,0.1,0.1,0.2,0.2C28.2,4.4,28.2,4.4,28.2,4.2z"/>
					<path fill="#FFFFFF" d="M23.7,9.3l0.2,0.1C23.8,9.5,23.8,9.3,23.7,9.3z"/>
					<polygon fill="#FFFFFF" points="21.9,9.6 21.8,9.4 22,9.4 					"/>
					<polygon fill="#FFFFFF" points="23,11.2 23,11.2 22.9,11.3 					"/>
					<path fill="#FFFFFF" d="M18.3,21.4L18,21.3C18.1,21.2,18.4,21.3,18.3,21.4z"/>
					<path fill="#FFFFFF" d="M16.8,26c0.1,0.1,0.2,0.2,0,0.3C16.8,26.2,16.7,26.1,16.8,26z"/>
					<polygon fill="#FFFFFF" points="15.8,40.8 15.9,40.7 15.8,40.9 					"/>
				</g>
			</g>
		</g>
		<g>
			<g>
				<g>
					<path fill="#FFFFFF" d="M31.4,40.7c0.1,0.1,0.2,0.2,0.1,0.2l-0.2-0.2L31.4,40.7z"/>
					<path fill="#FFFFFF" d="M31.3,41.5c-0.2-0.1-0.4-0.2-0.6-0.5c0.3,0.2,0.2,0.1,0.5,0.3c0.1,0,0.1-0.2,0-0.3
						c0.1,0.1,0.1-0.1,0.2,0c0.1,0.3,0,0.4-0.3,0.3C31.2,41.4,31.2,41.5,31.3,41.5z"/>
					<path fill="#FFFFFF" d="M25.6,47.1L25.6,47.1C25.6,47,25.6,47.1,25.6,47.1z"/>
					<path fill="#FFFFFF" d="M22.7,51C22.7,51,22.8,51,22.7,51C22.8,51.1,22.7,51.1,22.7,51z"/>
					<path fill="#FFFFFF" d="M22.6,51.9C22.6,51.9,22.6,51.9,22.6,51.9C22.6,51.9,22.6,51.9,22.6,51.9z"/>
					<path fill="#FFFFFF" d="M25.6,47.1l0,0.2C25.5,47.2,25.5,47.2,25.6,47.1z"/>
					<path fill="#FFFFFF" d="M29.9,41.5c0,0,0.1,0,0.1,0C30,41.5,30,41.5,29.9,41.5L29.9,41.5z"/>
					<path fill="#FFFFFF" d="M27.3,45.8L27.3,45.8c0.1,0,0.1,0,0.1,0L27.3,45.8z"/>
					<path fill="#FFFFFF" d="M28.5,44.7c0,0-0.2-0.2-0.3-0.3c0.1,0.1,0.1,0.1,0.2,0.1C28.5,44.6,28.5,44.6,28.5,44.7z"/>
					<path fill="#FFFFFF" d="M30.3,42.6L30.3,42.6C30.3,42.7,30.3,42.7,30.3,42.6z"/>
					<path fill="#FFFFFF" d="M26.5,46.6C26.5,46.6,26.5,46.7,26.5,46.6C26.5,46.7,26.5,46.6,26.5,46.6z"/>
					<path fill="#FFFFFF" d="M2.8,39.7C2.8,39.7,2.8,39.7,2.8,39.7C2.8,39.7,2.8,39.7,2.8,39.7z"/>
					<polygon fill="#FFFFFF" points="0.5,38.9 0.5,39 0.4,39.1 					"/>
					<path fill="#FFFFFF" d="M22.1,53.4L22.1,53.4C22.2,53.4,22.2,53.4,22.1,53.4z"/>
					<path fill="#FFFFFF" d="M14,62.2c0.3,0,0-0.6,0.4-0.6C14.3,61.6,14.3,62.3,14,62.2z"/>
					<path fill="#FFFFFF" d="M29.9,41.6C29.9,41.6,29.9,41.6,29.9,41.6C29.9,41.6,29.9,41.6,29.9,41.6z"/>
					<path fill="#FFFFFF" d="M14.4,61.6L14.4,61.6L14.4,61.6C14.5,61.6,14.4,61.6,14.4,61.6z"/>
					<path fill="#FFFFFF" d="M20.4,56.5C20.4,56.4,20.3,56.4,20.4,56.5C20.3,56.4,20.4,56.4,20.4,56.5z"/>
					<path fill="#FFFFFF" d="M21.2,53.9L21.2,53.9C21.2,54,21.2,53.9,21.2,53.9z"/>
					<path fill="#FFFFFF" d="M19.5,57.5C19.5,57.6,19.5,57.6,19.5,57.5C19.4,57.6,19.4,57.6,19.5,57.5
						C19.5,57.6,19.5,57.6,19.5,57.5z"/>
					<polygon fill="#FFFFFF" points="18.9,58.9 18.8,58.8 18.9,58.8 					"/>
					<path fill="#FFFFFF" d="M5.2,43.4c-0.1,0-0.2,0.1-0.2,0.1C5.2,43.4,5.1,43.1,5.2,43.4z"/>
					<path fill="#FFFFFF" d="M30,41.6c0-0.1-0.1-0.1-0.1-0.1C29.9,41.6,29.9,41.6,30,41.6C30,41.6,30,41.6,30,41.6z"/>
					<path fill="#FFFFFF" d="M17.4,56.7l-0.1,0.2C17.4,56.8,17.4,56.8,17.4,56.7z"/>
					<path fill="#FFFFFF" d="M10.9,52.1L10.9,52.1C10.9,52,10.9,52.1,10.9,52.1z"/>
					<path fill="#FFFFFF" d="M17,57.5c0.1,0.1,0.1,0.1,0.1,0.2c0,0,0,0-0.1,0L17,57.5z"/>
					<path fill="#FFFFFF" d="M5,43.5L5,43.5L5,43.5z"/>
					<path fill="#FFFFFF" d="M4.7,41.8c0.1,0.2-0.2,0.3-0.4,0.5c0.1,0.3,0.3-0.1,0.5-0.1c0,0.2-0.2,0.5-0.1,0.6c0.1,0,0.1,0,0.1-0.1
						c-0.1,0.3,0.3,0.4,0.1,0.8c0,0,0.1,0,0.1,0c-0.2,0.1-0.3,0.2-0.4,0.3c0.1,0.1-0.1,0.3,0.1,0.2c0,0,0-0.1,0.1-0.2l0,0.1
						c0.3-0.1,0-0.2,0.2-0.3c0,0.2-0.1,0.6,0.1,0.7c0.3-0.2-0.1-0.4,0.3-0.4l-0.2-0.1c0.5-0.2-0.1-0.1,0.5-0.3
						c0.3,0.2,0.1,0.4,0.3,0.6c-0.1,0.2-0.2,0.1-0.4,0.3c0,0.6,0.9-0.2,0.7,0.3c-0.1,0.2-0.5,0.5-0.2,0.5l0.3-0.3
						c0.2,0.2-0.4,0.5,0,0.6c0.1-0.1,0-0.3,0-0.3c0.4,0-0.1,0.2,0,0.4l0.3-0.2c0.1,0.3,0.1,0.7,0.3,1.1c0.1-0.1,0.1-0.2,0.3-0.2
						c0.1,0.5,0.6,0.8,1,1L8,47.7c0,0,0.2,0,0.2-0.1c0.2,0.1-0.2,0.1-0.2,0.2c0,0.1,0.2,0,0.3-0.1c0,0.4,0,1,0.5,1.1l0-0.1
						c0.2,0.1-0.4,0.6,0,0.6l0-0.1c0.4,0.4,0.5,1,1.1,1.1c-0.3,0.3,0.4,0.3,0,0.7c0.4,0.1,0.5,0,0.8,0.2c0.1,0.1-0.2,0.3-0.2,0.5
						l0.3-0.2L10.5,52l0.4-0.1l0,0.2c0,0-0.2,0-0.2,0c0,0.3,0.4,0.3,0.6,0.2l0,0.6c0.1-0.1,0.1-0.2,0.1-0.3
						c-0.1,0.4,0.3-0.1,0.2,0.2c-0.1,0-0.1,0.1-0.2,0.1c0.2,0,0.4,0.2,0.4,0.5l0.2-0.1c0.2,0.3,0.3,0.7,0.5,1.1
						c-0.2-0.1-0.5,0.1-0.4,0.3l0.3-0.1c-0.1,0.2-0.2,0-0.3,0.2c0.1,0.1,0.4-0.1,0.4-0.2l0,0.2c0.1,0,0.1-0.1,0.2-0.2
						c-0.1,0.2,0.4,0.1,0.2,0.4l0.1,0c0.2,0.4,0.2,0.6,0.4,0.9c-0.2,0.1-0.1,0.2-0.3,0.4c0.2,0.2,0.5,0.3,0.7,0.6
						c0,0.3-0.2,0.2-0.3,0.3c0.2-0.1,0.4,0.2,0.4-0.1c0.1,0.3,0.2,0.4,0.2,0.9c-0.1,0-0.2,0-0.2,0.1c0,0.1,0.2,0.1,0.3,0l0,0
						c-0.1,0.6,1.2,0.7,0.9,1.3l0,0l0,0.5c0.1,0.1,0.1-0.2,0.3-0.1c-0.1,0.7,0.2,0.3,0.1,0.6c0.3-0.3,0.3-0.3,0.3-0.2
						c0,0.1,0,0.3,0.1-0.1l0,0.3c0,0.3,0-0.1,0-0.2c0,0.2,0,0.3-0.1,0.4c0,0.1,0,0.2,0.1,0.2c0,0,0.1,0,0.1-0.2c0-0.3,0-0.7,0-0.8
						c0,0,0.5,1.2,0.3,0.6c0,0-0.1-0.1-0.1-0.2c0-0.1-0.1-0.2-0.1-0.2c0.1,0.2,0.2,0.1,0.2,0c0-0.1,0,0,0.1-0.1
						c0.1-0.1,0.2-0.3,0.3-0.4c-0.1,0-0.2,0-0.2,0c-0.2-0.2,0.2-0.4,0.4-0.4c0-0.1-0.2-0.1-0.2-0.2c-0.1-0.2,0.4-0.2,0.2-0.3
						c0,0-0.1,0-0.1,0c0.1,0,0.1-0.4,0.4-0.2c0-0.3,0.3-0.4,0.2-0.6c0.3,0,0-0.4,0.4-0.3c-0.4-0.2-0.2-0.5,0.1-0.6
						c-0.1,0-0.1-0.2-0.3-0.2c0.1-0.2,0.2-0.3,0.4-0.1c-0.4-0.5,0.7-0.4,0.1-0.8c0.4-0.4,0.8-0.7,1.1-1.1c-0.4-0.2-0.3,0.4-0.7,0.2
						c0.4-0.3,0.8-0.4,0.9-0.8c0-0.1-0.2,0-0.3,0c0.4-0.3,0.3-0.8,0.7-1c0,0-0.1,0-0.1,0c0-0.1,0-0.2,0.2-0.1l-0.1,0
						c0.2,0.2,0.7,0,0.8,0.1c-0.6-0.2,0.1-0.4-0.7-0.6c0.1,0,0.2,0,0.3,0c0-0.1-0.1-0.1-0.2-0.2c0.2-0.2,0.4,0,0.5-0.2
						c-0.1,0-0.1,0-0.3-0.1c0.2,0,0.5,0,0.5-0.3c-0.1,0-0.1-0.1-0.1,0c0.2-0.3,0.8-0.3,0.8-0.7c-0.4-0.1-0.1-0.2-0.4-0.4l0.2-0.1
						l0.1,0.2c0.1-0.2,0.4-0.2,0.4-0.4l-0.2,0l0.3-0.3l0,0.2c0.3-0.1,0.4,0.3,0.4,0c-0.1,0,0.1-0.2,0-0.4l0,0c0.1,0,0.3,0,0.3-0.2
						c-0.1-0.1-0.4-0.2-0.4-0.3c0.3,0.1,0.3-0.3,0.7-0.2c-0.1,0-0.2-0.1-0.3-0.2l0.3,0.1c0-0.1,0-0.1-0.2-0.2c0.1-0.2,0.3,0.3,0.4,0
						c0,0-0.1,0-0.1,0c0.1-0.3,0.5-0.4,0.5-0.7c-0.2-0.3-0.2,0.1-0.4-0.1c0.3-0.3,0.9-0.4,1.1-0.7l0,0.1c0.4,0.3,0-0.4,0.3-0.4
						c-0.1,0-0.3-0.1-0.2-0.1c0.1-0.3,0.5-0.3,0.9-0.5l-0.1-0.1c0-0.2,0.2-0.4,0.3-0.5c0.1,0.1,0.2,0,0.3,0.1
						c-0.2-0.9,1-0.4,0.9-1.2c0,0-0.2,0-0.1,0l0.4-0.2c0.1,0.2,0.1,0.1,0.1,0.3c0.1,0.1,0.3,0.1,0.4,0c-0.2,0-0.3-0.3-0.3-0.4
						c0,0.1,0.1,0.1,0.2,0.2c-0.1-0.4,0.3,0.3,0.4-0.1L27,44.7c0.1,0,0.3,0,0.4-0.1c-0.1-0.2-0.2,0-0.3-0.2c0.1-0.1,0.6,0.2,0.5-0.1
						c-0.1,0-0.2,0.1-0.3,0c-0.1-0.3,0-0.3,0-0.4l0,0l0.1-0.3l0,0.1c0.6,0.4,0.4-0.2,0.9,0c-0.5-0.2-0.2-0.2-0.4-0.4
						c0-0.1,0-0.3-0.1-0.3c0.3,0.1,0-0.3,0.4-0.1c-0.1-0.1,0.1-0.1-0.1-0.3c0.2,0,0.1,0.2,0.2,0.2c0.4,0.1,0.2-0.7,0.8-0.6
						c0.4,0,0.6,0.2,0.9,0.1c0-0.2-0.3-0.2-0.3-0.2c0-0.2,0.2-0.3,0.3-0.3c-0.1-0.1-0.1-0.1-0.1-0.2c0.1-0.1,0.3,0.2,0.3,0
						c-0.1-0.1-0.2-0.2-0.3-0.2c0.2,0,0.4,0.1,0.6,0c-0.1-0.2-0.2-0.2-0.3-0.2c0.2,0,0.4-0.1,0.6,0.1l0,0.1c0.1,0-0.1-0.2-0.2-0.2
						c-0.2-0.1-0.1,0.2-0.1,0.3l0.1,0c0.3,0.5-0.4,0.2-0.5,0.3l0.3,0.3l-0.4-0.1c0,0.1,0.1,0.3,0.3,0.3c0,0.3-0.2,0-0.2,0.2
						c0,0,0,0,0,0.1l-0.2,0c0.1,0.1,0.2,0.2,0.2,0.1c-0.1,0.4-0.5,0-0.4,0.3l0,0c-0.4,0.1-0.2-0.2-0.7-0.3l0.3,0.7l-0.2-0.2
						c0,0-0.1,0.1,0,0.2c-0.2-0.1-0.1-0.1-0.3-0.2c0,0.3-0.5,0.2-0.2,0.6c-0.2-0.1,0-0.2-0.2-0.3c0.3,0.4-0.2,0.1-0.2,0.4
						c0.2,0.2,0.2,0,0.3,0.3c-0.4-0.3-0.2,0.3-0.3,0.3c-0.2-0.3-0.3,0.1-0.6,0.1c0.1,0.1-0.2,0.4-0.3,0.7l0,0c-0.3-0.2-0.4,0-0.6,0
						c0.2,0.2,0.2,0.2,0.4,0.2l-0.1,0.1c-0.1-0.1-0.2-0.1-0.3,0l0.2,0.2c-0.2,0.1-0.5,0-0.6,0.4c-0.2-0.2-0.3-0.7-0.7-0.6
						c0.1,0.1,0.2,0.3,0.3,0.3c0,0-0.1,0-0.1,0.1l0.2,0.1c0,0.2-0.2-0.1-0.2,0c0.1,0.1,0,0.1,0.2,0.3c0,0,0-0.1,0.1-0.1
						c-0.1,0.1-0.1,0.3,0,0.4c-0.1-0.1-0.2-0.2-0.3-0.2c-0.2,0.1,0.1,0.2,0.1,0.4c-0.1-0.1-0.1,0.1-0.3-0.1c0,0,0.1,0.1,0.1,0.2
						c-0.2,0-0.4,0.3-0.5,0l0,0c0,0,0,0,0,0l0,0l0,0c-0.4,0.1-0.4,0.6-0.7,0.8l0.1,0.1c-0.2,0.1-0.3,0.3-0.6,0.3c0,0,0,0.2,0.2,0.3
						c-0.2,0.1-0.3,0-0.3,0.3c0.2,0,0.1,0.1,0.2,0c-0.1,0.2,0,0.3-0.3,0.3c0.2,0.1,0.2,0.3,0,0.3l-0.1-0.2c-0.1,0.1-0.1,0.2-0.2,0.2
						l0.3,0.2c0.1,0.6-1,0.2-0.6,0.8c-0.3,0,0-0.3-0.3-0.4c-0.1,0.2,0.2,0.6,0.2,0.7c0,0.3-0.5-0.1-0.6,0.2
						c-0.1-0.1-0.3-0.3-0.5-0.2c-0.1,0.2,0.3,0.5,0.4,0.4c0,0,0-0.1,0-0.1c0.1,0,0.2-0.1,0.2,0.1l-0.1,0c0,0.1-0.1,0.4,0.1,0.4
						c-0.2,0.1-0.2-0.1-0.2-0.2c0,0.3-0.2,0.3-0.2,0.6c0-0.1-0.1-0.2-0.2-0.1c-0.1,0.4-0.3,0-0.4,0.2c0.1,0.2,0.4,0.2,0.1,0.3
						c0,0.2,0.3,0.2,0.4,0.2c-0.3,0.1-0.1,0.4-0.1,0.6l0.1-0.1c-0.1,0-0.1,0.1-0.1,0.1l-0.2-0.2c0,0.1,0,0.1,0.1,0.2
						c-0.2,0-0.3-0.2-0.6-0.2c0.1,0.1-0.2,0.2,0,0.4c0-0.3,0.3,0.2,0.4,0c-0.1,0-0.1,0.1-0.1,0.2c0,0,0.1,0,0.1,0
						c0.1,0.4-0.4-0.1-0.5,0.2c0.2,0.1,0.3,0.2,0.2,0.2c0.1-0.1-0.2-0.2-0.4-0.2c0,0.2-0.2,0.1-0.2,0.2l0-0.1c-0.2,0-0.2,0-0.3,0.1
						c0.1,0.1,0.1-0.1,0.2,0c-0.3,0,0.1,0.4-0.1,0.5c0.1,0.1,0.3,0.2,0.3,0.3c-0.3,0.1,0.1,0.3-0.2,0.5C20.9,55,21,55,20.7,55.1
						l0.3-0.3l-0.4,0.1c0.1-0.1,0.2-0.2,0.2-0.2c-0.2,0-0.2,0-0.3-0.1c0.2,0.3-0.3,0.2-0.2,0.5l0.5,0.3c0.1,0.4-0.5,0.3-0.5,0.7
						l0-0.2C20,55.8,20.1,56,20,56.1c0.2,0.1,0.2,0.2,0.3,0.3c-0.1-0.1-0.1,0.3-0.5,0.1l0.2,0.3c0,0.3-0.7,0.1-0.7,0.4
						c0.2,0,0.3,0.2,0.5,0.1c0,0.1,0,0.2-0.2,0.1c0.1,0.1-0.4,0.1-0.2,0.3c-0.1,0-0.3-0.1-0.3,0c0,0,0.1,0,0.1,0
						c-0.1,0-0.2,0.1-0.4-0.1c0.4,0.5-0.4,0.7,0,1.2c-0.1,0.2-0.3,0.4-0.4,0.5c0.1,0,0.1,0,0.1,0c0.1,0.3-0.6-0.1-0.5,0.3
						c0.2,0.3,0.2-0.1,0.3,0.1c0.6,0.3-0.2,0.3,0,0.6l0.1,0c0.1,0.1,0,0.2-0.1,0.2c-0.1,0-0.1,0.1-0.2,0.1c-0.1,0.1-0.1,0.1-0.1,0.2
						c0,0,0.1,0,0.1,0c-0.4,0.1-0.6,0.4-0.8,0.5c0.2,0.1,0.2,0,0.3,0.3c-0.1,0.1-0.3-0.4-0.4-0.2c0.1,0.2,0.1,0.5,0.2,0.9l0.1-0.3
						c0.2,0.5-0.2,0.4-0.2,0.6l0.1,0.2c-0.2,0.4-0.4-0.1-0.6,0.3l0-0.2c-0.2-0.4,0,0.5-0.2,0.3l0.1,0.8c-0.1,0-0.3-0.2-0.4-0.1
						c0.1,0.5,0.3,0.5,0.4,0.6c-0.1,0.2-0.3,0.5-0.3,0.2c0,0,0.1,0.1,0.1-0.1c-0.1-0.2-0.1-0.4-0.2-0.4c0,0-0.1,0-0.1,0
						c0,0,0,0,0-0.1c0,0,0-0.1,0-0.1c0,0.9-0.1,0.8-0.2,0.6c-0.1-0.2-0.3-0.4-0.4,0c-0.1-0.6-0.3-0.8-0.5-1
						c-0.2-0.2-0.4-0.5-0.6-0.9c0.5-0.4-0.1-0.2,0.3-0.8c0-0.2-0.1-0.2-0.1-0.2c0,0-0.5-0.1-0.5-0.2c-0.2,0,0,0.3-0.1,0.3
						c-0.2-0.4-0.3,0-0.6-0.2c0.2-0.1,0.2-0.3,0-0.5c0,0,0.4,0.2,0.4,0.2c0-0.4-0.2-0.3-0.3-0.4c-0.1,0-0.3,0-0.2-0.2L13,60.8
						c0-0.2-0.3-0.6,0-1c-0.1,0-0.2,0-0.2,0.1c-0.3-0.3,0-1.1-0.4-1.2l-0.1,0.1c0-0.1,0.2-0.3,0-0.3c-0.1,0-0.1,0.1-0.1,0.1
						c0-0.1,0.1-0.3,0-0.4l-0.1,0.2c-0.4-0.3,0-0.8-0.1-1.1c-0.4,0.2-0.7,0-0.8-0.1l-0.1,0c-0.3-0.4-0.1-0.9-0.2-1.4
						c-0.6,0-0.7-0.7-1.1-1c0.1,0,0.3-0.2,0.3-0.3c-0.1,0,0.1-0.4-0.2-0.2l0,0c-0.4,0.1-0.4-0.1-0.5-0.2l0.4-0.3
						c-0.9,0-0.4-1.2-1.1-1c0.1-0.2,0-0.3,0-0.4l-0.2,0.2c-0.2-0.2-0.3-0.3-0.5-0.7l-0.1,0.2c-0.1-0.2,0.5-0.7,0.5-0.8l-0.4,0.2
						c-0.2-0.3-0.7-0.4-0.6-0.9c0,0-0.1,0.1-0.1,0.2C7,50.5,6.5,50.3,7.1,50c-0.3,0.2-0.2-0.3-0.2-0.6l-0.2,0.2
						c0.2-0.3,0.3-0.4,0.2-0.6c-0.1,0-0.2,0.1-0.1,0.1c-0.2-0.1,0.1-0.3-0.1-0.4l-0.1,0.2c-0.1-0.1,0-0.2,0.1-0.4
						c0-0.2-0.3-0.3-0.5-0.1c0.1-0.1,0.2-0.3,0.1-0.4c-0.1,0-0.1,0.1-0.1,0.1c-0.3-0.2,0-0.6-0.3-0.6c-0.1,0-0.1,0.1-0.2,0.1
						c0.1,0.2,0.3,0.4,0.3,0.3c-0.2,0.1-0.4,0-0.6,0.3c0.1-0.2,0.3-0.7,0.1-0.8c0,0-0.1,0-0.1,0l0,0c0,0,0-0.1,0-0.1
						c-0.1,0-0.1,0-0.2-0.1c-0.2,0.1-0.2-0.1-0.3-0.2c0.2-0.1,0.1-0.2,0.4-0.3c0,0,0,0,0,0.1c0,0,0,0,0,0.1l0,0
						c0,0.1,0.1,0.1,0.1,0.2c0.1-0.1,0.1-0.3-0.1-0.3c0.1-0.1,0.2-0.3,0.3-0.4c-0.4,0.1-0.7,0-1,0.1c0-0.3-0.3-0.7,0-1.1
						c0-0.1-0.2,0-0.3,0c0,0.1,0,0.1,0,0.2c0-0.2-0.3-0.5,0-0.7c-0.3-0.1-0.2,0.3-0.3,0L4,45.1c-0.8-0.2,0.2-1.3-0.8-1.5
						c0.1,0,0.1,0,0.2,0c-0.7-0.4-0.6-1.5-1.5-1.8c-0.2-0.1,0-0.3,0-0.5l-0.3,0.1l0.2-0.4c0-0.4-0.9,0-0.8-0.6l0.2-0.1
						C1.1,40.4,1,40,0.8,40.2c0,0,0.1-0.2,0-0.1l-0.1,0.1l0-0.4c-0.3-0.2-0.5,0.4-0.7,0.1c0-0.2,0.1-0.6,0.2-0.6c0,0,0.2,0.1,0.3,0
						l0-0.2c0.4-0.3,0.7-0.7,1.1-0.6l-0.1,0.4l0.2-0.1l-0.1-0.2c0.2,0,0.1,0.1,0.1,0.3C1.9,38.7,2,38.7,2,38.7l-0.2,0.4
						C2,39.1,2,38.8,2.2,38.9c-0.1,0.2-0.4,0.2-0.4,0.4c0.2,0,0.4-0.2,0.3,0.1c0.1-0.1,0.2-0.1,0.2-0.2c0,0.2,0.1,0.3,0,0.5
						c0.3-0.1,0.2,0.4,0.5,0.1c-0.1,0.1-0.2,0.4-0.1,0.5c0.3-0.5,0.3,0.3,0.7-0.1C3,40.5,3.5,40.7,3.4,41c0,0,0.1-0.1,0-0.1
						C3.6,41,3.7,41,3.8,41c-0.3,0.2-0.3,0.5-0.4,0.7c0.4-0.1,0.3-0.4,0.6-0.5c-0.3,0.2-0.1,0.4-0.3,0.5c0.3,0,0.2,0,0.5-0.1
						c-0.4,0.3,0,0.2-0.2,0.4c0.3,0,0.4-0.2,0.4,0C4.6,42.1,4.7,41.8,4.7,41.8z M6.9,46.5L6.9,46.5c0,0,0-0.1,0-0.1
						C6.8,46.5,6.8,46.5,6.9,46.5z M7.1,46.9c0,0-0.1-0.1-0.1-0.1c-0.1,0-0.2,0.1-0.1,0.1C6.9,46.8,7,46.9,7.1,46.9z M5,47.2
						c0,0.1,0.1,0.1,0.1,0C5.1,47.2,5.1,47.2,5,47.2l0.1-0.1C5,47.2,5,47.2,5,47.2z"/>
					<path fill="#FFFFFF" d="M5.2,46.9C5.2,46.9,5.2,46.9,5.2,46.9C5.3,46.9,5.3,46.9,5.2,46.9L5.2,46.9L5.2,46.9z"/>
					<path fill="#FFFFFF" d="M25.6,47L25.6,47C25.6,47,25.6,47,25.6,47C25.6,47,25.6,47,25.6,47z"/>
					<polygon fill="#FFFFFF" points="10.8,51.6 10.7,51.7 10.8,51.6 					"/>
					<path fill="#FFFFFF" d="M26.6,44.7C26.6,44.6,26.5,44.6,26.6,44.7C26.6,44.6,26.6,44.6,26.6,44.7z"/>
					<path fill="#FFFFFF" d="M27.3,43.9l0-0.2C27.3,43.8,27.3,43.9,27.3,43.9z"/>
					<path fill="#FFFFFF" d="M27.8,43.3C27.9,43.3,27.9,43.4,27.8,43.3L27.8,43.3L27.8,43.3z"/>
					<path fill="#FFFFFF" d="M19.6,53C19.6,53,19.6,53,19.6,53C19.5,53.1,19.5,53,19.6,53z"/>
					<path fill="#FFFFFF" d="M22.1,50.1c-0.1,0-0.1,0-0.2,0C21.9,50,21.9,50,22.1,50.1z"/>
					<polygon fill="#FFFFFF" points="17.4,56.7 17.4,56.7 17.4,56.7 					"/>
					<path fill="#FFFFFF" d="M21.8,50.3c0-0.1,0-0.1,0.1-0.1C21.9,50.2,21.9,50.2,21.8,50.3z"/>
					<path fill="#FFFFFF" d="M30.5,41.1L30.5,41.1C30.5,41.1,30.5,41.1,30.5,41.1L30.5,41.1z"/>
					<path fill="#FFFFFF" d="M30.5,41.1L30.5,41.1C30.6,41.1,30.5,41.1,30.5,41.1z"/>
					<path fill="#FFFFFF" d="M30.7,41.1l-0.1,0C30.6,41.1,30.6,41,30.7,41.1z"/>
					<path fill="#FFFFFF" d="M29.7,41.8L29.7,41.8C29.6,41.7,29.7,41.8,29.7,41.8z"/>
					<path fill="#FFFFFF" d="M29.4,42c0-0.1,0-0.3,0.1-0.3l0.1,0.1C29.5,41.6,29.6,42.1,29.4,42z"/>
					<path fill="#FFFFFF" d="M29.2,43.8l0.2-0.2c0,0.1,0.1,0.3,0.2,0.2C29.5,44.2,29.4,43.5,29.2,43.8z"/>
					<path fill="#FFFFFF" d="M28.6,44.4c0.1-0.1,0.1,0.1,0.1,0.2C28.7,44.6,28.6,44.6,28.6,44.4z"/>
					<path fill="#FFFFFF" d="M24.5,48.5l0.2,0.2C24.7,48.7,24.7,48.6,24.5,48.5z"/>
					<polygon fill="#FFFFFF" points="22.8,48.6 22.7,48.4 23,48.5 					"/>
					<polygon fill="#FFFFFF" points="23.9,50.2 23.9,50.2 23.8,50.3 					"/>
					<path fill="#FFFFFF" d="M19.2,58.7l-0.3-0.2C19,58.5,19.3,58.6,19.2,58.7z"/>
					<path fill="#FFFFFF" d="M16.8,63.4c0,0.3,0,0.7-0.1,0.5C16.7,63.7,16.8,63.4,16.8,63.4z"/>
					<polygon fill="#FFFFFF" points="9.2,53.9 9.2,54 9.2,53.9 					"/>
				</g>
			</g>
		</g>
	</g>
</g>
</svg>
