<?xml version="1.0" encoding="utf-8"?>
<!-- Generator: Adobe Illustrator 18.0.0, SVG Export Plug-In . SVG Version: 6.00 Build 0)  -->
<!DOCTYPE svg PUBLIC "-//W3C//DTD SVG 1.1//EN" "http://www.w3.org/Graphics/SVG/1.1/DTD/svg11.dtd">
<svg version="1.1" id="Layer_1" xmlns="http://www.w3.org/2000/svg" xmlns:xlink="http://www.w3.org/1999/xlink" x="0px" y="0px"
	 viewBox="0 0 146.8 70.4" enable-background="new 0 0 146.8 70.4" xml:space="preserve">
<g>
	<g>
		<g>
			<g>
				<g>
					<path fill="#FFFFFF" d="M43.5,2.1c-0.2,0.1,0,0.3,0.5,0.2l0.3-0.4L43.5,2.1z"/>
					<path fill="#FFFFFF" d="M47.2,2.3c0.6-0.2,1.3-0.6,0.9-0.8c-0.6,0.4-0.8,0.3-1.4,0.7c-0.5,0.1-0.9,0-0.9-0.1
						c-0.2,0.1-0.8,0-1.1,0.3c0.7,0.2,1.6,0.1,2.5-0.2C47.4,2.1,47.2,2.2,47.2,2.3z"/>
					<path fill="#FFFFFF" d="M99.5,4l-0.3-0.1C99.2,3.9,99.4,3.9,99.5,4z"/>
					<path fill="#FFFFFF" d="M129.5,15.4c-0.2-0.1-0.3-0.2-0.3-0.1C129.4,15.4,129.6,15.5,129.5,15.4z"/>
					<path fill="#FFFFFF" d="M133.7,18.9c-0.1-0.1-0.2-0.2-0.2-0.2C133.6,18.8,133.7,18.9,133.7,18.9z"/>
					<path fill="#FFFFFF" d="M99.5,4l0.8,0.3C100.4,4.1,99.9,4.1,99.5,4z"/>
					<path fill="#FFFFFF" d="M54.3,0.8c-0.2,0-0.3,0.1-0.5,0.1C54,0.9,54.2,0.9,54.3,0.8C54.3,0.8,54.3,0.8,54.3,0.8z"/>
					<path fill="#FFFFFF" d="M85.3,2.3l-0.3,0c-0.1,0-0.2,0.1-0.2,0.1L85.3,2.3z"/>
					<path fill="#FFFFFF" d="M74.3,1.8c0.2,0,0.3-0.3,0.4-0.4c-0.1,0.1-0.3,0.2-0.5,0.2C74.2,1.6,74.2,1.7,74.3,1.8z"/>
					<path fill="#FFFFFF" d="M56.9,1.7l-0.3,0.1C56.7,1.8,56.8,1.8,56.9,1.7z"/>
					<path fill="#FFFFFF" d="M93.1,3.2c0,0,0,0.1,0.1,0.1C93.2,3.3,93.1,3.3,93.1,3.2z"/>
					<path fill="#FFFFFF" d="M59.2,4.6C59.2,4.6,59.2,4.6,59.2,4.6C59.3,4.6,59.3,4.6,59.2,4.6z"/>
					<path fill="#FFFFFF" d="M72.1,5.5l-0.2,0c0,0.1,0,0.1,0,0.2L72.1,5.5z"/>
					<path fill="#FFFFFF" d="M140.3,26.3C140.2,26.3,140.2,26.3,140.3,26.3C140.1,26.1,140.1,26.2,140.3,26.3z"/>
					<path fill="#FFFFFF" d="M77.5,67.9c1.1,0.2-1.7,0.4-0.1,0.6C77.2,68.4,78.8,68,77.5,67.9z"/>
					<path fill="#FFFFFF" d="M54.6,0.8c0.1,0,0.3,0,0.5,0C54.9,0.8,54.7,0.8,54.6,0.8z"/>
					<path fill="#FFFFFF" d="M77.4,68.5L77.4,68.5l0.2,0C77.5,68.5,77.4,68.5,77.4,68.5z"/>
					<path fill="#FFFFFF" d="M141.1,46.5c0.1,0,0.2-0.1,0.2-0.1C141.3,46.4,141.2,46.4,141.1,46.5z"/>
					<path fill="#FFFFFF" d="M143.5,31l0.1,0.4C143.6,31.3,143.6,31.1,143.5,31z"/>
					<path fill="#FFFFFF" d="M135.1,52.9c-0.2,0.1-0.3,0.1-0.5,0.4c0,0,0.1,0,0.1,0C134.7,53.1,134.8,53,135.1,52.9z"/>
					<path fill="#FFFFFF" d="M127.1,57.7c0.1,0,0.1,0,0.2,0c0.1,0,0.2-0.1,0.3-0.1L127.1,57.7z"/>
					<path fill="#FFFFFF" d="M30.8,10c0.2,0,0.4,0.1,0.5,0.1C31.1,10,32.4,9.5,30.8,10z"/>
					<path fill="#FFFFFF" d="M54.4,1c0-0.1,0.1-0.1,0.3-0.1c-0.1,0-0.2,0-0.3,0C54.3,0.9,54.3,0.9,54.4,1z"/>
					<path fill="#FFFFFF" d="M136.1,54.9l-1.3,0.8C135.2,55.5,135.6,55.2,136.1,54.9z"/>
					<path fill="#FFFFFF" d="M15.3,57.6L15,57.4C15.1,57.5,15.2,57.6,15.3,57.6z"/>
					<path fill="#FFFFFF" d="M130.9,58.2c-0.3,0-0.6,0.1-0.8,0.3c0,0.1-0.1,0.1-0.1,0.2L130.9,58.2z"/>
					<path fill="#FFFFFF" d="M31.3,10.1L31.3,10.1L31.3,10.1z"/>
					<path fill="#FFFFFF" d="M40.8,7c-1.4,0.3-0.6,0.5-0.8,0.8c-1.7,0.5-0.8-0.1-1.5-0.1c-1,0.3-1.7,0.9-2.5,1.1
						c-0.1,0-0.2,0-0.1-0.1c-1,0.5-3.3,0.9-4.4,1.6c-0.1,0-0.2,0-0.2,0c0.3,0.1,0.3,0.3,0.3,0.4c-0.6,0.2-1.1,0.6-1.4,0.4
						c0.4-0.1,0.4-0.2,0.5-0.3l-0.6,0.3c-0.7-0.1,0.8-0.4,0.8-0.6c-1.2,0.5-2.6,1.3-3.6,1.5c-0.3-0.2,2.2-0.9,0.8-0.7
						c0,0,0.4-0.1,0.8-0.2c0.4-0.1,0.8-0.2,0.8-0.2c-1.3-0.1,0.9-0.3-0.3-0.5c-2,0.6-2.1,0.9-4.1,1.5c-0.4,0.3,0.2,0.2-0.1,0.5
						c-1.3,0.7-1.9,0.7-2.4,0.7c-0.5,0-1,0-1.8,0.6c-0.4,0.4-0.4,0.9-1.9,1.4l0.3-0.6c-1.8,0.9-0.8,1-2.8,1.8c0.3-0.3,1.3-0.8,1-0.7
						c-1.4,0.4-0.8,0.6-1.7,1.2l-0.4-0.2c-1.9,1.1-3.7,2.6-5.5,4.1c0-0.2,0.3-0.5-0.2-0.2c-2.3,2-4.9,4.3-6.8,6.7l-0.4,1.1
						c-0.1,0.2-0.4,0.4-0.3,0.1c-0.7,0.9,0.1,0.1-0.1,0.7c-0.3,0.6-0.5,0.7-0.4,0.3c-0.4,1-0.9,2.4-1.2,3.8c-0.4,1.4-0.5,2.9-0.7,4
						L0,36.6c-0.1,0.9,0.1,1.3,0.3,1.8c0.1,0.5,0.3,0.9,0.3,1.7l-0.1-0.3c0.2,1.8,0.9,3.7,1.8,5.2c0.4,0.8,0.9,1.5,1.3,2.2
						c0.5,0.7,0.9,1.3,1.2,1.9c0.3,0.1,0.9,0.8,1.5,1.4c0.6,0.6,1.2,1.2,1.5,1c1.4,1.5,0.8,1.3,3,3.2c0.6,0.5,1.2,0.3,2,0.8
						l-0.2,0.3c0,0,0.3,0.1,0.6,0.2c0.3,0.1,0.6,0.2,0.6,0.2l0.4,0.7l0.8,0.4c-0.3-0.2-0.6-0.5-0.5-0.6c1.2,0.6,2.8,1.9,2.8,2
						c0,0,0.8,0.3,1.5,0.6c0.7,0.3,1.5,0.6,1.5,0.6c-0.1,0.1-0.6-0.1-1.1-0.2c1.7,0.4,0.1,0.4,1.7,0.8c-0.2-0.2,0.2-0.1,0.2-0.2
						c0.6,0.5,2.3,1.2,3.6,1.6l-0.3,0.1c2.2,0.9,4.8,1.7,7.4,2.5c-0.9-0.4-0.6-0.7,0.2-0.5l0.2,0.4c0.5,0-0.7-0.4,0.3-0.3
						c1,0.3,0.5,0.5,0,0.5l1.2,0.2c0,0.1-0.2,0.1-0.4,0.2c0.5-0.1,1.9,0.9,2.7,0.7l0,0.1c2.6,0.7,3.8,0.8,6,1.3
						c0.1-0.3,0.9,0,1.6-0.1c1.6,0.4,3.3,0.9,5.2,1.2c1.4,0.1,0.4-0.2,1.1-0.3c0.1,0.3,2,0.5,1,0.6c2.3,0.3,2.9,0.4,5.9,0.5
						c-0.3-0.1-0.7-0.2-0.5-0.3c0.5,0,1.2,0.2,1.1,0.3l-0.1,0c3.3,0,7.5,1.4,10.2,0.9l-0.1,0c0,0,0.7,0,1.4-0.1
						c0.7,0,1.4-0.1,1.4-0.1c1.2,0.1-0.8,0.2,0.2,0.4c2.9-0.4,4.6,0.1,7.1-0.2c1.9,0.7,6.6-0.3,9.2-0.1l-0.2-0.2
						c0.6-0.2,0.8,0,1.3,0c-0.1-0.1-0.7-0.1-0.3-0.2c5.5-0.7,11.4-1,17-2c2.1-0.4,1-1.1,3.6-1.3l-0.7,0.5c4-1.3,8.3-2.1,12.1-3.9
						c-0.2,0.2-0.2,0.2-0.6,0.4c0.9,0,3-1.1,3-1.3c0.6-0.2,0.2,0.1,0.6,0.1c0.9-0.2,1.9-1.1,2.4-1.1c0.1,0-0.2,0.2-0.3,0.2
						c0.5-0.3,2.4-1.1,1.8-1.1c1.5-0.5,2.6-1.4,3.8-1.8c0.6-0.7,2.4-1.2,2.4-1.7c0.1,0.2,0.7-0.1,1.4-0.5c0.7-0.5,1.4-1.1,1.8-1.4
						c-0.2,0.3,0.8-0.4,0.6,0c0.9-0.7,1.7-1.4,1.4-1.5c1-0.5,1.7-1.2,2.3-2c0.3-0.4,0.6-0.7,0.9-1c0.3-0.3,0.6-0.5,0.9-0.6
						c2.1-2.7,3.6-5.6,4.3-8.7c0.2,0.1,0,1-0.3,1.7c-0.3,0.8-0.6,1.5-0.4,1.6c0.3-0.7,0.5-1.4,0.6-2c0.1-0.6,0.2-1.2,0.3-1.8
						c0.1-0.6,0.1-1.2,0.2-1.8c0-0.6,0.1-1.3,0.1-2c0-0.8,0.2,0.4,0.3,0.7c-0.1-3-0.7-5.8-2-8c0,0,0.2,0.2,0.3,0.4
						c-0.2-0.5-0.4-1.1-0.6-1l0.3,0.4c0.1,0.8-1.4-1.6-1.6-1.5c0.9,0.5-1.1-2.2,0.2-1.5c-0.2-0.3-0.5-0.6-0.6-0.4
						c-0.2-0.4-0.3-0.6,0.1-0.3c-1.1-1.4-0.9-0.8-1.9-2.1c0.1-0.1,0.3,0.2,0.5,0.2c-0.7-0.5-1.3-1.1-2.2-2.1c0.1,0,0.1-0.1,0.3,0.2
						c-0.4-0.4-0.8-0.8-1.2-1.2c-0.4-0.3-0.8-0.6-1.2-1c-0.8-0.7-1.7-1.2-2.6-2.2c0.4,0.1,0.3-0.1,0-0.3c-0.2-0.2-0.6-0.5-0.5-0.7
						l-1.2-0.8l0.3,0.5c-0.9-0.8-2-1.1-2.8-1.8l0.8,0.4c0,0-0.5-0.3-1-0.6c-0.5-0.3-1-0.6-1-0.6s0.3,0.2,0.5,0.4
						c0.2,0.2,0.5,0.4,0.5,0.4c-1.1-0.5-0.1,0.4-1.4-0.5c0.3,0.1-1-0.6-1.4-1.1l0,0c-0.6-0.2-1.2-0.4-1.9-0.9
						c-0.1-0.2,0.4-0.3,0.3-0.4c-0.3,0-1-0.3-1.6-0.6c-0.7-0.3-1.3-0.6-1.7-0.6c0.3,0,0.4-0.1,0.3-0.2l-0.6,0
						c-0.5-0.3-0.5-0.4-0.4-0.5c-1.5-0.8,0.3,0.6-1.4-0.3c0.2,0,0.1,0,0.4,0.1c-0.9-0.4-1.8-0.8-2.7-1.1c-0.9-0.3-1.8-0.6-2.6-1
						c-0.4-0.5,1.5,0.5,1.1,0c-0.6-0.2-1.3-0.4-1.9-0.6c-0.7-0.2-1.3-0.3-2-0.5c-0.7-0.2-1.3-0.3-1.9-0.5c-0.6-0.2-1.3-0.3-1.9-0.5
						l0.4,0.2c-0.5,0.4-1.7-0.8-3.1-0.9c0.3,0,0.5-0.2,0.4-0.2c-1.7-0.5-3.5-0.8-6.1-1.1l0.3-0.1c-1-0.3-2.6-0.6-3.7-0.8
						c-0.3,0.1-1,0-0.6,0.2c-0.8-0.3-1.6-0.5-2.4-0.7c-0.8-0.1-1.6-0.2-2.4-0.2c-0.8,0-1.6-0.1-2.3-0.2c-0.8-0.1-1.5-0.2-2.3-0.4
						c0.4,0,0.9,0,0.6-0.1l-2.6-0.1c0.2,0.2,0.3,0.2,0.8,0.4c-0.3,0.1-1.1,0.1-1.7,0.1c1.2,0,0-0.4-0.5-0.5C84,1,83.8,1,83.8,1.1
						c-1.3-0.5-0.3,0.4-2.1,0.1L81.9,1c-0.7,0-1.3,0.1-2.1,0.1c-0.3-0.3,0.7-0.1,0.8-0.3c-1-0.1-2.1,0.4-3,0.1
						c0.4-0.1,1.1,0,1.5-0.1c-1-0.3-1.1-0.3-1.9-0.3l0.1,0l-1.8-0.2L76,0.4c-0.7,0.3-1.3,0.3-2,0.3c-0.7,0-1.5,0-2.4,0.2
						c1.7-0.4,0.3-0.2,0.4-0.6c-0.4-0.1-1.1-0.2-0.9-0.3c-0.8,0.2-1.4-0.2-2.6,0.2c-0.1-0.1-0.9,0-0.7-0.2c-1.1,0.1,0.3,0.2,0.2,0.3
						C66.3,0.7,64,0,61.6,0.5c-2.1,0.3-2.4,0.7-4.3,0.9c-0.7-0.1,0.5-0.4,0.5-0.4C56.7,1,56,1.1,55,1.3c0.2-0.1,0-0.2-0.3-0.2
						c-0.8,0.1-0.5,0.4-1.5,0.3c0.2-0.1,0.4-0.3,0.8-0.5c-0.9,0.2-1.8,0.4-2.8,0.6c-0.3-0.1,0.6-0.3,0.9-0.4
						c-1.1,0.2-2.8,0.4-3.1,0.7l0.7,0c-0.4,0.1-0.2-0.2,0.1-0.3c0.9-0.3,1.3,0,1.4,0.1l-0.7,0.1c0.8,0.5,2.7-0.3,4.1-0.4L54,1.8
						l1.4-0.5c0.3,0.1,0.5,0.3-0.1,0.4c1,0.1,0.9-0.2,1.7,0c0.1,0,0.1,0.1,0,0.1l1-0.2c-0.2,0.1,0.2,0.3-0.4,0.3
						c1.7,0.1,2.8-0.5,3.4-0.2l-0.1,0c2.4-0.3,0.2-0.3,2-0.8L64,1.6l0.2-0.3c0.2,0,0.7,0,0.7,0.1c0.9-0.2-0.2-0.1,0.4-0.3
						c1.2,0.3,3.3-0.2,3.6,0.3c0.4-0.2-1.1-0.2,0.1-0.3c0.4,0.5,1.5-0.1,2.6,0.2c-0.3,0.3-1.4,0.1-0.3,0.4c0.7-0.5,2.1,0.1,3,0
						c0-0.4,2-0.1,3.5-0.2c-0.1,0.1,0.7,0.1,1.6,0.2c0.9,0.1,2,0.2,2.7,0.3L82,2c0.3-0.3,1.8-0.2,2.8-0.2c-0.1,0.2-0.3,0.3-0.8,0.3
						c0,0,0.3,0,0.5,0c0.3,0,0.5,0,0.5,0c0.2-0.1,0.6-0.1,1.2-0.1L86,2.4c1.3,0.1,2.7-0.1,4.4,0.3c0.1-0.2-1.3-0.9,0.6-0.8
						C91,2.1,91,2.3,90.5,2.3c0.2,0,0.6,0,0.9,0.1l-0.8,0.1c0.8,0.2,0.4-0.1,1.1,0c0,0.2,0.4,0.2,0.3,0.3c-0.2,0-0.5-0.2-0.8-0.1
						C92,2.8,92.8,3,93.1,3.2c0-0.1,0-0.3,0.6-0.2C95,3.2,94,3.3,94.8,3.5C95.1,3.4,96,3.7,96,3.4c0.4,0.1,0.4,0.2,0.6,0.3
						c0.4,0,1.2,0.1,1.8,0.2C99,4,99.5,4.1,99.1,3.8l-0.2-0.1c0,0,0.1,0,0.1,0c0,0,0,0,0,0l0,0c1.1,0.1,2.3,0.4,3.4,0.7
						c1.1,0.3,2.3,0.7,3.4,0.9l0,0.1c1.3,0.2,2.9,0.7,3.9,0.8c0.4,0.1,0.9,0.4,0.7,0.5c1,0.2,1.1,0.2,2.5,0.8c-1-0.2,0.3,0.3-1-0.2
						c1.2,0.5,1.5,0.7,2.9,1c-0.5,0.1,0.8,0.7,1.5,0.8l-0.8-0.5c0.7,0.2,1.3,0.5,1.8,0.7l-0.4,0.2c1.2,0.7,2.4,1,3.5,1.3
						c1.1,0.3,2.1,0.7,2.9,1.5c0.8,0.1-1.3-0.8-0.6-0.8c1.1,0.6,2,1.6,2.4,1.8c1.4,1,1.6,0.3,3.1,1.4c-0.1-0.2-0.2-0.6,1.1,0
						c1,0.7,1,1.3,0.3,0.9c-0.3-0.2-0.4-0.3-0.3-0.3c-0.4-0.2-0.8-0.4-0.5,0l0.2,0c0.5,0.4,1.9,1.4,1.4,1.3c0.8,0.4,0.4,0.1-0.1-0.4
						c1.2,1,2,1.5,3.3,2.5c-0.2-0.2-0.3-0.5-0.1-0.3c1.8,1.7,1,0.5,2.2,1.5c0.6,0.8-0.5,0.1,0.8,1.1c0.6,0.8-0.1,0.4-0.4,0.2
						c1.3,0.8,1.8,2.1,2.4,2.7l-0.6-0.5c0.3,0.3,0.6,0.6,0.9,0.9c0,0,0-0.1,0-0.2c0-0.1-0.1-0.2-0.1-0.2c0.3,0.4,0.5,0.7,0.4,0.7
						c0.4,0.3,0.1-0.5,0.8,0.1c0.1,0.3,0.5,0.6,0.7,1c0.2,0.3,0.4,0.7,0.4,0.8c-1-1.6-0.1,0.3-1.1-0.9c0.2,0.2,0.4,0.5,0.7,0.9
						c0,0.1-0.1,0-0.2-0.1c0.8,1.7,0.8,0.5,1.7,2.1c-0.3-0.1-0.1,0.5,0.1,0.8c-0.4-0.6,0.1-0.5,0.5,0.1c0.4,1.2,0.7,1.1,0.9,1.7
						c0,0,0-0.2-0.1-0.4c-0.1-0.2-0.1-0.3-0.1-0.3c0.3,0.1,0.5,0.7,0.8,1.5c-0.1,0.1-0.4-0.7-0.3-0.4c0.3,0.4,0.4,0.9,0.5,1.5
						c0.1,0.6,0.1,1.2,0.3,1.8c0,0.6-0.3,0.1-0.3,0.6c0.2,0.7,0.1,1.1,0.1,1.5c0,0.4-0.1,0.8-0.1,1.5c0.3-0.4,0.2-0.5,0.4,0.6
						c0,0,0-0.6,0-1.2c0-0.3,0-0.6-0.1-0.8c0-0.2,0-0.4,0-0.4s0.1,0.4,0.2,0.8c0.1,0.4,0.1,0.8,0.1,0.8c0.1-0.8-0.2-1.6-0.1-2
						c0.2,0.7,0.2,0.7,0.4,0.3c-0.1,0.5-0.1,1,0,1.6c0,0.3,0,0.5,0,0.8c0,0.3-0.1,0.6-0.2,0.9l-0.6-0.1c-0.6,1.6-0.4,3.1-1.7,5.1
						l0.4-0.6c0,0.2-0.1,0.5-0.3,0.9c-0.2,0.4-0.5,0.7-0.7,1.1c-0.1-0.2-0.4,0.2-0.7,0.4c0.1,0.1-1,1.4-0.9,1.8l-0.9,0.6
						c-1.4,1.3-1.2,2-2.6,3.1c0.3-0.5-0.4-0.1,0.4-1c-0.5,0.4-0.9,0.7-0.8,0.8c-0.4,0.1-1.2,1.3-1.8,1.5c-0.2,0.2-0.1,0.4-0.7,0.8
						c-0.1,0-0.1-0.1-0.1-0.1c0.1,0.1-0.8,0.7-0.2,0.6c-1.9,0.6-4.6,2.9-6.4,3.1c-0.6,0.4-1.3,0.7-1.9,1c-0.7,0.3-1.3,0.7-1.9,0.9
						c0.1-0.1,0-0.1,0.2-0.2c-1.7,0.5-0.7,1-2.7,1.5c-1.1,0.1,0.9-0.5,0.3-0.4c-0.5-0.5-2.2,0.9-3.6,1l0.3-0.1
						c-0.5,0.1-1.1,0.3-1.7,0.6c-0.6,0.3-1.3,0.6-2.1,0.8c0,0,0.1-0.1,0-0.1c-1,0.6-3,1.4-4.5,1.8c0.4-0.4,0.7-0.3,0.3-0.5
						c-0.7,0.2,0.3,0.3-1.1,0.8c-0.5,0-1.5,0.1-1.7-0.1c0,0,0.3-0.1,0.7-0.2c0.3-0.1,0.6-0.2,0.6-0.2c-0.7-0.2-1.7,0.4-2.4,0.5
						l0.1-0.2c-2,0.5-1.9,0.9-4.1,1.3l0.2,0.1c-1.1,0.6-1,0-2.2,0.5l-0.4-0.3c-0.8,0.2-2.7,0.8-4.1,1.1c0.8-0.4,2.4-0.8,3.4-1.2
						c-0.8,0.1-2.6,0.4-3,0.7c0.3-0.1,0.7-0.2,1-0.2c-0.9,0.4-2.2,0.8-3.7,1c0.1-0.4-0.9-0.3-2.1-0.2c-1.2,0.1-2.6,0.2-3.2,0
						c-2.7,0.5-5.5,0.3-8.7,0.5c1.2,0.6-0.9,0-0.7,0.7c-0.8,0.1-1,0.1-1.1,0c0,0-0.6-0.1-1.1-0.2c-0.6-0.1-1.1-0.2-1.1-0.2
						c-0.5-0.2,0.7-0.1,0.6-0.3c-1.7,0-0.7-0.3-1.8-0.4c0.2,0.2-0.6,0.3-1.5,0.2l1.3,0.3c-2.3,0.3-2-0.5-4.3-0.2l0.7-0.2
						c-1.2,0.1-4.4-0.1-5.6,0.3c-0.2-0.1-0.5-0.3,0.1-0.3c-2.8-0.2-6.4,0.1-8.5-0.5l0.2-0.1c-0.5,0-1,0.2-1.6,0c0-0.1,0.2-0.1,0-0.2
						c-0.3,0-1.4,0.1-2.1-0.1l0.6-0.1c-2.7-0.6-4.3-0.2-6.6-0.5c0.1-0.4-2-1-3.1-1.3l0-0.1c-3.1-0.7-5.4-0.8-8.4-1.4
						c-1.7-0.9-6-2-8.6-3.3c0.4,0.2-0.2,0.3-0.7,0.1c-0.6-0.3-1.9-0.4-1.6-0.8l0.2,0.1c-0.3-0.6-1.7-1-2.7-1.5l-0.4,0.4
						c-0.6-0.5-1.3-0.9-2.1-1.3c-0.8-0.4-1.6-0.8-2.4-1.2c-0.8-0.4-1.5-0.8-2.1-1.2c-0.6-0.4-1.1-0.8-1.3-1.1
						c-0.6-0.3-1.4-0.8-2-1.1l0.2-0.2c-0.7-0.6-1.3-1.1-1.9-1.6c-0.6-0.5-1.2-1.1-2-1.9L8.3,49c-0.5-0.5-0.9-0.6-1.3-0.8
						c-0.4-0.2-0.9-0.3-1.2-0.8l0.1-0.6c-1.4-1.8-2.2-4-3.1-6c0.1,0,0.2,0,0.3,0.4c-0.1-0.3-0.2-0.6-0.3-1c-0.1-0.4-0.1-0.9-0.2-1.3
						c-0.1-0.8-0.2-1.5-0.5-1.3c0.3,0,0.1-2.3,0.2-3.5l0.2,0.2c-0.1-0.5-0.1-0.8-0.1-1.2c0-0.3,0.1-0.7,0.3-1.4
						c0.2-0.3,0.3-0.2,0.1,0.2c0.5-1,0.1-1,0.9-2.2l-0.1,0.6c0.5-1.1,0.5-1,0.6-1.7C4.5,28,5.7,26.9,6,26.9c0-0.2,0.3-0.9,0.8-1.4
						c0.1,0,0,0.2-0.1,0.3c1.5-1.4,1.9-2.4,3.1-3.1c0.1,0.1,0.2,0,0.3,0c-0.6,0.5-1.2,1-1.5,1.4C8.2,24.4,8,24.6,8,24.6
						c0.2,0.2,1.1-0.7,0.6,0.3c0.6-0.9,1.7-2.4,2.8-3c0.1,0,0.1,0,0.2,0l-0.1,0.1c0.2-0.2,0.4-0.3,0.6-0.5c0.4-0.2,0.6-0.3,0.9-0.5
						c0.2,0.1,1.3-0.8,1.9-1.1c-0.2-0.2,0.6-0.6-0.3-0.4c0.1,0-0.1,0.1-0.4,0.3c-0.1,0.1-0.2,0.1-0.2,0.2c0,0,0,0,0,0
						c-0.4,0.2-0.8,0.6-1.3,0.9c0.3-0.4,0.7-0.8,1.4-1.1c0.2-0.3,0.4-0.7,0.5-0.9c1-0.2,2.6-0.8,2.9-0.7c1.7-1.1,4.2-2.2,5.1-3.2
						c0.5-0.3,0.7-0.1,0.9-0.1c-0.3,0.2-0.6,0.3-0.8,0.5c1-0.6,3.1-1.3,3.2-1.8c1.4-0.4-0.6,0.6,1.2-0.2L27,13.4
						c3.8-0.8,5.8-3,10.2-3.3c-0.3,0-0.5,0-0.5,0c4.9-0.9,10-2.5,14.9-2.6c1.4-0.1,1.5-0.3,2.3-0.6l0.3,0.3l1.4-0.5
						c2-0.5,3.6,0.4,6.2-0.3l-0.3-0.2c0.9,0,3-0.3,2.8,0c0.1,0,0.3-0.2,0.7-0.1l0,0.2l2.3-0.3c1.8,0.1-0.3,0.6,2.3,0.6
						c1-0.1,2.8-0.5,2.4-0.6c-0.4,0-1-0.1-1-0.2l0.9-0.1c0.2-0.5,0.9-1-1.3-1.3L69,4.6l-0.5-0.2l1.3,0c-0.7-0.2-1.2,0-1.7,0.1
						c-0.1-0.1-0.3-0.2-0.6-0.2l-1.5,0.5c-0.2-0.2,0.7-0.4-0.4-0.5c-0.7,0.2,0.7,0.4-0.5,0.6c-0.7-0.2-0.5-0.4-1.4-0.1
						c-0.1-0.1,0.1-0.2,0.4-0.3c-0.8,0.2-2,0.2-2.4,0.4c-0.8-0.2-2.6,0.3-2.5-0.2c-0.2,0.1-1.3,0.4-2,0.5c1.2-0.7-2.6,0.2-2.3-0.4
						c-0.9,0.6-3.4,0.6-5,1.1c0.1-0.1,0.3-0.2,0.4-0.2c-0.9,0.1-1.2,0-1.9,0c-0.1,0.4-1.5,0.7-2.2,1.1c-1.2-0.2,0.6-0.6,0.2-0.9
						c0.1,0.3-1.9,0.7-1.5,0.9c-0.9-0.1-0.8,0-1.3-0.2c-0.1,0.5-0.8,0.2-1.5,0.7c-1.3,0-0.4-0.4-1.8,0.1C39.6,7.4,40.8,7,40.8,7z
						 M10.1,20.7L10.1,20.7c0.2-0.2,0.4-0.4,0.5-0.5C10.5,20.3,10.4,20.5,10.1,20.7z M7.9,22.5c0.3-0.2,0.6-0.5,0.9-0.8
						c0.1,0,0.1,0.2-0.1,0.3C8.8,21.9,8.3,22.3,7.9,22.5z M13.7,20.4c-0.3,0.3-0.5,0.3-0.6,0.3c0.2-0.1,0.4-0.3,0.6-0.5
						c0,0,0,0,0-0.1C13.8,20.3,13.8,20.4,13.7,20.4z"/>
					<path fill="#FFFFFF" d="M14.2,19.7c0,0,0.1-0.1,0.1-0.1c-0.1,0-0.2,0.1-0.3,0.1c0,0.1-0.1,0.1-0.1,0.2
						C14.1,19.8,14.1,19.7,14.2,19.7z"/>
					<path fill="#FFFFFF" d="M99.1,3.8L99.1,3.8C99.1,3.8,99.1,3.8,99.1,3.8C99.1,3.8,99.1,3.8,99.1,3.8z"/>
					<polygon fill="#FFFFFF" points="12.5,56 12.6,55.9 12.3,55.9 					"/>
					<path fill="#FFFFFF" d="M83.9,0.9c0,0-0.1-0.1-0.2-0.1C83.7,0.8,83.8,0.9,83.9,0.9z"/>
					<path fill="#FFFFFF" d="M77.2,0.5l-0.9-0.1C76.7,0.4,77,0.4,77.2,0.5z"/>
					<path fill="#FFFFFF" d="M72.1,0.2C72,0.3,72,0.3,72,0.3l0,0L72.1,0.2z"/>
					<path fill="#FFFFFF" d="M145.1,30c0,0.1,0.1,0.1,0.1,0.2C145.4,30.6,145.3,30.3,145.1,30z"/>
					<path fill="#FFFFFF" d="M127.6,13c0.2,0.1,0.5,0.2,0.7,0.3C128,13,127.7,12.8,127.6,13z"/>
					<path fill="#FFFFFF" d="M136.2,54.8L136.2,54.8c0,0-0.1,0.1-0.1,0.1L136.2,54.8z"/>
					<path fill="#FFFFFF" d="M129.3,13.9c-0.3-0.3-0.7-0.5-1-0.6C128.6,13.5,129,13.7,129.3,13.9z"/>
					<path fill="#FFFFFF" d="M49.8,1.2l-0.2,0c0,0,0,0,0,0L49.8,1.2z"/>
					<path fill="#FFFFFF" d="M49.5,1.2l-0.3,0.1C49.3,1.3,49.5,1.3,49.5,1.2z"/>
					<path fill="#FFFFFF" d="M48.6,1.4l0.6-0.1C49,1.3,48.8,1.3,48.6,1.4z"/>
					<path fill="#FFFFFF" d="M56.6,0.7l0.1-0.1C56.6,0.6,56.6,0.7,56.6,0.7z"/>
					<path fill="#FFFFFF" d="M58.6,0.6c-0.5,0-1.3-0.1-1.9,0l-0.1,0.1C57,0.4,58.2,0.8,58.6,0.6z"/>
					<path fill="#FFFFFF" d="M67.3,1.5l-1.7,0c0.3,0.1,0.7,0.2-0.1,0.3C67.7,2,65,1.5,67.3,1.5z"/>
					<path fill="#FFFFFF" d="M72.6,1.6c-0.9,0,0,0.2,0,0.2C73.2,1.7,73.3,1.7,72.6,1.6z"/>
					<path fill="#FFFFFF" d="M110.7,6.9l-0.2,0.2C111.3,7.3,110.6,7,110.7,6.9z"/>
					<polygon fill="#FFFFFF" points="118.2,8.1 117.6,7.7 117.2,7.8 					"/>
					<polygon fill="#FFFFFF" points="121.4,11.5 121.2,11.4 122.3,11.9 					"/>
					<path fill="#FFFFFF" d="M128.5,56.7l0.3,0.2C129.2,56.6,129.1,56.2,128.5,56.7z"/>
					<path fill="#FFFFFF" d="M102.3,65.7c-0.3-0.1-1.1,0-1.6,0.2C101.3,65.8,102,65.8,102.3,65.7z"/>
					<path fill="#FFFFFF" d="M20.3,57.5l0.5,0.1C20.8,57.6,20.6,57.6,20.3,57.5c-0.2-0.1-0.4-0.2-0.4-0.2L20.3,57.5z"/>
				</g>
			</g>
		</g>
	</g>
</g>
</svg>
