<?xml version="1.0" encoding="utf-8"?>
<!-- Generator: Adobe Illustrator 17.1.0, SVG Export Plug-In . SVG Version: 6.00 Build 0)  -->
<!DOCTYPE svg PUBLIC "-//W3C//DTD SVG 1.1//EN" "http://www.w3.org/Graphics/SVG/1.1/DTD/svg11.dtd">
<svg version="1.1" id="Layer_1" xmlns="http://www.w3.org/2000/svg" xmlns:xlink="http://www.w3.org/1999/xlink" x="0px" y="0px"
	 viewBox="0 0 148 71.8" enable-background="new 0 0 148 71.8" xml:space="preserve">
<g>
	<g>
		<g>
			<g>
				<g>
					<path fill="#FFFFFF" d="M44.3,2.8c-0.2,0.1,0,0.3,0.5,0.2l0.3-0.4L44.3,2.8z"/>
					<path fill="#FFFFFF" d="M47.9,3c0.6-0.2,1.3-0.6,0.9-0.8c-0.6,0.4-0.8,0.3-1.4,0.7c-0.5,0.1-0.9,0-0.9-0.1
						c-0.2,0.1-0.8,0-1.1,0.3c0.7,0.2,1.6,0.1,2.5-0.2C48.2,2.8,48,2.9,47.9,3z"/>
					<path fill="#FFFFFF" d="M100.2,4.7l-0.3-0.1C100,4.6,100.1,4.7,100.2,4.7z"/>
					<path fill="#FFFFFF" d="M130.3,16.1C130.1,16,130,16,130,16C130.2,16.1,130.3,16.2,130.3,16.1z"/>
					<path fill="#FFFFFF" d="M134.5,19.7c-0.1-0.1-0.2-0.2-0.2-0.2C134.3,19.5,134.4,19.6,134.5,19.7z"/>
					<path fill="#FFFFFF" d="M100.2,4.7l0.8,0.3C101.1,4.9,100.6,4.8,100.2,4.7z"/>
					<path fill="#FFFFFF" d="M55.1,1.5c-0.2,0-0.3,0.1-0.5,0.1C54.8,1.6,54.9,1.6,55.1,1.5C55.1,1.6,55.1,1.6,55.1,1.5z"/>
					<path fill="#FFFFFF" d="M86,3l-0.3,0c-0.1,0-0.2,0.1-0.2,0.1L86,3z"/>
					<path fill="#FFFFFF" d="M75.1,2.5c0.2,0,0.3-0.3,0.4-0.4c-0.1,0.1-0.3,0.2-0.5,0.2C75,2.4,75,2.4,75.1,2.5z"/>
					<path fill="#FFFFFF" d="M57.6,2.5l-0.3,0.1C57.4,2.5,57.6,2.5,57.6,2.5z"/>
					<path fill="#FFFFFF" d="M93.8,4c0,0,0,0.1,0.1,0.1C93.9,4,93.9,4,93.8,4z"/>
					<path fill="#FFFFFF" d="M60,5.3C59.9,5.4,60,5.4,60,5.3C60,5.4,60,5.3,60,5.3z"/>
					<path fill="#FFFFFF" d="M72.8,6.2l-0.2,0c0,0.1,0,0.1,0,0.2L72.8,6.2z"/>
					<path fill="#FFFFFF" d="M141,27C141,27,141,27,141,27C140.8,26.8,140.9,26.9,141,27z"/>
					<path fill="#FFFFFF" d="M78.2,68.7c1.1,0.2-1.7,0.4-0.1,0.6C78,69.2,79.6,68.8,78.2,68.7z"/>
					<path fill="#FFFFFF" d="M55.4,1.5c0.1,0,0.3,0,0.5,0C55.6,1.5,55.5,1.5,55.4,1.5z"/>
					<path fill="#FFFFFF" d="M78.1,69.3L78.1,69.3l0.2,0C78.2,69.3,78.2,69.3,78.1,69.3z"/>
					<path fill="#FFFFFF" d="M141.8,47.2c0.1,0,0.2-0.1,0.2-0.1C142,47.1,142,47.1,141.8,47.2z"/>
					<path fill="#FFFFFF" d="M144.3,31.8l0.1,0.4C144.3,32,144.3,31.9,144.3,31.8z"/>
					<path fill="#FFFFFF" d="M135.8,53.6c-0.2,0.1-0.3,0.1-0.5,0.4c0,0,0.1,0,0.1,0C135.5,53.8,135.6,53.7,135.8,53.6z"/>
					<path fill="#FFFFFF" d="M127.9,58.4c0.1,0,0.1,0,0.2,0c0.1,0,0.2-0.1,0.3-0.1L127.9,58.4z"/>
					<path fill="#FFFFFF" d="M31.5,10.8c0.2,0,0.4,0.1,0.5,0.1C31.8,10.7,33.2,10.2,31.5,10.8z"/>
					<path fill="#FFFFFF" d="M55.1,1.7c0-0.1,0.1-0.1,0.3-0.1c-0.1,0-0.2,0-0.3,0C55,1.6,55,1.7,55.1,1.7z"/>
					<path fill="#FFFFFF" d="M136.8,55.6l-1.3,0.8C135.9,56.2,136.4,55.9,136.8,55.6z"/>
					<path fill="#FFFFFF" d="M16.1,58.3l-0.3-0.1C15.9,58.2,16,58.3,16.1,58.3z"/>
					<path fill="#FFFFFF" d="M131.7,58.9c-0.3,0-0.6,0.1-0.8,0.3c0,0.1-0.1,0.1-0.1,0.2L131.7,58.9z"/>
					<path fill="#FFFFFF" d="M32,10.9L32,10.9L32,10.9z"/>
					<path fill="#FFFFFF" d="M41.5,7.7C40.1,8,41,8.2,40.7,8.5C39,9,39.9,8.4,39.3,8.3c-1,0.3-1.7,0.9-2.5,1.1c-0.1,0-0.2,0-0.1-0.1
						c-1,0.5-3.3,0.9-4.4,1.6c-0.1,0-0.2,0-0.2,0c0.3,0.1,0.3,0.3,0.3,0.4c-0.6,0.2-1.1,0.6-1.4,0.4c0.4-0.1,0.4-0.2,0.5-0.3
						l-0.6,0.3c-0.7-0.1,0.8-0.4,0.8-0.6c-1.2,0.5-2.6,1.3-3.6,1.5c-0.3-0.2,2.2-0.9,0.8-0.7c0,0,0.4-0.1,0.8-0.2
						c0.4-0.1,0.8-0.2,0.8-0.2c-1.3-0.1,0.9-0.3-0.3-0.5c-2,0.6-2.1,0.9-4.1,1.5c-0.4,0.3,0.2,0.2-0.1,0.5c-1.3,0.7-1.9,0.7-2.4,0.7
						c-0.5,0-1,0-1.8,0.6c-0.4,0.4-0.4,0.9-1.9,1.4l0.3-0.6c-1.8,0.9-0.8,1-2.8,1.8c0.3-0.3,1.3-0.8,1-0.7c-1.4,0.4-0.8,0.6-1.7,1.2
						l-0.4-0.2c-1.9,1.1-3.7,2.6-5.5,4.1c0-0.2,0.3-0.5-0.2-0.2c-2.3,2-4.9,4.3-6.8,6.7l-0.4,1.1c-0.1,0.2-0.4,0.4-0.3,0.1
						c-0.7,0.9,0.1,0.1-0.1,0.7c-0.3,0.6-0.5,0.7-0.4,0.3c-0.4,1-0.9,2.4-1.2,3.8c-0.4,1.4-0.5,2.9-0.7,4l-0.1-0.4
						c-0.1,0.9,0.1,1.3,0.3,1.8c0.1,0.5,0.3,0.9,0.3,1.7l-0.1-0.3c0.2,1.8,0.9,3.7,1.8,5.2C3.5,46.6,4,47.3,4.4,48
						c0.5,0.7,0.9,1.3,1.2,1.9C6,50,6.5,50.7,7.1,51.4c0.6,0.6,1.2,1.2,1.5,1c1.4,1.5,0.8,1.3,3,3.2c0.6,0.5,1.2,0.3,2,0.8l-0.2,0.3
						c0,0,0.3,0.1,0.6,0.2c0.3,0.1,0.6,0.2,0.6,0.2l0.4,0.7l0.8,0.4c-0.3-0.2-0.6-0.5-0.5-0.6c1.2,0.6,2.8,1.9,2.8,2
						c0,0,0.8,0.3,1.5,0.6c0.7,0.3,1.5,0.6,1.5,0.6c-0.1,0.1-0.6-0.1-1.1-0.2c1.7,0.4,0.1,0.4,1.7,0.8c-0.2-0.2,0.2-0.1,0.2-0.2
						c0.6,0.5,2.3,1.2,3.6,1.6L25.2,63c2.2,0.9,4.8,1.7,7.4,2.5c-0.9-0.4-0.6-0.7,0.2-0.5l0.2,0.4c0.5,0-0.7-0.4,0.3-0.3
						c1,0.3,0.5,0.5,0,0.5l1.2,0.2c0,0.1-0.2,0.1-0.4,0.2c0.5-0.1,1.9,0.9,2.7,0.7l0,0.1c2.6,0.7,3.8,0.8,6,1.3
						c0.1-0.3,0.9,0,1.6-0.1c1.6,0.4,3.3,0.9,5.2,1.2c1.4,0.1,0.4-0.2,1.1-0.3c0.1,0.3,2,0.5,1,0.6c2.3,0.3,2.9,0.4,5.9,0.5
						c-0.3-0.1-0.7-0.2-0.5-0.3c0.5,0,1.2,0.2,1.1,0.3l-0.1,0c3.3,0,7.5,1.4,10.2,0.9l-0.1,0c0,0,0.7,0,1.4-0.1
						c0.7,0,1.4-0.1,1.4-0.1c1.2,0.1-0.8,0.2,0.2,0.4c2.9-0.4,4.6,0.1,7.1-0.2c1.9,0.7,6.6-0.3,9.2-0.1l-0.2-0.2
						c0.6-0.2,0.8,0,1.3,0c-0.1-0.1-0.7-0.1-0.3-0.2c5.5-0.7,11.4-1,17-2c2.1-0.4,1-1.1,3.6-1.3l-0.7,0.5c4-1.3,8.3-2.1,12.1-3.9
						c-0.2,0.2-0.2,0.2-0.6,0.4c0.9,0,3-1.1,3-1.3c0.6-0.2,0.2,0.1,0.6,0.1c0.9-0.2,1.9-1.1,2.4-1.1c0.1,0-0.2,0.2-0.3,0.2
						c0.5-0.3,2.4-1.1,1.8-1.1c1.5-0.5,2.6-1.4,3.8-1.8c0.6-0.7,2.4-1.2,2.4-1.7c0.1,0.2,0.7-0.1,1.4-0.5c0.7-0.5,1.4-1.1,1.8-1.4
						c-0.2,0.3,0.8-0.4,0.6,0c0.9-0.7,1.7-1.4,1.4-1.5c1-0.5,1.7-1.2,2.3-2c0.3-0.4,0.6-0.7,0.9-1c0.3-0.3,0.6-0.5,0.9-0.6
						c2.1-2.7,3.6-5.6,4.3-8.7c0.2,0.1,0,1-0.3,1.7c-0.3,0.8-0.6,1.5-0.4,1.6c0.3-0.7,0.5-1.4,0.6-2c0.1-0.6,0.2-1.2,0.3-1.8
						c0.1-0.6,0.1-1.2,0.2-1.8c0-0.6,0.1-1.3,0.1-2c0-0.8,0.2,0.4,0.3,0.7c-0.1-3-0.7-5.8-2-8c0,0,0.2,0.2,0.3,0.4
						c-0.2-0.5-0.4-1.1-0.6-1l0.3,0.4c0.1,0.8-1.4-1.6-1.6-1.5c0.9,0.5-1.1-2.2,0.2-1.5c-0.2-0.3-0.5-0.6-0.6-0.4
						c-0.2-0.4-0.3-0.6,0.1-0.3c-1.1-1.4-0.9-0.8-1.9-2.1c0.1-0.1,0.3,0.2,0.5,0.2c-0.7-0.5-1.3-1.1-2.2-2.1c0.1,0,0.1-0.1,0.3,0.2
						c-0.4-0.4-0.8-0.8-1.2-1.2c-0.4-0.3-0.8-0.6-1.2-1c-0.8-0.7-1.7-1.2-2.6-2.2c0.4,0.1,0.3-0.1,0-0.3c-0.2-0.2-0.6-0.5-0.5-0.7
						l-1.2-0.8l0.3,0.5c-0.9-0.8-2-1.1-2.8-1.8l0.8,0.4c0,0-0.5-0.3-1-0.6c-0.5-0.3-1-0.6-1-0.6s0.3,0.2,0.5,0.4
						c0.2,0.2,0.5,0.4,0.5,0.4c-1.1-0.5-0.1,0.4-1.4-0.5c0.3,0.1-1-0.6-1.4-1.1l0,0c-0.6-0.2-1.2-0.4-1.9-0.9
						c-0.1-0.2,0.4-0.3,0.3-0.4c-0.3,0-1-0.3-1.6-0.6c-0.7-0.3-1.3-0.6-1.7-0.6c0.3,0,0.4-0.1,0.3-0.2l-0.6,0
						c-0.5-0.3-0.5-0.4-0.4-0.5c-1.5-0.8,0.3,0.6-1.4-0.3c0.2,0,0.1,0,0.4,0.1c-0.9-0.4-1.8-0.8-2.7-1.1c-0.9-0.3-1.8-0.6-2.6-1
						c-0.4-0.5,1.5,0.5,1.1,0c-0.6-0.2-1.3-0.4-1.9-0.6c-0.7-0.2-1.3-0.3-2-0.5c-0.7-0.2-1.3-0.3-1.9-0.5c-0.6-0.2-1.3-0.3-1.9-0.5
						l0.4,0.2c-0.5,0.4-1.7-0.8-3.1-0.9c0.3,0,0.5-0.2,0.4-0.2c-1.7-0.5-3.5-0.8-6.1-1.1l0.3-0.1c-1-0.3-2.6-0.6-3.7-0.8
						c-0.3,0.1-1,0-0.6,0.2C96.6,3,95.8,2.8,95,2.7c-0.8-0.1-1.6-0.2-2.4-0.2c-0.8,0-1.6-0.1-2.3-0.2c-0.8-0.1-1.5-0.2-2.3-0.4
						c0.4,0,0.9,0,0.6-0.1L86,1.7c0.2,0.2,0.3,0.2,0.8,0.4c-0.3,0.1-1.1,0.1-1.7,0.1c1.2,0,0-0.4-0.5-0.5c0.1,0.1-0.1,0.1-0.1,0.2
						c-1.3-0.5-0.3,0.4-2.1,0.1l0.1-0.1c-0.7,0-1.3,0.1-2.1,0.1c-0.3-0.3,0.7-0.1,0.8-0.3c-1-0.1-2.1,0.4-3,0.1
						c0.4-0.1,1.1,0,1.5-0.1c-1-0.3-1.1-0.3-1.9-0.3l0.1,0L76.3,1l0.4,0.1c-0.7,0.3-1.3,0.3-2,0.3c-0.7,0-1.5,0-2.4,0.2
						c1.7-0.4,0.3-0.2,0.4-0.6c-0.4-0.1-1.1-0.2-0.9-0.3c-0.8,0.2-1.4-0.2-2.6,0.2c-0.1-0.1-0.9,0-0.7-0.2c-1.1,0.1,0.3,0.2,0.2,0.3
						c-1.7,0.4-3.9-0.3-6.3,0.3c-2.1,0.3-2.4,0.7-4.3,0.9c-0.7-0.1,0.5-0.4,0.5-0.4c-1.1-0.1-1.8,0-2.8,0.2c0.2-0.1,0-0.2-0.3-0.2
						c-0.8,0.1-0.5,0.4-1.5,0.3C54,2,54.3,1.8,54.6,1.7c-0.9,0.2-1.8,0.4-2.8,0.6c-0.3-0.1,0.6-0.3,0.9-0.4C51.7,2,50,2.2,49.7,2.5
						l0.7,0c-0.4,0.1-0.2-0.2,0.1-0.3c0.9-0.3,1.3,0,1.4,0.1l-0.7,0.1c0.8,0.5,2.7-0.3,4.1-0.4l-0.5,0.5L56.1,2
						c0.3,0.1,0.5,0.3-0.1,0.4c1,0.1,0.9-0.2,1.7,0c0.1,0,0.1,0.1,0,0.1l1-0.2c-0.2,0.1,0.2,0.3-0.4,0.3c1.7,0.1,2.8-0.5,3.4-0.2
						l-0.1,0c2.4-0.3,0.2-0.3,2-0.8l1.2,0.7L64.9,2c0.2,0,0.7,0,0.7,0.1C66.5,1.9,65.4,2,66,1.8c1.2,0.3,3.3-0.2,3.6,0.3
						c0.4-0.2-1.1-0.2,0.1-0.3c0.4,0.5,1.5-0.1,2.6,0.2c-0.3,0.3-1.4,0.1-0.3,0.4c0.7-0.5,2.1,0.1,3,0c0-0.4,2-0.1,3.5-0.2
						c-0.1,0.1,0.7,0.1,1.6,0.2c0.9,0.1,2,0.2,2.7,0.3l0,0.1c0.3-0.3,1.8-0.2,2.8-0.2c-0.1,0.2-0.3,0.3-0.8,0.3c0,0,0.3,0,0.5,0
						c0.3,0,0.5,0,0.5,0C86,2.9,86.3,2.9,87,2.9l-0.3,0.2c1.3,0.1,2.7-0.1,4.4,0.3c0.1-0.2-1.3-0.9,0.6-0.8C91.7,2.8,91.8,3,91.3,3
						c0.2,0,0.6,0,0.9,0.1l-0.8,0.1c0.8,0.2,0.4-0.1,1.1,0c0,0.2,0.4,0.2,0.3,0.3c-0.2,0-0.5-0.2-0.8-0.1c0.7,0.1,1.5,0.4,1.8,0.5
						c0-0.1,0-0.3,0.6-0.2c1.3,0.2,0.4,0.3,1.2,0.5c0.3-0.1,1.2,0.2,1.2-0.1c0.4,0.1,0.4,0.2,0.6,0.3c0.4,0,1.2,0.1,1.8,0.2
						c0.6,0.1,1.1,0.1,0.7-0.1l-0.2-0.1c0,0,0.1,0,0.1,0c0,0,0,0,0,0l0,0c1.1,0.1,2.3,0.4,3.4,0.7c1.1,0.3,2.3,0.7,3.4,0.9l0,0.1
						c1.3,0.2,2.9,0.7,3.9,0.8c0.4,0.1,0.9,0.4,0.7,0.5c1,0.2,1.1,0.2,2.5,0.8c-1-0.2,0.3,0.3-1-0.2c1.2,0.5,1.5,0.7,2.9,1
						C115,9,116.4,9.6,117,9.8l-0.8-0.5c0.7,0.2,1.3,0.5,1.8,0.7l-0.4,0.2c1.2,0.7,2.4,1,3.5,1.3c1.1,0.3,2.1,0.7,2.9,1.5
						c0.8,0.1-1.3-0.8-0.6-0.8c1.1,0.6,2,1.6,2.4,1.8c1.4,1,1.6,0.3,3.1,1.4c-0.1-0.2-0.2-0.6,1.1,0c1,0.7,1,1.3,0.3,0.9
						c-0.3-0.2-0.4-0.3-0.3-0.3c-0.4-0.2-0.8-0.4-0.5,0l0.2,0c0.5,0.4,1.9,1.4,1.4,1.3c0.8,0.4,0.4,0.1-0.1-0.4c1.2,1,2,1.5,3.3,2.5
						c-0.2-0.2-0.3-0.5-0.1-0.3c1.8,1.7,1,0.5,2.2,1.5c0.6,0.8-0.5,0.1,0.8,1.1c0.6,0.8-0.1,0.4-0.4,0.2c1.3,0.8,1.8,2.1,2.4,2.7
						l-0.6-0.5c0.3,0.3,0.6,0.6,0.9,0.9c0,0,0-0.1,0-0.2c0-0.1-0.1-0.2-0.1-0.2c0.3,0.4,0.5,0.7,0.4,0.7c0.4,0.3,0.1-0.5,0.8,0.1
						c0.1,0.3,0.5,0.6,0.7,1c0.2,0.3,0.4,0.7,0.4,0.8c-1-1.6-0.1,0.3-1.1-0.9c0.2,0.2,0.4,0.5,0.7,0.9c0,0.1-0.1,0-0.2-0.1
						c0.8,1.7,0.8,0.5,1.7,2.1c-0.3-0.1-0.1,0.5,0.1,0.8c-0.4-0.6,0.1-0.5,0.5,0.1c0.4,1.2,0.7,1.1,0.9,1.7c0,0,0-0.2-0.1-0.4
						c-0.1-0.2-0.1-0.3-0.1-0.3c0.3,0.1,0.5,0.7,0.8,1.5c-0.1,0.1-0.4-0.7-0.3-0.4c0.3,0.4,0.4,0.9,0.5,1.5c0.1,0.6,0.1,1.2,0.3,1.8
						c0,0.6-0.3,0.1-0.3,0.6c0.2,0.7,0.1,1.1,0.1,1.5c0,0.4-0.1,0.8-0.1,1.5c0.3-0.4,0.2-0.5,0.4,0.6c0,0,0-0.6,0-1.2
						c0-0.3,0-0.6-0.1-0.8c0-0.2,0-0.4,0-0.4s0.1,0.4,0.2,0.8c0.1,0.4,0.1,0.8,0.1,0.8c0.1-0.8-0.2-1.6-0.1-2
						c0.2,0.7,0.2,0.7,0.4,0.3c-0.1,0.5-0.1,1,0,1.6c0,0.3,0,0.5,0,0.8c0,0.3-0.1,0.6-0.2,0.9l-0.6-0.1c-0.6,1.6-0.4,3.1-1.7,5.1
						l0.4-0.6c0,0.2-0.1,0.5-0.3,0.9c-0.2,0.4-0.5,0.7-0.7,1.1c-0.1-0.2-0.4,0.2-0.7,0.4c0.1,0.1-1,1.4-0.9,1.8l-0.9,0.6
						c-1.4,1.3-1.2,2-2.6,3.1c0.3-0.5-0.4-0.1,0.4-1c-0.5,0.4-0.9,0.7-0.8,0.8c-0.4,0.1-1.2,1.3-1.8,1.5c-0.2,0.2-0.1,0.4-0.7,0.8
						c-0.1,0-0.1-0.1-0.1-0.1c0.1,0.1-0.8,0.7-0.2,0.6c-1.9,0.6-4.6,2.9-6.4,3.1c-0.6,0.4-1.3,0.7-1.9,1c-0.7,0.3-1.3,0.7-1.9,0.9
						c0.1-0.1,0-0.1,0.2-0.2c-1.7,0.5-0.7,1-2.7,1.5c-1.1,0.1,0.9-0.5,0.3-0.4c-0.5-0.5-2.2,0.9-3.6,1l0.3-0.1
						c-0.5,0.1-1.1,0.3-1.7,0.6c-0.6,0.3-1.3,0.6-2.1,0.8c0,0,0.1-0.1,0-0.1c-1,0.6-3,1.4-4.5,1.8c0.4-0.4,0.7-0.3,0.3-0.5
						c-0.7,0.2,0.3,0.3-1.1,0.8c-0.5,0-1.5,0.1-1.7-0.1c0,0,0.3-0.1,0.7-0.2c0.3-0.1,0.6-0.2,0.6-0.2c-0.7-0.2-1.7,0.4-2.4,0.5
						l0.1-0.2c-2,0.5-1.9,0.9-4.1,1.3l0.2,0.1c-1.1,0.6-1,0-2.2,0.5l-0.4-0.3c-0.8,0.2-2.7,0.8-4.1,1.1c0.8-0.4,2.4-0.8,3.4-1.2
						c-0.8,0.1-2.6,0.4-3,0.7c0.3-0.1,0.7-0.2,1-0.2c-0.9,0.4-2.2,0.8-3.7,1c0.1-0.4-0.9-0.3-2.1-0.2c-1.2,0.1-2.6,0.2-3.2,0
						c-2.7,0.5-5.5,0.3-8.7,0.5c1.2,0.6-0.9,0-0.7,0.7c-0.8,0.1-1,0.1-1.1,0c0,0-0.6-0.1-1.1-0.2c-0.6-0.1-1.1-0.2-1.1-0.2
						c-0.5-0.2,0.7-0.1,0.6-0.3c-1.7,0-0.7-0.3-1.8-0.4c0.2,0.2-0.6,0.3-1.5,0.2l1.3,0.3c-2.3,0.3-2-0.5-4.3-0.2l0.7-0.2
						c-1.2,0.1-4.4-0.1-5.6,0.3c-0.2-0.1-0.5-0.3,0.1-0.3c-2.8-0.2-6.4,0.1-8.5-0.5l0.2-0.1c-0.5,0-1,0.2-1.6,0c0-0.1,0.2-0.1,0-0.2
						c-0.3,0-1.4,0.1-2.1-0.1l0.6-0.1c-2.7-0.6-4.3-0.2-6.6-0.5c0.1-0.4-2-1-3.1-1.3l0-0.1c-3.1-0.7-5.4-0.8-8.4-1.4
						c-1.7-0.9-6-2-8.6-3.3c0.4,0.2-0.2,0.3-0.7,0.1c-0.6-0.3-1.9-0.4-1.6-0.8l0.2,0.1c-0.3-0.6-1.7-1-2.7-1.5l-0.4,0.4
						c-0.6-0.5-1.3-0.9-2.1-1.3c-0.8-0.4-1.6-0.8-2.4-1.2c-0.8-0.4-1.5-0.8-2.1-1.2c-0.6-0.4-1.1-0.8-1.3-1.1
						c-0.6-0.3-1.4-0.8-2-1.1l0.2-0.2c-0.7-0.6-1.3-1.1-1.9-1.6c-0.6-0.5-1.2-1.1-2-1.9l0.5,0.2c-0.5-0.5-0.9-0.6-1.3-0.8
						c-0.4-0.2-0.9-0.3-1.2-0.8l0.1-0.6c-1.4-1.8-2.2-4-3.1-6c0.1,0,0.2,0,0.3,0.4c-0.1-0.3-0.2-0.6-0.3-1c-0.1-0.4-0.1-0.9-0.2-1.3
						c-0.1-0.8-0.2-1.5-0.5-1.3c0.3,0,0.1-2.3,0.2-3.5l0.2,0.2c-0.1-0.5-0.1-0.8-0.1-1.2c0-0.3,0.1-0.7,0.3-1.4
						c0.2-0.3,0.3-0.2,0.1,0.2c0.5-1,0.1-1,0.9-2.2l-0.1,0.6c0.5-1.1,0.5-1,0.6-1.7c0.3-0.7,1.4-1.8,1.7-1.8c0-0.2,0.3-0.9,0.8-1.4
						c0.1,0,0,0.2-0.1,0.3c1.5-1.4,1.9-2.4,3.1-3.1c0.1,0.1,0.2,0,0.3,0c-0.6,0.5-1.2,1-1.5,1.4c-0.4,0.4-0.6,0.6-0.5,0.5
						c0.2,0.2,1.1-0.7,0.6,0.3c0.6-0.9,1.7-2.4,2.8-3c0.1,0,0.1,0,0.2,0l-0.1,0.1c0.2-0.2,0.4-0.3,0.6-0.5c0.4-0.2,0.6-0.3,0.9-0.5
						c0.2,0.1,1.3-0.8,1.9-1.1c-0.2-0.2,0.6-0.6-0.3-0.4c0.1,0-0.1,0.1-0.4,0.3c-0.1,0.1-0.2,0.1-0.2,0.2c0,0,0,0,0,0
						c-0.4,0.2-0.8,0.6-1.3,0.9c0.3-0.4,0.7-0.8,1.4-1.1c0.2-0.3,0.4-0.7,0.5-0.9c1-0.2,2.6-0.8,2.9-0.7c1.7-1.1,4.2-2.2,5.1-3.2
						c0.5-0.3,0.7-0.1,0.9-0.1c-0.3,0.2-0.6,0.3-0.8,0.5c1-0.6,3.1-1.3,3.2-1.8c1.4-0.4-0.6,0.6,1.2-0.2l-0.2,0.2
						c3.8-0.8,5.8-3,10.2-3.3c-0.3,0-0.5,0-0.5,0c4.9-0.9,10-2.5,14.9-2.6c1.4-0.1,1.5-0.3,2.3-0.6L55,7.9l1.4-0.5
						c2-0.5,3.6,0.4,6.2-0.3l-0.3-0.2c0.9,0,3-0.3,2.8,0c0.1,0,0.3-0.2,0.7-0.1l0,0.2l2.3-0.3c1.8,0.1-0.3,0.6,2.3,0.6
						c1-0.1,2.8-0.5,2.4-0.6c-0.4,0-1-0.1-1-0.2l0.9-0.1c0.2-0.5,0.9-1-1.3-1.3l-1.5,0.3l-0.5-0.2l1.3,0c-0.7-0.2-1.2,0-1.7,0.1
						c-0.1-0.1-0.3-0.2-0.6-0.2l-1.5,0.5c-0.2-0.2,0.7-0.4-0.4-0.5c-0.7,0.2,0.7,0.4-0.5,0.6c-0.7-0.2-0.5-0.4-1.4-0.1
						c-0.1-0.1,0.1-0.2,0.4-0.3c-0.8,0.2-2,0.2-2.4,0.4c-0.8-0.2-2.6,0.3-2.5-0.2c-0.2,0.1-1.3,0.4-2,0.5c1.2-0.7-2.6,0.2-2.3-0.4
						c-0.9,0.6-3.4,0.6-5,1.1c0.1-0.1,0.3-0.2,0.4-0.2c-0.9,0.1-1.2,0-1.9,0c-0.1,0.4-1.5,0.7-2.2,1.1c-1.2-0.2,0.6-0.6,0.2-0.9
						c0.1,0.3-1.9,0.7-1.5,0.9c-0.9-0.1-0.8,0-1.3-0.2c-0.1,0.5-0.8,0.2-1.5,0.7c-1.3,0-0.4-0.4-1.8,0.1C40.3,8.1,41.5,7.7,41.5,7.7
						z M10.8,21.4L10.8,21.4c0.2-0.2,0.4-0.4,0.5-0.5C11.3,21.1,11.1,21.2,10.8,21.4z M8.7,23.3c0.3-0.2,0.6-0.5,0.9-0.8
						c0.1,0,0.1,0.2-0.1,0.3C9.6,22.6,9,23,8.7,23.3z M14.5,21.2c-0.3,0.3-0.5,0.3-0.6,0.3c0.2-0.1,0.4-0.3,0.6-0.5c0,0,0,0,0-0.1
						C14.6,21,14.6,21.1,14.5,21.2z"/>
					<path fill="#FFFFFF" d="M15,20.4c0,0,0.1-0.1,0.1-0.1c-0.1,0-0.2,0.1-0.3,0.1c0,0.1-0.1,0.1-0.1,0.2
						C14.8,20.5,14.9,20.5,15,20.4z"/>
					<path fill="#FFFFFF" d="M99.9,4.6L99.9,4.6C99.9,4.6,99.8,4.5,99.9,4.6C99.8,4.5,99.8,4.6,99.9,4.6z"/>
					<polygon fill="#FFFFFF" points="13.3,56.8 13.3,56.7 13.1,56.6 					"/>
					<path fill="#FFFFFF" d="M84.7,1.6c0,0-0.1-0.1-0.2-0.1C84.5,1.6,84.5,1.6,84.7,1.6z"/>
					<path fill="#FFFFFF" d="M78,1.2L77,1.1C77.4,1.1,77.7,1.2,78,1.2z"/>
					<path fill="#FFFFFF" d="M72.8,1c-0.1,0-0.1,0.1-0.1,0.1l0,0L72.8,1z"/>
					<path fill="#FFFFFF" d="M145.9,30.7c0,0.1,0.1,0.1,0.1,0.2C146.2,31.3,146.1,31,145.9,30.7z"/>
					<path fill="#FFFFFF" d="M128.4,13.7c0.2,0.1,0.5,0.2,0.7,0.3C128.7,13.8,128.5,13.6,128.4,13.7z"/>
					<path fill="#FFFFFF" d="M137,55.5L137,55.5c0,0-0.1,0.1-0.1,0.1L137,55.5z"/>
					<path fill="#FFFFFF" d="M130.1,14.6c-0.3-0.3-0.7-0.5-1-0.6C129.4,14.2,129.8,14.5,130.1,14.6z"/>
					<path fill="#FFFFFF" d="M50.5,1.9l-0.2,0c0,0,0,0,0,0L50.5,1.9z"/>
					<path fill="#FFFFFF" d="M50.2,2L50,2C50.1,2,50.2,2,50.2,2z"/>
					<path fill="#FFFFFF" d="M49.4,2.2L50,2C49.8,2,49.5,2.1,49.4,2.2z"/>
					<path fill="#FFFFFF" d="M57.3,1.5l0.1-0.1C57.4,1.4,57.3,1.4,57.3,1.5z"/>
					<path fill="#FFFFFF" d="M59.4,1.3c-0.5,0-1.3-0.1-1.9,0l-0.1,0.1C57.7,1.2,58.9,1.5,59.4,1.3z"/>
					<path fill="#FFFFFF" d="M68.1,2.2l-1.7,0c0.3,0.1,0.7,0.2-0.1,0.3C68.4,2.7,65.8,2.2,68.1,2.2z"/>
					<path fill="#FFFFFF" d="M73.4,2.4c-0.9,0,0,0.2,0,0.2C74,2.5,74.1,2.4,73.4,2.4z"/>
					<path fill="#FFFFFF" d="M111.5,7.6l-0.2,0.2C112,8,111.4,7.8,111.5,7.6z"/>
					<polygon fill="#FFFFFF" points="118.9,8.9 118.3,8.5 117.9,8.6 					"/>
					<polygon fill="#FFFFFF" points="122.2,12.3 121.9,12.2 123,12.6 					"/>
					<path fill="#FFFFFF" d="M129.2,57.4l0.3,0.2C130,57.3,129.9,57,129.2,57.4z"/>
					<path fill="#FFFFFF" d="M103,66.5c-0.3-0.1-1.1,0-1.6,0.2C102.1,66.6,102.7,66.6,103,66.5z"/>
					<path fill="#FFFFFF" d="M21,58.2l0.5,0.1C21.6,58.4,21.3,58.3,21,58.2c-0.2-0.1-0.4-0.2-0.4-0.2L21,58.2z"/>
				</g>
			</g>
		</g>
	</g>
</g>
</svg>
