<?xml version="1.0" encoding="utf-8"?>
<!-- Generator: Adobe Illustrator 17.1.0, SVG Export Plug-In . SVG Version: 6.00 Build 0)  -->
<!DOCTYPE svg PUBLIC "-//W3C//DTD SVG 1.1//EN" "http://www.w3.org/Graphics/SVG/1.1/DTD/svg11.dtd">
<svg version="1.1" id="Layer_1" xmlns="http://www.w3.org/2000/svg" xmlns:xlink="http://www.w3.org/1999/xlink" x="0px" y="0px"
	 viewBox="0 0 374 6" enable-background="new 0 0 374 6" xml:space="preserve">
<g>
	<g>
		<g>
			<g>
				<g>
					<path fill="#FFFFFF" d="M371,3.7c0.2-0.1,0.1-0.3-0.5-0.2l-0.4,0.3L371,3.7z"/>
					<path fill="#FFFFFF" d="M367.4,3.1c-0.6,0.2-1.4,0.4-0.9,0.7c0.6-0.3,0.8-0.2,1.4-0.6c0.5,0,0.9,0.1,0.8,0.2
						c0.2-0.1,0.8,0.1,1.1-0.1c-0.7-0.3-1.6-0.3-2.5-0.1C367.2,3.2,367.3,3.1,367.4,3.1z"/>
					<path fill="#FFFFFF" d="M315,2.5l0.3,0C315.2,2.6,315.1,2.5,315,2.5z"/>
					<path fill="#FFFFFF" d="M282.5,2.4c0.2,0,0.4,0,0.4-0.1C282.6,2.3,282.4,2.3,282.5,2.4z"/>
					<path fill="#FFFFFF" d="M276.9,2c0.1,0,0.2,0,0.3,0C277.1,2,277,2,276.9,2z"/>
					<path fill="#FFFFFF" d="M315,2.5l-0.9-0.1C314,2.5,314.5,2.5,315,2.5z"/>
					<path fill="#FFFFFF" d="M360.2,3.9c0.2,0,0.3,0,0.5-0.1C360.5,3.8,360.3,3.8,360.2,3.9C360.2,3.8,360.2,3.8,360.2,3.9z"/>
					<path fill="#FFFFFF" d="M329.3,2.3l0.3,0c0.1,0,0.2-0.1,0.2-0.1L329.3,2.3z"/>
					<path fill="#FFFFFF" d="M340.3,2.2c-0.2,0-0.3,0.3-0.4,0.4c0.1-0.1,0.3-0.2,0.5-0.2C340.4,2.4,340.4,2.3,340.3,2.2z"/>
					<path fill="#FFFFFF" d="M357.7,2.7l0.3,0C357.9,2.7,357.8,2.7,357.7,2.7z"/>
					<path fill="#FFFFFF" d="M321.4,2.2c0,0-0.1-0.1-0.1-0.1C321.3,2.1,321.4,2.2,321.4,2.2z"/>
					<path fill="#FFFFFF" d="M14,4.3C14.1,4.3,14,4.3,14,4.3C14,4.3,14,4.3,14,4.3z"/>
					<path fill="#FFFFFF" d="M1.3,2.9l0.2,0c0-0.1,0-0.1,0-0.2L1.3,2.9z"/>
					<path fill="#FFFFFF" d="M266.8,1.6C266.8,1.6,266.8,1.6,266.8,1.6C267.1,1.6,266.9,1.6,266.8,1.6z"/>
					<path fill="#FFFFFF" d="M173.6,1.8c1.1,0.3-1.7,0.3-0.1,0.6C173.3,2.3,174.9,2,173.6,1.8z"/>
					<path fill="#FFFFFF" d="M359.9,3.8c-0.1,0-0.3,0-0.5,0C359.6,3.8,359.8,3.8,359.9,3.8z"/>
					<path fill="#FFFFFF" d="M173.5,2.4C173.5,2.4,173.5,2.4,173.5,2.4l0.2,0C173.6,2.5,173.5,2.4,173.5,2.4z"/>
					<path fill="#FFFFFF" d="M243.4,1.8c0,0,0.1,0.1,0.2,0.1C243.6,1.9,243.6,1.9,243.4,1.8z"/>
					<path fill="#FFFFFF" d="M260.8,2.2l-0.4,0C260.6,2.2,260.7,2.2,260.8,2.2z"/>
					<path fill="#FFFFFF" d="M234.4,2.2c-0.2,0-0.3-0.1-0.6,0c0,0,0.1,0,0.1,0C233.9,2.2,234.1,2.2,234.4,2.2z"/>
					<path fill="#FFFFFF" d="M224.9,2.2c0,0,0.1,0,0.2,0.1c0.1,0,0.2,0,0.3,0L224.9,2.2z"/>
					<path fill="#FFFFFF" d="M42.7,4.2c-0.2-0.1-0.3-0.2-0.4-0.3C42.4,4.1,41,4.2,42.7,4.2z"/>
					<path fill="#FFFFFF" d="M360.2,3.7c-0.1,0.1-0.1,0.1-0.3,0.1c0.1,0,0.2,0,0.3,0C360.2,3.8,360.2,3.7,360.2,3.7z"/>
					<path fill="#FFFFFF" d="M234,4.4l-1.5,0C232.9,4.4,233.4,4.4,234,4.4z"/>
					<path fill="#FFFFFF" d="M110.2,4.1l-0.3,0C110,4.2,110.1,4.2,110.2,4.1z"/>
					<path fill="#FFFFFF" d="M228,4.4c-0.3-0.1-0.6-0.2-0.8-0.2c-0.1,0-0.1,0-0.2,0.1L228,4.4z"/>
					<path fill="#FFFFFF" d="M42.2,3.9C42.2,3.9,42.2,3.9,42.2,3.9C42.2,3.9,42.2,3.9,42.2,3.9z"/>
					<path fill="#FFFFFF" d="M32.4,4.6c1.4,0,0.7-0.4,1-0.6c1.7-0.1,0.8,0.3,1.4,0.5c1.1-0.1,1.9-0.4,2.7-0.4c0.1,0.1,0.2,0.1,0,0.2
						c1.1-0.3,3.3,0,4.6-0.4c0.1,0,0.1,0.1,0.2,0.1C42,3.7,42,3.6,42,3.4c0.6,0,1.2-0.2,1.4,0c-0.4,0-0.4,0.1-0.6,0.2l0.7-0.1
						c0.6,0.3-0.9,0.1-0.9,0.4c1.3-0.1,2.8-0.4,3.8-0.3c0.2,0.3-2.3,0.1-1,0.4l-1.5-0.1c1.2,0.5-0.9,0,0.1,0.5
						c2,0.1,2.3-0.2,4.3-0.1c0.5-0.2-0.2-0.3,0.3-0.5c2.9-0.3,2.3,0.9,4.4,0.4c0.5-0.2,0.8-0.7,2.3-0.4l-0.5,0.4
						c2,0,1.1-0.6,3.2-0.3c-0.4,0.2-1.6,0.1-1.3,0.2c1.3,0.3,0.9-0.2,2-0.2l0.2,0.3c2.1-0.1,4.4-0.3,6.7-0.4c-0.1,0.1-0.5,0.2,0,0.3
						c2.9-0.2,6.3,0,9.1,0.2l1.1-0.3c0.3,0,0.5,0.1,0.2,0.2c1.1,0.1,0.1-0.2,0.6-0.3c0.6,0,0.8,0.2,0.4,0.3C79,4,82.6,3.7,84.6,4
						l-0.4,0.1c1.6,0.1,1.8-0.6,3.3-0.3l-0.3,0.1c3.5,0.1,7.3-0.1,9.9,0.3c0.5-0.4,3.4,0.2,3.7-0.4c2,0.3,1.4,0.4,4.2,0.6
						c0.7,0,1.1-0.4,2-0.4l0,0.3l1.2-0.3l0.7,0.4l0.9-0.1c-0.3,0-0.7-0.1-0.7-0.2c1.3-0.1,3.3,0.2,3.3,0.4l3.2-0.3
						c-0.1,0.1-0.6,0.2-1,0.2c1.7-0.3,0.3,0.3,1.9,0c-0.2-0.1,0.1-0.2,0.1-0.2c0.8,0.2,2.5,0.2,3.9,0.1l-0.3,0.2
						c2.4,0.1,5-0.1,7.6-0.1c-1-0.1-0.7-0.5,0-0.5l0.3,0.3c0.5-0.2-0.8-0.1,0.2-0.4c1,0,0.7,0.4,0.1,0.5l1.2-0.1
						c0.1,0.1-0.2,0.1-0.3,0.3c0.5-0.2,2.1,0.3,2.8,0l0.1,0.1c2.7,0,3.9-0.1,6-0.1c0-0.3,0.9-0.2,1.5-0.4c1.6,0.1,3.4,0.3,5.3,0.3
						c1.3-0.1,0.4-0.2,1-0.4c0.1,0.3,2,0.2,1,0.4c2.3,0,2.9-0.1,5.8-0.3c-0.3-0.1-0.7-0.2-0.5-0.2c0.5,0,1.2,0.1,1.1,0.2l-0.1,0
						c3.3-0.4,7.5,0.7,10.1,0.2l-0.1,0l2.7-0.3c1.2,0-0.7,0.2,0.2,0.4c2.9-0.4,4.6,0.1,7-0.2c1.9,0.8,6.6-0.1,9.1,0.4l-0.1-0.2
						c0.6-0.2,0.8,0.1,1.3,0.1c-0.1-0.1-0.7-0.2-0.3-0.3c5.5-0.2,11.3,0.3,16.9,0.4c2.1,0,1.2-0.9,3.8-0.5l-0.7,0.3
						c4.1-0.4,8.5,0,12.5-0.3c-0.2,0.1-0.2,0.2-0.6,0.2c0.9,0.2,3.2,0,3.2-0.2c0.6,0,0.1,0.2,0.5,0.3c0.9,0.1,2.2-0.3,2.6-0.1
						c0.1,0-0.2,0.1-0.4,0.1c0.6-0.1,2.6,0,2.1-0.2c1.5,0.1,2.9-0.1,4.1,0c0.8-0.3,2.6,0.1,2.9-0.3c-0.1,0.5,2.7,0.4,3.6,0.2
						c-0.3,0.1,0.8,0.1,0.5,0.3c1.1,0,2.1-0.1,1.9-0.3c2,0.5,4.1-0.4,5.2,0.3c3.3-0.2,6.3-0.4,9.2-0.5c-0.1,0.5-3.2,0-3.1,0.5
						c2.8-0.2,4.4-0.6,7.1-0.5c0.7,0.1-0.4,0.2-0.6,0.3c2.8-0.2,5.4,0,7.8-0.2c0,0-0.3,0.1-0.5,0.1c0.5,0,1.1,0.1,1.1-0.1L261.8,4
						c-0.8-0.3,1.9-0.6,2-0.8c-0.8,0.6,2.4,0.1,1.1,0.9c0.3,0,0.7-0.1,0.6-0.3c0.5,0,0.6,0.1,0.1,0.3c1.7-0.1,1.1-0.3,2.7-0.3
						c0,0.1-0.3,0.1-0.5,0.3c0.8-0.2,1.6-0.4,2.9-0.3c-0.1,0.1,0.1,0.1-0.3,0.1c2.3,0,3.9-0.5,6.4-0.3c-0.7,0.4,0.9,0.1,1,0.5
						l1.4-0.1l-0.5-0.2c1.2,0,2.2-0.3,3.3-0.1l-0.9,0.2l2.2-0.1l-1.3-0.1c1.2-0.2-0.1-0.5,1.5-0.4c-0.3,0,1.2,0,1.8,0.2c0,0,0,0,0,0
						c0.6-0.1,1.2-0.2,2.1-0.2c0.2,0.1-0.2,0.4,0,0.5c0.6-0.3,2.8-0.1,3.5-0.4c-0.2,0.1-0.3,0.3-0.2,0.3l0.5-0.3
						c0.5,0.1,0.6,0.1,0.5,0.3c1.7,0-0.5-0.5,1.4-0.3c-0.2,0-0.1,0.1-0.4,0.1c2,0.1,3.8-0.2,5.6,0c0.5,0.4-1.6,0.1-1,0.4
						c2.6-0.1,5.4-0.5,7.9-0.4l-0.5,0c0.4-0.5,1.9,0.3,3.2,0c-0.3,0-0.4,0.3-0.3,0.2c1.7,0.1,3.5-0.1,6.2-0.3l-0.3,0.1
						c1,0.1,2.7,0.1,3.8,0.1c0.3-0.1,1-0.1,0.6-0.3c3.4,0.8,6.5-0.4,9.5,0.2c-0.4,0-0.9,0.1-0.6,0.1l2.6-0.1
						c-0.2-0.2-0.3-0.1-0.9-0.3c0.3-0.1,1-0.2,1.7-0.2c-1.2,0.2,0,0.4,0.5,0.5c-0.1-0.1,0.1-0.1,0-0.2c1.3,0.4,0.2-0.5,2.1-0.2
						l-0.1,0.1c0.7-0.1,1.3-0.2,2.1-0.2c0.3,0.3-0.7,0.1-0.8,0.3c1,0,2-0.5,3-0.2c-0.4,0.1-1.1,0.1-1.5,0.1c1,0.3,1.1,0.2,1.9,0.3
						l-0.1,0l1.8,0.1l-0.4-0.1c1.3-0.7,2.6-0.1,4.4-0.6c-1.7,0.4-0.3,0.2-0.4,0.6c0.4,0.1,1.1,0.2,0.9,0.3c0.8-0.2,1.4,0.2,2.5-0.2
						c0.1,0.1,0.9,0,0.7,0.3c1.1-0.1-0.3-0.2-0.2-0.3c1.7-0.3,3.9,0.4,6.3-0.1c2.1-0.2,2.4-0.5,4.3-0.7c0.6,0.2-0.5,0.4-0.5,0.4
						c1,0.1,1.8,0.1,2.8,0c-0.2,0.1,0,0.2,0.3,0.3c0.8,0,0.5-0.4,1.6-0.2c-0.2,0.1-0.4,0.3-0.8,0.4c0.9-0.1,1.8-0.3,2.8-0.4
						c0.3,0.2-0.6,0.3-0.9,0.4c1.1-0.1,2.8-0.2,3.1-0.4l-0.7-0.1c0.4,0,0.2,0.2-0.1,0.3c-0.9,0.2-1.3-0.1-1.4-0.2l0.7-0.1
						c-0.7-0.6-2.7,0.1-4.1,0.1l0.6-0.4l-1.4,0.3c-0.3-0.1-0.5-0.3,0.2-0.4c-1-0.2-0.9,0.1-1.7-0.1c-0.1,0-0.1-0.1,0-0.1l-1,0.1
						c0.2-0.1-0.2-0.3,0.4-0.2c-1.7-0.2-2.8,0.3-3.4,0l0.1,0c-2.4,0.1-0.2,0.3-2,0.7l-1.2-0.8l-0.2,0.3c-0.2,0-0.7,0-0.6-0.2
						c-0.9,0.2,0.2,0.1-0.4,0.3c-1.2-0.3-3.3,0.1-3.5-0.4c-0.4,0.2,1.1,0.2-0.1,0.3c-0.4-0.5-1.5,0.1-2.6-0.2
						c0.3-0.3,1.4-0.1,0.3-0.4c-0.7,0.5-2.1-0.1-3,0c0,0.4-2,0.2-3.5,0.3c0.1-0.1-2.9-0.2-4.3-0.3l0-0.1c-0.3,0.4-1.8,0.3-2.8,0.4
						c0-0.2,0.2-0.3,0.8-0.4l-1,0c-0.2,0.1-0.6,0.2-1.2,0.2l0.3-0.3c-1.3,0-2.7,0.3-4.4,0.1c-0.1,0.3,1.4,0.7-0.5,0.9
						c-0.1-0.1-0.1-0.4,0.3-0.4c-0.2,0-0.6,0.1-0.9,0.1l0.7-0.2c-0.8-0.1-0.4,0.2-1,0.2c0-0.2-0.5-0.1-0.4-0.3c0.2,0,0.5,0.1,0.8,0
						c-0.7,0-1.6-0.2-1.9-0.3c0.1,0.1,0,0.3-0.5,0.3c-1.3,0-0.5-0.2-1.2-0.3c-0.3,0.1-1.2,0-1.2,0.3c-0.4,0-0.5-0.1-0.6-0.2
						c-0.7,0.1-3.3,0-2.5,0.4l0.2,0c0,0-0.1,0-0.1,0c0,0,0,0,0,0h0c-2.3,0.3-4.7-0.2-7,0l0-0.1c-1.4,0.1-3,0.1-4,0.3
						c-0.4,0-0.9-0.2-0.8-0.3c-1,0.1-1.1,0.2-2.6,0c1-0.2-0.4-0.2,1.1-0.1c-1.3-0.1-1.6-0.2-3.1,0c0.5-0.3-1-0.3-1.6-0.2l0.9,0.2
						c-0.7,0-1.3,0-2,0l0.3-0.3c-2.7-0.4-5,0.7-7,0c-0.7,0.2,1.5,0.2,0.8,0.4c-1.3,0-2.6-0.5-3-0.5c-1.7-0.2-1.6,0.5-3.4,0.4
						c0.2,0.1,0.5,0.4-0.9,0.5c-1.3,0-1.6-0.5-0.8-0.6c0.3,0,0.4,0,0.4,0.1c0.4,0,0.9-0.1,0.4-0.2l-0.2,0.1c-0.6-0.1-2.4-0.1-2-0.3
						c-1,0.1-0.4,0.2,0.3,0.3c-1.6-0.2-2.5,0-4.2-0.1c0.3,0.1,0.5,0.2,0.2,0.2c-2.4-0.1-1.1,0.2-2.7,0.3c-0.9-0.2,0.3-0.4-1.3-0.3
						c-1-0.1-0.2-0.3,0.2-0.4c-1.5,0.2-2.8-0.2-3.7-0.2l0.8-0.1c-0.5,0.1-0.9,0.1-1.3,0.1l0.5,0.2c-0.5,0-0.9,0-0.9-0.1
						c-0.5,0.2,0.4,0.4-0.6,0.6c-0.6-0.1-1.9,0.1-2.1-0.2c2,0.1-0.2-0.3,1.5-0.4c-0.3,0-0.7,0-1.2,0c-0.1,0,0.1-0.1,0.2-0.1
						C264.9,1.3,265.9,2,264,2c0.2-0.2-0.5-0.3-0.8-0.3c0.8,0,0.4,0.3-0.3,0.4c-1.3-0.1-1.4,0.1-2,0.1l0.7,0.1
						c-0.3,0.2-0.9,0.2-1.8,0.2c-0.1-0.1,0.8-0.1,0.5-0.2c-1,0.3-2.2-0.3-3.5-0.1c-0.6-0.1-0.1-0.3-0.6-0.4
						c-1.5,0.2-1.6-0.2-3.2-0.1c0.5,0.2,0.5,0.2-0.6,0.4l2.6-0.2l-1.7,0.3c0.8,0,1.7-0.1,2.1-0.1c-0.8,0.2-0.7,0.1-0.3,0.3
						c-1.1-0.4-2.1,0.2-3.4,0l0-0.6c-1.9-0.3-3.3,0.3-5.8,0.2l0.8,0.1c-0.3,0.2-1.5,0-2.3,0.1c0.1-0.2-0.4-0.3-0.8-0.4
						c0,0.1-1.8,0-2,0.4L240.5,2c-2-0.1-2.3,0.6-4.1,0.5c0.6-0.2-0.3-0.4,1-0.5c-0.6,0-1.2,0-1.2,0.1c-0.4-0.1-1.8,0.3-2.3,0.1
						c-0.3,0.1-0.4,0.3-1.1,0.3c-0.1,0,0-0.1,0-0.1c0,0.1-1.1,0.1-0.5,0.4c-2-0.6-5.5,0-7.2-0.5c-1.4,0.1-3,0.1-4.3,0.1
						c0.1-0.1,0-0.1,0.2-0.1c-1.7-0.2-1.1,0.6-3,0.4c-1-0.3,1-0.2,0.4-0.3c-0.3-0.6-2.4,0.1-3.7-0.3l0.3,0c-1-0.2-2.5,0.2-4.1,0.2
						c0,0,0.1-0.1,0-0.1c-1.1,0.3-3.3,0.4-4.9,0.5c0.5-0.3,0.7-0.1,0.4-0.4c-0.7,0,0.2,0.4-1.2,0.5c-0.5-0.1-1.5-0.3-1.6-0.5l1.3,0
						c-0.7-0.4-1.7,0-2.4,0l0.1-0.2c-2.1,0.1-2.1,0.4-4.3,0.4l0.2,0.1c-1.2,0.4-1-0.2-2.2,0.1L196,2.2c-0.8,0.1-2.8,0.4-4.2,0.5
						c0.8-0.3,2.5-0.4,3.5-0.6c-0.8,0-2.7,0-3.1,0.2c0.3,0,0.7-0.1,1-0.1c-1,0.3-2.2,0.5-3.8,0.5c0.3-0.8-4.1-0.2-5.3-0.8
						c-2.8,0.3-5.5-0.1-8.8-0.1c1.2,0.6-0.9,0-0.7,0.6c-0.8,0-1,0-1.1,0l-2.3-0.4c-0.5-0.2,0.7-0.1,0.7-0.3c-1.7,0-0.7-0.3-1.8-0.4
						c0.2,0.2-0.6,0.3-1.5,0.2l1.3,0.3c-2.3,0.3-2-0.5-4.3-0.2l0.7-0.2c-1.2,0.1-4.4,0-5.6,0.5c-0.2-0.1-0.5-0.2,0-0.3
						c-2.9-0.1-6.4,0.5-8.6,0.2l0.2-0.1c-0.5,0-0.9,0.3-1.6,0.1c0-0.1,0.2-0.1,0-0.2c-0.3,0.1-1.4,0.3-2.1,0.2l0.6-0.2
						c-2.8-0.2-4.3,0.4-6.6,0.5c0-0.4-2.2-0.6-3.3-0.7l0-0.1c-3.3-0.1-5.5,0.4-8.5,0.5c-1.9-0.5-6.3-0.2-9.3-0.5
						c0.5,0.1-0.1,0.3-0.6,0.4c-0.7-0.1-1.9,0.3-1.8-0.1l0.3,0c-0.5-0.4-2-0.3-3.1-0.3l-0.2,0.5c-3-0.8-7.8,0.3-9.4-0.4
						c-0.7,0.1-1.6,0.1-2.3,0.3l0-0.3c-2-0.1-3-0.1-5.4,0l0.5-0.2c-1.4,0-1.7,0.8-3,0.8L96,1.9c-2.4,0-4.8-0.4-7.2,0
						c0-0.1,0.1-0.2,0.5-0.2c-1.1,0-4.4-0.3-4,0.3c0-0.4-2.5,0-3.8,0.1l0.2-0.3c-1.1,0.4-1.1,0.5-2.7,0.6c-0.4,0-0.3-0.2,0.2-0.2
						c-1.2-0.1-0.9,0.3-2.4,0.1l0.5-0.2c-1.2,0-1.1,0.1-1.8,0.3c-0.8,0.1-2.4-0.1-2.5-0.3c-0.2,0.2-0.8,0.4-1.6,0.3
						c-0.1-0.1,0.2-0.2,0.3-0.2c-2.1-0.2-3.1,0.3-4.5,0.1c0-0.1-0.1-0.1-0.2-0.2c1.7,0,3,0,2.9,0c0-0.3-1.3-0.3-0.3-0.7
						c-1.1,0.2-2.9,0.6-4.2,0.5c-0.1,0-0.1,0-0.2-0.1l0.1,0c-0.3,0-0.6,0-0.8,0c-0.4,0-0.7-0.1-1.1-0.1c-0.2-0.2-1.5-0.1-2.2-0.1
						c0.1,0.3-0.8,0.2,0,0.5c-0.1,0,0.1,0,0.6,0c0.1,0,0.2,0,0.3,0c0,0,0,0,0,0c0.4,0,1,0,1.7,0c-0.5,0.1-1.1,0.3-1.8,0.1
						c-0.3,0.2-0.7,0.4-0.9,0.5C60,2.3,58.2,2.1,58,1.9c-2,0.2-4.8,0.1-6.1,0.6c-0.6,0.1-0.7-0.2-0.9-0.2c0.3-0.1,0.7,0,0.9-0.1
						c-1.2,0.1-3.4,0.1-3.7,0.4c-1.5-0.2,0.8-0.3-1.2-0.3l0.3-0.1c-3.9-0.6-6.4,0.9-10.8,0.2c0.3,0,0.5,0.1,0.5,0.1
						c-5-0.3-10.3,0.3-15.2-0.2c-1.4-0.1-1.5,0.1-2.4,0.3l-0.3-0.3l-1.5,0.3c-2.1,0.3-3.6-0.7-6.2-0.3l0.3,0.2c-0.9,0-3,0.1-2.8-0.1
						C9,2.5,8.8,2.7,8.4,2.6l0-0.2L6.1,2.7C4.3,2.6,6.3,2,3.7,2C2.8,2.1,1,2.5,1.3,2.6c0.4,0,1,0.1,1,0.3L1.5,2.9
						C1.3,3.4,0.6,3.9,2.8,4.2l1.5-0.3l0.5,0.2l-1.3,0c0.7,0.2,1.2,0,1.7-0.1c0.1,0.1,0.3,0.2,0.6,0.2l1.5-0.4
						C7.5,4,6.7,4.2,7.7,4.3C8.4,4.1,7,3.9,8.2,3.8C8.9,4,8.7,4.1,9.6,4c0.1,0.1-0.1,0.2-0.4,0.2c0.8-0.1,2-0.1,2.4-0.3
						c0.8,0.3,2.6-0.1,2.5,0.4c0.2-0.1,1.3-0.3,2-0.4c-1.3,0.5,2.6,0,2.3,0.6C19.3,4,21.7,4.3,23.4,4c-0.1,0-0.3,0.1-0.4,0.1
						c0.9,0,1.2,0.2,1.8,0.3c0.1-0.4,1.6-0.5,2.4-0.7c1.2,0.4-0.7,0.5-0.3,0.8c-0.1-0.3,2-0.3,1.6-0.6c0.9,0.2,0.8,0.1,1.2,0.4
						c0.2-0.5,0.8-0.1,1.6-0.4c1.3,0.2,0.3,0.5,1.7,0.3C33.6,4.4,32.4,4.6,32.4,4.6z M65.7,3.7C65.7,3.8,65.7,3.8,65.7,3.7
						c-0.3,0-0.5,0-0.7,0C65.1,3.8,65.3,3.8,65.7,3.7z M68.5,3.7c-0.3,0-0.8,0-1.2,0c-0.1-0.1,0-0.2,0.3-0.2
						C67.4,3.6,68,3.7,68.5,3.7z M62.5,1.8c0.4,0,0.6,0,0.7,0.1c-0.2,0-0.5,0-0.8,0c0,0,0,0-0.1,0C62.4,1.9,62.5,1.8,62.5,1.8z"/>
					<path fill="#FFFFFF" d="M61.7,2.2c-0.1,0-0.1,0-0.2,0C61.6,2.2,61.7,2.2,61.7,2.2c0.1,0.1,0.2,0,0.2,0
						C61.9,2.2,61.8,2.2,61.7,2.2z"/>
					<path fill="#FFFFFF" d="M315.4,2.6L315.4,2.6C315.4,2.6,315.4,2.6,315.4,2.6C315.4,2.6,315.4,2.6,315.4,2.6z"/>
					<polygon fill="#FFFFFF" points="107.1,4.3 107.1,4.2 106.8,4.3 					"/>
					<path fill="#FFFFFF" d="M330.8,3.5c0,0,0.1,0.1,0.2,0.1C331,3.6,330.9,3.6,330.8,3.5z"/>
					<path fill="#FFFFFF" d="M337.4,3.6l0.9,0.1C338,3.7,337.7,3.6,337.4,3.6z"/>
					<path fill="#FFFFFF" d="M342.5,3.7c0.1,0,0.1-0.1,0.1-0.1c0,0,0,0,0,0L342.5,3.7z"/>
					<path fill="#FFFFFF" d="M261.2,4.1c-0.1,0-0.1,0-0.2,0C260.5,4.1,260.8,4.1,261.2,4.1z"/>
					<path fill="#FFFFFF" d="M285.4,3.4c-0.3,0.1-0.5,0.1-0.8,0.1C285,3.6,285.4,3.6,285.4,3.4z"/>
					<path fill="#FFFFFF" d="M234.1,4.4C234.1,4.4,234.1,4.4,234.1,4.4c-0.1,0-0.1,0-0.2,0L234.1,4.4z"/>
					<path fill="#FFFFFF" d="M283.5,3.6c0.4,0.1,0.8,0,1.1,0C284.3,3.5,283.8,3.5,283.5,3.6z"/>
					<path fill="#FFFFFF" d="M364.7,3.9l0.2,0c0,0,0,0,0,0L364.7,3.9z"/>
					<path fill="#FFFFFF" d="M365,3.8l0.3,0C365.1,3.8,365,3.8,365,3.8z"/>
					<path fill="#FFFFFF" d="M365.9,3.7l-0.6,0.1C365.5,3.8,365.7,3.8,365.9,3.7z"/>
					<path fill="#FFFFFF" d="M358,3.7l-0.1,0.1C357.9,3.8,357.9,3.8,358,3.7z"/>
					<path fill="#FFFFFF" d="M355.9,3.8c0.5,0,1.2,0.2,1.9,0.2l0.1-0.1C357.6,4,356.4,3.6,355.9,3.8z"/>
					<path fill="#FFFFFF" d="M347.3,2.5l1.7,0.1c-0.3-0.1-0.7-0.3,0.1-0.3C346.9,2,349.6,2.6,347.3,2.5z"/>
					<path fill="#FFFFFF" d="M341.9,2.4c0.9-0.1,0-0.2,0-0.2C341.4,2.2,341.3,2.3,341.9,2.4z"/>
					<path fill="#FFFFFF" d="M303.3,2.4l0.1-0.3C302.7,2.1,303.4,2.2,303.3,2.4z"/>
					<polygon fill="#FFFFFF" points="295.9,3.7 296.6,3.8 296.9,3.6 					"/>
					<polygon fill="#FFFFFF" points="291.5,1.9 291.8,1.8 290.7,1.9 					"/>
					<path fill="#FFFFFF" d="M226.6,1.9l0.2,0.3C227.3,2.2,227.4,1.9,226.6,1.9z"/>
					<path fill="#FFFFFF" d="M198.6,2.3c-0.3-0.2-1.1-0.3-1.6-0.1C197.6,2.2,198.3,2.3,198.6,2.3z"/>
					<polygon fill="#FFFFFF" points="114.5,1.8 115.1,1.7 114,1.7 					"/>
				</g>
			</g>
		</g>
	</g>
</g>
</svg>
