<?xml version="1.0" encoding="utf-8"?>
<!-- Generator: Adobe Illustrator 18.1.1, SVG Export Plug-In . SVG Version: 6.00 Build 0)  -->
<svg version="1.1" id="Layer_1" xmlns="http://www.w3.org/2000/svg" xmlns:xlink="http://www.w3.org/1999/xlink" x="0px" y="0px"
	 viewBox="0 0 335.5 8.2" enable-background="new 0 0 335.5 8.2" xml:space="preserve">
<path fill-rule="evenodd" clip-rule="evenodd" d="M333,2.4c1.5,0.5,2.3,1.2,2.5,2.1c0.2,0.9,0.1,3.5-5.4,3.5
	C320.5,6.2,35.3,4.5,5.5,8.1C3.2,8.3,0.8,6.8,0.2,5.3c-0.7-1.6,0.4-2.8,3.1-3.7c1-0.3,2.3-0.6,4-0.7c0.2-0.1,0.7-0.1,1.4-0.1
	l0.8-0.1c0.1,0,0.2,0,0.4,0C12.4,0,288.5-1,333,2.4z"/>
</svg>
