<?xml version="1.0" encoding="utf-8"?>
<!-- Generator: Adobe Illustrator 18.0.0, SVG Export Plug-In . SVG Version: 6.00 Build 0)  -->
<!DOCTYPE svg PUBLIC "-//W3C//DTD SVG 1.1//EN" "http://www.w3.org/Graphics/SVG/1.1/DTD/svg11.dtd">
<svg version="1.1" id="Layer_1" xmlns="http://www.w3.org/2000/svg" xmlns:xlink="http://www.w3.org/1999/xlink" x="0px" y="0px"
	 viewBox="0 0 750.3 6.5" enable-background="new 0 0 750.3 6.5" xml:space="preserve">
<g>
	<g>
		<g>
			<g>
				<g>
					<path fill="#FFFFFF" d="M750.1,4.6c0.4-0.2,0.2-0.6-0.9-0.5l-0.8,0.7L750.1,4.6z"/>
					<path fill="#FFFFFF" d="M742.8,3.3c-1.3,0.3-2.8,0.9-1.9,1.5c1.3-0.6,1.6-0.4,2.9-1.1c1.1-0.1,1.9,0.2,1.7,0.5
						c0.4-0.2,1.7,0.1,2.3-0.3c-1.4-0.5-3.2-0.5-5.1-0.1C742.3,3.6,742.7,3.5,742.8,3.3z"/>
					<path fill="#FFFFFF" d="M636.4,2.3l0.7,0.1C636.9,2.3,636.7,2.3,636.4,2.3z"/>
					<path fill="#FFFFFF" d="M570.5,1.9c0.5,0,0.7-0.1,0.7-0.1C570.8,1.8,570.4,1.9,570.5,1.9z"/>
					<path fill="#FFFFFF" d="M559.3,1.2c0.2,0,0.4,0,0.7,0C559.7,1.2,559.4,1.2,559.3,1.2z"/>
					<path fill="#FFFFFF" d="M636.4,2.3l-1.8-0.2C634.5,2.3,635.6,2.3,636.4,2.3z"/>
					<path fill="#FFFFFF" d="M728.1,4.9c0.4,0,0.7-0.1,1-0.2c-0.3,0-0.6,0.1-0.9,0.1C728.2,4.9,728.1,4.9,728.1,4.9z"/>
					<path fill="#FFFFFF" d="M665.5,1.8l0.5,0c0.2-0.1,0.3-0.2,0.4-0.3L665.5,1.8z"/>
					<path fill="#FFFFFF" d="M687.8,1.7c-0.5,0-0.7,0.5-0.9,0.8c0.3-0.2,0.7-0.3,1.1-0.4C688,2,687.9,1.8,687.8,1.7z"/>
					<path fill="#FFFFFF" d="M723.1,2.7l0.6-0.1C723.6,2.6,723.3,2.6,723.1,2.7z"/>
					<path fill="#FFFFFF" d="M649.5,1.6c0-0.1-0.1-0.2-0.2-0.2C649.3,1.5,649.4,1.6,649.5,1.6z"/>
					<path fill="#FFFFFF" d="M25.9,5.9C26,5.8,25.9,5.8,25.9,5.9C25.8,5.8,25.8,5.9,25.9,5.9z"/>
					<path fill="#FFFFFF" d="M0.1,3.1l0.4,0c0-0.1,0.1-0.2,0.1-0.3L0.1,3.1z"/>
					<path fill="#FFFFFF" d="M538.7,0.5C538.7,0.5,538.7,0.5,538.7,0.5C539.3,0.4,539,0.5,538.7,0.5z"/>
					<path fill="#FFFFFF" d="M349.7,0.9c2.1,0.5-3.5,0.6-0.3,1.2C349.1,1.9,352.3,1.2,349.7,0.9z"/>
					<path fill="#FFFFFF" d="M727.5,4.9c-0.3,0-0.6,0-0.9,0C727,4.9,727.3,4.9,727.5,4.9z"/>
					<path fill="#FFFFFF" d="M349.4,2.1C349.4,2.1,349.4,2.1,349.4,2.1l0.3,0.1C349.6,2.1,349.5,2.1,349.4,2.1z"/>
					<path fill="#FFFFFF" d="M491.2,0.8c0.1,0.1,0.3,0.2,0.5,0.2C491.7,1,491.6,1,491.2,0.8z"/>
					<path fill="#FFFFFF" d="M526.6,1.6l-0.9-0.1C526.1,1.6,526.3,1.6,526.6,1.6z"/>
					<path fill="#FFFFFF" d="M472.9,1.6c-0.5,0-0.6-0.1-1.3,0c0.1,0,0.1,0,0.2,0.1C472,1.6,472.3,1.5,472.9,1.6z"/>
					<path fill="#FFFFFF" d="M453.8,1.6c0.1,0,0.2,0.1,0.4,0.1c0.2,0,0.4,0,0.6,0L453.8,1.6z"/>
					<path fill="#FFFFFF" d="M84,5.6c-0.4-0.2-0.7-0.3-0.9-0.5C83.4,5.5,80.6,5.6,84,5.6z"/>
					<path fill="#FFFFFF" d="M728.1,4.6c-0.1,0.1-0.3,0.2-0.6,0.2c0.2,0,0.4,0,0.6,0C728.2,4.7,728.2,4.7,728.1,4.6z"/>
					<path fill="#FFFFFF" d="M472.1,6.1l-3-0.1C469.9,6,471,6.1,472.1,6.1z"/>
					<path fill="#FFFFFF" d="M221,5.5l-0.7,0.1C220.6,5.6,220.9,5.6,221,5.5z"/>
					<path fill="#FFFFFF" d="M460.1,6.1c-0.5-0.2-1.1-0.3-1.7-0.4c-0.1,0-0.3,0.1-0.4,0.1L460.1,6.1z"/>
					<path fill="#FFFFFF" d="M83.1,5.1C83.1,5.1,83.1,5.1,83.1,5.1C83.1,5.1,83.1,5.1,83.1,5.1z"/>
					<path fill="#FFFFFF" d="M63.1,6.4c2.9,0,1.4-0.7,2-1.1c3.5-0.2,1.6,0.5,2.8,0.9C70,6,71.7,5.3,73.3,5.4
						c0.1,0.1,0.4,0.2,0.1,0.3c2.3-0.6,6.8,0,9.4-0.8C83,5,83.1,5,83.1,5.1c-0.4-0.4-0.5-0.7-0.4-1c1.3,0,2.4-0.5,2.9,0
						c-0.8,0-0.9,0.2-1.2,0.3l1.4-0.2c1.2,0.7-1.9,0.2-1.9,0.8c2.6-0.2,5.7-0.8,7.8-0.6c0.4,0.7-4.7,0.2-2,0.8l-3.1-0.3
						C88.9,6,84.5,4.9,86.8,6c4.1,0.2,4.6-0.3,8.7-0.1c0.9-0.4-0.3-0.6,0.6-0.9c5.9-0.7,4.6,1.7,8.9,0.8c1.1-0.5,1.5-1.3,4.6-0.9
						l-1,0.8c4,0.1,2.3-1.1,6.5-0.6c-0.7,0.3-3.1,0.3-2.5,0.3c2.7,0.6,1.9-0.4,4-0.4l0.4,0.7c4.3-0.1,9-0.6,13.7-0.7
						c-0.3,0.2-1.1,0.4,0,0.6c6-0.3,12.7,0.1,18.4,0.5l2.2-0.6c0.5,0,0.9,0.3,0.4,0.4c2.2,0.2,0.1-0.4,1.2-0.6
						c1.3,0,1.7,0.3,0.9,0.5c3.9-0.5,11.2-1.1,15.4-0.4l-0.8,0.2c3.2,0.2,3.7-1.2,6.7-0.7l-0.6,0.1c7,0.3,14.8-0.3,20.2,0.6
						c1-0.8,7,0.4,7.4-0.8c4,0.6,2.9,0.8,8.5,1.2c1.5,0.1,2.2-0.7,4.1-0.9l0,0.6l2.5-0.6l1.3,0.7l1.8-0.2c-0.7,0-1.5-0.3-1.4-0.5
						c2.7-0.3,6.7,0.4,6.7,0.7l6.5-0.5c-0.1,0.2-1.2,0.3-2.1,0.5c3.5-0.6,0.6,0.6,3.8,0.1c-0.4-0.1,0.2-0.4,0.3-0.5
						c1.6,0.4,5.2,0.4,7.8,0.2l-0.5,0.4c4.8,0.1,10.1-0.2,15.5-0.2c-1.9-0.2-1.5-0.9,0.1-1l0.6,0.7c1-0.4-1.6-0.2,0.4-0.7
						c2,0.1,1.4,0.7,0.2,1l2.4-0.2c0.1,0.2-0.4,0.3-0.6,0.5c1-0.4,4.2,0.7,5.7,0l0.1,0.2c5.4,0,7.8-0.2,12.2-0.3
						c0.1-0.6,1.8-0.4,3.1-0.9c3.2,0.2,6.8,0.6,10.7,0.6c2.7-0.3,0.8-0.5,2-0.8c0.2,0.5,4.1,0.5,2.1,0.8c4.7-0.1,6-0.1,11.8-0.5
						c-0.6-0.2-1.4-0.3-1-0.5c1.1-0.1,2.4,0.2,2.3,0.5L309,5.2c6.6-0.8,15.3,1.5,20.5,0.4l-0.3,0.1l5.5-0.6c2.5,0.1-1.5,0.4,0.4,0.7
						c5.9-0.9,9.3,0.1,14.2-0.4c3.8,1.5,13.3-0.1,18.4,0.9l-0.3-0.4c1.3-0.3,1.6,0.2,2.6,0.3c-0.1-0.3-1.4-0.3-0.6-0.5
						c11.1-0.4,22.9,0.5,34.3,0.8c4.2,0.1,2.4-1.8,7.6-1l-1.5,0.7c8.4-0.8,17.2,0,25.4-0.6c-0.5,0.2-0.5,0.4-1.3,0.3
						c1.7,0.5,6.4,0,6.5-0.4c1.3,0,0.3,0.4,1.1,0.6c1.7,0.3,4.4-0.6,5.3-0.1c0.2,0.1-0.5,0.2-0.8,0.2c1.1-0.2,5.3,0.1,4.2-0.5
						c3.1,0.3,5.9-0.2,8.4,0.1c1.6-0.6,5.3,0.3,5.8-0.6c-0.2,0.9,5.4,0.7,7.4,0.3c-0.7,0.3,1.7,0.3,0.9,0.7c2.2,0,4.3-0.2,3.9-0.6
						c4.1,1.1,8.2-0.9,10.6,0.5c6.6-0.5,12.7-0.8,18.7-1c-0.2,0.9-6.6,0.1-6.3,1c5.6-0.4,8.9-1.1,14.5-0.9c1.4,0.1-0.8,0.4-1.3,0.5
						c5.6-0.4,10.9,0.1,15.9-0.4c0,0.1-0.6,0.2-1.1,0.2c1,0,2.3,0.1,2.2-0.3l-1,0.1c-1.6-0.6,3.9-1.2,4.1-1.6
						c-1.7,1.2,5,0.3,2.3,1.8c0.7-0.1,1.5-0.3,1.3-0.5c1,0.1,1.3,0.2,0.3,0.6c3.5-0.2,2.3-0.7,5.5-0.6c0,0.2-0.7,0.3-1,0.5
						c1.6-0.4,3.3-0.8,6-0.6c-0.2,0.1,0.2,0.3-0.7,0.3c4.7-0.1,7.9-1,13.1-0.7c-1.5,0.9,1.7,0.3,2,1l2.7-0.2l-1.1-0.4
						c2.4,0,4.5-0.5,6.6-0.3l-1.8,0.3l4.5-0.1l-2.6-0.3c2.4-0.4-0.3-0.9,2.9-0.7c-0.7,0.1,2.4,0,3.7,0.4c0,0,0,0,0,0
						c1.2-0.2,2.4-0.5,4.2-0.3c0.5,0.2-0.4,0.8-0.1,1c1.2-0.6,5.6-0.2,7.1-0.8c-0.5,0.2-0.5,0.5-0.4,0.6l1-0.5
						c1.1,0.2,1.3,0.2,1.1,0.6c3.4,0.1-1.1-0.9,2.9-0.5c-0.3,0-0.2,0.1-0.8,0.2c4,0.2,7.7-0.3,11.4-0.1c1.1,0.8-3.2,0.2-2,0.8
						c5.3-0.1,11-0.9,16.1-0.7l-1-0.1c0.7-1.1,3.8,0.5,6.4,0c-0.6,0.1-0.8,0.6-0.7,0.5c3.5,0.2,7.2-0.3,12.5-0.6l-0.7,0.3
						c2.1,0.2,5.4,0.1,7.7,0.3c0.7-0.3,1.9-0.2,1.2-0.6c6.9,1.6,13.1-0.8,19.3,0.5c-0.7,0-1.7,0.2-1.2,0.2l5.2-0.3
						c-0.4-0.5-0.7-0.3-1.8-0.6c0.7-0.3,2.1-0.5,3.4-0.5c-2.3,0.3,0,0.7,1,1c-0.2-0.1,0.2-0.3,0.1-0.4c2.7,0.8,0.5-0.9,4.2-0.4
						l-0.2,0.2c1.4-0.1,2.7-0.4,4.2-0.4c0.6,0.5-1.5,0.2-1.6,0.7c2.1,0,4.2-1,6.1-0.5c-0.9,0.1-2.2,0.2-3.1,0.3
						c2.1,0.6,2.3,0.5,3.9,0.6l-0.2,0l3.6,0.3l-0.9-0.2c2.6-1.4,5.4-0.3,8.9-1.2c-3.4,0.9-0.6,0.5-0.8,1.1c0.9,0.2,2.3,0.4,1.9,0.5
						c1.7-0.5,2.8,0.4,5.2-0.3c0.1,0.2,1.8,0,1.4,0.5c2.2-0.2-0.5-0.3-0.3-0.6c3.4-0.7,7.9,0.8,12.7-0.1c4.2-0.4,4.9-1,8.8-1.4
						c1.3,0.3-1.1,0.7-1.1,0.7c2.1,0.3,3.7,0.2,5.7,0c-0.4,0.2,0,0.3,0.6,0.5c1.6-0.1,1.1-0.7,3.2-0.4c-0.4,0.2-0.8,0.6-1.6,0.8
						c1.9-0.2,3.7-0.5,5.7-0.7c0.5,0.3-1.2,0.5-1.9,0.7c2.2-0.2,5.7-0.3,6.3-0.8l-1.4-0.2c0.8,0,0.4,0.5-0.2,0.6
						c-1.9,0.4-2.7-0.2-2.8-0.4l1.4-0.1c-1.4-1.1-5.6,0.2-8.3,0.1l1.2-0.8l-2.9,0.7c-0.6-0.2-1-0.7,0.4-0.8c-2-0.4-1.8,0.3-3.5-0.2
						c-0.2-0.1-0.1-0.1,0.1-0.1l-2,0.2c0.4-0.2-0.3-0.6,0.9-0.5c-3.5-0.5-5.7,0.6-7,0l0.3-0.1c-4.9,0.3-0.5,0.6-4.1,1.3l-2.5-1.5
						l-0.5,0.6c-0.5,0-1.5-0.1-1.3-0.3c-1.9,0.4,0.3,0.3-0.8,0.7c-2.4-0.6-6.7,0.3-7.2-0.7c-0.9,0.5,2.3,0.4-0.3,0.7
						c-0.7-1-3,0.2-5.2-0.3c0.7-0.5,2.8-0.3,0.6-0.7c-1.3,0.9-4.3-0.2-6.2,0c-0.1,0.7-4,0.3-7.2,0.5c0.2-0.2-5.9-0.4-8.8-0.7
						l0.1-0.1c-0.6,0.7-3.6,0.6-5.7,0.7c0.1-0.4,0.5-0.6,1.7-0.8l-2,0c-0.5,0.2-1.1,0.4-2.5,0.4l0.5-0.5c-2.7,0-5.5,0.6-9,0.3
						c-0.2,0.5,2.8,1.4-0.9,1.8c-0.1-0.3-0.3-0.8,0.7-0.9c-0.3,0-1.1,0.2-1.8,0.1l1.5-0.5c-1.6-0.2-0.8,0.4-2.1,0.3
						c0-0.4-0.9-0.3-0.8-0.6c0.3,0,1.1,0.2,1.6,0c-1.4-0.1-3.2-0.3-3.8-0.6c0.1,0.2,0,0.5-1.1,0.6c-2.7,0-0.9-0.5-2.5-0.7
						c-0.7,0.3-2.4,0-2.4,0.6c-0.8,0-0.9-0.3-1.3-0.4c-1.4,0.3-6.6,0.1-5,0.7l0.4,0c-0.1,0-0.1,0-0.2,0c0,0,0,0,0,0h0
						c-4.6,0.6-9.6-0.3-14.2-0.1l0-0.2c-2.7,0.2-6.1,0.1-8.1,0.6c-0.8,0-1.9-0.4-1.6-0.6c-2.1,0.1-2.3,0.4-5.4,0
						c2.1-0.3-0.7-0.3,2.2-0.3c-2.7-0.2-3.3-0.5-6.3,0.1c1-0.5-2.1-0.6-3.3-0.5l1.9,0.4c-1.5,0.1-2.7,0-4,0l0.7-0.7
						c-5.6-0.8-10,1.4-14.3,0c-1.5,0.5,3,0.3,1.7,0.9c-2.6-0.1-5.2-1-6-1c-3.5-0.4-3.3,1-7,0.7c0.5,0.2,0.9,0.9-1.8,1.1
						c-2.6-0.1-3.2-1-1.5-1.2c0.6,0,0.9,0.1,0.9,0.1c0.8-0.1,1.9-0.2,0.9-0.4l-0.3,0.2c-1.3-0.2-4.8-0.2-4-0.6
						c-1.9,0.2-0.8,0.4,0.6,0.5c-3.3-0.3-5.1,0-8.5-0.2c0.5,0.1,1,0.4,0.5,0.4c-5-0.3-2.2,0.5-5.6,0.6c-1.9-0.4,0.7-0.9-2.7-0.6
						c-2.1-0.2-0.4-0.6,0.4-0.8c-3.1,0.5-5.8-0.3-7.5-0.4l1.6-0.2c-1,0.1-1.8,0.1-2.6,0.1l0.9,0.5c-1-0.1-1.8-0.1-1.7-0.3
						c-1,0.3,0.8,0.8-1.2,1.2c-1.3-0.2-3.9,0.3-4.3-0.4c4,0.2-0.4-0.6,2.9-0.7c-0.7,0.1-1.5,0.1-2.4,0c-0.1-0.1,0.1-0.1,0.4-0.2
						c-3.8-0.6-1.8,0.7-5.7,0.7c0.5-0.4-0.9-0.7-1.6-0.6c1.6,0,0.8,0.6-0.7,0.9c-2.5-0.3-2.8,0.2-4.1,0.2l1.5,0.1
						c-0.5,0.4-1.8,0.3-3.6,0.4c-0.2-0.3,1.6-0.2,1-0.3c-2,0.6-4.5-0.6-7.2-0.2c-1.3-0.2-0.1-0.7-1.2-0.8c-3.1,0.5-3.3-0.5-6.6-0.1
						c0.9,0.5,1.1,0.4-1.2,0.8l5.3-0.3l-3.4,0.7c1.6,0,3.4-0.3,4.3-0.2c-1.6,0.4-1.5,0.3-0.7,0.7c-2.2-0.7-4.4,0.4-6.9-0.1l0.1-1.2
						c-3.8-0.5-6.8,0.6-11.7,0.3l1.6,0.2c-0.7,0.5-3.1,0.1-4.7,0.3c0.1-0.4-0.9-0.5-1.5-0.8c0.1,0.3-3.6,0-4.1,0.8l-2.2-0.5
						c-4-0.2-4.6,1.1-8.4,1c1.2-0.4-0.6-0.7,2-1c-1.3,0-2.4-0.1-2.5,0.2c-0.8-0.2-3.6,0.5-4.7,0.2c-0.5,0.2-0.7,0.6-2.2,0.6
						c-0.2-0.1,0-0.2,0-0.2c0,0.2-2.3,0.3-1,0.7c-4-1.2-11.1,0.1-14.5-1C451.3,1.9,448,2,445.4,2c0.2-0.1,0-0.2,0.5-0.2
						c-3.5-0.4-2.2,1.1-6.2,0.7c-2-0.6,2.1-0.3,0.8-0.6c-0.6-1.3-4.8,0.2-7.5-0.6l0.7-0.1c-2.1-0.4-5,0.5-8.4,0.4c0,0,0.2-0.1,0-0.2
						c-2.3,0.7-6.6,0.9-9.9,1.1c1-0.5,1.5-0.3,0.9-0.8c-1.4,0.1,0.4,0.8-2.5,1c-0.9-0.3-3-0.5-3.3-1.1l2.7,0c-1.4-0.7-3.5,0-5-0.1
						l0.2-0.3c-4.2,0.1-4.2,0.9-8.7,0.8l0.5,0.2c-2.5,0.8-2.1-0.4-4.5,0.1L395,1.7c-1.6,0.2-5.7,0.8-8.6,0.9c1.6-0.6,5-0.9,7.1-1.2
						c-1.6,0-5.5,0.1-6.3,0.4c0.6-0.1,1.5-0.3,2.1-0.1c-2,0.6-4.6,0.9-7.8,0.9c0.6-1.5-8.3-0.4-10.7-1.6c-5.7,0.6-11.2-0.2-17.8-0.2
						c2.3,1.2-1.9,0-1.5,1.3c-1.5,0.1-2.1,0.1-2.3,0l-4.7-0.7c-1.1-0.4,1.5-0.3,1.3-0.5c-3.4-0.1-1.4-0.5-3.6-0.8
						c0.5,0.4-1.2,0.6-3.1,0.5L342,1c-4.7,0.7-4.1-1-8.8-0.4l1.5-0.4c-2.4,0.2-9,0-11.3,1c-0.4-0.1-1-0.5,0.1-0.6
						c-5.8-0.1-12.9,1-17.4,0.4l0.4-0.3c-1.1,0.1-1.9,0.6-3.2,0.3c0.1-0.1,0.4-0.3-0.1-0.3c-0.6,0.1-2.9,0.5-4.3,0.3l1.2-0.3
						c-5.7-0.4-8.7,0.8-13.4,1c0-0.9-4.4-1.2-6.7-1.3l0.1-0.1c-6.6-0.1-11.2,0.7-17.3,1.1c-3.8-1-12.8-0.4-18.9-0.9
						c0.9,0.2-0.2,0.7-1.2,0.8c-1.4-0.2-4,0.6-3.7-0.2l0.5,0c-1.1-0.8-4-0.6-6.3-0.6l-0.4,1.1c-6-1.5-15.7,0.6-19-0.8
						C212.2,1,210.4,1,209,1.3l0.1-0.6c-4-0.1-6-0.2-11-0.1l1-0.4c-2.8,0-3.5,1.6-6.1,1.7L192.2,1c-4.9,0-9.8-0.7-14.6,0
						c0.1-0.1,0.2-0.4,1-0.4c-2.3,0-8.9-0.6-8.1,0.6c-0.1-0.8-5-0.1-7.7,0.3l0.4-0.6c-2.2,0.7-2.3,0.9-5.4,1.1
						c-0.7-0.1-0.6-0.4,0.3-0.3c-2.5-0.3-1.9,0.5-4.9,0.2l1.1-0.4c-2.5,0-2.3,0.1-3.7,0.6c-1.6,0.2-4.8-0.1-5.2-0.6
						c-0.3,0.3-1.7,0.7-3.2,0.6c-0.2-0.2,0.3-0.3,0.6-0.4c-4.2-0.4-6.3,0.6-9.2,0.1c-0.1-0.2-0.2-0.3-0.5-0.3c3.4,0,6.1,0,5.8,0.1
						c0-0.5-2.7-0.6-0.6-1.3c-2.2,0.4-5.9,1.2-8.5,1c-0.1,0-0.3-0.1-0.3-0.2l0.3-0.1c-0.6-0.1-1.2,0-1.7,0.1C127.4,1,126.8,1,126,1
						c-0.3-0.4-3.1-0.2-4.5-0.2c0.1,0.6-1.7,0.5,0,0.9c-0.2,0,0.3-0.1,1.2-0.1c0.2,0,0.4,0,0.6-0.1c0,0-0.1,0-0.1,0c0.9,0,2,0,3.4,0
						c-1.1,0.3-2.2,0.5-3.7,0.2c-0.7,0.4-1.5,0.7-1.9,0.9c-1.8-0.8-5.4-1.2-5.9-1.7c-4.1,0.3-9.7,0.2-12.3,1.3
						c-1.2,0.1-1.3-0.3-1.8-0.5c0.7-0.1,1.5-0.1,1.8-0.2c-2.3,0.3-6.9,0.1-7.5,0.8c-3-0.3,1.7-0.7-2.4-0.6l0.5-0.2
						c-8-1.2-13,1.9-21.8,0.4c0.6,0.1,0.9,0.1,1,0.3C62.6,1.5,51.9,2.8,41.9,1.8C39.1,1.5,38.8,2,37,2.4l-0.6-0.6l-3,0.7
						C29.3,3,26.2,1,20.9,2l0.7,0.4c-1.9-0.1-6,0.2-5.7-0.2c-0.2,0.1-0.6,0.4-1.4,0.2L14.4,2L9.8,2.6C6.1,2.3,10.3,1.3,5,1.3
						c-2,0.1-5.6,0.9-4.9,1.1c0.8,0,2,0.2,2.1,0.5L0.5,3.1C0.1,4-1.2,4.9,3.2,5.6L6.3,5l1,0.5l-2.6,0c1.5,0.4,2.4,0,3.4-0.2
						c0.2,0.2,0.7,0.4,1.3,0.5l3-0.9c0.4,0.4-1.4,0.7,0.7,0.9c1.4-0.4-1.4-0.8,1-1.1c1.5,0.4,1,0.8,2.8,0.4c0.2,0.2-0.1,0.4-0.8,0.5
						c1.5-0.3,4.1-0.1,4.9-0.6c1.5,0.5,5.2-0.1,5,0.7c0.5-0.2,2.7-0.7,4.1-0.7c-2.6,1.1,5.3,0.1,4.6,1.2c1.9-0.9,6.9-0.4,10.3-0.9
						c-0.2,0.1-0.6,0.2-0.9,0.2C46,5.5,46.6,5.8,47.8,6c0.2-0.8,3.2-1,4.8-1.4c2.3,0.8-1.4,0.9-0.7,1.6c-0.1-0.6,4.1-0.6,3.3-1.2
						c1.8,0.5,1.5,0.2,2.5,0.9c0.3-1,1.7-0.2,3.1-0.8c2.6,0.5,0.7,0.9,3.5,0.6C65.6,6.1,63.1,6.4,63.1,6.4z M130.7,4.7
						C130.7,4.7,130.7,4.7,130.7,4.7c-0.6,0-1.1,0-1.4,0C129.6,4.8,130,4.8,130.7,4.7z M136.3,4.7c-0.7,0-1.6,0-2.5,0
						c-0.2-0.2,0-0.4,0.6-0.4C134.2,4.4,135.5,4.6,136.3,4.7z M124.3,0.8c0.9-0.1,1.2,0,1.3,0.1c-0.4,0-0.9,0-1.6,0.1
						c0,0-0.1,0-0.1,0.1C124.1,1,124.2,0.9,124.3,0.8z"/>
					<path fill="#FFFFFF" d="M122.7,1.6c-0.1,0-0.2,0-0.4,0c0.2,0,0.4,0.1,0.5,0.1c0.1-0.1,0.2-0.1,0.3-0.2
						C123,1.6,122.9,1.6,122.7,1.6z"/>
					<path fill="#FFFFFF" d="M637.2,2.4l-0.1,0c0.1,0,0.2,0,0.3,0.1C637.3,2.4,637.3,2.4,637.2,2.4z"/>
					<polygon fill="#FFFFFF" points="214.7,5.8 214.7,5.7 214.2,5.8 					"/>
					<path fill="#FFFFFF" d="M668.5,4.3c0.1,0,0.2,0.1,0.4,0.1C668.9,4.4,668.7,4.4,668.5,4.3z"/>
					<path fill="#FFFFFF" d="M682,4.5l1.9,0.2C683.1,4.5,682.5,4.5,682,4.5z"/>
					<path fill="#FFFFFF" d="M692.4,4.7c0.1-0.1,0.2-0.2,0.2-0.2c0,0,0,0,0,0L692.4,4.7z"/>
					<path fill="#FFFFFF" d="M527.3,5.4c-0.1,0-0.3,0-0.4,0C526,5.5,526.6,5.5,527.3,5.4z"/>
					<path fill="#FFFFFF" d="M576.4,4.1c-0.5,0.1-1,0.2-1.6,0.3C575.7,4.4,576.4,4.4,576.4,4.1z"/>
					<path fill="#FFFFFF" d="M472.4,6.1C472.4,6.1,472.4,6.1,472.4,6.1c-0.1,0-0.2,0-0.3,0L472.4,6.1z"/>
					<path fill="#FFFFFF" d="M572.6,4.3c0.9,0.1,1.6,0.1,2.3,0C574.1,4.3,573.3,4.3,572.6,4.3z"/>
					<path fill="#FFFFFF" d="M737.4,5l0.5,0c0,0,0-0.1,0.1-0.1L737.4,5z"/>
					<path fill="#FFFFFF" d="M737.9,4.9l0.6-0.1C738.2,4.9,738,4.9,737.9,4.9z"/>
					<path fill="#FFFFFF" d="M739.7,4.7l-1.2,0.1C738.9,4.9,739.4,4.9,739.7,4.7z"/>
					<path fill="#FFFFFF" d="M723.6,4.7l-0.2,0.2C723.6,4.9,723.6,4.8,723.6,4.7z"/>
					<path fill="#FFFFFF" d="M719.5,4.8c1,0,2.5,0.4,3.9,0.3l0.1-0.2C722.8,5.2,720.4,4.4,719.5,4.8z"/>
					<path fill="#FFFFFF" d="M702,2.3l3.5,0.2c-0.6-0.2-1.4-0.5,0.2-0.6C701.3,1.2,706.6,2.4,702,2.3z"/>
					<path fill="#FFFFFF" d="M691.2,2c1.9-0.1,0-0.3,0.1-0.4C690.1,1.7,689.8,1.8,691.2,2z"/>
					<path fill="#FFFFFF" d="M612.7,2l0.2-0.5C611.5,1.5,612.9,1.6,612.7,2z"/>
					<polygon fill="#FFFFFF" points="597.8,4.6 599.2,4.9 599.8,4.4 					"/>
					<polygon fill="#FFFFFF" points="588.9,1 589.5,0.9 587.1,1.1 					"/>
					<path fill="#FFFFFF" d="M457.2,1.1l0.4,0.6C458.6,1.6,458.8,0.9,457.2,1.1z"/>
					<path fill="#FFFFFF" d="M400.3,1.8c-0.6-0.3-2.2-0.5-3.2-0.2C398.4,1.6,399.7,1.9,400.3,1.8z"/>
					<polygon fill="#FFFFFF" points="229.8,0.7 230.9,0.5 228.8,0.7 					"/>
				</g>
			</g>
		</g>
	</g>
</g>
</svg>
