<?xml version="1.0" encoding="utf-8"?>
<!-- Generator: Adobe Illustrator 18.0.0, SVG Export Plug-In . SVG Version: 6.00 Build 0)  -->
<!DOCTYPE svg PUBLIC "-//W3C//DTD SVG 1.1//EN" "http://www.w3.org/Graphics/SVG/1.1/DTD/svg11.dtd">
<svg version="1.1" id="Layer_1" xmlns="http://www.w3.org/2000/svg" xmlns:xlink="http://www.w3.org/1999/xlink" x="0px" y="0px"
	 viewBox="0 0 369.8 3.2" enable-background="new 0 0 369.8 3.2" xml:space="preserve">
<g>
	<g>
		<g>
			<g>
				<g>
					<path fill="#FFFFFF" d="M369.7,2.3c0.2-0.1,0.1-0.3-0.5-0.2l-0.4,0.3L369.7,2.3z"/>
					<path fill="#FFFFFF" d="M366.1,1.7c-0.6,0.2-1.4,0.4-0.9,0.7c0.6-0.3,0.8-0.2,1.4-0.6c0.5,0,0.9,0.1,0.8,0.2
						c0.2-0.1,0.8,0.1,1.1-0.1c-0.7-0.3-1.6-0.3-2.5-0.1C365.9,1.8,366.1,1.7,366.1,1.7z"/>
					<path fill="#FFFFFF" d="M313.7,1.2l0.3,0C314,1.2,313.8,1.2,313.7,1.2z"/>
					<path fill="#FFFFFF" d="M281.2,1c0.2,0,0.4,0,0.4-0.1C281.4,0.9,281.2,0.9,281.2,1z"/>
					<path fill="#FFFFFF" d="M275.7,0.6c0.1,0,0.2,0,0.3,0C275.9,0.6,275.8,0.6,275.7,0.6z"/>
					<path fill="#FFFFFF" d="M313.7,1.2L312.8,1C312.8,1.2,313.3,1.1,313.7,1.2z"/>
					<path fill="#FFFFFF" d="M358.9,2.5c0.2,0,0.3,0,0.5-0.1C359.2,2.4,359.1,2.4,358.9,2.5C358.9,2.4,358.9,2.4,358.9,2.5z"/>
					<path fill="#FFFFFF" d="M328,0.9l0.3,0c0.1,0,0.2-0.1,0.2-0.1L328,0.9z"/>
					<path fill="#FFFFFF" d="M339,0.8c-0.2,0-0.3,0.3-0.4,0.4c0.1-0.1,0.3-0.2,0.5-0.2C339.1,1,339.1,0.9,339,0.8z"/>
					<path fill="#FFFFFF" d="M356.4,1.3l0.3,0C356.7,1.3,356.5,1.3,356.4,1.3z"/>
					<path fill="#FFFFFF" d="M320.2,0.8c0,0-0.1-0.1-0.1-0.1C320.1,0.8,320.1,0.8,320.2,0.8z"/>
					<path fill="#FFFFFF" d="M12.8,2.9C12.8,2.9,12.8,2.9,12.8,2.9C12.7,2.9,12.7,2.9,12.8,2.9z"/>
					<path fill="#FFFFFF" d="M0.1,1.5l0.2,0c0-0.1,0-0.1,0-0.2L0.1,1.5z"/>
					<path fill="#FFFFFF" d="M265.5,0.2C265.6,0.3,265.6,0.3,265.5,0.2C265.8,0.2,265.7,0.2,265.5,0.2z"/>
					<path fill="#FFFFFF" d="M172.4,0.5c1.1,0.3-1.7,0.3-0.1,0.6C172.1,0.9,173.7,0.6,172.4,0.5z"/>
					<path fill="#FFFFFF" d="M358.6,2.4c-0.1,0-0.3,0-0.5,0C358.4,2.4,358.5,2.4,358.6,2.4z"/>
					<path fill="#FFFFFF" d="M172.2,1.1C172.2,1.1,172.2,1.1,172.2,1.1l0.2,0C172.3,1.1,172.3,1.1,172.2,1.1z"/>
					<path fill="#FFFFFF" d="M242.1,0.4c0,0,0.1,0.1,0.2,0.1C242.4,0.5,242.3,0.5,242.1,0.4z"/>
					<path fill="#FFFFFF" d="M259.6,0.8l-0.4,0C259.3,0.8,259.4,0.8,259.6,0.8z"/>
					<path fill="#FFFFFF" d="M233.1,0.8c-0.2,0-0.3-0.1-0.6,0c0,0,0.1,0,0.1,0C232.7,0.8,232.8,0.8,233.1,0.8z"/>
					<path fill="#FFFFFF" d="M223.7,0.8c0,0,0.1,0,0.2,0.1c0.1,0,0.2,0,0.3,0L223.7,0.8z"/>
					<path fill="#FFFFFF" d="M41.4,2.8c-0.2-0.1-0.3-0.2-0.4-0.3C41.1,2.7,39.7,2.8,41.4,2.8z"/>
					<path fill="#FFFFFF" d="M358.9,2.3c-0.1,0.1-0.1,0.1-0.3,0.1c0.1,0,0.2,0,0.3,0C359,2.4,359,2.3,358.9,2.3z"/>
					<path fill="#FFFFFF" d="M232.7,3l-1.5,0C231.6,3,232.2,3,232.7,3z"/>
					<path fill="#FFFFFF" d="M109,2.8l-0.3,0C108.7,2.8,108.9,2.8,109,2.8z"/>
					<path fill="#FFFFFF" d="M226.8,3c-0.3-0.1-0.6-0.2-0.8-0.2c-0.1,0-0.1,0-0.2,0.1L226.8,3z"/>
					<path fill="#FFFFFF" d="M41,2.5C41,2.5,41,2.5,41,2.5C41,2.5,41,2.5,41,2.5z"/>
					<path fill="#FFFFFF" d="M31.1,3.2c1.4,0,0.7-0.4,1-0.6c1.7-0.1,0.8,0.3,1.4,0.5c1.1-0.1,1.9-0.4,2.7-0.4c0.1,0.1,0.2,0.1,0,0.2
						c1.1-0.3,3.3,0,4.6-0.4c0.1,0,0.1,0.1,0.2,0.1c-0.2-0.2-0.2-0.4-0.2-0.5c0.6,0,1.2-0.2,1.4,0c-0.4,0-0.4,0.1-0.6,0.2l0.7-0.1
						c0.6,0.3-0.9,0.1-0.9,0.4c1.3-0.1,2.8-0.4,3.8-0.3c0.2,0.3-2.3,0.1-1,0.4l-1.5-0.1c1.2,0.5-0.9,0,0.1,0.5
						c2,0.1,2.3-0.2,4.3-0.1c0.5-0.2-0.2-0.3,0.3-0.5c2.9-0.3,2.3,0.9,4.4,0.4c0.5-0.2,0.8-0.7,2.3-0.4l-0.5,0.4
						c2,0,1.1-0.6,3.2-0.3c-0.4,0.2-1.6,0.1-1.3,0.2c1.3,0.3,0.9-0.2,2-0.2l0.2,0.3c2.1-0.1,4.4-0.3,6.7-0.4c-0.1,0.1-0.5,0.2,0,0.3
						c2.9-0.2,6.3,0,9.1,0.2l1.1-0.3c0.3,0,0.5,0.1,0.2,0.2c1.1,0.1,0.1-0.2,0.6-0.3c0.6,0,0.8,0.2,0.4,0.3c1.9-0.2,5.5-0.5,7.6-0.2
						L83,2.7c1.6,0.1,1.8-0.6,3.3-0.3L86,2.5c3.5,0.1,7.3-0.1,9.9,0.3c0.5-0.4,3.4,0.2,3.7-0.4c2,0.3,1.4,0.4,4.2,0.6
						c0.7,0,1.1-0.4,2-0.4l0,0.3l1.2-0.3l0.7,0.4l0.9-0.1c-0.3,0-0.7-0.1-0.7-0.2c1.3-0.1,3.3,0.2,3.3,0.4l3.2-0.3
						c-0.1,0.1-0.6,0.2-1,0.2c1.7-0.3,0.3,0.3,1.9,0c-0.2-0.1,0.1-0.2,0.1-0.2c0.8,0.2,2.5,0.2,3.9,0.1L119,3c2.4,0.1,5-0.1,7.6-0.1
						c-1-0.1-0.7-0.5,0-0.5l0.3,0.3c0.5-0.2-0.8-0.1,0.2-0.4c1,0,0.7,0.4,0.1,0.5l1.2-0.1c0.1,0.1-0.2,0.1-0.3,0.3
						c0.5-0.2,2.1,0.3,2.8,0l0.1,0.1c2.7,0,3.9-0.1,6-0.1c0-0.3,0.9-0.2,1.5-0.4c1.6,0.1,3.4,0.3,5.3,0.3c1.3-0.1,0.4-0.2,1-0.4
						c0.1,0.3,2,0.2,1,0.4c2.3,0,2.9-0.1,5.8-0.3c-0.3-0.1-0.7-0.2-0.5-0.2c0.5,0,1.2,0.1,1.1,0.2l-0.1,0c3.3-0.4,7.5,0.7,10.1,0.2
						l-0.1,0l2.7-0.3c1.2,0-0.7,0.2,0.2,0.4c2.9-0.4,4.6,0.1,7-0.2c1.9,0.8,6.6-0.1,9.1,0.4l-0.1-0.2c0.6-0.2,0.8,0.1,1.3,0.1
						c-0.1-0.1-0.7-0.2-0.3-0.3c5.5-0.2,11.3,0.3,16.9,0.4c2.1,0,1.2-0.9,3.8-0.5l-0.7,0.3c4.1-0.4,8.5,0,12.5-0.3
						c-0.2,0.1-0.2,0.2-0.6,0.2c0.9,0.2,3.2,0,3.2-0.2c0.6,0,0.1,0.2,0.5,0.3c0.9,0.1,2.2-0.3,2.6-0.1c0.1,0-0.2,0.1-0.4,0.1
						c0.6-0.1,2.6,0,2.1-0.2c1.5,0.1,2.9-0.1,4.1,0c0.8-0.3,2.6,0.1,2.9-0.3c-0.1,0.5,2.7,0.4,3.6,0.2c-0.3,0.1,0.8,0.1,0.5,0.3
						c1.1,0,2.1-0.1,1.9-0.3c2,0.5,4.1-0.4,5.2,0.3c3.3-0.2,6.3-0.4,9.2-0.5c-0.1,0.5-3.2,0-3.1,0.5c2.8-0.2,4.4-0.6,7.1-0.5
						c0.7,0.1-0.4,0.2-0.6,0.3c2.8-0.2,5.4,0,7.8-0.2c0,0-0.3,0.1-0.5,0.1c0.5,0,1.1,0.1,1.1-0.1l-0.5,0.1c-0.8-0.3,1.9-0.6,2-0.8
						c-0.8,0.6,2.4,0.1,1.1,0.9c0.3,0,0.7-0.1,0.6-0.3c0.5,0,0.6,0.1,0.1,0.3c1.7-0.1,1.1-0.3,2.7-0.3c0,0.1-0.3,0.1-0.5,0.3
						c0.8-0.2,1.6-0.4,2.9-0.3c-0.1,0.1,0.1,0.1-0.3,0.1c2.3,0,3.9-0.5,6.4-0.3c-0.7,0.4,0.9,0.1,1,0.5l1.4-0.1l-0.5-0.2
						c1.2,0,2.2-0.3,3.3-0.1l-0.9,0.2l2.2-0.1l-1.3-0.1c1.2-0.2-0.1-0.5,1.5-0.4c-0.3,0,1.2,0,1.8,0.2c0,0,0,0,0,0
						c0.6-0.1,1.2-0.2,2.1-0.2c0.2,0.1-0.2,0.4,0,0.5c0.6-0.3,2.8-0.1,3.5-0.4c-0.2,0.1-0.3,0.3-0.2,0.3L290,2
						c0.5,0.1,0.6,0.1,0.5,0.3c1.7,0-0.5-0.5,1.4-0.3c-0.2,0-0.1,0.1-0.4,0.1c2,0.1,3.8-0.2,5.6,0c0.5,0.4-1.6,0.1-1,0.4
						c2.6-0.1,5.4-0.5,7.9-0.4l-0.5,0c0.4-0.5,1.9,0.3,3.2,0c-0.3,0-0.4,0.3-0.3,0.2c1.7,0.1,3.5-0.1,6.2-0.3l-0.3,0.1
						c1,0.1,2.7,0.1,3.8,0.1c0.3-0.1,1-0.1,0.6-0.3c3.4,0.8,6.5-0.4,9.5,0.2c-0.4,0-0.9,0.1-0.6,0.1l2.6-0.1
						c-0.2-0.2-0.3-0.1-0.9-0.3c0.3-0.1,1-0.2,1.7-0.2c-1.2,0.2,0,0.4,0.5,0.5c-0.1-0.1,0.1-0.1,0-0.2c1.3,0.4,0.2-0.5,2.1-0.2
						l-0.1,0.1c0.7-0.1,1.3-0.2,2.1-0.2c0.3,0.3-0.7,0.1-0.8,0.3c1,0,2-0.5,3-0.2c-0.4,0.1-1.1,0.1-1.5,0.1c1,0.3,1.1,0.2,1.9,0.3
						l-0.1,0l1.8,0.1l-0.4-0.1c1.3-0.7,2.6-0.1,4.4-0.6c-1.7,0.4-0.3,0.2-0.4,0.6c0.4,0.1,1.1,0.2,0.9,0.3c0.8-0.2,1.4,0.2,2.5-0.2
						c0.1,0.1,0.9,0,0.7,0.3c1.1-0.1-0.3-0.2-0.2-0.3c1.7-0.3,3.9,0.4,6.3-0.1c2.1-0.2,2.4-0.5,4.3-0.7c0.6,0.2-0.5,0.4-0.5,0.4
						c1,0.1,1.8,0.1,2.8,0c-0.2,0.1,0,0.2,0.3,0.3c0.8,0,0.5-0.4,1.6-0.2c-0.2,0.1-0.4,0.3-0.8,0.4c0.9-0.1,1.8-0.3,2.8-0.4
						c0.3,0.2-0.6,0.3-0.9,0.4c1.1-0.1,2.8-0.2,3.1-0.4l-0.7-0.1c0.4,0,0.2,0.2-0.1,0.3c-0.9,0.2-1.3-0.1-1.4-0.2l0.7-0.1
						c-0.7-0.6-2.7,0.1-4.1,0.1l0.6-0.4L358,1.9c-0.3-0.1-0.5-0.3,0.2-0.4c-1-0.2-0.9,0.1-1.7-0.1c-0.1,0-0.1-0.1,0-0.1l-1,0.1
						c0.2-0.1-0.2-0.3,0.4-0.2c-1.7-0.2-2.8,0.3-3.4,0l0.1,0c-2.4,0.1-0.2,0.3-2,0.7l-1.2-0.8l-0.2,0.3c-0.2,0-0.7,0-0.6-0.2
						c-0.9,0.2,0.2,0.1-0.4,0.3c-1.2-0.3-3.3,0.1-3.5-0.4c-0.4,0.2,1.1,0.2-0.1,0.3c-0.4-0.5-1.5,0.1-2.6-0.2
						c0.3-0.3,1.4-0.1,0.3-0.4c-0.7,0.5-2.1-0.1-3,0c0,0.4-2,0.2-3.5,0.3c0.1-0.1-2.9-0.2-4.3-0.3l0-0.1c-0.3,0.4-1.8,0.3-2.8,0.4
						c0-0.2,0.2-0.3,0.8-0.4l-1,0c-0.2,0.1-0.6,0.2-1.2,0.2l0.3-0.3c-1.3,0-2.7,0.3-4.4,0.1c-0.1,0.3,1.4,0.7-0.5,0.9
						c-0.1-0.1-0.1-0.4,0.3-0.4c-0.2,0-0.6,0.1-0.9,0.1l0.7-0.2c-0.8-0.1-0.4,0.2-1,0.2c0-0.2-0.5-0.1-0.4-0.3c0.2,0,0.5,0.1,0.8,0
						c-0.7,0-1.6-0.2-1.9-0.3c0.1,0.1,0,0.3-0.5,0.3c-1.3,0-0.5-0.2-1.2-0.3c-0.3,0.1-1.2,0-1.2,0.3c-0.4,0-0.5-0.1-0.6-0.2
						c-0.7,0.1-3.3,0-2.5,0.4l0.2,0c0,0-0.1,0-0.1,0c0,0,0,0,0,0h0c-2.3,0.3-4.7-0.2-7,0l0-0.1c-1.4,0.1-3,0.1-4,0.3
						c-0.4,0-0.9-0.2-0.8-0.3c-1,0.1-1.1,0.2-2.6,0c1-0.2-0.4-0.2,1.1-0.1c-1.3-0.1-1.6-0.2-3.1,0c0.5-0.3-1-0.3-1.6-0.2l0.9,0.2
						c-0.7,0-1.3,0-2,0l0.3-0.3c-2.7-0.4-5,0.7-7,0c-0.7,0.2,1.5,0.2,0.8,0.4c-1.3,0-2.6-0.5-3-0.5c-1.7-0.2-1.6,0.5-3.4,0.4
						c0.2,0.1,0.5,0.4-0.9,0.5c-1.3,0-1.6-0.5-0.8-0.6c0.3,0,0.4,0,0.4,0.1c0.4,0,0.9-0.1,0.4-0.2l-0.2,0.1c-0.6-0.1-2.4-0.1-2-0.3
						c-1,0.1-0.4,0.2,0.3,0.3c-1.6-0.2-2.5,0-4.2-0.1c0.3,0.1,0.5,0.2,0.2,0.2c-2.4-0.1-1.1,0.2-2.7,0.3c-0.9-0.2,0.3-0.4-1.3-0.3
						c-1-0.1-0.2-0.3,0.2-0.4c-1.5,0.2-2.8-0.2-3.7-0.2l0.8-0.1c-0.5,0.1-0.9,0.1-1.3,0.1l0.5,0.2c-0.5,0-0.9,0-0.9-0.1
						c-0.5,0.2,0.4,0.4-0.6,0.6c-0.6-0.1-1.9,0.1-2.1-0.2c2,0.1-0.2-0.3,1.5-0.4c-0.3,0-0.7,0-1.2,0c-0.1,0,0.1-0.1,0.2-0.1
						c-1.9-0.3-0.9,0.4-2.8,0.3c0.2-0.2-0.5-0.3-0.8-0.3c0.8,0,0.4,0.3-0.3,0.4c-1.3-0.1-1.4,0.1-2,0.1l0.7,0.1
						c-0.3,0.2-0.9,0.2-1.8,0.2C258.5,1,259.4,1,259,0.9c-1,0.3-2.2-0.3-3.5-0.1c-0.6-0.1-0.1-0.3-0.6-0.4c-1.5,0.2-1.6-0.2-3.2-0.1
						c0.5,0.2,0.5,0.2-0.6,0.4l2.6-0.2L252,0.9c0.8,0,1.7-0.1,2.1-0.1c-0.8,0.2-0.7,0.1-0.3,0.3c-1.1-0.4-2.1,0.2-3.4,0l0-0.6
						c-1.9-0.3-3.3,0.3-5.8,0.2l0.8,0.1c-0.3,0.2-1.5,0-2.3,0.1c0.1-0.2-0.4-0.3-0.8-0.4c0,0.1-1.8,0-2,0.4l-1.1-0.3
						c-2-0.1-2.3,0.6-4.1,0.5c0.6-0.2-0.3-0.4,1-0.5c-0.6,0-1.2,0-1.2,0.1c-0.4-0.1-1.8,0.3-2.3,0.1c-0.3,0.1-0.4,0.3-1.1,0.3
						c-0.1,0,0-0.1,0-0.1c0,0.1-1.1,0.1-0.5,0.4c-2-0.6-5.5,0-7.2-0.5c-1.4,0.1-3,0.1-4.3,0.1c0.1-0.1,0-0.1,0.2-0.1
						c-1.7-0.2-1.1,0.6-3,0.4c-1-0.3,1-0.2,0.4-0.3c-0.3-0.6-2.4,0.1-3.7-0.3l0.3,0c-1-0.2-2.5,0.2-4.1,0.2c0,0,0.1-0.1,0-0.1
						c-1.1,0.3-3.3,0.4-4.9,0.5c0.5-0.3,0.7-0.1,0.4-0.4c-0.7,0,0.2,0.4-1.2,0.5c-0.5-0.1-1.5-0.3-1.6-0.5l1.3,0
						c-0.7-0.4-1.7,0-2.4,0l0.1-0.2c-2.1,0.1-2.1,0.4-4.3,0.4l0.2,0.1c-1.2,0.4-1-0.2-2.2,0.1l-0.4-0.4c-0.8,0.1-2.8,0.4-4.2,0.5
						c0.8-0.3,2.5-0.4,3.5-0.6c-0.8,0-2.7,0-3.1,0.2c0.3,0,0.7-0.1,1-0.1c-1,0.3-2.2,0.5-3.8,0.5c0.3-0.8-4.1-0.2-5.3-0.8
						c-2.8,0.3-5.5-0.1-8.8-0.1c1.2,0.6-0.9,0-0.7,0.6c-0.8,0-1,0-1.1,0l-2.3-0.4c-0.5-0.2,0.7-0.1,0.7-0.3c-1.7,0-0.7-0.3-1.8-0.4
						c0.2,0.2-0.6,0.3-1.5,0.2l1.3,0.3c-2.3,0.3-2-0.5-4.3-0.2l0.7-0.2c-1.2,0.1-4.4,0-5.6,0.5c-0.2-0.1-0.5-0.2,0-0.3
						c-2.9-0.1-6.4,0.5-8.6,0.2l0.2-0.1c-0.5,0-0.9,0.3-1.6,0.1c0-0.1,0.2-0.1,0-0.2c-0.3,0.1-1.4,0.3-2.1,0.2l0.6-0.2
						c-2.8-0.2-4.3,0.4-6.6,0.5c0-0.4-2.2-0.6-3.3-0.7l0-0.1c-3.3-0.1-5.5,0.4-8.5,0.5c-1.9-0.5-6.3-0.2-9.3-0.5
						c0.5,0.1-0.1,0.3-0.6,0.4c-0.7-0.1-1.9,0.3-1.8-0.1l0.3,0c-0.5-0.4-2-0.3-3.1-0.3l-0.2,0.5c-3-0.8-7.8,0.3-9.4-0.4
						c-0.7,0.1-1.6,0.1-2.3,0.3l0-0.3c-2-0.1-3-0.1-5.4,0l0.5-0.2c-1.4,0-1.7,0.8-3,0.8l-0.4-0.4c-2.4,0-4.8-0.4-7.2,0
						c0-0.1,0.1-0.2,0.5-0.2c-1.1,0-4.4-0.3-4,0.3c0-0.4-2.5,0-3.8,0.1l0.2-0.3c-1.1,0.4-1.1,0.5-2.7,0.6c-0.4,0-0.3-0.2,0.2-0.2
						C76.8,0.7,77,1.1,75.6,1l0.5-0.2c-1.2,0-1.1,0.1-1.8,0.3c-0.8,0.1-2.4-0.1-2.5-0.3c-0.2,0.2-0.8,0.4-1.6,0.3
						C70,1,70.3,0.9,70.4,0.9c-2.1-0.2-3.1,0.3-4.5,0.1c0-0.1-0.1-0.1-0.2-0.2c1.7,0,3,0,2.9,0c0-0.3-1.3-0.3-0.3-0.7
						c-1.1,0.2-2.9,0.6-4.2,0.5c-0.1,0-0.1,0-0.2-0.1l0.1,0c-0.3,0-0.6,0-0.8,0c-0.4,0-0.7-0.1-1.1-0.1c-0.2-0.2-1.5-0.1-2.2-0.1
						c0.1,0.3-0.8,0.2,0,0.5c-0.1,0,0.1,0,0.6,0c0.1,0,0.2,0,0.3,0c0,0,0,0,0,0c0.4,0,1,0,1.7,0c-0.5,0.1-1.1,0.3-1.8,0.1
						c-0.3,0.2-0.7,0.4-0.9,0.5c-0.9-0.4-2.7-0.6-2.9-0.8c-2,0.2-4.8,0.1-6.1,0.6C50.1,1.2,50,1,49.8,0.9c0.3-0.1,0.7,0,0.9-0.1
						c-1.2,0.1-3.4,0.1-3.7,0.4c-1.5-0.2,0.8-0.3-1.2-0.3l0.3-0.1C42.1,0.2,39.7,1.7,35.3,1c0.3,0,0.5,0.1,0.5,0.1
						c-5-0.3-10.3,0.3-15.2-0.2c-1.4-0.1-1.5,0.1-2.4,0.3L18,0.9l-1.5,0.3c-2.1,0.3-3.6-0.7-6.2-0.3l0.3,0.2c-0.9,0-3,0.1-2.8-0.1
						c-0.1,0-0.3,0.2-0.7,0.1l0-0.2L4.8,1.3C3,1.2,5.1,0.7,2.5,0.6c-1,0.1-2.8,0.5-2.4,0.6c0.4,0,1,0.1,1,0.3L0.2,1.5
						C0.1,2-0.6,2.5,1.6,2.8l1.5-0.3l0.5,0.2l-1.3,0C3,3,3.5,2.8,4,2.6c0.1,0.1,0.3,0.2,0.6,0.2l1.5-0.4c0.2,0.2-0.7,0.4,0.3,0.5
						c0.7-0.2-0.7-0.4,0.5-0.5c0.7,0.2,0.5,0.4,1.4,0.2c0.1,0.1-0.1,0.2-0.4,0.2c0.8-0.1,2-0.1,2.4-0.3c0.8,0.3,2.6-0.1,2.5,0.4
						c0.2-0.1,1.3-0.3,2-0.4c-1.3,0.5,2.6,0,2.3,0.6c0.9-0.5,3.4-0.2,5.1-0.5c-0.1,0-0.3,0.1-0.4,0.1c0.9,0,1.2,0.2,1.8,0.3
						c0.1-0.4,1.6-0.5,2.4-0.7c1.2,0.4-0.7,0.5-0.3,0.8c-0.1-0.3,2-0.3,1.6-0.6C28.1,2.8,28,2.6,28.4,3c0.2-0.5,0.8-0.1,1.6-0.4
						c1.3,0.2,0.3,0.5,1.7,0.3C32.4,3,31.1,3.2,31.1,3.2z M64.4,2.4C64.4,2.4,64.4,2.4,64.4,2.4c-0.3,0-0.5,0-0.7,0
						C63.9,2.4,64.1,2.4,64.4,2.4z M67.2,2.4c-0.3,0-0.8,0-1.2,0c-0.1-0.1,0-0.2,0.3-0.2C66.1,2.2,66.8,2.3,67.2,2.4z M61.3,0.4
						c0.4,0,0.6,0,0.7,0.1c-0.2,0-0.5,0-0.8,0c0,0,0,0-0.1,0C61.2,0.5,61.2,0.5,61.3,0.4z"/>
					<path fill="#FFFFFF" d="M60.5,0.8c-0.1,0-0.1,0-0.2,0C60.4,0.8,60.5,0.8,60.5,0.8c0.1,0.1,0.2,0,0.2,0
						C60.6,0.8,60.6,0.8,60.5,0.8z"/>
					<path fill="#FFFFFF" d="M314.1,1.2L314.1,1.2C314.1,1.2,314.1,1.2,314.1,1.2C314.1,1.2,314.1,1.2,314.1,1.2z"/>
					<polygon fill="#FFFFFF" points="105.8,2.9 105.8,2.8 105.6,2.9 					"/>
					<path fill="#FFFFFF" d="M329.5,2.2c0,0,0.1,0.1,0.2,0.1C329.7,2.2,329.6,2.2,329.5,2.2z"/>
					<path fill="#FFFFFF" d="M336.2,2.2l0.9,0.1C336.7,2.3,336.4,2.2,336.2,2.2z"/>
					<path fill="#FFFFFF" d="M341.3,2.4c0.1,0,0.1-0.1,0.1-0.1c0,0,0,0,0,0L341.3,2.4z"/>
					<path fill="#FFFFFF" d="M259.9,2.7c-0.1,0-0.1,0-0.2,0C259.3,2.8,259.6,2.7,259.9,2.7z"/>
					<path fill="#FFFFFF" d="M284.1,2c-0.3,0.1-0.5,0.1-0.8,0.1C283.8,2.2,284.1,2.2,284.1,2z"/>
					<path fill="#FFFFFF" d="M232.9,3C232.9,3,232.9,3,232.9,3c-0.1,0-0.1,0-0.2,0L232.9,3z"/>
					<path fill="#FFFFFF" d="M282.2,2.2c0.4,0.1,0.8,0,1.1,0C283,2.2,282.6,2.1,282.2,2.2z"/>
					<path fill="#FFFFFF" d="M363.5,2.5l0.2,0c0,0,0,0,0,0L363.5,2.5z"/>
					<path fill="#FFFFFF" d="M363.8,2.5l0.3,0C363.9,2.4,363.8,2.4,363.8,2.5z"/>
					<path fill="#FFFFFF" d="M364.6,2.4L364,2.4C364.2,2.4,364.5,2.4,364.6,2.4z"/>
					<path fill="#FFFFFF" d="M356.7,2.4l-0.1,0.1C356.7,2.4,356.7,2.4,356.7,2.4z"/>
					<path fill="#FFFFFF" d="M354.6,2.4c0.5,0,1.2,0.2,1.9,0.2l0.1-0.1C356.3,2.6,355.1,2.2,354.6,2.4z"/>
					<path fill="#FFFFFF" d="M346,1.1l1.7,0.1c-0.3-0.1-0.7-0.3,0.1-0.3C345.7,0.6,348.3,1.2,346,1.1z"/>
					<path fill="#FFFFFF" d="M340.7,1c0.9-0.1,0-0.2,0-0.2C340.1,0.9,340,0.9,340.7,1z"/>
					<path fill="#FFFFFF" d="M302,1l0.1-0.3C301.4,0.8,302.1,0.8,302,1z"/>
					<polygon fill="#FFFFFF" points="294.7,2.3 295.3,2.5 295.7,2.2 					"/>
					<polygon fill="#FFFFFF" points="290.3,0.5 290.6,0.4 289.4,0.5 					"/>
					<path fill="#FFFFFF" d="M225.4,0.6l0.2,0.3C226.1,0.8,226.2,0.5,225.4,0.6z"/>
					<path fill="#FFFFFF" d="M197.3,0.9c-0.3-0.2-1.1-0.3-1.6-0.1C196.4,0.8,197,0.9,197.3,0.9z"/>
					<polygon fill="#FFFFFF" points="113.3,0.4 113.8,0.3 112.8,0.4 					"/>
				</g>
			</g>
		</g>
	</g>
</g>
</svg>
