<?xml version="1.0" encoding="utf-8"?>
<!-- Generator: Adobe Illustrator 18.0.0, SVG Export Plug-In . SVG Version: 6.00 Build 0)  -->
<!DOCTYPE svg PUBLIC "-//W3C//DTD SVG 1.1//EN" "http://www.w3.org/Graphics/SVG/1.1/DTD/svg11.dtd">
<svg version="1.1" id="Layer_1" xmlns="http://www.w3.org/2000/svg" xmlns:xlink="http://www.w3.org/1999/xlink" x="0px" y="0px"
	 viewBox="0 0 20.7 14.6" enable-background="new 0 0 20.7 14.6" xml:space="preserve">
<g>
	<g>
		<g>
			<g>
				<g>
					<path fill="#FFFFFF" d="M1.1,14.4c0,0,0.1,0.1,0.1,0.1L1.1,14.4L1.1,14.4z"/>
					<path fill="#FFFFFF" d="M1.5,14.5c0-0.1-0.1-0.3-0.2-0.4C1.4,14.3,1.4,14.3,1.5,14.5c-0.1,0-0.2-0.1-0.2-0.1c0,0-0.1,0,0,0.1
						c0.1,0.1,0.2,0.1,0.2-0.1C1.5,14.5,1.5,14.5,1.5,14.5z"/>
					<path fill="#FFFFFF" d="M4.7,12.7L4.7,12.7C4.7,12.7,4.7,12.7,4.7,12.7z"/>
					<path fill="#FFFFFF" d="M6.6,11.4C6.6,11.5,6.6,11.5,6.6,11.4C6.6,11.5,6.6,11.5,6.6,11.4z"/>
					<path fill="#FFFFFF" d="M7,11.4C7,11.4,7,11.4,7,11.4C7,11.4,7,11.4,7,11.4z"/>
					<path fill="#FFFFFF" d="M4.7,12.7L4.7,12.7C4.7,12.6,4.7,12.7,4.7,12.7z"/>
					<path fill="#FFFFFF" d="M1.7,13.9C1.7,13.9,1.7,13.9,1.7,13.9L1.7,13.9L1.7,13.9z"/>
					<path fill="#FFFFFF" d="M4,13.4L4,13.4C4,13.4,4,13.4,4,13.4L4,13.4z"/>
					<path fill="#FFFFFF" d="M3.4,13.8c0,0-0.1-0.1-0.1-0.2C3.3,13.7,3.3,13.7,3.4,13.8C3.3,13.8,3.3,13.8,3.4,13.8z"/>
					<path fill="#FFFFFF" d="M2.2,14.3L2.2,14.3L2.2,14.3z"/>
					<path fill="#FFFFFF" d="M4.4,13.1C4.5,13.1,4.5,13.1,4.4,13.1C4.5,13.1,4.5,13.1,4.4,13.1z"/>
					<path fill="#FFFFFF" d="M0.6,1.5L0.6,1.5C0.6,1.5,0.6,1.5,0.6,1.5z"/>
					<polygon fill="#FFFFFF" points="0.3,0.4 0.3,0.4 0.4,0.3 					"/>
					<path fill="#FFFFFF" d="M7.7,11.2L7.7,11.2C7.7,11.2,7.7,11.2,7.7,11.2z"/>
					<path fill="#FFFFFF" d="M10.8,6.2c0,0.2-0.2,0.1-0.2,0.3C10.6,6.5,10.8,6.3,10.8,6.2z"/>
					<path fill="#FFFFFF" d="M1.7,13.9C1.7,13.9,1.7,13.9,1.7,13.9C1.7,13.9,1.7,13.9,1.7,13.9z"/>
					<polygon fill="#FFFFFF" points="10.6,6.5 10.6,6.5 10.6,6.5 					"/>
					<path fill="#FFFFFF" d="M9,10.1C9,10.1,9,10.1,9,10.1C9,10.1,9,10.1,9,10.1z"/>
					<path fill="#FFFFFF" d="M7.9,10.6L7.9,10.6C7.9,10.6,7.9,10.6,7.9,10.6z"/>
					<path fill="#FFFFFF" d="M9.4,9.6C9.4,9.6,9.4,9.6,9.4,9.6L9.4,9.6C9.4,9.6,9.4,9.6,9.4,9.6z"/>
					<polygon fill="#FFFFFF" points="9.9,9.2 9.9,9.2 9.9,9.2 					"/>
					<path fill="#FFFFFF" d="M2.4,2.5c0,0,0-0.1,0.1-0.1C2.3,2.5,2.2,2.5,2.4,2.5z"/>
					<path fill="#FFFFFF" d="M1.7,13.9C1.7,13.9,1.7,13.9,1.7,13.9L1.7,13.9C1.7,13.9,1.7,13.9,1.7,13.9z"/>
					<path fill="#FFFFFF" d="M8.7,8.5L8.7,8.5C8.7,8.5,8.7,8.5,8.7,8.5z"/>
					<path fill="#FFFFFF" d="M6.3,5L6.3,5C6.3,5,6.3,5,6.3,5z"/>
					<path fill="#FFFFFF" d="M9,8.3c0,0,0.1,0.1,0.1,0.1C9.1,8.3,9.1,8.3,9,8.3L9,8.3z"/>
					<path fill="#FFFFFF" d="M2.4,2.4L2.4,2.4L2.4,2.4z"/>
					<path fill="#FFFFFF" d="M1.6,2.4c0.1,0.1,0.2-0.2,0.2-0.2c0.1,0,0,0.2-0.1,0.3c0.1,0,0.2-0.1,0.3-0.1c0,0,0,0,0,0.1
						c0.2-0.1,0.2,0.1,0.4,0c0,0,0,0,0,0.1c0-0.1,0.1-0.2,0.1-0.3c0,0,0.1-0.1,0.1,0.1c0,0-0.1,0-0.1,0.1l0.1,0
						c-0.1,0.2-0.1,0-0.2,0.2c0.1,0,0.3-0.1,0.3,0c-0.1,0.2-0.2,0-0.2,0.2L2.5,2.4c-0.1,0.3,0-0.1-0.2,0.3c0.1,0.1,0.2,0,0.3,0.1
						c0.1-0.1,0.1-0.1,0.2-0.2c0.3-0.1-0.1,0.5,0.1,0.4C3,2.9,3.2,2.6,3.2,2.8L3.1,3c0.1,0.1,0.2-0.2,0.3,0C3.3,3,3.2,3,3.2,3
						c0,0.2,0.1-0.1,0.2,0L3.3,3.1c0.1,0.1,0.4,0,0.5,0.1c0,0-0.1,0.1-0.1,0.2c0.2,0,0.4,0.3,0.5,0.5l0.2-0.1c0,0,0,0.1,0,0.1
						c0,0.1,0.1-0.1,0.1-0.1c0,0,0,0.1-0.1,0.1C4.6,3.8,4.9,3.8,4.9,4L4.8,4c0.1,0.1,0.3-0.2,0.3,0l0,0c0.2,0.2,0.5,0.2,0.5,0.5
						c0.2-0.2,0.1,0.2,0.3-0.1c0,0.2,0,0.3,0.1,0.5c0,0,0.2-0.1,0.3-0.1L6.1,4.9l0.2-0.1L6.2,5l0.1,0c0,0,0-0.1,0-0.1
						c0.1,0,0.1,0.2,0.1,0.3l0.3,0c0,0.1-0.1,0.1-0.1,0.1c0.2-0.1-0.1,0.2,0.1,0.1c0,0,0.1-0.1,0.1-0.1c0,0.1,0.1,0.2,0.2,0.2
						L6.9,5.5C7,5.6,7.2,5.7,7.3,5.8c0-0.1,0.1-0.3,0.2-0.2L7.4,5.7c0.1-0.1,0-0.1,0.1-0.2c0,0.1-0.1,0.2-0.1,0.2l0.1,0
						c0,0.1-0.1,0.1-0.1,0.1c0.1-0.1,0,0.2,0.2,0.1l0,0.1c0.2,0.1,0.3,0.1,0.4,0.2C8,6,8.1,6.1,8.2,6c0.1,0.1,0.1,0.3,0.2,0.3
						c0.1,0,0.1-0.1,0.2-0.2c-0.1,0.1,0,0.2-0.1,0.2c0.1,0.1,0.2,0.1,0.4,0.1c0-0.1,0-0.1,0-0.1c0,0,0,0.1,0,0.2l0,0
						C9.3,6.5,9.2,7.2,9.5,7l0,0l0.2,0c0.1,0.1-0.1,0.1-0.1,0.2c0.3-0.1,0.3,0.2,0.5,0.1c-0.1,0.4,0.4,0.2,0.4,0.6l0-0.1
						c0.1-0.1,0,0.1,0,0.1c0-0.1,0-0.1,0.1-0.1c0.2,0,0.3,0.2,0.5,0.4l0-1.2C10.9,6.9,10.7,7,10.5,7c-0.1,0.1,0.2,0.5,0,0.4
						l-0.1-0.2c-0.1,0.4-0.5,0.3-0.6,0.7c0,0,0-0.1,0-0.1C9.6,7.7,9.6,7.9,9.6,8c0,0-0.1-0.1-0.1-0.1c-0.1,0,0,0.2-0.1,0.1
						c0,0,0,0,0-0.1c0,0.1-0.2,0.1,0,0.2c-0.1,0-0.1,0.2-0.2,0.1c0.1,0.2-0.2,0-0.1,0.3C8.9,8.3,8.8,8.5,8.8,8.6
						c0-0.1-0.1,0-0.1-0.1c-0.1,0-0.1,0.1,0,0.2C8.3,8.6,8.6,9.1,8.3,8.8C8.2,9.1,8,9.3,7.9,9.4c-0.1-0.2,0.2-0.2,0-0.4
						C7.8,9.3,7.9,9.5,7.7,9.6c-0.1,0,0-0.1-0.1-0.2C7.5,9.6,7.3,9.6,7.2,9.8c0,0,0-0.1,0-0.1c0,0-0.1,0,0,0.1l0,0
						c0.1,0.1,0.1,0.4,0.2,0.5C7.2,10,7.2,10.3,7,9.9c0,0,0,0.1,0.1,0.2c0,0-0.1,0-0.1-0.1c-0.1,0.1,0,0.2,0,0.3c0,0,0-0.1-0.1-0.1
						c0,0.1,0,0.3-0.1,0.3c0,0-0.1-0.1,0-0.1c-0.1,0.1,0,0.4-0.3,0.4c-0.1-0.2-0.1,0-0.2-0.2l0,0.1l0.1,0.1c-0.1,0,0,0.2-0.1,0.2
						l0-0.1l-0.1,0.1l0.1,0c0,0.1,0.2,0.2,0,0.2c0,0-0.1,0-0.2,0l0,0c0,0.1,0,0.2-0.1,0.2c-0.1,0-0.1-0.2-0.2-0.2
						c0.1,0.2-0.1,0.2-0.1,0.3c0,0-0.1-0.1-0.1-0.2l0.1,0.1c-0.1,0-0.1,0-0.1-0.1c-0.1,0,0.2,0.2,0,0.2c0,0,0,0,0-0.1
						c-0.1,0-0.2,0.2-0.3,0.2c-0.2-0.2,0.1-0.1-0.1-0.2c-0.1,0.1-0.2,0.4-0.3,0.5l0,0c0.2,0.3-0.2,0-0.2,0.1c0,0-0.1-0.2-0.1-0.1
						c-0.1,0-0.2,0.2-0.2,0.4l0-0.1c-0.1,0-0.2,0.1-0.3,0.1c0,0.1,0,0.1,0.1,0.2c-0.5-0.2-0.2,0.5-0.6,0.3c0,0,0-0.1,0-0.1l-0.1,0.2
						c0.1,0.1,0.1,0.1,0.2,0.1c0,0.1,0,0.2,0,0.2c0-0.1-0.1-0.2-0.2-0.2c0,0,0,0.1,0.1,0.1c-0.2-0.1,0.1,0.2-0.1,0.2l0-0.1
						c0,0.1,0,0.2-0.1,0.2c-0.1-0.1,0-0.1-0.1-0.2c-0.1,0,0.1,0.3-0.1,0.2c0-0.1,0-0.1,0-0.1c-0.2-0.1-0.1-0.1-0.2-0.1l0,0l-0.1,0
						l0.1,0c0.2,0.4-0.1,0.2-0.1,0.5c-0.1-0.3-0.1-0.1-0.2-0.3c-0.1,0-0.1,0-0.1-0.1c0,0.2-0.1,0-0.1,0.2c0,0-0.1,0-0.1-0.1
						c0,0.1,0.1,0.1,0.1,0.1c0,0.2-0.4,0-0.3,0.3c-0.1,0.2,0,0.3,0,0.5c-0.1,0-0.1-0.2-0.1-0.2c-0.1,0-0.1,0-0.2,0.1
						c0,0-0.1-0.1-0.1-0.1c0,0,0.1,0.2,0,0.2c0-0.1-0.1-0.2-0.1-0.2c0,0.1,0,0.2,0,0.3c-0.1-0.1-0.1-0.1-0.1-0.2
						c0,0.1-0.1,0.2,0,0.3l0.1,0c0,0-0.1-0.1-0.1-0.1c0-0.1,0.1,0,0.1,0l0,0.1c0.2,0.2,0.1-0.2,0.2-0.2L2,14.3l0-0.2
						c0.1,0,0.1,0.1,0.1,0.2c0.1,0.1,0-0.1,0.1,0c0,0,0,0,0,0l0-0.1c0,0,0.1,0.1,0.1,0.1c0.2,0,0.1-0.3,0.2-0.1l0,0
						c0.1-0.2-0.1-0.2-0.1-0.4l0.3,0.3L2.6,14c0,0,0.1,0,0.1,0c0-0.1-0.1-0.1-0.1-0.2c0.2,0.1,0.1-0.2,0.3,0c-0.1-0.1-0.1,0-0.1-0.2
						c0.2,0.2,0.1-0.1,0.2,0c0.1,0.1,0,0.1,0.1,0.2c-0.1-0.2,0.2,0,0.2-0.1c-0.1-0.2,0.1-0.2,0.1-0.3c0,0.1,0.2,0,0.4,0l0,0
						c-0.1-0.2,0-0.2,0-0.3c0.1,0.1,0.1,0.2,0.1,0.2l0.1,0c0-0.1,0-0.1,0-0.2L4,13.4c0.1-0.1,0-0.3,0.2-0.2C4.2,13,3.9,12.8,4,12.7
						c0.1,0.1,0.1,0.2,0.1,0.2c0,0,0-0.1,0-0.1l0,0.1c0.1,0,0-0.1,0-0.1c0.1,0.1,0.1,0,0.1,0.1c0,0-0.1,0,0,0c0.1,0,0.1,0,0.2,0.1
						c0-0.1-0.1-0.1-0.1-0.2C4.4,12.9,4.5,13,4.6,13c0-0.1,0.1,0,0-0.2c0,0,0.1,0,0.1,0.1c0-0.1,0.2-0.1,0-0.3l0,0c0,0,0,0,0,0l0,0
						l0,0c0-0.2,0.3-0.1,0.4-0.3l0,0c0-0.1,0.1-0.2,0.1-0.3c0,0,0.1,0,0.1,0.1c0-0.1,0-0.1,0.1-0.1c0,0.1,0.1,0.1,0,0.1
						c0.1,0,0.2,0.1,0.2-0.1c0.1,0.1,0.2,0.1,0.2,0l-0.1,0c0,0,0.1-0.1,0.1-0.1l0.1,0.2c0.3,0.1,0-0.5,0.4-0.3c0-0.1-0.1,0-0.2-0.2
						c0.1,0,0.3,0.1,0.3,0.1c0.2,0-0.1-0.3,0.1-0.3c-0.1,0-0.2-0.2-0.1-0.3c0.1,0,0.3,0.2,0.2,0.3c0,0,0,0,0,0c0,0,0,0.1,0.1,0.1
						l0-0.1c0.1,0,0.2,0,0.2,0.1c0-0.1,0-0.1-0.1-0.1c0.2,0,0.1-0.1,0.3-0.1c0,0-0.1-0.1-0.1-0.1c0.2,0,0-0.2,0.1-0.2
						c0.1,0,0.1,0.2,0.2,0.1c0.1,0,0.1,0.1,0.1,0.2c0-0.2,0.2,0,0.3-0.1l0,0.1c0,0,0-0.1,0.1-0.1l-0.1-0.1c0,0,0.1,0,0.1,0
						c0-0.1-0.2-0.2-0.2-0.3c0.1,0,0.1-0.1,0.2,0c-0.1,0,0.1,0.1,0,0.2c0,0,0,0,0.1,0c0,0,0,0,0,0c0.2,0.1-0.1-0.2,0-0.3
						C7.8,11,7.9,11,7.9,11c0,0-0.1-0.1-0.1-0.2c0.1,0,0-0.1,0.1-0.1l-0.1,0c0-0.1,0-0.1,0-0.2c0.1,0.1,0,0.1,0,0.1
						c-0.1-0.2,0.2,0.1,0.2-0.1c0.1,0,0.1,0.2,0.2,0.2c0-0.2,0.2,0.1,0.2-0.1c-0.1-0.1-0.1-0.1-0.1-0.2l-0.1,0.2l0-0.2
						c0,0,0,0.1-0.1,0.1c0-0.1,0-0.1-0.1-0.2c0.2,0.1,0.1-0.2,0.2-0.1l0.2,0.3c0.2,0.1,0.1-0.3,0.3-0.3l-0.1,0
						C8.6,10,8.8,10,8.8,9.9C8.8,10,8.9,10,9,10.1C8.9,10,9.1,10,8.9,9.8l0.2,0.1c0.1,0-0.1-0.4,0.1-0.4c0,0.1,0.1,0.2,0.1,0.3
						c0,0,0.1,0,0-0.1c0.1,0,0-0.2,0.1-0.1c0-0.1-0.1-0.2,0-0.2c0,0,0,0,0,0c0,0,0-0.1-0.1-0.2C9.6,9.4,9.6,9,9.9,9.2
						C9.9,9.1,10,9,10.1,8.9c0,0,0,0,0,0c0.2,0-0.1-0.3,0-0.3c0.2,0.1,0,0.1,0.1,0.2c0.2,0.3,0.1-0.1,0.3,0l0,0
						c0.1,0.1,0.1-0.2,0.2-0.3c0,0,0,0,0,0c0-0.2,0-0.3,0.1-0.5c0.1,0.1,0,0.1,0.1,0.2c0,0-0.2-0.2-0.1-0.3c0.1,0,0.2,0.1,0.3,0.2
						L11,8.4c0.2,0.1,0.1-0.1,0.2-0.1l0,0.1c0.1-0.1,0-0.3,0.1-0.4l-0.1,0c-0.1-0.2,0.1,0.1,0.1-0.1L11.5,8c0-0.1,0-0.3,0.1-0.4
						l0.1-0.3l-0.2,0l0,0l0,0l0,0.3c0,0.2,0,0.3,0,0.4c0,0,0.1-0.1,0.1-0.2c0,0,0,0.1,0,0.1c0-0.1,0-0.1,0-0.2l0-0.5l0,0
						c-0.1,0-0.1,0-0.2,0c0.3-0.4-0.2-0.2-0.1-0.6c-0.3,0-0.3-0.3-0.5-0.4c-0.1,0.3-0.1,0-0.2,0.3c-0.1,0-0.1,0-0.1,0l0-0.3
						c0-0.1,0.1,0,0.1-0.1c-0.1-0.1,0-0.2,0-0.3C10.7,6,10.6,6,10.6,5.9l0,0.2c-0.2,0.1,0-0.3-0.2-0.3l0.1-0.1c-0.1,0-0.3-0.2-0.5,0
						c0,0,0-0.1,0.1-0.1c-0.1-0.1-0.5,0-0.6-0.2l0.1-0.1c0,0-0.1,0.1-0.1,0c0,0,0.1-0.1,0-0.1c0,0-0.2,0.1-0.2,0l0.1-0.1
						c-0.1-0.2-0.4,0-0.6,0c0.1-0.2,0.1-0.4,0-0.4l0,0c-0.2-0.1-0.4,0-0.7,0c0-0.3-0.3-0.3-0.4-0.6c0,0.1-0.1,0.2-0.2,0.2
						c0-0.1-0.2,0.1-0.1-0.1l0,0C7.7,4,7.5,4,7.5,4L7.3,4.2c0.1-0.5-0.5-0.1-0.4-0.5c-0.1,0-0.1,0-0.2,0l0.1-0.1
						C6.7,3.5,6.6,3.4,6.4,3.4l0.1-0.1C6.5,3.2,6.2,3.6,6.1,3.6l0.1-0.2C6.1,3.3,6,3,5.8,3.1c0,0,0.1-0.1,0.1-0.1
						C5.8,3,5.7,2.7,5.5,3C5.7,2.8,5.4,2.9,5.3,3l0.1-0.1C5.2,3,5.2,3,5.1,3c0,0,0.1-0.1,0.1-0.1c0-0.1-0.1,0.1-0.2,0L5,2.8
						C5,2.8,4.9,2.8,4.8,2.9c-0.1,0-0.1-0.1,0-0.3C4.7,2.7,4.6,2.8,4.6,2.7c0-0.1,0.1-0.1,0.1-0.1c-0.1-0.2-0.3,0-0.3-0.1
						c0,0,0-0.1,0-0.1c0.1,0.1,0.2,0.1,0.2,0.1c0.1-0.1,0-0.2,0.2-0.3C4.6,2.3,4.4,2.4,4.4,2.3c0,0,0,0,0-0.1l0,0c0,0,0,0-0.1,0
						c0,0,0-0.1,0-0.1C4.4,2,4.2,2,4.2,2C4.1,2.1,4.1,2.1,4.1,2.2c0,0,0,0,0,0c0,0,0,0,0,0l0,0c0,0,0.1,0,0.1,0.1
						c-0.1,0.1-0.1,0.1-0.1,0C4,2.4,3.9,2.4,3.9,2.5C4,2.2,3.9,2.1,4,1.9C3.8,1.9,3.7,1.8,3.4,2c-0.1,0,0-0.1,0-0.1c0,0,0.1,0,0.1,0
						c-0.1,0-0.2-0.1-0.4,0.1c0-0.1,0.2-0.1,0-0.2l0.1,0c0-0.4-0.7,0.2-0.7-0.3c0,0,0,0.1,0,0.1C2.4,1.1,1.9,1.2,1.7,0.8
						c0-0.1-0.1,0-0.2,0.1l0.1-0.2L1.4,0.8c-0.2,0.1,0-0.5-0.3-0.4l0,0.1c0-0.1-0.2-0.1-0.1-0.2c0,0-0.1,0.1-0.1,0l0-0.1l-0.2,0
						C0.6,0.3,0.9,0.1,0.7,0C0.7,0,0.4,0.1,0.4,0.2c0,0,0,0.1,0,0.2l-0.1,0C0.2,0.6,0,0.8,0,1L0.2,1l0,0.1l-0.1,0
						c0,0.1,0.1,0.1,0.1,0c0,0.1,0,0.1,0,0.1L0.4,1c0,0.1-0.2,0.2-0.1,0.2C0.4,1.2,0.3,1.1,0.5,1c0,0.1-0.1,0.2,0,0.2
						c0,0.1-0.1,0.1-0.1,0.1c0.1,0,0.1,0,0.2-0.1c0,0.2,0.2,0.1,0,0.3c0,0,0.2-0.1,0.2-0.1C0.6,1.6,1,1.5,0.8,1.8
						c0.2-0.2,0.3,0,0.4,0c0,0-0.1,0-0.1,0c0,0.1,0,0.1,0,0.2c0.1-0.2,0.2-0.2,0.4-0.3C1.5,1.9,1.4,1.9,1.3,2.1
						C1.4,1.9,1.5,2,1.6,1.9c0,0.1,0,0.1-0.1,0.3c0.2-0.2,0.1,0,0.2-0.1c0,0.2-0.1,0.2,0,0.2C1.7,2.3,1.6,2.4,1.6,2.4z M3.8,3.2
						L3.8,3.2C3.8,3.2,3.8,3.2,3.8,3.2C3.8,3.2,3.8,3.2,3.8,3.2z M4,3.3C4,3.2,4,3.2,4,3.3c0-0.1,0-0.1,0-0.1C4,3.2,4,3.2,4,3.3z
						 M4.3,2.1C4.3,2.1,4.3,2.1,4.3,2.1C4.3,2.1,4.3,2.1,4.3,2.1L4.3,2.1C4.2,2.1,4.3,2.1,4.3,2.1z"/>
					<path fill="#FFFFFF" d="M4.1,2.2C4.1,2.2,4.1,2.2,4.1,2.2C4.1,2.3,4.1,2.3,4.1,2.2L4.1,2.2L4.1,2.2z"/>
					<path fill="#FFFFFF" d="M4.7,12.7L4.7,12.7C4.7,12.7,4.6,12.7,4.7,12.7L4.7,12.7z"/>
					<polygon fill="#FFFFFF" points="6.1,5 6.1,4.9 6.1,5 					"/>
					<path fill="#FFFFFF" d="M3.5,12.8C3.4,12.8,3.4,12.8,3.5,12.8C3.4,12.8,3.4,12.8,3.5,12.8z"/>
					<path fill="#FFFFFF" d="M3.1,13.1L3.1,13.1C3,13.1,3,13.1,3.1,13.1z"/>
					<path fill="#FFFFFF" d="M2.7,13.2C2.7,13.2,2.7,13.2,2.7,13.2L2.7,13.2L2.7,13.2z"/>
					<path fill="#FFFFFF" d="M7.2,9.8C7.2,9.8,7.2,9.7,7.2,9.8C7.2,9.7,7.2,9.7,7.2,9.8z"/>
					<path fill="#FFFFFF" d="M6.1,11C6.1,11,6.1,11,6.1,11C6,11,6,11,6.1,11z"/>
					<polygon fill="#FFFFFF" points="8.6,8.5 8.6,8.5 8.7,8.5 					"/>
					<path fill="#FFFFFF" d="M6.1,10.9C6.1,10.9,6.1,10.9,6.1,10.9C6.1,10.9,6.1,10.9,6.1,10.9z"/>
					<path fill="#FFFFFF" d="M1.4,14L1.4,14C1.4,14,1.4,14.1,1.4,14L1.4,14z"/>
					<path fill="#FFFFFF" d="M1.4,14.1L1.4,14.1C1.4,14.1,1.4,14.1,1.4,14.1z"/>
					<path fill="#FFFFFF" d="M1.4,14.1L1.4,14.1C1.4,14.1,1.4,14.1,1.4,14.1z"/>
					<path fill="#FFFFFF" d="M1.8,13.8L1.8,13.8C1.8,13.8,1.8,13.8,1.8,13.8z"/>
					<path fill="#FFFFFF" d="M1.9,13.7c0,0-0.1-0.1-0.2,0l0,0C1.8,13.7,2,13.8,1.9,13.7z"/>
					<path fill="#FFFFFF" d="M2.9,14l-0.1,0c0.1,0,0.1,0.1,0.1,0.1C3.1,14.2,2.7,14.1,2.9,14z"/>
					<path fill="#FFFFFF" d="M3.2,13.8c0,0.1,0.1,0.1,0.1,0.1C3.3,13.9,3.3,13.9,3.2,13.8z"/>
					<path fill="#FFFFFF" d="M5.4,12.3l0.1,0.1C5.5,12.4,5.5,12.4,5.4,12.3z"/>
					<polygon fill="#FFFFFF" points="5.4,11.4 5.3,11.3 5.4,11.4 					"/>
					<polygon fill="#FFFFFF" points="6.3,12 6.2,12.1 6.3,12 					"/>
					<path fill="#FFFFFF" d="M9.9,9.4L9.8,9.2C9.8,9.3,9.9,9.5,9.9,9.4z"/>
					<path fill="#FFFFFF" d="M11.4,8.1c0.1,0.1,0.2,0.1,0.1,0C11.5,8.1,11.4,8.1,11.4,8.1z"/>
					<polygon fill="#FFFFFF" points="7.3,4 7.4,4 7.3,4 					"/>
				</g>
			</g>
		</g>
	</g>
</g>
<g>
	<g>
		<g>
			<g>
				<g>
					<path fill="#FFFFFF" d="M10.1,14.4c0,0,0.1,0.1,0.1,0.1L10.1,14.4L10.1,14.4z"/>
					<path fill="#FFFFFF" d="M10.5,14.5c0-0.1-0.1-0.3-0.2-0.4C10.4,14.3,10.3,14.3,10.5,14.5c-0.1,0-0.2-0.1-0.2-0.1
						c0,0-0.1,0,0,0.1c0.1,0.1,0.2,0.1,0.2-0.1C10.5,14.5,10.5,14.5,10.5,14.5z"/>
					<path fill="#FFFFFF" d="M13.7,12.7L13.7,12.7C13.6,12.7,13.6,12.7,13.7,12.7z"/>
					<path fill="#FFFFFF" d="M15.6,11.4C15.6,11.5,15.6,11.5,15.6,11.4C15.6,11.5,15.6,11.5,15.6,11.4z"/>
					<path fill="#FFFFFF" d="M16,11.4C16,11.4,16,11.4,16,11.4C16,11.4,16,11.4,16,11.4z"/>
					<path fill="#FFFFFF" d="M13.7,12.7L13.7,12.7C13.7,12.6,13.7,12.7,13.7,12.7z"/>
					<path fill="#FFFFFF" d="M10.6,13.9C10.6,13.9,10.6,13.9,10.6,13.9L10.6,13.9L10.6,13.9z"/>
					<path fill="#FFFFFF" d="M12.9,13.4L12.9,13.4C12.9,13.4,12.9,13.4,12.9,13.4L12.9,13.4z"/>
					<path fill="#FFFFFF" d="M12.3,13.8c0,0-0.1-0.1-0.1-0.2C12.3,13.7,12.3,13.7,12.3,13.8C12.3,13.8,12.3,13.8,12.3,13.8z"/>
					<path fill="#FFFFFF" d="M11.2,14.3L11.2,14.3L11.2,14.3z"/>
					<path fill="#FFFFFF" d="M13.4,13.1C13.4,13.1,13.4,13.1,13.4,13.1C13.4,13.1,13.4,13.1,13.4,13.1z"/>
					<path fill="#FFFFFF" d="M9.6,1.5L9.6,1.5C9.6,1.5,9.6,1.5,9.6,1.5z"/>
					<polygon fill="#FFFFFF" points="9.3,0.4 9.3,0.4 9.3,0.3 					"/>
					<path fill="#FFFFFF" d="M16.7,11.2L16.7,11.2C16.7,11.2,16.7,11.2,16.7,11.2z"/>
					<path fill="#FFFFFF" d="M19.8,6.2c0,0.2-0.2,0.1-0.2,0.3C19.6,6.5,19.8,6.3,19.8,6.2z"/>
					<path fill="#FFFFFF" d="M10.7,13.9C10.7,13.9,10.7,13.9,10.7,13.9C10.7,13.9,10.7,13.9,10.7,13.9z"/>
					<polygon fill="#FFFFFF" points="19.6,6.5 19.6,6.5 19.6,6.5 					"/>
					<path fill="#FFFFFF" d="M18,10.1C18,10.1,17.9,10.1,18,10.1C17.9,10.1,17.9,10.1,18,10.1z"/>
					<path fill="#FFFFFF" d="M16.8,10.6L16.8,10.6C16.9,10.6,16.9,10.6,16.8,10.6z"/>
					<path fill="#FFFFFF" d="M18.3,9.6C18.4,9.6,18.4,9.6,18.3,9.6L18.3,9.6C18.4,9.6,18.4,9.6,18.3,9.6z"/>
					<polygon fill="#FFFFFF" points="18.9,9.2 18.9,9.2 18.8,9.2 					"/>
					<path fill="#FFFFFF" d="M11.3,2.5c0,0,0-0.1,0.1-0.1C11.3,2.5,11.2,2.5,11.3,2.5z"/>
					<path fill="#FFFFFF" d="M10.7,13.9C10.7,13.9,10.7,13.9,10.7,13.9L10.7,13.9C10.7,13.9,10.7,13.9,10.7,13.9z"/>
					<path fill="#FFFFFF" d="M17.6,8.5L17.6,8.5C17.7,8.5,17.6,8.5,17.6,8.5z"/>
					<path fill="#FFFFFF" d="M15.3,5L15.3,5C15.3,5,15.3,5,15.3,5z"/>
					<path fill="#FFFFFF" d="M18,8.3c0,0,0.1,0.1,0.1,0.1C18.1,8.3,18.1,8.3,18,8.3L18,8.3z"/>
					<path fill="#FFFFFF" d="M11.4,2.4L11.4,2.4L11.4,2.4z"/>
					<path fill="#FFFFFF" d="M10.6,2.4c0.1,0.1,0.2-0.2,0.2-0.2c0.1,0,0,0.2-0.1,0.3c0.1,0,0.2-0.1,0.3-0.1c0,0,0,0,0,0.1
						c0.2-0.1,0.2,0.1,0.4,0c0,0,0,0,0,0.1c0-0.1,0.1-0.2,0.1-0.3c0,0,0.1-0.1,0.1,0.1c0,0-0.1,0-0.1,0.1l0.1,0
						c-0.1,0.2-0.1,0-0.2,0.2c0.1,0,0.3-0.1,0.3,0c-0.1,0.2-0.2,0-0.2,0.2l-0.1-0.1c-0.1,0.3,0-0.1-0.2,0.3c0.1,0.1,0.2,0,0.3,0.1
						c0.1-0.1,0.1-0.1,0.2-0.2c0.3-0.1-0.1,0.5,0.1,0.4c0.1-0.1,0.3-0.3,0.3-0.1L12,3c0.1,0.1,0.2-0.2,0.3,0c-0.1,0.1-0.1,0-0.1,0
						c0,0.2,0.1-0.1,0.2,0l-0.1,0.2c0.1,0.1,0.4,0,0.5,0.1c0,0-0.1,0.1-0.1,0.2c0.2,0,0.4,0.3,0.5,0.5l0.2-0.1c0,0,0,0.1,0,0.1
						c0,0.1,0.1-0.1,0.1-0.1c0,0,0,0.1-0.1,0.1c0.2-0.1,0.5-0.1,0.5,0.2l-0.1,0c0.1,0.1,0.3-0.2,0.3,0l0,0c0.2,0.2,0.5,0.2,0.5,0.5
						c0.2-0.2,0.1,0.2,0.3-0.1c0,0.2,0,0.3,0.1,0.5c0,0,0.2-0.1,0.3-0.1l-0.1,0.2l0.2-0.1L15.2,5l0.1,0c0,0,0-0.1,0-0.1
						c0.1,0,0.1,0.2,0.1,0.3l0.3,0c0,0.1-0.1,0.1-0.1,0.1c0.2-0.1-0.1,0.2,0.1,0.1c0,0,0.1-0.1,0.1-0.1c0,0.1,0.1,0.2,0.2,0.2
						l-0.1,0.1c0.1,0.1,0.3,0.1,0.5,0.2c0-0.1,0.1-0.3,0.2-0.2l-0.1,0.2c0.1-0.1,0-0.1,0.1-0.2c0,0.1-0.1,0.2-0.1,0.2l0.1,0
						c0,0.1-0.1,0.1-0.1,0.1c0.1-0.1,0,0.2,0.2,0.1l0,0.1c0.2,0.1,0.3,0.1,0.4,0.2C17,6,17,6.1,17.1,6c0.1,0.1,0.1,0.3,0.2,0.3
						c0.1,0,0.1-0.1,0.2-0.2c-0.1,0.1,0,0.2-0.1,0.2c0.1,0.1,0.2,0.1,0.4,0.1c0-0.1,0-0.1,0-0.1c0,0,0,0.1,0,0.2l0,0
						c0.3-0.1,0.2,0.7,0.5,0.5l0,0l0.2,0c0.1,0.1-0.1,0.1-0.1,0.2c0.3-0.1,0.3,0.2,0.5,0.1c-0.1,0.4,0.4,0.2,0.4,0.6l0-0.1
						c0.1-0.1,0,0.1,0,0.1c0-0.1,0-0.1,0.1-0.1c0.2,0,0.3,0.2,0.5,0.4l0-1.2C19.9,6.9,19.6,7,19.5,7c-0.1,0.1,0.2,0.5,0,0.4
						l-0.1-0.2c-0.1,0.4-0.5,0.3-0.6,0.7c0,0,0-0.1,0-0.1c-0.1-0.1-0.2,0.1-0.1,0.2c0,0-0.1-0.1-0.1-0.1c-0.1,0,0,0.2-0.1,0.1
						c0,0,0,0,0-0.1c0,0.1-0.2,0.1,0,0.2c-0.1,0-0.1,0.2-0.2,0.1c0.1,0.2-0.2,0-0.1,0.3c-0.1-0.2-0.3-0.1-0.3,0.1
						c0-0.1-0.1,0-0.1-0.1c-0.1,0-0.1,0.1,0,0.2c-0.3-0.2-0.1,0.4-0.4,0.1c-0.1,0.2-0.2,0.4-0.3,0.6c-0.1-0.2,0.2-0.2,0-0.4
						c-0.1,0.2-0.1,0.5-0.2,0.5c-0.1,0,0-0.1-0.1-0.2c-0.1,0.2-0.3,0.2-0.4,0.4c0,0,0-0.1,0-0.1c0,0-0.1,0,0,0.1l0,0
						c0.1,0.1,0.1,0.4,0.2,0.5c-0.2-0.3-0.2,0-0.4-0.4c0,0,0,0.1,0.1,0.2c0,0-0.1,0-0.1-0.1c-0.1,0.1,0,0.2,0,0.3c0,0,0-0.1-0.1-0.1
						c0,0.1,0,0.3-0.1,0.3c0,0-0.1-0.1,0-0.1c-0.1,0.1,0,0.4-0.3,0.4c-0.1-0.2-0.1,0-0.2-0.2l0,0.1l0.1,0.1c-0.1,0,0,0.2-0.1,0.2
						l0-0.1L15,10.8l0.1,0c0,0.1,0.2,0.2,0,0.2c0,0-0.1,0-0.2,0l0,0c0,0.1,0,0.2-0.1,0.2c-0.1,0-0.1-0.2-0.2-0.2
						c0.1,0.2-0.1,0.2-0.1,0.3c0,0-0.1-0.1-0.1-0.2l0.1,0.1c-0.1,0-0.1,0-0.1-0.1c-0.1,0,0.2,0.2,0,0.2c0,0,0,0,0-0.1
						c-0.1,0-0.2,0.2-0.3,0.2c-0.2-0.2,0.1-0.1-0.1-0.2c-0.1,0.1-0.2,0.4-0.3,0.5l0,0c0.2,0.3-0.2,0-0.2,0.1c0,0-0.1-0.2-0.1-0.1
						c-0.1,0-0.2,0.2-0.2,0.4l0-0.1c-0.1,0-0.2,0.1-0.3,0.1c0,0.1,0,0.1,0.1,0.2c-0.5-0.2-0.2,0.5-0.6,0.3c0,0,0-0.1,0-0.1l-0.1,0.2
						c0.1,0.1,0.1,0.1,0.2,0.1c0,0.1,0,0.2,0,0.2c0-0.1-0.1-0.2-0.2-0.2c0,0,0,0.1,0.1,0.1c-0.2-0.1,0.1,0.2-0.1,0.2l0-0.1
						c0,0.1,0,0.2-0.1,0.2c-0.1-0.1,0-0.1-0.1-0.2c-0.1,0,0.1,0.3-0.1,0.2c0-0.1,0-0.1,0-0.1c-0.2-0.1-0.1-0.1-0.2-0.1l0,0l-0.1,0
						l0.1,0c0.2,0.4-0.1,0.2-0.1,0.5c-0.1-0.3-0.1-0.1-0.2-0.3c-0.1,0-0.1,0-0.1-0.1c0,0.2-0.1,0-0.1,0.2c0,0-0.1,0-0.1-0.1
						c0,0.1,0.1,0.1,0.1,0.1c0,0.2-0.4,0-0.3,0.3c-0.1,0.2,0,0.3,0,0.5C11,14.1,11,14,11,14c-0.1,0-0.1,0-0.2,0.1
						c0,0-0.1-0.1-0.1-0.1c0,0,0.1,0.2,0,0.2c0-0.1-0.1-0.2-0.1-0.2c0,0.1,0,0.2,0,0.3c-0.1-0.1-0.1-0.1-0.1-0.2
						c0,0.1-0.1,0.2,0,0.3l0.1,0c0,0-0.1-0.1-0.1-0.1c0-0.1,0.1,0,0.1,0l0,0.1c0.2,0.2,0.1-0.2,0.2-0.2l0.1,0.2l0-0.2
						c0.1,0,0.1,0.1,0.1,0.2c0.1,0.1,0-0.1,0.1,0c0,0,0,0,0,0l0-0.1c0,0,0.1,0.1,0.1,0.1c0.2,0,0.1-0.3,0.2-0.1l0,0
						c0.1-0.2-0.1-0.2-0.1-0.4l0.3,0.3L11.6,14c0,0,0.1,0,0.1,0c0-0.1-0.1-0.1-0.1-0.2c0.2,0.1,0.1-0.2,0.3,0
						c-0.1-0.1-0.1,0-0.1-0.2c0.2,0.2,0.1-0.1,0.2,0c0.1,0.1,0,0.1,0.1,0.2c-0.1-0.2,0.2,0,0.2-0.1c-0.1-0.2,0.1-0.2,0.1-0.3
						c0,0.1,0.2,0,0.4,0l0,0c-0.1-0.2,0-0.2,0-0.3c0.1,0.1,0.1,0.2,0.1,0.2l0.1,0c0-0.1,0-0.1,0-0.2l0.1,0.1c0.1-0.1,0-0.3,0.2-0.2
						c-0.1-0.1-0.3-0.3-0.3-0.4c0.1,0.1,0.1,0.2,0.1,0.2c0,0,0-0.1,0-0.1l0,0.1c0.1,0,0-0.1,0-0.1c0.1,0.1,0.1,0,0.1,0.1
						c0,0-0.1,0,0,0c0.1,0,0.1,0,0.2,0.1c0-0.1-0.1-0.1-0.1-0.2c0.1-0.1,0.1,0.1,0.2,0.1c0-0.1,0.1,0,0-0.2c0,0,0.1,0,0.1,0.1
						c0-0.1,0.2-0.1,0-0.3l0,0c0,0,0,0,0,0l0,0l0,0c0-0.2,0.3-0.1,0.4-0.3l0,0c0-0.1,0.1-0.2,0.1-0.3c0,0,0.1,0,0.1,0.1
						c0-0.1,0-0.1,0.1-0.1c0,0.1,0.1,0.1,0,0.1c0.1,0,0.2,0.1,0.2-0.1c0.1,0.1,0.2,0.1,0.2,0l-0.1,0c0,0,0.1-0.1,0.1-0.1l0.1,0.2
						c0.3,0.1,0-0.5,0.4-0.3c0-0.1-0.1,0-0.2-0.2c0.1,0,0.3,0.1,0.3,0.1c0.2,0-0.1-0.3,0.1-0.3c-0.1,0-0.2-0.2-0.1-0.3
						c0.1,0,0.3,0.2,0.2,0.3c0,0,0,0,0,0c0,0,0,0.1,0.1,0.1l0-0.1c0.1,0,0.2,0,0.2,0.1c0-0.1,0-0.1-0.1-0.1c0.2,0,0.1-0.1,0.3-0.1
						c0,0-0.1-0.1-0.1-0.1c0.2,0,0-0.2,0.1-0.2c0.1,0,0.1,0.2,0.2,0.1c0.1,0,0.1,0.1,0.1,0.2c0-0.2,0.2,0,0.3-0.1l0,0.1
						c0,0,0-0.1,0.1-0.1l-0.1-0.1c0,0,0.1,0,0.1,0c0-0.1-0.2-0.2-0.2-0.3c0.1,0,0.1-0.1,0.2,0c-0.1,0,0.1,0.1,0,0.2c0,0,0,0,0.1,0
						c0,0,0,0,0,0c0.2,0.1-0.1-0.2,0-0.3c0,0.1,0.1,0.1,0.1,0.1c0,0-0.1-0.1-0.1-0.2c0.1,0,0-0.1,0.1-0.1l-0.1,0c0-0.1,0-0.1,0-0.2
						c0.1,0.1,0,0.1,0,0.1c-0.1-0.2,0.2,0.1,0.2-0.1c0.1,0,0.1,0.2,0.2,0.2c0-0.2,0.2,0.1,0.2-0.1c-0.1-0.1-0.1-0.1-0.1-0.2
						l-0.1,0.2l0-0.2c0,0,0,0.1-0.1,0.1c0-0.1,0-0.1-0.1-0.2c0.2,0.1,0.1-0.2,0.2-0.1l0.2,0.3c0.2,0.1,0.1-0.3,0.3-0.3l-0.1,0
						c-0.1-0.1,0.1-0.1,0.1-0.2c0.1,0.1,0.1,0.1,0.2,0.2c-0.1-0.1,0.1-0.1,0-0.3l0.2,0.1c0.1,0-0.1-0.4,0.1-0.4
						c0,0.1,0.1,0.2,0.1,0.3c0,0,0.1,0,0-0.1c0.1,0,0-0.2,0.1-0.1c0-0.1-0.1-0.2,0-0.2c0,0,0,0,0,0c0,0,0-0.1-0.1-0.2
						c0.3,0.2,0.3-0.2,0.6-0.1C18.9,9.1,19,9,19,8.9c0,0,0,0,0,0c0.2,0-0.1-0.3,0-0.3c0.2,0.1,0,0.1,0.1,0.2c0.2,0.3,0.1-0.1,0.3,0
						l0,0c0.1,0.1,0.1-0.2,0.2-0.3c0,0,0,0,0,0c0-0.2,0-0.3,0.1-0.5c0.1,0.1,0,0.1,0.1,0.2c0,0-0.2-0.2-0.1-0.3
						c0.1,0,0.2,0.1,0.3,0.2L20,8.4c0.2,0.1,0.1-0.1,0.2-0.1l0,0.1c0.1-0.1,0-0.3,0.1-0.4l-0.1,0c-0.1-0.2,0.1,0.1,0.1-0.1L20.5,8
						c0-0.1,0-0.3,0.1-0.4l0.1-0.3l-0.2,0l0,0l0,0l0,0.3c0,0.2,0,0.3,0,0.4c0,0,0.1-0.1,0.1-0.2c0,0,0,0.1,0,0.1c0-0.1,0-0.1,0-0.2
						l0-0.5l0,0c-0.1,0-0.1,0-0.2,0c0.3-0.4-0.2-0.2-0.1-0.6c-0.3,0-0.3-0.3-0.5-0.4c-0.1,0.3-0.1,0-0.2,0.3c-0.1,0-0.1,0-0.1,0
						l0-0.3c0-0.1,0.1,0,0.1-0.1c-0.1-0.1,0-0.2,0-0.3C19.6,6,19.6,6,19.5,5.9l0,0.2c-0.2,0.1,0-0.3-0.2-0.3l0.1-0.1
						c-0.1,0-0.3-0.2-0.5,0c0,0,0-0.1,0.1-0.1c-0.1-0.1-0.5,0-0.6-0.2l0.1-0.1c0,0-0.1,0.1-0.1,0c0,0,0.1-0.1,0-0.1
						c0,0-0.2,0.1-0.2,0l0.1-0.1c-0.1-0.2-0.4,0-0.6,0c0.1-0.2,0.1-0.4,0-0.4l0,0c-0.2-0.1-0.4,0-0.7,0c0-0.3-0.3-0.3-0.4-0.6
						c0,0.1-0.1,0.2-0.2,0.2c0-0.1-0.2,0.1-0.1-0.1l0,0C16.6,4,16.5,4,16.4,4l-0.2,0.3c0.1-0.5-0.5-0.1-0.4-0.5c-0.1,0-0.1,0-0.2,0
						l0.1-0.1c-0.1-0.1-0.1-0.2-0.3-0.2l0.1-0.1c-0.1-0.1-0.4,0.3-0.4,0.3l0.1-0.2C15,3.3,15,3,14.7,3.1c0,0,0.1-0.1,0.1-0.1
						c-0.1,0-0.2-0.3-0.3,0c0.1-0.2-0.1-0.1-0.3-0.1l0.1-0.1C14.2,3,14.1,3,14,3c0,0,0.1-0.1,0.1-0.1c0-0.1-0.1,0.1-0.2,0L14,2.8
						c-0.1-0.1-0.1,0-0.2,0.1c-0.1,0-0.1-0.1,0-0.3c-0.1,0.1-0.2,0.1-0.2,0.1c0-0.1,0.1-0.1,0.1-0.1c-0.1-0.2-0.3,0-0.3-0.1
						c0,0,0-0.1,0-0.1c0.1,0.1,0.2,0.1,0.2,0.1c0.1-0.1,0-0.2,0.2-0.3c-0.1,0.1-0.4,0.2-0.4,0.1c0,0,0,0,0-0.1l0,0c0,0,0,0-0.1,0
						c0,0,0-0.1,0-0.1C13.3,2,13.2,2,13.2,2C13.1,2.1,13,2.1,13,2.2c0,0,0,0,0,0c0,0,0,0,0,0l0,0c0,0,0.1,0,0.1,0.1
						c-0.1,0.1-0.1,0.1-0.1,0c-0.1,0.1-0.2,0.2-0.2,0.2c0.1-0.2,0-0.4,0.1-0.5c-0.2,0-0.3-0.1-0.6,0.1c-0.1,0,0-0.1,0-0.1
						c0,0,0.1,0,0.1,0c-0.1,0-0.2-0.1-0.4,0.1c0-0.1,0.2-0.1,0-0.2l0.1,0c0-0.4-0.7,0.2-0.7-0.3c0,0,0,0.1,0,0.1
						c-0.2-0.4-0.7-0.2-0.8-0.7c0-0.1-0.1,0-0.2,0.1l0.1-0.2l-0.2,0.1c-0.2,0.1,0-0.5-0.3-0.4l0,0.1c0-0.1-0.2-0.1-0.1-0.2
						c0,0-0.1,0.1-0.1,0l0-0.1l-0.2,0C9.6,0.3,9.8,0.1,9.7,0C9.6,0,9.4,0.1,9.4,0.2c0,0,0,0.1,0,0.2l-0.1,0C9.1,0.6,8.9,0.8,9,1
						L9.1,1l0,0.1L9,1.1c0,0.1,0.1,0.1,0.1,0c0,0.1,0,0.1,0,0.1L9.3,1c0,0.1-0.2,0.2-0.1,0.2C9.3,1.2,9.3,1.1,9.4,1
						c0,0.1-0.1,0.2,0,0.2c0,0.1-0.1,0.1-0.1,0.1c0.1,0,0.1,0,0.2-0.1c0,0.2,0.2,0.1,0,0.3c0,0,0.2-0.1,0.2-0.1
						C9.6,1.6,10,1.5,9.8,1.8c0.2-0.2,0.3,0,0.4,0c0,0-0.1,0-0.1,0c0,0.1,0,0.1,0,0.2c0.1-0.2,0.2-0.2,0.4-0.3
						c-0.1,0.2-0.2,0.2-0.3,0.4c0.1-0.2,0.2-0.1,0.3-0.2c0,0.1,0,0.1-0.1,0.3c0.2-0.2,0.1,0,0.2-0.1c0,0.2-0.1,0.2,0,0.2
						C10.7,2.3,10.6,2.4,10.6,2.4z M12.8,3.2L12.8,3.2C12.8,3.2,12.8,3.2,12.8,3.2C12.8,3.2,12.8,3.2,12.8,3.2z M13,3.3
						C13,3.2,12.9,3.2,13,3.3c0-0.1,0-0.1,0-0.1C13,3.2,13,3.2,13,3.3z M13.2,2.1C13.3,2.1,13.3,2.1,13.2,2.1
						C13.2,2.1,13.2,2.1,13.2,2.1L13.2,2.1C13.2,2.1,13.2,2.1,13.2,2.1z"/>
					<path fill="#FFFFFF" d="M13.1,2.2C13.1,2.2,13.1,2.2,13.1,2.2C13.1,2.3,13.1,2.3,13.1,2.2L13.1,2.2L13.1,2.2z"/>
					<path fill="#FFFFFF" d="M13.6,12.7L13.6,12.7C13.6,12.7,13.6,12.7,13.6,12.7L13.6,12.7z"/>
					<polygon fill="#FFFFFF" points="15.1,5 15.1,4.9 15.1,5 					"/>
					<path fill="#FFFFFF" d="M12.4,12.8C12.4,12.8,12.4,12.8,12.4,12.8C12.4,12.8,12.4,12.8,12.4,12.8z"/>
					<path fill="#FFFFFF" d="M12,13.1L12,13.1C12,13.1,12,13.1,12,13.1z"/>
					<path fill="#FFFFFF" d="M11.7,13.2C11.7,13.2,11.7,13.2,11.7,13.2L11.7,13.2L11.7,13.2z"/>
					<path fill="#FFFFFF" d="M16.2,9.8C16.2,9.8,16.2,9.7,16.2,9.8C16.2,9.7,16.2,9.7,16.2,9.8z"/>
					<path fill="#FFFFFF" d="M15,11C15,11,15,11,15,11C15,11,15,11,15,11z"/>
					<polygon fill="#FFFFFF" points="17.6,8.5 17.6,8.5 17.6,8.5 					"/>
					<path fill="#FFFFFF" d="M15.1,10.9C15.1,10.9,15,10.9,15.1,10.9C15.1,10.9,15.1,10.9,15.1,10.9z"/>
					<path fill="#FFFFFF" d="M10.4,14L10.4,14C10.4,14,10.4,14.1,10.4,14L10.4,14z"/>
					<path fill="#FFFFFF" d="M10.4,14.1L10.4,14.1C10.4,14.1,10.4,14.1,10.4,14.1z"/>
					<path fill="#FFFFFF" d="M10.4,14.1L10.4,14.1C10.4,14.1,10.3,14.1,10.4,14.1z"/>
					<path fill="#FFFFFF" d="M10.8,13.8L10.8,13.8C10.8,13.8,10.8,13.8,10.8,13.8z"/>
					<path fill="#FFFFFF" d="M10.9,13.7c0,0-0.1-0.1-0.2,0l0,0C10.7,13.7,10.9,13.8,10.9,13.7z"/>
					<path fill="#FFFFFF" d="M11.8,14l-0.1,0c0.1,0,0.1,0.1,0.1,0.1C12,14.2,11.7,14.1,11.8,14z"/>
					<path fill="#FFFFFF" d="M12.2,13.8c0,0.1,0.1,0.1,0.1,0.1C12.3,13.9,12.3,13.9,12.2,13.8z"/>
					<path fill="#FFFFFF" d="M14.4,12.3l0.1,0.1C14.5,12.4,14.4,12.4,14.4,12.3z"/>
					<polygon fill="#FFFFFF" points="14.3,11.4 14.3,11.3 14.3,11.4 					"/>
					<polygon fill="#FFFFFF" points="15.2,12 15.2,12.1 15.2,12 					"/>
					<path fill="#FFFFFF" d="M18.9,9.4l-0.1-0.1C18.7,9.3,18.9,9.5,18.9,9.4z"/>
					<path fill="#FFFFFF" d="M20.4,8.1c0.1,0.1,0.2,0.1,0.1,0C20.4,8.1,20.4,8.1,20.4,8.1z"/>
					<polygon fill="#FFFFFF" points="16.3,4 16.4,4 16.3,4 					"/>
				</g>
			</g>
		</g>
	</g>
</g>
</svg>
