<?xml version="1.0" encoding="utf-8"?>
<!-- Generator: Adobe Illustrator 18.0.0, SVG Export Plug-In . SVG Version: 6.00 Build 0)  -->
<!DOCTYPE svg PUBLIC "-//W3C//DTD SVG 1.1//EN" "http://www.w3.org/Graphics/SVG/1.1/DTD/svg11.dtd">
<svg version="1.1" id="Layer_1" xmlns="http://www.w3.org/2000/svg" xmlns:xlink="http://www.w3.org/1999/xlink" x="0px" y="0px"
	 viewBox="0 0 21.6 15.2" enable-background="new 0 0 21.6 15.2" xml:space="preserve">
<g>
	<g>
		<g>
			<g>
				<g>
					<path fill="#FFFFFF" d="M20.1,15.2c0,0,0.1-0.1,0.1-0.1L20.1,15.2L20.1,15.2z"/>
					<path fill="#FFFFFF" d="M20.1,14.7c-0.1,0.1-0.2,0.2-0.3,0.3c0.1-0.1,0.1-0.1,0.3-0.2c0,0,0,0.1,0,0.1c0,0,0,0.1,0.1,0
						c0-0.2,0-0.2-0.1-0.1C20,14.8,20.1,14.7,20.1,14.7z"/>
					<path fill="#FFFFFF" d="M17.3,12.4L17.3,12.4C17.3,12.4,17.3,12.4,17.3,12.4z"/>
					<path fill="#FFFFFF" d="M15.5,11C15.5,11,15.6,10.9,15.5,11C15.5,10.9,15.5,10.9,15.5,11z"/>
					<path fill="#FFFFFF" d="M15.3,10.6C15.3,10.6,15.3,10.6,15.3,10.6C15.3,10.6,15.3,10.5,15.3,10.6z"/>
					<path fill="#FFFFFF" d="M17.3,12.4L17.3,12.4C17.3,12.3,17.3,12.3,17.3,12.4z"/>
					<path fill="#FFFFFF" d="M19.4,14.8C19.4,14.8,19.5,14.8,19.4,14.8L19.4,14.8L19.4,14.8z"/>
					<path fill="#FFFFFF" d="M18.2,12.8L18.2,12.8C18.2,12.8,18.3,12.8,18.2,12.8L18.2,12.8z"/>
					<path fill="#FFFFFF" d="M18.9,13.2c0,0-0.1,0.1-0.2,0.2C18.7,13.3,18.8,13.3,18.9,13.2C18.8,13.3,18.8,13.3,18.9,13.2z"/>
					<path fill="#FFFFFF" d="M19.7,14.2L19.7,14.2L19.7,14.2z"/>
					<path fill="#FFFFFF" d="M17.8,12.5C17.8,12.4,17.8,12.4,17.8,12.5C17.8,12.4,17.8,12.4,17.8,12.5z"/>
					<path fill="#FFFFFF" d="M20.2,0.3L20.2,0.3C20.2,0.4,20.2,0.3,20.2,0.3z"/>
					<polygon fill="#FFFFFF" points="21.4,0.6 21.4,0.6 21.5,0.7 					"/>
					<path fill="#FFFFFF" d="M14.9,10L14.9,10C14.9,10,14.9,10,14.9,10z"/>
					<path fill="#FFFFFF" d="M11.6,7.5c-0.1-0.1,0-0.2-0.2-0.3C11.5,7.2,11.5,7.5,11.6,7.5z"/>
					<path fill="#FFFFFF" d="M19.4,14.8C19.4,14.8,19.4,14.8,19.4,14.8C19.4,14.8,19.4,14.8,19.4,14.8z"/>
					<polygon fill="#FFFFFF" points="11.4,7.2 11.4,7.2 11.4,7.2 					"/>
					<path fill="#FFFFFF" d="M13.5,9.1C13.5,9.1,13.5,9.2,13.5,9.1C13.5,9.2,13.5,9.1,13.5,9.1z"/>
					<path fill="#FFFFFF" d="M14.3,10L14.3,10C14.3,10,14.3,10,14.3,10z"/>
					<path fill="#FFFFFF" d="M12.8,8.9C12.8,8.9,12.8,8.9,12.8,8.9L12.8,8.9C12.8,8.9,12.8,8.9,12.8,8.9z"/>
					<polygon fill="#FFFFFF" points="12.3,8.6 12.3,8.6 12.3,8.6 					"/>
					<path fill="#FFFFFF" d="M18.6,1.5c0,0,0.1,0.1,0.1,0.1C18.6,1.5,18.7,1.4,18.6,1.5z"/>
					<path fill="#FFFFFF" d="M19.5,14.7C19.5,14.8,19.4,14.8,19.5,14.7L19.5,14.7C19.5,14.8,19.5,14.7,19.5,14.7z"/>
					<path fill="#FFFFFF" d="M12.1,10L12.1,10C12,9.9,12,10,12.1,10z"/>
					<path fill="#FFFFFF" d="M14.6,4L14.6,4C14.6,4,14.6,4,14.6,4z"/>
					<path fill="#FFFFFF" d="M11.7,9.7c0-0.1,0-0.1,0-0.1C11.7,9.6,11.7,9.6,11.7,9.7L11.7,9.7z"/>
					<path fill="#FFFFFF" d="M18.7,1.6L18.7,1.6L18.7,1.6z"/>
					<path fill="#FFFFFF" d="M19.1,0.9c-0.1,0,0.1,0.2,0.1,0.3C19.1,1.3,19.1,1.1,19,1c0,0.1,0,0.3,0,0.3c0,0,0,0-0.1-0.1
						c0,0.2-0.2,0.1-0.2,0.4c0,0,0,0,0,0c0.1,0.1,0.1,0.2,0.2,0.2c0,0,0,0.2-0.1,0c0,0,0-0.1,0-0.1l0,0.1c-0.1-0.2,0-0.1-0.1-0.2
						c0,0.1,0,0.3-0.1,0.3c-0.1-0.2,0.1-0.1-0.1-0.2l0.1,0c-0.2-0.2,0.1,0-0.2-0.3c-0.2,0-0.1,0.2-0.2,0.2c0,0.1,0.1,0.1,0.1,0.2
						c-0.1,0.3-0.4-0.3-0.4,0c0,0.1,0.2,0.4,0,0.3l-0.1-0.2C17.7,2,18,2.2,17.8,2.2c0-0.1,0.1-0.1,0-0.1c-0.2-0.1,0,0.1,0,0.2
						l-0.1-0.2c-0.1,0.1-0.2,0.3-0.3,0.4c0-0.1,0-0.1-0.1-0.2c-0.1,0.2-0.4,0.2-0.6,0.2l0,0.2c0,0-0.1,0-0.1-0.1
						c-0.1,0,0.1,0.1,0.1,0.2c0,0-0.1-0.1-0.1-0.1c0,0.2-0.2,0.5-0.4,0.4l0-0.1c-0.1,0,0.1,0.4-0.1,0.3l0,0
						c-0.2,0.1-0.4,0.3-0.7,0.2c0.1,0.2-0.3,0-0.1,0.3c-0.2-0.1-0.2-0.1-0.4-0.1c-0.1,0,0,0.2,0,0.3l-0.1-0.2l0,0.2l-0.2-0.2l0,0.1
						c0,0,0.1,0,0.1,0.1c0,0.1-0.3,0-0.3-0.1l-0.1,0.2c0-0.1,0-0.1,0-0.2c0,0.2-0.1-0.2-0.1,0.1c0,0,0.1,0.1,0.1,0.1
						c-0.1-0.1-0.2,0-0.3,0.1l-0.1-0.1c-0.2,0.1-0.3,0.2-0.4,0.3c0.1,0,0.2,0.2,0.2,0.3l-0.1-0.2c0,0.1,0.1,0,0.1,0.2
						c-0.1,0-0.2-0.2-0.2-0.2l0,0.1c0,0,0-0.1-0.1-0.1c0,0.1-0.2-0.1-0.2,0.1l0,0C13,4.8,13,4.9,12.9,4.9c0.1,0.1,0,0.1,0,0.3
						c-0.1,0-0.3,0-0.4,0.1c0,0.1,0.1,0.1,0.1,0.2c-0.1-0.1-0.2,0-0.2-0.2c-0.1,0.1-0.2,0.1-0.3,0.3c0.1,0,0.1,0.1,0.1,0.1
						c0,0-0.1,0-0.1-0.1l0,0C12,6,11.4,5.6,11.5,6l0,0l-0.1,0.2c-0.1,0,0-0.1-0.1-0.2c0,0.3-0.3,0.1-0.3,0.4
						c-0.3-0.3-0.4,0.3-0.7,0.1l0.1,0.1c0,0.1-0.1,0-0.1,0c0,0.1,0.1,0.1,0.1,0.1C10.2,6.8,10,6.9,9.8,7L9,7.2l0.8,1.1
						c0.1,0.2,0.2,0.4,0.4,0.5c0.1,0.1,0.4-0.4,0.4-0.1l-0.2,0.1c0.4,0,0.5,0.3,0.8,0.4c0,0-0.1,0.1-0.1,0.1c0,0.1,0.2,0.1,0.2,0
						c0,0-0.1,0.1-0.1,0.2c0,0.1,0.2-0.1,0.2,0.1c0,0,0,0-0.1,0c0.1,0,0.1,0.1,0.2,0c0,0.1,0.2,0.1,0.2,0.2c0.2-0.1,0.1,0.2,0.3,0
						c-0.2,0.2,0,0.3,0.2,0.2c-0.1,0.1,0,0.1-0.1,0.2c0.1,0,0.2,0,0.2-0.1c-0.1,0.3,0.4,0,0.2,0.3c0.3,0,0.5,0.1,0.7,0.1
						c-0.2,0.2-0.2-0.1-0.4,0.1c0.2,0,0.4-0.1,0.6,0.1c0,0.1-0.1,0.1-0.1,0.1c0.2,0,0.3,0.2,0.5,0.2c0,0,0,0-0.1,0c0,0,0,0.1,0.1,0
						l0,0c0.1-0.2,0.3-0.2,0.4-0.3c-0.2,0.2,0.1,0.2-0.2,0.5c0,0,0.1,0,0.1-0.1c0,0,0,0.1-0.1,0.1c0.1,0,0.2-0.1,0.3,0
						c0,0-0.1,0.1-0.1,0.1c0.1-0.1,0.2-0.1,0.3,0c0,0,0,0.1-0.1,0.1c0.1,0.1,0.4-0.1,0.5,0.1c-0.2,0.2,0,0.1-0.1,0.3l0.1,0l0-0.1
						c0.1,0.1,0.2,0,0.2,0.1l-0.1,0l0.2,0.1l0-0.1c0.1,0,0.2-0.2,0.2-0.1c0,0,0.1,0.1,0,0.2l0,0c0.1,0,0.2-0.1,0.2,0
						c0,0.1-0.2,0.2-0.2,0.2c0.1-0.1,0.2,0.1,0.3-0.1c0,0-0.1,0.1-0.1,0.1l0.1-0.1c0,0.1,0,0.1-0.1,0.2c0.1,0.1,0.1-0.2,0.2-0.1
						c0,0,0,0-0.1,0c0.1,0.1,0.3,0.1,0.3,0.2c-0.1,0.2-0.1,0-0.2,0.2c0.2,0.1,0.5,0,0.6,0.1l0,0c0.2-0.2,0,0.2,0.2,0.1
						c0,0-0.1,0.1-0.1,0.1c0.1,0.1,0.2,0.1,0.5,0.1l-0.1,0.1c0,0.1,0.1,0.1,0.2,0.2c0.1-0.1,0.1,0,0.1-0.1c-0.1,0.5,0.5,0.1,0.5,0.5
						c0,0-0.1,0-0.1,0l0.2,0c0.1-0.1,0-0.1,0.1-0.2c0.1-0.1,0.1-0.1,0.2,0c-0.1,0-0.1,0.2-0.1,0.3c0,0,0.1-0.1,0.1-0.1
						c-0.1,0.3,0.2-0.2,0.2,0l0,0.1c0.1,0,0.2-0.1,0.2,0c-0.1,0.1-0.1,0-0.2,0.1c0.1,0,0.3-0.2,0.3,0c-0.1,0-0.1,0-0.1,0
						c0,0.2,0,0.2,0,0.2l0,0l0.1,0.1l0-0.1c0.3-0.3,0.2,0,0.4-0.1c-0.2,0.1-0.1,0.1-0.2,0.2c0,0.1,0,0.1,0,0.2c0.1-0.1,0,0.1,0.2,0
						c0,0,0,0,0,0.2c0.1,0,0-0.1,0.1-0.1c0.2-0.1,0.1,0.4,0.4,0.2c0.2,0,0.3-0.1,0.5-0.2c0,0.1-0.2,0.1-0.2,0.1
						c0,0.1,0.1,0.1,0.2,0.1c0,0-0.1,0.1-0.1,0.1c0.1,0,0.2-0.1,0.2,0c0,0-0.1,0.1-0.2,0.2c0.1,0,0.2-0.1,0.3-0.1
						c0,0.1-0.1,0.1-0.2,0.1c0.1,0,0.2,0,0.3-0.1l0-0.1c0,0-0.1,0.1-0.1,0.1c-0.1,0.1,0-0.1,0-0.1l0.1,0c0.2-0.3-0.2-0.1-0.3-0.1
						l0.2-0.2l-0.2,0.1c0-0.1,0.1-0.2,0.1-0.2c0-0.1-0.1,0-0.1-0.1c0,0,0,0,0,0l-0.1,0c0,0,0.1-0.1,0.1-0.1c0-0.2-0.3,0-0.2-0.1l0,0
						c-0.2,0-0.1,0.1-0.3,0.2l0.2-0.4l-0.1,0.1c0,0,0,0,0-0.1c-0.1,0.1,0,0.1-0.1,0.1c0-0.2-0.2-0.1-0.1-0.3c-0.1,0.1,0,0.1-0.1,0.2
						c0.2-0.3-0.1,0-0.1-0.2c0.1-0.1,0.1,0,0.1-0.2c-0.2,0.2-0.1-0.1-0.2-0.1c-0.1,0.2-0.2,0-0.3,0c0-0.1-0.1-0.2-0.1-0.3l0,0
						c-0.1,0.2-0.2,0.1-0.3,0.1c0.1-0.1,0.1-0.1,0.2-0.2l-0.1,0c-0.1,0-0.1,0.1-0.1,0.1l0.1-0.1c-0.1,0-0.3,0-0.3-0.1
						c-0.1,0.1-0.2,0.4-0.3,0.4c0-0.1,0.1-0.2,0.2-0.2c0,0-0.1,0-0.1,0l0.1-0.1c0-0.1-0.1,0.1-0.1,0c0.1-0.1,0-0.1,0.1-0.2
						c0,0,0,0.1,0,0c0,0,0-0.1,0-0.2c0,0.1-0.1,0.1-0.1,0.1c-0.1,0,0.1-0.1,0-0.2c-0.1,0.1-0.1-0.1-0.2,0.1c0,0,0-0.1,0-0.1
						c-0.1,0-0.2-0.1-0.3,0.1l0,0c0,0,0,0,0,0l0,0l0,0c-0.2,0-0.2-0.3-0.4-0.3l0,0c-0.1,0-0.2-0.1-0.3,0c0,0,0-0.1,0.1-0.2
						c-0.1,0-0.1,0-0.2-0.1c0.1,0,0-0.1,0.1,0c0-0.1,0-0.2-0.2-0.1c0.1-0.1,0.1-0.2,0-0.2l0,0.1c-0.1,0-0.1,0-0.1-0.1l0.1-0.1
						c0-0.3-0.5,0.1-0.4-0.3c-0.1,0.1,0,0.1-0.1,0.2c-0.1-0.1,0-0.4,0-0.4c0-0.2-0.3,0.2-0.3,0c0,0.1-0.1,0.2-0.2,0.2
						c-0.1-0.1,0.1-0.3,0.2-0.3c0,0,0,0,0,0.1c0,0,0.1,0,0.1-0.1l0,0.1c0-0.1-0.1-0.1,0-0.2c-0.1,0-0.1,0.1-0.1,0.1
						c0-0.1-0.1-0.1-0.2-0.2c0,0,0,0.1-0.1,0.1c-0.1-0.2-0.1,0.1-0.2,0c0-0.1,0.2-0.2,0-0.2c0-0.1,0.1-0.2,0.2-0.2
						c-0.2,0-0.1-0.2-0.1-0.2l0.1,0c0,0-0.1,0-0.1,0L15,10.2c0,0,0-0.1,0-0.1c-0.1,0.1-0.1,0.2-0.2,0.3c0-0.1-0.2,0-0.1-0.2
						c0.1,0.1,0.1-0.2,0.2-0.1c0,0-0.1,0-0.1-0.1c0,0,0,0,0,0c0-0.2-0.2,0.1-0.3,0.1c0.1-0.1,0.1-0.2,0.1-0.2c0,0-0.1,0.2-0.2,0.2
						c0-0.1-0.1,0-0.1,0l0,0.1c-0.1,0.1-0.1,0-0.2,0c0-0.1,0.1,0,0.1-0.1c-0.2,0.1,0-0.2-0.2-0.2c0-0.1,0.1-0.2,0.1-0.2
						c-0.2,0,0-0.2-0.2-0.2c-0.1,0.1,0,0.1-0.2,0.2l0.2,0l-0.2,0.1c0,0,0.1,0,0.2,0c-0.1,0.1-0.1,0-0.1,0.1c0.1-0.2-0.2,0-0.2-0.2
						l0.2-0.3c0-0.2-0.3,0-0.4-0.2l0,0.1c-0.1,0.1-0.1,0-0.2,0c0.1-0.1,0.1-0.1,0.1-0.2c0,0.1-0.1-0.1-0.2,0.1l0-0.2
						c-0.1-0.1-0.3,0.2-0.4,0.1C13,9.1,13,9,13.1,9c0,0-0.1-0.1-0.1,0c0-0.1-0.2,0.1-0.2-0.1c0,0-0.1,0.1-0.2,0.1c0,0,0,0,0,0
						c0,0-0.1,0-0.1,0.1c0.1-0.4-0.3-0.2-0.2-0.5c-0.1,0-0.2-0.1-0.3-0.1c0,0,0,0,0,0c0-0.2-0.3,0.2-0.3,0.1c0.1-0.2,0.1,0,0.1-0.1
						c0.2-0.3-0.2-0.1-0.1-0.3l0,0c0-0.1-0.2,0-0.3-0.1c0,0,0,0,0,0C11.4,8.1,11.2,8,11.1,8c0.1-0.1,0.1,0,0.2-0.2
						c-0.1,0-0.1,0.2-0.2,0.2c0-0.1,0-0.2,0.1-0.3l0.1,0c0.1-0.2-0.1-0.1-0.1-0.1l0.1-0.1c-0.1-0.1-0.3,0.1-0.4,0l0,0.1
						c-0.2,0.1,0-0.1-0.2-0.1l0.1-0.2c-0.1,0-0.3,0.1-0.4,0.1c0,0.1,0,0.2,0,0.3l0,0l0,0c0-0.1,0-0.2,0-0.3c0.1-0.1,0.3-0.1,0.4-0.1
						c0,0-0.2-0.1-0.3,0c0,0,0.1,0,0.1,0c-0.1,0-0.1,0.1-0.2,0.1c0,0.2,0,0.3,0,0.5c0-0.1,0-0.1,0.1-0.2c0.2,0.4,0.3-0.1,0.6,0.2
						c0.1-0.2,0.4-0.1,0.5-0.3c-0.3-0.3,0.1,0-0.2-0.3c0,0,0.1-0.1,0.1,0l0.2,0.1c0.1,0.1,0,0.1,0,0.2c0.1,0,0.1,0.1,0.2,0.1
						c-0.1-0.1-0.1-0.2,0-0.2l-0.2-0.1c0-0.2,0.3,0.2,0.3-0.1l0,0.1c0-0.1,0.3-0.2,0.2-0.5c0,0,0.1,0.1,0.1,0.1
						c0.2-0.1,0.2-0.5,0.4-0.4l0,0.1c0,0,0-0.2,0.1-0.1c0,0,0,0.1,0.1,0.1c0,0,0-0.2,0.1-0.2l0,0.1c0.2,0,0.1-0.4,0.2-0.5
						c0.1,0.2,0.3,0.2,0.4,0.2l0,0C13.9,6.3,13.9,6,14,5.8c0.3,0.2,0.4-0.1,0.7-0.1c-0.1,0-0.1-0.2-0.1-0.2c0.1,0,0-0.2,0.1,0l0,0
						c0.2,0.2,0.2,0.1,0.3,0l-0.2-0.3c0.4,0.3,0.4-0.4,0.7-0.1c0-0.1,0.1-0.1,0.1-0.2L15.7,5c0.1,0,0.2-0.1,0.3-0.2l0,0.1
						c0.1,0-0.2-0.5-0.1-0.5l0.2,0.2c0.1-0.1,0.4,0,0.4-0.3c0,0,0.1,0.1,0,0.1c0.1,0,0.3,0,0.1-0.3c0.1,0.2,0.2-0.1,0.2-0.2L17,4.1
						c0-0.2-0.1-0.3,0-0.4c0,0,0.1,0.1,0,0.1c0.1,0,0-0.2,0.1-0.1l0,0.1c0.1,0,0-0.1,0-0.2c0-0.1,0.2-0.1,0.3,0.1
						c0-0.1-0.1-0.2,0-0.2c0,0,0,0.1,0,0.1c0.2,0,0.1-0.3,0.3-0.2c0,0,0.1,0.1,0.1,0.1c-0.1,0.1-0.2,0.1-0.2,0.1
						c0.1,0.1,0.2,0.1,0.2,0.3c0-0.1,0-0.4,0.1-0.4c0,0,0,0,0,0l0,0c0,0,0,0,0-0.1c0,0,0.1,0,0.1,0c0.1,0.1,0.1,0,0.2,0
						c-0.1-0.1,0-0.1-0.1-0.2c0,0,0,0,0,0c0,0,0,0,0,0l0,0c0,0-0.1,0-0.1,0.1c0-0.1,0-0.2,0.1-0.1C18,3,18,2.9,18,2.9
						c0.2,0.2,0.3,0.2,0.4,0.3C18.5,3,18.7,3,18.6,2.7c0-0.1,0.1,0.1,0.1,0.1c0,0,0,0,0,0.1c0-0.1,0.2-0.2,0.1-0.3
						c0.1,0,0.1,0.2,0.2,0.1l0,0.1c0.4,0.1,0.1-0.7,0.6-0.5c0,0,0,0-0.1,0c0.4,0,0.5-0.5,1-0.5c0.1,0,0.1-0.1,0-0.2l0.1,0.1l0-0.2
						c0-0.2,0.4,0.2,0.4-0.1l-0.1-0.1c0.1,0,0.1-0.2,0.2,0c0,0,0-0.1,0-0.1l0.1,0.1l0.1-0.2c0.1,0,0.2,0.3,0.3,0.2
						c0-0.1,0-0.3,0-0.4c0,0-0.1,0-0.1-0.1l0-0.1c-0.1-0.2-0.2-0.5-0.5-0.6l0,0.2l-0.1-0.1L20.9,0c-0.1-0.1-0.1,0-0.1,0.1
						c0-0.1-0.1-0.1-0.1-0.1l0.1,0.3c-0.1-0.1-0.1-0.2-0.2-0.2c0,0.1,0.2,0.2,0.1,0.3c-0.1-0.1-0.2-0.2-0.1-0.1
						c0-0.1-0.1-0.1-0.1-0.1c0,0.1-0.1,0.1,0,0.2c-0.1-0.1-0.1,0.1-0.3-0.1c0,0.1,0,0.2,0,0.3c-0.1-0.3-0.2,0.1-0.3-0.2
						c0.1,0.3-0.1,0.2-0.2,0.4c0,0,0-0.1,0-0.1c-0.1,0-0.1,0-0.2-0.1c0.1,0.2,0.1,0.3,0.1,0.4c-0.2-0.1-0.1-0.3-0.2-0.4
						c0.1,0.2,0,0.2,0.1,0.3c-0.1-0.1-0.1,0-0.2-0.2c0.1,0.2,0,0.1,0,0.2c-0.2-0.1-0.2-0.2-0.2-0.1C19,1,19.1,0.9,19.1,0.9z
						 M17.4,2.5L17.4,2.5C17.4,2.5,17.4,2.5,17.4,2.5C17.4,2.5,17.4,2.5,17.4,2.5z M17.2,2.7C17.2,2.6,17.3,2.6,17.2,2.7
						c0.1,0,0.1,0.1,0.1,0.1C17.3,2.7,17.3,2.7,17.2,2.7z M18.2,3.4C18.2,3.4,18.1,3.4,18.2,3.4C18.1,3.4,18.1,3.4,18.2,3.4
						L18.2,3.4C18.1,3.4,18.2,3.4,18.2,3.4z"/>
					<path fill="#FFFFFF" d="M18.1,3.2C18.1,3.2,18.1,3.2,18.1,3.2C18.1,3.2,18.1,3.2,18.1,3.2L18.1,3.2L18.1,3.2z"/>
					<path fill="#FFFFFF" d="M17.3,12.4L17.3,12.4C17.3,12.4,17.3,12.4,17.3,12.4L17.3,12.4z"/>
					<polygon fill="#FFFFFF" points="14.8,3.8 14.8,3.9 14.8,3.8 					"/>
					<path fill="#FFFFFF" d="M17.9,13.5C17.9,13.5,17.8,13.5,17.9,13.5C17.9,13.5,17.9,13.5,17.9,13.5z"/>
					<path fill="#FFFFFF" d="M18.2,13.8L18.2,13.8C18.2,13.8,18.2,13.8,18.2,13.8z"/>
					<path fill="#FFFFFF" d="M18.5,14C18.5,14,18.5,14,18.5,14L18.5,14L18.5,14z"/>
					<path fill="#FFFFFF" d="M13.7,10.9C13.7,10.9,13.7,10.9,13.7,10.9C13.7,10.9,13.7,10.9,13.7,10.9z"/>
					<path fill="#FFFFFF" d="M15.3,11.6C15.3,11.6,15.3,11.6,15.3,11.6C15.3,11.6,15.3,11.7,15.3,11.6z"/>
					<polygon fill="#FFFFFF" points="12.1,10 12.1,10 12.1,10 					"/>
					<path fill="#FFFFFF" d="M15.2,11.6C15.2,11.6,15.2,11.6,15.2,11.6C15.2,11.6,15.2,11.6,15.2,11.6z"/>
					<polygon fill="#FFFFFF" points="19.7,15 19.7,15 19.7,15 					"/>
					<path fill="#FFFFFF" d="M19.7,15L19.7,15C19.7,15,19.7,15,19.7,15z"/>
					<path fill="#FFFFFF" d="M19.8,15L19.8,15C19.7,15,19.8,15,19.8,15z"/>
					<path fill="#FFFFFF" d="M19.3,14.7L19.3,14.7C19.3,14.7,19.3,14.7,19.3,14.7z"/>
					<path fill="#FFFFFF" d="M19.2,14.6c0,0,0,0.2,0.1,0.2l0,0C19.2,14.8,19.3,14.5,19.2,14.6z"/>
					<path fill="#FFFFFF" d="M19.1,13.6l0.1,0.1c0-0.1,0-0.2,0.1-0.1C19.3,13.4,19.3,13.8,19.1,13.6z"/>
					<path fill="#FFFFFF" d="M18.9,13.4c0.1,0,0.1-0.1,0.1-0.1C18.9,13.3,18.9,13.3,18.9,13.4z"/>
					<path fill="#FFFFFF" d="M16.7,11.8l0.1-0.1C16.7,11.7,16.8,11.7,16.7,11.8z"/>
					<polygon fill="#FFFFFF" points="15.8,12.1 15.8,12.2 15.9,12.1 					"/>
					<polygon fill="#FFFFFF" points="16.2,11.1 16.2,11.1 16.1,11.1 					"/>
					<path fill="#FFFFFF" d="M12.5,8.5l-0.1,0.2C12.4,8.7,12.6,8.5,12.5,8.5z"/>
					<path fill="#FFFFFF" d="M10.8,7.5c0-0.1,0-0.2-0.1-0.1C10.8,7.4,10.8,7.5,10.8,7.5z"/>
					<polygon fill="#FFFFFF" points="15.1,5.4 15.1,5.4 15.1,5.3 					"/>
				</g>
			</g>
		</g>
	</g>
</g>
<g>
	<g>
		<g>
			<g>
				<g>
					<path fill="#FFFFFF" d="M11.1,15.2c0,0,0.1-0.1,0.1-0.1L11.1,15.2L11.1,15.2z"/>
					<path fill="#FFFFFF" d="M11.1,14.7c-0.1,0.1-0.2,0.2-0.3,0.3c0.1-0.1,0.1-0.1,0.3-0.2c0,0,0,0.1,0,0.1c0,0,0,0.1,0.1,0
						c0-0.2,0-0.2-0.1-0.1C11.1,14.8,11.1,14.7,11.1,14.7z"/>
					<path fill="#FFFFFF" d="M8.3,12.4L8.3,12.4C8.4,12.4,8.3,12.4,8.3,12.4z"/>
					<path fill="#FFFFFF" d="M6.6,11C6.6,11,6.6,10.9,6.6,11C6.6,10.9,6.6,10.9,6.6,11z"/>
					<path fill="#FFFFFF" d="M6.4,10.6C6.4,10.6,6.4,10.6,6.4,10.6C6.4,10.6,6.4,10.5,6.4,10.6z"/>
					<path fill="#FFFFFF" d="M8.3,12.4L8.3,12.4C8.3,12.3,8.3,12.3,8.3,12.4z"/>
					<path fill="#FFFFFF" d="M10.5,14.8C10.5,14.8,10.5,14.8,10.5,14.8L10.5,14.8L10.5,14.8z"/>
					<path fill="#FFFFFF" d="M9.2,12.8L9.2,12.8C9.3,12.8,9.3,12.8,9.2,12.8L9.2,12.8z"/>
					<path fill="#FFFFFF" d="M9.9,13.2c0,0-0.1,0.1-0.2,0.2C9.8,13.3,9.8,13.3,9.9,13.2C9.8,13.3,9.9,13.3,9.9,13.2z"/>
					<path fill="#FFFFFF" d="M10.7,14.2L10.7,14.2L10.7,14.2z"/>
					<path fill="#FFFFFF" d="M8.8,12.5C8.8,12.4,8.8,12.4,8.8,12.5C8.8,12.4,8.8,12.4,8.8,12.5z"/>
					<path fill="#FFFFFF" d="M11.3,0.3L11.3,0.3C11.3,0.4,11.3,0.3,11.3,0.3z"/>
					<polygon fill="#FFFFFF" points="12.5,0.6 12.5,0.6 12.5,0.7 					"/>
					<path fill="#FFFFFF" d="M5.9,10L5.9,10C5.9,10,5.9,10,5.9,10z"/>
					<path fill="#FFFFFF" d="M2.6,7.5c-0.1-0.1,0-0.2-0.2-0.3C2.5,7.2,2.5,7.5,2.6,7.5z"/>
					<path fill="#FFFFFF" d="M10.5,14.8C10.4,14.8,10.4,14.8,10.5,14.8C10.4,14.8,10.4,14.8,10.5,14.8z"/>
					<polygon fill="#FFFFFF" points="2.5,7.2 2.5,7.2 2.4,7.2 					"/>
					<path fill="#FFFFFF" d="M4.5,9.1C4.5,9.1,4.5,9.2,4.5,9.1C4.5,9.2,4.5,9.1,4.5,9.1z"/>
					<path fill="#FFFFFF" d="M5.4,10L5.4,10C5.4,10,5.4,10,5.4,10z"/>
					<path fill="#FFFFFF" d="M3.9,8.9C3.9,8.9,3.9,8.9,3.9,8.9L3.9,8.9C3.9,8.9,3.9,8.9,3.9,8.9z"/>
					<polygon fill="#FFFFFF" points="3.3,8.6 3.3,8.6 3.4,8.6 					"/>
					<path fill="#FFFFFF" d="M9.6,1.5c0,0,0.1,0.1,0.1,0.1C9.7,1.5,9.7,1.4,9.6,1.5z"/>
					<path fill="#FFFFFF" d="M10.5,14.7C10.5,14.8,10.5,14.8,10.5,14.7L10.5,14.7C10.5,14.8,10.5,14.7,10.5,14.7z"/>
					<path fill="#FFFFFF" d="M3.1,10L3.1,10C3,9.9,3.1,10,3.1,10z"/>
					<path fill="#FFFFFF" d="M5.7,4L5.7,4C5.7,4,5.7,4,5.7,4z"/>
					<path fill="#FFFFFF" d="M2.8,9.7c0-0.1,0-0.1,0-0.1C2.8,9.6,2.8,9.6,2.8,9.7L2.8,9.7z"/>
					<path fill="#FFFFFF" d="M9.7,1.6L9.7,1.6L9.7,1.6z"/>
					<path fill="#FFFFFF" d="M10.1,0.9c-0.1,0,0.1,0.2,0.1,0.3C10.2,1.3,10.1,1.1,10,1c0,0.1,0,0.3,0,0.3c0,0,0,0-0.1-0.1
						c0,0.2-0.2,0.1-0.2,0.4c0,0,0,0,0,0c0.1,0.1,0.1,0.2,0.2,0.2c0,0,0,0.2-0.1,0c0,0,0-0.1,0-0.1l0,0.1c-0.1-0.2,0-0.1-0.1-0.2
						c0,0.1,0,0.3-0.1,0.3C9.5,1.8,9.7,1.8,9.5,1.7l0.1,0c-0.2-0.2,0.1,0-0.2-0.3c-0.2,0-0.1,0.2-0.2,0.2c0,0.1,0.1,0.1,0.1,0.2
						C9.3,2.1,9,1.5,9,1.8C9,2,9.2,2.2,9,2.1L8.9,1.9C8.8,2,9,2.2,8.8,2.2c0-0.1,0.1-0.1,0-0.1c-0.2-0.1,0,0.1,0,0.2L8.7,2.1
						C8.6,2.2,8.5,2.4,8.4,2.5c0-0.1,0-0.1-0.1-0.2C8.2,2.5,7.9,2.6,7.7,2.6l0,0.2c0,0-0.1,0-0.1-0.1c-0.1,0,0.1,0.1,0.1,0.2
						c0,0-0.1-0.1-0.1-0.1c0,0.2-0.2,0.5-0.4,0.4l0-0.1c-0.1,0,0.1,0.4-0.1,0.3l0,0C6.9,3.4,6.7,3.6,6.4,3.5c0.1,0.2-0.3,0-0.1,0.3
						C6.1,3.8,6.1,3.7,5.9,3.7c-0.1,0,0,0.2,0,0.3L5.8,3.9l0,0.2L5.7,3.9l0,0.1c0,0,0.1,0,0.1,0.1c0,0.1-0.3,0-0.3-0.1L5.4,4.2
						c0-0.1,0-0.1,0-0.2c0,0.2-0.1-0.2-0.1,0.1c0,0,0.1,0.1,0.1,0.1C5.2,4.2,5.1,4.3,5,4.4L5,4.2C4.8,4.3,4.7,4.5,4.6,4.6
						c0.1,0,0.2,0.2,0.2,0.3L4.6,4.7c0,0.1,0.1,0,0.1,0.2c-0.1,0-0.2-0.2-0.2-0.2l0,0.1c0,0,0-0.1-0.1-0.1c0,0.1-0.2-0.1-0.2,0.1
						l0,0C4.1,4.8,4,4.9,3.9,4.9c0.1,0.1,0,0.1,0,0.3c-0.1,0-0.3,0-0.4,0.1c0,0.1,0.1,0.1,0.1,0.2c-0.1-0.1-0.2,0-0.2-0.2
						C3.3,5.4,3.3,5.5,3.2,5.7c0.1,0,0.1,0.1,0.1,0.1c0,0-0.1,0-0.1-0.1l0,0C3.1,6,2.5,5.6,2.5,6l0,0L2.4,6.2c-0.1,0,0-0.1-0.1-0.2
						C2.3,6.3,2,6.2,2,6.4C1.6,6.1,1.6,6.7,1.3,6.5l0.1,0.1c0,0.1-0.1,0-0.1,0c0,0.1,0.1,0.1,0.1,0.1C1.2,6.8,1,6.9,0.8,7L0,7.2
						l0.8,1.1C0.9,8.4,1,8.6,1.1,8.7c0.1,0.1,0.4-0.4,0.4-0.1L1.3,8.8c0.4,0,0.5,0.3,0.8,0.4c0,0-0.1,0.1-0.1,0.1
						c0,0.1,0.2,0.1,0.2,0c0,0-0.1,0.1-0.1,0.2c0,0.1,0.2-0.1,0.2,0.1c0,0,0,0-0.1,0c0.1,0,0.1,0.1,0.2,0c0,0.1,0.2,0.1,0.2,0.2
						c0.2-0.1,0.1,0.2,0.3,0c-0.2,0.2,0,0.3,0.2,0.2c-0.1,0.1,0,0.1-0.1,0.2c0.1,0,0.2,0,0.2-0.1c-0.1,0.3,0.4,0,0.2,0.3
						c0.3,0,0.5,0.1,0.7,0.1c-0.2,0.2-0.2-0.1-0.4,0.1c0.2,0,0.4-0.1,0.6,0.1c0,0.1-0.1,0.1-0.1,0.1c0.2,0,0.3,0.2,0.5,0.2
						c0,0,0,0-0.1,0c0,0,0,0.1,0.1,0l0,0c0.1-0.2,0.3-0.2,0.4-0.3C5,10.9,5.3,10.8,5,11.1c0,0,0.1,0,0.1-0.1c0,0,0,0.1-0.1,0.1
						c0.1,0,0.2-0.1,0.3,0c0,0-0.1,0.1-0.1,0.1c0.1-0.1,0.2-0.1,0.3,0c0,0,0,0.1-0.1,0.1c0.1,0.1,0.4-0.1,0.5,0.1
						c-0.2,0.2,0,0.1-0.1,0.3l0.1,0l0-0.1c0.1,0.1,0.2,0,0.2,0.1l-0.1,0l0.2,0.1l0-0.1c0.1,0,0.2-0.2,0.2-0.1c0,0,0.1,0.1,0,0.2l0,0
						c0.1,0,0.2-0.1,0.2,0c0,0.1-0.2,0.2-0.2,0.2c0.1-0.1,0.2,0.1,0.3-0.1c0,0-0.1,0.1-0.1,0.1l0.1-0.1c0,0.1,0,0.1-0.1,0.2
						c0.1,0.1,0.1-0.2,0.2-0.1c0,0,0,0-0.1,0C6.8,12.1,7,12,7.1,12.1c-0.1,0.2-0.1,0-0.2,0.2c0.2,0.1,0.5,0,0.6,0.1l0,0
						c0.2-0.2,0,0.2,0.2,0.1c0,0-0.1,0.1-0.1,0.1c0.1,0.1,0.2,0.1,0.5,0.1l-0.1,0.1c0,0.1,0.1,0.1,0.2,0.2c0.1-0.1,0.1,0,0.1-0.1
						c-0.1,0.5,0.5,0.1,0.5,0.5c0,0-0.1,0-0.1,0l0.2,0c0.1-0.1,0-0.1,0.1-0.2c0.1-0.1,0.1-0.1,0.2,0c-0.1,0-0.1,0.2-0.1,0.3
						c0,0,0.1-0.1,0.1-0.1c-0.1,0.3,0.2-0.2,0.2,0l0,0.1c0.1,0,0.2-0.1,0.2,0c-0.1,0.1-0.1,0-0.2,0.1c0.1,0,0.3-0.2,0.3,0
						c-0.1,0-0.1,0-0.1,0c0,0.2,0,0.2,0,0.2l0,0l0.1,0.1l0-0.1c0.3-0.3,0.2,0,0.4-0.1c-0.2,0.1-0.1,0.1-0.2,0.2c0,0.1,0,0.1,0,0.2
						c0.1-0.1,0,0.1,0.2,0c0,0,0,0,0,0.2c0.1,0,0-0.1,0.1-0.1c0.2-0.1,0.1,0.4,0.4,0.2c0.2,0,0.3-0.1,0.5-0.2c0,0.1-0.2,0.1-0.2,0.1
						c0,0.1,0.1,0.1,0.2,0.1c0,0-0.1,0.1-0.1,0.1c0.1,0,0.2-0.1,0.2,0c0,0-0.1,0.1-0.2,0.2c0.1,0,0.2-0.1,0.3-0.1
						c0,0.1-0.1,0.1-0.2,0.1c0.1,0,0.2,0,0.3-0.1l0-0.1c0,0-0.1,0.1-0.1,0.1c-0.1,0.1,0-0.1,0-0.1l0.1,0c0.2-0.3-0.2-0.1-0.3-0.1
						l0.2-0.2l-0.2,0.1c0-0.1,0.1-0.2,0.1-0.2c0-0.1-0.1,0-0.1-0.1c0,0,0,0,0,0l-0.1,0c0,0,0.1-0.1,0.1-0.1c0-0.2-0.3,0-0.2-0.1l0,0
						c-0.2,0-0.1,0.1-0.3,0.2l0.2-0.4l-0.1,0.1c0,0,0,0,0-0.1c-0.1,0.1,0,0.1-0.1,0.1c0-0.2-0.2-0.1-0.1-0.3c-0.1,0.1,0,0.1-0.1,0.2
						c0.2-0.3-0.1,0-0.1-0.2c0.1-0.1,0.1,0,0.1-0.2c-0.2,0.2-0.1-0.1-0.2-0.1c-0.1,0.2-0.2,0-0.3,0c0-0.1-0.1-0.2-0.1-0.3l0,0
						C9.3,13.1,9.2,13,9.1,13c0.1-0.1,0.1-0.1,0.2-0.2l-0.1,0c-0.1,0-0.1,0.1-0.1,0.1l0.1-0.1c-0.1,0-0.3,0-0.3-0.1
						C8.8,12.8,8.8,13,8.6,13c0-0.1,0.1-0.2,0.2-0.2c0,0-0.1,0-0.1,0l0.1-0.1c0-0.1-0.1,0.1-0.1,0c0.1-0.1,0-0.1,0.1-0.2
						c0,0,0,0.1,0,0c0,0,0-0.1,0-0.2c0,0.1-0.1,0.1-0.1,0.1c-0.1,0,0.1-0.1,0-0.2c-0.1,0.1-0.1-0.1-0.2,0.1c0,0,0-0.1,0-0.1
						c-0.1,0-0.2-0.1-0.3,0.1l0,0c0,0,0,0,0,0l0,0l0,0c-0.2,0-0.2-0.3-0.4-0.3l0,0c-0.1,0-0.2-0.1-0.3,0c0,0,0-0.1,0.1-0.2
						c-0.1,0-0.1,0-0.2-0.1c0.1,0,0-0.1,0.1,0c0-0.1,0-0.2-0.2-0.1c0.1-0.1,0.1-0.2,0-0.2l0,0.1c-0.1,0-0.1,0-0.1-0.1l0.1-0.1
						c0-0.3-0.5,0.1-0.4-0.3c-0.1,0.1,0,0.1-0.1,0.2c-0.1-0.1,0-0.4,0-0.4c0-0.2-0.3,0.2-0.3,0c0,0.1-0.1,0.2-0.2,0.2
						c-0.1-0.1,0.1-0.3,0.2-0.3c0,0,0,0,0,0.1c0,0,0.1,0,0.1-0.1l0,0.1c0-0.1-0.1-0.1,0-0.2c-0.1,0-0.1,0.1-0.1,0.1
						c0-0.1-0.1-0.1-0.2-0.2c0,0,0,0.1-0.1,0.1c-0.1-0.2-0.1,0.1-0.2,0c0-0.1,0.2-0.2,0-0.2c0-0.1,0.1-0.2,0.2-0.2
						c-0.2,0-0.1-0.2-0.1-0.2l0.1,0c0,0-0.1,0-0.1,0L6,10.2c0,0,0-0.1,0-0.1c-0.1,0.1-0.1,0.2-0.2,0.3c0-0.1-0.2,0-0.1-0.2
						c0.1,0.1,0.1-0.2,0.2-0.1c0,0-0.1,0-0.1-0.1c0,0,0,0,0,0c0-0.2-0.2,0.1-0.3,0.1c0.1-0.1,0.1-0.2,0.1-0.2c0,0-0.1,0.2-0.2,0.2
						c0-0.1-0.1,0-0.1,0l0,0.1c-0.1,0.1-0.1,0-0.2,0c0-0.1,0.1,0,0.1-0.1c-0.2,0.1,0-0.2-0.2-0.2c0-0.1,0.1-0.2,0.1-0.2
						c-0.2,0,0-0.2-0.2-0.2C5,9.6,5.1,9.6,4.9,9.6l0.2,0L4.9,9.8c0,0,0.1,0,0.2,0C5,9.9,5,9.8,4.9,9.9C5,9.7,4.7,10,4.8,9.8L5,9.5
						c0-0.2-0.3,0-0.4-0.2l0,0.1c-0.1,0.1-0.1,0-0.2,0c0.1-0.1,0.1-0.1,0.1-0.2c0,0.1-0.1-0.1-0.2,0.1l0-0.2C4.2,9,4,9.3,3.9,9.2
						C4,9.1,4,9,4.1,9c0,0-0.1-0.1-0.1,0C4,8.9,3.8,9,3.8,8.9c0,0-0.1,0.1-0.2,0.1c0,0,0,0,0,0c0,0-0.1,0-0.1,0.1
						c0.1-0.4-0.3-0.2-0.2-0.5C3.2,8.6,3.1,8.5,3,8.5c0,0,0,0,0,0c0-0.2-0.3,0.2-0.3,0.1c0.1-0.2,0.1,0,0.1-0.1
						c0.2-0.3-0.2-0.1-0.1-0.3l0,0c0-0.1-0.2,0-0.3-0.1c0,0,0,0,0,0C2.4,8.1,2.2,8,2.1,8c0.1-0.1,0.1,0,0.2-0.2C2.2,7.8,2.1,8.1,2,8
						c0-0.1,0-0.2,0.1-0.3l0.1,0c0.1-0.2-0.1-0.1-0.1-0.1l0.1-0.1C2,7.5,1.9,7.7,1.8,7.6l0,0.1c-0.2,0.1,0-0.1-0.2-0.1l0.1-0.2
						c-0.1,0-0.3,0.1-0.4,0.1c0,0.1,0,0.2,0,0.3l0,0l0,0c0-0.1,0-0.2,0-0.3c0.1-0.1,0.3-0.1,0.4-0.1c0,0-0.2-0.1-0.3,0
						c0,0,0.1,0,0.1,0c-0.1,0-0.1,0.1-0.2,0.1c0,0.2,0,0.3,0,0.5c0-0.1,0-0.1,0.1-0.2C1.7,8.1,1.7,7.6,2,7.9
						c0.1-0.2,0.4-0.1,0.5-0.3c-0.3-0.3,0.1,0-0.2-0.3c0,0,0.1-0.1,0.1,0l0.2,0.1c0.1,0.1,0,0.1,0,0.2c0.1,0,0.1,0.1,0.2,0.1
						C2.9,7.5,2.9,7.4,3,7.4L2.8,7.3c0-0.2,0.3,0.2,0.3-0.1l0,0.1c0-0.1,0.3-0.2,0.2-0.5c0,0,0.1,0.1,0.1,0.1C3.6,7,3.7,6.6,3.9,6.7
						l0,0.1c0,0,0-0.2,0.1-0.1c0,0,0,0.1,0.1,0.1c0,0,0-0.2,0.1-0.2l0,0.1c0.2,0,0.1-0.4,0.2-0.5c0.1,0.2,0.3,0.2,0.4,0.2l0,0
						C5,6.3,5,6,5.1,5.8C5.3,6,5.5,5.6,5.8,5.7c-0.1,0-0.1-0.2-0.1-0.2c0.1,0,0-0.2,0.1,0l0,0C6,5.6,6,5.5,6.1,5.5L5.9,5.2
						c0.4,0.3,0.4-0.4,0.7-0.1c0-0.1,0.1-0.1,0.1-0.2L6.8,5c0.1,0,0.2-0.1,0.3-0.2l0,0.1C7.2,4.9,7,4.5,7,4.4l0.2,0.2
						c0.1-0.1,0.4,0,0.4-0.3c0,0,0.1,0.1,0,0.1c0.1,0,0.3,0,0.1-0.3C7.9,4.3,8,4.1,8,3.9l0.1,0.1C8,3.9,8,3.8,8,3.7
						c0,0,0.1,0.1,0,0.1c0.1,0,0-0.2,0.1-0.1l0,0.1c0.1,0,0-0.1,0-0.2c0-0.1,0.2-0.1,0.3,0.1c0-0.1-0.1-0.2,0-0.2c0,0,0,0.1,0,0.1
						c0.2,0,0.1-0.3,0.3-0.2c0,0,0.1,0.1,0.1,0.1C8.7,3.5,8.7,3.5,8.7,3.5c0.1,0.1,0.2,0.1,0.2,0.3c0-0.1,0-0.4,0.1-0.4c0,0,0,0,0,0
						l0,0c0,0,0,0,0-0.1c0,0,0.1,0,0.1,0c0.1,0.1,0.1,0,0.2,0c-0.1-0.1,0-0.1-0.1-0.2c0,0,0,0,0,0c0,0,0,0,0,0l0,0
						c0,0-0.1,0-0.1,0.1c0-0.1,0-0.2,0.1-0.1C9.1,3,9,2.9,9,2.9c0.2,0.2,0.3,0.2,0.4,0.3C9.5,3,9.7,3,9.6,2.7c0-0.1,0.1,0.1,0.1,0.1
						c0,0,0,0,0,0.1c0-0.1,0.2-0.2,0.1-0.3c0.1,0,0.1,0.2,0.2,0.1l0,0.1c0.4,0.1,0.1-0.7,0.6-0.5c0,0,0,0-0.1,0c0.4,0,0.5-0.5,1-0.5
						c0.1,0,0.1-0.1,0-0.2l0.1,0.1l0-0.2c0-0.2,0.4,0.2,0.4-0.1l-0.1-0.1c0.1,0,0.1-0.2,0.2,0c0,0,0-0.1,0-0.1l0.1,0.1l0.1-0.2
						c0.1,0,0.2,0.3,0.3,0.2c0-0.1,0-0.3,0-0.4c0,0-0.1,0-0.1-0.1l0-0.1C12.3,0.3,12.2,0.1,12,0l0,0.2l-0.1-0.1L11.9,0
						c-0.1-0.1-0.1,0-0.1,0.1c0-0.1-0.1-0.1-0.1-0.1l0.1,0.3c-0.1-0.1-0.1-0.2-0.2-0.2c0,0.1,0.2,0.2,0.1,0.3
						c-0.1-0.1-0.2-0.2-0.1-0.1c0-0.1-0.1-0.1-0.1-0.1c0,0.1-0.1,0.1,0,0.2c-0.1-0.1-0.1,0.1-0.3-0.1c0,0.1,0,0.2,0,0.3
						c-0.1-0.3-0.2,0.1-0.3-0.2c0.1,0.3-0.1,0.2-0.2,0.4c0,0,0-0.1,0-0.1c-0.1,0-0.1,0-0.2-0.1c0.1,0.2,0.1,0.3,0.1,0.4
						c-0.2-0.1-0.1-0.3-0.2-0.4c0.1,0.2,0,0.2,0.1,0.3c-0.1-0.1-0.1,0-0.2-0.2c0.1,0.2,0,0.1,0,0.2c-0.2-0.1-0.2-0.2-0.2-0.1
						C10.1,1,10.1,0.9,10.1,0.9z M8.4,2.5L8.4,2.5C8.4,2.5,8.4,2.5,8.4,2.5C8.4,2.5,8.4,2.5,8.4,2.5z M8.2,2.7
						C8.3,2.6,8.3,2.6,8.2,2.7c0.1,0,0.1,0.1,0.1,0.1C8.3,2.7,8.3,2.7,8.2,2.7z M9.2,3.4C9.2,3.4,9.2,3.4,9.2,3.4
						C9.2,3.4,9.2,3.4,9.2,3.4L9.2,3.4C9.2,3.4,9.2,3.4,9.2,3.4z"/>
					<path fill="#FFFFFF" d="M9.1,3.2C9.1,3.2,9.1,3.2,9.1,3.2C9.1,3.2,9.1,3.2,9.1,3.2L9.1,3.2L9.1,3.2z"/>
					<path fill="#FFFFFF" d="M8.3,12.4L8.3,12.4C8.3,12.4,8.3,12.4,8.3,12.4L8.3,12.4z"/>
					<polygon fill="#FFFFFF" points="5.8,3.8 5.8,3.9 5.8,3.8 					"/>
					<path fill="#FFFFFF" d="M8.9,13.5C8.9,13.5,8.9,13.5,8.9,13.5C8.9,13.5,8.9,13.5,8.9,13.5z"/>
					<path fill="#FFFFFF" d="M9.3,13.8L9.3,13.8C9.3,13.8,9.3,13.8,9.3,13.8z"/>
					<path fill="#FFFFFF" d="M9.5,14C9.5,14,9.5,14,9.5,14L9.5,14L9.5,14z"/>
					<path fill="#FFFFFF" d="M4.8,10.9C4.8,10.9,4.8,10.9,4.8,10.9C4.7,10.9,4.7,10.9,4.8,10.9z"/>
					<path fill="#FFFFFF" d="M6.4,11.6C6.3,11.6,6.3,11.6,6.4,11.6C6.3,11.6,6.3,11.7,6.4,11.6z"/>
					<polygon fill="#FFFFFF" points="3.1,10 3.1,10 3.1,10 					"/>
					<path fill="#FFFFFF" d="M6.2,11.6C6.2,11.6,6.2,11.6,6.2,11.6C6.3,11.6,6.2,11.6,6.2,11.6z"/>
					<polygon fill="#FFFFFF" points="10.7,15 10.7,15 10.7,15 					"/>
					<path fill="#FFFFFF" d="M10.7,15L10.7,15C10.8,15,10.8,15,10.7,15z"/>
					<path fill="#FFFFFF" d="M10.8,15L10.8,15C10.8,15,10.8,15,10.8,15z"/>
					<path fill="#FFFFFF" d="M10.4,14.7L10.4,14.7C10.3,14.7,10.4,14.7,10.4,14.7z"/>
					<path fill="#FFFFFF" d="M10.2,14.6c0,0,0,0.2,0.1,0.2l0,0C10.3,14.8,10.3,14.5,10.2,14.6z"/>
					<path fill="#FFFFFF" d="M10.2,13.6l0.1,0.1c0-0.1,0-0.2,0.1-0.1C10.3,13.4,10.3,13.8,10.2,13.6z"/>
					<path fill="#FFFFFF" d="M9.9,13.4c0.1,0,0.1-0.1,0.1-0.1C9.9,13.3,9.9,13.3,9.9,13.4z"/>
					<path fill="#FFFFFF" d="M7.7,11.8l0.1-0.1C7.8,11.7,7.8,11.7,7.7,11.8z"/>
					<polygon fill="#FFFFFF" points="6.9,12.1 6.9,12.2 7,12.1 					"/>
					<polygon fill="#FFFFFF" points="7.2,11.1 7.3,11.1 7.2,11.1 					"/>
					<path fill="#FFFFFF" d="M3.5,8.5L3.4,8.7C3.5,8.7,3.6,8.5,3.5,8.5z"/>
					<path fill="#FFFFFF" d="M1.8,7.5c0-0.1,0-0.2-0.1-0.1C1.8,7.4,1.8,7.5,1.8,7.5z"/>
					<polygon fill="#FFFFFF" points="6.1,5.4 6.1,5.4 6.2,5.3 					"/>
				</g>
			</g>
		</g>
	</g>
</g>
</svg>
