<?xml version="1.0" encoding="utf-8"?>
<!-- Generator: Adobe Illustrator 17.1.0, SVG Export Plug-In . SVG Version: 6.00 Build 0)  -->
<!DOCTYPE svg PUBLIC "-//W3C//DTD SVG 1.1//EN" "http://www.w3.org/Graphics/SVG/1.1/DTD/svg11.dtd">
<svg version="1.1" id="Layer_1" xmlns="http://www.w3.org/2000/svg" xmlns:xlink="http://www.w3.org/1999/xlink" x="0px" y="0px"
	 viewBox="0 0 103.8 33.7" enable-background="new 0 0 103.8 33.7" xml:space="preserve">
<g>
	<g>
		<g>
			<g>
				<g>
					<path fill="#FFFFFF" d="M101.9,31.8c0.1,0.1,0.3,0.1,0.2-0.3l-0.3-0.3L101.9,31.8z"/>
					<path fill="#FFFFFF" d="M102.5,29.3c-0.2-0.4-0.4-1-0.7-0.7c0.3,0.4,0.2,0.5,0.6,1c0,0.4-0.1,0.7-0.2,0.6
						c0.1,0.1-0.1,0.6,0.1,0.8c0.3-0.5,0.3-1.1,0.1-1.8C102.4,29.1,102.5,29.2,102.5,29.3z"/>
					<path fill="#FFFFFF" d="M93.4,0.9l0.2,0C93.5,0.9,93.5,0.9,93.4,0.9z"/>
					<path fill="#FFFFFF" d="M70.4,0.7c0.2,0,0.2,0,0.3-0.1C70.4,0.6,70.3,0.7,70.4,0.7z"/>
					<path fill="#FFFFFF" d="M66.4,0.3c0.1,0,0.2,0,0.2,0C66.6,0.3,66.5,0.3,66.4,0.3z"/>
					<path fill="#FFFFFF" d="M93.4,0.9l-0.6-0.1C92.7,0.9,93.1,0.8,93.4,0.9z"/>
					<path fill="#FFFFFF" d="M101.7,24.2c0,0.1,0,0.2,0.1,0.3L101.7,24.2C101.8,24.2,101.8,24.2,101.7,24.2z"/>
					<path fill="#FFFFFF" d="M103.3,2l0,0.3c0,0.1,0.1,0.1,0.1,0.2L103.3,2z"/>
					<path fill="#FFFFFF" d="M103.4,10.1c0-0.2-0.3-0.2-0.4-0.3c0.1,0.1,0.2,0.2,0.2,0.4C103.2,10.1,103.3,10.1,103.4,10.1z"/>
					<path fill="#FFFFFF" d="M102.9,22.4l0,0.2C102.9,22.6,102.9,22.5,102.9,22.4z"/>
					<path fill="#FFFFFF" d="M97.9,0.5c0,0,0-0.1-0.1-0.1C97.9,0.5,97.9,0.5,97.9,0.5z"/>
					<path fill="#FFFFFF" d="M93.6,30.5C93.5,30.5,93.6,30.5,93.6,30.5C93.6,30.5,93.6,30.5,93.6,30.5z"/>
					<path fill="#FFFFFF" d="M102.6,31.9l-0.1,0c0,0.1,0,0.1,0,0.2L102.6,31.9z"/>
					<path fill="#FFFFFF" d="M59.2,0C59.2,0,59.2,0,59.2,0C59.4-0.1,59.3-0.1,59.2,0z"/>
					<path fill="#FFFFFF" d="M0.9,10.2c0.3-0.7,0.3,1.2,0.6,0.1C1.4,10.4,1.1,9.3,0.9,10.2z"/>
					<path fill="#FFFFFF" d="M101.8,24l0-0.3C101.8,23.8,101.8,23.9,101.8,24z"/>
					<path fill="#FFFFFF" d="M1.5,10.3L1.5,10.3l0-0.1C1.5,10.2,1.5,10.3,1.5,10.3z"/>
					<path fill="#FFFFFF" d="M42.7,0.1c0,0,0.1,0.1,0.2,0.1C42.8,0.2,42.8,0.2,42.7,0.1z"/>
					<path fill="#FFFFFF" d="M55,0.5l-0.3,0C54.8,0.5,54.9,0.5,55,0.5z"/>
					<path fill="#FFFFFF" d="M36.2,0.5c-0.2,0-0.2-0.1-0.4,0c0,0,0,0,0.1,0C35.9,0.5,36.1,0.5,36.2,0.5z"/>
					<path fill="#FFFFFF" d="M29.6,0.5c0,0,0.1,0,0.1,0.1c0.1,0,0.1,0,0.2,0L29.6,0.5z"/>
					<path fill="#FFFFFF" d="M73.3,30.6c0.1,0.1,0.2,0.2,0.3,0.3C73.5,30.7,74.5,30.6,73.3,30.6z"/>
					<path fill="#FFFFFF" d="M101.9,24.1c-0.1,0-0.1-0.1-0.1-0.2c0,0.1,0,0.2,0,0.2C101.8,24.2,101.9,24.2,101.9,24.1z"/>
					<path fill="#FFFFFF" d="M36,2.7l-1.1,0C35.2,2.7,35.6,2.7,36,2.7z"/>
					<path fill="#FFFFFF" d="M25.4,30.7l0.2,0C25.6,30.6,25.5,30.7,25.4,30.7z"/>
					<path fill="#FFFFFF" d="M31.8,2.7c-0.2-0.1-0.4-0.2-0.6-0.2c0,0-0.1,0-0.1,0.1L31.8,2.7z"/>
					<path fill="#FFFFFF" d="M73.6,30.9L73.6,30.9L73.6,30.9z"/>
					<path fill="#FFFFFF" d="M80.6,30.2c-1,0-0.5,0.4-0.7,0.6c-1.2,0.1-0.6-0.3-1-0.5c-0.8,0.1-1.3,0.4-1.9,0.4c0-0.1-0.2-0.1,0-0.2
						c-0.8,0.3-2.4,0-3.3,0.4c-0.1,0-0.1-0.1-0.1-0.1c0.2,0.2,0.2,0.4,0.1,0.5c-0.5,0-0.8,0.2-1,0c0.3,0,0.3-0.1,0.4-0.2l-0.5,0.1
						c-0.4-0.3,0.6-0.1,0.6-0.4c-0.9,0.1-2,0.4-2.7,0.3c-0.1-0.3,1.7-0.1,0.7-0.4l1.1,0.1c-0.8-0.5,0.7,0-0.1-0.5
						c-1.4-0.1-1.6,0.2-3.1,0.1c-0.3,0.2,0.1,0.3-0.2,0.5c-2,0.3-1.6-0.9-3.1-0.4c-0.4,0.2-0.5,0.7-1.6,0.4l0.4-0.4
						c-1.4,0-0.8,0.6-2.3,0.3c0.3-0.2,1.1-0.1,0.9-0.2c-0.9-0.3-0.7,0.2-1.4,0.2l-0.2-0.3c-1.5,0.1-3.1,0.3-4.8,0.4
						c0.1-0.1,0.4-0.2,0-0.3c-2.1,0.2-4.4,0-6.4-0.2l-0.8,0.3c-0.2,0-0.3-0.1-0.1-0.2c-0.8-0.1,0,0.2-0.4,0.3
						c-0.4,0-0.6-0.2-0.3-0.3c-1.4,0.2-3.9,0.5-5.4,0.2l0.3-0.1c-1.1-0.1-1.3,0.6-2.3,0.3l0.2-0.1c-2.5-0.1-5.2,0.1-7-0.3
						c-0.4,0.4-2.4-0.2-2.6,0.4c-1.4-0.3-1-0.4-3-0.6c-0.5,0-0.8,0.4-1.4,0.4l0-0.3l-0.9,0.3l-0.5-0.4l-0.6,0.1
						c0.2,0,0.5,0.1,0.5,0.2c-1,0.1-2.3-0.2-2.4-0.4l-2.3,0.3c0.1-0.1,0.4-0.2,0.7-0.2c-1.2,0.3-0.2-0.3-1.3,0
						c0.1,0.1-0.1,0.2-0.1,0.2c-0.6-0.2-1.8-0.2-2.7-0.1l0.2-0.2c-1.7-0.1-3.5,0.1-5.4,0.1c0.7,0.1,0.5,0.5,0,0.5l-0.2-0.3
						c-0.4,0.2,0.6,0.1-0.2,0.4c-0.7,0-0.5-0.4-0.1-0.5l-0.9,0.1c-0.1-0.1,0.2-0.1,0.2-0.3c-0.4,0.2-1.5-0.3-2,0l0-0.1
						c-1.9,0-2.7,0.1-4.3,0.1c0,0.3-0.6,0.2-1.1,0.4c-0.2,0-0.4,0-0.5-0.1c-0.2,0-0.2,0-0.3-0.1c-0.1,0-0.2-0.1-0.3-0.1
						c0-0.2,0.1-0.3,0.1-0.4c0,0,0-0.1-0.1-0.2c0-0.1,0-0.1,0-0.2c0-0.1-0.1-0.1-0.1-0.1c-0.1,0-0.1,0.1-0.2-0.2
						c0.3-0.1,0.2-1.4,0.4-0.7c0-1.6-0.1-2.1-0.3-4.1c-0.1,0.2-0.2,0.5-0.2,0.3c0-0.4,0.1-0.9,0.2-0.8l0,0.1
						c-0.4-2.3,0.7-5.3,0.2-7.2l0,0.1L3,15.5c0-0.9,0.2,0.5,0.4-0.1c-0.4-2.1,0.1-3.3-0.2-4.9C3.9,9.1,3.1,5.7,3.6,4L3.4,4.1
						C3.2,3.6,3.5,3.5,3.5,3.2c-0.1,0-0.2,0.5-0.3,0.2l0-0.4l0-0.1c0-0.1,0-0.2,0-0.3c0.3,0,0.2,0,1.3,0.1c0.8,0,1.7,0.1,2.5,0.1
						c1.7,0.1,3.3,0.2,5,0.3c1.5,0,0.8-0.9,2.7-0.5l-0.5,0.3c2.9-0.4,6,0,8.9-0.3c-0.2,0.1-0.2,0.2-0.5,0.2c0.6,0.2,2.2,0,2.3-0.2
						c0.4,0,0.1,0.2,0.4,0.3c0.6,0.1,1.5-0.3,1.9-0.1c0.1,0-0.2,0.1-0.3,0.1c0.4-0.1,1.8,0,1.5-0.2c1.1,0.1,2.1-0.1,2.9,0
						c0.6-0.3,1.8,0.1,2-0.3c-0.1,0.5,1.9,0.4,2.6,0.2c-0.2,0.1,0.6,0.1,0.3,0.3c0.8,0,1.5-0.1,1.4-0.3C38.9,3,40.3,2,41.1,2.7
						c2.3-0.2,4.4-0.4,6.5-0.5c-0.1,0.5-2.3,0-2.2,0.5c2-0.2,3.1-0.6,5.1-0.5c0.5,0.1-0.3,0.2-0.5,0.3c2-0.2,3.8,0,5.6-0.2
						c0,0-0.2,0.1-0.4,0.1c0.3,0,0.8,0.1,0.8-0.1l-0.3,0.1c-0.6-0.3,1.4-0.6,1.4-0.8c-0.6,0.6,1.7,0.1,0.8,0.9
						c0.2,0,0.5-0.1,0.5-0.3c0.3,0,0.4,0.1,0.1,0.3c1.2-0.1,0.8-0.3,1.9-0.3c0,0.1-0.2,0.1-0.3,0.3c0.6-0.2,1.1-0.4,2.1-0.3
						c-0.1,0.1,0.1,0.1-0.2,0.1c1.6,0,2.8-0.5,4.6-0.3c-0.5,0.4,0.6,0.1,0.7,0.5l1-0.1l-0.4-0.2c0.8,0,1.6-0.3,2.3-0.1l-0.6,0.2
						L71,2l-0.9-0.1c0.9-0.2-0.1-0.5,1-0.4c-0.2,0,0.8,0,1.3,0.2l0,0c0.4-0.1,0.8-0.2,1.5-0.2c0.2,0.1-0.1,0.4,0,0.5
						c0.4-0.3,2-0.1,2.5-0.4C76.2,1.8,76.2,2,76.2,2l0.3-0.3C77,1.8,77,1.9,76.9,2c1.2,0-0.4-0.5,1-0.3c-0.1,0-0.1,0.1-0.3,0.1
						c1.4,0.1,2.7-0.2,4,0C82,2.2,80.5,1.9,81,2.2c1.9-0.1,3.8-0.5,5.6-0.4l-0.3,0c0.2-0.5,1.3,0.3,2.2,0c-0.2,0-0.3,0.3-0.2,0.2
						c1.2,0.1,2.5-0.1,4.4-0.3l-0.2,0.1C93.1,2,94.3,2,95.1,2c0.2-0.1,0.7-0.1,0.4-0.3C96.7,2.1,97.8,2,99,1.9
						c1.1-0.1,2.4-0.3,2.8,0.1c-0.2,0-0.4,0.1-0.3,0.1l0.5-0.1l0.1,0.6c0.2-0.2,0.1-0.2,0.3-0.6c0.1,0.1,0.2,0.5,0.2,1
						c-0.1-0.4-0.2-0.3-0.3-0.2c-0.1,0.1-0.2,0.4-0.2,0.6c0.1-0.1,0.1,0.1,0.2,0c-0.4,1,0.5,0.2,0.2,1.5l-0.1-0.1
						c0.1,0.5,0.2,0.9,0.2,1.5c-0.3,0.2-0.1-0.5-0.3-0.6c0,0.7,0.5,1.5,0.2,2.1c-0.1-0.3-0.1-0.8-0.1-1.1C101.9,7.4,102,7.5,102,8
						l0-0.1l-0.1,1.2l0.1-0.3c0.7,0.9,0.1,1.9,0.6,3.1c-0.4-1.2-0.2-0.2-0.6-0.3c-0.1,0.3-0.2,0.8-0.3,0.7c0.2,0.6-0.2,1,0.2,1.8
						c-0.1,0,0,0.6-0.3,0.5c0.1,0.8,0.2-0.2,0.3-0.1c0.3,1.2-0.4,2.8,0.1,4.4c0.2,1.5,0.5,1.7,0.7,3.1c-0.2,0.5-0.4-0.4-0.4-0.4
						c-0.1,0.7-0.1,1.3,0,2c-0.1-0.1-0.2,0-0.3,0.2c0,0.6,0.4,0.4,0.2,1.1c-0.1-0.1-0.3-0.3-0.4-0.6c0.1,0.7,0.3,1.3,0.4,2
						c-0.2,0.2-0.3-0.4-0.4-0.6c0.1,0.8,0.2,2,0.4,2.2l0.1-0.5c0,0.3-0.2,0.1-0.3-0.1c-0.2-0.7,0.1-0.9,0.2-1l0.1,0.5
						c0.6-0.5-0.1-1.9-0.1-2.9l0.4,0.4l-0.3-1c0.1-0.2,0.3-0.4,0.4,0.1c0.2-0.7-0.1-0.6,0.1-1.2c0-0.1,0.1,0,0.1,0l-0.1-0.7
						c0.1,0.1,0.3-0.1,0.2,0.3c0.2-1.2-0.3-2,0-2.4l0,0.1c-0.1-1.7-0.3-0.2-0.7-1.4l0.8-0.9l-0.3-0.2c0-0.2,0-0.5,0.2-0.5
						c-0.2-0.7-0.1,0.1-0.3-0.3c0.3-0.8-0.1-2.3,0.4-2.5c-0.2-0.3-0.2,0.8-0.3-0.1c0.5-0.3-0.1-1,0.2-1.8c0.3,0.2,0.1,1,0.4,0.2
						c-0.5-0.5,0.1-1.5,0-2.1c-0.4,0-0.2-1.4-0.3-2.5c0.1,0.1,0.2-2.1,0.3-3.1l0.1,0c-0.2-0.1-0.3-0.4-0.3-0.8c0-0.4,0-0.8-0.1-1.3
						c0.1,0,0.2,0,0.2,0.1c0.1,0.1,0.1,0.3,0.2,0.5l0-0.9c-0.1-0.2-0.2-0.5-0.2-1.1c0,0,0.3,0,0.3,0c0-0.2,0-0.4,0-0.6
						c-0.6,0-1.2,0.1-1.9,0.1c-0.2,0-0.3,0-0.5,0c-0.1,0-0.2,0-0.4,0c-0.2,0-0.5,0-0.7-0.1c-0.1,0.3,1,0.7-0.3,0.9
						c0-0.1-0.1-0.4,0.2-0.4c-0.1,0-0.4,0.1-0.6,0.1L99.7,1c-0.6-0.1-0.3,0.2-0.7,0.2c0-0.2-0.3-0.1-0.3-0.3c0.1,0,0.4,0.1,0.6,0
						c-0.5,0-1.1-0.2-1.3-0.3c0,0.1,0,0.3-0.4,0.3c-1,0-0.3-0.2-0.9-0.3c-0.2,0.1-0.8,0-0.9,0.3c-0.3,0-0.3-0.1-0.4-0.2
						c-0.5,0.1-2.3,0-1.7,0.4l0.1,0c0,0-0.1,0-0.1,0h0h0c-1.6,0.3-3.4-0.2-5,0l0-0.1c-1,0.1-2.1,0.1-2.8,0.3c-0.3,0-0.7-0.2-0.5-0.3
						c-0.7,0.1-0.8,0.2-1.9,0c0.7-0.2-0.3-0.2,0.8-0.1c-1-0.1-1.2-0.2-2.2,0c0.3-0.3-0.7-0.3-1.2-0.2l0.7,0.2c-0.5,0-1,0-1.4,0
						l0.2-0.3c-1.9-0.4-3.5,0.7-5,0c-0.5,0.2,1.1,0.2,0.6,0.4c-0.9,0-1.8-0.5-2.1-0.5c-1.2-0.2-1.1,0.5-2.4,0.4
						c0.2,0.1,0.3,0.4-0.6,0.5c-0.9,0-1.1-0.5-0.5-0.6c0.2,0,0.3,0,0.3,0.1c0.3,0,0.7-0.1,0.3-0.2l-0.1,0.1
						c-0.4-0.1-1.7-0.1-1.4-0.3c-0.7,0.1-0.3,0.2,0.2,0.3c-1.1-0.2-1.8,0-3-0.1c0.2,0.1,0.4,0.2,0.2,0.2c-1.7-0.1-0.8,0.2-1.9,0.3
						c-0.7-0.2,0.2-0.4-0.9-0.3c-0.7-0.1-0.2-0.3,0.1-0.4c-1.1,0.2-2-0.2-2.6-0.2L62-0.2c-0.3,0.1-0.6,0.1-0.9,0.1l0.3,0.2
						c-0.3,0-0.6,0-0.6-0.1c-0.3,0.2,0.3,0.4-0.4,0.6c-0.4-0.1-1.4,0.1-1.5-0.2c1.4,0.1-0.2-0.3,1-0.4c-0.2,0-0.5,0-0.8,0
						C59,0,59.1,0,59.2,0c-1.3-0.3-0.6,0.4-2,0.3C57.4,0.1,56.9,0,56.7,0c0.6,0,0.3,0.3-0.2,0.4c-0.9-0.1-1,0.1-1.4,0.1l0.5,0.1
						c-0.2,0.2-0.6,0.2-1.2,0.2c-0.1-0.1,0.6-0.1,0.3-0.2c-0.7,0.3-1.6-0.3-2.5-0.1c-0.4-0.1,0-0.3-0.4-0.4
						c-1.1,0.2-1.2-0.2-2.3-0.1c0.3,0.2,0.4,0.2-0.4,0.4l1.9-0.2l-1.2,0.3c0.6,0,1.2-0.1,1.5-0.1c-0.6,0.2-0.5,0.1-0.2,0.3
						c-0.8-0.4-1.5,0.2-2.4,0l0-0.6c-1.3-0.3-2.4,0.3-4.1,0.2L45,0.5c-0.2,0.2-1.1,0-1.6,0.1c0.1-0.2-0.3-0.3-0.5-0.4
						c0,0.1-1.3,0-1.4,0.4l-0.8-0.3c-1.4-0.1-1.6,0.6-2.9,0.5c0.4-0.2-0.2-0.4,0.7-0.5c-0.4,0-0.9,0-0.9,0.1
						c-0.3-0.1-1.2,0.3-1.7,0.1c-0.2,0.1-0.3,0.3-0.8,0.3c-0.1,0,0-0.1,0-0.1c0,0.1-0.8,0.1-0.3,0.4c-1.4-0.6-3.9,0-5.1-0.5
						c-1,0.1-2.2,0.1-3,0.1c0.1-0.1,0-0.1,0.2-0.1c-1.2-0.2-0.8,0.6-2.1,0.4C24,0.7,25.4,0.8,25,0.7c-0.2-0.6-1.7,0.1-2.6-0.3l0.2,0
						c-0.7-0.2-1.8,0.2-2.9,0.2c0,0,0.1-0.1,0-0.1c-0.8,0.3-2.3,0.4-3.4,0.5c0.4-0.3,0.5-0.1,0.3-0.4c-0.5,0,0.1,0.4-0.9,0.5
						c-0.3-0.1-1.1-0.3-1.2-0.5l1,0c-0.5-0.4-1.2,0-1.7,0l0.1-0.2c-1.5,0.1-1.5,0.4-3,0.4l0.2,0.1C10,1.3,10.2,0.7,9.3,1L9,0.6
						C8.5,0.7,7.1,1,6,1c0.6-0.3,1.8-0.4,2.5-0.6c-0.6,0-1.9,0-2.2,0.2c0.2,0,0.5-0.1,0.7-0.1C6.4,0.9,5.5,1,4.4,1
						c0.1-0.3-0.2-0.4-0.7-0.4C3,0.6,2.2,0.6,1.3,0.5c0,0.9-0.1,1.7-0.3,2.1C1,2.9,1,3.2,1.1,3.5c0,0.2,0,0.5,0,0.7c0,0.5,0,1,0,1.5
						C1,6.8,0.9,7.8,0.9,9c0.6-0.8,0,0.7,0.6,0.5c0,0.5,0,0.7,0,0.8l-0.4,1.6C1,12.3,1,11.4,0.9,11.5c0,1.2-0.3,0.5-0.4,1.3
						c0.2-0.2,0.3,0.4,0.2,1.1L1,12.9c0.3,1.6-0.5,1.4-0.2,3.1l-0.2-0.5c0.1,0.8,0,3.1,0.5,4c-0.1,0.2-0.2,0.3-0.3,0
						c-0.1,2,0.5,4.5,0.2,6.1l-0.1-0.2c0,0.4,0.3,0.7,0.1,1.1c-0.1,0-0.1-0.2-0.2,0c0.1,0.2,0.3,1,0.2,1.5l-0.2-0.4
						c-0.1,0.9,0,1.6,0.1,2.3l0,0.2c0,0.1,0,0.2,0,0.3l0.1,0.8c0.1,0.5,0.1,1,0.2,1.4c0.2,0,0.4,0,0.6,0c-0.2,0.2,0.3,0.4,1.2,0.5
						c0.2,0,0.4,0,0.6,0.1c0.1,0,0.3,0,0.4,0.1c0.3,0,0.5,0.1,0.7,0.1l0,0.1c2.3,0.1,3.9-0.4,6-0.5c1.3,0.5,4.5,0.2,6.6,0.5
						c-0.3-0.1,0.1-0.3,0.4-0.4c0.5,0.1,1.4-0.3,1.3,0.1l-0.2,0c0.4,0.4,1.4,0.3,2.2,0.3l0.1-0.5c2.1,0.8,5.5-0.3,6.6,0.4
						c0.5-0.1,1.1-0.1,1.6-0.3l0,0.3c1.4,0.1,2.1,0.1,3.8,0l-0.4,0.2c1,0,1.2-0.8,2.1-0.8l0.3,0.4c1.7,0,3.4,0.4,5.1,0
						c0,0.1-0.1,0.2-0.4,0.2c0.8,0,3.1,0.3,2.8-0.3c0,0.4,1.8,0,2.7-0.1L45.6,33c0.8-0.4,0.8-0.5,1.9-0.6c0.3,0,0.2,0.2-0.1,0.2
						c0.9,0.1,0.7-0.3,1.7-0.1l-0.4,0.2c0.9,0,0.8-0.1,1.3-0.3c0.6-0.1,1.7,0.1,1.8,0.3c0.1-0.2,0.6-0.4,1.1-0.3
						c0.1,0.1-0.1,0.2-0.2,0.2c1.5,0.2,2.2-0.3,3.2-0.1c0,0.1,0.1,0.1,0.2,0.2c-1.2,0-2.1,0-2,0c0,0.3,0.9,0.3,0.2,0.7
						c0.8-0.2,2.1-0.6,3-0.5c0,0,0.1,0,0.1,0.1l-0.1,0c0.2,0,0.4,0,0.6,0c0.3,0,0.5,0.1,0.8,0.1c0.1,0.2,1.1,0.1,1.6,0.1
						c0-0.3,0.6-0.2,0-0.5c0.1,0-0.1,0-0.4,0c-0.1,0-0.2,0-0.2,0l0,0c-0.3,0-0.7,0-1.2,0c0.4-0.1,0.8-0.3,1.3-0.1
						c0.2-0.2,0.5-0.4,0.7-0.5c0.6,0.4,1.9,0.6,2.1,0.8c1.4-0.2,3.4-0.1,4.3-0.6c0.4-0.1,0.5,0.2,0.6,0.2c-0.2,0.1-0.5,0-0.6,0.1
						c0.8-0.1,2.4-0.1,2.6-0.4c1,0.2-0.6,0.3,0.8,0.3L70,32.7c2.8,0.6,4.5-0.9,7.6-0.2c-0.2,0-0.3-0.1-0.4-0.1
						c3.5,0.3,7.3-0.3,10.7,0.2c1,0.1,1.1-0.1,1.7-0.3l0.2,0.3l1-0.3c1.5-0.3,2.5,0.7,4.4,0.3l-0.2-0.2c0.7,0,2.1-0.1,2,0.1
						c0.1,0,0.2-0.2,0.5-0.1l0,0.2l1.6-0.3c1.3,0.1-0.2,0.6,1.7,0.7c0.7-0.1,2-0.5,1.7-0.6c-0.3,0-0.7-0.1-0.7-0.3l0.6-0.1
						c0.1-0.5,0.6-0.9-0.9-1.3l-1.1,0.3l-0.3-0.2l0.9,0c-0.5-0.2-0.8,0-1.2,0.1c-0.1-0.1-0.2-0.2-0.5-0.2L98.3,31
						c-0.1-0.2,0.5-0.4-0.2-0.5c-0.5,0.2,0.5,0.4-0.3,0.5c-0.5-0.2-0.4-0.4-1-0.2c-0.1-0.1,0-0.2,0.3-0.2c-0.5,0.1-1.4,0.1-1.7,0.3
						c-0.5-0.3-1.8,0.1-1.8-0.4c-0.2,0.1-0.9,0.3-1.4,0.4c0.9-0.5-1.8,0-1.6-0.6c-0.7,0.5-2.4,0.2-3.6,0.5c0.1,0,0.2-0.1,0.3-0.1
						c-0.7,0-0.9-0.2-1.3-0.3c-0.1,0.4-1.1,0.5-1.7,0.7c-0.8-0.4,0.5-0.5,0.2-0.8c0,0.3-1.4,0.3-1.1,0.6c-0.6-0.2-0.5-0.1-0.9-0.4
						c-0.1,0.5-0.6,0.1-1.1,0.4c-0.9-0.2-0.2-0.5-1.2-0.3C79.7,30.4,80.6,30.2,80.6,30.2z M57,31.1L57,31.1c0.2,0,0.4,0,0.5,0
						C57.4,31.1,57.2,31.1,57,31.1z M55,31.1c0.2,0,0.5,0,0.9,0c0.1,0.1,0,0.2-0.2,0.2C55.8,31.2,55.3,31.2,55,31.1z M59.2,33
						c-0.3,0-0.4,0-0.5-0.1c0.1,0,0.3,0,0.5,0c0,0,0,0,0,0C59.3,32.9,59.2,33,59.2,33z"/>
					<path fill="#FFFFFF" d="M59.8,32.7c0,0,0.1,0,0.1,0C59.8,32.6,59.8,32.6,59.8,32.7c-0.1-0.1-0.1,0-0.2,0
						C59.6,32.7,59.7,32.7,59.8,32.7z"/>
					<path fill="#FFFFFF" d="M93.7,0.9L93.7,0.9C93.6,0.9,93.7,0.9,93.7,0.9C93.7,0.9,93.7,0.9,93.7,0.9z"/>
					<polygon fill="#FFFFFF" points="27.6,30.6 27.6,30.6 27.8,30.6 					"/>
					<path fill="#FFFFFF" d="M102,3.3c0,0-0.1,0.1-0.1,0.1C102,3.5,102,3.4,102,3.3z"/>
					<path fill="#FFFFFF" d="M102,8l-0.1,0.7C101.9,8.4,102,8.2,102,8z"/>
					<path fill="#FFFFFF" d="M101.8,11.7c0,0,0.1,0.1,0.1,0.1l0,0L101.8,11.7z"/>
					<path fill="#FFFFFF" d="M55.3,2.4c0,0-0.1,0-0.1,0C54.8,2.5,55,2.5,55.3,2.4z"/>
					<path fill="#FFFFFF" d="M72.4,1.8c-0.2,0.1-0.4,0.1-0.6,0.1C72.2,1.9,72.4,1.9,72.4,1.8z"/>
					<polygon fill="#FFFFFF" points="36.1,2.8 36.1,2.7 36,2.7 					"/>
					<path fill="#FFFFFF" d="M71.1,1.9c0.3,0.1,0.6,0,0.8,0C71.6,1.9,71.3,1.8,71.1,1.9z"/>
					<path fill="#FFFFFF" d="M101.7,27.4l0,0.2c0,0,0,0,0,0L101.7,27.4z"/>
					<path fill="#FFFFFF" d="M101.7,27.6l0,0.2C101.8,27.7,101.8,27.6,101.7,27.6z"/>
					<path fill="#FFFFFF" d="M101.8,28.2l-0.1-0.4C101.8,27.9,101.8,28.1,101.8,28.2z"/>
					<path fill="#FFFFFF" d="M101.8,22.6l-0.1-0.1C101.8,22.6,101.8,22.6,101.8,22.6z"/>
					<path fill="#FFFFFF" d="M101.8,21.1c0,0.3-0.2,0.9-0.2,1.4l0.1,0C101.6,22.3,102,21.5,101.8,21.1z"/>
					<path fill="#FFFFFF" d="M103.1,15l-0.1,1.2c0.1-0.2,0.3-0.5,0.3,0.1C103.6,14.8,103,16.6,103.1,15z"/>
					<path fill="#FFFFFF" d="M103.2,11.2c0.1,0.7,0.2,0,0.2,0C103.3,10.9,103.3,10.8,103.2,11.2z"/>
					<path fill="#FFFFFF" d="M85.1,0.7l0.1-0.3C84.7,0.5,85.2,0.5,85.1,0.7z"/>
					<polygon fill="#FFFFFF" points="79.9,2 80.4,2.2 80.6,1.9 					"/>
					<polygon fill="#FFFFFF" points="76.8,0.2 77,0.2 76.1,0.2 					"/>
					<path fill="#FFFFFF" d="M30.8,0.3l0.2,0.3C31.3,0.5,31.3,0.2,30.8,0.3z"/>
					<path fill="#FFFFFF" d="M10.9,0.6c-0.2-0.2-0.8-0.3-1.1-0.1C10.2,0.5,10.7,0.6,10.9,0.6z"/>
					<polygon fill="#FFFFFF" points="22.3,33.1 21.9,33.2 22.7,33.1 					"/>
				</g>
			</g>
		</g>
	</g>
</g>
</svg>
